<?xml version="1.0" standalone="no"?>
<!DOCTYPE svg PUBLIC "-//W3C//DTD SVG 1.1//EN" "http://www.w3.org/Graphics/SVG/1.1/DTD/svg11.dtd" >
<svg xmlns="http://www.w3.org/2000/svg">
<metadata></metadata>
<defs>
<font id="merchant_copy_doublesizeRg" horiz-adv-x="1449" >
<font-face units-per-em="2048" ascent="1638" descent="-410" />
<missing-glyph horiz-adv-x="500" />
<glyph horiz-adv-x="0" />
<glyph unicode="&#xd;" />
<glyph unicode=" " />
<glyph unicode="!" d="M971 1010v250h-10q-8 8 0 26h10v387h-10q-10 55 0 111h10q-4 12 -10.5 14t-6.5 19h-30v10q-12 -4 -38 3t-36 7q-10 25 -10 78h-6v104q-20 0 -17 6q-14 0 -14 -6l-6 6q-63 -4 -108.5 -5t-74.5 -1q4 -4 0 -7t-16 -3v-37h10q-4 -20 -7 -52t-3 -79q-41 -4 -67.5 -7t-47.5 -7 q6 -10 -6 -10v-269h6q4 -4 4 -16q0 -4 -4 -10h-6v-41h6q4 -6 4 -17q0 -10 -4 -14h-6q4 -10 5 -25.5t1 -44.5q4 4 7.5 1t3.5 -11q-8 -12 -12 -20l-5 -7v-14h6q4 -12 4 -24v-23v-25q0 -12 -4 -22h-6q-4 -4 -1 -5t7 -5q6 -139 0 -211q20 -10 36 -18.5t26 -12.5q25 0 37 -3 t16 -7v-37h10q4 -43 5 -106.5t1 -155.5h4q8 -14 0 -37h-4v-10q10 -12 25.5 -16.5t32.5 -4.5q0 -4 11 -7t15 -15h68v12q12 -4 26.5 7t24.5 7l6 -4h17q4 4 10 4q-12 12 -6 64h6v37q-10 0 -10 4q4 6 10 0l4 241q16 33 47 27v4q47 9 70 23zM975 113v37q-4 -4 -10.5 6t-10.5 10 q20 0 21 10v17q-10 0 -4 4q-33 0 -33 6v4q-31 0 -54.5 1t-33.5 5v74q-8 0 -16 14l-52 6v4h-63v-4q-4 -4 -10.5 -5t-10.5 -1q-8 0 -15 1t-11 5v4h-21q-23 6 -26.5 -4t-2.5 -25.5t3 -30.5t-11 -22q-59 -23 -100 -22q0 4 -4 -2t-16 -23v-73q29 -4 44 -7.5t23 -3.5v-12 q35 0 44 -7t9 -24h4v-47q-6 -6 27 -16q35 -8 69 -11.5t68 1.5q35 12 52 17l16 5q0 23 14 14v54q66 6 54 14v12q4 4 9 7.5t17 3.5q27 0 31 4z" />
<glyph unicode="&#x22;" d="M1288 1538q0 10 -10 10v43h10v78h-10v37h10v31q-12 4 -13 5t3 5q4 6 10 6v27h-10v114h-6q-4 4 -5 14.5t-1 22.5h-11q-6 20 0 41h11h-11q-6 20 0 27h23v26q-33 4 -56.5 5.5t-39.5 5.5q0 6 -3 7t-7.5 2t-7.5 4t-3 13v27h-10v31h-10q-4 4 -5 10t-1 10q-18 -4 -48 -4h-61 h-104q0 -23 -7 -27h-6v-63h-20v-10q-31 -4 -54.5 -5t-39.5 -6v-83q4 4 8 -3.5t12 -17.5q43 0 43 -10l51 -6v-47h6q4 -12 10.5 -17.5t6.5 -9.5l51 -4v-10q14 14 43 -13q4 -18 7 -34.5t3 -26.5h11v-57h-11q-6 -6 11 -7v-131q-76 -16 -98.5 -25.5t-26.5 -21.5v-31h4q6 -6 6 -36 q4 4 10 -6.5t10 -10.5q43 0 62.5 1t11.5 5q0 -6 10 -16h51v-10h17v10q35 10 47 10q0 4 5 21.5t5 21.5h10v47h43q20 0 31 4v11h33q4 4 5 8t5 8zM664 1591v15q-10 0 -11 6v403q-70 31 -114 21q-10 27 -11 78h-10v22h-53v4q-16 -4 -23.5 -6t-7.5 2h-90v-12q-16 8 -57 -15v-84 h-115v-53h-10v-26h10v-11q35 -10 59.5 -18t44.5 -12v-21h11v-47q20 -16 38.5 -23.5t34.5 -3.5q-6 6 31 7q12 0 19.5 -4.5t3.5 -8.5v-162h10q6 -23 0 -40h-10q0 -10 10 -11q6 -16 0 -37q-23 -8 -27 -22q-29 -4 -48 -6t-32 2l-20 -21v-84q12 -8 24.5 -15t22.5 -11h27v10h110 v-10h27v10q16 0 18 19.5t6 23.5h7v47q47 23 63 14v11h31q0 16 20 16l6 53h5zM946 1894h-4v11h4v-11z" />
<glyph unicode="#" d="M1346 627v198h-7q-8 10 -14 0q-20 4 -48 5t-63 1h-63q-27 0 -47 5v16h-10q-10 41 0 84h10v27h-10v387h10v41q78 39 127 32v-6h82q12 12 26 6v27h7v51h-7v131q-72 8 -122 11.5t-82 -1.5v11h-52q-4 4 -1 10t12 10h-7q-4 4 -7 11.5t-3 11.5q0 8 3 12t7 8h7q-2 0 -4.5 1 t-3.5 12.5t-2 39t-1 82.5q-23 0 -10 13h10v145h-10v27q-10 -10 -10 10h-64q4 -4 3 -7t-13 -3q-8 0 -11 3t1 7h-94q4 -4 -3.5 -7t-19.5 -3q-41 -27 -20 -27v-256h6q6 -16 0 -31h-6l6 -6q6 -16 0 -30h-6v-23h6q6 -23 0 -47h-6v-14h6q6 -16 0 -43h-6v-11q-111 0 -170.5 1 t-69.5 5v21h-16v276h-11q-8 25 0 64h11q-6 6 -11 6v21q-16 0 -10 4h-59q-25 0 -35 -4q-55 -16 -84 4q-12 -4 -22 -4h-15v-138h4q-8 -98 -11 -187t1 -167q-35 -10 -89 -13t-120 -3q10 -10 -10 -11v11q-10 6 -10 0q-4 -4 -5 -7.5t-6 -3.5v-69q4 10 7.5 6t3.5 -17q0 -8 -4 -8 q-2 0 -7 4v-63q4 8 7.5 5t3.5 -15q0 -8 -3 -9.5t-8 3.5v-25q-6 -6 21 -16q49 -16 74 -17v-4h20v4q23 8 41 0v-4h74v-27h10q4 -20 5 -49.5t1 -70.5q4 0 6 -3.5t-2 -7.5h-4v-4q0 -2 4 -6v-387q-133 -18 -198 -12q-4 -8 -5 -12.5t-6 -8.5q12 -4 7 -4h-27v-100h-10l10 -10 q4 -4 4 -11q0 -4 -4 -16h-10v-37q4 4 7 0t3 -14q47 -8 83 -12.5t62 -4.5v-10q70 0 74 -6q8 -33 12 -48t6 -19l3 -5v-2v-293q16 0 34.5 -5t34.5 -5q-4 -8 -2 -12t6 -4q43 4 75 8t52 4v4q18 12 27.5 16.5t13.5 4.5v73h-4v48h4v26q-10 0 -4 6q0 4 4 4v111q-4 0 -4 10t4 10 l6 152q4 6 4 10q31 25 54 17q29 14 37 0q74 -10 104 0q12 -12 20.5 -17.5t16.5 -9.5q4 -10 4 -18v-13h10q10 -27 0 -53h-10v-31h10v-78h12q6 -35 0 -59h-12v-94q33 0 33 -14h168q0 4 31 4q0 10 10 10v70h-10q0 14 6 20l4 360q10 -6 10 0q0 10 16 11q10 0 36 5t57.5 10 t62.5 9t53 2q-16 17 7 17zM862 737h-98v-10h-57v10h-95q0 10 -3 11.5t-7 -7.5v168h-12v21h12v141h-12v117h12v98q0 4 12.5 8t12.5 9q49 -8 90 16h57q0 -4 10.5 -8t10.5 -8h32q-4 -4 0 -5.5t15 -5.5q0 -47 6 -53v-346q4 -4 14 -4v-84q-8 8 -14 -10q6 -23 14 -11v-47z" />
<glyph unicode="$" d="M1350 496v141q-14 0 -11 6q0 4 11 4v21h-11v247q-16 0 -10 11l-51 4l-64 6v78h-10v16l-94 4q0 12 -5 14.5t-18 32.5q-6 27 0 43q-10 4 -12 5t2 6l-229 6v20h-10q-8 14 0 37h10v78h-10q-10 16 0 27h10l-10 10q-8 14 0 37h10v16h-10q-10 14 0 31h10v20h-10q-8 14 0 33h10 v35q-25 0 -17 12h17v105q4 0 4 10q20 4 36.5 6t33.5 -2v10q-4 -4 3 -7t27 -3q10 -25 11 -68h10v-16q57 -16 94 -10q0 -29 3 -33t7 8h10q4 -10 5.5 -20.5t1.5 -26.5q6 0 6 -16h47v-11q51 0 57 -6q16 -41 10 -78q4 4 12 -6l9 -10q12 -4 33.5 -1t50.5 7q0 20 20 21v20h-4 q-8 23 0 37h4v27h-4q-4 12 -4 16q0 6 4 10h4v15h-4q-8 37 0 73h4q0 35 -3 59.5t-7 45.5q-39 0 -66.5 1t-48.5 5q-10 25 -10 78q-41 12 -67.5 18t-42.5 2v6q-16 16 -17 78q-4 -4 -7 -1t-3 11q-16 0 -46 2t-63.5 4.5t-66.5 4.5t-53 2q-4 27 -5.5 66.5t-1.5 94.5h-4q-6 4 -6 21 q-12 0 -13 1t7 5h-141q-16 0 -27.5 -1t-19.5 -5v-10l-31 -6l-6 -166q-10 -4 -21.5 -8.5t-19.5 -4.5v13q-131 -18 -195 -13q0 -20 -4 -24h-10v-74q-12 4 -42 1t-75 -7q-4 -8 -5 -12t-5 -9h6q6 -80 0 -151v-12q0 -4 -5 -7.5t-19.5 -5.5t-42.5 -2v-10q-25 -12 -37.5 -19.5 t-16.5 -11.5v-10l11 -12h-11v-236h11v-14q10 6 10 -10h33q18 -12 34.5 -17.5t26.5 -9.5v-33h6q4 -10 4 -18q0 -6 17 -6q18 -6 18 -13q0 -4 3 -9t18.5 -10t60.5 -11v-27h10q4 -18 4 -47v-61q6 -6 6 -33q25 0 31 -10v-11q8 4 20.5 5t32.5 1l32 -4t99 -8v-10q16 0 23.5 -16.5 t3.5 -20.5q0 -4 -6 -4v-21q6 4 6 -6v-387q-16 -4 -28.5 -7t-24.5 -3q10 -10 -6 -10q-25 0 -15 10h-131q-27 16 -47 10v172q-10 0 -10 11q0 10 10 10v33h-10q-8 23 0 36h10q-4 10 -7 16l-3 5q-12 0 -22.5 1t-14.5 5v10h-110v-10q-16 -4 -23 -8l-8 -4q4 6 -53 6v-289 q-6 -2 3 -7t25.5 -10t37 -9.5t38.5 -4.5q10 -27 10 -67h13v-94q10 -12 24 -22.5t27 -14.5h53q-4 4 -3 7t13 3q4 -4 7 -5t3 -5h64v4q53 -4 96 -7t70 -7q4 -4 8 -17.5t4 -42.5q8 12 14 -10q0 -10 -14 -10q14 -43 14 -78q23 0 33 -17q10 4 20.5 -3t10.5 -11h47v4h57v-4h17v4 q18 20 47 21q0 16 4 16l6 115h10v33q4 4 16.5 7t37.5 3v4q4 4 10 5t10 1t10 -1t11 -5v-4h73q27 16 51 10q0 10 7 16l6 52h10q-4 12 -4 16q0 6 4 10q20 0 20 10q6 -10 17 -10h47v4q18 12 25.5 24.5t11.5 22.5h4v27q27 0 31 6v10q6 6 32 7q-4 6 1.5 11t13.5 9t16 7t10 3v58h11 zM602 1176q0 -27 -16.5 -29t-20.5 -6l-6 4q-4 0 -10 -4q-23 -4 -42.5 -2t-31.5 6v20h-10q-4 20 -5 39t-5 31q-10 0 -11 4l-90 6q0 10 -4 15h-10v36h-10v17h10q6 29 0 67q-4 4 -5 7.5t-5 3.5h10v69q0 18 4 34.5t16 27.5q33 -6 41 6q4 -8 15.5 -9t21.5 3q4 4 5 20.5t18 16.5h4 v32h10v25q20 4 32.5 5t20.5 5v-10h31q12 -8 17 -11l4 -3v-48h10q0 -35 1 -61.5t5 -42.5h6v-33h-6q-10 -57 0 -104h6v-37h-6q-8 -45 0 -100h6zM1110 610h-10l-6 -61l-8 -1q-7 -1 -19 -5v-11q-35 4 -55.5 2t-28.5 -12q-16 -49 -10 -84h-105q-4 8 -6 8l-4 -4q0 27 -6 27h-4v53 h4q8 18 0 27h-4v31h4q8 14 0 30q-4 0 -4 11h4q8 49 0 94h-4v53h4q8 23 0 37h-4v31h4l6 43q23 14 31 14v10h63h6q0 -20 5 -24h10q0 -35 7 -51.5t21.5 -24.5t32.5 -8h43q0 -27 17 -27v-27q0 -57 16 -84h-16q0 -25 16 -14v-33z" />
<glyph unicode="%" d="M1413 317v11h-6q-4 16 -4 63v125q-10 0 -10 6q0 10 10 10v27h-10q-10 6 0 25h10v157q-10 10 -10 68q-20 8 -21 16q-12 0 -33.5 1t-50.5 5v21h-6q-4 29 -4 68v94q-45 8 -77 11t-54 -1q-16 35 -6 84q-8 0 -15.5 3t-15.5 7q-6 0 0 6h-43q4 -4 3 -5t-13 -1q-39 -53 -31 -84 h-121v13h-6v145h6v10h-6q0 33 6 33l4 61h64q29 29 37 17q8 127 12 220t4 157q4 6 10 6q8 10 22.5 13t30 5t30 5t22.5 14v276h-11v16q-16 8 -27 12.5t-16 8.5h-40v-10h-37v10h-27v-10h-47v10q-18 -18 -27 -10q0 -20 -4 -27h-6v-88h6q6 -16 0 -33h-6v-30h6q6 -16 0 -31h-6v-64 q-6 0 -8 1t-8 -1t-18.5 -7t-37.5 -19v-4q-6 -6 -43 -7v-30h11q-4 -4 -4 -13v-10l-11 -319q-16 -4 -27.5 -14.5t-56.5 -10.5q-23 14 -43 14v23h-4q-4 18 -5 47t-1 72q-8 0 -11 4t1 8q0 6 10 0v10q-47 31 -125 31v78q-10 0 -10 10q0 4 3 6t7 6v84q-16 0 -10 4 q-25 12 -53.5 17.5t-63.5 9.5v27q-4 -4 -7 -1t-3 11q0 4 10 4v33q-16 0 -10 10h-78q-10 -10 -16 -10v-53h-11q-20 -20 -10 -21q-43 -16 -73 -16v-4q0 -6 -31 -7v-30h4q-4 -20 -4 -54v-83h-10q0 -20 -7 -27h-47q-23 0 -34 -7t-16 -17.5t-6 -20.5t-1 -17h-6v-210q6 0 6 -58h-6 v-31q4 8 5 4t5 -14q4 -4 1 -5t-11 -5v-23h6q6 -20 0 -34h-6v-60h6q6 -25 16 -24q18 -4 35 -8.5t27 -8.5q0 -6 4 -6q6 0 12 -2t11.5 -10t5.5 -29h10v-115h4q6 -6 6 -26q-27 -10 51 -10v-7q23 0 35 -2t18.5 -9t8.5 -21.5t2 -40.5q0 6 20 -15h17q6 0 6 -10q37 0 61 10v11 q16 0 17 4v22q-10 0 -7 4q6 6 7 0q0 10 -7 11q-4 0 -4 2q0 4 4 8q10 27 23 26q14 -14 14 -10q80 0 90 -10v-41h11q6 -49 0 -90q-41 -8 -69 -12t-46 -4q4 -4 2 -7.5t-12 -3.5v-168q4 10 7 9.5t3 -13.5q6 -10 -10 -10l-6 -104q-33 -4 -56.5 -8.5t-44.5 -4.5q4 -10 2 -15t-6 -9 v-154q4 -4 5 -7t5 -7q0 -4 -3 -8.5t-7 -8.5v-20q4 4 4 2v-12q4 -4 2 -7.5t-6 -3.5v-26q-6 -6 14 -6v-21h43v-4q35 0 49.5 -9t14.5 -13q35 8 59.5 13t44.5 9q0 4 11 4v142h-11v36h11l4 90q4 -4 8 3.5t8 7.5q-4 -6 31 -6v6q20 4 32.5 7t20.5 7q0 33 21 33v14h-11v84h11v23 q-10 0 -11 14h11v20h-11v60q20 0 21 10q0 16 4 24.5t8 12.5q14 6 35 0v-12q16 4 27.5 2t15.5 -6q12 -43 16 -64l4 -20h11q0 -12 -11 -7v-20h11v-162q-4 0 0 -4t20 -12q-25 10 33 10v-10q37 -14 57 -15q4 -6 4 -36h13v-107h10v-24q10 10 10 -11h41q0 10 6 11q0 -4 8.5 -7.5 t8.5 -15.5q25 0 30 -4q4 -35 7.5 -52.5t3.5 -21.5q29 -12 50 -17t33 -9q16 27 31 26v27h10q0 16 1.5 27.5t5.5 19.5q-10 6 16 16h72q0 14 22 15v168q10 0 10 6q31 8 54.5 11t40.5 3q0 24 20 16zM905 862q6 -23 -6 -31h-94q0 10 -10 11v37h20h70q4 0 10 -8.5t10 -8.5z M1171 385h-10v-51q-14 0 -14 -6h-100q0 6 -7 6v330q-8 6 -14 0v51h10l4 47q6 -4 7 12q12 4 16 7l4 3h80q4 -6 4 -16h10v-27q-14 8 -14 -4q6 -27 14 -16v-242h10v-41h-10v-47q10 6 10 -6zM408 1219l-7 -185q-57 0 -84 -10q0 10 -30 10v17h-11v424h11q4 4 4 8q0 6 -4 18 q20 8 20 6h64q8 6 20 -6v-16h10q0 -39 1 -62.5t6 -31.5v-25q-8 -20 0 -27v-120z" />
<glyph unicode="&#x26;" d="M1288 72q-8 20 -11 39.5t1 44.5h-6q-10 14 0 30h6v11q-4 0 -11 10t-12 10q-53 18 -84 12q0 4 -3 6.5t-7 -2.5q0 12 -10 48q-6 25 0 43q-10 -2 -25.5 0t-31 5t-28.5 6t-19 3v43q20 10 34.5 12t22.5 -2v10q35 10 47 11v30h10v74q-10 0 -10 6q-4 4 -1 7t11 3v17 q-16 0 -10 10q0 4 2 4q4 0 8 -4v41q6 -4 10.5 0t5.5 7t5 3q4 -4 10 -4h12q4 4 51 4v11q8 0 13.5 3t9.5 7v110h-6q-10 25 0 47h6v21h-6q-4 20 -5 46t-1 60q-10 4 -16 7l-5 4h-67q-10 -6 -12.5 -19.5t-3.5 -28t-2 -24.5t-9 -12q-23 -8 -39 -12.5t-29 -4.5v-10q-37 -8 -36 -16 q0 -10 -3.5 -18.5t-7.5 -12.5q4 0 11 -6q0 -4 -5 -4q-2 0 -6 4v-25q10 10 11 -10q-6 -6 -11 -6q0 -31 -1 -50.5t-5 -27.5q-35 0 -59.5 -4t-44.5 -8q0 12 -17 12v47h-10q-4 35 -4 88v125q-8 4 -9 6t3 6q-51 14 -78 15q-27 0 -31 6v68h-6q-10 14 0 30h6v43q4 0 16.5 10.5 t24.5 6.5v4q20 12 39 16t29 4v27h6l4 47q6 6 74 6v4q0 6 20 6q0 16 23 17v47q4 0 23.5 15.5t37.5 35.5q4 -4 5 -7l1 -3h37v6q14 0 15 10v357q-4 0 -6.5 3t1.5 7h5v30q-4 4 -6.5 8.5t1.5 12.5q-41 4 -68.5 5t-45.5 1v27h-10q-10 37 0 78h10v30h-10l3 8q3 7 7 19h-10 q-6 6 -7 16q-16 0 -26 11v4q-29 4 -50.5 6t-33.5 6v10q-27 0 -27 21q0 10 6 10h6q0 12 -8 11t-4 9q-4 0 -10 1t-14 5q-18 8 -27 0q-12 12 -22.5 17.5t-20.5 9.5h-78l-4 -6h-96v-10q-10 0 -25.5 -3t-32.5 -8q0 -27 -4 -30h-10q0 -27 -10 -37q-35 -4 -60.5 -8t-46.5 -8 q0 -74 -4 -78q-31 -18 -53 -13q0 -10 -14 -10q-4 0 -4 2q0 4 4 8h-23v-10h-20q0 -25 -11 -14v-17h11q8 -16 0 -30h-11v-84h11q10 -10 0 -27h-11v-31q4 4 7.5 2t3.5 -14h-11v-35h11q8 -18 0 -32h-11q0 4 3 4q4 0 8 -4q8 -23 0 -37h-11v-131q8 -18 11.5 -35t-0.5 -27 q29 -20 47 -20q20 0 37 -13q0 6 10 7q31 -45 20 -105q12 8 13 -10q4 -4 1 -6t-14 -6v-48q-6 -6 23 -14q59 -16 94 -16v-21q14 0 14 -6q-4 -4 -14 -4q4 -12 4 -18q0 -4 -4 -9h-53v-6q-12 0 -29.5 -4t-38.5 -16q0 12 -13 8t-13 8q-31 4 -55.5 -10t-28.5 -27v-157 q-23 -4 -47.5 -7.5t-46.5 -3.5v-10q-4 0 -10.5 -8t-10.5 -8v-51h-10v-101h10v-20q10 10 10 -17h-10v-51h-10v-37h10q0 -4 -3 -7t-7 1v-78h10v-188h10v-21h6q4 -12 7.5 -17t7.5 -9l53 -6l14 -9q13 -8 17 -12v-37h6q4 0 6 -4t-2 -12q20 -10 35.5 -15.5t27.5 -9.5q14 0 21 11 q0 -10 4 -11q6 0 12 -4t11.5 -19.5t5.5 -56.5q12 0 35 -26q41 4 70.5 5t49.5 1q55 4 97.5 1t70.5 -7q0 12 5.5 14t15.5 -2v4q23 0 22 10v148h11v22t4 15q8 2 23.5 -1t32.5 -7.5t32.5 -8.5t25.5 -4v-22h6q4 -8 5.5 -19.5t1.5 -27.5q0 -4 14 -4t27 -11v-12h45q16 0 22 -4 t6 -16v-31h11v-17q8 0 36 -14q43 -4 75 -6t56 -6q0 12 11 12v-12q14 0 22 5t13.5 10t8.5 9t9 2v54h10zM909 1354q-14 8 -14 -15q-98 0 -115 -16q-8 -25 0 -47h11v-31q-12 0 -13.5 -3t2.5 -7h-16v4q-41 10 -78 0v-4h-43q8 14 0 14h-6v27h6v37h-27v16q-10 0 -31.5 5t-25.5 5 v-10q-16 16 -27 10q-6 18 -14 11v319h10q4 4 4 31q8 4 9.5 5t-2.5 5q29 10 50 14.5t34 8.5q0 4 3 6t7 -2q4 8 4 18v25h6v37q12 8 21.5 11t21.5 -1v-10h68l14 -17q0 -16 6 -20h6v-23q-12 0 -12 -4q0 -25 12 -16v-11q16 0 47 -8t47 -8q0 -14 21 -14v-103q0 -43 4 -71h10v-15 q-10 0 -14 -6q-6 -4 14 -4v-53h-14q-10 -10 14 -10v-80zM791 338q-12 0 -37 -10v6q-29 -4 -50.5 -8t-33.5 -9q-4 -12 -5 -30.5t-1 -46.5h-125q0 10 -7 10v20q6 0 7 6q4 4 -7 5q0 16 1.5 25t-8 14.5t-34 6.5t-77.5 1v10h-13v403h13v27q20 43 20 27q43 0 61.5 3t24.5 8t5 10 t3 9l4 54q23 0 23 10h78q4 8 7 11l3 3v-24h10q0 -98 1 -160t5 -82h5v-27q33 -4 55 -7t39 -7q0 -27 16 -27h6v-80h11v-20h-11q-10 -16 0 -31h11v-100z" />
<glyph unicode="'" d="M973 1548v27h-10q-6 14 0 37h10v30q-14 -6 -15 11q0 18 15 10v33q-20 0 -15 4q4 6 15 6v68q-14 -6 -15 10q0 18 15 10v70h-10q-6 37 0 78h10v30h-10q-6 23 0 37h10q0 16 -8 16q-6 0 -7 21q-41 0 -68.5 1t-47.5 5q-16 59 -11 84h-30q-12 4 -21 4h-12v6q-141 0 -145 -6 q-6 -4 -21 -4v-53h-12q4 -16 -13.5 -25.5t-17.5 -21.5q-4 20 -7 23t-3 -7h-41l-33 -16v-64h6q4 -4 6 -11t-2 -19h47q4 8 5.5 2.5t1.5 -23.5q25 0 37 -1t18 -9t7 -23.5t1 -46.5q16 -8 27.5 -14t23.5 -10v10q14 6 37 0v-10q0 8 27 -13q4 -4 4 -10v-10h6q8 -16 0 -31h-6v-27h6 q8 -84 0 -167q-16 -10 -34.5 -12.5t-39.5 1.5v6q-20 -12 -33.5 -20t-17.5 -12v-15h10q6 -23 0 -37h-10l7 -11t7 -15h7q4 -8 0 -21q14 14 14 -6q20 4 38.5 5t31.5 1q35 0 61.5 -1t42.5 -5q0 16 31 17l6 63q53 29 98 14q0 12 6 18.5t11 18.5h10z" />
<glyph unicode="(" d="M1104 -180q-4 6 -10 6q-4 10 -5.5 29.5t-1.5 48.5q-16 10 -57 10q-18 0 -31.5 1t-25.5 5v105h-4v77q-12 0 -16.5 3.5t-0.5 7.5q-37 0 -37 -11v11h-36v10h-31v94h-10v59h10v35h-10v47q-16 0 -11 7q0 10 11 0v53q-43 0 -62.5 -1t-11.5 -5q0 -2 -9.5 3t-19.5 11t-18 11t-6 5 q-8 0 0 13q-8 8 10 14v53h-4q-4 10 -5 53t-1 115q-14 0 -11 4q-27 0 -30 6v11h-33q-4 4 -5 7t-5 3q-25 0 -31 6v14q-16 0 -10 7q0 4 10 4v32h-10q-8 76 0 162h10q-6 0 -10 6v119q10 0 10 6q39 23 84 17v4q4 0 12 10t19 10v84h-11v47h11q-4 4 -7.5 22.5t-3.5 47.5 q12 18 16.5 34.5t4.5 26.5h22q4 12 10.5 17.5t10.5 9.5h31q4 0 16 18.5t16 18.5v63h-6q-4 4 -5 10.5t-1 10.5q0 16 6 20h6v23q0 10 4 14h7v17h-7q-6 18 0 40h7v64h77v4q12 0 18.5 17.5t18.5 25.5h-10q-10 14 0 31h10v53q-16 0 -10 4q4 6 10 0l6 47q6 23 78 23q0 10 21 10 q0 20 6 25h10v190h-104q-27 -57 -17 -90h-37q4 -4 1 -7t-11 -3q-6 6 -6 10q-4 4 -7 1t-3 -11h-27q-10 -12 -18 -20.5t-13 -16.5l-4 -53q-12 -4 -23 -5.5t-20 -5.5q-4 -4 -12 -3t-18 10q0 6 -27 -11l-3 -4t-7 -12l-6 -168q-35 -4 -58.5 -7t-40.5 -3q0 -4 -11 -13.5t-15 -13.5 v-119q16 0 10 -6q0 -6 -10 -6v-47q-41 4 -69 2t-46 -6v-94h-10v-64q4 0 10 -4q0 -4 -4 -4q-2 0 -6 4v-16h10q6 -43 0 -84h-10l-6 -31q-27 -10 -78 -10q-10 -10 -17.5 -14.5t-15.5 -8.5v-61h6q6 -23 0 -43h-6v-21h6q6 -49 0 -90h-6v-14q8 0 11 -3t-1 -7h-10v-27q6 4 10 -6 q10 -6 -10 -15v-22h6q4 -4 1 -14.5t26 -22.5q-6 -4 -12 -4v-27h-11v-215q12 -4 21.5 -7t21.5 -3v-16q51 0 59.5 -4.5t4.5 -20.5h10v-151q10 10 10 -17h-10q0 -57 10 -84q10 0 11 -6q31 -4 51 -7t32 -7q0 -6 11 -6v-27h10q4 -51 8 -87t8 -58q27 0 32 2t5 -25l68 -4v-21h4 q6 -6 6 -32q6 6 6 -11q4 -4 1 -7t-7 -3q-8 -23 0 -51q4 -16 7 -28.5t-1 -24.5q12 0 35 -27q10 4 16.5 5t10.5 5q8 6 17 0t18.5 -18t15.5 -28.5t6 -30.5h10q-6 -8 0 -17q12 0 12 -10q27 0 50.5 -3t44.5 -13q4 -18 7 -35t3 -27q-12 0 31 -27q10 10 63 11q8 -8 14 16l7 115h10z " />
<glyph unicode=")" d="M1100 600v315q-16 6 -13 11q0 4 13 4q0 41 -4 67.5t-9 42.5h13v41h-13v107q-16 4 -26 5t-14 5q-20 0 -21 -6q-4 -4 -22.5 3t-30.5 7v152h-4q-10 27 0 53h4v16h-4q-4 4 -7.5 9.5t1.5 17.5q-4 4 -7.5 5t-3.5 5q0 10 11 0v37q-74 0 -101 10q0 -20 -14 15v26h-10 q-4 20 -5.5 57t-1.5 91q-10 0 -4 4l-53 6v4q-20 4 -31.5 6t-21.5 6v25h-10q-4 29 -4 68v90q-29 8 -49.5 12t-41.5 4q-8 10 -11 33.5t-3 54.5q-12 0 -12 10q-35 4 -59.5 5t-45.5 1q0 78 7 78q-4 8 -10.5 15.5t-10.5 17.5h-106q-4 -4 -7.5 -11t-7.5 -11q6 0 0 -15h10 q4 -8 5 -33v-57q6 0 6 -10h-6v-17h6v-88q35 0 59.5 -3t44.5 -7v-47h10q4 -20 5.5 -49t1.5 -72h4q6 -6 6 -20q51 -10 73 -10v-7h11q10 0 10 -10q8 -12 11 -26.5t-1 -26.5h10v-31q4 4 5.5 3t5.5 -13q0 -16 -11 -16v-142h7q4 -4 4 -14v-23h53v-10l10 10q14 8 31 0v-14h6 q10 -25 0 -47h-6q0 -6 6 -6q4 -35 5 -86t1 -123h10v-17q31 0 31 -10q-12 4 -5 7t36 3v-10q20 4 29.5 1t13.5 -7v-31h10q4 -6 4 -30q8 -23 0 -43q-2 0 1 -1t6 -5.5t2 -12.5t-9 -22v-129q0 -51 -4 -86q-10 0 -10 -11q-35 -10 -94 -10q0 -6 -11 -6v-178h11q0 -27 -11 -27v-78 q-10 0 -10 -10q-10 2 -25.5 -1t-32 -6t-29.5 -6t-19 -3l-4 -273q-8 4 -15.5 -2t-11.5 -18q-6 4 -6 16q-27 -10 -49.5 -14t-32.5 -8v-182q-25 -4 -41 -8.5t-29 -8.5q-4 6 -4 10q-25 0 -37 -20v-199q4 4 10.5 -6t10.5 -10q29 0 48 3t30 7q6 6 12 6v64h10q-10 6 14 24h27v6 q8 4 19 5h24q0 16 21 16l4 63q6 0 47 11q12 4 24.5 6t22.5 -2v6q10 0 14 3t8 7v64q-16 0 -16 4q6 6 16 6v94q6 16 62 16v11h22q27 10 35 18t-4 8v78h-10q0 41 14 64q0 4 17 20q53 31 94 21v26h10v21h-10q-6 14 0 30h10v70h-10q-6 14 0 31h10v90q12 0 26.5 7t26.5 3v10 q25 0 41 11q0 20 23 20z" />
<glyph unicode="*" d="M1346 281v20h-11v23h-14l4 4q8 4 12 5t9 5v80q-10 0 -11 10q-4 4 -1 7t12 3v17h-11v125q-33 6 -43 16l-51 4q0 12 -13.5 17.5t-13.5 25.5q-6 4 -6 41h-73q0 10 -25 10q-25 31 -16 54h-11q-4 8 -5 16t-1 20l-57 4v7h-47l6 61q31 4 54.5 6t39.5 6v11q14 0 21 4v47h10 q-6 18 6 26q59 16 88 17q0 25 16 14l5 64q4 12 15 17t28 9l4 -6q20 0 33.5 4t25.5 12q0 16 10 17v276q-8 0 -11 3t1 8q-31 -6 -43 6q-35 -16 -43 -26.5t-8 -31.5h-12q0 -37 -5 -36q-35 -8 -60.5 -11.5t-43.5 0.5l-6 -32h-10q0 -25 16 -25q0 -10 -16 0v-37q-20 4 -52 -5 t-53 -5q0 -37 -20 -37v-47h-121q-4 4 -7 21.5t-3 45.5q-6 0 -7 5q-6 16 7 16v94q-6 0 -7 6q0 4 7 4v43h-7q-6 39 0 78h7v17h-7v262h-10q-8 14 0 37h10v84h-10q-8 35 0 71h10q-12 4 -23 7t-24 -1v11q-84 0 -112.5 3t-7.5 7q0 -10 -15 -10v10q-16 0 -16 -10v-11h-37v-57 q12 6 20 -20q8 -16 -20 -17v-31q4 4 8 2t8 -14q-6 -4 -10 -4l-6 -121h-6v-67h6v-215q4 4 8 2t8 -13q-8 -8 -16 0v-184h10q8 -23 0 -37h-10v-24h-41v4q-33 4 -55.5 7t-38.5 3v27h-12q-8 12 0 20q12 12 12 16q-4 -4 -11.5 6.5t-11.5 10.5q-31 4 -51 5t-33 5q0 4 -10 4 q-16 43 -10 74q-12 0 -16.5 3t-0.5 7q-35 8 -64.5 15.5t-49.5 11.5v67q-8 0 -8 2q0 4 4 9q-100 0 -95 6q0 -84 5 -78h-5v-148h5q10 -10 0 -26h-5v-51q4 4 5.5 1t5.5 -8q53 -23 88 -16q4 -8 5 -12t1 -8h4q6 -4 6 -41h10q-4 -16 3.5 -19.5t7.5 -7.5q33 -8 55 -12t39 -8 q4 -16 7 -33t3 -37q12 -8 23.5 -14.5t19.5 -10.5q29 0 46.5 -4t27.5 -8q6 0 0 -14h10q6 -25 0 -33q-35 -10 -59.5 -15.5t-40.5 -9.5q0 -27 -17 -16v-74q-10 -4 -32 -4h-52q-8 -8 -15 -13t-15 -9l-4 -58q-4 0 -5.5 -2t-31.5 -12v-12h-84q4 -4 -11 -4v-21h5q8 -41 0 -80h-5 v-41h5q0 -27 -5 -30h5q4 -12 5 -44t1 -83q4 4 10 -6.5t10 -10.5q12 0 26.5 4t28 9.5t24.5 9.5t15 4v37h7q0 20 4 26q29 8 51 11.5t43 -0.5q-4 8 3 15t17 11q0 20 -10 10q-6 23 0 37q6 0 10 4q72 35 107 27v10q10 0 20 17v53h11q10 10 73 10q0 -4 15.5 -9t15.5 -18v-114 q8 6 16 0v-383q-6 -6 21 -17q10 -10 -17 -10v-16q2 -6 11 -6q8 0 16 1t16.5 0t10.5 -10v-20q12 4 22 5t19 5q6 -6 6 -10h37q6 20 51 20v5h26q-8 12 7 26q-4 0 -12.5 8.5t-20.5 8.5q16 -10 16 10q0 4 2 4q4 0 8.5 -4t7.5 -5t-1 -1v69h-7q-6 18 0 41h7l4 47h6v90q-10 0 -10 11 q4 4 5 6t5 -2v20q-10 10 -10 17q-6 6 10 6v84q-10 0 -10 10q-4 4 -1 7t11 3l4 84h6q4 -12 7 -7t3 34q4 4 12.5 7t18.5 3v10q35 6 59 0v-20h11v-43h4q4 -4 7 -6t19 -31q4 4 9 4q6 0 18 -4q4 -4 4 -10l53 -4q-4 -4 -1 -8.5t12 -4.5q8 -25 10 -38t3 -20t4 -12t13 -14 q29 -4 49.5 -7t40.5 -3q-6 -4 0 -10q4 -4 5 -31h12q4 -4 4 -10q0 -4 -4 -16q10 -4 15 -6.5t5 1.5h84q-5 5 11 5zM805 1858h-4v10h4v-10z" />
<glyph unicode="+" d="M1339 778v189q-20 4 -35.5 8t-25.5 8v4q-6 0 -6 -4q-12 -4 -21.5 -7t-19.5 -3q-20 0 -37 10v4h-53q4 -4 4 -6l-10 -4q-10 0 -14.5 3t-0.5 7h-137v-4q-10 -4 -19.5 -7t-21.5 -3t-21.5 3t-21.5 7v4q-10 0 -25.5 13.5t-25.5 13.5v131h-10q-8 23 0 47h10v43q-8 -8 -17 4 q6 6 17 6v178h-10q-10 23 0 47h10v15q-16 -6 -17 12q0 10 17 10q0 25 -17 25l7 184h10v10h-10q-4 20 -5.5 48t-1.5 63h-4v27h4v24q-29 0 -50 1t-38 5v11h-63q0 -10 -43 -11q0 -4 -15.5 -9t-15.5 -17q10 16 10 -17q0 -16 -10 -10v-84q4 4 5 3t5 -13q0 -10 -10 -10v-21h10 q8 -37 0 -74h-10v-245q6 4 10 -6q0 -10 -10 -11v-26q4 4 5 3t5 -14q-4 -4 -10 -4q0 -16 5 -46.5t5 -47.5q4 4 5.5 2t5.5 -12h-11v-117h-10v-14h10q10 -41 0 -74h-10q0 -31 -4 -37q-33 -4 -55.5 -5t-38.5 -1v-4q-20 -10 -37 -10q-20 0 -37 10v4h-63v-4q-4 -4 -8.5 -5t-8.5 -5 q-4 4 -7 5t-7 5v4h-23v-4q6 4 -30 4q4 -4 4 -6l-8 -4q-4 4 -7.5 5t0.5 5q-12 0 -16 -7t-14 -7q-12 0 -23 10v4h-47v-4q-4 -6 -47 -6q0 -20 -4 -14v-17q-4 -29 -5 -51.5t-1 -42.5h-10q0 -47 16 -74q12 0 17 -3t10 -13q25 10 24 6q33 0 33 -6q14 16 14 6q4 0 11.5 -1t11.5 -5 q98 4 168.5 5t117.5 1h27q12 -4 22.5 -5t14.5 -1q4 -10 7 -18l3 -7h10v-137h7v-135h-7v-27q4 4 5.5 2t5.5 -12q0 -20 -11 -10v-33h7q6 -43 0 -84h-7v-72q4 4 5.5 2t5.5 -14q0 -10 -11 -10v-21h7q6 -16 0 -30h-7v-23h7q4 -27 4 -67v-99q-25 -10 53 -10v-6q6 0 10 6 q35 4 65.5 7t49.5 3q4 -4 11 -5t11 -5q4 0 15.5 5t15.5 5v156q-12 0 -13 1t3 5q0 4 10 4v74h-10q-10 16 0 33h10v10h-10q0 4 3 9t7 17q-27 0 -27 25q0 6 17 6v27h10v14h-10q-8 78 0 148h10v63h-10q-10 6 0 25h10v47q-12 0 -13 1t3 5q0 10 10 0v27q-10 0 -10 10t10 10l4 53 q4 0 7 12.5t20 12.5v-10h26v10h37v-10h41v10q35 0 62.5 1t48.5 5q35 -12 71.5 -13t79.5 7q29 4 51.5 8t32.5 8zM674 1339h-15v15h11q0 -15 4 -15z" />
<glyph unicode="," d="M969 -227v141q-6 0 -6 6q0 10 6 10v27q-6 0 -6 10q-2 2 6 10v15q-10 0 -6 6q0 6 6 6v47h-6q-6 39 0 72h6v70h-6q-6 25 0 57h6l-6 4q-4 0 0 6q-49 16 -68 16h-27h-26q-4 16 -6 27.5t2 24.5h-11v37q-12 0 -20 5t-12 5q4 -4 1 -7t-12 -3q-4 0 -4 10h-110q10 -10 -11 -10 q-6 0 -6 10q-12 4 -20 1t-17 -11v-64h-10q0 -20 -4 -25h-63q-35 -16 -58 -16v-74q4 6 4 -10h37v-10q29 6 37 -6q-4 6 10 6q0 -4 10.5 -8t10.5 -8v-27h12q4 -4 4 -14v-23h10q-4 -4 0 -10q10 -6 11 -15q37 0 43 -6l7 1t19 5q25 -10 25 -16v-27h6q0 -10 -1 -21t-5 -15h6 q4 -18 5 -53t1 -83h4q4 -12 5 -20t1 -16q0 -12 -1 -20.5t-5 -16.5h-100q0 -4 -10.5 -8.5t-10.5 -8.5v-94q27 0 27 -10q57 0 64 6q39 4 69.5 1t50.5 -7q0 16 15 16l6 51h10v37h51q-16 10 6 11q16 -6 17 -11h14v6q23 1 23 11z" />
<glyph unicode="-" d="M1346 846v90q-10 0 -11 4q4 4 5 8t6 4v25q-8 0 -11.5 3t0.5 7q0 10 11 0v43q-12 0 -16 8l-5 9l-6 -7q-106 0 -184 3.5t-129 7.5v6q-6 0 -7 -6q-78 -6 -161 0v6q-8 0 -13.5 -3t-9.5 -7l-407 4v6q-55 -8 -97.5 -12.5t-70.5 -4.5q-43 0 -74 1t-51 6q0 -16 -11 -17v-31h5 q6 -6 6 -16t-6 -16h-5v-15h5q16 -20 -5 -26h5q4 -4 5 -26.5t1 -57.5q41 -10 41 -21q68 0 73 -6q0 6 7 6q4 0 4 -6q12 4 52 5t116 1v10h67t6 5q4 8 7.5 5t3.5 -20q31 0 36 -6q43 0 75 1t56 5v10q4 -4 19.5 -8t38.5 -8q8 -4 23.5 -1t39.5 7q57 16 94 -6q10 4 43 5t89 1 q-4 4 0 7t14 3v-10q43 0 43 -6q23 0 30 2t8 5t1 5q0 4 8 4q4 0 6 -3t-2 -7h199v10h22q4 4 5.5 7.5t5.5 7.5z" />
<glyph unicode="." d="M969 39v27q-10 -6 -11 10q4 4 8 5l3 1v47q-10 -10 -11 16q4 4 11 5v16h-6q-4 23 -5 57v88q-4 0 -19 4t-44 9v10h-53v24h-11v154q-12 4 -19 10t-11 10q-4 -4 -10.5 -5t-10.5 -1h-84v-10q-23 -6 -43 0v10h-37q10 -8 -14 -14v-100h-12v-27q12 12 12 -10q-6 -4 -12 -4 q0 -4 6 -7.5t6 -15.5q0 -10 -5 -12t-48 -2q4 -4 3 -8t-13 -9q-20 0 -11 17h-43q8 -8 -4 -17v-63q4 0 4 -4q0 -10 -4 -6v-230q0 4 15 -10q29 -4 48 -6t36 -6q8 -23 11 -42.5t-1 -35.5h12v-104q18 -8 30 -12l11 -5h31q0 6 12 6q4 0 4 -6h27q0 6 10 6q6 0 0 -6q31 -4 54.5 -1 t39.5 7q0 20 21 21q0 10 -11 10l7 6l10 131h4q-4 4 13.5 20.5t60.5 16.5q0 25 32 10q1 25 11 25z" />
<glyph unicode="/" d="M1339 1878v252q-16 27 -10 53q-74 0 -120 -1t-62 -5v6q-33 6 -47 -16l-6 -158q0 -27 -7 -31q-39 -4 -66.5 -5t-47.5 -1v-182q-10 -2 -15.5 -6t-13.5 -9.5t-25.5 -8.5t-50.5 -3q0 -8 -20 -16v-272q-20 -4 -32.5 -7.5t-20.5 -3.5v-4l-15 -3q-14 -3 -43 -7v-16q16 0 17 -7 q-4 0 -10.5 -7t-10.5 -7v-47q4 4 4 2v-14q0 -4 -4 -4l-6 -95h-111q-4 -6 -14 -6v-131h10q-8 -43 -11 -80t1 -71q-6 0 -6 -4q-35 -12 -61.5 -17.5t-38.5 -5.5q0 -4 -4.5 -10t-16.5 -10v-172q-39 -4 -66.5 -5.5t-48.5 -1.5q-14 -14 -6 -14v-80q10 -6 11 -31q0 -12 -11 -32v-31 q4 -4 7.5 -10t3.5 -11q0 -14 -11 -20v-23q10 -6 11 -14q0 -6 -11 -16v-10q-39 -12 -69.5 -17.5t-48.5 -9.5v-272q-4 0 -13.5 -4.5t-29.5 -16.5v-6h-74v-29q0 -10 -4 -18h-6v-189q4 4 5 3t5 -13q0 -10 -10 -10v-74h6q6 -20 0 -41h-6v-33q4 4 7 2t3 -6h33v-10q47 -4 80.5 -8 t54.5 -12q8 10 19 17t24 3v10q8 -4 12 -2t8 6l4 54v77q-6 23 0 37l6 95q27 16 31 16q16 0 23 -6q29 0 41 12v10h20v236h10l7 51q4 0 12 3t24 7q25 10 41 0q16 20 25 29l8 8v178q-12 -8 -12 6q0 10 12 11v37q4 4 6 4h4q6 23 62 22v4q4 0 8 3t8 8q12 12 21 0q0 16 6 22 q0 72 4 78h6l-5 6t-5 10q0 10 4 15h6l6 53l15 10q16 10 20 6v10q25 6 47 0v-10q8 20 33 21v94h4q0 10 -4 4v127h4q0 35 16 41q29 12 48.5 16t35.5 4q-10 20 17 27l4 141h10v27h23v6q27 8 46 12.5t35 8.5q0 20 7 26v10q-10 41 0 84l6 152q16 4 23 7l7 3v10q16 4 40 12.5 t44 4.5v78h11l6 90q14 6 14 14q20 8 35.5 11t28.5 -1v13q4 0 12 9t18 5z" />
<glyph unicode="0" d="M1350 526v174q-10 0 -11 11q4 4 5.5 7t5.5 3v84l-12.5 5t1.5 5h11v16h-11q-6 23 0 48h11v30h-11q-6 20 0 43h11v47h-11q-6 14 0 31h11v21q-10 0 -11 6v407q-4 -4 -7 -3t-3 9q0 10 10 11v41q-10 0 -12 1t2 5t6 4h4v74q8 0 -30 20l-95 6v31q-10 -6 -10 10q0 18 10 13v30 h-67q-72 10 -60 17v77h-10v101q-10 10 -21.5 15t-19.5 9h-63q-14 14 -15 74q8 4 3 8t-25 13h-424l-4 -21h-12q-2 6 -2 2q0 -2 -2.5 -8t-5.5 -11t-11 -3v-27h-10q0 -20 10 -20q-27 0 -31 -7v-10h-90q-6 -68 0 -104v-37q0 6 6 0q4 0 0 -4q0 -6 -6 -6l-4 -41q-41 0 -68.5 -3.5 t-45.5 -7.5q0 -29 -13 -36q12 8 13 -13q4 -4 0.5 -7t-13.5 -3q0 -14 -1 -21.5t-9 -10.5t-24.5 -4t-47.5 -1v-4q-6 -6 -32 -6v-62h-11h11v-90h-11v-78q10 6 11 -10q10 -16 -11 -16v-27h11v-88h6q0 -12 7 -13t7 -13q0 -10 -10 -11l-4 -43h-6v-340q4 4 5 3t5 -13q0 -10 -10 0 v-94q4 4 5 3t5 -13q0 -10 -10 -11v-147q10 10 10 -10h-10v-27q4 0 10 -13.5t10 -13.5q-8 0 9.5 -3t60.5 -11q6 14 14 14q4 -8 5 -11l1 -3q4 -8 4 -20v-23h13v-135q12 -20 30 -21q37 0 37 5q27 10 47 -11q4 -6 4 -41q4 -10 5 -36.5t1 -73.5h11q0 -12 5 -13.5t5 -13.5 q37 -14 94 -20q8 -53 17 -74l20 -21h100v11h58q0 -16 10 -17h100q-6 6 15 6v-6q59 4 76.5 2t27.5 -2q8 4 20.5 5t32.5 1l10 19q11 18 21 18v41q0 2 7 8.5t16.5 12.5t18.5 11t15 5q6 -6 7 -10q4 -2 12 2t17 8t14.5 8t3.5 2l6 121h10v47q43 12 67.5 13.5t36.5 -2.5q-4 4 -3 8 t14 8v84h-11q-10 14 0 31h11l6 47q10 16 20.5 23t14.5 7q8 0 0 -14h22v10q10 -4 27 13.5t35 27.5zM1110 526q-23 0 -23 -10h-43q-18 0 -34 -4v-10q8 -4 1 -8.5t-28 -4.5q-4 -4 -4 -14t4 -16h6v-21h-6l-4 -114q-12 -20 -16.5 -25.5t-4.5 2.5q-37 -4 -61 -4h-39 q-4 -12 -5 -31.5t-1 -48.5q-10 0 -30.5 -3t-53.5 -7q-51 -6 -82 0q-4 12 -10 15t-17 -9q-12 -4 -23 -5t-20 -1q0 4 -14 10v80q-16 4 -45 4h-65q-10 10 -17 6v182q0 12 -37 13v10q-10 4 -30 4h-48q0 6 -6 0v305q-10 10 -14 4v68h10q6 104 0 205h-10v30q14 0 14 13 q-6 23 -14 4v26h10q6 41 0 84h-10v27h10q6 14 0 31h-10v63h10q6 14 0 37h-10v10h10l4 68q59 16 90 16q0 27 21 15q0 55 3 95t7 62q41 0 21 27q47 14 68.5 18.5t28.5 7.5t5 8t-2 17h6v27h25v10q33 14 32 6h136h20q-4 4 -2 4q4 0 8 -4q31 -10 27 -16v-41h4q0 -16 9 -21.5 t38 -5.5v-10h33v10h20q0 -6 6 -10v-29q0 -10 5 -14h10v-145q10 -8 18 -12.5t18.5 -6.5t26.5 -2h41q-4 -4 -2 -5t12 -1q0 -16 1.5 -26.5t5.5 -14.5v-473q4 -4 8 -6t8 2v-17h-10q-8 -25 0 -47h10v-215h-10q-8 -14 0 -37h10v-131z" />
<glyph unicode="1" d="M1104 129v10h-4q-10 14 0 31h4v16h-4q-10 14 0 31h4v27h-4q-8 14 0 32h4l-4 5v131h4q-4 6 -4 10q-8 49 0 94h4q-4 8 -7 24.5t-3 39.5q-10 0 -11 10q4 6 11 6v403h-11q-10 23 0 48h11q0 35 -3.5 82t-7.5 110h11v68h-11v106q-10 -10 -10 4q0 10 10 10v226h-6q-6 14 0 33h6 v333q-8 0 -11 3t1 8h-168q0 -10 -31 -11v-4q-6 -6 -32 -6v-14h10q8 -8 0 -27h-10l-4 -43q-31 0 -47 -10q-33 0 -55.5 3t-39.5 7q0 -10 -10 -10q-6 6 -6 10h-78l-6 -88q-18 2 -49 -1t-63.5 -7t-63.5 -7t-49 -1v-11q-8 8 -17 0q0 -10 -10 -10v-16q8 12 16 -10q0 -4 -16 -5v-79 h10q12 -8 0 -27h-10v-31q0 -12 18.5 -13t28.5 -13h47q53 16 121 -4v-7h84v7q51 6 105 0v-7h45t28 -4q0 -4 9 -8l8 -4q4 -10 4 -98q8 0 11 -3t-1 -8h-10v-53h10v-135h-10q6 4 10 0v-137h-10h2q4 0 8 -4v-262h10q10 -16 0 -33h-10v-277q10 16 10 -6q0 -16 -10 -10v-324h10 q8 -23 0 -43h-10v-41h10v-141q4 4 13.5 -6t13.5 -10h26q0 -16 11 -17q6 6 10 0q14 8 22 9q8 0 15.5 -2.5t14.5 -5.5t18 -1q10 4 20 5t14 1v11q47 0 37 10q12 35 19.5 68.5t3.5 62.5h4z" />
<glyph unicode="2" d="M1356 35v67h-6q-6 41 0 84h6v11q-68 0 -74 6v4h-397q4 -4 2 -5t-13 -5q-10 0 -13 3t1 7h-135v-4q-16 -10 -31 0v4h-63v-4q-23 -8 -37 0v4h-100v-4q-23 -10 -47 0v4q-51 4 -73 5t-22 32h-10q-6 41 0 84h10v26h11q0 20 7 28.5t36 8.5h63q0 27 10 27v24h-6q-6 20 0 27h6v27 h-6q-6 25 0 30h6v43q10 0 11 11q20 4 59 4h108q0 12 4.5 14t16.5 -2v10q37 14 47 15l10 53q-6 8 17 16h77q0 20 21 21v26h10v37q6 0 6 4q20 12 39 16.5t35 4.5q-2 0 6 7t19.5 19.5t21.5 26.5t10 31q20 8 36 11t28 -1q0 -2 4 4t10 13.5t13.5 13.5t13.5 6l6 33q0 41 37 24v6 q27 12 44 19l17 8q23 6 23 14l4 53q16 -4 27.5 -0.5t19.5 7.5v4q8 4 19.5 5t23.5 1q0 14 21 14v309h-7q-4 6 -4 27q0 20 4 27h7v241q-16 0 -11 4q-41 4 -68.5 7.5t-47.5 3.5q-4 4 -7.5 24.5t-3.5 55.5q-10 0 -17 3t-3 7q-59 0 -94 10q-4 29 -8.5 47.5t-8.5 30.5q-10 0 -4 6 q-12 0 -29.5 5t-33.5 5v11h-25q-8 0 -11 6t-4 21.5t-1 45.5q-14 0 -21.5 3t-11.5 7.5t-6 7.5t-8 3q-47 0 -83 -3t-59 -8v11q-12 0 -20 -3t-12 -8v11q-20 0 -50 1t-71 5h-115q-55 0 -74.5 -1t-9.5 -5v6q-23 -4 -42 -8t-32 -9q-14 -43 -14 -79q-12 -4 -24.5 -6.5t-22.5 2.5 q6 -10 -6 -11q-4 0 -6 3t2 8h-23v-11h-24q-8 -25 -17 -16v-178q-41 0 -68.5 -3t-46.5 -8l-6 -57h-6v-31h6q10 -43 0 -84h-6v-16h6q4 -35 5 -90t1 -129q10 2 33 -11.5t39 -15.5q0 10 6 11q6 0 6 -11h31v11q35 0 59.5 3t45.5 7q0 23 16 16v236q-10 6 0 26v58q-6 0 -6 10 q4 4 5 6t1 -2q0 29 29.5 38t58.5 5q10 -10 10 16q4 4 16.5 7.5t16.5 7.5l4 47h6q-4 4 -3 9t14 17q12 4 22 5.5t18 1.5v-7q33 0 33 -6q35 -4 61.5 -1t43.5 7v-6q29 4 48 6t30 7q8 6 32 0q10 -4 18.5 -5.5t12.5 -1.5q0 23 27 -20q4 -6 4 -33q16 0 10 -4q0 -6 -10 -6q4 4 8 -2 t12 -19q27 0 33 -4v-12q23 -8 42 -12t32 -8v-17h4q4 -4 5 -14t1 -21q8 -4 21.5 -14t28.5 -18.5t29.5 -12.5t24.5 2v-10h11v-88h10q8 -47 0 -100h-10l3 -1t7 -5q10 -27 0 -52h-10l10 -10q8 -23 0 -69h-10v-25q-35 0 -59.5 -3t-45.5 -7q-16 -59 -16 -90q-4 0 -4 -11 q-35 -4 -60.5 -5t-46.5 -1v-37h-10q0 12 3 9t7 -23q0 -20 -10 -10v-27q-39 0 -66.5 -3t-48.5 -7q0 -20 -4 -27h-6q0 -6 6 -6q0 -4 -1 -11t-5 -20h6q6 -16 0 -30q-41 -4 -71.5 -7.5t-49.5 -3.5l-6 -90h-4q-10 -4 -37 -4h-69q0 -23 -15 -22v-78q-41 -4 -98 -5t-133 -1 q4 -4 3 -5t-13 -5q0 -20 -4 -25q-4 0 5 -8t-5 -35v-41q6 -35 0 -59v-5q-20 -12 -39 -16t-31 0v-10q-18 -4 -30.5 -5t-20.5 -5v-162h-11v-47q4 0 11 -6q0 -4 -4 -5q-2 0 -7 5v-58h11v-30h-11v-43h11v-58h-11v-37h11v-47q10 -8 21 -15t20 -11h63v10q8 -4 20.5 -7t30.5 -8 q80 -14 205 0q70 -10 111 0q20 12 20 0q16 6 21 7q6 0 16 -1t32.5 -3.5t72.5 -2.5h32q61 -8 94 0q14 0 15 5l6 -5q27 8 27 0h192q57 23 84 15q57 10 74 0v-10h31v10h32q4 12 7.5 25.5t7.5 17.5h6z" />
<glyph unicode="3" d="M1350 276v72h-4q-10 16 0 33h4v313q-4 4 -7.5 8.5t-3.5 8.5q6 4 11 4v33h-4q-10 14 0 30h4v21h-4q-4 8 -5.5 32.5t-1.5 67.5q-4 -4 -10 6t-10 10q-31 4 -54.5 5.5t-33.5 5.5v26q-10 -4 -13.5 -3t-3.5 14q6 6 17 0v30h-12q-6 27 -15 27q-35 4 -60.5 7t-43.5 3v27 q-4 -4 -8.5 -1t-4.5 11q0 10 13 10v47q-4 -4 -8.5 -1t-4.5 12q6 6 13 6v30q10 -4 13 6.5t7 10.5q10 4 21 4h20q12 8 26.5 17.5t43.5 25.5v51q-18 0 14 17h90q0 10 4 10v461q-4 0 -4 10q-6 6 4 6v27q-4 0 -4 10h-43q-16 -16 -10 -17q-61 25 -68 41q-8 37 -10 37q4 6 10 6v21 q-16 0 -10 6q-68 0 -118 3t-80 7v11h-23q-8 0 -13 5t-6 19t-1 43q-25 0 -31 27h-43q4 -4 1 -5t-11 -6q-4 4 -5 11q-27 0 -26 -11q-84 0 -111 11q-14 8 -26 -11v11h-246q4 -4 2 -5t-6 -6q-6 4 -6 11q-10 -10 -64 -11v11q-31 0 -41 -11.5t-6 -15.5v-49q0 -18 -4 -29h-33v11 q-4 -6 -4 -11q-53 0 -80 -16v-21h13q4 -4 4 -10q0 -4 -4 -16h-13v-27q-43 -4 -73.5 -7t-51.5 -7v-295q27 -18 40.5 -19.5t33.5 -15.5v4q72 10 98 -4q20 0 27 10q-8 8 7 11.5t36 13.5v74q-4 4 -7 5t-3 5q0 10 10 10l4 53h6q0 20 4 27h47q20 0 37 4q-8 12 6 27q4 6 11 0 q0 20 6 26h4q8 20 15 31.5t12 15.5q4 0 10 -1t10 -5q43 0 62.5 1t11.5 5v-6q31 0 50 1t28 5q33 4 56 1t44 -7q12 -4 26.5 -3t24.5 9q4 0 11.5 -1t11.5 -5q31 -4 54 -1t40 7q0 10 31 -20v-33h10q6 -4 6 -31q59 -25 104 -30q4 -20 7.5 -33.5t3.5 -24.5h6v-211q14 8 14 -10 q0 -6 -14 0v-78q-16 -4 -28.5 -5t-24.5 -5q10 -10 -11 -10v10q-4 0 -7 -3t1 -7q-23 -10 -47 0v10h-84v-10h-25q-20 -10 -26 -16v-68q-84 -4 -146.5 -8t-105.5 -8q-29 -8 -37 6q-14 0 -27 -13q-4 4 -4 9v4h-151q0 -4 -4 -6t-13 -7v-24h-6v-137h6v-37q8 0 23.5 -3t34 -7.5 t36 -7.5t27.5 -3v-6q39 0 66.5 1t48.5 5v-6h53v6q25 10 31 17q0 -12 10 -9t10 -14h138v-14h10v-37h10v-27q8 12 16 -6q49 -20 89 -20q29 -4 45 -1t28 7q16 -4 30.5 -5t27.5 -1v-15h6v-211q8 12 14 -10q0 -18 -14 -10q-4 -20 4 -60t6 -61h-10v-98h10q6 -16 0 -33h-10v-20h10 q6 -16 0 -31h-10v-27q-35 -4 -60.5 -7t-46.5 -3q10 -10 -10 -10v-33q10 10 10 -10q0 -4 -7 -11.5t-7 -19.5q-16 -4 -41 -5t-59 -1v-4q-41 -10 -88 0v4q-43 4 -75 2t-52 -6v4h-37v-4q-23 -10 -47 0v4l-105 6v31h-10v43q-4 -4 -7 -1t-3 11q-8 4 -20.5 7t-33.5 3 q-31 0 -41 12.5t-10 71.5h-6q-4 4 -4 21q0 10 4 16h6v61q-86 25 -137 17v10h-41v-10q-20 -4 -32.5 -5t-20.5 -5v-27q8 14 16 -4l-26 -27v-20q10 6 10 -17q0 -10 -10 -10v-137q16 0 10 -4q0 -6 -10 -6v-31q10 6 10 -10q27 0 33 -6h4q10 0 10 -11q12 4 20.5 5.5t16.5 1.5 q-4 -6 20 -7v-36h13q4 -12 4 -21v-16q12 -10 26.5 -16.5t26.5 -10.5q16 0 24.5 4t12.5 8q0 -6 4 -6t8 -3t8 -11t4 -33h6v-37q20 0 21 -4q8 -8 0 -22q16 4 27.5 2t15.5 -7q-6 4 14 5v-5q45 14 37 15q0 -25 17 -15q76 -8 114 0h27q27 6 26 0q20 14 25.5 7t15.5 -7h68 q29 0 47 5v10h59v-10h31q20 0 53 -5q55 -10 89 0q-6 4 20 5v10q23 16 43 16l4 47h6v27h31q0 16 27 16v-12q8 4 20 8t33 4q-8 18 0 25h4l6 37q4 6 4 10q53 33 94 33q0 31 1 50t6 23h4z" />
<glyph unicode="4" d="M1346 348l-7 6v31h7v121q-6 0 -7 6q-10 6 -26.5 9t-34.5 4t-34.5 3t-24.5 4v68h-11v105h11v43h-11v30h11h-11v68h11v16q-10 0 -11 10l11 11v32h-11v62h11v33h-11v41h11v10h-11v100h-4q-10 14 0 31h4v844h-10l-145 6v10h-17v-10q-55 -10 -110 0v10l-3 -4t-8 -12h-157h-152 h-4v-78q4 4 5 2t5 -14q0 -10 -10 -11v-37h-12v-10h12q6 -18 0 -41q-12 0 -12 -6q-59 -6 -98 0q-12 -35 -18.5 -68.5t-2.5 -62.5h-6v-14h6v-137h-6q-4 -8 -5 -12.5t-5 -8.5q-12 -4 -30.5 -5t-43.5 -1q-23 -6 -31 -14v-33h4q8 -16 0 -31h-4v-20q4 10 4 -11q0 -6 -4 -6l-6 -276 q-39 -4 -66.5 -8.5t-48.5 -8.5v-104h-10v-21h10v-258q-10 0 -10 -10q-57 -6 -74 -16q-4 -4 -30 6q-6 -6 -11 -6v-15h5q10 -27 16 -32q0 -4 -21 -25v-27q10 10 11 -6q6 -6 -11 0v-141h5q0 -27 -5 -31h5q10 -47 0 -94h-5v-33q41 -25 41 -30h168q0 6 11 6l6 -6q-10 4 14.5 5 t83.5 1q72 0 98.5 -1t5.5 -5q6 6 17 6v-6q20 4 35.5 7t27.5 -1v-6q16 0 26.5 1t14.5 5q23 20 33 -6q115 0 174.5 1t71.5 5q10 0 21.5 -1t15.5 -5v-21h10q4 -6 4 -31q6 4 6 -16q4 -4 1 -5t-7 -5v-47q4 -8 5 -39t1 -82h10v-21h11v-16q12 8 30 -10v4q10 10 33 -4q4 0 0 -6h51 q0 6 11 6q6 0 6 -6h47v6q14 0 31 10l6 195h6l-6 4q-10 31 0 63q6 0 6 4q31 12 54.5 17.5t39.5 5.5q-4 4 0 7t14 3v51h7zM983 758q-4 -6 -4 -31q-10 0 -10 -6q-4 -4 -3 -5t13 -1v-172q-20 0 -21 -21q-37 0 -63.5 -3t-46.5 -7v-6h-27q0 4 -10 8t-10 8q-16 4 -48 1t-79 -7 q0 10 -21 6q4 0 -15.5 -4t-62.5 -12v6q-59 4 -103 10t-75 10q-16 -10 -32 -10q0 16 -11 10v27q10 0 11 25q31 -6 43 6q-6 -6 26 -6q10 0 17.5 13t19.5 13q6 53 0 90q-6 4 -6 0h6q6 51 0 105h-6v31h6l4 137q-8 0 10 20q20 0 38 7.5t32 16.5t26.5 18t20.5 12q0 18 -12 10v24 q12 0 12 6q0 25 -12 17v31q12 0 12 6q0 18 -12 10v182h12v47q20 39 21 27h30q-6 -16 0 -16q16 10 11 16h32q4 4 7.5 9t3.5 18h4q8 100 0 145q-4 4 -4 6v0h4q8 53 0 101h-4v14h4q10 16 0 33h-4v36h4q4 10 8 22.5t24 25.5v-7q63 -4 109.5 -5t79.5 -1q4 0 9 -9t17 -5v-37h11 v-373q0 -6 10 0v-57h-10v-68h10v-198q-8 0 -11 -3t1 -7q-12 -12 0 -13q10 0 10 -4h-10v-37h10v-147q0 -53 4 -72v-16z" />
<glyph unicode="5" d="M1339 311v33h-10q-6 23 0 47h10v88q-16 0 -18 5t-2 22h-10v43q16 6 16 14l4 47h10v43q-14 -8 -14 11q0 4 14 4v26q-20 0 -14 6q4 4 14 5q0 10 -10 10q-6 41 0 90h10v88q-14 31 -14 53q-6 0 -6 10q-4 4 -1 8.5t7 8.5v151h-37q6 -10 -10 -10l-6 12t-6 9h-52v16h-10 q-8 0 0 14q4 6 -33 23q2 12 -2 17t-10 9.5t-13 9.5t-11 15l-52 6q4 29 1 47.5t-7 30.5q-29 8 -47 12t-31 4q-4 4 -9 1t-17 -7q-8 0 -15 27h-6q-8 23 0 47h6l-6 5t-6 22q-4 0 -21.5 3t-45.5 7q-41 10 -68 0q-16 -4 -43 -5t-61 -1q4 -4 -11 -4v4q-59 0 -107 -4t-93 -17v-26 h-11l-4 -52q-25 6 -53 0q-35 -10 -51 -6q0 -6 -17 10v226h-10q4 8 5 16t5 17v51h-10q-10 27 0 53h10v94q4 0 22.5 10.5t31.5 6.5q-4 4 -3 7t13 3v-10q37 0 41 -7q16 0 27.5 1t15.5 5.5t31 -6.5q51 -10 73 7q74 -10 133 -11q59 0 103 4q35 0 62.5 1t47.5 6q-4 4 0.5 7t14.5 3 q4 -4 7 -5t3 -5q29 0 51.5 -1t32.5 -6q76 -4 131 -4t90 11q4 0 11.5 17t19.5 17q0 37 6 43v78q-4 4 -6 8.5t-6 8.5q0 12 12 20v16q-4 0 -7 3.5t1 7.5q-4 0 -12.5 1t-18.5 5q-12 8 -22 0v10h-41v-10q-12 4 -34 0t-50 -17q-6 4 -6 11q-27 0 -49.5 1t-32.5 5v10h-27 q4 -8 -10 -16q-16 0 -17 16h-26v-10q-23 -10 -47 0v10h-17v-10q-33 -10 -57 0v10h-21v-10q-104 -10 -208 0v10l-3 -4q-4 -4 -8 -12l-393 6v10q-35 -8 -59.5 -12t-40.5 -4l-4 -64h-6v-30h6q4 -12 4 -21v-16q0 -27 -4 -37h-6v-27h6q4 -10 4 -43v-92q6 4 6 -16q2 -2 -6 -11 l-4 -53h-6v-20h6q4 -4 4 -11v-10q0 -20 -4 -26h-6q4 4 5 -0.5t5 -14.5q0 -12 -10 -12v-41h6q4 -6 4 -78h6v-27h-6v-362q20 -4 34.5 -10t22.5 -10q0 4 6 8t6 8q16 4 26.5 7t21.5 3q-4 12 -5 17q0 6 5 10h4q0 20 6 24q33 23 41 23v-17h57v11q12 0 17.5 3t9.5 7v-4h57 q20 18 47 10q-6 20 6 21q0 35 6.5 46t40.5 21q31 0 31 -10q16 4 28.5 7t24.5 3q25 10 25 -10q0 4 13.5 5t13.5 5q33 0 32 -10q35 4 62.5 7t46.5 3q0 -4 13 -9t13 -17v-35h11q4 -20 10 -21q8 0 37 -12v-4q47 0 43 4q4 8 7 4t3 -25q12 4 21.5 -10t9.5 -26q0 -4 -10 -4v-17 q4 4 10 0t10 -20q31 6 94 -11q0 -33 3 -55t7 -35h13q6 -16 0 -30h-13q-4 -6 13 -7q6 -16 0 -30h-13q0 -12 4.5 -17.5t8.5 -9.5v-178h-13q0 -4 4.5 -5t8.5 -5q6 -109 0 -209q-35 -4 -58.5 -7t-31.5 1v6q-4 0 -14.5 -5t-22.5 -18v-78h-31v-6h-43q-4 0 -20.5 -10t-20.5 -10 q-14 -14 -10 -15l-6 -53q-43 0 -72 -3t-49 -7q0 -6 -4 -10q-20 0 -21 10l-168 4q-10 6 -18 8t-14.5 8.5t-10.5 21.5t-4 46q-8 0 -9 3t3 7h-104q-8 29 -11.5 51.5t0.5 32.5q-23 23 -43 23v-6q-25 0 -24 6q-12 0 -17.5 -3t-9.5 -7q-6 4 -6 10q-20 0 -24 4q-8 8 0 20h-13 q-4 6 -4 27h-6q-4 6 -4 37q-6 0 -6 6q-14 0 -31 10v-6q4 6 -47 6v-26h-6v-17h6v-30h-6v-11h6v-47h-6v-26q4 4 5 3t1 -14q6 -10 -6 -10v-20h6v-33h-6v-21h6v-30h-6v-11h6q6 -8 0 -26q16 0 16 -10q31 0 54.5 -3.5t40.5 -7.5q4 -20 7 -38.5t3 -30.5q4 4 12 -5l8 -10h31v-12 q47 0 63 -10q4 -18 7.5 -34.5t3.5 -27.5h6q2 0 -1 -3t-1 -7t13 -10t40 -12v6q23 6 37 0v-6h242v6q25 8 51 0v-6h63q0 6 10 6q6 0 0 -6h21v6q25 6 47 0v-6h27v6h20q0 20 27 20v64h6q-10 16 14 26h33v-12h21v12q41 0 30 4q0 29 23 37v27q49 23 82 16q0 4 32 21v57q4 0 5 4 q51 23 79 23v4q0 6 21 6q0 14 20 14z" />
<glyph unicode="6" d="M1348 223v330h-7q-4 6 -4 16q0 14 4 21h7v53q-10 0 -11 10q4 4 11 4v95q-10 0 -20.5 10t-0.5 26h10v17q-20 0 -10 10h10v57q-10 0 -10 11l21 20v107q-10 0 -11 4q-6 6 11 16v84h-7q-4 0 -4 14h-63q-27 16 -53 17v53h-4q-4 4 -5.5 14.5t-1.5 22.5h-30v10h-52q-16 0 -24 5 t-8 20v43h-11q-6 6 -6 16q-51 4 -77.5 7t-30.5 3q-23 0 -23 -6q-23 -6 -30 6v-6q8 0 -43.5 1t-161.5 5q-39 4 -75 1t-71 -7v-10q-16 -6 -32 0v10h-21q12 -8 -4 -14q-4 8 -8 11l-4 3q-14 -51 -15 -78q-20 -4 -26 -15t-11 -15q-43 0 -67 10v10q-33 0 -33 4v121h-4q-10 14 0 31 h4v272h10v37h43v6h31q4 12 13.5 19.5t29.5 7.5l4 61q25 25 47 17h94q37 0 48 -4q4 0 12 7t20 7q16 0 11 -10q57 0 61 -4q33 4 53.5 6t30.5 -2v-4q20 4 45 6t62 -2v-17h10q4 -16 4 -43v-61q4 -10 7 -25.5t-1 -25.5h10v-17l64 -16q0 -4 5 -5t5 -5q20 0 31 -11v-36h10 q4 -8 5 -15.5t1 -11.5q18 -18 37 -25q10 4 20 4h21q25 16 31 -4q59 10 89.5 17.5t26.5 7.5v33q-4 0 -11 7t-11 7q0 6 22 6v41q-10 0 -10 12q-10 0 -14 -4l-8 -8v12q-16 0 -36 3.5t-48 7.5v20h-4q-10 14 0 31h4v47q-4 -4 -7.5 0t-3.5 16q0 6 11 6q-4 10 -7.5 26.5t-3.5 41.5 q-14 6 -10 10q-12 -4 -22.5 -5t-14.5 -5q-10 8 -21.5 12t-15.5 9h-30v57h-11q-4 20 -5 48t-1 67q-16 0 -24 12v4q-12 -4 -11.5 -5t-15.5 -5q-6 6 -6 10h-45t-29 -4l-3 -1t-11 -5l-10 10h-142v10q-74 -23 -110 -14v4q-16 0 -17 -4q-4 0 -4 4h-12t-21 -4v4q-23 0 -33 -1 t-15 -2t-6 -3t-7 -4l-12 10h-172q-6 -4 -17 -4v-37h-10q4 -8 5 -12t5 -4q0 -10 -10 0v-27q-8 0 -31 -16q-18 -8 -26 6q0 -10 -27 -10v-7h-24q-10 -27 -17 -20q0 -4 10 -4q8 -23 0 -37h-10q4 -6 10 -6q8 -25 0 -47h-10q-6 -4 10 -4q8 -18 0 -33h-10v-37q-12 0 -16 3t0 7 q16 -4 7 -7t-44 -3q6 -4 -10 -4q-4 0 -4 4h-17v-4q8 -4 0 -8t-31 -13v-436h11v-61h-11v-80h11v-58h-11v-534h11v-104h-11q-6 -6 11 -7v-135h-11q0 -12 5.5 -43t5.5 -51h10v-16q16 0 47 -5.5t47 -5.5q0 -4 10 -4q4 -12 5.5 -17t1.5 -9q4 -4 4 -17v-20q4 4 12 -7l8 -10h43 q18 -8 28.5 -13t15.5 -12t6 -19.5t1 -32.5h11q4 -16 8 -13.5t4 -13.5q78 -8 164 -12t180 -9q20 0 49 5.5t45 5.5v10q25 10 47 0v-10h60v10q20 8 37 0v-10h14q0 -6 6 -11q10 10 74 11v10q16 4 27.5 5t23.5 1q4 10 5 15.5t1 9.5h4v53q29 12 38 19.5t5 7.5q0 -4 6 -5q8 0 4 -12 h31v10q4 0 12.5 8.5t20.5 8.5l4 51q-4 6 6 10t26.5 9.5t33 10.5t24.5 13q11 0 21 10zM1116 344q-10 -8 -17 -15t-3 -12h-95v-16h-10v-57q-10 0 -30 -31q-10 4 -37 7t-70 3v10q-25 0 -14 -10q-16 2 -47 -1t-65 -7t-64.5 -6t-49.5 4q-12 4 -31.5 7t-47.5 3v10q-16 0 -11 -10 q-31 0 -41 10q6 16 0 17h-6v20q6 0 6 6q4 4 1 7.5t-7 3.5q0 20 -4 24q-35 4 -59.5 7.5t-40.5 -1.5q-4 12 -11.5 18.5t-15.5 2.5v47h10v205h-10v53h10v25q-4 6 -10 6q10 0 10 6q0 20 -10 20q20 0 10 11q0 20 -10 10v27h10v61h-10v22h10v31q-4 6 -10 6h10q0 14 -10 15h10v32 h-10v21h10v41q20 20 41 26.5t66 10.5q0 20 10 10l4 53q0 4 10.5 13.5t10.5 13.5h184q0 -6 31 10v-6l53 -4q-10 -10 16 -10q16 0 11 10q57 0 94 10l4 -3q4 -3 16 -7v-10h64q-6 -6 4 -17q0 -37 6 -43q35 -27 62.5 -37t35.5 -10q0 -16 17 -10v-31h10q0 -63 1 -109t5 -75h4v-14 h-4q-10 -33 0 -64h4v-31q-10 0 -10 -6q-4 -4 10 -4v-47h-4q-10 -10 0 -27h4v-20h-4q-8 -23 0 -37h4q0 -4 -3 -8t-7 -15q-6 -6 6 -14h4v-26h-4q-10 -10 0 -27q4 4 6 2t-2 -6h-4q-10 -16 0 -33h4v-41z" />
<glyph unicode="7" d="M1339 1632v398q-4 0 -15 8t-15 8q-16 4 -35 2t-39 -6q-59 -4 -102 -4t-76 8q0 16 -31 -16q-8 -6 -20 0q-12 10 -18 13l-5 3q-82 4 -136 2t-83 -6v4h-102t-66 -4q-76 -10 -141 4v10q-47 -16 -47 -10h-68t-37 -4q-33 0 -33 4q-51 0 -57 -4q-4 4 -27 4h-57q0 -4 -20 -4v-144 q4 10 5 6.5t5 -16.5q0 -16 -10 -10v-47q12 0 22 -3t14 -7v6q23 6 37 0v-6h37v6q23 6 37 0v-6q88 0 94 -4q6 14 31 14q20 0 10 -10q43 0 47 -4h51q23 0 39 4q4 4 11.5 2t19.5 -6v4q10 -4 21 -4q100 0 106 4q35 0 35 -4h61q29 0 45 4v-4q35 0 41 4q4 -4 11 -4h10q29 -10 84 4 q55 8 94 0q-6 10 10 10q8 0 0 -14h10q4 -10 5.5 -16.5t1.5 -10.5v-127v-4q-16 -16 -68 -17q10 0 1 -4t-44 -16v-172h-20q0 10 -4.5 7t-16.5 -19q-20 -4 -35.5 -1t-27.5 7l-11 -5q-10 -5 -10 -16v-37q0 -12 -1 -23t-5 -20q-10 4 -28.5 1t-39.5 -11v-10q-8 -4 -20 -4h-27v-59 h-4q4 12 4 8v-23q0 -16 -4 -10v-90h4q8 -16 0 -31h-4v-27h4q8 -25 0 -47q-35 -4 -59.5 -5t-44.5 -1q0 -10 -17 -10v-653h7q6 -10 0 -27h-7v-27q4 8 5.5 5t5.5 -15q0 -10 -11 -10v-164h7q4 -8 4 -35v-73h6q4 -8 0 -21q8 -4 12 -8l8 -8h148v10h30q0 16 21 16q-4 4 0 10.5 t16 10.5h-10q-8 23 0 47h10v31h-10q-8 49 0 94h10q-10 16 -16 16q0 10 16 10v11h-10v127h10q0 8 -3 11t-6 5t-5 6t-2 15q-4 0 -4 10q-6 4 4 4v383q-14 0 -4 10h4l6 137h10q0 35 12.5 43.5t55.5 8.5q0 4 16 20q8 0 12.5 3t8.5 7q-4 4 -2 10.5t12 16.5h-10v57h10v37 q-10 0 -10 10q6 6 10 6q0 20 -10 21q0 6 10 6v88q12 8 26.5 11t26.5 -1v11h31v-11h27v11q8 4 35.5 5t74.5 1q0 12 4 13t17 -3l6 256q0 35 35 27q53 26 73 26zM246 1894q-14 23 -23 17h13q0 -17 10 -17zM250 1868h-4v6h4v-6z" />
<glyph unicode="8" d="M1350 344v21h-11v141h11v31h-11v352h-4q-6 4 -6 14q-35 0 -61.5 4t-42.5 8q-10 16 -11 78q-33 27 -104 27q4 -4 -10 -10q0 -6 -23 14v43h10v47q-12 -2 -29.5 1t-34.5 7t-30.5 8.5t-19.5 4.5v53q16 4 24.5 6t12.5 -2q-6 16 16 16v-16h14v10q6 6 27 6q0 10 20 11l7 41 q0 23 6 26q53 41 104 21q0 12 10 12v61q10 0 11 6q111 14 104 21l6 84h4q0 6 -4 6q-4 27 -5 66t-1 90q-8 4 -11 5t1 5q0 6 10 6v10h-10v31q-29 4 -48.5 8t-35.5 4v4q-20 0 -31 11q-8 47 0 80q-59 8 -90 11t-27 3q-10 12 -12 27.5t2 35.5h10q-4 12 -7 20l-3 7h-37v4h-14 q4 -4 -10 -4l-6 4h-27v-4h-31v68h6v20q-12 8 -20 15.5t-16 11.5h-43q10 -10 -11 -11q-10 0 0 11h-20v-11q-25 -10 -47 0v11h-131q6 -10 -17 -11q-20 0 -10 11q-31 -16 -31 -11h-137q10 -10 -10 -10v-57q-4 -6 -4 -12q-53 -20 -80 -21v-4h-27q-6 -23 -14 -23v-57 q-10 -6 -10 -10q-35 0 -60.5 -3t-46.5 -7v-39t-4 -29q-6 0 -6 -10q-49 -16 -72 -17v-4q4 4 -32 4v-26h-11v-14q10 0 11 -7q-4 -6 -11 -6v-145q10 0 11 -10h-11v-27h11q10 -16 0 -27h-11v-14h11v-27q4 8 5 4t5 -14q29 -4 51.5 -8t32.5 -8v-17h10v-26h6q4 -4 4 -15v-20 q33 -12 59.5 -17.5t47.5 -9.5v-20q-6 -6 20 -6q4 -8 4 -21v-20q23 -23 60 -23v-10q43 0 45 -7t2 -20h4q8 -16 0 -30q-78 -12 -105.5 -16.5t-5.5 -4.5l-4 -90q-29 -4 -56.5 -9t-57.5 -16v-59h-13q0 -20 -4 -25h-47q0 -12 -10 -12v12q-20 -4 -32.5 -8t-20.5 -4v-219h-11v-16 q10 10 11 0v-371q-4 0 12 -3t51 -7v-11h31q4 10 12 -9t8 -38h13v-26q10 10 10 -10q29 0 45 -1.5t26 -5.5q0 -4 14.5 -5t18.5 -5q16 -49 10 -74q10 0 11 -4l53 -6q10 -8 19.5 -12t21.5 -4q8 0 0 -15h10v-47h10q6 -6 7 -16q37 -8 36 -16q283 8 424 0q0 16 21 16v63h10v25 q8 14 57 6v-6q31 0 47 16q18 55 13 80q35 0 59.5 3t44.5 8v4q8 4 12.5 5t8.5 5l6 47h4q0 33 10 33h84q-4 4 -1 7t11 3v47h11zM1094 1438q-12 0 -23.5 -7.5t-23.5 -17.5v10h-58q-27 -16 -16 -16v-64q-20 8 -21 -20q-47 0 -53 -4q0 14 -25 4q-6 -4 -47 -4q-119 4 -209 7 t-153 3v78q-4 6 -51 6q0 18 -1 23.5t-5 -2.5h-54q0 10 -4 16h-10v223h10q4 16 12.5 21.5t8.5 15.5h84q6 6 6 16h4q0 29 3 48.5t7 29.5q29 0 45.5 4t28.5 9v-13h121v13h47q-12 -12 16 -13q16 0 4 13h31v-13q49 -6 90 0v13h74q-4 -4 2 -8.5t18 -4.5v-24h6q0 -25 15 -70h104 v-31h10q-4 -6 7 -16v-109q-8 -77 0 -116zM1120 584h-10q-8 -27 -12 -40l-4 -12q4 -23 8 -42t8 -31v-105h-10q-6 -6 -6 -43h-17v-10q-86 0 -94 -14v-70q-16 0 -10 -10q-10 4 -35 2t-59 -6q-86 6 -125 0q-14 6 -84 0q-4 -4 -49.5 -2t-128.5 6q-12 0 -13.5 13t-13.5 13v68h-94 v10h-31v17h10q6 57 0 104h-10v37h10q6 10 0 27h-10v26h10q6 39 0 68h-10v53h14q0 25 -14 10v15h10q6 25 0 32h-10v21h10l4 158q12 0 22.5 3t14.5 7v4q51 23 74 22q6 4 10 5v63q12 0 16.5 5t16.5 5v-6q16 4 62 5t126 1q0 -6 4 -10q10 6 11 10q78 -4 138 -7t103 -3 q-4 -4 1 -14.5t10 -22.5h10v-31h10q6 4 6 -26h98q0 -33 7 -37q0 -12 1 -20.5t5 -16.5h10v-10h-10q-10 -47 0 -94q14 6 10 -6h-16q0 -4 16 -5q-4 -41 -1 -68.5t11 -47.5z" />
<glyph unicode="9" d="M1352 301v404h-11q-6 33 0 63h11v125h-11q-6 16 0 33h11q-4 4 -11 4q-6 25 0 47h11q0 29 -11 22q0 4 3.5 6.5t7.5 -1.5v73h-11v115q-10 0 -10 10q0 6 10 6v289h-10v41h10v10h-10v31h10v59h-10v41h10v21h-10q-6 0 0 16l-67 6v4l-54 7v84q-10 0 -4 4q-35 4 -59.5 5t-40.5 5 q0 8 -3 10t-6 7t-5 18.5t-2 44.5q-25 0 -15 10h-33v4q-57 10 -81 10v74q-25 25 -54 16v11h-16q10 -10 -14 -11q-18 0 -13 11h-67v-11q-6 -10 -58 -10q0 10 -30 10v11h-74q-6 0 -21.5 -4t-34 -8.5t-35 -7.5t-24.5 -1v10q-12 -4 -23.5 -5t-19.5 -5q-4 -29 -4 -49v-31 q-25 0 -41 -3t-29 -7q6 -4 -10 -4l-4 4h-16v-4q27 -10 -21 -10q12 -16 4 -70q-29 -8 -47 -12t-30 -8q-4 4 -5 7l-2 3q-4 -4 -26 -4q-20 0 -21 -10q-4 -25 -4 -45v-29q-35 -4 -59.5 -8t-40.5 -9v-4q-4 0 -10.5 -6t-10.5 -6v-31q10 10 11 -10q10 -16 -11 -16v-27q10 10 11 -10 q0 -4 -3.5 -6t-7.5 2v-74q10 10 11 -10q0 -6 -11 -6v-99h11q10 -10 0 -26h-11v-78h11q-4 -12 -5.5 -20.5t-5.5 -12.5h11q8 -16 0 -31h-11q-10 -10 11 -10v-141h6q6 -35 0 -57h-6v-23q6 6 10 0q4 -4 5 -7t5 -3l53 -4q0 -4 10.5 -16.5t10.5 -16.5h10q10 -41 10 -62h6 q6 0 7 -16l51 -6v-4h100q10 10 14 10q6 -6 0 -10q25 0 40.5 -1t23.5 -5v-21h6q4 -6 4 -31q12 0 21.5 -18t21.5 -18q49 -10 115 4q4 -4 5 -7.5t5 -7.5q33 4 78 4h111h61q27 0 43 -4q6 6 9 8.5t7 5.5t10.5 8t20.5 15v51q4 8 21.5 12.5t52.5 4.5q29 -4 36 -18.5t7 -34.5 q4 6 10 0v-330q4 4 7 3t3 -13q0 -4 -4 -4q-2 0 -6 4v-37h10q-8 -47 -12 -83t-4 -65h-37v-10q-43 -4 -63.5 -14.5t-20.5 -22.5v-51q-41 -10 -51 -10q-20 6 -27 0q-115 0 -177 -1t-75 -5q-23 -6 -30 6q-61 6 -101 0q0 -12 -30 4l-6 6q-5 6 -10 47t-5 131q-10 0 -6 4 q-35 0 -61.5 4t-38.5 9v10q-25 0 -25 14q-8 37 0 74h10v74h-10q-4 8 -5 15t-1 11h-88q0 -4 -11.5 -7t-11.5 -15q-23 -6 -30 0q0 4 -13.5 11t-13.5 11h-47q0 -16 -10 -16v-17h6q6 -14 0 -36h-6l5 -5q5 -6 5 -10q0 -10 -10 0v-121q20 -8 34.5 -5t23.5 5t12 0t3 -20q6 4 31 -6 l10 -10v-21h6q6 -6 7 -20h10v-117q8 0 23.5 -5t30.5 -10.5t28.5 -10.5t21.5 -5v-20h4q6 -6 6 -33h5q6 -4 6 -21q35 -4 59.5 -8t44.5 -8v-25h10v-47h7q4 -6 4 -26q20 6 26 -6v6q41 0 102.5 -4t143.5 -13q8 -6 23 17q39 0 66.5 -1t47.5 -5q29 4 48.5 8t29.5 8v68q2 2 3 6t6 7 t17.5 5t37.5 2v-10h20v10h141q12 0 11.5 13.5t11.5 13.5l4 141q6 2 6 6t5 7t18.5 6t44.5 3v11h20q1 14 21 14zM1106 1155h-4q-6 -4 -6 -27q-8 -4 -22.5 -7t-35.5 -3q0 12 -26 6q0 -4 -7.5 -8t-3.5 -8h-16v-57h-10q-4 -12 -4 -19v-8q-49 -16 -70 -10v6q-59 4 -105 1t-77 -7 q-8 12 -31 6q-25 -8 -48.5 -9t-47.5 3q-39 4 -71 8t-54 8v78h-31v6q-35 6 -51 10t-23 8l-8 3q0 2 -2 0v30q-12 0 -13 3t3 8h10q6 18 0 32h-10v64h10q6 20 0 35h-10v22q16 0 10 14q0 12 -3 13.5t-7 -2.5v80h10q6 14 0 30h-10v21h10q6 18 0 33h-10v20q4 -4 6 -4q4 0 4 4 q-6 6 -10 6v21q14 0 10 4q0 12 -3 13t-7 -3v43h10q6 39 10.5 57.5t7.5 24.5t4 5t-1 1h84q12 4 14 16.5t6 16.5q-4 10 -5 14t-5 -4q0 31 12.5 39t7.5 12h84q0 -4 7 -10q4 4 6 5t-2 5h61q29 0 45 -4q0 4 13.5 2t17.5 15h94v-13q39 -6 78 0q0 12 6 13q0 -12 4 -13q16 0 17 13 v-13h30q4 0 11.5 -9t11.5 -5q0 -57 14 -80q33 -4 55.5 -5t34.5 -5q0 -16 15 -10v-37h6q0 -31 1 -50.5t5 -27.5h4v-10h-4q-10 -16 0 -43h4v-11q-4 6 -10 0q4 -4 5 -7t5 -7v-59h-4q-8 -18 0 -41h4v-43h-4q-10 -31 0 -62q16 6 4 -6q-4 0 -10 -4l10 -10v-27q-10 0 -10 -6l10 -10 v-41h-10q-4 -4 -1 -6t11 -6v-21z" />
<glyph unicode=":" d="M963 1354v288q-27 27 -31 27h-47v-10q8 4 0 7t-37 3q-16 102 -21 94h-90q0 -6 -10 -6l-6 6h-119l-6 -53h-10v-31q-8 0 -23.5 -4t-33 -8t-34 -7t-24.5 -1v-305l25 -12q26 -13 59 -13v-6q23 0 31 -20v-43q4 6 10 0q4 -4 5 -7.5t5 -3.5q8 0 0 -14q-35 -10 53 -10v-13h31v13 q76 6 115 0q33 20 43 47q0 14 -10 14q6 0 9 6t7 12.5t9 12.5t16 6v6q16 4 27.5 7t19.5 3v-10h16q1 7 21 25zM979 371h-10q-10 14 0 30h10v48h-10q-8 23 0 40h10q0 12 -10 13q-4 18 -5 50t-1 75l-54 4v6l-61 6q-10 16 -10 72h-7q-4 0 -4 16q-4 0 -16 5t-16 5q4 -4 4 -6l-8 -4 q-6 6 -7 10h-26q4 -4 0 -5t-15 -5q-8 0 -11 3t1 7q-45 0 -75.5 -3t-51.5 -7q6 -4 -4 -4q0 -29 -1 -51.5t-5 -32.5q-35 0 -59.5 -1t-44.5 -5q4 -4 2 -5t-13 -5v-168h-10q16 -74 10 -88h-10v-33h10v-14q4 4 10.5 -6.5t10.5 -10.5q78 0 84 -6q16 -49 16 -72q10 -12 18.5 -17 t16.5 -9q12 4 22 4h21q25 16 31 -4h61q29 0 49 4v10q4 0 13.5 10.5t13.5 5.5v48q10 -4 12 6t14 10q82 0 58 10l31 17q4 16 8 26.5t8 20.5z" />
<glyph unicode=";" d="M1026 1417v43h-10q-10 14 0 31h10v37h-10q-4 16 -5 39.5t-1 58.5q-4 0 -6.5 4t2.5 12q-10 0 -17.5 3.5t-15.5 7.5v-4q-20 4 -35.5 5t-28.5 5q-16 29 -20 49.5t0 38.5q-10 0 -10 -10q-23 -6 -41 0v10q-16 4 -27.5 5t-19.5 5q-39 -14 -58 -4v4q-47 0 -63 -10q4 -4 2 -7 t-13 -3v-78q-33 -4 -55 -7t-39 1q-8 -8 -16 -12.5t-17 -8.5v-198h7q4 -6 4 -17q0 -4 -4 -10h-7q0 -4 5.5 -7t5.5 -14q0 -10 -4 -16h-7v-31q8 6 17 -16q20 -8 31.5 -12t21.5 -8q0 10 10 10q18 0 27.5 -10.5t9.5 -42.5h10v-25h5q4 -4 5 -11t1 -12q41 -6 41 -14q68 16 157 10 q4 -8 5 -4t1 21h25v35h6q0 23 4 26l15 7q16 7 59 20q-4 4 3 8t7 8q10 6 17 0l6 88h10zM1036 502q-4 4 -5 7t-5 3q0 4 10 4v64h-10v135q-25 0 -16 12h-37q4 -4 1 -8t-11 -4v4q0 4 -5 8q-20 0 -28 1t-25 30h-6q0 12 1 22.5t5 14.5q8 0 -31 26h-59v10q-25 0 -24 -10h-121 q0 -37 -6 -43h-5v-47q-10 0 -10 -4q-27 0 -22 4q-10 -4 -27 -4h-35q0 -4 -11 -11t-11 -11v-11h6q8 -16 0 -30h-6v-252q-4 -4 32 -27q10 4 21.5 5t15.5 5q39 10 47 -10v-47h5q10 -27 0 -51h-5v-33h5q10 -6 0 -25q-18 0 -27 -22q-10 0 -12 3t2 7h-41v-10q-12 -4 -23 -4h-20 v-33h6q8 -18 0 -41h-6q0 -16 -4 -16q-35 -4 -62.5 -7.5t-48.5 -3.5l-4 -36h-10v-27h10q4 -10 4 -16v-9q12 -12 20.5 -20t16.5 -12h47q20 0 31 -5h100q-6 4 16 5v-5h58l3 3q3 4 13 8q-6 -6 31 -6q8 12 15 20t12 12l4 52h26v10q12 0 23.5 10t23.5 6q-6 6 0 6q8 0 18.5 10.5 t18.5 10.5v215h-6q-4 4 -4 14q0 12 7 30.5t50 22.5q4 -8 5 -12t6 -4q43 16 63 16v101h10z" />
<glyph unicode="&#x3c;" d="M1337 4v88h-32v10q-14 0 -15 -10q-8 8 -6 10q-16 4 -27.5 10.5t-19.5 10.5q-23 37 -16 70h-4q-6 4 -7 14h-30v10q-59 0 -80 13.5t-21 76.5q-8 4 -28 4h-50q0 12 -13 11.5t-13 11.5q-4 18 -6 34.5t2 26.5q-12 0 -17.5 13.5t-9.5 13.5h-90q-23 41 -14 63h-6v27l-52 4v10 q-33 0 -40 6.5t-7 26.5q-6 0 -6 10t6 11v20h-6q-10 0 0 16q-12 4 -19 8l-8 3q-31 -4 -54 -2t-40 6v63h-4q-6 6 -6 21l-70.5 9t-34 11t-10.5 25v49h-6q-4 4 -4 10v12h-74q6 -10 -6 -10q-4 0 -6 3t2 7q-12 0 -20.5 7.5t-12.5 7.5v117h11l6 36q10 0 16 5q4 0 4 -5 q41 0 56.5 4.5t19.5 8.5t4 8t10 4v33h11q0 35 5 41t5 10h31v-4h32v4q10 0 18.5 5t12.5 5q0 23 6 27h4q0 12 1 22.5t5 14.5h4v26q4 4 19 4h35v13h30q29 10 36 17t-3 7q0 35 8.5 44.5t59.5 9.5q0 4 7 10t24 10v27h6l4 51q25 25 80 16q0 16 37 17v57q4 4 4 14q0 12 10 13h47v10 q6 4 43 4q0 12 14 12l6 51h11q29 16 56.5 33t47.5 4q4 8 5 12.5t5 8.5l7 47h4q-4 6 12 22q72 0 67 4q-12 12 -3.5 14.5t8.5 6.5q23 0 22 10v84q-16 0 -12 6q-25 0 -31 4v13q-10 0 -10 -13q-10 -6 -31 0v13h-22v-13q-27 -8 -52 0v13h-20q8 -12 -12 -17q-16 0 -11 17h-41 q4 -12 -8 -13q-12 0 -12 -4q-63 -8 -94 0l4 -6q29 -18 0 -24h-4v-48h-10v-12q-37 -6 -43 6q-20 -4 -36 -7t-28 1q-23 -53 -14 -88q-6 4 -6 -10q-20 0 -36 -1t-28 -5q0 -10 -15.5 -13.5t-15.5 -7.5q-4 -29 -4 -49v-29h-26q6 -10 -11 -10q-6 4 0 10q-12 0 -37.5 -5t-42.5 -5 v-26h-4q-6 -6 0 -11q4 -6 4 -16t-4 -6q0 -31 -6 -35q-39 0 -62.5 -4t-31.5 -8v-4q-27 -10 -31 -11v-73q-33 -4 -55 -5.5t-35 -1.5q0 4 -20 -14q0 -29 -1 -45t-5 -29q-4 4 -7.5 1t-3.5 -7q-35 -10 -59.5 -15t-44.5 -9q0 -20 -10 -27q10 6 10 -10q4 -4 1 -8t-11 -4 q0 -25 -4 -31h-27q0 -4 -10 -4q-6 -6 0 -13q-16 -6 -33 0v7h-41q-16 -16 -10 -17v-141l4 4q2 0 6 -8q0 -6 -10 -6v-41q4 4 5 1t5 -7q0 -4 -10 -5v-110h10v-94q35 -12 62.5 -16.5t48.5 -4.5v-16q8 10 14 -17q8 -14 -10 -14v-12q14 0 20 -10v-15q10 0 10 -10q29 -10 48.5 -13 t35.5 -3v-37h11q4 -4 5 -14.5t1 -22.5h6q6 0 0 -17q57 0 84 -10q6 10 10 10q4 -8 7 -23t3 -44h11q4 -4 4 -27q4 4 8 1t4 -11h82v-10q6 6 6 0q6 -4 10 -4q6 -35 10.5 -46.5t7.5 -15.5t5 -6t4 -16q29 6 100 -11q4 -6 4 -22h11q0 -18 -11 -25h11v-26q12 -8 26.5 -11.5t26.5 1.5 v-11q4 4 31 -6l10 -10v-21h10v-26h10v-27q12 12 13 0q2 0 61 -16v-10q16 10 33 0q6 -6 0 -27h4q4 -4 5 -14.5t1 -20.5q10 0 25.5 -8t25.5 -8v-6q53 0 64 -5q31 4 73 5h105q0 10 10 10q6 0 6 -10h25v6q22 6 22 16z" />
<glyph unicode="=" d="M1346 1145v16h-7q-4 29 -4 68v100l-63 14q-31 0 -31 -4h-22t-15 4q0 -4 -12 -4q-10 0 -14 -10q-23 14 -58 14q-25 0 -58 -7l-32 -7v4q-41 10 -67 10q-16 4 -36 2t-48 -6q-35 -4 -55.5 -7t-28.5 -3q-14 14 -31 14q0 -4 -12 -4q-10 0 -15 -10q-4 0 -4 4q-20 4 -32.5 5 t-20.5 5h-62t-43 -4h-63q-27 0 -47 4q-29 -4 -48.5 -7t-29.5 -7q-25 -14 -33 4q-18 4 -34.5 2t-26.5 -6q0 10 -8 10t-9 4q-16 -4 -30.5 -6t-26.5 2v4q-37 8 -110 -14q10 -10 -5 -10v-111q4 -6 5 -73q-6 0 26 -17h31q0 -4 5 -7t5 -7h47v4h37v-4h178v4h33v-4h21q0 4 10 4 q4 4 4 2t-4 -6h41v4h43v-4h73q33 0 52 4v-4h22v4h58v-4h57v4h47v-4h88v4q33 4 55.5 5t34.5 5q10 -10 51 -10v-4h80q-4 4 5.5 7t9.5 7q16 4 26 -5l10 -9q4 0 26 12t32 12v-10h22v15q0 8 4 12h7zM1346 526v33h-7q-4 4 -4 31q-29 0 -22 20q4 12 11 18.5t11 2.5v84h-47 q4 -4 0 -5t-16 -5q-6 6 0 10q-35 -6 -41 12v-6l-4 -1t-13 -5l-10 12h-205q0 -12 -6 -12q-72 10 -123 13t-86 3q-37 0 -41 -4h-110q-41 0 -58 4q-8 -4 -15 -7t-11 -3q-35 -4 -59.5 -1t-40.5 7q4 -4 0.5 -6t-11.5 -6v12h-84q0 -12 -10 -12v12q-16 6 -31 -12q-6 0 -6 12h-31 h-141q-12 -10 -17 -17.5t-9 -15.5v-114h10q4 -12 5 -32t1 -46h31q0 -23 10 -23q123 14 211 0q-4 4 2 7t18 3v13q16 0 17 4l4 -4q4 4 10 4h10h56t38 -4v-13q12 -4 18 -7l5 -3q31 4 54.5 5t39.5 1q29 6 37 -6q10 0 34.5 1t59.5 5h94v-6q8 4 15.5 5t15.5 1q4 4 53 -6 q0 41 25 23q6 0 6 -13q37 -14 74 -14q74 0 132 3t97 11v13h23q12 0 20 4q0 12 3.5 18t7.5 2z" />
<glyph unicode="&#x3e;" d="M1341 727v340q-10 0 -10 10q6 4 10 4v37q-23 12 -38 17.5t-23 9.5q-27 0 -16 -10q-47 -25 -47 26h-7q-6 20 0 37h7v27q-16 0 -11 4q-8 0 -23.5 2t-32.5 5t-33.5 6t-26.5 3v88q-10 0 -12.5 3t1.5 7q-25 0 -24 -4q-31 18 -48.5 15.5t-25.5 -4.5t-11 10t-5 63h-11 q-6 4 -6 15q-29 4 -50 8t-38 4q-23 35 -16 68h-4q-6 4 -6 26h-105q0 10 -1 12.5t-5 -2.5v25h-10q-4 29 -5 41t-20 12h-33v10q-6 -2 -17 1.5t-21.5 6.5t-18.5 6t-10 3q-4 10 -5 33.5t-1 54.5h-68q-12 8 -23.5 11t-23.5 -1v37h-10v47q-16 0 -11 6h-51q-20 0 -33 4v13h-16v-13 h-135v13q-53 0 -80 -17v-6q0 -4 -20 -4v-20h10q8 -18 0 -33h-10v-31q-4 -4 3 -8t17 -12h47q6 4 17 4q0 -4 8 -5t8 -6q23 -49 14 -73h13v-21q4 4 6 4q4 0 4 -10q57 0 84 -10q0 4 4 -2t16 -19v-36h10q4 -4 5 -15q37 -12 59.5 -22.5t30.5 -14.5q16 -43 16 -63q-12 0 31 -27 l57 -4v-6q16 0 20.5 -5t16.5 -16q-4 -12 -5 -16l-1 -4h12q4 -4 4 -16v-21q59 -27 90 -26v-7q18 0 25 -10v-41q16 0 19 -8t3 -25q51 0 89 -14q6 0 6 -27h4q6 -6 6 -36h10v-17q10 0 31 -14q63 0 74 -10q8 -20 11 -36t-1 -28q12 8 26 -16q45 0 54 -15q0 14 24 15q0 -12 4 -7 t9.5 2t9.5 -28t4 -92q8 -14 0 -33q0 -20 -4 -25h-33q10 -10 -10 -10t-10 10h-21v-10q-4 0 -9 3t-18 7q0 -10 -16 -10v-33h10q8 -20 0 -40h-10v-21q20 -4 -6.5 -8t-97.5 -4v-4q-4 0 -10.5 -8.5t-10.5 -8.5v-51q-12 0 -20 -12q-61 -20 -95 -21q0 -20 -6 -26h-4l-6 -58 q-6 0 -6 -10q-35 -4 -61.5 -5t-43.5 -5q0 -4 -10 -4v-37q10 0 10 -10q-4 -6 -10 -6q0 -20 -4 -27q-53 0 -80 -10v-11q-10 -4 -21 -5t-16 -1v-57h-10q-4 -8 -4 -16v-11q-35 -4 -63 -4h-43l-5 -90q-10 10 -10 -10h-114v-84q-29 -8 -51.5 -11t-32.5 1q0 4 -4.5 -1.5t-8.5 -14.5 l-8 -18t-6 -13h-6v-52h6q4 -10 4 -22q23 8 23 -10h249q-4 4 -2 7t15 3q14 -6 10 -10h31v6q4 4 8 6t12 -2v47h10v27q23 0 23 10q27 4 49.5 8t32.5 8q8 39 16 58h10v26q20 0 27.5 1t-0.5 5v11q8 6 31 -11v11q6 4 33 4q0 4 10 13t10 13q4 29 7 36t3 11q51 8 75 12.5t20 4.5v10 q12 0 17 3t9 7v41h4q0 20 11.5 26.5t15.5 10.5q20 0 10 -10h17v10h30q4 0 15.5 18.5t21.5 18.5v53q88 23 105 14q8 16 12 17l4 47q0 20 6 27q66 16 94 16q0 25 21 20v41h10q0 10 -10 11q4 0 28.5 21.5t75.5 21.5q-17 16 10 16z" />
<glyph unicode="?" d="M1346 1118v80q-10 -10 -11 10q0 4 11 4v394q-10 -6 -11 16q4 4 11 4v16q-10 -6 -11 11q0 6 11 6v20h-7q-4 6 -4 43q-41 4 -68.5 5.5t-47.5 5.5v30h-11q0 12 3 19.5t8 11.5h-11v23q-4 0 -61 10v10h-53v74q-29 10 -55.5 17t-55.5 3q0 4 -10 10.5t-15 10.5q-6 0 0 6 q-4 4 -2 7t7 3v47q-27 0 -31 4v11q-37 0 -37 6q-43 0 -77 -1t-54 -5v6q-10 0 -16 -6l-5 6h-57v6q-29 0 -48.5 -4t-31.5 -8h-4q-2 0 -6 -5l-10 11h-101q0 -20 -4 -27h-10v-74q-29 -4 -51.5 -7t-32.5 -3h-10h-74h-10q-20 -4 -35.5 -7t-28.5 -3q-4 -29 -5 -48.5t-1 -29.5 q-4 4 -4 -6t-10 -10q-8 8 0 16q-20 -8 -35.5 -12t-28 -8.5t-19.5 -2t-11 6.5q-6 -4 -11 -4v-33h5q8 -37 0 -74h-5v-10h5q8 12 16 -31q0 -8 -3 -11t-7 1l-6 -94h-5v-21h5q8 -18 0 -33h-5v-20h5q10 -33 0 -57h-5q0 -35 3.5 -60.5t7.5 -44.5h4q6 -6 6 -26q4 8 7 7t3 -14 q31 0 31 -10q12 4 23.5 5t19.5 5v-10h84q-4 4 2 7t18 3v7q16 0 17 12q0 12 4 24h10q-4 0 -10 4q-6 16 0 33h10v58h-10q-4 4 -4 26q-4 4 -6 7t-7 8q0 4 13 16l4 41h10v94h10v16h-10v31h10q-10 12 8.5 30.5t71.5 6.5v-4h21q12 0 16 4v74q4 0 11 13t20 13q16 0 16 -10h109 q-10 10 10 10q12 0 16 -3t0 -7h138v10q18 8 40 0q-6 -10 11 -10v-43h6q4 -4 4 -24h6q4 -6 4 -23q25 -4 44.5 -6t29.5 2q0 -12 6 -12q8 0 15.5 -3t14.5 -15.5t7 -49.5h4q6 -4 6 -14q27 0 31 -6v-11h47l27 -26v-10h10q8 -6 -10 -27h10v-303q-10 0 -10 -4q-35 -10 -59.5 -14.5 t-45.5 -8.5l-6 -67h-4q0 -20 -13.5 -26.5t-29.5 -10.5q-4 6 -4 10h-47v-4q-6 -6 -23 -6q0 -16 -10 -17q-4 -4 6 -4q4 -10 4 -30q0 -27 -4 -33q-43 0 -71.5 -3t-49.5 -7v-89q-10 0 -10 -6q-35 -10 -41 0q-20 -12 -36.5 -17t-26.5 -9l-7 -62h-10v-16h10v-141h-10v-17h10 q8 -16 0 -31h-10v-32h10q18 -18 -10 -25h10q10 -27 0 -53h-10v-17q16 0 17 -10q23 -4 43 -6t41 2v-10h47q16 10 43 10q29 0 45 4v27h6v26h-14l8 5l6 6v100h-6q-4 2 6 25h-6v43h6l4 145q14 33 43 33q14 -8 10 -17h27v11q41 10 47 6l5 -6t5 -11h6q0 2 7.5 5.5t27 8.5t64.5 13 v47h10q16 27 16 41q16 4 24.5 3t12.5 -13q35 10 41 10v6q6 6 21 6q0 6 12 15v63q10 0 10 4h72q-6 10 12 27q21 0 21 10zM979 92v90h-47v11h-27q6 -10 -10 -11q-23 0 -16 11q-27 0 -31 4v84q-37 0 -43 6q-8 -4 -28.5 -5t-55.5 -1v6q-31 -4 -54.5 -5t-39.5 -1 q-4 -8 -6.5 -12.5t2.5 -8.5q0 -16 -3.5 -23.5t-6.5 -11.5t-5 -7t-2 -11q-43 -23 -67 -14v-11h-47v-100q27 0 30 -6v-10h47q20 0 33 -5q4 -6 4 -57h10q2 -6 1 -10t0 -7t6.5 -7.5t19.5 -12.5l53 -6v-4q14 0 15 10q8 -4 12 -5t4 -5h94v4q0 6 21 6q-18 25 16 25q0 6 -10 16 q4 0 10 6q0 10 3 21.5t13 15.5q0 -4 21 15h68q0 26 16 26z" />
<glyph unicode="@" d="M1350 301v70q-10 0 -11 14h-252q12 -8 -10 -14q-16 0 -10 14h-74v-45t-4 -29h-6v-24q-43 -4 -70.5 -5t-44.5 -1q0 -31 -2 -47.5t-3 -22.5t-3 -6t-2 -2q-12 -8 -26.5 -11.5t-26.5 1.5q10 -10 -10 -11q-6 0 0 11h-62q6 -10 -16 -11q-20 0 -10 11h-43q10 -10 -5 -11 q-6 4 -6 11h-26q10 -10 -15 -11q-10 16 -10 62q-10 0 -13 3t1 7h12v16q-10 0 -13 3t1 8q-20 0 -15 -5q-66 0 -100 11v84q-10 0 -10 14q-31 4 -54.5 5t-39.5 5l-5 9q-4 8 -12 18h-4q-8 20 0 43h4v115q-4 0 -4 4q-4 4 -2 8t6 4v47q-10 4 -4 10q0 4 4 4v23h-4v141h-10 q-4 10 -5 17.5t-5 7.5q0 10 4 10v27h-10q-6 0 -7 6q12 4 20.5 7t12.5 3v27h-10q-6 4 -6 26q-4 0 -4 11q6 33 20 24v107h-10q-10 6 0 24h10v27h-10q-10 10 0 26h10v17h-10q-8 20 0 37h10v235h-10q-10 25 0 58h10v20h-10q-10 14 0 31h10v104h4q0 23 6 27h158q25 8 37 11 t18.5 5t8.5 6t8 15q6 6 12 0v63h21q0 10 10 10t0 -10q20 0 20 10q6 0 6 -10h226q10 10 14 10v-10l64 -6q10 -41 10 -61h10v-23q29 -10 57.5 -7t46.5 -7v-23h7v-135q-12 -12 -20.5 -18.5t-16.5 -1.5h-88v73h-6q-4 0 -5 15q-12 4 -13 5t7 5q-31 0 -30 -4q-4 -4 -12.5 -2 t-20.5 6v-4q-27 0 -27 4q-35 0 -41 -4h-41q-16 0 -26 4q0 -4 -10.5 -6t-10.5 -15q-4 -29 -5 -48t-1 -29h-47l-47 -17v-10h-21q-4 -4 5.5 -9t9.5 -18q-4 -4 -7.5 -6t-7.5 2v-26h-10q4 8 7 3t3 -24q0 -4 -3 -7t-7 1v-31h10v-47q-37 -37 -37 -33q-25 -6 -47 0v7h-32 q6 -6 -4 -11l-7 -63h-10v-17h10q10 -6 0 -24h-10l3 -1q3 -1 7 -5q10 -80 0 -152h-10v-16h17v-314q6 0 6 -2t7 -6t26.5 -11t64.5 -17v-17h6v-78h10v-94h37v-10q51 0 88 -3t58 -7q35 0 60.5 3t43.5 7v10q16 6 33 0v-10h20v10q16 0 17 4q0 25 14 33h-10q-6 25 0 41h10v94h6 q0 16 4 21l94 -4q0 -6 7 -7q4 -8 5 -15t1 -11h10v-47q4 4 11 2t20 -6q4 0 4 -5q0 -2 -4 -6h37q10 10 16 11q8 0 31 -21q6 0 6 -27q4 -6 4 -43h10q0 -10 5 -12t5 -12h27v10q20 4 33 4h24q8 49 0 74h11v242q-4 -4 -7.5 -3t-3.5 13h11v340h-11l3 7q4 7 8 19q-14 0 -11 5 q0 6 11 6v57h-11q-6 23 0 37h11q-4 6 -11 6v182h-4q0 20 4 27v215q-25 0 -30 16l-64 4q-16 10 -31 11v100h-10q-10 25 0 51h10v10h-20q0 -2 -16 -24q-10 6 -11 14q0 6 11 17v20q-29 0 -48.5 1t-35.5 5q-4 10 -5.5 29.5t-1.5 48.5q-27 0 -20 21h-61v-11q-12 -4 -18 -7l-5 -3 q-4 -4 -31 6q-10 6 0 15q-12 4 -16 7t-4 -1q-47 0 -75 -1t-36 -5v-11q-27 -6 -53 0v11h-51v6q-31 0 -31 -6h-158v-11q-14 -6 -36 0v11h-37q12 -8 -11 -15q-18 0 -10 15h-33v-11q-8 -4 -18 -4h-23v-33q10 0 11 -4q0 -12 -10.5 -22t-10.5 -14q-20 -8 -32 -12l-11 -5 q-8 -4 -15 -7t-16 -3q-6 6 -6 10h-34q4 -4 0.5 -7t-13.5 -3l-4 -94q-6 6 -6 16q-20 0 -10 -10q-25 -10 -41 -10l-21 20q-25 6 -32 -20v-60h-11v-20h11v-31h-11v-20h11v-44h-11v-47h11v-120h-11h2q4 0 9 -5v-73h-11v-21h11v-151h6q6 -25 0 -49h-6v-224q4 8 5 4t5 -16 q0 -14 -10 -4v-27q4 4 5 3t5 -13q0 -10 -10 -10v-33h6q6 -6 0 -25h-6v-94h6q6 -37 0 -69h-6v-125q10 16 10 -11q0 -6 -10 -6v-88q4 8 5 4t5 -14q0 -12 -10 -6v-64h6q6 -23 0 -47h-6v-10l43 -41q31 0 46 -1t21 -5t5 -10t-1 -15h13v-32q4 4 7 0t3 -15q14 4 31.5 0t34 -12 t27.5 -18.5t11 -18.5h4q4 -4 5 -14t1 -27h11v-26h73q47 0 48 -37q10 -10 10 -15q0 -4 -3 -8t-7 -8q-6 0 0 -6q4 -4 4 -25l53 -6v-4h41v4q10 10 22 10q10 0 21 -10v-4q41 0 47 -6q29 0 48.5 1t29.5 5v4q10 10 26 10q14 0 31 -10v-4q20 0 34.5 -1t18.5 -5q51 12 81 19t34 7v37 h6l4 41q29 8 52.5 11.5t41.5 -0.5v10q10 4 14.5 8t8.5 8v10q-8 -6 -16 17q0 4 16 4q0 23 10 33q35 10 59.5 18t45.5 8q12 18 16 34.5t4 27.5q27 33 53 16v10q10 0 21.5 3t19.5 8q1 20 11 20zM1231 795h-37v10h-84v16h-10q0 51 -1 89t-5 63h-7v41h13q0 23 -13 10v100h7 q8 39 0 64h-7v14h7q10 25 0 47h-7v17h7v141h-7v31h7q4 10 5 18t1 19q10 -10 10 16h51h21h32q-4 -4 -3 -5t14 -1q4 -18 5 -30.5t1 -20.5v-95q-6 0 -6 -10q0 -6 6 -10v-84q-6 -6 -6 -10q0 -12 6 -13v-225q-8 -18 0 -24v-132h-6q0 -6 6 -10v-26zM1006 999q-16 6 -17 0 q-4 -10 -5 -14t-1 -8t6 -10v-95q-10 0 -6 -4q0 -6 6 -12v-14h-6v-37h-25v-10q-45 0 -71.5 -3.5t-34.5 -7.5q-4 -6 10 -6v-41h-4q-6 -6 -6 -26q-8 0 -8 -4q0 -2 4 -7q-41 0 -63.5 -1t-30.5 -5q-20 8 -28 28l-9 19h10q10 25 0 47q-10 -6 -10 7h10q8 61 0 98q-10 -6 -10 6h10 q8 14 0 37h-10v27h10q8 86 0 172h-10v36h10q8 14 0 37h-10v17h16q0 16 -16 10v57h10q10 23 0 47h-10v41q14 0 18 2t6 5.5t6.5 6.5t20.5 3v-6l53 -5q0 -12 4 -17t13 -9h10v-31h4q0 -23 6 -26q23 -23 41 -17q20 -4 38.5 -5t31.5 -5v-10t4 -11q10 6 10 -6h-10q-6 -18 0 -24h10 q0 -33 1 -52.5t5 -27.5h-6v-121h6q0 -16 8.5 -15.5t8.5 -9.5z" />
<glyph unicode="A" d="M1346 14v371q-8 0 -11.5 3t0.5 7h11v137h-11q-10 14 0 31h11v33q-10 6 -11 14q-6 6 11 6v15h-11q-8 20 0 43h11v26h-11q-10 16 0 41h11v11h-11q-8 20 0 26h11v47q-16 0 -11 6q0 6 11 0l-11 11q-10 6 0 26h11q-8 20 -11 21q-6 4 11 4q0 8 -3.5 11t-7.5 -1v74q-29 0 -45 1 t-28 5v10q-16 0 -27.5 1t-15.5 5q-4 27 -5 74v115q-6 0 -6 4q-6 10 6 10v10q-4 12 -5 54.5t-1 109.5h-67q-27 0 -47 4v11h-11q-4 33 -5 79t-1 105q-4 0 -4 10q-4 4 -2 7t6 3v78q-4 0 -4 6q-25 4 -41 7.5t-26 3.5q-16 0 -17 -11q-4 16 -20.5 24.5t-16.5 12.5q0 10 17 0v27 h-11q-4 23 -5 58.5t-1 86.5q-8 0 -11 3t1 7h-57v13h-54v188q-23 0 -16 10h-49q-23 0 -33 5v6q-45 -8 -73.5 -11.5t-47.5 0.5q-25 -14 -16 -20v-117q4 4 8 3t8 -13q0 -10 -16 -10v-41h-37v-13q-4 0 -23.5 -3t-60.5 -7l-4 -182q-35 -12 -65.5 -17.5t-51.5 -9.5q6 -6 -10 -6 v-24h10v-27h-10v-37h10v-53h-10v-105h10v-26q-16 0 -10 -10q-31 -8 -54.5 -11.5t-39.5 -3.5v-6q-4 0 -10.5 -8t-10.5 -8v-21q10 0 11 -10h-11v-41q10 16 11 -10q0 -18 -11 -12v-48h7q6 -16 0 -41h-7v-124q-4 -4 3.5 -9.5t17.5 -13.5q-8 0 -10 -4t-2 -10q0 -4 -1 -9.5 t-8 -7.5h-114q4 -8 -11 -16v-121q4 4 5.5 0t5.5 -14q-4 -4 -5 -7.5t-6 -3.5v-157h5q6 -6 6 -17q0 -10 -6 -14h-5v-80q4 4 5.5 3t5.5 -13q4 -4 1 -7t-12 -3v-84h5q4 -4 5 -11.5t1 -15.5q0 -20 -6 -24h-5v-64h5q6 -6 6 -16q0 -4 -1 -10.5t-5 -10.5h-5v-16h5q6 -4 6 -15 q0 -4 -1 -11t-5 -11h-5q0 -8 3.5 -24.5t7.5 -36t7 -37t3 -27.5h4q8 -16 0 -31q-14 0 -14 -6v-88q4 4 10 -6t10 -10q84 0 74 4v-4h27q10 0 14 4q20 4 35.5 2t27.5 -6l11 18q12 19 16 19l4 649h10v78h33h84q20 2 53 2h68q35 0 64.5 -1t43.5 -1h80h25q66 0 100 -11q31 0 40 3.5 t-3 7.5q0 16 27 16q16 0 10 -16h31q0 -10 10 -11q27 0 33 7q4 16 22.5 -3.5t18.5 -70.5h10q10 -47 0 -94h-10v-17q10 0 16 -4v-545q8 -8 21.5 -13t35 -8t56 -4t90.5 -1q-4 4 3 7t19 3q-16 16 11 16zM973 1024h-4v-25q-12 -4 -23.5 -7t-19.5 1q0 6 -27 6q-18 -4 -31.5 -8 t-25.5 -8v10h-226v-10h-20v10h-31v-10h-22v10h-62q0 10 -6 6v54t-4 34h-10v58h10l4 184q6 -6 6 21q8 4 15.5 6t15.5 -2v-4q2 6 10 8t17 2q8 0 16 2t10 8q20 43 21 80v176h10v27q16 0 16 10h21q12 0 16 -4q31 -4 54.5 -2t39.5 6q0 -4 5 -10q8 4 9 5t-3 5h51q31 -14 26 -14 v-27h7v-125t4 -63h6v-48q20 0 31.5 -5t19.5 -11t16.5 -11t26.5 -5q0 -10 4 -15h6q0 -20 6 -26h11v-125h4v-80q-4 -4 -4 -10q0 -10 4 -17v-20h-4v-31q4 4 6 3t-2 -9z" />
<glyph unicode="B" d="M1350 129v309q-16 0 -11 11h11v77q-10 0 -12.5 1t1.5 5q6 4 11 5v163h-11q-6 16 0 41h11v84h-11v105q-10 0 -10 10q-4 6 10 6v47h-94q0 10 -20 6v82l-64 6q-2 10 -14 11q-12 0 -25.5 3t-22.5 17.5t-5 52.5h-7q-6 33 0 58q6 0 7 10q49 27 77 27v6h43v24h11q0 20 -3 25.5 t-8 -2.5q-8 6 17 31q27 12 49.5 18t38.5 2v6q6 4 20 4v205q-8 0 -11 3t1 7h10v162h-4q-8 8 4 27q-4 4 -7 5t-3 5q6 6 10 0v80h-4q-12 0 -6 14q-12 0 -13 3t3 7h-74v13h-31q-4 35 -7 54.5t-3 23.5h10q0 6 -6 6q-4 0 -6 3t2 7q-59 4 -88 7l-29 3v84q-8 0 -20 21q-4 -4 -7 -5 l-3 -1q-27 0 -21 6q-43 0 -43 -6q-39 0 -65.5 1t-42.5 5q-29 -4 -48.5 -5t-35.5 -1v6q-43 0 -47 -6q-37 -20 -37 6q-63 0 -68 -6q-27 0 -26 6q-37 0 -43 -6q-23 -6 -31 6q-55 -4 -94 -5t-68 -1v6q-16 0 -16 -6q-29 -8 -37 6q-4 -6 -84 -6v6q-20 0 -34.5 -1t-22.5 -5 q-4 4 -19.5 5t-38.5 1q0 -20 -12 -22.5t-25 -14.5v-121q10 16 11 -10q10 -10 -11 -10v-21h11q10 -113 0 -215h-11l3 -1t8 -5q8 -18 0 -27h-11q0 -4 3 -5t8 -5q8 -100 0 -193h-11v-32q6 0 11 -4v-435h6q6 -20 0 -26h-6v-131h6q6 -16 0 -27h-6v-252q4 4 5 3t5 -13 q0 -10 -10 -10v-21h6q4 -12 7 -22.5t7 -14.5q0 -10 -10 0q-4 -12 -7 -19l-3 -7h6q6 -16 0 -27h-6v-24h6q6 -41 0 -91h-6v-84h6q4 -39 4 -98v-131q4 4 37.5 -6t79.5 -10v-11h14q-4 4 0 7.5t16 3.5v-11h31v11q8 6 33 0v-11h41v11q14 6 30 0v-11q4 0 6.5 3.5t6.5 7.5q41 6 82 0 v-11h22v11q53 6 109 0v-11h16v11q25 6 57 0v-11h27q-4 4 -3 7.5t13 3.5q8 -4 13 -8l4 -3h14v11h141v-11h60v11q66 14 98 4q12 -4 37 -4h67q10 16 54 16l6 35q0 20 22.5 42.5t55.5 10.5v6q20 0 27 5.5t8.5 10.5t0.5 10t5 5zM1120 1579h-10v-178q-8 6 -16 -15q16 0 -11.5 -4 t-99.5 -12q0 -10 -10 -10l-4 -64h-33v-4q-18 0 -46 -2t-57.5 -3t-57 -3t-42.5 -2h-104q-27 0 -6 4q0 -31 -27 -4q-12 4 -45 4h-86q0 -4 -21 -4q-4 4 -13 7t-30 3v4h-51v37q-6 6 -10 6h10v31h-10v21q10 0 10 10q0 23 -10 12v78h10v37h-10v74q16 0 10 10q0 20 -10 10v41h10 q-4 4 -5 7t-5 3v27h10v26h-10v68h10q0 25 3 41t7 29q8 4 11.5 5t-0.5 5h67q16 4 28.5 7t25.5 3v-10q31 4 78.5 7t115.5 3v-10q25 -10 51 0v10h64v-10q115 -8 225 0q-4 4 -1 7t11 3v-10q35 -10 51 -10v-43h7q0 -47 1 -83t5 -59q4 4 6 4q4 0 4 -10h-10q-10 -31 0 -61h10v-27 q4 4 7 1t3 -7zM317 1659h-10v4h10v-4zM1120 664h-10v-74q-16 0 -16 -6q0 -25 16 -15v-90q-16 0 -16 -10q0 -16 16 -10v-219q-10 0 -16 -7q-55 -4 -94 -7t-68 -3q-12 12 -33.5 13.5t-50.5 -7.5q-20 0 -32.5 -1t-20.5 -5v6q-35 4 -58.5 1t-36.5 -7q0 29 -26 6q-16 -4 -27.5 -5 t-19.5 -1v6q-35 4 -58.5 1t-40.5 -7v6q-29 4 -50 1t-34 -7q-29 4 -48 7t-36 3q0 20 -10 21h4q10 16 0 33h-4v14q10 -10 10 10q0 12 -3 13.5t-7 -7.5v37q4 -4 7 -1t3 12q0 12 -3 13t-7 -7v37h4q10 6 0 24h-4v27h10q0 8 -3 11t-7 -1v16h10q0 8 -3 11.5t-7 -0.5v63q4 -4 7 -1 t3 11q0 10 -3 14.5t-7 0.5v362q4 -4 7 -1t3 11q0 12 -3 15.5t-7 -4.5v32h4l6 48q29 10 51.5 15t43.5 9v-10q27 -6 53 0v10h31v-10q23 -6 41 0v10h32v-10h121v10h78q0 -10 4 -14q18 6 6 14h41v-10q12 -4 35 -4h55q-4 -4 -4 -6h10q0 -16 5 -21h6q4 -29 8 -41t9 -16t9 -4 q6 0 11 -2h67q-4 -4 0 -5t14 -6q-6 -16 0 -16h7q0 -57 16 -84q-16 0 -16 -14q0 -20 16 -11v-16h-16q0 -10 16 -10v-137q10 0 10 -4z" />
<glyph unicode="C" d="M1346 240v24h-11v107h11v67h-11v74h11q-20 35 -21 31h-94v-84q-4 0 -6 -3t2 -7q-45 -10 -121 -11q-8 -41 -12 -63.5t-4 -30.5q-57 0 -101 -16q0 -4 -10 -10.5t-10 -10.5v-20h10q8 -23 0 -37h-10v-21q-29 -4 -66 -5t-80 -1q-25 0 -69.5 2t-95 3t-98.5 3t-79 2v7 q-10 0 -20 10v31q-4 4 -7 5t-3 5q0 10 10 10v84h-4q-6 6 -6 37q-29 12 -55.5 17t-49.5 10v40h-10q0 12 3 22.5t7 14.5h-10v47h10v33h-10v37h10v10q-10 -10 -10 0v492q-10 -6 -10 16h10v371q6 6 4 11t0 8t14.5 5.5t42.5 2.5q-4 6 0 10l6 6q16 4 24.5 7t12.5 3v47h11 q-4 12 -1 17.5t7 9.5h4q-4 4 -5 7t-5 7q6 6 10 0v80q12 12 22.5 17.5t20.5 9.5q16 0 23.5 -3t11.5 -8q4 4 17 26t30 22l6 51q12 4 17 8t9 8q4 0 5 -10h69v10q111 6 213 0v-10q10 4 14.5 5t8.5 5v-10q-8 -8 26 -16q4 -8 4 -21v-20h11v-23q4 -4 10 -4h10h33q0 4 10 4 q0 -8 3 -10t9 -2t13.5 -2t15.5 -11v-26h10q6 -6 7 -27q4 -12 5 -44t1 -87q12 6 20 -16q35 0 41 -10q0 20 33 20q14 -33 20 -20q35 10 41 10v6q25 6 33 0v-6h21v6q16 0 19 16.5t7 20.5h4q-12 18 -4 88h4v53h-4q-8 31 0 64h4q0 57 -10 94h-68q-27 0 -47 4v47q-16 0 -10 6 q0 4 10 4q-6 0 -10 6v27q-10 0 -26.5 2t-34 3t-32.5 3t-24 2v15h-10q-6 25 0 59h10h-10v20q-10 4 -15 7l-5 4q-86 0 -137.5 -1t-67.5 -5v6q-51 0 -81 -1t-38 -5q-33 -6 -37 6q-72 0 -114.5 -1t-53.5 -5q0 6 -37 6q-12 0 -17 -10.5t-9 -10.5v-57h10q8 -18 0 -33h-115 q4 -4 -6 -4q-4 -12 -7 -23.5t-7 -19.5q8 18 14 -10h-14v-37q-16 4 -44 -3t-73 -24l-4 -57h-6l2 -4t5 -26.5t3 -74.5h12v-26q-51 -14 -73 -14q-8 4 -17 4h-10q-27 0 -37 -11v-94q6 0 10 -6q0 -4 -10 -4v-74q10 10 10 -10q-6 -10 -10 -10v-95q10 6 10 -10q-6 -10 -10 -10v-483 q10 10 10 -15q-4 -6 -10 -6v-57h10v-43h-10v-94h10v-142h-10h2q4 0 8 -4v-37h-10v-26q10 16 10 -10q10 -10 -10 -11v-16h10v-84l64 -4q0 4 41 -23v-20h6q0 -4 8 -9.5t8 -17.5q0 -10 -12 -10v-41h12v-63h-12v-17h12v-24h31q0 -4 10 -5q10 0 11 -12h67v6l22.5 7.5t14.5 3.5 q6 4 33 -7q0 12 37 7v-17h4v-41h10v-37q-6 0 37 -26h225q0 10 10 10q6 -6 7 -10h94q-4 4 -2 7t6 3q6 -6 6 -10h131q-4 4 0 7t16 3q0 -4 13.5 -10t17.5 -11v11h31q0 16 27 16l6 51h10v27q27 0 37 10v6q18 16 36.5 20.5t30.5 0.5l4 7q3 7 7 19h-11v41q35 16 59.5 23.5 t45.5 3.5q60 27 31 27z" />
<glyph unicode="D" d="M1352 338v20h-11q-6 25 0 50h11v24h-11q-6 111 0 232h11v36q-4 -4 -7.5 -1t-3.5 12q0 10 11 10v84h-11v162h-10v53h10v31h11v30h-11v131h-10v43h10v17h-10v24h10v131h-10v27h10v16h-10v31h10v125q-10 0 -10 12q-10 10 10 11q0 90 -10 135l-51 6v4q-20 0 -34.5 3t-18.5 7 q-8 20 -12.5 37t-4.5 33h-4v24q-12 4 -19 8l-7 5h-90v31q-14 -8 -15 10q0 18 15 10v33q-25 0 -15 10q-57 16 -90 10q-4 4 -12 10.5t-12 10.5v26h-7q-4 8 -5 19.5t-1 27.5q-16 0 -10 11h-14q0 -4 -13 -4q-10 0 -10 -13q-10 -4 -26.5 4.5t-20.5 12.5q-16 0 -35.5 -1t-42.5 -5 h-63h-131q-43 4 -74 5t-51 1q4 -4 1 -5t-12 -6q-6 4 -6 11h-121q4 -4 1 -5t-11 -6q-4 4 -4 11h-110v-11h-84q0 -4 -11 -10v-514q6 0 11 -6q-4 -4 -11 -4v-47q10 0 11 -10h-11v-27q4 12 7.5 9t3.5 -19l-11 -11v-20h6q4 -4 5 -12v-11v-10t-5 -10h-6v-57h6q4 -6 5 -11 q0 -10 -5 -16h-6v-16h6q4 -4 5 -11v-10q0 -10 -5 -14h-6q-6 -6 6 -6q0 -31 -6 -27v-63q10 0 11 -11q-4 -4 -11 -4h6q4 -6 5 -26q0 -20 -5 -27h-6h6q4 -4 5 -27q0 -20 -5 -24h-6v-10h6q4 -6 5 -13q0 -10 -5 -14h-6q-4 -4 3.5 -12.5t7.5 -20.5v-10t-5 -10h-6q4 -29 7.5 -45.5 t3.5 -28.5q6 6 10 0q4 -4 5 -7t5 -3q-4 -4 -14 -4q0 -16 -1 -27.5t-5 -20.5h6v-26h-6v-78q6 0 6 -6t-6 0v-326q4 4 5 3t1 -13q4 -4 -6 -4v-131h6v-27h-6v-90h6v-24h-6v-95q4 4 5 2t1 -12q37 0 47 -16q27 0 37 10q4 -6 4 -10h162q-4 4 0 7t16 3v-10h49q23 0 35 4h20t64 -4h39 t49 4h80h35q20 0 49 -4v-11h31v11q51 4 78 7l26 3q0 4 5 8t5 8q23 0 23 11l4 57h10q-4 4 -3 11t9 16q20 4 35.5 0.5t28.5 -7.5q23 16 41 17q0 20 6 26h4l6 41q4 0 7 8.5t7 8.5q20 4 39 5t31 5v10q16 16 31 17v51h6q4 4 1 5t-7 5q-10 16 0 16h30v-6h23v6q23 4 42.5 8.5 t29.5 12.5zM1122 862h-10l-6 -57h-4q-6 -6 -6 -17q0 -10 6 -14h4v-22h-4q-4 -8 -5 -18.5t-1 -22.5t1 -21.5t5 -21.5h4v-15h-4q-6 -6 -6 -16t6 -16h4v-162q-4 0 -5 -3t-5 -7q-35 0 -59.5 -1.5t-41.5 -5.5q-4 -4 -4 -24h-6v-53q-8 4 -11 -3.5t-3 -17.5q-4 4 -34 -1t-83 -26 v-67q-25 -10 -51 -10v-7h-273q-4 -4 -5 -7l-1 -3q-45 10 -172 10q0 12 -3 13.5t-7 -6.5v41h10v137h-10v41h10v78h-10v22h10v162h-10v31h10v53h-10v37q4 4 7 5t3 5q0 12 -3 13t-7 -3v158q4 -4 6 -4q4 0 4 4q-6 4 -10 4v27h10v26h-10v84h10q0 14 -10 15q-12 0 0 12h10v24h-10 q0 35 -1 60.5t-5 46.5h-4v20h4v115q-4 0 -4 6h4q10 33 0 58h-4v30h4v125h-4v17h4q10 27 0 53q-4 4 -4 6v4h4l6 88q10 4 13 18.5t7 14.5h41v10h64q-6 -10 10 -10q8 4 12.5 7t8.5 7q41 4 76.5 2t70.5 -6v-10q20 -8 43 0v10q25 0 31 4v-4q20 -4 54 5t50 9v-4q20 -4 31.5 -7 t22.5 -3q4 4 41 4q6 -4 10 -4h16q-6 4 4 4q-4 -4 13 -4v-47h10q0 -37 4 -43q12 -8 22.5 -14t14.5 -11h57q-6 -16 21 -16q-4 -20 -3.5 -38.5t9.5 -28.5h-6v-33h6q0 -29 3 -50.5t7 -33.5h-4l-6 -445q6 -6 10 -6v-198q-10 0 -10 -5q4 -12 9 -17t17 -5v-31z" />
<glyph unicode="E" d="M1350 4v199q-14 6 -11 10q-45 0 -51 10q-16 -8 -31.5 -11t-25.5 1q-68 4 -116 7t-79 3q-16 0 -49 -5t-45 -5v10q-43 -4 -74.5 -7t-52.5 -3q4 -4 1 -5t-11 -5q-2 6 -2 8q0 4 -6 7t-20.5 4t-43.5 1q0 -4 -14 -7t-19 -13q-10 8 -17 12t-3 8q-35 0 -61.5 -3t-43.5 -7v10 q-16 -10 -67 -10v10q-12 0 -16.5 -3t0.5 -7q-35 8 -66 11t-49 -1q-16 -8 -17 27h-6q-6 14 0 37h6v20h-6q-4 29 -4 66v92h-10v88q0 55 4 127t7 123t3 86h6v47q20 4 43 6t52 -2q6 6 10 6v-6q27 16 67 6v-6q16 4 27.5 5t20.5 1q8 -4 13 -5t9 -1h131q0 6 4 6l6 -6q20 18 21 6 q4 -4 10 -5t10 -1q35 4 59.5 5t45.5 1q4 -4 10 -5t10 -1q12 4 23.5 5t19.5 1q47 0 75 -1t36 -5q8 4 37.5 5t81.5 1q-4 8 -2 12.5t14 4.5q33 39 25 71h6v17h-6q-4 12 -5 41v79q-27 0 -32 5v12h-31v-12q-43 -6 -84 0v12h-20q10 -10 -7 -17q-23 0 -14 17h-63v-12q-6 -6 -31 0 v12h-23v-12h-125v12h-188v-12q-29 -4 -48.5 -5.5t-29.5 -5.5q-12 0 -36.5 3t-67.5 8q4 6 -6 6t-7 6l-51 4v162q-10 10 -10 63q-10 -6 -10 10q0 10 10 11v106h10q-6 4 -10 4v37h10l-10 10v148h10l-10 10v27h10v14h-10v27h10q0 27 10 37q43 16 64 16l4 -6q23 0 33 -10 q10 4 18 5t17 1q59 0 90.5 -1t40.5 -5q51 23 84 16q4 0 11 -1t11 -5h115q-6 6 4 6q10 -16 16 -16q51 8 78 12l27 4q4 -4 10 -5t10 -1q53 4 91 5t67 1q33 4 72 3t90 -9q-4 6 6 6q-10 25 20 24v27h-4q-4 29 -5 68t-1 90q-23 0 -16 16q-27 4 -49.5 8t-32.5 13 q-55 -12 -80 -16.5t-21 -4.5v-6q4 6 -30 6q4 -6 -6 -10q-6 4 -7 10q-59 8 -98 11.5t-67 3.5v6q-20 -8 -32 -12l-11 -5q-12 -4 -31 6v-6q-33 -6 -33 6q-41 0 -41 -6q-88 0 -94 6q-41 6 -53 -6q-111 0 -192 1t-132 5q0 -10 -27 -10v-6q-6 -4 -16 -4t-12 10t-12 10 q-76 6 -127 -10v-90h-11v-151h11q10 -16 0 -27h-11v-131h11q8 -23 0 -37h-11v-84h11q8 -20 0 -35h-11v-37h11q8 -33 0 -63h-11v-121h11v-94q20 0 10 -10q0 -6 -10 -7v-71h6v-121h-6v-100q10 0 10 -5q0 -10 -10 0v-315q4 4 5 3t5 -13q10 -10 -10 -10v-209h6q4 -20 7 -44 t3 -51q0 -29 -3 -53t-7 -47h-6q-4 -4 4 -7t12 -19q-4 -4 -5 -8.5t-5 -8.5h-6v-57h6q4 -29 6 -50.5t-2 -37.5q2 -6 11 -7t20.5 -2.5t20.5 -4.5t11 -13q23 4 42.5 8t31.5 8v-6q23 4 39 7.5t29 -1.5q23 -4 43 -8t41 -8q20 12 73 6v-6q29 4 47.5 7t30.5 3q-12 -4 7.5 -7t70.5 -3 q8 0 22.5 3t31 6t31.5 6.5t26 0.5q-4 4 0 7.5t16 3.5q12 -12 16 -16.5t4 -0.5q23 4 39.5 7.5t24.5 -1.5q29 -4 48 -8t36 -8q35 8 52 12t22 4q31 0 34 -6q45 4 77 5t54 1q-4 4 -2 7.5t13 3.5q4 0 4 -2q0 -4 -4 -9q20 0 34.5 -1t18.5 -5q33 -4 55.5 -1t38.5 7q1 19 21 27z" />
<glyph unicode="F" d="M1341 1874v162h-10v26h-37v-10q-23 -10 -47 0v10q-10 4 -15 8l-5 3q-27 -10 -84 -11q8 -8 -6 -16q-4 6 -4 16q-59 0 -95 11q6 -10 -10 -11v11h-104q0 -10 -13 -11v11h-114q10 -10 -11 -11q-4 4 -4 11q-29 0 -51 -3.5t-33 -7.5q-20 -4 -43.5 -1t-50.5 12q-47 0 -83 -3.5 t-64 -7.5q-20 0 -21 11q-20 0 -20 -7q0 -6 -17 -10q0 10 -6 17q-16 0 -36.5 -2.5t-42 -3.5t-40 -3t-26.5 -2q4 -8 -10 -16q-18 0 -13 16h-104q4 -4 3 -8t-13 -8v-195q10 10 10 -10q-4 -4 -5 -7t-5 -3v-266q10 6 10 -11q10 -10 -10 -10v-16h10q8 -25 0 -47h-10v-31 q10 16 10 -6q-4 -6 -10 -6v-15h10q12 -18 0 -26h-10v-37h10q8 -23 0 -41h-10v-16l10 -11h-10v-43q10 10 10 -10q4 -4 1 -7t-11 -3v-162q10 -10 10 -63h6q6 -23 0 -37h-6v-88h-10q6 0 10 -7q8 -14 0 -63h-10v-14h10q8 -14 0 -33h-10v-21h10q8 -20 0 -41h-10q-6 -10 10 -10 v-121q10 6 10 -10q4 -4 0 -4q-2 0 -10 4v-100h6q6 -16 0 -31h-6v-27h6q6 -23 0 -36h-6v-58q10 16 10 -10q0 -20 -10 -10v-23q10 10 10 0q0 -4 -3 -6t-7 2v-31h6v-127h-6v-51h6q4 -6 4 -26h12v-17q8 0 31 -16h135v6h33q0 20 20 20v437q-10 0 -10 4q-10 16 10 16v31h-10v289 h10l5 88q6 0 6 6q23 10 42 15t31 5v6q12 4 21 5h20h25q12 0 23 -5v-6h110v6q6 4 27 5h10t10 -5v-6h84q35 23 58 17l6 -6l104 -5v-6h111v6q10 4 45 5h96q4 0 11 16t20 16v162h-10v21q-16 -4 -27.5 -1t-15.5 7v-6q-45 -8 -95 0v6h-491q4 -6 -10 -6q-20 0 -17 6l-145 4 q-20 4 -37 8t-27 8v158h-6q-6 14 0 35h6v241h-6q-6 14 0 31h6v195h10q-4 4 -3 8t14 12q47 4 81.5 7t55.5 3v-4q23 -10 72 0q29 4 44 7.5t19 3.5q41 -4 70.5 -5.5t50.5 -5.5q20 -20 47 4q8 -4 35 -4h70q8 12 31.5 13.5t58.5 -2.5q0 -4 13 -5.5t17 -5.5q43 -4 72 -2t49 6v-4 q8 4 45 4h107q-1 23 30 23z" />
<glyph unicode="G" d="M1350 76v137q-4 -4 -7.5 -1t-3.5 11q6 6 11 6v72h-11q-6 49 0 94h11q0 23 -11 23q0 8 3.5 11t7.5 -1v14h-11v117h11l-11 10q-6 6 0 27h11v14h-11q-6 14 0 37h11v10h-11q-6 27 0 43h11q-4 10 -7.5 30t-3.5 48q-14 0 -10 6q0 4 2 4q4 0 8 -4v41q-10 0 -10 11q-6 10 10 10 v188q-51 0 -127.5 4t-175.5 9q-27 0 -26 -7q-12 0 -27.5 1t-36.5 6h-61q-25 0 -61 -4.5t-87 -8.5q6 -4 -4 -4v-147q4 0 6 -3t-2 -8q0 -4 -4 -4v-22h4q8 0 0 -15q-4 -6 27 -16q-12 4 -7 5t34 1l4 -6q74 0 79 -6v-4h136q-4 4 -2 5t12 5q8 -4 12 -7l4 -3l51 -6q4 -8 8.5 -23.5 t4.5 -44.5l4 4q2 0 6 -8q6 -10 -10 -16v-179q4 8 5 4t5 -14q0 -10 -10 -10q0 -29 -1 -48.5t-5 -31.5q-59 -4 -87 -7t-24 -3v6q-31 -4 -51.5 -7t-32.5 -3v-10q12 0 -31 -17l-6 -37h-10v-20h10q10 -16 0 -33h-10v-10h10q8 -20 0 -41h-10v-27h-14v-10q-23 -8 -37 0v10q4 0 1 -3 t-11 -7h-269v10q-4 0 -4 -10q-25 -10 -47 0v63h-6v25q-35 8 -59.5 12t-40.5 4q0 -4 -15 11q-8 8 0 20h-10q-12 18 0 27h10q-16 16 -16 80h-4v24q14 0 20 6v162h-10q-8 20 0 43h10v72q-16 -6 -16 16h16v37q-16 -10 -16 16q8 14 16 11v20h-10q-4 16 -5 43t-1 62h-4v26 q4 0 4 11q0 10 16 10q-4 72 -7 123t-3 88h10q-6 4 -10 4v141h10q-6 6 -10 6q-8 20 0 37h10v14h-10q-8 100 0 199h10q-4 4 3 15.5t12 11.5q6 -4 6 -11q12 0 37.5 5.5t29.5 5.5q0 23 27 16v158q59 33 94 24v-4h31q12 8 20 11.5t17 -0.5l6 -7h35q14 0 18 -4q-6 4 72 4q0 6 6 7 q20 0 20 -7h111t63 -4q82 -10 109 4q0 -4 8 -10t12 -10v-74h7q4 -35 5 -82t1 -110q4 4 10 -6.5t10 -10.5q16 -4 28.5 -7t22.5 -3q8 0 13.5 3t9.5 7v-10h61q43 16 58 16q0 4 8 9.5t18 15.5v53q-10 0 -10 6q-6 14 10 15v110q-14 0 -10 6q0 10 10 0q0 35 -3 58.5t-7 40.5 q-12 0 -16 3t0 7h-58q0 -10 -10 -10v10q-20 0 -28.5 6t-8.5 27h-4v35q-27 10 -26 16q-29 0 -51.5 3t-39.5 7q-14 31 -14 90q-53 0 -63 11q-6 -10 -64 -11v11q-66 0 -107.5 -3.5t-58.5 -7.5v11q-31 0 -46 -2.5t-22 -4.5t-10.5 -5t-11.5 -5q-4 6 -4 17q-59 0 -99 -3.5 t-69 -7.5v11q-35 0 -41 -16.5t-6 -20.5h-6q-4 -4 -1 -5t7 -6q6 -16 0 -30h-6v-33q-12 0 -13 1t3 5h-189q-6 -6 -30 -6q0 -23 -17 -16v-15q8 8 17 -10q0 -20 -17 -10v-27q-6 4 -16 -6q-4 -4 -10 0q-4 -8 -5.5 -12t-5.5 -8h-73l6 -7q6 -6 0 -24h-6v-58t-5 -26h-6v-10h6 q6 -16 0 -33h-6v-41q4 4 5 2l6 -12q0 -10 -11 -11v-12h6q6 -16 0 -31h-6v-120h6q6 -23 0 -48h-6v-14h6q6 -49 0 -94h-6q0 4 3 0t8 -16q0 -20 -11 -11v-63q6 0 11 -4q-4 -6 -11 0v-64h6q4 -12 5 -18q0 -4 -5 -8h-6v-68h6q6 -53 0 -100h-6l11 -11v-477q6 0 6 -4q0 -6 -6 -6 v-145h6q6 -23 0 -37h-6v-23q4 10 10 6t10 -20q0 -18 -14 -10v-27q6 6 14 0q4 -4 5 -7l1 -3h27q10 0 14 4q12 4 21.5 0t21.5 -14v-37h10q6 -6 7 -33l20 -21h31q0 -16 10 -16q35 0 61.5 1t42.5 5q16 -4 28.5 -5t25.5 -5v-6q25 0 30 -15v-43q4 4 11.5 -8t11.5 -12h31v-6h135 q-4 4 -2 5t14 1q10 0 12 -1t-2 -5h41v6q33 4 55.5 5t38.5 5q0 23 21 17v47q23 6 22 14q18 4 37 8t35 4q4 0 12.5 15.5t24.5 15.5v37q6 0 6 10q0 -6 31 10q23 8 37 0q16 0 16 7q4 -6 14 -7v-20h7q6 -6 6 -16h4q4 -12 5 -47t1 -95q8 0 31 -16h67v6q53 0 47 6q4 4 7.5 2 t3.5 -14q14 10 22 10h15q6 0 8 3t2 20h26v14h-10v33q17 0 21 4z" />
<glyph unicode="H" d="M1356 45v115q-8 4 -11.5 5t1.5 5q4 6 10 6v31h-6q-6 41 0 84h6v10q-6 0 -10 6v262q-10 6 -11 15q4 6 11 0v356q-10 0 -11 12q-4 4 -1 7.5t12 3.5v30q-10 0 -11 11h11v30q-10 0 -11 13q-10 6 11 14v115h-7q-6 23 0 36h7v17h-7q-4 12 -4 16q0 6 4 10h7v27h-7q-6 18 0 25h7 q-6 6 -7 12q-6 18 0 41h7v26h-7q-6 100 0 205h7v15q-6 -4 -11 0v403q-10 0 -10 53q-12 4 -17 8l-5 3q-35 -4 -65 -7.5t-50 -3.5q8 -8 -6 -16q-4 6 -4 16h-74q4 -4 3 -8t-13 -8v-111h10v-88q10 6 10 -16q0 -4 -10 -4v-37h-10q6 -6 10 -6q10 -90 0 -178h-10v-27h10 q8 -14 0 -35h-10v-16h10q4 -12 -5 -26.5t-5 -26.5h10q10 -18 0 -25h-10v-53q10 16 10 -11h-10v-83h10v-48h10q4 -4 4 -10q0 -4 -4 -16q-14 0 -20 -4v-64h-31q0 -4 -14 -4t-19 -12q-18 -6 -31 6q-29 4 -48 1t-29 -7v6q-41 0 -64.5 -1t-36.5 -5q-29 -18 -37 6q-35 4 -64.5 1 t-49.5 -7v6q-16 0 -17 -6q-27 0 -26 6q-37 0 -41 -6q-20 0 -21 6q-12 4 -28.5 1t-40.5 -7q-41 -6 -68 0q-29 4 -50.5 8t-37.5 8v135q-6 6 -6 11q6 6 6 0v184q-4 8 -5 35.5t-1 79.5h-10v73h10v37h-10v27h10v74q-10 0 -10 10q-6 4 10 4v115h-10v90h10q-4 6 -10 6v20h-37 q-12 4 -50 7.5t-102 3.5q-12 -12 -22.5 -17.5t-20.5 -9.5v-64h6q10 -39 0 -88h-6v-67q12 8 12 -6q0 -4 -4 -6.5t-8 2.5v-33q4 8 8 5t4 -20q0 -4 -4 -7t-8 1v-131h6q10 -10 0 -26h-6v-27h6q8 -14 0 -35h-6q14 -20 6 -69h-6q0 -14 12 -15q-6 -6 -12 -6q0 -31 4 -54.5t8 -39.5 q4 8 7.5 7t3.5 -13q6 -20 -23 -21v-131h12v-303q10 10 11 -10l-11 -10v-37q10 10 11 -11q6 -16 -11 -16v-88q10 10 11 -12q0 -4 -11 -4v-330h11q6 -23 0 -43h-11v-109h11q0 -12 -3 -17t-8 -9h11q6 -33 0 -58h-11q4 -4 7.5 -22.5t3.5 -46.5q4 4 7 3t3 -13q0 -10 -10 -11v-30 q10 -12 21 -20.5t20 -12.5h63q0 6 10 6q6 0 7 -6h47v6q16 4 26 5t15 5q0 23 16 17v26q0 12 4 21h10v88q-10 0 -14 6v350q-6 6 -6 16h6l4 351h10q-2 2 0 9t11.5 14t29 11.5t49.5 -2.5v-6h17q0 10 10 11q0 -4 4 -11h47v6q12 4 20.5 5.5t12.5 5.5l4 -6l158 -5v-6h121v6 q4 4 10 5h10q10 0 16 -5v-6h31q-10 10 10 11v-11h43v6q4 4 11 5h10h10t10 -5v-6q8 0 12.5 3t8.5 8l10 -11h23v6q20 14 30 0q4 -4 7.5 -22.5t3.5 -46.5h10v-262h10q8 -37 0 -72h-10v-10h10v-121h-10v-27q10 16 10 -6q4 -4 1 -7t-11 -3v-162h10v-168q6 6 33 -10q4 0 0 -6h104 v6q45 10 62 10q0 4 6 10l6 7q6 6 21 0q0 10 3 17t7 3z" />
<glyph unicode="I" d="M1104 25v172h-10q-6 6 -7 16h-145v10q-29 4 -51.5 5t-38.5 5q-4 16 -4 43v72h-10v27h10v137q-16 0 -10 4q0 12 10 6v47q-10 0 -10 4q6 10 10 11v53h-10v37h10v10h-10v141q-10 -6 -11 11q0 6 11 6v94h10v94h-10v94h-7q-6 16 0 27h7v14h-7q-6 16 0 33h7v586h10q4 6 4 10 q-6 10 -14 10q23 41 30 47q49 20 74 -4q10 4 111 4q8 12 20 7q-4 4 0 9t14 17v62h-4q-4 10 -5 37.5t-1 78.5q-18 0 -24 11q0 -10 -13 -11q-4 4 -4 11q-41 0 -68.5 -3.5t-45.5 -7.5v11q-170 0 -295 -3.5t-209 -7.5q-8 4 -12.5 5t-8.5 6q-16 -2 -23 -6.5t-11.5 -7.5t-7.5 -7 t-11 -6v-21h6q4 -6 4 -16t-4 -14h-6q0 -23 10 -23q0 -4 -10 -4v-90q4 4 10 0t11 -20h43q10 0 10 -11q6 4 63 4v-4q8 -4 12.5 -2t8.5 6l6 -4q18 -4 36.5 -2t30.5 6q14 -37 11 -57h10v-229q4 4 8 2t8 -13q-8 -8 -16 0v-69h10q8 -16 0 -31h-10q4 -4 7 -21.5t3 -46.5h-10v-83h10 q8 -16 0 -31h-10q6 0 10 -6q8 -23 0 -41h-10v-74h10q10 -10 0 -27h-10v-57h10q-4 -12 3 -16t7 -17q-4 0 -6 -7t-14 -7v-16h10q12 -8 0 -27h-10v-14h10q8 -23 0 -37h-10v-70h10q10 -23 0 -47h-10v-57q14 0 20 -11q8 -23 0 -36h-4l-6 -95h-10q6 6 16 -14l-6 -363 q-20 -4 -35.5 -7t-27.5 -3v-10h-156q-16 0 -22 -6v-189q12 0 12 -10q23 -4 42 -7t30 -3v-6h147q0 6 10 6q6 0 6 -6h58q0 6 10 6q6 0 0 -6h31q0 12 10 12h27q12 -4 20 -5t12 -1v-6q14 0 15 6q6 0 6 -6h14q-4 6 12 6q10 0 12.5 -1t-1.5 -5h131v6q35 4 62.5 7t45.5 3 q0 23 27 17z" />
<glyph unicode="J" d="M1282 412v90h-10q-8 16 10 35h-10q-10 27 0 53h10l-10 10q-4 4 -4 8q0 6 4 19h10h-4q-2 0 -6 4v446q-10 -10 -10 10q4 4 7 5l3 2v387h-6q-8 8 0 26h6v78h-6q-4 6 -4 17h-11v30h11q0 6 -11 6q-6 0 0 4q0 12 11 7v18t4 19h6v20h-6q-6 47 0 94h6l-6 4q-6 20 0 27h6l-6 6 q-6 39 0 78h6q0 12 -1 13t-5 -3q-4 6 -4 27h-11v37h-6q-6 16 0 26h17v37h-52q-20 0 -32 4v10h-31v-10q-23 -6 -43 0v10q-12 0 -33.5 -7t-34.5 -7l-10 -117v-47q4 8 4 6v-10q4 -4 2 -7t-6 -3v-43q6 -23 0 -37v-20q6 -23 0 -41v-60q6 -72 0 -151v-15q6 -25 0 -47v-33q4 8 4 7 v-11q0 -6 -4 -6v-16q4 -10 4 -115q10 16 10 -4q-4 -6 -10 -6v-283h10v-20h13q6 -23 0 -43h-13v-74h-10v-31h10q8 -16 0 -30h-10v-283q10 6 10 -10q-4 -6 -10 -6v-27l10 -10q0 -6 -10 0q0 -31 -4 -37h-16v-10q-66 -16 -95 -17v-104h-10q-6 -4 10 -4q10 -25 0 -47 q-16 -10 -20 -17h-74q4 -4 1 -5t-11 -5q-6 4 -6 10l-27 -12l-10 -4q-8 4 -34.5 5t-69.5 1q0 -4 -11 -10q-4 4 -4 10q-6 -6 -59 -6v6q-51 -4 -89 -8t-63 -8q-16 10 -30 10v47h-11q-10 16 0 33h11v14h-11q-12 18 0 27h11q-8 20 -11.5 38.5t0.5 28.5q-8 4 -11 6t1 7 q-12 -4 -23.5 -8.5t-19.5 -4.5v13q-31 0 -31 -7l-11 3q-11 4 -32 8h-82q4 -4 -12 -4v-54h-10v-84h10q8 -16 0 -30h-10v-23h10q0 -12 4 -16t14.5 -6t29 -6.5t46.5 -18.5q10 -16 13.5 -30.5t3.5 -26.5q6 0 6 -11q29 0 50.5 -3t33.5 -13q0 -6 14 0q2 -2 4 -2q4 0 6 -6 t4.5 -20.5t2.5 -43.5h10q6 -6 6 -16q-33 0 47 -10.5t266 -10.5v-6q10 0 11 6h104q12 8 26.5 12.5t26.5 8.5v27h10v51q29 0 48.5 3t35.5 7q8 0 17.5 22.5t13.5 30.5h10q0 27 13 27q18 12 40.5 19.5t41.5 7.5v4q10 0 14 3t8 7l4 151h6v27h31q12 -4 21 -4h12q0 4 6 12t35 8 q4 4 5 7.5t5 3.5z" />
<glyph unicode="K" d="M1339 76v22q-29 0 -20 15q-31 4 -54.5 7t-39.5 3q-8 20 -11.5 35.5t0.5 27.5q-10 0 -20 11q4 8 5 15t5 11v78h-53v6q-25 6 -38 9t-19.5 10.5t-8.5 23t-2 45.5q-6 0 -6 13q-4 4 6 4q4 35 1 59.5t-7 40.5q-25 0 -14 10h-64q-12 4 -22 7t-19 8v168q-33 33 -32 26h-27v-10 q-20 -8 -37 0q0 12 -5 14t-5 23h-4q-12 8 0 26h4v11h-4q0 16 -8.5 21t-8.5 9q0 10 11 11v20q-10 0 -11 12q-4 4 -0.5 7.5t11.5 3.5q0 25 6 24h4l-4 6q-8 23 0 37h4v64h-4q-6 4 -6 24q-68 18 -105 13v14h-10q-10 31 0 37q20 12 74 6q-4 10 3 13t7 7q41 0 31 4l6 48h4 q0 84 -4 79h4v31h-4q-10 41 0 84h4q0 27 6 31q51 16 47 22v4h37v11q0 8 4 12l6 172q12 0 43 12.5t52 7.5q0 12 16 7q8 59 11 99t3 69q2 0 3 5t6.5 10t15.5 8t33 -3v10q6 4 32 4q0 12 21 13v202q-37 0 -37 11q-20 0 -21 -11q-31 0 -30 11q-106 0 -131 -11q-8 -23 -11.5 -42 t0.5 -35h-6q-4 -4 -1 -5.5t7 -5.5q6 -49 0 -94q-12 0 -6 -6q-37 -20 -37 6q-4 0 -13 -5t-13 -5v-10h-31q0 -23 4 -27h-4v-10q4 0 6 -3t-2 -7l-4 -7l-6 -131q-10 4 -15.5 3t-5.5 -13q-31 -4 -54 -8t-34 -8q0 -4 -4 -5t-12 -6v-36h10q-4 -23 -7 -59t-3 -87h-37q-12 -4 -20 -5 t-17 -1v-4q-4 -4 -14 -5t-23 -1v-74h7q6 -25 0 -47h-7l-4 -63q-12 -8 -23 -14.5t-20 -10.5v10q-59 -16 -84 -16l-4 -64q-12 -6 -26 -14v-10q-43 -10 -84 0q0 20 -11 10v172h-10q-4 29 -5 69t-1 93q-4 6 -4 16q0 6 4 6v545q-16 8 -28.5 14.5t-22.5 10.5q-59 0 -84 -11v11 q-29 -4 -50.5 -5t-33.5 -6q8 -8 -6 -14q0 -33 -4 -37h-6v-26h6q4 -6 4 -17q0 -14 -4 -20h-6v-74q4 4 5 0t5 -14h-10v-127q10 16 10 -15q-4 -6 -10 -6v-47h6q4 -4 4 -10v-10v-13q0 -6 -4 -10h-6v-47q10 20 10 -14q-4 -6 -10 -6v-27h6q4 -4 4 -21q0 -20 -4 -26h-6v-58h6 q4 -4 4 -10v-10q0 -20 -4 -27h-6v-10h10v-481q4 0 7 -3t-1 -7h-6v-138q6 6 6 -10q6 -16 -6 -16v-35h6q6 -33 0 -64h-6v-36q6 4 6 -7q4 -4 1 -7t-7 -3v-26h6q6 -14 0 -35h-6v-74q6 4 6 -16h-6v-74h6q6 -16 0 -31h-6v-125h6v-106q16 10 16 -15q0 -6 -16 -6v-30h10 q4 -12 8 -17.5t9 -9.5q29 -12 51 -16.5t43 -4.5q29 8 47 12.5t31 8.5q4 -4 5 -7l1 -3q20 6 30 16v297q-16 -6 -16 6q0 16 16 17v20h-10q-10 14 0 31h10v74h-10q-8 23 0 36h10v17q-16 -10 -16 10q0 10 16 10v209q-16 -6 -16 10q0 6 16 7q0 10 -10 10q-12 8 0 26h10v88h11v27 q12 4 22 4h21q6 10 30 -4q4 -6 0 -10q20 0 31 -10v-27h6q4 -6 4 -31q10 6 11 -12q51 -14 90 -14q6 14 16 -11v-26h10q4 -8 4 -21v-26q12 -4 31 -9.5t23 -17.5q16 12 24 16.5t13 4.5q0 -16 10 -11q4 -4 7 -21.5t3 -45.5h10q4 -8 5 -19.5t1 -27.5q4 4 5.5 3t5.5 -10 q0 -10 -11 -10v-26h5q6 0 6 -25q10 10 20 -16q29 0 48.5 -3.5t35.5 -7.5v-47q4 8 4 6v-12q4 -4 2 -7t-6 -3v-41h4v-80q12 0 38 -10t42 -10v-5q16 0 18.5 -9t2.5 -44h6v-110q18 0 24 -11v-16h33q-6 6 4 6q6 0 6 -6l51 -4v-43h13v-14h4q4 -4 11 -20.5t15 -16.5h23q10 0 18 4 q0 -4 11 -4q12 0 12 -11q10 4 14 5h11q-4 -4 53 -5q4 4 8 7.5t12 3.5q12 0 17.5 3t9.5 7q8 23 11 42t-1 36h10z" />
<glyph unicode="L" d="M1348 8v199q-131 0 -226.5 1t-160.5 5q4 -6 -13 -6l-4 6q-51 0 -68.5 -1t-5.5 -5v6q-16 6 -16 -6v6h-84q-53 0 -145 4h-226q-6 6 -57 6v23q0 10 4 14h10v41h-10q-6 16 0 33h10h-10q-6 78 0 155h10q-4 0 -10 7q-6 23 0 41h10v16h-14v928v63v72q-8 84 0 168q-4 20 -5 71.5 t-1 143.5q-12 0 -13 1t3 5h-148q0 -6 -10 -6v6q-16 6 -31 0q-12 -4 -19 -5t-12 -1v-471h11v-127h-11v-152h11q6 -18 0 -41h-11v-63h11q6 -55 0 -111h-11q4 -4 11 -4q6 -47 0 -94h-11v-47h11q6 -14 0 -33h-11v-20h11q6 -20 0 -41h-11v-21h11q-2 -8 1 -22.5t7 -30.5t6 -31.5 t-4 -25.5h-10v-101h-11v-10h11q6 -57 0 -104h-11q-6 -6 11 -7q6 -25 0 -51h-11q-4 -4 -0.5 -7t11.5 1q6 -20 0 -41h-11q-6 -6 11 -6v-199h10q6 -16 -10 -26q4 4 7 3t3 -14h-10v-51h10v-37q0 -4 18.5 -7t22.5 -19h94q12 12 21.5 16t21.5 4v-10q29 -4 48.5 -5t35.5 -5 q0 10 10 10v-10h74q4 4 5 7t5 3v-10h52v-6h32v6h37v-6q4 0 4 6h90v-6h31v6q12 4 22.5 7t14.5 3q29 4 57.5 1t63.5 -11v-6h31q-8 8 0 16q33 0 51 -3t22 -7q31 4 54.5 5t33.5 5q33 0 33 -10h193q12 12 21.5 16t21.5 4z" />
<glyph unicode="M" d="M1350 145q0 10 -4 11q-8 14 0 37h4l-6 1q-5 1 -5 29h-4q0 20 4 21l7 309h4q-4 35 -6.5 57.5t2.5 32.5h4l-4 3q-3 3 -7 11v471q-4 6 -4 74h4v117h-4v108h-10q-10 27 0 54h10v47h4q-4 4 -4 67h4v64q-4 0 -4 10q-6 4 4 4v27h-4q-10 14 0 37h4v20q-4 0 -4 12q0 4 4 5l-4 6 q-10 23 0 61h4q0 10 -4 6v105h-10q-4 12 -4 16q0 6 4 10h10v21q-23 0 -16 6q-27 0 -37 10q0 -10 -10 -10q-6 4 -6 10q-10 0 -11 -10q-98 0 -155 10q-25 -8 -41.5 -12t-28.5 -4l-4 6q-16 0 -27.5 -1t-19.5 -5l-6 -105h-10v-20q8 6 16 -6q0 -4 -16 -4v-37h10q8 -49 0 -94h-10 v-64q4 4 8 2t8 -12q0 -10 -16 -10v-33q-29 -10 -35 -10t-23 -4q-6 4 -6 10q-16 2 -22.5 -1t-10.5 -7.5t-7 -8.5t-11 -4v-168q-43 -16 -115 -16q18 4 -12.5 5t-108.5 1q0 8 -16 14v117q-25 35 -16 62q-47 0 -75 3t-40 7v33h-4q-10 6 0 24h4q0 12 -5 17.5t-5 25.5h-6 q-4 4 -5 10v11v10t5 10h6l6 53h4v54h-4q-4 23 -5 57.5t-1 77.5q-8 -6 -17 16q-10 -4 -17 -7l-7 -3h-295q0 -6 -21 -6v-172q10 6 11 -10q0 -12 -11 -13v-131q4 10 7.5 6t3.5 -16q0 -4 -11 -4v-17q10 10 11 -10q0 -16 -11 -16q0 -8 3 -12.5t8 -8.5q-4 -4 -11 -4v-26h11 q8 -14 0 -33h-11v-461q10 10 11 -4q0 -16 -11 -16v-64q10 0 11 -10q-4 -4 -11 -4v-47q10 6 11 -17h-11v-26h11q10 -27 0 -52h-11q0 -8 3 -13t8 -9q-4 -4 -11 -4v-37q10 10 11 -10q-4 -6 -11 -6v-62h11q10 -25 0 -47h-11v-90h11q10 -57 0 -104h-11v-11h11v-178q16 0 10 -6 q0 -4 -10 -4v-236q-2 -2 8 -6t24.5 -9t28.5 -8t23 -3v-6q20 0 20 6l6 -6q20 12 74 6v-6q4 0 24.5 13t32.5 13v189q-10 0 -10 10q0 4 10 10v33q-10 0 -10 10q0 4 3 5t7 5v582q-10 0 -10 10q-10 10 10 10v37h-6q-6 20 0 43h6q0 14 -10 15q-10 10 10 10v127h-6q-6 14 0 31h6v20 h-6q-6 20 0 43h6q-6 0 -6 4q-6 41 0 90h6q0 14 -10 15q4 6 10 0v45q0 18 4 28q16 0 17 6q6 0 6 -6l61 -4v-6q4 4 9.5 1t17.5 -11q0 -29 8 -74t8 -74q4 4 7.5 3t3.5 -13q2 0 10 -3t19 -7t23.5 -7t20.5 -3v-6q8 2 14.5 3t10.5 -6.5t5 -25t1 -49.5h6q4 -12 4 -35v-49h6 q4 -8 4 -31v-57q6 0 33 -27h15q0 -6 6 -10q12 4 22 5t19 5v-10q72 16 104 10v10q4 0 12.5 8.5t20.5 8.5v37h-10q4 8 5 14t5 10v174h10q-4 4 -3 10.5t13 10.5q6 6 41 6q18 31 43 14q0 20 21 27v78q-10 0 -10 12q-10 10 10 10q0 25 6 31q29 16 48.5 23.5t39.5 2.5q0 -4 10 -8 t10 -8q4 -12 5.5 -39.5t1.5 -81.5h6v-125h-6v-43q6 0 6 -4v-440h10q6 -10 0 -31h-10v-117h10v-124h-10v-172h10q6 -35 0 -60h-10v-67h10q6 -6 0 -27h-10v-14h10q4 -12 12 -14.5t25 -22.5h67q10 10 17 10v-10q35 4 59.5 10t44.5 10q0 6 4 6l7 131h4z" />
<glyph unicode="N" d="M1352 8v363h-11v47q-4 -4 -8 -4q-2 0 -2 8q0 16 10 16v51h11v175h-11v41h11q0 16 -11 16q6 6 11 0v188h-11v84h11v135h-11v48h11v26h-11v37h11q-4 6 -11 6v31h11l-3 1t-8 5v723q-14 0 -36.5 2t-47 3t-49 3t-39.5 2q-27 0 -53 -16l-4 -64h-10v-20q14 8 14 -17 q-6 -16 -14 -4v-20q6 16 14 -10q0 -6 -14 -6v-17h10q6 -39 0 -88h-10v-188q14 6 14 -11q0 -8 -14 0v-36h10q6 -41 0 -80h-10v-41q14 6 14 -11h-14q-6 -6 10 -6v-114h-10v-27h10q6 -55 0 -111h-10q0 -4 10 -4q6 -41 0 -77h-10v-60h10q6 -18 0 -41h-10v-10h10q6 -43 0 -84h-10 v-53h10v-109h-10v-53q-10 4 -24.5 1t-35.5 -7q-37 -6 -57 6v16h-10v115q-14 0 -14 6q6 6 14 0v47q-43 4 -74 7t-51 3v52q-10 0 -10 6q-4 4 -1 7t11 3q0 10 -10 10v31h10v80h-14l4 4q-41 4 -69 5t-48 5q-4 12 -4 31v49h-6v31h6v151q-4 0 -10.5 11.5t-10.5 11.5 q-12 -12 -27.5 -14t-35.5 2q-20 16 -31.5 18t-11.5 18h-4q-4 4 -4 9q0 6 4 18h4v80h-4v119h4v22q-10 10 -10 15q-33 0 -55.5 2t-36 10t-18.5 25.5t-5 46.5h-4q-8 23 0 36h4v68q-12 0 -13 3t3 7q-47 18 -74 13v4q-12 0 -22.5 1t-18.5 5v119h-10v43h-6q-10 10 -7 16h-71v10 q-12 -4 -20 -7l-7 -3h-110q0 -6 -11 -6v-273h11q12 -8 0 -26h-11v-78h11q8 -14 0 -37h-11v-67q10 16 11 -7q-4 -4 -11 -4q-4 -12 3.5 -11t7.5 -15h32q0 -12 3.5 -17.5t7.5 -9.5q-6 -2 -7.5 -4t-4.5 -5t-9 -5t-22 -2v-62h-11q0 -6 11 -6q10 -127 0 -246h-11v-16h11 q8 -76 0 -162h-11l3 -1t8 -5q10 -23 0 -47h-11q-4 -10 3.5 -9t7.5 -12q0 -16 -11 -16v-57q10 10 11 0v-791q43 -16 43 -20h118q29 12 48.5 18t31.5 2v94q-16 0 -10 7q0 4 10 4v389h-10v24h10v54h-10v51h10v676q-10 0 -10 12q-4 4 -1 7t11 3q0 20 4 25h6v26l101 -4v-6 q-4 -4 0 -7t14 -3q8 -14 0 -37h-10v-31h10q10 -33 0 -63h-10q0 -61 16 -94h4q10 0 11 -27q29 -4 51 -7t39 -3q4 -23 7 -39.5t3 -28.5h6v-104q18 -12 30.5 -17.5t20.5 -9.5q20 0 35 -3t23 -7v-17h6q4 -10 4 -36h12q6 -20 0 -41h-12q-4 -4 -2 -7.5t14 -3.5v-153 q4 0 10.5 -12.5t10.5 -12.5h26q8 -4 14.5 -5t10.5 -1v-10h33v-10q4 0 12 -10.5t8 -43.5h10v-30h-10v-78q4 4 10.5 -1t10.5 -22q4 4 11 2t15 -6q4 4 17 4q39 0 51 -20v-41h10v-127q4 4 9 -5t18 -9q29 -4 50 -5.5t34 -5.5l1 -4q1 -4 5 -8q6 -8 0 -14h10q4 -12 4 -33v-47h6 q6 -18 0 -25h-6v-16h6v-27q8 4 28.5 -8t49.5 -12v-6h57v6h74q1 20 21 20z" />
<glyph unicode="O" d="M1352 217v158h-11q-6 25 0 57h11v541h-11q4 8 5.5 15t5.5 11v330q-4 -4 -7.5 -3t-3.5 13q0 4 3.5 6.5t7.5 -2.5v117q-4 -4 -7.5 -3t-3.5 13q0 8 2 9q4 0 9 -4q4 29 -5.5 55t-5.5 55h11v74h-11v145q-8 4 -11 6t1 7q-59 16 -84 10q0 6 -4 7t-8 3t-7 4t-1 10q-10 0 -10 54 q-31 0 -21 16q-41 8 -63.5 10t-31.5 7.5t-10 18.5t-1 48q-51 10 -89 17.5t-63 2.5q-35 0 -59.5 -1t-44.5 -5v6q-20 0 -21 -4q0 -2 -16 -6v10q-72 0 -121 -1t-78 -5q-31 -4 -57.5 -3t-46.5 9q-8 -4 -28 -5t-50 -1q0 12 -33 6q-27 -16 -31 -16v-78q-6 -6 -10 -6 q-12 -4 -22.5 -3t-14.5 9q-25 0 -41 -3t-26 -7q0 -23 -7 -27h-6l-4 -63h-26v-4q-4 0 -19.5 -3t-44.5 -7q0 -4 -10 -8.5t-10 -8.5v-104h-11q-6 -6 11 -6q8 -16 0 -31h-11v-84q10 6 11 -10q0 -4 -11 -11v-26q6 4 11 0v-1147h6q4 -29 4 -66v-86q43 -12 69.5 -22t30.5 -14 q12 -20 16.5 -39t0.5 -31q39 -16 60 -20.5t34.5 -7.5t20.5 -9t20 -25v-36q10 16 10 -7q20 0 55 -10t56 -10v-6h16v6h35v-6h26v6h43v-6h105v16q4 6 51 6q12 -4 20.5 -5t16.5 -1q0 -4 8 -4t8 -12h64q4 6 14 6v-6h70q4 6 14 6v-6h57v6h33q0 14 37 20v54q16 20 30.5 25t31.5 1 v11q4 0 20 9t33 5q-4 12 3 25.5t7 17.5h10q-6 16 10 27h43q0 20 31 20v4h21zM1122 768h-10v-424q-41 -12 -70.5 -17t-50.5 -10q0 -10 -6 -10v-31q6 4 6 -6h-6v-30q-25 0 -24 -11q-68 0 -116 -4t-79 -8q-12 4 -20.5 7t-16.5 -1q-41 4 -94 5t-125 1q-18 23 -33 15q0 31 -1 48 t-4 25.5t-10 9.5t-22 1q-8 4 -27.5 5t-50.5 1q0 10 -10 10v27h-10v20h10v336l-10 10h10v246q-6 4 -10 0h10v104h-10v64h10v135q-6 6 -10 6h10q-4 4 -5 7.5t-5 3.5v40h10v27h-10v64h10v63h-10v41h10q-4 4 -5 7t-5 3v21q16 0 10 16q0 12 -3 13t-7 -7v25h10v57q4 0 10.5 8.5 t10.5 8.5v6q35 0 64.5 15t29.5 26h10v37h10q4 4 9.5 19t33.5 11q4 -4 13 -4q8 0 8 -10q20 0 10 10q20 0 34.5 -1t18.5 -5q10 -4 35 -3t64 9q0 4 6 4q-6 -4 0 -4q10 0 10 -6q29 -4 59.5 -1t71.5 7v4h17v-4q27 -8 49 -12t35 -8q0 -16 4 -17h6q0 -20 12 -38.5t12 -14.5 q16 -4 27.5 -7t19.5 -7q0 -6 7 -10q8 4 11 5t-1 5h16q0 -12 3 -13.5t12 3.5v-44h6q0 -39 1 -66.5t5 -47.5h10v-27h-10l-6 -440q6 -4 16 -4v-94q-16 0 -16 -7q0 -20 16 -10v-158h10v-20z" />
<glyph unicode="P" d="M1348 1235v203h-7q-6 16 0 37h7q-10 10 -11 63q-16 0 -10 6q0 6 10 0l4 51h7v27h-7q-4 10 -4 84q-12 4 -13 5t3 5q-63 12 -84.5 11t-21.5 16q-16 41 -11 61q-10 0 -10 6q-31 4 -54.5 7.5t-33.5 3.5q-39 25 -33 100h-67q4 -4 1 -5t-12 -5v10h-30q-8 20 -10 21q-6 4 10 4 v26h-10v33q-27 0 -17 10q-29 0 -46 -1t-21 -5q-61 0 -95 16q-53 -8 -53 -16q-25 0 -65.5 2t-83.5 5t-84 6t-66 3q-8 0 -16 -1t-21 -5h-37v6q-59 -8 -88 -12l-30 -4v6q-16 0 -17 -10v10h-104q4 -4 -11 -10v-23h11q6 -41 0 -84h-11v-34h11v-47q10 10 10 -7q-4 -4 -7 -15 t-14 -11v-88h11q6 -23 0 -43h-11v-31h11q6 -33 0 -57h-11v-430q14 0 11 -7q0 -4 -11 -4v-77h11q-4 -12 -5 -20.5t-6 -12.5h11q6 -33 0 -58h-11v-20l11 -10q0 -4 -4 -4q-2 0 -7 4v-105h11q6 -23 0 -37h-11v-69l11 -10q0 -4 -4 -5q-2 0 -7 5v-25h11q6 -10 0 -27h-11v-73 q4 8 7.5 7t3.5 -14q4 -4 1 -7t-12 -3q-4 -4 -0.5 -7t11.5 -3q6 -43 0 -84h-11v-27h11q6 -6 0 -24h-11v-17h11q6 -31 0 -67h-11h11v-105h10q6 -25 0 -32h-10v-189q-2 -2 5 -5t17.5 -7t19.5 -8t9 -11q33 4 55.5 5.5t38.5 5.5v-11q23 20 23 11q-27 -10 41 -11q0 20 20 21v27h10 v73h-10q-6 18 0 41h10v162h-10q-6 16 0 33h10v10h-10q-6 14 0 31h10q0 6 -10 6q-6 0 0 10q0 10 10 0v111h-10q-6 45 0 94h10q0 27 -10 20q6 4 10 5v43h-10v120l10 4q-16 8 -10 74h10q0 18 4.5 25.5t10.5 10.5t11 4t7 7q4 -8 5 -12t5 -8h115q0 10 10 10q6 0 6 -10h78v10 q23 6 37 0v-10l17 14q10 -4 30 -4h58v-10h120v10q10 4 21 4q16 10 33 -4q10 10 14 10v-10q20 0 28.5 6t9.5 13.5t-1 13.5t0 8l6 37q4 12 14.5 17t26.5 10q0 -4 6 -11h27l7 11q7 10 17 10q8 23 17 16v27h10q0 16 6 28.5t14 12.5q12 4 23 4q10 0 14 -8q6 4 47 4q8 29 13.5 48 t9.5 30q23 10 42 13t30 3v10q6 6 32 6q0 20 4 27h7zM1116 1401h-4q-4 -8 -5 -23.5t-1 -44.5q-20 0 -10 -10q0 -4 10 -4v-53h-10q-4 -4 -4 -11q0 -4 4 -16q-31 -16 -54 -10v-10h-61q-8 -14 0 -37h10v-17h-10q-6 -4 -6 -30q-10 0 -21.5 -1t-15.5 -6q0 8 -20 0q-16 -4 -28.5 -7 t-25.5 -3q-51 8 -198 0q-8 14 -21 6q-23 -4 -42 -7t-36 1q-29 8 -52 9t-42 -3q-43 0 -47 -6q0 6 -27 6q0 8 -20 -6q-16 12 -25 18l-8 5v166h-4v147h4q4 20 5 39.5t1 38.5q0 20 -1 36.5t-5 37.5h-4v32q4 0 4 4q0 10 -4 11h4v100q12 8 17.5 15.5t9.5 11.5q35 4 59 4h45h37 q4 -4 10 -7t11 -3q8 0 15 3t11 7q35 10 47 10q0 8 27 -14q16 0 10 4h27q0 -4 16 -4q14 0 10 4h68q4 -4 11 -7t16 -3q4 0 10 3t10 7h51q-4 0 0 -4q16 0 13 4h41q6 -4 43 -4v-23h10q0 -31 4 -31q0 -16 12 -26t25 -14q25 -10 30 4q29 4 36 -10.5t7 -26.5h11v-84h10v-51h-10v-54 q10 10 10 -10q-4 4 -8 4q-2 0 -2 -4q-4 -8 3 -12t17 -4v-37z" />
<glyph unicode="Q" d="M1350 8v105q-16 0 -24.5 3t-12.5 7q-41 0 -68 -10q0 -12 -14 16q-4 8 -5 30.5t-1 57.5q-33 4 -55.5 8t-39.5 4q-12 18 -16 25.5t-4 -0.5q0 6 10 6v27h31v10q12 0 34.5 13.5t39.5 13.5l6 34h4q0 4 15.5 23.5t62.5 19.5v11h16q0 16 21 16v262h-11v41h11v21h-11v26h11v27 h-11v31h11v163q-10 0 -11 5q6 6 11 0v57h-11v33h11v14h-11q0 43 3.5 66.5t7.5 27.5l-11 6v172h11q0 12 -11 6v89h-4q-10 16 0 32h4v109q-8 0 -11 3t1 7q-35 0 -51 -10q-20 12 -33.5 17t-25.5 9q-4 12 -5 56v119h-14l4 4l-104 6q0 10 -6 10q-4 10 -5.5 29.5t-1.5 48.5 q-88 23 -129 16v84q-33 0 -36 4v6h-52t-32 5v6q-53 0 -54 -11h-288v-6q0 -4 -15 -4l-6 -53h-10q0 27 16 -16q0 -10 -16 -11q-47 -8 -67.5 -11t-16.5 -3l-21 -23v-57q-20 8 -20 -14q-12 -4 -35.5 -5t-58.5 -1q0 -12 -3 -13.5t-7 2.5v-77h10q6 -20 0 -27h-10v-53h-13 q4 -8 2 -15.5t-6 -11.5h-110v-125h-11q0 -10 11 -10q-4 12 -7.5 4t-3.5 -41h11v-219h6q6 -25 0 -47h-6v-84q8 0 11 -3t-1 -7q0 -6 -10 -7v-10q8 0 11 -3t-1 -7q0 -6 -10 -6l6 -4q8 -18 0 -27h-6v-235h6q6 -33 0 -64h-6v-88q10 16 10 -16q0 -4 -10 -11v-20h6q6 -49 0 -90h-6 v-27q16 0 10 -4q0 -6 -10 -6v-158q8 -16 11 -30.5t-1 -26.5h10v-21h6q6 0 6 -16q23 0 31 -14q6 6 31 -10v-11q6 4 10 0q0 -2 3 -3t8 -7t8.5 -19.5t3.5 -39.5q4 4 7 2t3 -6q25 0 30 -7v-4q35 0 48 -12q23 0 40 4t27 8v11q37 -23 70 -23q-4 -4 8 -11t12 -20h4q6 -4 7 -41 q43 -27 73 -26v-6h25v6q23 6 37 0v-6h37v6q12 4 28 4h41h68q10 0 25.5 18.5t25.5 18.5v73q-4 0 -4 11q-4 4 -2 7t6 3l6 37q4 0 10 6q8 23 54 16v11q8 8 36 0q25 -10 15 -43h10v-136q0 -4 21.5 -7t21.5 -15h262q18 10 35 13t27 3zM1120 600h-6l-4 -151q-23 0 -23 -11v-10h-94 q0 16 -10 10v37h-10q0 10 3 18.5t7 12.5h-10v78h10q0 12 -10 12v20q-115 16 -135 11q-8 -4 -20.5 -5t-33.5 -1q-4 6 -41 6q0 27 -10 16v152h-12q0 23 -35 36q-12 0 -13 -3t7 -7h-27v10q-8 8 -26 0v-10h-62q0 10 -6 10q-12 0 -13 -3t3 -7h-57q-4 -4 -5.5 -15t-1.5 -22h-4 q-10 -51 0 -104h4q0 -29 5.5 -43t12.5 -21.5t14 -10.5t11 -9l52 -6q12 -8 17 -12l5 -5v-41h10q0 -20 18 -28l19 -8q0 10 37 10q4 4 25 -10q-6 -20 22 -21v-168h4v-26h-4v-48q-12 0 -16 -4q-92 0 -146.5 -4t-74.5 -8q10 18 -15 12q0 27 -1 46.5t-5 31.5h-10v10l-105 7 q0 10 -1 12t-5 -2v51q10 0 6 6q0 12 -1 13.5t-5 -3.5v183q10 0 6 6q0 12 -1 13t-5 -3v16h6q6 20 0 37h-6v62t-4 43h-10v20h10q6 27 0 53h-10v31h10q6 74 0 105q-10 16 -10 10h10q6 14 0 37h-10v47h10q6 41 0 84h-10v31h10l4 174q-14 0 -14 30h10l4 84q8 12 13.5 22.5 t9.5 14.5h14v-10q14 -10 37 0v10q33 16 37 17v26h10q10 53 0 109h-10v16h10q4 4 5 11.5t1 15.5q51 14 94 14q0 14 3.5 19.5t7.5 8.5t7 9t3 22q10 0 6 21q23 6 31 20v-10q53 -8 100 0v10h15v-10q29 -4 51 -7t39 -3v-21h10v-36h4v-23q10 2 24.5 0t30 -5t29.5 -6t22 -3 q0 -16 15 -17v-151q12 -20 33 -21l61 -6q0 -16 20 -16q0 -20 7 -25h6v-26h10v-80q-8 -4 -12 -4q-2 0 2 0q-10 -10 0 -11q4 -4 7 -5t3 -5h-10q-10 -72 0 -153q8 4 11 2t-1 -7h-10q-10 -43 0 -84h10q0 -20 4 -26h6v-10h-6l-4 -99h-10q-10 -20 0 -26h10v-168h-10q-4 -4 -4 -10 q0 -4 4 -17h10v-84q-20 0 -10 -10q0 -4 4 -14.5t16 -22.5z" />
<glyph unicode="R" d="M1350 8v205q-43 4 -78 8t-58 8v95h11v14h-11v80q-57 16 -90 10v10q-20 0 -24 4q-8 8 0 33h10h-10q-10 25 0 51h10q0 12 -10 40t-6 44q-4 0 -13.5 8.5t-13.5 8.5q-51 -10 -61 -6q-4 4 -20.5 11t-16.5 11q4 4 14 4v17h-10q-6 14 0 30h10h-10q-4 4 10 27h-10q-4 20 -4 47v63 q-35 4 -60 5h-41q-10 31 0 63q16 0 17 10q4 -4 4 -8v-2h47q0 16 33 16q0 25 4 25h10v37q16 4 24.5 7t12.5 3v12q12 0 26.5 9.5t26.5 5.5q23 41 14 63h7q-4 4 0 10.5t16 10.5h10q8 0 21 -4h37q0 10 13 12t34 12l6 43q0 25 14 31q43 27 84 27q20 8 21 16v84q-4 -4 -9 -4 q-2 0 -2 8q0 4 3.5 7t7.5 -1v94h-11q-6 31 0 62h11v26h-11q-6 14 0 33h11q0 16 -11 10v168q-16 0 -10 11h-41q6 -10 -6 -11q-4 4 -4 11q-53 0 -64 4v84l-67 6v10q-43 0 -47 4q-12 20 -14.5 40t1.5 40q-20 0 -14 4q-35 4 -60.5 8t-43.5 9q-10 6 -11 57h-6q-10 0 0 16 q-68 0 -78 4v6h-278q4 -4 0 -5t-16 -5q-16 0 -11 10h-125v-6q-10 -6 -30 0v6h-33v-6q-47 -6 -98 0v6h-131q0 6 -43 -10q0 -23 -11 -16v-57h11v-115q10 16 10 -10q-4 -6 -10 -7v-702q4 8 5 7t5 -11q-4 -4 -7 -5l-3 -1v-21q10 0 10 -10q-4 -6 -10 -6v-230h6q6 -23 0 -36h-6 q0 -27 10 -27q0 -10 -10 0v-16q10 0 10 -4q-4 -6 -10 -7v-14h6q6 -18 0 -33h-6v-14h6q6 -23 0 -43h-6v-53q4 10 7 6t3 -17q0 -16 -10 -10v-229h6q6 -25 0 -47h-6v-17h6q6 -86 0 -172h-6q-2 -2 0 -4t4 -9t4 -25.5t2 -51.5q4 4 5 2t5 -6q20 -4 35.5 -8t28.5 -8v-6q6 0 6 6 q23 6 47 0v-6q35 8 59.5 13t44.5 9q0 10 4 10v115q-4 0 -4 10q-4 4 -2 5t6 6v53q-4 4 -4 14q0 6 4 0v117q-10 0 -4 4q0 6 4 6v115h-4q-10 14 0 30h4v127h-4q-10 14 0 31h4v74h-4q-10 55 0 110h4q0 37 6 41q4 16 11.5 20.5t15.5 -3.5h4q16 4 27.5 7t19.5 3q92 6 142 -10 q0 20 22 -17v-26h10v-25q18 -16 41 -16q4 -4 5 -7l1 -3h41q8 6 17 -17v-20h10q4 -16 5 -43t1 -62q4 4 4 2v-12q6 -6 -4 -6q-16 0 21 -37h41q-14 8 6 16q4 -6 4 -16q20 4 29.5 2t13.5 -6v-27h4q4 -12 5 -34.5t1 -55.5h4q10 -18 0 -24h-4v-17q12 0 17.5 -7t14.5 -16 t27.5 -16.5t55.5 -7.5v-16h10v-158h6q4 -10 10.5 -9t6.5 -15q55 23 88 0q6 -6 6 -17h10v-90h10q6 -20 0 -35h-10v-16q16 4 18 -3t2 -24q27 -16 48 -16q4 0 16 12v-12q90 -6 145 12q1 4 11 4zM1110 1434h-10l-6 -189q-43 -8 -71 -15t-40 -11q-10 -29 -17.5 -51.5t-7.5 -39.5 h-49q6 6 -10 7q-20 0 -14 -7h-37v7q-16 0 -17 -7h-335q6 6 -4 7q-6 0 -7 -7h-41v7h-84q0 16 -6 20h-4v221h-10v10h10v246h-10v21q4 -4 7 -1t3 7t-3 7l-7 7q-6 0 0 6h10v90q4 8 10.5 12.5t10.5 8.5h98q27 0 6 4q0 -4 21 -4q47 4 81.5 10t55.5 10v-10q12 -4 33.5 -5t50.5 -1 v-4q10 0 16 4h219q16 -16 17 -10q0 -29 5 -46.5t12 -25.5t16.5 -11t17.5 -5h53q0 -27 14 -27h7q0 -76 1 -133t5 -98q4 4 6 4q4 0 4 -8z" />
<glyph unicode="S" d="M1350 240v67q-10 0 -11 10q0 10 11 11v100l-12.5 5t1.5 5q6 4 11 4q0 53 -11 80q-4 -4 -7 -1t-3 11q0 4 10 5v53h11v20h-11v131h11q0 63 -11 90q-20 0 -20 11q-31 4 -54.5 5t-33.5 5q-6 0 -6 41q-8 0 -11.5 3t0.5 7h11q0 45 -3 73t-8 44l-67 4v10q-4 0 -12.5 1t-20.5 5 h-27q-8 0 -23 -1t-38 -5q-29 -6 -53 0q0 4 -7.5 8.5t-7.5 8.5q0 10 15 10q0 4 -7.5 11t-7.5 36q-4 0 -11 8t-11 8q-43 8 -78 12.5t-57 4.5v10q-6 0 -6 -10q-39 -8 -78 0q0 10 -6 10q0 10 6 4v57h-6q-6 8 0 23q-18 12 -25 4l-96 6q-4 29 -5 50.5t-5 33.5q-4 -4 -7.5 -1 t-3.5 11h-125q4 -6 -6 -10q-4 4 -4 10h-55q-23 0 -39 4v347q4 -4 9 6l5 10q20 12 39 16t31 4v7h37q-4 -8 -2 -12.5t6 -4.5q45 -10 74 -10q0 12 18 14t23 6v31h10q0 63 43 64q6 0 0 -11q27 0 31 -6l6 6q119 0 189.5 -1t92.5 -5q8 0 0 -20h6q4 -4 5 -15v-26h10v-117 q12 12 20 -14h74q4 10 15.5 -9.5t11.5 -54.5q4 -8 5 -35.5t1 -74.5q23 -10 42 -21.5t36 -15.5q12 0 28.5 8t28.5 8v-4h63q4 4 11 4h10q14 37 20 37v68q-4 -4 -7 -1t-3 11q0 12 10 12v31h-4q-10 16 0 27h4v120q-4 -4 -7 -1t-3 12q-35 4 -61.5 5t-42.5 5q-10 16 -11 78h-10 q-8 14 0 37h10q-12 23 -13 42t3 31q-16 6 -38.5 5t-41 5.5t-31 22.5t-6.5 55h-10v17h-114v-6q-78 -6 -148 0v6h-162q6 -6 -4 -11q-6 4 -6 11q-16 -4 -34.5 -7.5t-39.5 1.5v6h-73q-10 -12 -18.5 -20.5t-12.5 -16.5v-53q-76 -4 -133.5 -6.5t-95.5 2.5q4 -4 -13 -11v-84h13 q-10 -29 -13.5 -48t-3.5 -30q0 -6 2 -11t-4 -8t-25.5 -5t-62.5 -2q0 -4 -13.5 -10.5t-17.5 -10.5v-477h11v-16q10 0 10 -10h43q-4 4 -2 7t6 3q12 -16 24.5 -24.5t22.5 -12.5v-37h6q4 -4 4 -14h13v-17q-4 -4 2 -8l18 -12q23 -4 42 -5t32 -1q10 0 10 -58h10q4 -12 7 -9t3 -17 q74 0 78 -4q33 4 56 4h45q27 10 41 -4q16 -43 16 -64h6v-16q-2 -2 5 -5l17.5 -7.5t19.5 -8.5t9 -6q43 0 76 1t55 5q4 -4 18.5 -5t35.5 -1q4 -27 7 -43t3 -24q29 -20 61 -21v-10h54q0 -23 3 -42.5t7 -31.5q10 10 10 -16q-4 0 16.5 -3t67.5 -12v-10q27 6 27 -26q4 -16 5 -67.5 t1 -137.5l10 -10h-10l-6 -105q-4 0 -4 -4q0 -2 4 -6h-78q-16 -16 -33 -17v-53h-10v-24q-31 0 -31 -11q-12 -4 -22.5 -3t-14.5 14q-12 0 -16 -3.5t0 -7.5q-106 4 -187 7.5t-133 3.5q-10 0 -16 -3.5t-10 -7.5q-4 4 -4 11h-64q0 57 -10 84q-66 16 -94 10v10h-21v215 q-10 6 -10 51q-10 -6 -10 11q-20 4 -35.5 8t-28.5 8q-29 4 -45 1t-28 -7v6q-35 -4 -57.5 -8t-26.5 -8v-189q10 10 10 -10h-10v-14h6q6 -25 0 -50h-6v-82q10 6 10 -12h-10v-41q10 10 10 -10q4 0 13 5t13 5q0 -4 13.5 -13t13.5 -13q16 0 21 6q16 -14 24 -18.5t12 -9.5t5.5 -15 t1.5 -37q16 4 18 -2t2 -23q78 0 84 -6v-20h10q4 -6 4 -27q6 0 6 -27q4 4 12 -5l9 -9h94v-12h74v12h188q0 10 11 10q6 -6 6 -10h51v-12h63v12q27 6 54 0v-12h114v12q20 4 34.5 7t23.5 3q0 25 16 15v53q10 0 10 4q29 4 48.5 6t35.5 6q0 20 21 21l6 51h4q-4 4 -2 11t12 12 l10 10h11v-6h32v6h21q4 0 12.5 18.5t18.5 18.5z" />
<glyph unicode="T" d="M1346 1858v67q-16 0 -11 6q0 4 3 6t8 -2q0 12 -5.5 43t-5.5 47q-37 0 -43 5v6h-20v-6q-10 -6 -31 0v6h-74v-6q-23 -6 -43 0v6h-61q4 -4 2 -5l-12 -6q-12 0 -14.5 3.5t1.5 7.5h-51v-6q-25 -6 -47 0v6h-27q4 -4 3.5 -5t-13.5 -6q-6 4 -6 11h-57v-6q-23 -6 -47 0v6 q-4 0 -4 -6q-55 -6 -111 0v6h-68v-6q-6 -4 -32 6q4 -4 -0.5 -5t-14.5 -6q-6 4 0 11h-194q4 -4 0 -5t-17 -6q-4 4 0 11h-94v-6q-25 -6 -57 0v6q-14 0 -15 -11q0 4 -6 11q-29 -4 -48 -8.5t-30 -8.5v-131q14 0 11 -4q0 -6 -11 -6v-31h5q6 -6 6 -16q23 -4 42 -7t31 -3v-11 q14 8 15 11q23 0 16 -11q41 0 41 -6q35 4 60.5 7.5t44.5 -1.5v11q59 -8 107 -12.5t83 -4.5q-6 6 10 6q0 16 31 -16v-340h10q10 -90 0 -178h-10v-16q8 8 16 0v-414h4v-41h-4v-37h4v-41h-4v-100h4v-47h-4v-289q4 4 4 2v-12q4 -4 5 -9q0 -2 -9 -2v-20h4v-100h-4v-17q4 -4 4 -10 q0 -4 -4 0v-14h4v-91q12 4 17.5 -5t9.5 -9h27v-12h94q39 18 67 12q29 25 31 25v16h-10q-6 23 0 47h10v58h-10q-6 14 0 36h10v58h-10q-6 80 0 151h10q-4 6 -10 6q-6 23 0 41h10v13h-10q-6 18 0 41h10h-10q-6 51 0 104h10q0 -12 -3 -9t-11 15v864h-6q-6 16 0 27h6v51h-6 q-6 14 0 37h6v31q-10 0 -10 10q0 12 10 12v15h-6q-6 47 0 100h6q0 35 14 41q72 25 107 16v11h41q0 -16 10 -17q16 0 20 6v-6q35 0 57.5 8.5t26.5 -8.5q12 0 33 1t51 5q-6 10 11 11q12 0 14 -3t-2 -8h51v11q8 0 20.5 3t32.5 7v27h11z" />
<glyph unicode="U" d="M1348 203v104h-11q0 16 3 23.5t8 3.5v272q-10 0 -11 4q-6 16 11 17q8 20 -11 20q-6 16 11 17v215q-10 0 -11 4q0 4 2 4q4 0 9 -4q0 53 -11 80q-14 0 -10 4q0 6 10 6v51h11v74h-11v53q-10 0 -17 3t-3 11q4 12 10 16.5t10 0.5v16h-4q-10 14 0 31h4v252h11v4q-10 0 -11 6 v303h-4q-4 4 -5 15.5t-1 27.5q-10 0 -10 10q4 0 7 13.5t13 13.5v84h-4q-10 14 0 31h4l-4 6q-12 8 4 14q-10 4 -18 7l-8 3q-92 0 -109 -10v-4q-16 -4 -28.5 -7t-24.5 -3q-4 -4 -7 0t-3 14h-41v-121h10q6 -18 0 -24h-10v-148q4 4 6 4q4 0 4 -4q0 -10 10 -10q4 0 -6 -27h6 q4 0 4 -10q0 -4 -10 -15.5t-14 -11.5q10 -12 17 -13t7 -13q0 -10 -4 -14h-6v-27h6q4 -6 4 -10q0 -10 -4 -17h-6v-49q0 -18 -4 -29h-10q0 20 14 -16q0 -18 -14 -10v-58h10q4 -12 7 -17t3 -9q0 -10 -6 -6q0 4 1 1t5 -12q14 -31 -6 -30l-4 -189h-10v-47h10v-141h-10v-16h10 q4 -23 4 -62v-90q6 6 6 0q4 -6 0 -6q-6 0 -6 -4l-4 -424q-20 -8 -48 -12.5t-69 -4.5q0 -12 -3 -18t-7 -2v-57q10 6 10 -11q-31 -12 -54.5 -17t-39.5 -9v10q-29 0 -47.5 -3t-30.5 -7v10q-37 0 -37 -10q-12 4 -16 7l-4 3q-29 0 -68 -5t-59 -5q-6 -16 -10 -17q-10 -4 -23.5 4.5 t-13.5 12.5q-4 4 -4 0q-4 -4 -5 -7t-6 -3q-10 0 0 10q-8 6 -16 0q0 -10 -10 -10q-20 0 -10 10h-21v-6q4 4 -1 5t-26 1q6 -10 -10 -10q-8 20 -16 20q0 10 10 10q-16 45 -10 68q-16 8 -28.5 15t-22.5 11h-33q-12 12 -19.5 21.5t-11.5 19.5h10v64h-6q-6 111 0 231h6q-6 0 -6 4 q-4 29 -4 74v111h-10v30h10v31q-16 0 -10 6q0 10 10 0v27q-10 0 -10 10t10 10v283q-10 10 -10 16q0 4 10 5v32h-10v41h10v174h-10v25h10v27h-10v104h10q-6 0 -10 6v115h10v16h-10v37h10v14h-10v168h-94v-10h-138q-4 -4 -5 -10t-5 -10q10 10 10 -11q0 -10 -10 -10v-16h10 q10 -41 0 -78h-10v-53q10 16 10 -11q0 -10 -10 -10v-20h10q10 -16 0 -33h-10v-14h10q8 -88 0 -174h-10l10 -11v-487q20 0 11 -10q0 -4 -11 -4v-74h7q6 -14 0 -37h-7v-64q4 4 5.5 0t5.5 -16q-4 -4 -11 0v-88q4 8 5.5 7t5.5 -13q4 -4 1 -7t-12 -3v-37q4 10 5.5 9t5.5 -13 q10 -10 -11 -11v-36q4 8 5.5 7t5.5 -14q4 -4 1 -7t-12 -3v-125q8 -16 11.5 -28.5t-0.5 -24.5q10 10 10 -14q6 -6 -10 -6l-4 -64h-7v-14h7q6 -47 0 -101h-7q0 -29 3.5 -45t7.5 -28q6 6 33 -11v-10h51q0 16 32 -16v-37h11v-25q8 8 24 -16q20 4 41 -3t43 -18q6 -6 6 -57 q16 16 17 -12q4 4 9 2l15 -6q0 -6 7 -11q-12 4 -7.5 7.5t33.5 3.5q0 -6 4 -11h53v-10h58q-4 4 -3 7t13 3q6 -6 6 -10q4 0 5 3t5 7q25 8 52 0v-10q6 0 6 10q29 4 47 5h31q4 4 38.5 2t98.5 -7v-10h57v10h162q0 14 33 15v26h10l4 48q20 8 33.5 12t23.5 4q6 -6 7 -10q27 0 36 10 q-4 4 2.5 11t18.5 16v51q10 0 10 6q35 12 55.5 18t28.5 2q1 23 21 17zM315 1481h-10v4h10v-4z" />
<glyph unicode="V" d="M1346 1464v305q-10 -10 -11 11q4 4 11 4v26h-7v125h7v17h-7q-4 8 -4 18v29h-10v26h10v31q-37 0 -43 -4q-10 0 -29.5 4t-43 8t-46 7.5t-38.5 1.5q0 -4 -15 -5q-12 0 -16 -12l-4 -104h-6v-64h6q10 -10 10 -24q0 -10 -3 -14.5t-7 -8.5h-6v-20q4 8 5 5t5 -16q6 -6 -10 -6v-20 q4 4 5 0t5 -15q-4 -6 -10 0v-22h6q10 -10 10 -21q0 -10 -10 -20h-6h4t3 -9t2 -33t1 -69q10 10 10 -10q10 -10 -10 -10l-4 -94q-2 -2 -2 -6q0 -2 -6.5 -4.5t-22.5 -4.5t-49 -2v-4q-23 -16 -41 -16v-232q4 4 7 3t3 -13q6 -6 -10 0v-235q-10 -6 -10 -11h-74q-20 -20 -47 -20 v-21h10q0 -12 -3 -20t-7 -12h10q6 -74 0 -146h-10v-43q14 8 14 -4q0 -8 -14 0v-37q14 14 14 -16h-14v-37h10q-8 -43 -11 -83t1 -75q-29 -4 -51.5 -7t-38.5 -3q4 -4 0 -7t-15 -3v6l-137 10v68q-4 -4 -7 0t-3 16h10q4 35 2 61.5t-6 43.5h4v20h-4q-4 41 -5 99.5t-1 136.5 q-10 10 -10 16q-6 4 10 4v53q-76 8 -115 0v17h-10q-4 10 -5 29.5t-1 48.5q-4 0 -4 10q-4 4 -2 7t6 3l6 53h10q0 8 -4 9q-2 0 -6 -5q-4 20 -5 52t-1 75v115v21q-4 4 -4 8q0 6 4 18q-4 8 -6 15.5t2 11.5q-16 8 -28.5 12t-24.5 4v4q-23 0 -39.5 1t-24.5 5v193q-10 0 -14 3t0 7 q4 6 14 6v142q-14 -6 -14 10q4 6 14 6v109q-14 0 -14 6q6 10 14 0v73q-14 0 -14 5q6 10 14 0v22h-10q-4 4 -4 21h-174q-25 -10 -47 -11v-57h-5v-111q4 4 5 2v-12t-5 -10v-33h5q10 -25 0 -57h-5q0 -10 5 -15h-5v-190h5q8 -16 0 -31h-5v-20h5q8 -25 0 -47h-5l5 -6q10 -8 0 -15 q18 0 26 -4t12.5 -9t7.5 -9t11 -4q18 0 32.5 -13.5t23.5 -33t11.5 -41t-4.5 -39.5q4 0 11 -11h-11v-215h11q10 -39 0 -71h-11q0 -12 3.5 -17.5t7.5 -9.5q0 -10 -11 0v-16h11v-15q41 -16 84 -16v-6q-10 -8 30 -15v-106q10 27 11 -10q0 -10 -11 -11v-20h6q4 -12 7.5 -23.5 t3.5 -23.5t-3 -23.5t-8 -23.5h-6v-21q10 16 11 -16h-11v-37q10 16 11 -16h-11v-21h6q4 -10 5 -43v-82q4 0 16 -13t16 -13l68 -4q4 -12 5 -18l1 -5h10v-31h-10q-10 -10 10 -10v-90h11v-25q10 0 10 -12q66 0 94 -24q6 -6 6 -17h4v-100h10q4 -4 5.5 -14.5t1.5 -22.5q4 8 30 -25 q20 8 58 -16q8 0 13 3t9 7q4 -4 4 -8v-2h84q-10 10 17 10q0 6 20 27q-10 6 -10 67h10v45t4 29q4 0 10.5 13.5t16.5 13.5h26q25 -10 43 0q0 -4 15 26l6 136h4q0 20 6 26q20 12 39 18.5t35 2.5q0 10 31 10v80h6v24q-4 4 -7 5t1 1q0 10 6 5v22h-6v146h6v22h-6q-10 14 0 31h6v16 h-6q-10 23 0 57h6v37q-6 0 -6 11q-4 4 -1 7t7 3q0 20 12 30.5t23 10.5q4 -4 10 -4h12q-6 4 31 4q-8 14 31 47v457q12 0 12 4q61 18 94 12q1 22 21 14z" />
<glyph unicode="W" d="M1346 1464v43q-16 0 -11 4q0 6 11 7v94q-10 0 -11 10q-6 4 11 4v131q-8 0 -11.5 4t0.5 8q0 6 11 0v105q-10 0 -11 10q4 4 5 7t6 3v64h-11v104q-12 4 -13 5t3 6q-27 0 -27 -7q-43 4 -88 7.5t-96 -0.5q4 -4 -3 -14.5t-7 -22.5h-10q4 -4 8 -5t8 -6q0 -16 -16 -16 q8 -16 11 -37.5t-1 -50.5h-10q18 -18 10 -63h-10q0 -10 10 -11q4 -12 5 -31.5t1 -46.5q4 0 4 -12h-4q10 -10 10 -24q0 -16 -10 -27q0 -76 -1 -131t-5 -90h-10q-4 12 -7.5 6t-3.5 -27h-20v-4q-12 -4 -28.5 -5t-45.5 -1v-37h-10v-16q14 0 10 -4q0 -6 -10 -6v-643h10 q4 -20 -10 -21l-6 -285h-55q-23 0 -33 -4q10 0 2 4t-39 17v424q-10 10 -10 16q0 4 10 4v238q-10 0 -10 10h-33v4q-10 4 -17 7l-8 3q-53 -4 -89 -7t-58 -3q4 -4 -17 -4q-4 -29 -7 -74t-3 -104h-10q8 6 16 -6v-518h4q4 4 5 0q0 -2 -5 -11h-141v387q-10 0 -4 6q0 4 4 5v67 q-6 74 0 154v20q-6 41 0 84v15q0 -4 -4 0v268q-16 8 -28.5 12t-24.5 4v4h-64v74h-10q-6 23 0 41h10q0 -4 -14 12v277q-10 0 -6 6q0 4 6 0v188q-4 4 -7 5t1 6h-209q-12 0 -11 -10.5t-10 -10.5v-74h5q10 -33 0 -73h-5v-31q4 8 5.5 7t5.5 -13q4 -4 1 -7t-12 -3v-394 q4 -10 23.5 -14t41 -10t38 -17.5t12.5 -36.5h10v-26q4 8 5.5 5t5.5 -15q0 -10 -11 -11v-163q10 10 11 -11h-11v-145h7v-127h-7v-72h7q6 -55 0 -100h-7v-53h7q6 -33 0 -72h-7v-12h7q4 -27 4 -64v-82q-2 -2 5 -6t18 -7t22.5 -7t17.5 -6q0 6 10 6q0 -12 11 -23q16 10 16 17 q8 -35 11 -54l3 -20h11q0 -25 -11 -31h11q10 -27 0 -53h-11v-10h11q4 -20 5 -50t1 -65q8 -16 0 -31v-63q4 0 8 -3t8 -7v-17q29 0 33 -8t8 -12q4 4 10 4h11q25 10 32 -4q35 4 59.5 5t45.5 5q0 29 20 37l6 360h4q0 4 3.5 10.5t7.5 16.5q14 8 37 0q0 -10 6 -10h49q23 0 35 -4 v-13q10 0 10 13q23 6 37 0v-13q4 0 4 13q29 8 37 0q10 -45 10 -64h10v-115q12 8 12 0q0 -4 -4 -7t-8 1v-184h6q2 -8 1 -12t0 -8.5t6.5 -8.5t19.5 -12q8 0 12 3t8 7v-10q29 -4 44.5 -7t19.5 -3v-6h20v6q10 0 32 6t41.5 12t30.5 12.5t1 6.5v84q-10 0 -10 10t10 10l6 236 q0 4 7 15t18 28q37 0 63 10q8 -8 16 20l5 125h12q0 10 -12 10q-4 35 -5 89v126q-6 0 -6 11q6 6 6 0v194q4 129 5 224v159h12v47q16 4 26.5 7.5t14.5 3.5v4q20 0 45 11t29 15z" />
<glyph unicode="X" d="M1356 109q0 4 -6 4q-6 20 0 43h6v37q-8 4 -11.5 5t1 5t6.5 4h4v10h-6q-6 18 0 33h6l-6 4q-4 29 -4 72v102h-43v10q-47 4 -59.5 6t-12.5 15h-12v168h-5q-8 23 0 47h5q-4 8 -7.5 23.5t-3.5 43.5q-27 0 -30 7v4q-29 8 -50.5 11t-33.5 -1v184q-20 0 -17 6h-47q-16 0 -20 4 q-12 12 -22.5 16.5t-18.5 4.5q4 43 7 78t3 59q6 14 74 14v13q20 0 24 4q25 74 17 127h10v14q-10 0 -10 10q16 29 29.5 33t33.5 4v6q8 0 19.5 3.5t31.5 7.5q0 27 11 16v41q-4 -4 -7.5 -3t-3.5 13q0 4 2 4q4 0 9 -4v215h43v10q4 0 9 4.5t17 12.5q18 6 25 0v10q6 4 22 4 q0 23 4 27h7q-4 4 -5.5 7t-5.5 3q4 6 11 0v47h-7q-6 49 0 90h7v17h-7q-4 18 -4 69v133q-12 20 -22 11h-178q0 -2 -21 -11q0 4 -4 -1t-16 -23q-6 -6 0 -6q16 -10 16 -17q0 -14 -16 -4v-57q16 6 16 -6q0 -10 -16 0v-27h10q12 -18 -10 -27q-115 -14 -111 -20q6 0 -14 -14v-37 q10 0 10 -6q0 -4 -4 -4q-2 0 -6 4v-47h4q12 0 6 -11q35 -8 59.5 -12t44.5 -4q0 -29 -1 -46.5t-5 -21.5h-78q0 -10 -20 -10q-16 -16 -10 -16v-68h4q10 -10 10 -20q0 -16 -10 -27h-4v-63q-16 -4 -41 -5h-54v-6q-6 -4 -22 -4v-106h-10v-21q10 10 10 -14q6 -6 -10 -6v-23 q0 -10 -4 -14h-17v-4q-59 -4 -104 -8t-74 -4q-12 4 -20.5 8t-16.5 4v4q-8 0 -12 3t-8 7v164q-29 0 -21 20h-53q10 -10 -4 -10q-6 4 -6 10h-41v183q-23 0 -33 16l-51 4q-14 10 -21.5 15.5t-11.5 8.5t-6 5t-4 8v356q-4 0 -15.5 5.5t-15.5 5.5h-147q0 -4 -3 -5t-8 -6v11 q-35 0 -41 -9.5t-6 -25.5h-6v-117q4 8 6 5t6 -15q0 -8 -4 -11t-8 1v-64q4 4 6 0t6 -14q0 -14 -12 -6v-27q4 4 8 2t4 -6q0 -6 -12 -6v-98q12 8 23 -27q4 0 19.5 -1t41.5 -5q6 6 23 -21q0 4 10 -20q4 -4 7 -19.5t3 -44.5h10q12 -8 0 -26h-10v-95q16 -43 17 -73q4 0 27.5 -7.5 t39.5 -7.5v-6q25 0 31 -10q10 -27 10 -74q10 16 10 -4q0 -10 -10 -10v-70h10v-20q-4 0 8.5 -3t45.5 -14v13q23 6 41 0q16 -23 12 -27h10q6 -80 0 -151h-117v-27h-10v-47h10v-58h-10v-47t-4 -26q-33 -4 -56.5 -5t-43.5 -1q4 -4 4 -7l-8 -4v-94q4 0 4 -4q0 -6 -4 0l-7 -194 q-41 -4 -67.5 -7.5t-46.5 -3.5q6 -10 -11 -10v-131h11q6 -14 0 -33h-11q-4 -4 -1 -6t12 2q6 -23 0 -43h-11v-35h11q6 -23 0 -43h-11q0 -66 11 -110q4 4 7 3t3 -14h31q0 -2 6 -2q8 0 15 -2t14.5 -7t7.5 -15h37q8 12 14 12v-12h53v12q4 10 20.5 7t16.5 7q4 25 6 43.5t-2 30.5 h10v10h-10q-6 51 0 105h10v63h-10q-6 29 0 68h10v20h-10q-6 18 0 33q12 0 21.5 13.5t21.5 17.5q4 -4 10 -4h11h26q12 0 21 4q12 35 16 63.5t4 57.5h6v53l21 20q12 4 26 5h37q0 27 21 22v25h10q-6 0 -10 6v26q-10 -10 -11 11q0 20 11 10v37h10q0 35 3 39t3 8q0 12 15.5 19 t78.5 -3v-6q47 12 81 13t54 -7q8 -20 11.5 -35.5t-0.5 -27.5h10q8 -16 0 -31h-10q4 -25 7 -41t3 -29h10v-26q12 0 12 -10h52q0 16 32 -15q4 -20 7.5 -38.5t3.5 -30.5h4q4 -8 5 -31t1 -64q4 0 15.5 -12t15.5 -12l53 -6v-11q-4 0 3 -3t28 -7q4 -4 4 -10q0 -4 -4 -16 q10 0 16 -7v-329h4v-15q29 -8 48.5 -13t35.5 -9q8 -4 21 16q35 -4 59 -4h47q0 14 21 14l4 91h6z" />
<glyph unicode="Y" d="M1350 1794v16q-10 0 -11 11q0 6 11 6v24q-10 0 -11 13q4 4 5.5 7t5.5 3v31h-11v26h11q-4 4 -11 4v54h11h-11v26q-10 0 -10 15h10v26q-8 0 -11 3t1 7q-23 -6 -51 0q-20 4 -29.5 7.5t-13.5 3.5q-31 0 -51.5 -3t-34.5 -7.5t-22.5 -7.5t-16.5 -3v-41h-10l-6 -241h-101 q-4 -4 -8 -11.5t-12 -15.5v-10h10q10 -57 0 -105h-10h10q10 -27 0 -53h-10v-61q10 0 10 -11q-4 -6 -10 -6v-31h-41v-6q-12 -4 -33 -4h-41v-84h10q8 -16 0 -37h-10l-6 -157h-4v-17q-86 0 -148.5 1t-103.5 5q-8 78 0 162h6q0 6 -6 6q-4 20 -5 50t-1 71l-94 4v6h-21v136h-10 q-6 27 0 53h10v84h-10v10q-74 31 -115 21v26q-10 0 -10 10t10 11v30q-10 0 -10 13q4 4 10 4v10h-10q-10 10 0 27h10v30h-10v131q-12 0 -28.5 1t-41.5 6q-10 4 -43 4h-86q0 6 -32 -11v-202h-11q10 -27 11 -90q6 6 10 0q4 -4 5 -7.5t5 -3.5l64 -6l5 -3t15 -11v-17h6 q4 -8 4 -20v-20h13v-132h-13v-10h13v-80q0 -10 14 -10q16 0 20 -4q2 -2 1 -4t4.5 -4t19.5 -6t45 -13v-10h10q4 -10 4 -18v-19q10 -10 11 -16q0 -6 -11 -17v-30q10 -10 11 -31q0 -16 -11 -33q-4 -4 0 -4q4 -8 5 -32.5t1 -67.5q31 -4 55.5 -6t45.5 2q-4 -4 -2 -8.5t6 -4.5v-24 h10v-43q4 4 8 3t9 -13q-8 -6 -17 0v-41h10q0 -23 -10 -33h10q6 -4 7 -31q4 4 4 2v-12q59 6 94 -16q6 0 6 -27h6v-84h10q6 -16 0 -31h-10v-94q14 0 14 -10h-14v-17h10q6 -23 0 -36h-10v-15h10q4 -29 4 -74v-104q6 0 11 -6q-4 -4 -11 0v-23q0 -10 -4 -14h-10v-20q10 0 14 -7 v-340q16 -8 28.5 -15t25.5 -11h151q27 27 31 26v138q-4 0 -4 10q-10 16 4 16v142q-4 0 -4 10t4 10v57q-4 0 -4 11q0 10 4 10v90q-4 4 -4 14t4 11v79h-4q-10 47 0 95h4v16q-10 0 -4 4q0 6 4 6q0 4 -4 4t-4 2q0 4 4 9q-10 10 4 10v16h-4q-8 23 0 37h4l-4 6q-8 18 0 41h4 q0 16 1 26.5t5 14.5h10q-12 4 4.5 18.5t79.5 14.5v10l6 3q5 3 15 7v58h10v100q37 14 43 14v13h41q0 14 27 14v262q-10 0 -7 6q12 0 20.5 15.5t12.5 15.5q16 0 10 -10h52q0 20 32 20q0 6 11 17v30h-11v33h11v21h-11v67h11h-11v41h11q0 12 1 22.5t5 14.5h4q-6 8 10 33h21v4 q25 12 44 17t29 5q10 18 0 25h11z" />
<glyph unicode="Z" d="M1350 35v67q-10 0 -11 7q-6 14 11 14q-4 45 -7.5 67.5t-3.5 26.5h-30v6h-105q4 -6 -6 -6q-20 0 -16 6h-31v-6q-4 0 -10 -5t-11 -5v10q-27 -6 -36 6v-6q-27 -6 -54 0v6h-141q6 -6 -10 -6q-4 0 -4 6h-148v-6q-27 -6 -51 0v6q-16 0 -16 -6q-20 0 -17 6h-20v-6q-23 -6 -43 0 v6q-72 0 -123 1t-86 5l-7 3q-7 4 -20 8q0 27 17 36q53 20 84 21q0 18 20 27v104q-4 -4 -7 -3t-3 13q12 12 16 22.5t4 18.5q16 8 28.5 12.5t25.5 4.5v10h30q16 43 23.5 80t3.5 71h6v17h-6q-8 8 -6 10q4 4 8 5l4 1q66 33 94 25q0 8 21 26l4 174h43q-18 8 4 15q16 -6 16 -15h37 q0 18 27 25v90h-10q-8 23 0 37h10v51h84q6 27 26 17q0 57 5 67h10v90q2 0 3 3t5 7.5t13.5 7.5t31.5 3q2 2 11.5 9t24.5 15.5t25 5.5l7 158v6q23 10 42 17.5t35 7.5q0 6 33 6q0 20 10 21v26q-10 0 -10 17q0 10 10 10v84h11q0 29 32.5 40t71.5 11q0 23 10 22v136q-14 0 -10 6 q0 10 10 0v31h-4q-4 16 -5 42.5t-1 67.5q-12 4 -19 10t-12 11q-33 0 -32 -11q-31 0 -31 11q-8 0 -22.5 -2.5t-31 -3.5t-30.5 -3t-21 -2q-4 0 -34.5 3t-85.5 12q-39 4 -63.5 2t-37.5 -6q-23 -10 -30 4q-41 -23 -64 -15q0 10 -12 7t-12 8h-72q-29 0 -49 -4h-23q-10 0 -14 4 q-35 -4 -55.5 -6.5t-28.5 2.5q-41 14 -84 4q-23 -4 -42.5 -7.5t-31.5 -7.5v11q-78 0 -88 -11q-8 4 -27.5 7.5t-52.5 3.5q0 -10 -10 -11v11q-35 -10 -94 -11q10 -10 -10 -10v-33h-11v-141h11v-20l6 6q2 0 7 -3t18.5 -8.5t41.5 -11.5v-10q4 0 5 3t6 7q0 6 6 6q14 -8 14 -16 h377q-4 8 -2 12t14 4l14 -16h283q10 10 33 -4v4h94t51 -4v-53q-35 0 -59.5 -3.5t-44.5 -7.5v-41h-10v-16h10q8 -14 0 -33q-20 0 -21 -4q-6 0 0 4q-10 0 -10 -4q-33 -8 -55.5 -12t-38.5 -8v-37q10 0 10 -10q-6 -6 -10 -7v-120q-16 0 -10 -5q-10 -10 -70 -10v4q12 -4 4 -7 t-39 -3q0 -20 -6 -27h-6v-30q4 4 6 1t6 -7q-6 -4 -12 -5l-4 -120q-35 -4 -59.5 -7.5t-41.5 -3.5q4 -4 0 -5t-14 -5v-33h-6l1 -3t5 -7q-4 -43 -8 -77.5t-4 -57.5q-10 0 -10 -10q-35 -10 -88 -10q-8 -25 -17 -17v-168h-10q-4 -10 -4 -20q-33 0 -27 4q-20 -4 -32.5 -7t-20.5 -3 q8 -4 5 -5.5t-15 -5.5v-26h-11q-12 -35 -13 -73t3 -73q-27 0 -33 -6v-10q-31 -4 -49 -7t-22 -3q-12 -35 -13.5 -75t3.5 -87h-13v-21q0 -4 -2 -7t-6 -5t-12 -10q-4 4 -26.5 5t-57.5 1q0 -4 -10 -10v-420q4 8 5 7t5 -13q20 0 36.5 -6t16.5 -15q29 0 50.5 1t33.5 5v-6 q82 0 120 1t25 5q55 0 87 -1t40 -5q43 0 72 1t49 5v-6q4 0 47 17q35 6 58 0q29 -8 48 -12.5t36 -4.5q66 23 114 6q31 0 31 -6q8 4 13 5t10 1q35 4 55 3.5t33 -9.5q59 16 77 17q27 6 27 -6q41 12 71.5 13t59.5 -3q0 4 5 21.5t5 21.5h11z" />
<glyph unicode="[" d="M1106 -295v68h-10q-8 23 0 37h10q-23 53 -16 77q-31 0 -31 11q-51 0 -119 -3.5t-154 -7.5q-8 8 -15 13.5t-15 9.5q0 -16 -6 -23q-35 4 -63 7.5t-48 3.5v12q-35 0 -41 4q-10 16 0 47h10v16h-10q-8 14 0 37h10v31h-10q-4 12 -4 16q0 6 4 11h10q-4 8 -7 23.5t-3 43.5 q-12 0 -13 3t3 8q4 6 10 6q0 10 3 18t7 12h-10v242h-10q-8 20 0 41h10v367q-10 -6 -10 6q0 16 10 10v115h-10q-10 49 0 104h10v10q-23 0 -10 13q4 4 10 4v43h-10q-10 6 0 14q4 8 7 12l3 4h-10v142h10v37h-10q-8 14 0 36h10v15h-10q-10 10 0 26h10q0 68 -3 115t-7 80h10v16 h-10q-10 23 0 48h10v10h-10q-8 20 0 41h10v32h-10q-8 14 0 35h10v54q20 12 36.5 16t37.5 4q0 6 10 6q6 -6 0 -6q51 0 68 -10q12 -4 22 -1t14 11h31q20 -4 33.5 -5t26.5 -5q35 4 58 7t36 3q29 6 50 7t35.5 4t21.5 13.5t7 32.5v80h5q-4 8 -7.5 27.5t-3.5 50.5q-37 0 -41 6 q-43 0 -47 -6q-29 -18 -37 6q-20 -4 -43.5 -5t-56.5 -1q0 -10 -14 -10v10q-16 0 -17 -4q-10 -10 -26 0q-10 4 -15 7l-6 3q-31 0 -50 -1t-28 -5q-12 -4 -22 -3t-14 9q-53 0 -89 -1t-63 -5v6q-35 4 -62.5 1t-48.5 -7v6q-16 0 -26.5 -4t-26.5 -39v-14h6q4 -12 4 -23v-20v-25 q0 -10 -4 -22h-6v-47h6q4 -10 4 -31v-16q0 -6 -4 -11h-6v-84h6q4 -12 4 -22v-19v-22q0 -8 -4 -21h-6v-20h6q4 -6 4 -17q0 -10 -4 -16h-6q-4 -4 -4 -8q0 -2 4 -2q10 0 10 -10q0 -14 -10 -15v-59h6q4 -4 4 -14q0 -6 -4 -11h-6q6 4 10 -16q0 -20 -10 -10v-54h6q4 -10 4 -20v-21 v-16t-4 -20h-6v-37h6q4 -4 4 -10v-11v-10t-4 -10h-6v-17h6q4 -6 4 -20q0 -10 -4 -16h-6q0 -12 5 -11.5t5 -9.5q0 -6 -10 -6v-27h6v-141h-6v-14h6q4 -12 4 -54v-104h11q8 -23 0 -43h-11v-408q8 0 11.5 -3t-0.5 -7q-4 -6 -11 -6v-47h11q10 -43 0 -84h-11v-98h11 q0 -4 -3.5 -12.5t-7.5 -24.5l11 -10h-11v-27h11q10 -33 0 -74h-11q-4 -4 -4 -8q0 -2 4 -2q10 0 11 -10q0 -20 -11 -11v-36h11q8 -94 0 -195h-11v-20h11v-31q16 -12 28.5 -20.5t24.5 -12.5q20 0 20 6q66 6 84 -6q25 8 52.5 11t62.5 -1q0 12 12 13q4 -6 0 -13h15q6 -4 6 -10 q43 0 76.5 1t54.5 5v-6q16 0 27.5 3t19.5 7v6q4 4 10 5.5t10 1.5q16 0 21 -7v-6q31 0 37 -10q29 12 60.5 13t70.5 -3v6q12 0 21.5 13.5t25.5 13.5z" />
<glyph unicode="\" d="M1348 -301q10 25 -5 57q-8 39 0 54h5v77h-5q-4 12 -2 22.5t7 14.5h-5q-10 10 0 27h5v78h-5q-10 10 0 26h5v27q-23 0 -31 20h-88v31h-12q-6 23 0 37h12v43q-23 0 -17 4q4 6 17 6v58h-12q-6 23 0 47h12v47q-6 0 -27 20q-35 0 -55.5 1t-28.5 5q-10 0 -20 11v114 q-12 -8 -13 11q0 12 13 12v47h-6q-10 16 0 41h6v31h-6q-6 6 -7 26q-47 0 -74.5 3t-39.5 8v79h-10v41h10q-4 4 -5 13.5t-5 13.5q4 4 5 7t5 3v27q-4 -6 -21 10q-33 4 -55 4h-39q0 12 -10 12v152h-10q-10 6 0 14q-74 10 -101 17v6h-10t-10 4v164h-6q-6 20 0 35h6q-8 20 -9 40.5 t3 43.5q-10 0 -31 5t-31 5v12q-20 4 -33 4h-20v121q-23 37 -16 68h-89q-12 4 -19 10t-11 10q-8 8 0 33h4q0 4 -4 4q-10 10 0 27h4v137h-4q-8 18 0 41h4l-5 6t-5 24q-20 4 -36 5.5t-28 1.5h-14q-25 -14 -33 0q-4 6 -4 47h-10v37h10v26q-10 0 -10 4q-10 16 10 17q4 20 -10 20 q4 6 10 6q6 20 -10 21q-33 0 -52.5 1t-27.5 5q-10 4 -142 4v-20h-10v-168q10 0 10 -11q-4 -6 -10 -6v-84q12 -2 9 -4t-1 -6t18.5 -9t63.5 -11v-5q18 0 24.5 -12t6.5 -41h4q10 -137 0 -209q33 -20 60.5 -31.5t56.5 -11.5q0 10 14 -26q-4 -4 -10 0v-25h6q4 -10 4 -37v-73 l10 -11q9 -10 13 -10q29 -4 48 -5t36 -5v-17h4q4 -4 4 -10q0 -4 -4 -16h10q8 -16 0 -31h-10q6 0 10 -6q4 -12 5 -55t1 -117h10v-27q4 8 5.5 5t5.5 -15q27 -4 45 -6t29.5 -8t15.5 -20.5t4 -45.5h6q4 -18 4 -47v-68q8 8 24.5 -3t49.5 -11v-12q10 10 31 -4q4 -20 7 -35.5 t3 -28.5h12v-98h4q0 20 17 -23q27 0 30 -4v-6h37q0 -4 8.5 -9t8.5 -17q16 -41 10 -68h10v-178q16 0 16 -4q18 -4 34 -8.5t24 -8.5q0 20 31 -10q8 -8 0 -20h10q6 -6 6 -33q4 8 4 4v-18q6 -6 -4 -7v-41h4q8 -100 0 -153q12 -8 24.5 -14.5t22.5 -10.5h64q0 -4 1 -16t5 -31 q6 -33 0 -47q14 6 14 -12h-14q0 -4 7 -5t7 -6q-4 -4 -14 -4q0 -10 10 -10q4 -20 4 -55v-86q6 -6 6 -10h84q0 4 3 5t7 5q4 -4 5 -6v-4h116q1 14 15 14z" />
<glyph unicode="]" d="M1104 -301l-7 7t-3 13q0 23 6 27h4v471q-4 4 -7 8t-3 8q0 6 10 7v491h-10q8 8 10 6v21h-4q-6 0 -6 10t6 16h4v68q-10 0 -10 10q0 8 3 11.5t7 -1.5h-4q-4 4 -5 10.5t-1 10.5q0 16 6 22h4v11h-4q-4 4 -5 10t-1 10q0 16 6 21h4v26h-4q-4 16 -5 65.5t-1 133.5h-11v37h11 q0 4 -9 4q-6 0 -2 12q4 4 11 4v729h-11v37h11v58h-11v20q-20 8 -20 6q-35 6 -90 0q-35 -4 -56.5 -5t-31.5 -1v6q-68 0 -110 -1t-58 -5v6q-86 0 -146.5 -1t-95.5 -5q-27 0 -26 6q-31 -4 -53.5 -5t-35.5 -1l-6 -51h-10v-137q12 0 20.5 -3.5t12.5 -7.5v-10q31 0 37 -6h57 q0 6 10 6q4 -6 0 -6q29 -4 47.5 -7t30.5 -3q43 0 62.5 1t11.5 5v-6q43 4 74.5 7t50.5 3q31 -14 53 -14q0 -4 5 -5t10 -4.5t10.5 -11.5t5.5 -26h10q0 -12 -3 -22.5t-7 -14.5q10 0 10 -6v-764h10q10 -16 0 -33h-10v-21q10 0 10 -4q-4 -6 -10 -6v-84h10q10 -41 0 -78h-10 q0 4 2 4q4 0 8 -4q10 -27 0 -53h-10v-16h10q10 -23 0 -47h-10v-25h10q8 -33 0 -63h-10v-84h10q10 -41 0 -74h-10q6 -4 10 -4q10 -25 0 -60h-10h2q4 0 8 -4q10 -55 0 -168h-10v-16h10v-78q4 4 8 1t4 -11q4 -4 -12 -10v-158q-25 0 -31 -4v-12q-51 -4 -86.5 -5.5t-58.5 -5.5 q-12 0 -19.5 3.5t-2.5 7.5q-43 0 -72 -3.5t-49 -7.5v11q-4 -4 -18.5 -7.5t-43.5 -3.5v11q-35 0 -60.5 -3.5t-43.5 -7.5q4 -4 -6 -4l-6 -47h-5l5 -6q4 -12 5 -44t1 -91q4 4 10 -3t10 -20q8 0 24.5 -2t36 -3t38 -3t32.5 -2q-6 10 10 10v-10q8 0 19.5 1t23.5 5h37 q59 0 101.5 -3t66.5 -7l8 3q7 3 17 11q6 -4 6 -10q59 0 91 1t40 5q27 0 27 -6q35 0 61.5 3t42.5 7v6q4 0 11.5 10.5t19.5 10.5z" />
<glyph unicode="^" d="M1219 1518v14h-11q-6 47 0 100h11v31h-11v33q-16 4 -23 7l-7 3q-31 0 -31 -6q25 10 -53 10v127q-10 0 -11 14q0 6 11 7v20q-8 4 -11.5 5t0.5 5q-23 2 -48 5t-46.5 8.5t-33 12.5t-3.5 17q0 20 6 27h5v10h-5q0 27 -12 27l-104 4v43q-20 0 -15 4q6 10 15 0q0 20 -11 10 q-4 4 -4 15v22h-221q-16 -16 -16 -27v-20h6q27 -35 0 -41q-20 -8 -32.5 -11t-24.5 1v-6q-23 -8 -37 0v6h-17q-8 -25 -11 -44.5t-3 -29.5q-29 -16 -58.5 -21.5t-58.5 -1.5v-24h-10q6 -6 10 -6q8 -16 0 -31h-10v-74q10 10 10 -16q0 -4 -10 -4q0 -6 10 -6q10 -8 0 -15 q-10 -4 -13 -11t-7 -11q-20 0 -21 -10v6h-73q6 -6 -11 -6v-183q4 0 29 -17t45 -20q0 10 10 11v-11q35 4 59.5 7.5t45.5 3.5q10 -16 10 16q12 4 23.5 7t19.5 3v84h-6q-6 14 0 31h6v37q20 6 21 14q20 4 35.5 8.5t27.5 4.5v4q8 0 15.5 3t15.5 7q0 23 4 26h6q0 33 10 43.5 t10 -0.5q59 0 91 -1t41 -5q29 -4 50 -1t33 7v-16h11v-27h6q4 -4 4 -16q16 -10 28.5 -21.5t24.5 -15.5l64 -4v-10h10v-127q4 4 7 1t3 -11h-10v-25q4 8 7 7t3 -13q29 0 33 -8t8 -13h127q14 37 41 21q1 19 21 27z" />
<glyph unicode="_" d="M1346 -328v174h-7q-4 4 -4 27q-96 0 -154.5 -4t-86.5 -8q-2 0 -11.5 2t-21.5 4t-24.5 4t-20.5 2v10h-17v-10h-36v10q-23 -4 -40.5 -11l-27.5 -11q-35 0 -56.5 4t-33.5 8q-47 6 -78 -12q-35 0 -59.5 4t-40.5 8v10h-21v-10h-188v10h-37v-10h-37v10q-20 -4 -31.5 -7 t-19.5 -3h-168q0 6 -21 -16v-21h5q10 -10 0 -26h-5v-37q4 4 7.5 0t3.5 -17h-11v-71q-4 -4 15.5 -13.5t36.5 -13.5q6 -6 0 -10q12 4 34.5 -3t32.5 -7q-4 4 0 7t17 3v-10q20 0 20 4h10q8 0 13 -4h45t26 4q27 27 27 -4h20t33 4h88q12 -4 23 -4h20q-4 4 -1 7t11 3v-10h115 q-4 4 -1 7t11 3q0 -6 7 -10q57 0 67 4q-29 -4 17 -4h167q-4 4 -2 7t7 3q6 -6 6 -10q4 0 10 4q25 18 31 -4q59 0 103 3t75 7q-4 4 -3 7t13 3l10 -10h117q1 6 21 24z" />
<glyph unicode="`" d="M1147 1522q-12 0 -12 10q-8 12 12 12v31q-63 12 -87 19.5t-40 11.5v73q-10 0 -21.5 1t-15.5 6v4q-74 0 -78 6q-12 16 -13 35.5t3 42.5q-41 12 -70.5 18t-50.5 2q-10 10 -10 80q-6 0 -6 4h-41q4 -4 -10 -4q-12 4 -20.5 7t-12.5 7q-14 51 -15 80q-23 20 -43 21q-10 4 -22 1 t-25 -8q-10 -10 -22 -10q-10 0 -15 17q-61 0 -67 -7q-27 0 -27 7h-73q-18 -8 -35 -12.5t-27 -8.5v-84h10q6 0 0 -16q23 -4 39.5 -8.5t28.5 -8.5q33 0 33 -30h4v-41q-4 -6 20 -17q29 -4 45.5 -8t28.5 -12v4q-4 -4 20 -4q6 -6 7 -17h10v-40q10 0 10 -13q29 -4 51.5 -7t42.5 -3 q0 -4 6 -4q4 -10 5 -37h6q4 -6 4 -47q-10 0 33 -27q14 23 14 11q18 8 29.5 1.5t18.5 -18.5t10 -29.5t1 -31.5q10 10 11 -11h30v-6q14 -16 21 -10q63 8 92 12t24 4q0 -16 11 -16h61q0 10 6 10q4 -4 4 -8v-2q12 0 38 5t36 5v6q-4 4 3 7.5t18 3.5q0 33 12 41z" />
<glyph unicode="a" d="M1335 25v178q-12 4 -13 5t3 5q-12 0 -22.5 3t-14.5 7v-10q-43 6 -69 16v21h-5q-4 20 -5 47t-1 61q-4 4 -7 6.5t-3 6.5q4 4 5 7t5 3v199h-10v36h10v31h-10v131h10v293q-14 0 -10 6q0 10 10 0v84h-10v78h10v10h-10v23q-8 0 -24.5 3t-36 7t-37 7t-27.5 3v74q-10 0 -10 10 q-41 4 -67.5 5t-37.5 5q0 6 -3 16.5t-7 23t-6 24.5t0 20q-47 4 -83 7.5t-58 3.5q0 -4 -3 -5t-7 -6q-6 4 -7 11h-73v10q-31 0 -31 -10h-289q0 -10 -20 -11l-6 -53h-11v-37q-8 4 -15 2t-15 -6v4q12 -4 -5 -4h-49q4 -4 3 -5t-13 -5q-16 0 -10 10h-51v-6q-16 -6 -33 0v6h-41 q4 -4 -10 -10v-33q10 0 10 -10h-10v-131h10v-27q29 0 35 2t6 -16h37v10q68 -8 90 0q10 4 21.5 6t19.5 -2q0 29 20 23v41q10 0 11 10q53 4 88.5 7t58.5 -1q-10 10 10 10q6 -6 6 -10h99q53 20 63 21q47 -12 85 -18.5t67 -2.5v-16h10v-37h10v-16q23 0 33 -25q4 0 63 -16v-48h11 q6 -16 0 -30h-11v-10h11q6 -27 0 -54q-10 0 -11 -10q-117 -4 -201.5 -7t-144.5 -3q-27 -16 -47 -17v11h-194l-6 -105q-10 4 -15.5 7t-9.5 -1q-37 0 -37 -6q-16 -10 -33 6q0 -4 -14 -4q-12 0 -16 -12q-4 -29 -4 -49v-29q-16 -4 -39 -8t-52 -4v-10q-27 0 -30 -4v-33h10 q6 -23 0 -47h-10q0 -18 10 -25q0 -4 -4 -4q-2 0 -6 4v-43q4 4 7 3t3 -13q0 -10 -10 -10v-17h10q6 -14 0 -37h-10v-188h10q6 -16 0 -31h-10v-31q4 8 7 4t3 -16q0 -10 -10 -10v-21h10v-26q4 4 5 3t5 -13q84 0 94 -11q0 -29 3.5 -48t7.5 -29h10v-17q4 0 39 -10t65 -10 q4 -47 20.5 -72t33.5 -29q31 -4 54 -1t34 7v-6q43 0 47 6q10 -4 14 -5t8 -1q39 -4 66.5 -1t48.5 7v11h31q0 16 22 16l4 47q4 4 4 8q0 6 13 7q20 8 35.5 11t25.5 -1q4 0 15.5 13t21.5 13q-4 12 -4 17q0 6 4 10q16 6 16 16l6 37q20 14 84 0q4 -41 8 -60l3 -20q4 4 10 -8 t10 -12q49 0 88 -16q16 -33 17 -68q0 8 11 4t30 -25v11l8 -3t24 -8v11q39 -8 52 -17q20 -4 35.5 -1t27.5 7v11q20 8 29.5 12t13.5 4q-4 10 -3 15.5t13 5.5zM973 496h-4v-47q-33 -4 -56.5 -8.5t-44.5 -8.5q-10 -23 -6 -24h6v-64q-6 0 -6 -6q-39 -8 -66.5 -12t-47.5 -9v-30 q-14 0 -15 -11q6 -16 15 -16h-11q-4 -6 -4 -27q-12 0 -22.5 -3t-14.5 -7q-6 6 -37 6q-12 0 -37.5 -8t-41.5 -8v10q-18 4 -41 1t-43 -11q-8 6 -29 6q-18 0 -39.5 2t-42 7t-31.5 22v293h11l6 53q0 4 10 10t10 10q33 6 50.5 12.5t25.5 12.5t8 10v6h6v54q10 12 18.5 16t8.5 0 h119q0 10 43 10v-10q14 -8 37 0v10h14v-10q29 -4 51.5 -5t32.5 -1q6 -6 6 6q35 4 59.5 1t44.5 -7q0 6 21 6q12 -10 17 -13l5 -3v-17h11v-88h4v-110z" />
<glyph unicode="b" d="M1352 223v336q-31 0 -37 4v6q0 6 26 15v26h11v127h-11q-6 14 0 31h11v31h-11q-6 16 0 32h11v125h-11q-6 20 0 43h11q-4 4 -11 5q-6 41 0 83h11v21h-11v53h-10q2 6 -1 7t-7 3.5t-7 5.5t-1 11h-15q6 -10 -10 -17q-23 6 -33 17q-10 4 -18 4h-12v20h-10q-8 18 0 33h10 q0 27 -17 27q-35 4 -59.5 10t-44.5 10q-10 10 -10 62h-6q-6 8 0 22q-39 4 -68 4h-47q-4 12 -4 35v55q-8 4 -11.5 5.5t1.5 5.5q-27 0 -27 -6q-35 0 -58.5 1t-31.5 5q-147 6 -230 -11q-4 -4 -5 -8t-5 -8v-41q10 10 10 -12q-35 -10 -60.5 -15.5t-43.5 -9.5v-6q-4 0 -11 -8 t-12 -8v-51q-10 4 -18 -8.5t-12 -12.5q-35 -4 -61.5 -1t-43.5 11v346h-10q-8 82 0 166h10v94q-8 -4 -12 -2t-4 15q8 14 16 10v21h-10q-4 51 -5 90t-1 67q0 -4 -8.5 2t-28.5 19q-23 0 -39 -1t-29 -5v6q-35 0 -58 -3t-36 -8q0 -4 -13 -7t-13 -13l-5 -107h-6v-84h6q6 -39 0 -88 h-6l6 -6q6 -23 0 -78h-6q-4 -4 -1 -5t7 -5q6 -31 0 -104h-6v-17h6q4 -12 5 -49v-96h6v-49h-6v-68q4 4 5 3t1 -13q0 -10 -6 -10v-74h6v-27h-6v-61h6v-33h-6v-155h6v-60h-6v-41q6 0 6 -6q0 -4 -6 -4v-37q6 0 6 -10h-6v-27h6v-30h-6q0 -16 6 -21h-6v-27q4 8 5 7.5t1 -13.5 q4 -4 1 -7t-7 -3q4 -12 5 -31.5t1 -52.5q8 12 14 -10q-4 -6 -14 -6v-82h-6q-4 -45 -1 -77t7 -54h-6v-33h6v-47q8 18 14 -4q0 -18 -14 -11v-106q14 8 14 -10h-14v-135h10q4 -12 7 -13.5t24 -13.5q0 -6 6 -10h31v-11q4 -4 10 -5t10 -1q35 4 58.5 7.5t31.5 -1.5v11h31 q0 16 20 16v25h-4q-10 25 0 47h4l6 84h5q-8 20 16 26q68 12 86 -1t18 -76h7q4 -12 10 -11.5t6 -15.5q39 -4 69.5 -5t49.5 -5v-68l16 -16h68v-11q23 6 22 -6q86 0 136.5 1t62.5 5q-8 4 -7 7.5t11 3.5q10 -16 16 -17q41 0 71 1t50 5v11h21q4 4 5 8t5 8l6 47h10q-8 18 0 25 q59 16 88 16v6q23 0 23 11v14h-6v33h6q-4 4 0 10t14 10q0 4 18.5 14.5t34.5 6.5v6q4 4 31 4q1 16 21 16zM1126 469h-4v-37h-10q-10 -27 0 -51h10q-4 -33 -13 -41t-13 -12h-88q-6 -4 -7 -17h-6q-4 -27 -4 -47v-31q-12 -8 -20 -11t-17 1q0 6 -6 10q-16 -8 -27.5 -12t-19.5 -8 q-29 12 -63.5 13t-77.5 -3q-16 -4 -27.5 -5t-19.5 -5q-8 4 -28.5 7t-55.5 3q0 12 -3 13.5t-12 -3.5v27h-10q-4 29 -8 43l-4 14q-25 0 -51 17l-54 4q0 23 -10 6q0 74 -4 78q-23 23 -37 16q-41 6 -53 -6q-6 10 -31 10v47q10 0 10 17q0 12 -3 13t-7 -7v508q20 39 21 27l63 14 q-10 10 0 10t10 6q20 0 30.5 20.5t10.5 37.5q59 16 33 16v10h62q12 4 15 13.5t7 13.5v37l7 4t18 16q33 4 49 7t20 8q0 -10 10.5 -7.5t10.5 -7.5h57q23 0 27 4q23 -6 94 0q31 4 54.5 -4t33.5 -33v-41q16 0 16 -10h68q-4 -6 21 -16q-4 -4 -5 -8q0 -2 5 -2h6q0 -31 6 -37h4 q-2 -10 1 -28.5t6 -39t6 -40t3 -27.5q-16 0 -16 -17q0 -12 16 -6v-84h-10q-10 -25 0 -41h10v-10h-10l-6 -268q6 -4 16 -5v-10q-10 0 -16 -6q-4 -4 16 -4v-37q10 0 4 -6zM750 186h-15v17h4q-4 -4 3.5 -8.5t7.5 -8.5z" />
<glyph unicode="c" d="M1352 338q0 6 -11 6q-6 23 0 47h11v17h-11v41h-10q-6 23 0 47h10v20q-20 0 -25 8l-5 8l-64 5v6h-20v-6q-12 -4 -41 -5h-74q0 -27 -10 -16q4 -4 4 -84h-4q0 -63 10 -88q4 8 7 7t3 -13q-12 0 -14 -5t-6 -5l-6 6q8 -4 -7.5 -5t-50.5 -1q-4 -8 -5 -12.5t-5 -4.5 q-12 -4 -23.5 -10t-19.5 -10v-78q-20 0 -31 10v-10q-12 -8 -30 10v-10q-12 4 -36 7t-65 3q0 -20 -6 -20q-4 4 -4 6v4q-8 0 -19.5 2t-22.5 5t-20.5 6t-11.5 3q-55 -10 -84 -16v10q-12 0 -27.5 -3t-35.5 -7q-39 4 -69.5 8t-49.5 12v84h-6v115q-12 4 -17.5 7t-9.5 -1 q-51 0 -57 -6q-12 -4 -27.5 6.5t-19.5 10.5h16v63h-10q-8 20 0 37h10v20q-10 0 -16 4l6 478q14 0 14 10q6 -4 6 -10q4 0 13.5 10t13.5 10q25 0 14 -10h37v10q23 0 27 6v41h-10q-10 27 0 43q16 59 16 78q10 8 21.5 11t15.5 -1h10t10 -4q10 4 19 4h12h92t45 -4h54t34 4v-4 q16 0 17 10v-10h41q-10 10 10 10v-10q29 8 80 8t125 -4q0 -4 10 -4h21v-43h6q4 -20 5 -51t1 -74q8 -4 15 -9t16 -17h41q20 0 32 -4q35 4 59.5 7t45.5 7v10q4 0 12 10.5t18 5.5v31q-10 0 -10 17q0 6 10 6v108h-10q-4 8 0 23h-51q0 4 -8 7t-8 7q-16 4 -28.5 2t-25.5 -6 q4 31 2 54.5t-6 39.5q-20 4 -35 4h-22q-14 0 -20.5 -1t-10.5 -1h-6q-2 0 -10 2t-11.5 10.5t-5.5 16.5t-3 14t-7 6q0 10 15 11v22h-11q-4 10 -4 21q-43 0 -47 -6q-27 0 -27 6h-157v10q-31 0 -31 -10h-94q4 -4 1 -5t-7 -6q-4 4 -4 11q-90 0 -95 -6q-12 -10 -22 -8.5t-14 14.5 q-43 0 -68 -3t-33 -8l-4 -90h-80q-31 0 -41 -4v-90q-25 -8 -38 -13t-19 -9t-11 -6.5t-16 -2.5q-14 0 -20 11v6q-12 0 -17.5 -4t-9.5 -8v-125q8 12 17 -11q0 -16 -17 -16q6 -18 0 -27q-6 0 -6 -4h-47t-31 4q0 2 -6 0t-14 -6t-13.5 -12t-3.5 -16h6q6 -25 0 -48h-6v-16h6 q4 -8 5 -33v-61h6q6 -10 0 -27h-6v-57q0 -23 -5 -27h-6v-10h6q6 -25 0 -47h-6l11 -10v-269q4 4 10 -2t10 -18h37q12 -10 24.5 -16.5t22.5 -10.5q25 -109 16 -131h-10v-24h10q6 -6 7 -17h10v-16q-4 0 1 -3t23 -7v6q20 -4 36 -8.5t28 -8.5q6 -4 6 -16h10v-41h4q6 -6 6 -20 q4 8 10.5 4t10.5 -21q29 0 45 -3t29 -7q0 27 16 -16q14 -14 14 -68q25 -16 37 -21v11q33 6 58 0q0 -16 10 -17q27 0 33 6v11q20 6 41 0v-11q43 0 47 -6q29 0 51 1t39 5q-4 4 -3 7.5t13 3.5q27 -27 27 -17q14 0 14 6q8 -4 13 -5t10 -1q18 -4 31.5 -1t25.5 7v11l7 -3t20 -8v11 q14 6 34 0v-11q53 20 95 21q-23 16 6 16q0 35 5 41t5 11q0 -2 9 4t23.5 13t34 11t37.5 -2q0 23 17 17v88h-10q4 29 7 51t3 39h6q0 10 4 14h74q6 10 20 10q-4 4 3.5 11.5t17.5 15.5z" />
<glyph unicode="d" d="M1350 260q6 4 -11 4v289h-4q-10 14 0 31h4v463h-4q-10 14 0 30h4v111q-10 0 -10 14q0 8 3 11.5t7 -1.5v33q-4 -4 -7 -1t-3 11q0 10 10 11v30h-4q-10 27 0 54h4v16h-4q-10 72 0 152h4v26h-10v266h-4q-10 14 0 31h4v33q-10 0 -10 10q6 4 10 0v27h-4q-10 6 0 24h4v17h-4 q-8 23 0 47h4v20h-4q-6 6 -6 43q-6 0 -6 11h-31q4 -4 1 -5.5l-11 -5.5q-4 4 -7 5t1 6q-12 0 -35 2t-46.5 3t-47 3t-37.5 2v-209q14 0 14 -6q-4 -4 -14 -4v-80h-6v-21q6 6 6 -10q6 -10 -6 -10q-6 -6 0 -6t6 -11q0 -10 -6 -10q-4 -35 -1 -62.5t7 -47.5q8 12 14 -11 q-4 -4 -14 -4q6 -16 -6 -16q-4 -4 -4 -6h10v-262q14 16 14 -11q-20 -35 -20 -30q-10 -10 -68 -11v5q-20 -4 -35.5 -6.5t-32.5 1.5q0 20 -1 43t-5 52q-29 23 -53 16q-10 -4 -21.5 -6t-19.5 -6q0 -4 -5 3t-15 19v41h-11q-4 4 -5 14.5t-1 22.5h-100q0 -4 -3 -5t-7 -5v10h-74 q-18 -12 -29.5 -17t-11.5 -10q-4 -10 -5 -16t-1 -10h-41v26q-10 -6 -10 7q-16 8 -31.5 11t-26.5 -1v-43q4 4 5 2t6 -6q-16 0 -15.5 -10.5t-11.5 -10.5q8 -14 0 -22h-84q0 -4 -21 -4v-31q27 0 27 -27q0 -10 -6 -16h-21q0 -10 -6 -10q-63 -12 -95 -19.5t-36 -7.5l-4 -68 q-12 0 -26.5 -3t-26.5 -7v-10q-27 -10 -37 0v10q-10 0 -9 -8t-11 -8v-37h-11q0 4 2 4q4 0 9 -4q10 -25 0 -31h-11q-6 -8 -3 -23.5t8.5 -31.5t8.5 -31.5t-3 -23.5h-11v-78h11q8 -37 0 -74h-11l11 -10v-168q10 16 10 -16q0 -4 -10 -5v-26h6q6 -25 0 -47h-6v-21q4 4 5 2t5 -12 q10 -10 -10 -10v-316q4 4 7 2t3 -6q27 0 33 -6v-6h67v-14q4 -6 4 -47h13v-27q16 -8 27 -15.5t24 -11.5q-6 10 10 11l11 -5.5t-1 -5.5h33v-16h10q4 -4 4 -14v-27h6v-21q4 4 17 -6q-4 0 20.5 -3t83.5 -11v-6h15v6q45 6 69 20q4 -8 10.5 -15t10.5 -11h16v6q10 4 18.5 7t12.5 3 q51 4 92 1t70 -7q4 8 16 12t37 4q-12 8 4 27h-4q-10 18 0 25h4q0 23 6 26h16q-10 10 15 11v-11q53 12 84 16.5t43 0.5q4 10 7 7t3 -24q68 0 74 -4v-37h10q4 -4 4 -14v-29h10q6 -4 6 -10q31 0 31 6q12 8 22.5 7t14.5 -13q35 4 65.5 5t49.5 5q6 -4 6 17q20 0 20 10v262h11z M528 1386h-10v15h10v-15zM1110 432q-10 -6 -10 -14q-35 -4 -65.5 -7t-51.5 -3q-6 0 0 -17h-10v-80q-61 -6 -85 -17t-30 -27.5t-6 -35.5q0 -16 -14 -34h-54q0 4 -16 10q-20 0 -4 -10q-41 0 -68.5 -3.5t-46.5 -7.5q-29 8 -67.5 11.5t-85.5 -0.5q10 10 0 10q-25 0 -15 -10 q0 33 -1 55t-5 35h-10v14h-88q0 10 -12 10q-4 -4 -9 -4q-2 0 -2 4q0 23 -4 27h-10v20q10 0 14 7q-6 20 -14 20q10 0 14 6q0 4 -14 4v27h10q6 16 0 27h-10v26h10q6 14 0 31h-10v20h10q6 23 0 37q-10 0 -10 6h10q6 14 0 31h-10v21q14 0 14 10q-6 20 -14 12v41h10q6 14 0 31 h-10v90h14q0 18 -14 10v78q-8 0 -11 3t1 7h10v43q-8 0 -11 3t1 7h10v64q14 0 14 4q-6 23 -14 10v17h10q4 29 7 50t3 34q35 4 59.5 7t45.5 3v80q25 6 16 14h99h32v-10q20 -6 37 0v10h84q-4 -8 -3 -11t13 -3q18 6 11 14q61 0 67 6q0 -6 17 -6v-27h10q0 -51 10 -67 q29 -4 51.5 -5t42.5 -5q0 -20 6 -27q0 -27 5 -31h10v-26q4 -4 14 -4h23v-13q4 -4 14 -4h23v-6q6 -4 30 -4q0 -12 6.5 -21.5t10.5 -21.5h6v-229h10v-21h-10v-33h10v-20h-10v-105h10v-20h-10v-37h10v-80z" />
<glyph unicode="e" d="M1350 213v88h-11l3 7q4 7 8 20h-11q-6 20 0 43h11v14h-11v23h-229v-101q-41 -4 -68.5 -8t-48.5 -8l-4 -41h-6v-53q-18 0 -35.5 -4.5t-38.5 -16.5q0 10 -10 10q-4 0 -14 11q-8 2 -20.5 -2.5t-26 -9.5t-24.5 -7t-19 4q-51 14 -78 15q-63 0 -90 -11q-43 4 -78 7.5t-57 3.5 q0 4 -13.5 14t-13.5 22q0 4 3 7.5t7 -0.5v41q-20 8 -20 10q-29 4 -50.5 5t-33.5 5l-11 11q-10 12 -10 32h-10v27h10v24q-10 0 -10 13h10v30h-10v41h10v47t4 23q0 31 8.5 37t8.5 10q23 4 40 7t27 3q20 0 32.5 -1t21.5 -5q0 16 26 16q0 -4 10 -4t15 -12h32q10 0 21.5 1t15.5 5 q14 0 21 -6q63 4 110.5 5t77.5 1q63 4 110.5 1t78.5 -7q0 10 10 10q4 -4 5 -7l1 -3q-27 10 31 10v-10q51 0 87 3t60 7q0 20 21 17v30q-12 0 -13.5 3.5t2.5 7.5h11v32h-11q-8 18 0 27h11l6 68q0 37 98 36h10v314l-57 6v10h-68v84q-41 4 -70.5 5t-49.5 5q-6 4 -7 68h-10 q-4 29 -14 28t-27 3q4 -4 -10 -4q-6 0 -6 4l-51 6v20h-6q-4 6 -5 47q-4 -4 -11 6.5t-11 10.5q-51 0 -70.5 3t-7.5 7q-25 -16 -37 -20v10q-4 0 -11 3t-15 7v-4q-27 0 -27 4q-20 0 -31 -10v10q-23 -14 -73 -4q-43 4 -115 4h-168q-8 -12 -15.5 -17t-11.5 -10l-4 -61 q-35 -4 -60.5 -8t-43.5 -4l-12 -6q-11 -5 -11 -9v-20q12 8 13 -16q4 -6 -13 -7l-4 -36l-6 -5q-23 -4 -42 -2t-30 7q-33 -14 -32 -21v-104h-11v-21h11v-104q10 6 10 -11h-10v-131h-11l3 -1q3 -1 8 -5v-225q10 0 10 -10q-4 -6 -10 -6v-199q10 0 10 -4q-4 -6 -10 -6v-47 q10 10 10 -11h-10v-53q10 10 10 -10h-10v-94q6 2 8 2q4 0 10 -3t18.5 -8.5t36.5 -11.5v-6q43 0 37 -10q4 -29 8 -47.5t9 -30.5q27 0 47 -9.5t20 -17.5h51v-26q6 -4 6 -41h11v-17q12 -4 16 -7l4 -3q43 0 75 1t52 5q29 -4 48.5 -7t35.5 -3v-6q10 0 10 6q57 6 105 0v-6h20v6 q25 6 58 0v-6h53v6q20 6 41 0v-6h16v6q33 6 58 0v-6h20v6q53 8 76.5 11t27.5 3q-23 16 7 17l6 63h10q-8 18 0 25q35 0 41 -10q23 0 42 3t32 7q0 37 6 43l4 41q35 18 47 10v6q4 4 14.5 5t22.5 1q-6 4 10 21q21 0 21 10zM1120 1020h-10v-53q-16 10 -16 -11q0 -20 16 -10v-63 h-10l-6 -41q-29 -4 -48.5 -7.5t-29.5 -3.5q-4 4 -12.5 7.5t-20.5 3.5q-45 6 -61 -11v11q-29 0 -51.5 -3t-32.5 -8q-41 4 -71 7.5t-50 3.5q-57 6 -84 -11q0 10 -31 11q0 10 -22 -11q8 16 -21 11q-6 -10 -63 -11q-119 16 -142 11v86t-4 55h-10v16h10q6 23 0 48h-10v10h10l4 61 q12 8 6 17h95q10 10 10 26h10v51h10l7 27h57v-10q23 -6 47 0v10h16v-14q25 6 15 14h26v-10q47 -6 101 0v10h94v-10q25 -8 51 0v10h33q-8 -14 0 -14q4 0 6 7t14 7q-4 -10 0 -18.5t17 -8.5v-22q0 -10 4 -19h10v-26q4 0 22.5 -5t30.5 -5h37q4 -8 14.5 -15.5t22.5 -11.5v-78h10 v-10z" />
<glyph unicode="f" d="M1346 1255v84q-6 0 -7 11q-4 4 -1 7t8 3v67q-16 4 -27.5 8.5t-15.5 8.5q-18 4 -33 4q-12 0 -25 -10q-4 -4 -14 -1t-23 7v10h-37v-4q-47 -10 -88 0v4h-73v-4q-23 -8 -41 0v4h-74v-4q4 4 -33 4q-10 33 -20.5 65.5t0.5 59.5h6l-6 6q-6 33 0 74h6l-6 4q-6 55 0 111h6v47 q-6 0 -6 10q-4 6 6 6q0 20 11 25.5t15 15.5q10 -8 18.5 -15.5t12.5 -11.5h41q59 27 33 27v20q-12 4 -13 6.5t3 6.5h10l4 47q35 -10 62.5 -16.5t48.5 -10.5q4 -4 4 -10q0 -4 -4 -16q10 10 10 -17h-10v-10h10v-115q12 0 18 -3t2 -7h70q0 -16 10 -16q31 4 55.5 5t43.5 5 q4 0 12 16.5t24 16.5v51h7v33q-6 0 -7 10q0 4 7 4v33h-7v41q-10 0 -14 3t0 7q-10 4 -29.5 7t-54.5 3q0 10 -3 7t-8 0t-8 20.5t-3 66.5q-8 0 -11.5 3.5t0.5 7.5q-4 0 -6 -3t2 -8q-41 0 -63.5 3.5t-26.5 7.5q-20 -4 -45 -7.5t-59 -3.5v-10q-23 -6 -41 0v10h-37v11 q-4 -4 -19.5 -7.5t-38.5 -3.5q8 -8 -12 -14v-74q-4 -6 -51 -6q-33 10 -74 0v-61h-10q0 -27 -6 -27q-18 -8 -31.5 -11t-25.5 1v-10q-20 0 -31.5 -1t-20.5 -5l-6 -347h-4v-10q10 0 10 -10q-6 -6 -10 -6q0 -20 -12 -21q-98 0 -72 -10v-4q-35 -10 -57 0v4q0 -4 -19.5 -6 t-23.5 -14q0 12 -8.5 14t-12.5 6h-94v-4q-55 -10 -110 0v4q-29 -8 -48.5 -12t-29.5 -8l-6 -58h-5v-16h5q4 -20 5 -48t1 -67q-10 -10 20 -10l58 -6q-6 -20 6 -21h188q0 10 10 11q4 -6 4 -11h148h53q0 -16 6 -51t4 -53h4q6 -6 7 -80h4v-31q4 4 8 3t8 -13q0 -14 -20 -20l-7 -54 h-4v-125h4q4 -8 5.5 -17t1.5 -19q0 -12 -1 -20.5t-6 -16.5h-4v-31h4v-143h-4v-68q4 8 5 5t6 -15q10 -10 -11 -10v-17h4q4 -8 5.5 -28.5t1.5 -55.5q4 0 6 -3t-2 -7q0 -4 -4 -4l-7 -33h-4v-25h11v-272q4 8 4 6v-12q12 0 20 -3t12 -7v4q51 -4 92.5 -7t69.5 -8q0 4 27 21v39 q0 18 4 29h10v16h-10q-6 14 0 37h10v31h-10q-6 41 0 83h10v74q-8 -10 -14 17q0 4 14 4v26q-14 0 -14 4q6 10 14 0v74h-10q-6 25 0 47h10v94h-14q8 12 14 7v36h-10v351h10v32h-10v125h10q0 4 -7 8.5t-7 8.5h14v51q4 0 6 3t6 7q43 4 74 8t51 9q4 -4 10.5 -5.5t10.5 -5.5 q25 8 44 11.5t40 -0.5v-11q12 0 36.5 5.5t37.5 5.5q-4 4 -3 8t13 8q6 -6 6 -16h94v10q16 4 31 15t27 11z" />
<glyph unicode="g" d="M1350 -59h-4q-4 12 -5.5 21t-1.5 20q0 12 1 21t6 22h4q0 4 -4 4v141h4v23q-4 4 -11 4v352q-4 4 -4 14t4 10v43h-4v27h4v21q-4 4 -4 16q0 4 4 4v78q-4 6 -4 12q0 10 4 10v21h-4v41h4v74h-4v100h4v14q-4 0 -4 13q-6 4 4 4v16h-4v37h4v20h-4v41h4v17h-4v22t4 15h-4v88h4 q0 6 -4 6v131q-12 0 -22 1t-15 5v4h-43v-4q0 -6 -24 -6l-33 -17v-4q-16 -4 -27.5 -8t-19.5 -8v27q-8 4 -11 5t1 5q-20 0 -28.5 -3t-12.5 -7v-80q-29 -8 -55.5 -11.5t-51.5 -3.5q0 14 -14 15q-20 29 -25.5 51t-1.5 39q-27 0 -30 6v4h-23q4 -4 3 -7t-13 -3v10q-14 0 -10 -4 q-23 -8 -41 0v4h-17v-4q-121 -10 -225 0v4q-20 -4 -28 -7l-9 -3h-78q0 -4 -16 -10v-37q16 0 16 -11q-6 -6 -16 -6q0 -14 -4 -20q-18 0 -45 -3t-54.5 -7t-52 -7.5t-39.5 -3.5v-6q-4 -4 -30 6q4 -4 0 -5t-17 -5v-80q-82 -20 -125 -20v-64h11q0 -10 3 -15t7 -9q0 -8 -21 -27 v-225h11q8 -14 0 -33h-11v-72q10 16 11 -10q-4 -6 -11 -6v-125h11q8 -16 0 -37h-11v-33q10 10 11 -10q4 -4 0 -4q-2 0 -11 4v-41h11v-16q12 -4 26.5 -10.5t26.5 -10.5q8 18 31 11q2 6 6 2t9 -11.5t8 -16.5t3 -15h4v-43h13q4 -4 4 -11q27 0 30 -6v-10h17q-6 16 10 16 q16 -10 10 -16h37v-27h6q4 0 4 -30h6q6 0 0 -17q23 -10 40.5 -15t27.5 -9q-10 4 -6 7t33 3q0 -6 6 -10q14 0 14 4q27 10 27 -4h96q43 0 72 4v-4q41 0 47 4q27 10 26 -4q20 0 21 4q84 0 143.5 -3t102.5 -7v-5h37q-4 4 -3.5 7.5t13.5 3.5q20 -16 31.5 -24.5t11.5 -12.5 q0 -6 -6 0v-17h6q-4 -8 -1 -22t11 -35q6 -39 0 -63h-10v-84q8 18 14 -4q-16 -4 -59 -12.5t-72 -8.5v-84h-139q-55 0 -90 4q-10 0 -21 -4h-22q6 -6 -11 -16q-14 0 -14 16q-68 4 -119 6t-86 -2q-4 29 -8 48.5t-8 31.5q-16 0 -10 4q-35 4 -61.5 8t-43.5 9v10h-6q-4 4 -4 47h-10 v16q-23 -8 -23 -16v16q-10 4 -12 5t2 6h-57q-23 0 -27 4h-61q-4 0 -13.5 -7.5t-29.5 -19.5v-72q8 -4 15 -8t11 -8q29 -8 49.5 -12t38.5 -4v-31h13q4 -6 4 -41q4 4 9 2t17 -14l4 -4q25 -12 44.5 -16.5t35.5 -4.5q4 -12 4 -45v-86h6v-27q16 4 26.5 -4t10.5 -12h84v-10q4 0 5 3 t6 7q27 10 51 0v-10q4 4 8 1t4 -12q10 0 26.5 5.5t20.5 5.5v10q14 8 35 0v-10h16q-6 10 11 10q6 0 6 -10q4 0 5 3t5 7q27 10 53 0v-10q20 0 21 -11q16 4 51 7.5t94 3.5q12 8 26.5 11t26.5 -1q0 16 21 16l6 41h4v11q0 6 1 9t8 5t24 2h47v-4q4 0 4 4h33v-4q10 0 10 4 q31 4 54.5 7t39.5 3l15 53h12q-20 16 4 27q47 16 84 10v11q20 0 20 4q0 16 3.5 27.5t7.5 15.5zM1100 643q-33 0 -33 -16q-51 0 -61 -11v-10h-23q-14 -14 -4 -33h4v-10h-4q-6 0 -6 -26h-21v-11q-51 -4 -88 -4h-59q-10 -2 -27 -2h-33q-18 0 -34.5 1t-24.5 1q0 4 -6 0v4 q-12 4 -19.5 -5t-11.5 -9q-4 4 -9 7t-13 3h-11q-41 6 -61 0q-29 8 -51.5 11.5t-38.5 3.5v79q-4 16 -27 11v4q-14 0 -14 -4h-64q-23 6 -16 16v434h6q4 4 4 37h84q0 4 13.5 14.5t9.5 22.5h4v41h16q0 12 3 17t8 10q66 0 105.5 -3.5t55.5 -7.5q104 0 162 11q12 -8 17 -13l6 -4 v-37h10v-37q14 -20 31 -4q-4 4 10 4q0 -10 25.5 -17t48.5 -7v-27h10q-4 -25 0 -36t10 -16t13.5 -6t9.5 -5l51 -4q8 -23 30 -23q4 -27 9 -42l4 -15v-287z" />
<glyph unicode="h" d="M1350 113v20h-11q-6 18 0 33h11v27h-11q-6 37 0 67h11q0 12 -3.5 18.5t-7.5 2.5q6 6 11 6v41h-11q-6 16 0 26h11v95q-10 0 -12.5 3t1.5 7h11v37h-11q-4 6 0 10q4 8 7 12l4 4h-11q-6 55 0 94h11v15h-11q-6 16 0 37h11q0 12 -11 12v119h11v32q-10 0 -11 5v268q-16 0 -10 10 q-20 0 -31 -10v10q-16 -4 -27 -1t-16 11v-10q-23 -10 -30 0v10q-16 0 -21.5 5.5t-5.5 21.5q0 10 6 14h4v43q-35 4 -64.5 5t-49.5 6q0 16 -7 10v162q-23 8 -39 14t-30 10t-27.5 6t-32.5 2v4q-4 4 -8 -3t-8 -7q-12 0 -13 3t3 7h-199v-4q-29 -4 -48 -5t-32 -5q0 4 -10 4 q-6 6 0 10q-12 -8 -21.5 -12t-19.5 -8v-21q4 -4 7 -5t3 -5t-4 -4q-2 0 -6 4q0 -20 -4 -29.5t-8 -13.5q-18 -8 -30.5 -12t-20.5 -8v10q-16 8 -31 0q-10 -4 -14.5 -7t-8.5 -3q-4 -12 -5 -22.5t-5 -18.5q10 0 10 -12l-10 -14q-10 -15 -10 -27q-55 -10 -111 0q-4 12 -4 18v8h-10 q-12 20 -13 39t3 39q-23 0 -17 6q4 4 17 4v37h4q0 12 1 22.5t5 20.5h10q-6 0 -10 4q-8 14 0 33h10v162h-10q-8 14 0 37h10v41h-10q-8 14 0 32h10v11q-16 -10 -16 14q0 6 16 6v31q-16 -6 -16 16q0 4 16 4v17h-10q-6 6 -6 43q-4 0 -4 10t4 10v141q-4 4 -4 17h-33v-12 q-14 -6 -37 0v12l-14 -17q-16 -10 -33 0q-4 4 -4 17h-64v10q-10 0 -36 -27v-63h6q6 -23 0 -37h-6l-5 -61h-6v-47h6q6 -18 0 -33h-6v-10h6q6 -55 0 -111h-6v-14q4 4 5 1t6 -8v-303q6 -6 6 -79h-6v-162q10 0 6 -4l-6 -7v-403h6q6 -25 0 -57h-6v-21h6q6 -49 0 -94h-6 q4 -20 5 -33.5t1 -23.5v-174h-6v-11h6q6 -23 0 -41h-6v-22h6q6 -16 0 -31h-6v-20h6q6 -23 0 -43h-6v-21h6v-115q8 20 14 -6q59 -4 105.5 -7t78.5 -3q0 10 21 10q0 18 20 27v10q-4 6 -4 17q0 4 4 4v174q-4 4 -4 73q-16 -10 -16 5q6 6 16 6v686q39 10 66.5 18t48.5 8h43 q16 -4 27.5 -5t23.5 -1q4 4 9 12.5t34 18.5v152h10v26h125v-10h21q-6 16 10 16q8 -8 0 -16h53v10q53 8 101 0v-10h36v-16h11q4 -53 7 -93.5t7 -68.5q-6 -6 23 -21h47q4 6 14 6v-6q20 0 26.5 -4t6.5 -33q4 12 7 9.5t3 -19.5q-6 -6 -10 0q10 0 10 -31q0 -10 -1 -17t-5 -15h-4 v-21q20 0 10 -10h-10q0 -68 10 -94q10 10 10 -10q6 -10 -10 -11v-540h10v-31h-10v-10h10v-33h-10v-84h10q0 -10 -3 -18.5t-7 -16.5h10v-16q4 0 31 -17h111v6h77v27h-10q0 18 5 49t5 60h11z" />
<glyph unicode="i" d="M958 1649v73q-6 4 -6 11l6 4v20q-12 4 -13 6t7 6l6 5v110h-6v41q-76 16 -104 17q-35 4 -61.5 0.5t-38.5 -7.5q-4 4 -18.5 5.5t-33.5 1.5v10q-43 -10 -47 -17l-6 7q-12 0 -22.5 -1.5t-18.5 -5.5v-71h-6v-27q4 8 5 7t1 -13q0 -14 -6 -14h6v-185q47 -8 81 -12t54 -4h43 q20 8 35 0h37q8 4 28.5 5t55.5 1q-1 4 22 27zM1094 -12v30h-7v101h7v239h-7v101h7q0 6 -7 10v80h7v41h-7v94q-14 -6 -14 10q0 18 14 11v32q-20 0 -14 4q4 6 14 7v40h-10q-6 14 0 33h10v72q-14 -6 -14 10q0 12 14 12v189q-27 0 -20 20q16 0 20 4v23h-10q-6 18 0 25h10 q-4 6 -10 6q-6 27 0 53h10v14h-10q-6 16 0 33h10v119q-23 0 -39 4t-28 8q0 4 -5 7t-5 7h-37v-4q-4 -6 -31 -6q0 -12 -3 -16t-7 0q0 12 -12 12q-10 0 -15 4h-184q-68 0 -88 -4q-16 4 -28.5 7t-24.5 3v4h-52q4 -4 2 -7t-12 -3v10l-10 -10h-137q0 -10 -17 -10v-74q10 -6 11 -20 q0 -16 -11 -27q4 -20 5 -37.5t1 -29.5q4 4 7.5 3t3.5 -14q20 0 44.5 -1t59.5 -5v-10h43v10q8 -6 18.5 -2t21.5 10.5t22.5 10.5t21.5 -2q74 -16 130 -24.5t99 -12.5q12 -41 19.5 -68t7.5 -47h4q-4 -29 -7 -48.5t-3 -35.5h-4q4 -20 7 -38.5t3 -29.5q4 4 5 2t5 -14q4 -4 1 -7 t-11 -3v-21q4 4 5 3t5 -13q-4 -4 -5 -7t-5 1v-47q20 0 10 -10q0 -4 -10 -4v-340q4 4 5 0t5 -17q-6 -6 -10 -6v-393h4q6 -4 6 -14q0 -4 -1 -10.5t-5 -10.5h-4v-16q8 0 31 -17h94q-8 4 -7 5t13 1q20 0 17 -6q31 4 53.5 8.5t34.5 8.5z" />
<glyph unicode="j" d="M1272 1649q0 4 -6 4q-6 31 0 69h6v47h-6q-6 14 0 35h6v17h-6q-4 20 -4 45v59q-8 4 -11.5 5t0.5 5q-20 0 -34.5 1t-18.5 6q-16 0 -16 -7l-4 7q-29 0 -46.5 -1.5t-21.5 -5.5q-33 -6 -37 7q-20 -4 -31 -8l-12 -3q-16 4 -29 4h-22v7q-25 -4 -43 -8.5t-31 -8.5v-61h10 q8 -18 0 -33h-10v-14h10v-27h11v-37q-8 -20 -11.5 -38.5t0.5 -35.5h-10v-30q10 10 10 -7q43 -27 64 -26h41q20 8 43 0h41q23 8 47 0h47q35 10 47 6zM1282 -2v63q-4 4 -7 7.5t-3 7.5t3 5t7 5v23q-20 0 -20 20q4 0 6 10.5t14 5.5v267h-10v47h10v16h-10v141h10l-10 11v30h10 q-4 6 -10 7v145h10v12h-10v178q-10 -10 -10 11q0 10 10 10v188q-10 -10 -10 11q0 16 10 16v68h-6q-6 23 0 36h6v62h-6q-4 6 -4 16q-27 0 -31 6v4q-10 -8 -22.5 -12t-20.5 -8l-10 10q-37 0 -43 -4q-10 4 -15.5 6t-5.5 -2q-20 -4 -35.5 -6t-25.5 2v4q-41 0 -66.5 -5t-42 -10 t-23 -9t-6.5 -2v-68q4 0 27 -16q74 0 84 -4v-17h4q0 -51 3 -87t7 -58h-10v-64h10q8 -14 0 -37h-10v-47h10q4 -29 5.5 -68.5t1.5 -99.5h6q6 -25 0 -63h-6v-162h6q6 -23 0 -37h-6v-84h6q6 -16 0 -30h-6v-226q4 4 5 3t1 -13q6 -10 -6 -10v-10h6q6 -27 0 -54h-6v-26q6 6 6 -15 q8 -12 -6 -12q-6 -4 0 -4t6 -10t-6 -11q0 -25 -1.5 -41t-5.5 -28h-14q0 -4 -12 -4q-10 0 -15 -11h-43q-18 0 -30 5v-78q-6 2 -7 1t-3.5 -4t-7.5 -5t-19 -2v-11q-43 -10 -84 0v11q-4 0 -4 -9q0 -8 -10 -8q-20 0 -11 17h-43v-11q-25 -10 -57 0v11h-37q6 -6 -10 -17q-6 6 -6 17 h-15v-11q-25 -10 -47 0v11h-33v10h-4q-10 14 0 30h4v17q-14 0 -10 6q0 4 10 4v100l-20 21q-74 0 -84 4q0 6 -4 0q-8 12 -12 28.5t-4 45.5h-11v121h-20v-5q-16 0 -28.5 -1t-24.5 -5q0 4 -8.5 5t-12.5 6h-33q4 -4 2 -5h-12q-14 0 -10 5h-74q4 -4 2 -5h-12v-26h10v-27 q12 0 12 -6q0 -4 -4 -6t-8 2q-6 -10 0 -10q4 -4 8 -5t4 -5q0 -16 -12 -17v-90q35 -10 65.5 -15t51.5 -10v-22q14 16 14 -10h-14v-31h10q6 -25 0 -47h-10q0 -6 10 -6q0 -4 -3 -11.5t-7 -23.5h10q4 -6 4 -27q25 0 41.5 -3t28.5 -7q0 -4 6 -7t12 -7t12.5 -10.5t6.5 -18.5h4 q4 -12 5 -43t1 -82h4q10 0 0 -16q16 10 16 -11q12 4 22.5 1t14.5 -7q4 6 11 6q4 0 4 -6h32v-10h15q-6 10 16 10v-10h27v10q14 8 37 0v-10h20v10q12 4 22.5 5t14.5 1q27 0 27 -6q37 0 41 6v-6h251q23 16 41 17q0 20 -10 10v43q10 2 14.5 6t9.5 8t15 7.5t35 3.5q-4 4 3 10l7 6 h43v43q-10 6 -10 14h10l4 105q6 0 6 6q31 8 54.5 12t40.5 8q-4 4 6 15.5t14 11.5z" />
<glyph unicode="k" d="M1350 39v16h-11v17q-51 0 -73 14q-4 0 -11.5 4t-19.5 8q0 -4 -21 15q-8 14 0 32h11q-6 4 -11 5q-8 47 0 100h11v14h-11v17q-35 8 -60.5 12t-43.5 4q-16 6 -16 61h-7q-6 18 0 43h7l-7 7v77q-25 0 -14 11h-53v6l-51 4v16h-6q-4 10 -5 49v109h-6q-10 0 0 10h-49q-18 0 -29 4 v11q-12 4 -17 5t-9 5v157q20 8 28 12l9 5v4q16 4 27.5 5t19.5 1q29 12 33 19.5t-7 7.5q4 20 7.5 35.5t7.5 25.5q55 4 82.5 8t31.5 4q-6 20 7 21l6 57q10 0 15 4t36 17q25 8 43 0q0 16 20 16l4 7q3 7 7 20h-11q-10 6 0 24h11q-4 4 -1 9.5t7 17.5h35v10q20 4 35.5 8t27.5 9 l6 53h4v24q-10 0 -17 4.5t-3 12.5h-158v-6q-27 -8 -51 0v6h-43v-6q-23 -6 -47 0v6h-27q4 -4 3 -5t-13 -5v-58h-10q0 -27 -4 -26q-27 -10 -37 -11v11q-20 -4 -32 -7l-11 -4q-16 -16 -31 0q0 -29 -1 -48t-5 -32q-4 0 -4 -4q-29 -12 -48.5 -17t-35.5 -9v-21h4q10 -10 0 -26 q10 -6 -31 -17v-24h-4q0 -16 -6 -23q-16 -4 -26.5 -2t-14.5 14q-16 0 -35.5 -4t-38.5 -8v-20q8 12 15 -11q0 -18 -15 -10q0 -23 -1 -31t-5 -11t-10 -4t-16 -7v-4q6 4 -31 4q4 -4 4 -6l-10 -4q-8 20 -11.5 26t-3.5 -6h-36q0 -27 -1.5 -44t-5.5 -28h-10v-26q-43 -16 -61 -17 l-6 7l-58 4v16h-10q-8 131 0 256h10v80q-8 10 -12 25.5t-4 25.5q-10 0 -4 6q0 4 4 0v162h-4q-6 6 -6 16t6 15h4q0 6 -4 12q-10 0 0 10q0 4 4 4v80q-4 0 -4 11q-4 4 -2 7t6 3v424h-4v20q-14 -4 -23 0q-4 10 -4 53h-33q0 4 -4 5q-6 6 0 12h-30q6 -10 -13 -17q-16 0 -10 17 q-35 -4 -61.5 -8t-42.5 -9h-11v-36q10 10 11 -11q-4 -6 -11 -6v-30q10 16 11 -7q0 -10 -11 -10v-37h11v-37q4 0 10 -10t10 -10q-4 0 -10 -10.5t-10 -10.5v-10q6 4 10 -16q0 -14 -10 -4v-84q6 4 10 -17q0 -10 -10 -10v-37q10 0 10 -10q-4 -6 -10 -6v-47h6q-4 -29 -7.5 -48.5 t1.5 -35.5h-11v-10q6 0 11 -5v-342h6q6 -25 0 -51h-6v-110h6q6 -23 0 -37h-6v-68q4 4 5 3t5 -13q0 -10 -10 -10v-174h6q6 -18 0 -41h-6v-21h6q6 -43 0 -84h-6v-37q4 4 5 1t5 -7q0 -4 -10 -4v-20h6q6 -25 0 -47h-6v-60h6v-125h-6v-26h6q4 -35 4 -86v-123q8 6 16 -17 q27 0 37 -10q35 4 62.5 5t48.5 5v6h34q0 20 33 21v63h-10q-10 14 0 31h10v21h-10q-8 20 0 43h10q-12 20 -13 39.5t3 48.5h10v211h4q0 8 1 15t8.5 13t25 9.5t49.5 3.5v-11q12 4 22.5 5.5t14.5 5.5v57q16 10 17 20q23 4 42 7.5t35 -0.5v10h21q0 27 6 26h6q0 4 -4 5.5t-8 5.5 q-4 0 0 4q0 12 12 12v37q4 10 17.5 13t33.5 -9q8 -4 25 -4h39v-27h10q4 -53 5 -91t1 -66q27 -12 49.5 -17.5t38.5 -9.5q0 10 10 10q4 -4 8.5 -7t8.5 -3q4 -29 7 -46t3 -22h4q4 -12 5 -21t1 -22q0 -10 -1 -19t-5 -22h-4q4 0 7 -6t3 -24q4 4 5 2t1 -13q35 0 55.5 -4t33.5 -8 q6 6 20 -14v-80h6q4 -16 4 -37v-47q4 -4 8.5 -5t4.5 -5q35 -4 58 -7t36 -8v-22h10v-25h10v-37q4 8 5 7.5t5 -13.5q70 0 105 -10q12 4 28.5 7t45.5 3v6q6 0 30 11v51h11z" />
<glyph unicode="l" d="M969 14v109q-10 10 -11 16q0 6 11 6v25q-16 0 -11 6q0 12 11 6v58h-11v41h11v53h-11v57h11q-6 4 -11 4v121h11v127q-8 4 -11.5 5t0.5 5q0 6 11 0v95h-11v36h11v37h-11v35h11v47h-11v201h-12q-6 14 0 31h12v413q-10 -6 -16 17q0 12 16 4v84q-12 4 -16 5t0 5q4 6 16 6v277 q-16 -6 -16 6q0 16 16 16v31q4 0 -22 16q-35 0 -41 10q4 -4 1 -5t-7 -5q-4 4 -4 10q-55 0 -105 -16q0 4 -13 2t-13 14h-111q-23 -8 -42 -12t-32 -8v-6q-23 -6 -37 0v6h-51v-23q14 16 15 -10q-6 -18 -15 -10v-47q8 4 15.5 -2t11.5 -19q35 0 58.5 -1t35.5 -5q25 -8 47 6 q16 4 24.5 1t12.5 -7q14 -6 14 6q-4 -6 27 -6v-20q6 6 10 0v-801q10 6 11 -10q0 -6 -11 -6q6 0 11 -4q8 -90 0 -252h-11v-64h11q12 -8 0 -26h-11v-25h11q10 -10 0 -27h-11q-4 -6 11 -6q8 -23 0 -37h-11q0 -43 3 -76.5t8 -54.5q10 16 10 -10q0 -16 -10 -10v-158h-11 q6 -4 11 -4v-221h6q6 -14 0 -37h-6v-14h6q4 -6 4 -27q31 -14 47 -21q4 4 8 7.5t8 3.5v-11q10 0 27.5 3.5t36 7.5t34 7t23.5 3v10q21 0 27 6z" />
<glyph unicode="m" d="M1350 8q-4 0 -11 6v52h11v20h-11v27h11v37q-4 4 -7.5 8t-3.5 8q6 4 11 4v33h-11v30h11q-4 6 -11 7v71h11v43h-11v178h11v58h-11v37h11v16h-11v37h11v14q-2 -2 -11 6v324q-4 -4 -7 -1t-3 11q0 6 10 6v11h-4q-10 41 0 77h4v154q-18 6 -26 25q-16 10 -38 13t-50 3 q-10 27 -11 78q-8 0 -11 4t1 8h-63v10h-41v-10q-37 -8 -74 0v10h-16q0 -10 -17 -10q-16 0 -10 10h-25q0 -10 -16 -10q-20 0 -10 10h-23v-10q-18 -4 -30.5 -6t-20.5 -6l-6 -41h-4v-27q-37 -14 -64 -14v4q-4 4 -18 2t-33 -6v-268q-23 -6 -33 -17v-4q-10 -4 -22 -5t-25 -1 q-12 0 -21 1t-20 5v4q-16 0 -16 13q-8 14 0 34h6q0 12 -6 6q-10 14 0 31h6v23h-6q-4 43 -5 108.5t-1 151.5h-41q-12 4 -22.5 9t-14.5 13v-10q-31 0 -31 -12q-80 18 -121 12v10q-10 0 -20 -10q-20 0 -10 10h-43q10 -10 -11 -10q-6 4 -6 10q-2 -2 -13 -10t-23.5 -17.5 t-10.5 -9.5l-4 -63q-33 -4 -57 -4h-43v-12q-4 0 -10.5 -5.5t-10.5 -5.5v-10h11q8 -16 0 -31h-11v-73q10 10 11 -17q0 -16 -11 -10v-168h11q8 -16 0 -31h-11v-57h11q8 -25 0 -47h-11v-16h11q8 -20 0 -41h-11v-27q10 10 11 -10h-11q4 -29 7.5 -48.5t3.5 -35.5v-172h-11v-13h11 q8 -16 0 -30h-11v-21h11v-114h6q6 -29 -6 -37h6q4 -4 5 -8.5t5 -8.5q-4 -4 -5 -8t-5 -8h-6v-188q10 0 10 -5q0 -10 -10 0v-26h6q4 -6 4 -37h16q6 0 6 -10h58q25 0 37 4q35 -14 61 -15q4 10 15.5 17.5t27.5 3.5q0 10 10 10v848q-10 10 -10 16l10 11v73q-16 0 -10 7q0 4 10 4 v53h-10q0 25 10 31h-10q-8 20 0 43h10v43q0 18 4 28h6v23l105 -6v-17h10q4 -10 5 -34.5t1 -59.5q10 0 11 -4q0 -6 -11 -6v-135q-8 -8 15 -17q29 -4 45 -7t24 -3v-10q25 0 31 -6v-27q6 0 6 -4v-330h10q6 -23 0 -37h-10v-147h10q6 -14 0 -37h-10q4 -4 10 -4q6 -23 0 -43h-10 v-84q8 23 14 -4q-4 -6 -14 -6v-15h10q4 -20 4 -55v-82q10 10 11 -10q8 8 26 -10v-11q20 4 36 7.5t28 3.5q31 4 54.5 2t33.5 -13q4 4 15 17.5t28 13.5v27h4q4 0 2 4t-6 16v178h4q0 6 -4 7q-4 18 -5 37.5t-1 39.5t1 37t5 37h4v2q0 4 -4 8q-14 37 4 37l-4 4v185h4v16h-4 q-4 35 -5 66.5t-1 64.5q0 35 1 67.5t5 67.5h4v17q-4 0 -4 10q-6 4 4 4l6 37q41 35 94 27v6q20 4 21 10v27q-20 0 -15 4q4 6 11 6l4 125h10q-10 12 13.5 21t39.5 9q4 0 12.5 -4t18.5 -16q10 10 10 -27h10q6 -4 7 -10h6v-219q8 8 14 -10q0 -16 -14 -17v-135h10q6 -20 0 -26 h-10v-33h10v-125h-10v-84h10v-303h-10v-10h10q4 -29 4 -76v-109q4 8 5 5t1 -15l16 -5q15 -5 46 -16q12 0 37 11q29 8 36 0v-11q16 0 39 5.5t35 5.5q1 28 21 20z" />
<glyph unicode="n" d="M1350 8v246h-11q0 4 3.5 7t7.5 -1v74h-11q-6 18 0 41h11v110q-16 0 -18.5 7.5l-6.5 19.5l10 10h4v31h11v37h-11q-6 14 0 31h11v147h-11q-4 4 -4 8q0 6 4 19h11q0 4 -7.5 7t-3.5 7q0 4 2 4q4 0 9 -4v27h-11q-6 14 0 36h11v91h-11q-8 25 0 51h11q-4 16 -7.5 35.5t-3.5 48.5 q-10 0 -17 4t-3 12q-66 14 -105 14v179q-4 -4 -7 -2t-3 14h-22q12 -12 -4 -12q-25 0 -17 12h-41q-35 6 -26 24q-6 0 -7 58q-27 0 -14 12h-33v10h-14q6 -10 -10 -10q-20 0 -10 10h-23q10 -10 -10 -10q-14 0 -15 10h-26v-10q-55 -8 -101 0v10h-36q10 -10 -11 -10q-4 4 -4 10 h-26v-10q-33 -10 -58 0v10h-37q-37 -23 -57 -22v-58q-6 -4 -6 -10q-31 -8 -54.5 -11t-33.5 -3v-12q-23 0 -33 -11v-155q-20 -4 -44.5 -8.5t-59.5 -4.5q0 -16 -21 7v73h-10q-4 35 -5 86.5t-1 118.5h-47q4 -4 1 -8t-12 -4q-6 6 -6 12q-27 0 -34 -12q-4 0 -10.5 4t-16.5 8 q-16 6 -27 0q0 6 -20 -16q-27 6 -27 16h-26v-221h-11q10 27 11 -16q0 -16 -11 -11v-24h11q0 -27 -11 -27v-33h11v-34h-11v-70h11v-88q10 16 10 -10q-4 -6 -10 -7v-26h6q6 -18 0 -25h-6v-141h6q6 -39 0 -70h-6v-37q4 4 5 2t5 -6q0 -6 -10 -6v-293h6q6 -16 0 -30h-6v-58h6 q6 -18 0 -32h-6v-31h6q6 -33 0 -74h-6l5 -8t5 -39q12 -4 20 -8t13 -13h98q4 4 8 7.5t8 3.5v-11h31q4 0 20.5 15.5t32.5 15.5v105q-16 -6 -16 6q0 10 16 10v576h-10q0 59 3 105t7 79h31q0 10 6 10q4 0 6 -3t-2 -7h33v10h31q0 4 20 27v51h10q-6 10 7 22q29 8 36 -6 q16 0 28.5 3t23.5 8q4 -4 22 26v64q14 0 21 4l4 -4q8 -8 32 0q10 4 21 4h16q0 29 21 20v43q20 0 20 4v23h90t62 4q29 -4 48 -7t32 -3q4 -6 4 -47h10v-27q4 0 37 -10.5t67 -10.5v-16h7q4 -18 5 -46t1 -62h10q6 -55 0 -111h-10v-131q10 0 10 -6q0 -10 -10 0q-8 -14 0 -15 q10 0 10 -10q0 -8 -3 -11t-7 1v-16h10q6 -23 0 -37h-10v-54q4 4 7 3t3 -13q0 -10 -10 -10v-21h10q6 -16 0 -30h-10v-23q4 4 7 3t3 -13q0 -10 -10 -10v-21h10q6 -104 0 -209h-10h10v-153h10q6 -25 0 -58h-10v-20q10 -12 21.5 -16.5t19.5 -4.5q23 4 42 7.5t32 3.5 q25 14 30 -11q20 4 36 5.5t28 5.5q0 20 31 20z" />
<glyph unicode="o" d="M1346 324q0 4 -11 4q-6 0 0 6q4 4 5 6t6 -2v147h-7q-6 25 7 37q-6 -6 -11 0v529h-10q0 4 3 9t7 17q-10 0 -10 10q-12 4 -23.5 5.5t-19.5 5.5q-20 0 -16 -4q-10 -4 -18.5 -2t-12.5 6q-16 -6 -16 16q-16 43 -11 68q-14 0 -20 2l-9 3t-4 3t-8 2q-4 0 -4 2q0 4 4 8 q-6 -4 -6 -10q-23 -6 -37 0v10h-28q-8 0 -12.5 7.5t-5.5 26.5t-1 56q-10 -2 -24.5 0t-30.5 5t-30.5 6.5t-22.5 3.5q-12 25 -13.5 44t2.5 35q-29 0 -22 11h-145q6 -10 -11 -11q-10 0 0 11h-22v-11h-37v11h-25q6 -10 -10 -11q-6 4 -6 11h-27q10 -10 -10 -11q-23 0 -16 11h-146 q-12 -29 -16 -51.5t-4 -38.5q-35 -10 -60.5 -14.5t-46.5 -0.5q0 -12 -3 -17t-7 -9h10q10 -16 0 -27h-10q0 -31 -4 -37q18 -6 -104 -20l-7 -41h-10v-37q-33 -4 -55.5 -5t-38.5 -1q0 -4 -10.5 -6t-10.5 -15v-63q4 4 7.5 1t3.5 -11q0 -4 -3 -6.5t-8 1.5v-309l11 -10q0 -4 -4 -4 q-2 0 -7 4q0 -8 21 -27q-4 0 -7 -8t-14 -8v-27q4 4 7.5 3t3.5 -13q4 -4 1 -7t-12 -3v-68h11v-26h-11v-172h11v-17h10v-20q4 4 15.5 -9.5t15.5 -17.5q16 -4 27.5 -1t15.5 11q10 0 14 -13t16 -13q4 -10 5.5 -16.5t5.5 -10.5q0 -4 -4 -4q-6 0 0 -6q10 0 12 -7t2 -18q10 6 26 0 q8 -4 15.5 -8t11.5 -4v-4q4 0 11.5 -3t19.5 -7q18 -29 10 -43h10v-21q55 -31 95 -31q12 4 19 -20.5t7 -52.5h6q6 0 0 -17q123 -4 215 -7t156 -3q0 10 10 10v-10q35 0 60.5 3t46.5 7q0 10 4 17l6 51q4 0 11 13.5t20 13.5q10 -4 20 -5q12 0 29.5 7.5t34.5 7.5v53h10 q0 14 1 21.5t7 10.5t21.5 4t44.5 1v4q12 4 22 8t19 4v62q23 8 22 16q18 4 34.5 7t27.5 3q0 16 32 17q0 31 4 37h7zM1114 836h-4q-4 -51 -8 -87t-8 -59h10v-53h-10v-57h10v-273q-8 4 -19.5 -3t-21.5 -17q-43 0 -53 4q-8 14 -13.5 5t-10.5 -27.5t-10 -40t-13 -31.5 q-14 8 -21 0v-4q12 -4 -55.5 -8.5t-216.5 -14.5q0 -4 -6 -4v4q-8 0 -23.5 4t-38.5 8q-37 6 -70 0q0 25 -10 15q-4 0 -10 -4h-16q-18 16 -19.5 24t-5.5 12h-10v31q4 20 -16.5 27.5t-36.5 3.5l-64 6v74q0 29 -4 41q0 98 -11.5 122.5t-15.5 14.5q16 0 21 4l6 90q10 10 10 21 q0 8 -3 15t-7 11v58q4 10 7 22t3 25q0 10 -3 20t-7 21v16q4 8 7 19.5t3 21.5q0 12 -3 21.5t-7 21.5v84q4 0 4 27h10v24q10 0 17 6q33 0 51 2t25.5 3t9.5 3t4 2v64q14 -8 14 14h74v11h47v-11q14 -6 37 0v11q35 4 64.5 5t50.5 1l90 -6q0 -10 4 -11q8 0 11 3t-1 8h70 q10 -10 22 -15.5t25 -9.5v-23h4v-10h-4v-24q4 -6 30 -7v-6q29 -4 48.5 -7t29.5 -3q0 -10 1 -21.5t5 -15.5h11v-24h10v-23h-10v-31h10v-20q-4 -4 -7 -5t-3 -5t3 -8.5t7 -8.5v-20h-10v-33q8 4 12 2t8 -6v-16z" />
<glyph unicode="p" d="M1346 297v31q-10 0 -11 6q-8 14 11 14v74q-10 10 -11 16q-6 4 11 4q0 10 -5 11q-2 0 -6 -4q-10 33 0 57h11v67q-10 0 -11 7q-10 16 11 16v152h-11q-10 55 0 108h11v74q-12 0 -13.5 1t2.5 5t11 4v53h-11v94h-63q-16 8 -30.5 11.5t-27.5 -0.5q-8 12 -9 33.5t3 50.5 q-29 4 -50 5t-34 5v10q-53 0 -47 90h-63q-27 0 -45 4v27h-11q-12 12 0 20q4 4 7.5 8.5t3.5 8.5h-11q-4 12 -10 13t-6 13q-164 -8 -242 0q4 -4 2 -7t-6 -3q-6 4 -6 10h-53v11q-61 -12 -100 -16.5t-56 -4.5v-33h-10v-20q4 4 7 2t3 -6t-4 -4q-2 0 -6 4v-23h-137q-6 23 6 23v51 q-6 6 -23 6q-10 0 -20 10h-168v11q27 -10 -25 -11v-587q4 0 11 -4q0 -4 -4 -4q-2 0 -7 4v-21h5q10 -25 0 -59h-5v-250h5q10 -16 0 -33h-5q4 0 5 -4q8 -14 0 -70h-5v-10h5q8 -16 0 -31h-5v-10h5q8 -16 0 -31h-5v-22h5q10 -16 0 -41h-5l5 -6q10 -31 0 -88h-5l2 -2 q3 -2 6 -26.5t3 -82.5q4 4 5 3t5 -13q-6 -6 -10 -6q0 -25 -6 -31h-5v-27h5q8 -18 0 -40h-5v-21h5q4 -12 5 -47t1 -90q4 4 5 3t5 -13q-4 -4 -5 -7.5t-5 -3.5v-30q-6 0 20 -17h168q23 16 37 17v45q0 16 4 26h10v117h-10q-6 20 0 37h10q-6 14 -14 14q0 10 14 10v132 q-14 0 -14 6q4 4 14 4v63q10 0 11 6q43 23 84 15q0 -4 11 -6t11 -15q16 -41 10 -63q29 -8 40 -12l11 -3q16 0 23 5l4 -5q6 4 57 5v-5q12 4 23 5h20l5 -5q43 4 75 5h56q33 0 36 -5h78t60 5v53h4q-6 14 4 24.5t28.5 16.5t41 8t40.5 2q0 29 17 23v61q-6 -4 5 0t32.5 9 t50.5 10.5t59 2.5q4 -4 5 -8t6 -8q23 12 42 16.5t31 4.5q-16 16 11 16zM1110 412q-23 0 -23 -21q-14 6 -14 0q-6 -6 -10 -6q0 6 -6 6q-4 0 -4 -6q-57 0 -64 -10l-6 -64l-7 -7t-3 -7q-16 -10 -58 -10v4q-12 4 -34.5 3t-53.5 -13h-47h-121h-32l-3 1q-3 1 -8 5q-20 0 -20 -6 q-27 10 -53 0h-11q-10 0 -28.5 8t-22.5 8v14h-10q0 57 -16 74q-6 0 -6 6q-16 0 -47 5t-48 5v17h-10v153t-4 109h-6v25h6q6 14 0 36h-6v27q10 -10 10 6q0 14 -10 14q-4 0 -4 3q0 4 4 8h6l4 225h10v37q25 25 43 16q23 4 42.5 7t31.5 3q0 51 11.5 62.5t9.5 15.5h114l10 11v-11 q27 -6 54 0q6 10 10 11v-11q41 -6 88 0v11h27v-11q39 -6 79 0q0 10 5 11v-11h73q-4 -4 0 -7t17 -3v-31h4q0 -33 13 -43l13 -10h74q8 -10 11 -15l3 -5q0 -16 1.5 -26.5t5.5 -14.5h10v-269q0 -4 6 0v-26q-12 0 -6 -10q0 -4 6 -11v-14h-6v-37h6v-70h-6v-24h6v-43h-6v-47h6v-17 h-6v-24q10 0 6 -6z" />
<glyph unicode="q" d="M1339 -248v31h-4q-8 14 0 37h4q0 6 -4 6q-10 14 0 31h4v10q-4 6 -10 6v711q-4 6 -4 53h4v12q0 2 -4 -2q-8 20 0 43h4v320q-4 0 -4 4q-4 4 -2 7t6 3v74h-4q-10 14 0 30h4v23h-4v135h-12q-6 27 -15 27q-10 10 11 10v23q0 10 4 20h12v41q-20 4 -34.5 5t-18.5 5q-78 0 -84 -4 q-27 -23 -37 4l-13 -4q-12 -4 -34 -16q-4 -4 -8 -10.5t-9 -10.5q12 -8 20.5 -13t16.5 -9q-6 -20 -14 -21q-29 -4 -44 -7t-19 -3v6q-6 -6 -64 -6q-16 10 -31 10q-4 29 -5 45.5t-5 28.5q-23 0 -33 16q-51 0 -51 -6h-272q-29 -4 -51.5 -7t-42.5 -3l-17 -16v-62q-8 0 -22.5 -3 t-32 -6t-32.5 -5t-23 -2l-5 -88q-20 0 -20 -6q-100 0 -104 6q-31 6 -51.5 1t-36 -12.5t-24.5 -13.5t-15 -2v-121q8 6 16 -6q0 -14 -16 -14v-74h10q8 -53 0 -104h-10v-54h10q10 -6 0 -30h-10v-27h10v-131h-10v-27h10q10 -33 0 -57h-10v-131h10q10 -16 0 -27h-10v-78h10 q6 -6 6 -16q23 -20 41 -20h168v-5q16 4 23.5 -14t7.5 -49h6q8 -8 0 -16q-8 -6 84 -21q0 6 20 -16v-37h10q4 -4 12.5 -19.5t24.5 -31.5q43 0 76 3t55 7v4q23 8 37 0v-4q20 0 32.5 -3t20.5 -7q68 0 95 10v-10q47 16 94 10v4q4 0 11 11.5t20 11.5l6 36h4v31q53 23 80 17 q8 -12 24 -23v-47h10v-105h13q6 -20 0 -41h-13v-67q16 0 17 -12q-4 -4 -17 -4v-37h13q6 -16 0 -31h-13v-33h13q6 -23 0 -47h-13v-20q10 10 17 -11q-4 -6 -17 -6v-10q68 -33 74 -27v-10q20 0 21 10q6 0 6 -10h26q0 10 11 10q6 0 6 -10q57 10 78 10q0 16 20 17l6 63h4z M1087 432q-8 0 -38.5 -8t-85.5 -29q0 -10 10 -10v-51q-20 0 -21 -17q-33 0 -55.5 -3t-34.5 -7q-12 20 -35 10q-27 -10 -43 -10v10q-16 4 -31.5 1t-31.5 -11q-8 4 -35 7t-70 3q0 4 -4 3t-16 -13q-8 4 -30.5 7t-63.5 3q-4 0 -9.5 10.5t-17.5 6.5v49q0 20 -4 29h-53 q10 10 -17 10q-25 0 -14 -10v10h-37v446q-6 4 -10 4v43h10l4 142q-10 0 5.5 14t31.5 10q0 -4 6 -10q20 20 28.5 21.5t12.5 5.5l22.5 15t14.5 11v37h10q4 16 8.5 26.5t38.5 10.5v-6q41 0 71 1t50 5q37 0 80 -16q16 0 41 8t37 8q14 0 33.5 -3t40 -8t39 -8t28.5 -3 q0 -51 17 -78q4 0 4 -11q29 0 50 -3t34 -7q0 4 10 4q0 -10 6 -10h4v-24h10v-64h-10q-6 -10 0 -27h10v-20q-4 4 -7 3t-3 -9q0 -10 3 -14.5t7 -0.5v-251h-10q-4 -4 -4 -11q0 -4 4 -16h10v-205z" />
<glyph unicode="r" d="M1346 852v57q-16 0 -11 6q0 4 11 5v36h-7q-4 23 -4 58v84q-39 0 -32 26q-10 0 -11 -10q-10 -4 -21 -8t-16 -8q0 16 -14 16q-10 0 0 10h-33q-6 6 0 31h11v21q-10 4 -14.5 6t-0.5 6t15 4v16q-20 0 -15 4v-4q-8 -4 -17 -2t-20 6v-4q-12 4 -31.5 7.5t-41.5 3.5v84 q-10 0 -11 10q-35 4 -61.5 5t-42.5 5q-25 45 -16 74h-5q-8 6 0 20h-73q-27 0 -43 -4q-31 -4 -55.5 -2t-43.5 6q2 -2 -6 -10q0 -74 -4 -78q-41 -4 -59.5 -7t-14.5 -3q-4 4 -18 1t-35 -7q-4 -4 -4 -10v-11l-6 -57q4 0 -1 -4t-26 -12q-20 0 -31.5 1t-19.5 5q-23 -16 -37 -17 v-84h-104q-12 8 -20.5 15.5t-12.5 11.5v109q-14 -6 -14 12q0 10 14 10v72q-14 31 -14 53q-12 4 -22.5 5t-14.5 5q-4 -4 -25 -4h-49v4q-20 0 -20 -4q-27 0 -27 4h-47q-4 0 -13 -10l-8 -10v-21q4 4 5 2v-12q0 -12 -5 -12v-586h5v-53h-5v-62q4 4 5 -16q0 -6 -5 -6v-51h5v-37h-5 v-17q4 0 5 -4v-518q16 16 16 -12q6 8 63 -15v-10h68v10q4 0 18.5 5.5t18.5 5.5v-11q35 0 51 11q-16 16 10 16v41q-10 0 -10 10q-6 10 10 11v110h-10v27h10v121q-16 0 -10 10h10v94h-10v47h10v121h-10v35h10v121q-4 4 -7 8t-3 8h10v111q20 10 39 17t35 3q0 -4 33 10 q20 39 20 64q80 33 94 26v11q14 0 21 4l6 57q4 0 4 6q20 4 39 7t35 3v11q29 0 36 1t-5 5q4 8 5 12t5 8q0 20 1 31.5t6 16t17.5 7.5t34.5 9q29 6 51 0q4 -4 19.5 -2t44.5 6q23 4 39 3t29 -13q6 0 6 -27h10v-31h4q6 -6 6 -26q12 -8 22.5 -12.5t18.5 -8.5h37q0 10 16 10l3 -7 q4 -7 8 -19h6q4 -4 4 -37q4 0 10 -10h-10v-94q20 -12 29.5 -20.5t13.5 -16.5h72q4 -29 6 -47.5t6 -30.5q27 0 46 -3t36 -7q0 27 22 26q0 25 4 31h7z" />
<glyph unicode="s" d="M1350 229h-11q-6 20 0 35h11v17h-11v315q-16 0 -10 10q-23 4 -39 4h-28q-29 -14 -48 -14q-6 4 -6 10q-14 0 -14 -10v10h-59q-25 0 -41 4v21q-6 0 -7 6q-6 16 7 16v31h-7q-6 0 0 16q-23 4 -39 5.5t-28 5.5q-16 6 -27 -11q-4 4 -4 11l-6 -6q-43 0 -77 3t-54 7q-4 20 -7 25 t-3 1h-4q-6 6 -7 17q0 10 7 10h4v37q-10 0 -11 10h-36v-10q-66 12 -118 16t-87 4v68q-4 0 -15.5 8t-15.5 8q-66 4 -118 5t-87 6v10h-20l6 246q12 0 88 16q29 4 49.5 7t40.5 -1q18 -4 31.5 -8t25.5 -8q14 23 15 6q88 -4 153.5 -7t108.5 1q-6 10 10 10q6 -4 6 -10q68 4 116 5 t83 1q0 20 20 -12v-21h7q4 -20 5 -55t1 -86h4q2 0 1 -2t0 -7.5t6 -10.5t19 -11h152q4 12 11 17.5t16 9.5h20q0 4 3 7l7 7v184q-16 4 -23 6.5t-7 -2.5q-8 4 -12.5 2t-8.5 -6l-6 4q-23 0 -42 1t-32 6v84q-4 0 -4 10q-41 4 -67.5 5t-42.5 5q-4 8 -5.5 26.5t-1.5 47.5 q-25 0 -14 10q-33 4 -55.5 5t-34.5 5q-41 0 -41 -4q-27 0 -27 4h-100q0 -2 -14 -10v10q-20 0 -17 -4h-61q-27 0 -37 4q-20 4 -43 4t-41 -8q-23 -23 -33 4h-61q-27 0 -43 -4v4q-25 0 -31 -10v10q-43 0 -43 -4q-27 0 -26 4q-14 -6 -15 -20v-47h4q12 -8 9 -15.5t-13 -11.5 q-45 -14 -90 -4h-24l-17 -16v-78q-35 -10 -62.5 -13.5t-47.5 -3.5q4 -4 0.5 -5t-11.5 -5v-22h6q4 -4 5 -15q0 -10 -5 -10h-6v-47q6 0 11 -6q0 -6 -11 0v-47h6q4 -4 5 -13v-14q0 -20 -5 -31h-6v-172h6q4 -6 5 -26q6 4 6 0l67 -7v-10h47q-10 16 17 17v-17q39 0 58.5 -3 t27.5 -6t8 -7v-4h10v-43h4q6 -4 6 -25q29 0 45.5 -3t28.5 -7q-6 4 4 4q6 0 6 -4q20 0 21 4q35 -4 65.5 -7t49.5 -3q4 -12 7 -16l3 -5h12v-47h10q6 0 0 -16q18 -12 37 -16.5t31 -0.5q27 -6 27 7q31 6 30 -7q14 -6 37 0q12 4 22.5 5.5t14.5 1.5v4q23 8 41 0v-4q47 0 53 -7 q27 0 27 7q6 6 26 -7q6 -6 0 -20h11q4 -4 4 -14v-27q6 4 6 0q4 -12 13 -20.5t18 -16.5h43v4q20 8 34 0v-10h7q6 -4 6 -27h4q4 -4 5 -10t1 -10t-1 -10t-5 -11h-4v-30h4q6 -6 6 -17q0 -6 -6 -10h-4v-16h4q4 -12 5 -23.5t1 -23.5t-1 -21.5t-5 -19.5h-4q0 -23 -6 -27 q-12 0 -22.5 -3t-14.5 -7v-6q-14 -6 -37 0v6h-115q6 -10 -6 -10q-25 0 -14 10h-64v-6q-23 -6 -41 0v6h-69v-6q-154 12 -243 16t-118 4q-8 8 0 27h-10q-10 25 0 47h10q-6 0 -10 6q-8 76 0 162h10q-8 4 -17 19.5t-30 27.5h-121q-49 -16 -73 -17q4 -35 7 -58t-1 -36h-6v-37 q4 4 5 3t1 -13q4 -4 -6 -4v-147q33 -8 56 -15.5t44 -11.5q4 0 4 -20h6v-41h10q6 -6 7 -17q-14 -6 20 -20h74q0 4 20 -17q0 -27 10 -26q6 -6 -10 0l5 -11q5 -10 5 -30q20 -4 33 -7.5t25 -3.5q-4 4 0 7.5t16 3.5q10 -8 18.5 -12.5t12.5 -8.5h43v10q35 6 72 0v-10h63v10 q41 6 90 0v-10h58v10q20 6 30 0v-10h125v10h47q20 0 33 5q4 8 7 5t3 -20h31v10q16 0 20.5 15.5t16.5 25.5q0 35 13 44.5t77 9.5q4 -8 7 -5t3 19q8 0 12.5 4t8.5 8v47h6q-4 4 0 10.5t14 10.5q4 4 20.5 7t47.5 3q0 20 26 21q0 12 3.5 20t7.5 12z" />
<glyph unicode="t" d="M1346 186v27h-7q-6 14 0 37h7v20q-10 -10 -11 11q0 20 11 10v33q-20 0 -11 10h11v24q-12 0 -13.5 1t2.5 6q-12 0 -39.5 3t-70.5 7q-68 8 -105 0v-41q10 0 4 -6q0 -4 -4 -4q0 -33 -6 -33q-66 -16 -94 -10v-5q-16 -4 -24 -8l-7 -4q-4 -27 -5 -44t-1 -27q-29 -8 -47 -13.5 t-31 -9.5q-47 4 -83 7t-58 -1q-16 16 -27 17v20h-16v717q-10 0 -10 6q0 10 10 10l6 178h10v27q35 4 62.5 7t48.5 7q0 10 10 11q4 0 6 -3.5t-2 -7.5h12q10 0 11 -10q82 0 131 15.5t78 11.5v84h-11v100q-16 -10 -16 4q-35 4 -59.5 10t-44.5 11q-8 0 -17 -15q-8 4 -19.5 7 t-31.5 3h-6h-29q-10 0 -18 5q-20 0 -21 -5q-35 -4 -59.5 -2t-40.5 7v225h-10q0 16 3 23.5t7 2.5v64h-10v182h-25v10q-18 0 -12 -10q-47 -6 -88 0v10h-37q-16 -8 -30.5 -12t-26.5 -8q0 -31 -21 -31v-63h10q6 -23 0 -62h-10v-147q6 6 14 -6q0 -4 -14 -4v-158q-23 8 -22 -16 q-4 -4 -68 -5v5q-74 -4 -129 -7.5t-96 -3.5q-4 -4 -5 -7t-6 -7h-30l-6 -100h-5q4 -31 7.5 -50.5t3.5 -23.5q20 -12 35.5 -22.5t25.5 -14.5q14 12 74 6v-6q12 0 31.5 3t48.5 7v11q4 0 14 1t21 5l32 -17q23 -4 39.5 -7t28.5 -7v-10h6v-158q8 8 14 -10q0 -18 -14 -10v-54 q6 10 14 0v-360h7q4 -12 4 -23v-20v-17q0 -8 -4 -20h-7v-178h7q4 -4 4 -15q0 -6 -4 -12h-7v-61h7q4 -4 4 -10v-11v-12q0 -6 -4 -10h-7v-78l17 -16l53 -5v-6q43 0 45 -11t2 -30h4v-47q27 0 21 -6q76 -4 189.5 -7t266.5 -3q0 16 21 16v51h10q-6 8 6 27q35 4 54.5 7t23.5 3v6 q6 4 21 5q0 20 6 26h6v41q4 4 7 5l3 1q18 12 36.5 18.5t35.5 2.5v6q4 4 10 4h12q1 26 11 16z" />
<glyph unicode="u" d="M1348 -33v434q-6 6 -7 74h7v21q-10 -10 -11 10q0 6 11 6q-6 0 -7 4q-6 25 0 47h7v101h-7q-4 12 -4 16q0 6 4 10h7v21h-7q-6 14 0 30h7v74h-7q-6 14 0 31h7l-8 3q-7 3 -3 7q0 16 11 16v84h-7q-4 43 -4 107v149h-6q-6 18 0 33h6v68h-6q-6 14 0 30h6v23q-10 0 -10 4h-70 q6 -4 -14 -4q0 -4 -3 0t-7 14q-20 0 -52 -3t-75 -7v-57h-10q0 -10 10 -21v-168h-10v-53h10v-162q8 14 16 -6q0 -10 -16 -10v-14q6 4 16 -7q0 -4 -16 -4v-473q-10 0 -10 -10q-16 0 -50 -7t-55 -7l-6 -47h-4v-33q-10 0 -26.5 -2t-34 -3t-33 -3t-23.5 -2q0 -20 -4 -27h-6v-47 t-4 -31q-63 0 -68 -6q-98 10 -172.5 13t-122.5 3q-14 0 -14 58h-6q-4 8 -4 14v12q-27 0 -33 6v5h-63q0 16 -15 16q-4 20 -5 73.5t-1 145.5q-10 0 -10 10q4 4 5 7.5t5 3.5v241h-10q-6 23 0 47h10v189h-10q-6 23 0 37h10v20h-10q-6 39 0 80h10v10h-10q-6 23 0 47h10v52h-10 q-6 20 0 26h10q-4 8 -7 27.5t-3 52.5h-31v4q-25 8 -43 11t-31 -1v-4q-29 -10 -36 4q-27 0 -27 -4q-25 0 -25 4q-31 0 -37 -10v-319q4 4 7.5 3t3.5 -14q0 -6 -11 -6v-98q10 10 11 -6q6 -6 -11 0v-74q4 10 7.5 9t3.5 -13q0 -10 -11 -10q-10 -18 5 -43q16 -23 0 -47h-5v-62h5 q4 -4 4 -10q0 -4 -4 -16h-5v-138h5q8 -18 16 -24q0 -6 -10 -6q6 -10 10 -11q0 -6 -10 -6q0 -25 -6 -30h-5q-4 -4 3.5 -7.5t7.5 -13.5q0 -6 -11 -6v-88q10 0 11 -6q-6 -4 -11 -4v-43q-4 0 2.5 -3.5t18.5 -13.5q78 0 94 -10q0 -10 7.5 -37t2.5 -47q4 4 8.5 3t8.5 -13 q27 0 37 -10v10q18 -4 34.5 -7t26.5 -8q6 -6 6 -26h4v-47q10 6 11 -6q27 0 32 -5v-6h52q0 6 22 -16v-35h10q4 -6 4 -27q4 10 5.5 8.5t1.5 -18.5h73q88 -25 142 -16v-10h14v10h74q27 16 47 16q8 25 10 38t4 19.5t5 8.5t14 6q27 4 49 8t39 8q0 20 6 27h10v16q-16 -10 -16 11 q20 29 21 32.5t5 8.5q78 0 105 -11q8 -23 11 -40t-1 -27q6 12 16 -11q0 -12 -16 -6v-88q6 4 16 -6q29 -4 78 -7t115 -3q0 16 33 16z" />
<glyph unicode="v" d="M1335 1047v391q-10 0 -10 12h-94q4 -4 3 -6t-9 -6q-25 0 -17 12h-84q4 -4 4 -6t-8 -6q-4 4 -7 6t1 6q-10 4 -9 -4t-11 -8v-15q12 6 20 -6q8 -23 0 -41q-10 4 -20 -6v-27h10v-24h-10q4 -4 5 -8t5 -8q0 -6 -10 -7v-229q-10 0 -11 -10q-27 -10 -94 -10q0 -6 -10 -7 q-4 -16 -5 -27.5t-5 -19.5h10v-114h-10v-58h10v-164h-10q0 -8 -3 -12t-8 -8q-25 -8 -32 0v10q-20 0 -11 -10q-29 0 -48 -13.5t-15 -17.5l-4 -258h-6v-20q-27 -14 -68 -4v4q-12 4 -46 1t-85 -12q-8 -4 -16.5 -1t-20.5 8v71h10v17h-10q4 -4 7 1t3 25h-10v183q-16 0 -10 6h-47 q0 -6 -10 -6q-6 0 -7 6q-20 0 -30 4v16q-8 0 -12.5 3t-8.5 7v336h-10v27h10q0 10 -10 16t-10 11q-33 4 -56.5 5t-39.5 5v14h-11q-6 37 0 74h11q-4 6 -11 6v145h-10v58h10v73q-25 0 -30 7v16h-101v4q-35 4 -58.5 2t-39.5 -6l-6 -107h-4v-40h4q10 -33 0 -64h-4v-27h4 q10 -37 0 -77h-4q0 -12 5 -43t5 -52q31 -4 67.5 -12t36.5 -35h11v-94h6q6 -25 0 -63h-6v-31h6q6 -23 0 -37h-6v-68h6q6 -16 0 -26h-6q0 -16 10 -17q-4 -4 -10 -4v-16h6q4 -12 7 -17.5t7 -9.5q31 0 49.5 -3t28.5 -8t15 -9t12 -6v-105h12q4 -18 4 -53v-82q10 -16 6 -20 q29 -20 53.5 -29.5t40.5 -13.5q16 -41 11 -64h10q8 0 0 -14q12 0 18 -3t2 -7h84q12 -20 16.5 -39t0.5 -31q4 0 6 -3t-2 -7q0 -4 -4 -4v-37h4v-33h-4v-31h4q8 0 0 -16q63 -4 111 -7t83 -3v26h21v47h6q0 6 -6 0q-6 14 0 31h6q0 6 -6 6q-6 23 0 41h6l4 43q16 16 94 17 q-6 6 17 24l6 53q2 0 9 4.5t17.5 9.5t19.5 9t15 4v4q0 8 23 16v7q8 8 15 12t15 8v37h11v168h-11v24q4 0 4 11q0 12 17 12q63 8 86.5 11t7.5 3q0 10 10 11v79h11v84q-16 0 -11 11h11v14h-11v121h11q0 33 1 52t5 28q57 16 78 10v10q6 4 22 4q0 4 3 6.5t7 6.5z" />
<glyph unicode="w" d="M1350 711v16h-4q-8 14 0 35h4v22q-4 4 -7.5 5.5t-3.5 5.5q0 10 11 10v31q-4 0 -11 6v424h-4q-10 10 0 26h4v84q-20 0 -20 21q10 16 16 10v43h-22v-6q-23 -10 -58 0v6h-88v-6q-8 -4 -19 -5t-28 -1v-25h-6l-4 -168h-10v-57h10v-131h-10v-17h10q4 -8 4 -16v-10h6v-47h-6 l-4 -64h-10q4 0 10 -4q6 -27 0 -53h-10v-15h10q4 -4 4 -16v-27q6 6 6 -10q0 -10 -6 -4v-33h6v-61h-6q0 -27 -4 -33h-16v-10q-31 -16 -31 -6h-53q0 4 -7.5 3t-19.5 -13v-246q10 0 10 -4q0 -6 -10 -6v-17h10q4 -4 3 -10t-13 -14l-3 -1t-11 -6q0 6 -6 11q-31 0 -31 -4 q-39 14 -74 4v73h-10q-8 92 0 195h10q-6 0 -10 4v184q-10 6 -10 11q-4 4 -1 7t11 3v135h-221l-5 -3q-4 -3 -16 -11v-58h6q6 -49 0 -94h-6v-33q16 0 10 -4q0 -6 -10 -6v-131h6q6 -23 0 -41h-6v-70h6q6 -20 0 -34h-6v-17q4 8 5 4t5 -14q10 -10 -10 -10v-37q4 8 5 7t5 -13 q4 -4 1 -7t-11 -3l-4 -37q-37 0 -37 -4q-8 4 -33 4h-57v161h-10q-6 18 0 33h10v37h-10q-6 14 0 37h10v10h-10v21q-16 0 -10 4h-74l-7 2q-7 2 -3 14q-16 -6 -17 6q-4 29 -4 74v109q-8 0 -11 3t1 7h10q-23 14 -6 69h6v62q-10 0 -10 10q-6 6 10 6v273h-6q-4 6 -4 26t4 27h6v14 h-6q-4 8 -4 31v63h-10v23h-62q-25 0 -45 4q6 -4 -4 -4q-6 0 -6 4q-10 -4 -31 -4h-47v-6q-6 -6 -26 -6q10 -25 10 -72q-14 -33 -10 -53h-11v-37h11q10 -33 0 -57h-11v-31h11q8 -23 0 -43h-11q0 -12 5.5 -10t5.5 -11q0 -6 -11 -6q8 -18 11.5 -38.5t-0.5 -49.5h-11 q0 -10 11 -10q10 -72 0 -158h-11q0 -6 11 -6v-209h10v-26q29 -10 52.5 -15.5t41.5 -9.5q4 -4 5 -11t1 -12h4v-14h13q4 -35 4 -94v-141q8 -4 15 -10.5t15 -16.5q16 -2 34 -4t31 -7t19 -14.5t0 -27.5h6v-226h11q4 -20 17 -22t26 -14q0 12 35 6q0 -4 12 -17q43 4 77.5 8.5 t57.5 12.5q-6 6 6 6v41h-6q4 33 7 55.5t3 38.5h6q0 16 -10 17q0 4 1 12t7 16t18.5 13.5t35.5 1.5q8 -8 16 0q10 6 10 -7q35 4 56.5 7.5t33.5 -0.5q10 -8 22.5 -11.5t24.5 0.5q0 -4 15.5 -8t15.5 -8q0 -10 2 -30.5t5 -45t6 -49.5t3 -43q4 8 5 6v-12q41 0 47 -10q20 4 33.5 5 t23.5 1q25 6 33 -6q18 4 34.5 5t26.5 5v6q23 0 23 10v47h10v78h-10q-10 27 0 53h10q-6 0 -10 7q-10 33 0 71h10q-12 12 6.5 22.5t77.5 10.5q0 20 37 20v267q4 0 4 12q57 23 78 14v11h22q0 10 4 16q0 16 -4 16q0 4 4 4l7 54h4z" />
<glyph unicode="x" d="M1346 -2v199l-21 20h-33v6q-45 10 -61 10v17h-6q-4 29 -5 64.5t-1 86.5h-11v17q-33 0 -52 3t-30.5 7t-17.5 8t-14 6v179q-16 0 -11 6q-29 4 -50 5t-34 5v10q-10 6 -16 7t-9 5.5t-4 18.5t-1 49q-16 0 -11 4q-33 4 -56 8t-40 13v43q12 4 20.5 5t12.5 5v4q20 4 35.5 8 t27.5 4v25h11q4 20 7 32.5t7 20.5q20 12 38.5 16.5t31.5 -0.5v11q10 4 21 7t20 3v162q-4 4 3 8t17 12q33 4 55.5 5t38.5 1v37h11v27h-11v41h11l6 90l6 4h35q16 0 26 -4q39 20 47 20v142h-10q-6 14 0 30h10v17h-10q-4 4 -4 26q-41 0 -63.5 -1t-30.5 -5q-23 0 -23 6h-88 q-8 -23 -16 -22v-51h-10v-11h10q8 -49 0 -94h-10q-23 -23 -7 -22q-23 -4 -35 -7.5t-16 -3.5v-4q-53 -8 -53 -16q-4 -12 -6 -22.5t2 -14.5h-10v-37h10q6 -37 0 -78h-10v-20q-35 -4 -60.5 -5t-46.5 -1q4 -4 1 -7t-11 -3v-148q16 0 10 -4q0 -6 -10 -6q-4 -10 -8 -21.5 t-13 -15.5q-109 -6 -225 0q0 16 -4 12v25h-12q-4 25 -4 59v88q-27 0 -31 21h-53q-12 12 -20.5 17t-16.5 9q-4 12 -4 56v116q-16 0 -12 7q-35 4 -58.5 5t-40.5 5q-12 0 -6 16h-10v178q-35 0 -58.5 -1t-35.5 -5v6q-43 -4 -78 -7t-58 -3q0 -59 11 -94q4 8 7 7t3 -13 q6 -16 -10 -17q0 -20 -6 -26h-5v-58q-4 0 2.5 -3t18.5 -11q25 -2 43 0t29.5 3t16.5 -2t5 -17t2 -38t5 -50.5t4 -51t-1 -38.5q6 6 31 -11v-6h70v-10q25 10 24 -14q8 -25 0 -64h-4v-43h4v-47q4 4 7.5 2t3.5 -6q25 -4 41 -5t28 -5v-11h31v-16h6v-43h10q4 -4 4 -14h7q4 -8 0 -21 h47q-6 -6 0 -6q4 -6 4 -10q16 0 27.5 -1t19.5 -5v-11h12q16 -35 0 -40q-41 -12 -68.5 -16.5t-48.5 -0.5v-43q0 -18 -4 -31h-10q0 -14 -6 -20q-29 -8 -50.5 -11t-33.5 1q0 -12 -11.5 -9t-15.5 -2v-178q-18 -4 -45.5 -10t-62.5 -10q0 -6 -17 -6v-17h11q-8 -43 -11.5 -85 t0.5 -77q-31 -4 -54 -7t-40 -3q6 -6 -10 -6v-24h-10q-8 -8 0 -17q10 0 10 -10q0 -8 -3 -11t-7 1v-158q10 -4 18 -8t12 -8q20 4 40 5t38 1q20 0 40 -1t40 -5q-6 6 0 10q4 4 17.5 15t23.5 11l6 91h4v67q37 23 64 17v4q20 4 32.5 10t20.5 10v154q31 14 31 10v10q29 8 50 12.5 t34 8.5q0 25 16 30q-16 -6 -16 13q0 10 16 10v104h4q0 20 6 27q98 4 154 4q55 0 76 -4q8 0 0 -23h6q4 -29 4 -67v-94q4 0 13 -8l9 -9h41h27q12 0 16 -4q-10 -10 11 -10q14 -37 14 -64q6 6 6 -16q0 -4 -6 -4v-68q10 -12 6 -16q12 6 21 -20q31 0 30 -7q23 -6 23 7q4 4 31 -7 q4 -35 7 -54l3 -19h10q10 -43 0 -84h-10v-11h10q6 -4 6 -26h10q10 0 11 -10h151q29 18 47 10q-3 6 7 6z" />
<glyph unicode="y" d="M1337 1229v63q-14 0 -10 4q0 4 3 7.5t7 -0.5q0 74 -10 110h-51q-20 0 -33 4v6h-74v-6q-16 -6 -30 0v6q-12 0 -13 -6q0 -4 -18 -4q0 -23 -6 -16v-68h6q4 -12 4 -22v-21v-20t-4 -21h-6q0 -20 -4 -26h-94q-23 0 -23 -27v-47h-10q-4 -4 -1 -7t11 -3q10 -72 0 -158h-10v-51 h-41v-11h-43q-14 -16 -31 -16v-111h4q-4 -47 -6 -90t2 -77q-20 0 -10 -11q-29 0 -45.5 -3t-28.5 -7v6q-23 0 -39 -1t-24 -5q-35 0 -58.5 3t-36.5 7q0 6 -2 9.5t-5 7.5t-5 10t-2 20q-12 12 -12 17q0 12 12 0v37h-12v192q-31 4 -54.5 6t-39.5 6v11q-20 0 -25 4q-10 35 0 57h4 v17h-4q-4 16 -5 69t-1 146q-31 0 -54.5 -1t-39.5 -6q0 10 -27 17q-4 20 -4 47v67q-16 0 -10 7q0 4 3 6t7 -2v59l-94 4v6h-23v-6q-16 -6 -31 0v6q-12 0 -36.5 -7t-36.5 -3q0 -27 -11 -16q-4 -6 0 -6q10 -6 11 -15q-4 -6 -11 -6v-115q10 16 11 -6q-4 -4 -5 -7t-6 -3v-14 q10 6 11 -13q-20 -4 -5 -7t58 -3v-4q35 0 40 -5t1 -17h10v-52h12v-161h11v-48l7 -5t23 -17l68 -4q0 -29 1 -45.5t5 -28.5h10q6 -41 0 -78h-10h10q4 -20 4 -75v-146h7q8 -6 0 -20q10 10 10 -7q-16 -4 -3 -7t56 -3v-10q16 12 26.5 -2t10.5 -18h4v-37h10q0 -12 8.5 -13.5 t8.5 -17.5q55 6 88 -10q-2 -14 3 -35t11 -42.5t10 -42t2 -34.5q-59 0 -30 -24h-101v-158q8 6 17 -6q0 -14 -17 -15v-43q8 14 17 -4q-6 -6 -17 -6v-51h-10q0 -16 -4 -23q-33 0 -72 -3t-92 -7q-63 -4 -101 -5t-54 -5v6q-14 6 -33 -6v-84q10 10 10 -10q-4 -6 -10 -6v-95 q4 0 11 -12t11 -12q51 -4 87 -5t59 -1v-11h20v11q33 8 43 0h115q12 4 20.5 5t16.5 1q4 31 24.5 38t63.5 -14v54h12l4 57h10v27q-14 -8 -14 4t14 12v35q29 4 51.5 5t39.5 1q0 20 20 20l6 236h4q0 12 1 20.5t5 16.5q18 0 35 1t27 5v4q4 4 11 5t11 1q23 27 31 27v145q4 0 4 6 q33 12 56.5 19.5t44.5 7.5q0 8 3 12t7 8v48h10q-4 4 -2 8t12 8q0 4 23 4v10q29 0 54.5 11.5t29.5 15.5v141h-13q-6 14 0 37h13l4 162h6v37h20v6q10 0 37 10q20 6 37 0q0 16 21 16v25h-11q-10 25 0 47h11q-6 6 -11 6q-10 16 0 27h11v20q-12 0 -13.5 1t2.5 6q0 6 11 0l-11 10 q-10 6 0 24h11v95q37 23 41 22v4h43q59 27 30 27zM1296 1313h-6v10h6v-10z" />
<glyph unicode="z" d="M1350 123q0 6 -11 6q-4 0 0 4q0 4 3.5 7t7.5 -1q-4 6 -11 6v37q-10 4 -18 8l-8 3h-68q4 -4 1 -5.5l-11 -5.5q-4 4 -4 11q-53 0 -60 -7q-20 0 -24 7q-41 0 -64.5 -1.5t-35.5 -5.5q-59 -4 -105.5 -3t-79.5 10v4q-10 0 -26.5 -3.5t-40.5 -7.5q-41 -6 -68 0v7q-20 0 -31 -11 v11q-23 0 -16 -7q-41 8 -111 0q-35 -4 -61.5 -3t-42.5 10v4h-68q-27 16 -47 16q0 31 4 37q29 10 51.5 15t32.5 5v6q6 4 27 5q0 10 6 16l4 51h10q-6 8 7 27q20 8 39.5 9t43.5 -3q-8 14 15 14v60q66 6 53 14v10q4 0 15.5 5t15.5 5q6 -4 6 -10h27q0 27 10 17v63h10q-8 6 10 25 q25 8 31 0v-11q4 4 8 5.5t4 5.5h31q0 10 31 16v31q-4 4 -7.5 8t-3.5 8t3.5 5t7.5 5l6 95h4v43h94q0 29 23 20l4 64q6 -6 10 0q0 10 6 10q49 16 78 10q0 16 20 16v48h7v14t6 10t22.5 5t48.5 1v11q27 10 37 10q16 43 17 67q12 12 73 13q0 14 31 14v37h10q-6 16 -10 16 q0 10 10 0v78h-10q-6 31 0 64h10q0 74 -10 110q-12 4 -18 5t-2 5h-54q10 -10 -10 -10v10h-20v-6q-43 -6 -84 0v6q-31 4 -56 4h-32q-4 4 -22.5 2t-47.5 -6v-6q-14 -6 -37 0v6q-90 0 -148.5 -1t-80.5 -5v6h-105v4q-6 -4 -84 -4q4 -4 2 -5t-12 -5q-10 0 0 10h-84v-6 q-35 -4 -59.5 -5t-40.5 -5q0 -6 -31 10v6h-100v-6q-25 -6 -58 0v6h-16v-6q-4 -4 -20 -4v-53h-11v-131h11v-27h63v-4h41l-8 4h14q20 0 17 -4h98q6 4 16 4v-4h273v4h30v-4h279q-6 4 4 4q6 0 6 -4h57v4h58v-4l7 -5t23 -17v-15q12 8 13 -10h-13q0 -16 -10 -16q-66 -16 -94 -17 q-23 -59 -14 -88q-10 6 -11 -10q-29 -8 -44 -12l-15 -4l-4 6q-20 0 -27 -6v-11q27 -10 -20 -10l-6 -57q-2 2 -1 -1t-2 -6.5t-16.5 -6.5t-42.5 -3q-6 6 -47 6q0 -31 -16 -36q8 -4 12 -5.5t4 -5.5q-6 -6 -16 -6v-41q12 -4 3 -8t-40 -4v-4q-6 -6 -27 -6q-20 0 -26 6v4h-15 q4 -4 2 -5t-12 -5q-6 -4 10 -4v-27h-10v-31h10v-53h-10v-78q-41 -4 -68.5 -7t-48.5 -3q0 -29 -10 -23l-4 -57q-8 -4 -19.5 -7t-27.5 -3v-10q-20 -4 -35.5 -7.5t-28.5 0.5l-6 -61q0 -4 -2 -10t-12 -6q-53 -8 -72.5 -12.5t-11.5 -8.5v-10h-20l-7 -57h-6v-23q12 0 13 -4 q-4 -4 -6.5 -7t-6.5 1q-35 -4 -61.5 -1t-42.5 7q0 -10 -10 -10v-316q4 8 5 7t5 -11q182 -12 317 -17t228 -5q-8 12 0 12q10 0 10 4q121 10 147 -4q8 4 12.5 5t8.5 5q4 -4 5 -7l1 -3q123 4 211 4h149q37 0 37 -4q37 0 64 10v4q8 0 12 3t8 8q4 47 7 82.5t3 58.5h11z" />
<glyph unicode="{" d="M1100 -338v33h-13q-6 51 0 104h13h-13q-6 14 0 31h13v27h-15q-2 0 2 4q-51 4 -79.5 8t-38.5 4q0 10 -6 10q-6 20 0 41h6v27h-6q-6 0 0 16h-84q-12 8 -20.5 14.5t-16.5 10.5v524q-4 4 -7.5 8t-3.5 8t11 5v59h-4q-4 4 -5.5 10t-1.5 10t1.5 10.5t5.5 10.5h4v10h-4 q-4 20 -5.5 74.5t-1.5 146.5q-12 0 -44.5 7.5t-49.5 3.5v10q-20 0 -26 4q-8 10 0 37h10v69h-10q-8 6 10 25q8 23 70 23v4q35 10 40 10q0 6 -4 6q-10 14 0 31h4l7 628q4 6 4 11q55 12 81.5 19t22.5 7q25 57 17 88h6q29 4 47 11.5t31 15.5q4 0 12 10t18 6q-4 0 -10 4v33h10 v115h-10q-6 8 0 20q-43 0 -57.5 1t6.5 6v10q-10 0 -10 -10q-41 -10 -91 0v10q-31 4 -49 -10.5t-28 -30.5l-7 -53q-35 -4 -61.5 -7.5t-36.5 -3.5q0 -4 -4 -5t-8 -5v-70q-43 -20 -115 -20q6 -4 -16 -4v-158h-4v-30q4 0 4 -7v-430h12q-18 -86 -12 -168q-10 -4 -33 -4h-49v-6 q-6 -4 -16 -4t-17 4v6h-94v-6q0 -4 -31 -4v-199q25 -20 47 -26h111q0 10 10 10q4 -6 4 -10q25 0 39 -1t20.5 -9.5t7.5 -26t1 -47.5h12q6 -55 0 -111h-12v-37q10 10 16 -14h-16v-12h12q6 -18 0 -41h-12q0 -6 12 -6q6 -20 0 -35h-12q6 -6 12 -6v-138h-12h4t8 -4q6 -23 0 -73 h-12q10 10 16 -11v-329q6 4 10 -17q-4 -4 -5 -7t-5 -3v-41h10v-16q4 4 10.5 0t10.5 -21h33q-14 14 4 14q6 -4 6 -14q8 8 19.5 4t21.5 -14v-43h6q6 -4 6 -27q4 6 21 -10q23 -4 41 -4h32v-10q10 4 18.5 2t12.5 -15q0 -25 -10 -24h10v-33q12 -4 26.5 -7t24.5 -3v-4h158v4 q27 10 33 10z" />
<glyph unicode="|" d="M850 1135v20q-12 0 -13 3t3 7h10v54h-10q-8 14 0 36h10v17h-10v114h10v31h-10q-10 27 0 53h10l-10 11q-12 8 0 26h10q0 4 -3 5t-7 6q-6 0 0 4q0 10 10 10v27h-10v26q-16 0 -17 6q6 4 17 4v31q-8 -4 -12.5 -2t-4.5 14q8 6 17 0v287q-23 0 -17 6q8 6 17 0v21 q-16 -10 -17 10q0 10 17 10v33q-27 0 -17 10h17q0 8 -4 8q-2 0 -7 -4q-4 8 -5 19.5t-1 27.5q-20 8 -20 7q-55 0 -97 -1t-71 -6v7q-27 0 -37 -17v-67q6 0 6 -7q0 -4 -6 -4v-157q4 4 5 3t1 -14q6 -10 -6 -10q-6 -6 6 -6q6 -14 0 -37h-6v-14h6q6 -16 0 -27h-6v-26h6 q6 -14 0 -37h-6v-15h6q6 -33 0 -63h-6v-43q4 4 5 3t1 -13q4 -4 3 -7.5t-9 -3.5v-73q4 4 5 3t1 -14q0 -10 -6 -10v-235h6q0 -16 -1 -27.5t-5 -19.5q6 6 6 -11q6 -10 -6 -10v-33q12 -10 22.5 -20t18.5 -14q25 0 40 -4.5t23 -8.5q8 4 33 8.5t68 4.5l37 34v54h10zM854 -315v10 h-4v22q0 10 4 15h-4q-10 37 0 78h4q0 16 -4 10q-10 41 0 78h4q0 12 -4 12q-10 14 0 31h4q0 -6 -4 0v675h-10v41h-23q4 -4 1 -7t-11 -3q-4 6 -4 10l-53 7v4q-47 -4 -83 -5t-63 -6v-215h10q6 -41 0 -84h-10v-30h10q6 -43 0 -84h-10v-21h10q6 -16 0 -30h-10v-74h10q6 -33 0 -58 h-10v-32q14 8 14 -11h-14v-104h10q6 -16 0 -31h-10v-157h10q6 -16 0 -31h-10v-10h10q4 -4 4 -11v-12q33 -23 54 -31q27 10 26 7q25 0 25 -7q-10 0 19.5 4.5t97.5 12.5q-4 4 -1 7t11 3v27h4z" />
<glyph unicode="}" d="M1100 862v90q-16 -8 -17 15q6 14 17 6v31q-16 -6 -17 16h17v10q-12 4 -16.5 5t-0.5 5q-6 0 -6 -6q-72 0 -122 4t-81 9v4q-4 0 -12 10t-20 10v514h-11v27h11v145h-11v60h11q-16 20 -31 30q-29 8 -51.5 12.5l-42.5 8.5v84l-94 6q0 8 -5.5 4t-11.5 -2t-11 17.5t-5 64.5 q-14 0 -10 4q-74 -4 -129 -4h-91v-64h-10v-32q4 4 7 0t3 -15h-10v-26h10l-3 -7q-3 -8 -7 -20h10v-27q20 -8 31.5 -12t22.5 -8q-10 10 10 10q0 -8 6 -8t14.5 -3t14.5 -17.5t6 -49.5h10q4 -4 5 -10t1 -10q20 6 21 -6l57 -4q0 -8 4 -9q6 0 11.5 -4t10.5 -16t5 -45q16 6 16 -17 q-4 -4 -16 -4v-26h16v-420h6q0 -27 -6 -31h6q6 -43 0 -84h-6v-16h6q4 0 4 -14q33 -16 56.5 -24.5t44.5 -12.5q4 0 4 -17h6v-131q-12 0 -16 -3t0 -7q-10 -4 -18.5 -1t-18.5 11q0 -10 -31 -10v-10h-27q0 -23 -10 -17v-41h6v-137h-6q-4 -12 -1 -17t11 -9h-10v-99h6q4 -6 4 -26 h7q-8 -20 -11.5 -36t0.5 -32h-6v-37h6q6 -14 0 -33h-6v-30h6v-361q-10 0 -6 -6q-31 -12 -55.5 -16t-42.5 -4l-10 -7q-9 -6 -13 -10l11 -10q10 -27 0 -53h-11v-25h-104q6 -6 -10 -6v-192q31 -18 53 -13q0 -14 10 -14h125q0 10 21 10q0 4 22 27l4 47h6q-12 18 9.5 21t52.5 3 q20 0 32.5 1t20.5 6v26h10l6 47q2 0 2 4t6.5 9.5t21.5 9.5t48 4q4 0 14.5 15.5t22.5 15.5v198h-10q-6 6 -6 31h-11q16 43 17 70h10v20h-10q-10 14 0 31h10v117h-10q-8 18 0 41h10v10h-10q-8 14 0 33h10v14h-10q-8 94 0 194h10q-6 4 -10 5q-10 82 0 153h10v25q0 6 2 7t8 2 t21 7q-6 20 6 21q35 0 56.5 -3.5t31.5 -7.5q33 0 55.5 3t38.5 8l5 7q6 7 18 19z" />
<glyph unicode="~" d="M1346 1868v147h-11v15q-23 0 -10 12l-221 -6v-68h-10q0 -16 -7 -16h-77q0 -4 -11 -10v10q-10 10 -10 0q-4 -4 -5 -7t-5 -3q0 -23 -1 -40.5t-5 -27.5q-4 4 -4 -10q-16 -4 -28.5 -8.5t-25.5 -4.5q6 -4 -10 -4q-4 0 -20.5 10.5t-36.5 10.5q0 29 -3 50t-7 34q-35 2 -61.5 5 t-44 12t-24 25.5t2.5 47.5q-37 0 -41 4h-97q-39 0 -61 -4q-27 0 -20 4q-10 0 -17 -4h-110q4 -4 0.5 -8t-11.5 -4v-45t-4 -23q-41 -4 -70.5 -10t-50.5 -10v-78q-10 6 -30 -17q-6 4 0 4h-23q-31 -16 -31 -10q-4 -4 -30 6q4 -4 -11 -10v-174q-4 -4 2.5 -7t18.5 -7 q23 -4 42 -5.5t32 -5.5q29 -4 55.5 -3t58.5 14q0 14 31 14v37h6q0 27 4 37q16 0 17 6q20 0 16 -6h37v6q16 4 27.5 7t19.5 3v51h4q-6 23 17 23q27 6 83 0q0 -6 11 -6q4 -16 7 -31.5t3 -36.5q16 16 16 -10h52v-6q18 0 26 -2t12.5 -5.5t6.5 -7.5t8 -6q-4 -12 -4 -18q0 -4 4 -8 h4q6 -4 6 -41q4 4 5 2t1 -13h105v-6h94v6q10 0 37 11v24h4l6 43q82 8 125 12l43 5v-7q16 0 26.5 3.5t20.5 7.5v6h20v20q0 12 5 17h12v37q25 0 31 4v6q4 0 25.5 7t37.5 7q1 7 21 27z" />
<glyph unicode="&#xa0;" />
<glyph unicode="&#xad;" d="M1346 846v90q-10 0 -11 4q4 4 5 8t6 4v25q-8 0 -11.5 3t0.5 7q0 10 11 0v43q-12 0 -16 8l-5 9l-6 -7q-106 0 -184 3.5t-129 7.5v6q-6 0 -7 -6q-78 -6 -161 0v6q-8 0 -13.5 -3t-9.5 -7l-407 4v6q-55 -8 -97.5 -12.5t-70.5 -4.5q-43 0 -74 1t-51 6q0 -16 -11 -17v-31h5 q6 -6 6 -16t-6 -16h-5v-15h5q16 -20 -5 -26h5q4 -4 5 -26.5t1 -57.5q41 -10 41 -21q68 0 73 -6q0 6 7 6q4 0 4 -6q12 4 52 5t116 1v10h67t6 5q4 8 7.5 5t3.5 -20q31 0 36 -6q43 0 75 1t56 5v10q4 -4 19.5 -8t38.5 -8q8 -4 23.5 -1t39.5 7q57 16 94 -6q10 4 43 5t89 1 q-4 4 0 7t14 3v-10q43 0 43 -6q23 0 30 2t8 5t1 5q0 4 8 4q4 0 6 -3t-2 -7h199v10h22q4 4 5.5 7.5t5.5 7.5z" />
<glyph unicode="&#xc9;" d="M1350 4v199q-14 6 -11 10q-45 0 -51 10q-16 -8 -31.5 -11t-25.5 1q-68 4 -116 7t-79 3q-16 0 -49 -5t-45 -5v10q-43 -4 -74.5 -7t-52.5 -3q4 -4 1 -5t-11 -5q-2 6 -2 8q0 4 -6 7t-20.5 4t-43.5 1q0 -4 -14 -7t-19 -13q-10 8 -17 12t-3 8q-35 0 -61.5 -3t-43.5 -7v10 q-16 -10 -67 -10v10q-12 0 -16.5 -3t0.5 -7q-35 8 -66 11t-49 -1q-16 -8 -17 27h-6q-6 14 0 37h6v20h-6q-4 29 -4 66v92h-10v88q0 55 4 127t7 123t3 86h6v47q20 4 43 6t52 -2q6 6 10 6v-6q27 16 67 6v-6q16 4 27.5 5t20.5 1q8 -4 13 -5t9 -1h131q0 6 4 6l6 -6q20 18 21 6 q4 -4 10 -5t10 -1q35 4 59.5 5t45.5 1q4 -4 10 -5t10 -1q12 4 23.5 5t19.5 1q47 0 75 -1t36 -5q8 4 37.5 5t81.5 1q-4 8 -2 12.5t14 4.5q33 39 25 71h6v17h-6q-4 12 -5 41v79q-27 0 -32 5v12h-31v-12q-43 -6 -84 0v12h-20q10 -10 -7 -17q-23 0 -14 17h-63v-12q-6 -6 -31 0 v12h-23v-12h-125v12h-188v-12q-29 -4 -48.5 -5.5t-29.5 -5.5q-12 0 -36.5 3t-67.5 8q4 6 -6 6t-7 6l-51 4v162q-10 10 -10 63q-10 -6 -10 10q0 10 10 11v106h10q-6 4 -10 4v37h10l-10 10v148h10l-10 10v27h10v14h-10v27h10q0 27 10 37q43 16 64 16l4 -6q23 0 33 -10 q10 4 18 5t17 1q59 0 90.5 -1t40.5 -5q51 23 84 16q4 0 11 -1t11 -5h115q-6 6 4 6q10 -16 16 -16q51 8 78 12l27 4q4 -4 10 -5t10 -1q53 4 91 5t67 1q33 4 72 3t90 -9q-4 6 6 6q-10 25 20 24v27h-4q-4 29 -5 68t-1 90q-23 0 -16 16q-27 4 -49.5 8t-32.5 13 q-55 -12 -80 -16.5t-21 -4.5v-6q4 6 -30 6q4 -6 -6 -10q-6 4 -7 10q-59 8 -98 11.5t-67 3.5v6q-20 -8 -32 -12l-11 -5q-12 -4 -31 6v-6q-33 -6 -33 6q-41 0 -41 -6q-88 0 -94 6q-41 6 -53 -6q-111 0 -192 1t-132 5q0 -10 -27 -10v-6q-6 -4 -16 -4t-12 10t-12 10 q-76 6 -127 -10v-90h-11v-151h11q10 -16 0 -27h-11v-131h11q8 -23 0 -37h-11v-84h11q8 -20 0 -35h-11v-37h11q8 -33 0 -63h-11v-121h11v-94q20 0 10 -10q0 -6 -10 -7v-71h6v-121h-6v-100q10 0 10 -5q0 -10 -10 0v-315q4 4 5 3t5 -13q10 -10 -10 -10v-209h6q4 -20 7 -44 t3 -51q0 -29 -3 -53t-7 -47h-6q-4 -4 4 -7t12 -19q-4 -4 -5 -8.5t-5 -8.5h-6v-57h6q4 -29 6 -50.5t-2 -37.5q2 -6 11 -7t20.5 -2.5t20.5 -4.5t11 -13q23 4 42.5 8t31.5 8v-6q23 4 39 7.5t29 -1.5q23 -4 43 -8t41 -8q20 12 73 6v-6q29 4 47.5 7t30.5 3q-12 -4 7.5 -7t70.5 -3 q8 0 22.5 3t31 6t31.5 6.5t26 0.5q-4 4 0 7.5t16 3.5q12 -12 16 -16.5t4 -0.5q23 4 39.5 7.5t24.5 -1.5q29 -4 48 -8t36 -8q35 8 52 12t22 4q31 0 34 -6q45 4 77 5t54 1q-4 4 -2 7.5t13 3.5q4 0 4 -2q0 -4 -4 -9q20 0 34.5 -1t18.5 -5q33 -4 55.5 -1t38.5 7q1 19 21 27z" />
<glyph unicode="&#xe9;" d="M1350 213v88h-11l3 7q4 7 8 20h-11q-6 20 0 43h11v14h-11v23h-229v-101q-41 -4 -68.5 -8t-48.5 -8l-4 -41h-6v-53q-18 0 -35.5 -4.5t-38.5 -16.5q0 10 -10 10q-4 0 -14 11q-8 2 -20.5 -2.5t-26 -9.5t-24.5 -7t-19 4q-51 14 -78 15q-63 0 -90 -11q-43 4 -78 7.5t-57 3.5 q0 4 -13.5 14t-13.5 22q0 4 3 7.5t7 -0.5v41q-20 8 -20 10q-29 4 -50.5 5t-33.5 5l-11 11q-10 12 -10 32h-10v27h10v24q-10 0 -10 13h10v30h-10v41h10v47t4 23q0 31 8.5 37t8.5 10q23 4 40 7t27 3q20 0 32.5 -1t21.5 -5q0 16 26 16q0 -4 10 -4t15 -12h32q10 0 21.5 1t15.5 5 q14 0 21 -6q63 4 110.5 5t77.5 1q63 4 110.5 1t78.5 -7q0 10 10 10q4 -4 5 -7l1 -3q-27 10 31 10v-10q51 0 87 3t60 7q0 20 21 17v30q-12 0 -13.5 3.5t2.5 7.5h11v32h-11q-8 18 0 27h11l6 68q0 37 98 36h10v314l-57 6v10h-68v84q-41 4 -70.5 5t-49.5 5q-6 4 -7 68h-10 q-4 29 -14 28t-27 3q4 -4 -10 -4q-6 0 -6 4l-51 6v20h-6q-4 6 -5 47q-4 -4 -11 6.5t-11 10.5q-51 0 -70.5 3t-7.5 7q-25 -16 -37 -20v10q-4 0 -11 3t-15 7v-4q-27 0 -27 4q-20 0 -31 -10v10q-23 -14 -73 -4q-43 4 -115 4h-168q-8 -12 -15.5 -17t-11.5 -10l-4 -61 q-35 -4 -60.5 -8t-43.5 -4l-12 -6q-11 -5 -11 -9v-20q12 8 13 -16q4 -6 -13 -7l-4 -36l-6 -5q-23 -4 -42 -2t-30 7q-33 -14 -32 -21v-104h-11v-21h11v-104q10 6 10 -11h-10v-131h-11l3 -1q3 -1 8 -5v-225q10 0 10 -10q-4 -6 -10 -6v-199q10 0 10 -4q-4 -6 -10 -6v-47 q10 10 10 -11h-10v-53q10 10 10 -10h-10v-94q6 2 8 2q4 0 10 -3t18.5 -8.5t36.5 -11.5v-6q43 0 37 -10q4 -29 8 -47.5t9 -30.5q27 0 47 -9.5t20 -17.5h51v-26q6 -4 6 -41h11v-17q12 -4 16 -7l4 -3q43 0 75 1t52 5q29 -4 48.5 -7t35.5 -3v-6q10 0 10 6q57 6 105 0v-6h20v6 q25 6 58 0v-6h53v6q20 6 41 0v-6h16v6q33 6 58 0v-6h20v6q53 8 76.5 11t27.5 3q-23 16 7 17l6 63h10q-8 18 0 25q35 0 41 -10q23 0 42 3t32 7q0 37 6 43l4 41q35 18 47 10v6q4 4 14.5 5t22.5 1q-6 4 10 21q21 0 21 10zM1120 1020h-10v-53q-16 10 -16 -11q0 -20 16 -10v-63 h-10l-6 -41q-29 -4 -48.5 -7.5t-29.5 -3.5q-4 4 -12.5 7.5t-20.5 3.5q-45 6 -61 -11v11q-29 0 -51.5 -3t-32.5 -8q-41 4 -71 7.5t-50 3.5q-57 6 -84 -11q0 10 -31 11q0 10 -22 -11q8 16 -21 11q-6 -10 -63 -11q-119 16 -142 11v86t-4 55h-10v16h10q6 23 0 48h-10v10h10l4 61 q12 8 6 17h95q10 10 10 26h10v51h10l7 27h57v-10q23 -6 47 0v10h16v-14q25 6 15 14h26v-10q47 -6 101 0v10h94v-10q25 -8 51 0v10h33q-8 -14 0 -14q4 0 6 7t14 7q-4 -10 0 -18.5t17 -8.5v-22q0 -10 4 -19h10v-26q4 0 22.5 -5t30.5 -5h37q4 -8 14.5 -15.5t22.5 -11.5v-78h10 v-10z" />
<glyph unicode="&#x2000;" horiz-adv-x="1092" />
<glyph unicode="&#x2001;" horiz-adv-x="2184" />
<glyph unicode="&#x2002;" horiz-adv-x="1092" />
<glyph unicode="&#x2003;" horiz-adv-x="2184" />
<glyph unicode="&#x2004;" horiz-adv-x="728" />
<glyph unicode="&#x2005;" horiz-adv-x="546" />
<glyph unicode="&#x2006;" horiz-adv-x="364" />
<glyph unicode="&#x2007;" horiz-adv-x="364" />
<glyph unicode="&#x2008;" horiz-adv-x="273" />
<glyph unicode="&#x2009;" horiz-adv-x="436" />
<glyph unicode="&#x200a;" horiz-adv-x="121" />
<glyph unicode="&#x2010;" d="M1346 846v90q-10 0 -11 4q4 4 5 8t6 4v25q-8 0 -11.5 3t0.5 7q0 10 11 0v43q-12 0 -16 8l-5 9l-6 -7q-106 0 -184 3.5t-129 7.5v6q-6 0 -7 -6q-78 -6 -161 0v6q-8 0 -13.5 -3t-9.5 -7l-407 4v6q-55 -8 -97.5 -12.5t-70.5 -4.5q-43 0 -74 1t-51 6q0 -16 -11 -17v-31h5 q6 -6 6 -16t-6 -16h-5v-15h5q16 -20 -5 -26h5q4 -4 5 -26.5t1 -57.5q41 -10 41 -21q68 0 73 -6q0 6 7 6q4 0 4 -6q12 4 52 5t116 1v10h67t6 5q4 8 7.5 5t3.5 -20q31 0 36 -6q43 0 75 1t56 5v10q4 -4 19.5 -8t38.5 -8q8 -4 23.5 -1t39.5 7q57 16 94 -6q10 4 43 5t89 1 q-4 4 0 7t14 3v-10q43 0 43 -6q23 0 30 2t8 5t1 5q0 4 8 4q4 0 6 -3t-2 -7h199v10h22q4 4 5.5 7.5t5.5 7.5z" />
<glyph unicode="&#x2011;" d="M1346 846v90q-10 0 -11 4q4 4 5 8t6 4v25q-8 0 -11.5 3t0.5 7q0 10 11 0v43q-12 0 -16 8l-5 9l-6 -7q-106 0 -184 3.5t-129 7.5v6q-6 0 -7 -6q-78 -6 -161 0v6q-8 0 -13.5 -3t-9.5 -7l-407 4v6q-55 -8 -97.5 -12.5t-70.5 -4.5q-43 0 -74 1t-51 6q0 -16 -11 -17v-31h5 q6 -6 6 -16t-6 -16h-5v-15h5q16 -20 -5 -26h5q4 -4 5 -26.5t1 -57.5q41 -10 41 -21q68 0 73 -6q0 6 7 6q4 0 4 -6q12 4 52 5t116 1v10h67t6 5q4 8 7.5 5t3.5 -20q31 0 36 -6q43 0 75 1t56 5v10q4 -4 19.5 -8t38.5 -8q8 -4 23.5 -1t39.5 7q57 16 94 -6q10 4 43 5t89 1 q-4 4 0 7t14 3v-10q43 0 43 -6q23 0 30 2t8 5t1 5q0 4 8 4q4 0 6 -3t-2 -7h199v10h22q4 4 5.5 7.5t5.5 7.5z" />
<glyph unicode="&#x2012;" d="M1346 846v90q-10 0 -11 4q4 4 5 8t6 4v25q-8 0 -11.5 3t0.5 7q0 10 11 0v43q-12 0 -16 8l-5 9l-6 -7q-106 0 -184 3.5t-129 7.5v6q-6 0 -7 -6q-78 -6 -161 0v6q-8 0 -13.5 -3t-9.5 -7l-407 4v6q-55 -8 -97.5 -12.5t-70.5 -4.5q-43 0 -74 1t-51 6q0 -16 -11 -17v-31h5 q6 -6 6 -16t-6 -16h-5v-15h5q16 -20 -5 -26h5q4 -4 5 -26.5t1 -57.5q41 -10 41 -21q68 0 73 -6q0 6 7 6q4 0 4 -6q12 4 52 5t116 1v10h67t6 5q4 8 7.5 5t3.5 -20q31 0 36 -6q43 0 75 1t56 5v10q4 -4 19.5 -8t38.5 -8q8 -4 23.5 -1t39.5 7q57 16 94 -6q10 4 43 5t89 1 q-4 4 0 7t14 3v-10q43 0 43 -6q23 0 30 2t8 5t1 5q0 4 8 4q4 0 6 -3t-2 -7h199v10h22q4 4 5.5 7.5t5.5 7.5z" />
<glyph unicode="&#x2013;" d="M1346 846v90q-10 0 -11 4q4 4 5 8t6 4v25q-8 0 -11.5 3t0.5 7q0 10 11 0v43q-12 0 -16 8l-5 9l-6 -7q-106 0 -184 3.5t-129 7.5v6q-6 0 -7 -6q-78 -6 -161 0v6q-8 0 -13.5 -3t-9.5 -7l-407 4v6q-55 -8 -97.5 -12.5t-70.5 -4.5q-43 0 -74 1t-51 6q0 -16 -11 -17v-31h5 q6 -6 6 -16t-6 -16h-5v-15h5q16 -20 -5 -26h5q4 -4 5 -26.5t1 -57.5q41 -10 41 -21q68 0 73 -6q0 6 7 6q4 0 4 -6q12 4 52 5t116 1v10h67t6 5q4 8 7.5 5t3.5 -20q31 0 36 -6q43 0 75 1t56 5v10q4 -4 19.5 -8t38.5 -8q8 -4 23.5 -1t39.5 7q57 16 94 -6q10 4 43 5t89 1 q-4 4 0 7t14 3v-10q43 0 43 -6q23 0 30 2t8 5t1 5q0 4 8 4q4 0 6 -3t-2 -7h199v10h22q4 4 5.5 7.5t5.5 7.5z" />
<glyph unicode="&#x2014;" d="M1346 846v90q-10 0 -11 4q4 4 5 8t6 4v25q-8 0 -11.5 3t0.5 7q0 10 11 0v43q-12 0 -16 8l-5 9l-6 -7q-106 0 -184 3.5t-129 7.5v6q-6 0 -7 -6q-78 -6 -161 0v6q-8 0 -13.5 -3t-9.5 -7l-407 4v6q-55 -8 -97.5 -12.5t-70.5 -4.5q-43 0 -74 1t-51 6q0 -16 -11 -17v-31h5 q6 -6 6 -16t-6 -16h-5v-15h5q16 -20 -5 -26h5q4 -4 5 -26.5t1 -57.5q41 -10 41 -21q68 0 73 -6q0 6 7 6q4 0 4 -6q12 4 52 5t116 1v10h67t6 5q4 8 7.5 5t3.5 -20q31 0 36 -6q43 0 75 1t56 5v10q4 -4 19.5 -8t38.5 -8q8 -4 23.5 -1t39.5 7q57 16 94 -6q10 4 43 5t89 1 q-4 4 0 7t14 3v-10q43 0 43 -6q23 0 30 2t8 5t1 5q0 4 8 4q4 0 6 -3t-2 -7h199v10h22q4 4 5.5 7.5t5.5 7.5z" />
<glyph unicode="&#x2018;" d="M475 1548v27h10q6 14 0 37h-10v30q14 -6 14 11q0 18 -14 10v33q20 0 14 4q-4 6 -14 6v68q14 -6 14 10q0 18 -14 10v70h10q6 37 0 78h-10v30h10q6 23 0 37h-10q0 16 6 16q8 0 8 21q41 0 69 1t48 5q16 59 10 84h31q12 4 21 4h12v6q141 0 145 -6q6 -4 21 -4v-53h12 q-4 -16 13.5 -25.5t17.5 -21.5q4 20 7 23t3 -7h41l33 -16v-64h-6q-4 -4 -6.5 -11t2.5 -19h-48q-4 8 -5 2.5t-1 -23.5q-25 0 -37 -1t-18 -9t-7 -23.5t-1 -46.5q-16 -8 -27.5 -14t-23.5 -10v10q-14 6 -37 0v-10q0 8 -27 -13q-4 -4 -4 -10v-10h-6q-10 -16 0 -31h6v-27h-6 q-8 -84 0 -167q16 -10 34.5 -12.5t39.5 1.5v6q20 -12 33.5 -20t17.5 -12v-15h-10q-6 -23 0 -37h10l-8 -11q-7 -11 -7 -15h-6q-6 -8 0 -21q-14 14 -14 -6q-20 4 -38.5 5t-31.5 1q-35 0 -61.5 -1t-42.5 -5q0 16 -31 17l-6 63q-53 29 -98 14q0 12 -6.5 18.5t-10.5 18.5h-10z " />
<glyph unicode="&#x2019;" d="M973 1548v27h-10q-6 14 0 37h10v30q-14 -6 -15 11q0 18 15 10v33q-20 0 -15 4q4 6 15 6v68q-14 -6 -15 10q0 18 15 10v70h-10q-6 37 0 78h10v30h-10q-6 23 0 37h10q0 16 -8 16q-6 0 -7 21q-41 0 -68.5 1t-47.5 5q-16 59 -11 84h-30q-12 4 -21 4h-12v6q-141 0 -145 -6 q-6 -4 -21 -4v-53h-12q4 -16 -13.5 -25.5t-17.5 -21.5q-4 20 -7 23t-3 -7h-41l-33 -16v-64h6q4 -4 6 -11t-2 -19h47q4 8 5.5 2.5t1.5 -23.5q25 0 37 -1t18 -9t7 -23.5t1 -46.5q16 -8 27.5 -14t23.5 -10v10q14 6 37 0v-10q0 8 27 -13q4 -4 4 -10v-10h6q8 -16 0 -31h-6v-27h6 q8 -84 0 -167q-16 -10 -34.5 -12.5t-39.5 1.5v6q-20 -12 -33.5 -20t-17.5 -12v-15h10q6 -23 0 -37h-10l7 -11t7 -15h7q4 -8 0 -21q14 14 14 -6q20 4 38.5 5t31.5 1q35 0 61.5 -1t42.5 -5q0 16 31 17l6 63q53 29 98 14q0 12 6 18.5t11 18.5h10z" />
<glyph unicode="&#x201c;" d="M162 1538q0 10 10 10v43h-10v78h10v37h-10v31q12 4 13 5t-3 5q-4 6 -10 6v27h10v114h6q4 4 5 14.5t1 22.5h11q6 20 0 41h-11h11q6 20 0 27h-23v26q33 4 56.5 5.5t39.5 5.5q0 6 3 7t7.5 2t7.5 4t3 13v27h10v31h10q4 4 5 10t1 10q18 -4 45 -4h64h104q0 -23 7 -27h6v-63h20 v-10q31 -4 54.5 -5t39.5 -6v-83q-4 4 -8 -3.5t-12 -17.5q-43 0 -43 -10l-51 -6v-47h-6q-4 -12 -10.5 -17.5t-6.5 -9.5l-51 -4v-10q-16 14 -43 -13q-4 -18 -7 -34.5t-3 -26.5h-11v-57h11q6 -6 -11 -7v-131q76 -16 98.5 -25.5t26.5 -21.5v-31h-4q-6 -6 -6 -36q-4 4 -10 -6.5 t-10 -10.5q-43 0 -62.5 1t-11.5 5q0 -6 -10 -16h-52v-10h-16v10q-35 10 -47 10q0 4 -5 21.5t-5 21.5h-10v47h-46q-18 0 -28 4v11h-33q-4 4 -5 8t-5 8zM786 1591v15q10 0 11 6v403q70 31 114 21q10 27 11 78h10v22h53v4q16 -4 23.5 -6t7.5 2h90v-12q16 8 57 -15v-84h115v-53 h10v-26h-10v-11q-35 -10 -59.5 -18t-44.5 -12v-21h-11v-47q-20 -16 -38.5 -23.5t-34.5 -3.5q6 6 -31 7q-12 0 -19.5 -4.5t-3.5 -8.5v-162h-10q-6 -23 0 -40h10q0 -10 -10 -11q-6 -16 0 -37q23 -8 27 -22q29 -4 48 -6t32 2l20 -21v-84q-12 -8 -24.5 -15t-22.5 -11h-27v10 h-110v-10h-27v10q-16 0 -18 19.5t-6 23.5h-7v47q-47 23 -63 14v11h-31q0 16 -20 16l-6 53h-5zM504 1894h4v11h-4v-11z" />
<glyph unicode="&#x201d;" d="M1288 1538q0 10 -10 10v43h10v78h-10v37h10v31q-12 4 -13 5t3 5q4 6 10 6v27h-10v114h-6q-4 4 -5 14.5t-1 22.5h-11q-6 20 0 41h11h-11q-6 20 0 27h23v26q-33 4 -56.5 5.5t-39.5 5.5q0 6 -3 7t-7.5 2t-7.5 4t-3 13v27h-10v31h-10q-4 4 -5 10t-1 10q-18 -4 -48 -4h-61 h-104q0 -23 -7 -27h-6v-63h-20v-10q-31 -4 -54.5 -5t-39.5 -6v-83q4 4 8 -3.5t12 -17.5q43 0 43 -10l51 -6v-47h6q4 -12 10.5 -17.5t6.5 -9.5l51 -4v-10q14 14 43 -13q4 -18 7 -34.5t3 -26.5h11v-57h-11q-6 -6 11 -7v-131q-76 -16 -98.5 -25.5t-26.5 -21.5v-31h4q6 -6 6 -36 q4 4 10 -6.5t10 -10.5q43 0 62.5 1t11.5 5q0 -6 10 -16h51v-10h17v10q35 10 47 10q0 4 5 21.5t5 21.5h10v47h43q20 0 31 4v11h33q4 4 5 8t5 8zM664 1591v15q-10 0 -11 6v403q-70 31 -114 21q-10 27 -11 78h-10v22h-53v4q-16 -4 -23.5 -6t-7.5 2h-90v-12q-16 8 -57 -15v-84 h-115v-53h-10v-26h10v-11q35 -10 59.5 -18t44.5 -12v-21h11v-47q20 -16 38.5 -23.5t34.5 -3.5q-6 6 31 7q12 0 19.5 -4.5t3.5 -8.5v-162h10q6 -23 0 -40h-10q0 -10 10 -11q6 -16 0 -37q-23 -8 -27 -22q-29 -4 -48 -6t-32 2l-20 -21v-84q12 -8 24.5 -15t22.5 -11h27v10h110 v-10h27v10q16 0 18 19.5t6 23.5h7v47q47 23 63 14v11h31q0 16 20 16l6 53h5zM946 1894h-4v11h4v-11z" />
<glyph unicode="&#x202f;" horiz-adv-x="436" />
<glyph unicode="&#x205f;" horiz-adv-x="546" />
<glyph unicode="&#x25fc;" horiz-adv-x="1556" d="M0 1556h1556v-1556h-1556v1556z" />
</font>
</defs>
</svg>
