<?xml version="1.0" standalone="no"?>
<!DOCTYPE svg PUBLIC "-//W3C//DTD SVG 1.1//EN" "http://www.w3.org/Graphics/SVG/1.1/DTD/svg11.dtd" >
<svg xmlns="http://www.w3.org/2000/svg">
<metadata></metadata>
<defs>
<font id="merchant_copyregular" horiz-adv-x="724" >
<font-face units-per-em="2048" ascent="1638" descent="-410" />
<missing-glyph horiz-adv-x="500" />
<glyph horiz-adv-x="0" />
<glyph unicode="&#xd;" />
<glyph unicode=" " />
<glyph unicode="!" d="M479 655v15h-10v24v29h10q0 4 -6 5t-6 7v2h12v15h-10q0 2 -1 7t-1 9h-4q-8 39 -8 84q0 47 8 80l4 41q-4 -4 -8 -4t-4 4v4v0q0 2 2 6q-23 6 -34 9t-14 14.5t-2 34t1 65.5q-74 0 -84 -8v-2q0 -4 -5 -4v-27q0 4 3 4q6 0 6 -2v-2q0 -23 -11.5 -26t-9.5 -7l-2 -35 q-23 -6 -36 -10t-23 -4v-395q0 -2 21.5 -7.5t29.5 -21.5v-12h8q0 -14 1 -36t1 -52h8q2 -2 2 -15q0 -14 -2 -16h-8v-43q2 2 6 2q6 0 6 -12h70q8 6 12.5 25.5t6.5 39t2 35.5v19h4q0 27 2 45t4 32q6 0 6 9h41q0 27 1 46t1 29h10zM457 139v35q-8 0 -22.5 4t-20.5 17v16 q0 6 -13.5 10t-29 5t-31.5 1h-16v4q-2 2 -5 2v0l-1 -6t-5 -6l-2 1q-2 1 -4 1l-2 -35q-6 -4 -25.5 -3t-21.5 -11q-6 -16 -12 -22h10q2 -2 2 -17h2q4 -4 4 -20q41 0 42 -7.5t1 -23.5q2 2 6 2t7.5 -10t9.5 -10q4 0 6 6t8 6q2 0 2 -2h2v-8l4 4h2q4 0 6 1t5 1q10 0 20 -3t12 -3 q20 35 29 43l6 24q4 0 8 3t11 3q2 0 3 -1t3 -1z" />
<glyph unicode="&#x22;" d="M625 862v244q-10 0 -18.5 1t-12.5 1v6q-29 0 -29 10v31q-27 18 -35 19q-25 0 -52 -7.5t-27 -42.5h-2q-14 0 -15 -14v-2q-6 0 -13 -1t-15 -1v-43h6v-25h30v-16h9q4 -4 4 -25q23 0 42 -27.5t19 -47.5q0 -4 -1 -10.5t-1 -10.5q2 0 3 1t3 1q8 0 8 -16h-14v-29q14 0 14 -8 q-18 -12 -63 -12v-41l47 -25q10 0 23.5 5t23.5 5h6q8 33 15.5 44.5t13.5 11.5t12 -3.5t10 3.5v24h9zM326 870l-4 -8l-3 15v10q0 8 3 14l4 53h-4q-2 6 -3 19q0 12 3 16l4 60q-4 -4 -4 -5q-2 0 -3 3v4q0 12 7 12v43q-6 2 -7 8h-53v37h-6v18h-80q0 -2 1 -3t1 -3q0 -6 -6 -7 t-10 -1h-8v-41h-29v-6q-10 -4 -18.5 -5t-12.5 -5v-33q8 0 19.5 -11.5t19.5 -15.5v-16h8q6 -6 7 -25h6v-12q20 -4 53 -22v-119h-23v-6q-16 0 -30 -11v-36q4 4 6 5l2 1q6 0 6 -15h8q12 0 31.5 -5t34.5 -5h8t6 2q-2 2 -2 4q0 12 8 22.5t18.5 17.5t20.5 12.5t14 7.5q0 4 -2 6 q0 8 7.5 12t7.5 8q0 2 -6 6z" />
<glyph unicode="#" d="M659 401v68h-8q-2 0 -2 12l-104 6q0 6 -8 7v137h-9q0 4 -1 9t-1 9q0 8 1 14.5t1 10.5h9v74h8v4q0 12 19.5 20t23.5 10v-8q2 -2 6 -2q6 0 13 5t14 5h8v4q0 4 20 5v18q0 4 2 4q8 0 8 -2v51h-8q0 -2 -2 3t-5 10.5t-6 8.5t-3 1q0 2 2 2h-78q-23 12 -22 35v8h-9q0 10 -1 20.5 t-1 20.5t1 20t1 21h9v20h-9q0 4 -1 8t-1 9q0 4 1 8t1 8h9v12h-9q-4 14 -9 21.5t-5 5.5l-57 2q-4 -8 -16.5 -9t-14.5 -5v-29q2 2 6 2q6 0 6 -16q-2 -4 -9 -19.5t-5 -15.5h-4q6 0 6 -21q0 -4 -1 -6t-1 -4l-4 -22h4q0 -4 1 -9.5t1 -9.5q0 -6 -1 -11t-1 -9l-4 -21q6 6 4 6l1 -5 t1 -15h-2h-4q0 -31 -6 -33q-45 -10 -64 -10h-14v-6q-12 -4 -17 -4q-16 0 -15 8t-1 8q-4 0 -6 -6q-6 18 -6 43h-2q-6 0 -6 6q4 4 4 6t4 2v72h-6v39h6v20q-8 0 -8 4l2 2h-103v-49q4 2 6 2q8 0 9 -6q0 -2 -15 -2v-186q-6 -6 -63 -6v6q-16 -2 -33.5 -5.5t-17.5 -13.5q0 -2 2 -2 t2 -2l-6 -6v-70q18 0 27 -5t20 -19l53 -4l4 -15q2 -2 2 -16h10v-246h-16v-8q-16 -2 -40 -3t-52 -1v-80q12 0 28 -29q4 -4 15 -4h22t24.5 -1t18.5 -5v-35h11q2 -23 3 -54.5t1 -72.5q8 0 12 -5t10 -12t15.5 -12t25.5 -5t25 2v4q0 4 6 4v6q0 8 7 16t7 15l-8 2q-6 25 -6 51 q0 27 6 49h8v72h10q0 20 4 24h5q18 0 40.5 3t32.5 3v-2q0 -6 7.5 -8t9.5 -6q-2 -2 -2 -8q0 -12 7 -28.5t7 -28.5v-9q2 2 6 2q6 0 6 -14h-12v-80q16 0 31 -20h51v6q10 4 17 8t12 6l2 207q4 0 8 8t10 8h2q6 0 23.5 6.5t21.5 6.5q8 0 14 -6q0 8 9.5 14t19.5 6h2q0 16 10 16z M438 631h-12v-162h-6q-6 -6 -6 -25h-95v-10q0 12 -8 15.5t-8 5.5q0 4 2 4h-8v35q8 0 8 4v4q0 12 -4 12q-2 0 -4 -2v92h8v27q-2 2 -6 2h-2h8v41q0 31 14 35h56v-4q2 0 9 -1.5t24 -1.5l-5 -4q0 -6 11 -6q0 -14 2 -21t4 -12h4q0 -18 2 -26q8 6 10 6t2 -6v-2z" />
<glyph unicode="$" d="M659 338l-2 143q-4 6 -4 15q0 12 6 18h-2q-8 6 -8 18q-27 4 -38 5.5t-11 29.5h-8v15q-12 0 -28.5 7t-22.5 7v20h-9q-4 4 -4 17q-12 0 -39.5 7t-50.5 7q-2 0 -5 -1t-7 -1q0 10 -8 10v183h8q-2 2 -2 6q0 10 9 16t20 6q10 0 19 -6t9 -29q27 0 35 -4t11 -10t9.5 -12t30.5 -10 q27 -4 31 -10.5t4 -36.5q12 0 12 -11q2 2 17 2q14 0 18 9v139h-28v8q-16 0 -29 8v27q-16 0 -17 4q0 4 3 6q-14 0 -32 5t-18 16v28q-10 0 -46 5t-56 5q-4 0 -10 -1t-8 -1q0 16 6 17h4q-12 25 -12 45q0 10 4 22h8q0 2 -6 8.5t-6 12.5v2q2 0 2 2q-10 0 -34 1t-36 1 q-16 -2 -22.5 -7t-8.5 -10.5t-2 -11.5q0 -4 -2 -4h-4v-12h4q6 -10 6 -21q0 -12 -6 -20h-4q0 -18 -6 -25h-86q0 -8 -23 -8q0 -23 -7 -35t-16 -18t-19.5 -9t-16.5 -5l-2 -60q-4 2 -11.5 -8t-13.5 -10l-2 -6h-20q0 -16 -10 -17l-3 -12q0 -20 6.5 -53t6.5 -51v-7 q37 -23 43 -29.5t6 -29.5v-8q23 0 39 -19h6q8 0 8 -4v-20h6v-29h11q12 -18 21 -22.5t15.5 -5.5t10.5 -2t6 -9q23 0 39 -6v-12h6q6 -10 6 -25h4q6 -37 6 -80q0 -25 -1 -43t-5 -37h-4v-16h-115q-14 37 -14 64v10q-6 0 -6 4v2q0 6 2 6t3 -1l1 -1v43h-6l-68 2q0 -2 -20 -2v-43 l6 -2q0 -8 -3 -17.5t-3 -15.5h6q2 -4 4 -7t2 -7t-6 -10h-6v-35h6v-19h31v-10h10q2 -4 2 -12v-12h10v-31h-10v-23q2 0 8 -2t14.5 -4t13.5 -4t3 0v-10q47 0 74.5 -1t43 -6t20.5 -13.5t5 -20.5v-39q4 -10 25 -10h10q10 0 12 -4t8 -4q12 0 29 9t27 9v31h8l6 37q8 8 35 8h4h16 q8 0 11 4q4 0 4 -4q4 2 16 13t23 11v27q2 0 4 -2q2 0 5 7t7 7q27 4 36 10.5t9 28.5h4q0 14 6 20.5t14.5 7.5t14.5 1h8l8 47h2zM303 678q-16 -10 -16 -29l-31 -4q0 2 1 3l1 1q0 10 -7 13.5t-7 9.5l-11 2v16q-2 4 -10 5t-18 1q-8 0 -16.5 1t-10.5 8l2 106q4 0 4 16 q25 6 36 10.5t13 6.5v10q4 0 5.5 -1t3.5 -1q10 0 20 6t21 6q2 0 3 -1l1 -1v-18h6q0 -16 2 -26.5t4 -14.5h4v-21h-4q-2 -4 -2 -10v-8q0 -14 2 -21h4v-65zM549 342q-41 0 -56.5 -7t-15.5 -34h-45q0 10 -7 13t-7 10l-8 2q0 18 -1 28l-1 11h-7v36q4 -4 7 -4l1 3t1 10q0 10 -8 12 l-7 2q0 4 11.5 16.5t7.5 12.5h4q0 2 1 12t4 20.5t9 18.5t17 8q8 0 15 -7t13 -14.5t15.5 -14.5t25.5 -7q0 -2 -1 -3t-1 -3q0 -10 25 -10v-23h8v-88z" />
<glyph unicode="%" d="M680 242l-2 239q-10 0 -10 13h-37q-12 12 -13 73h-4q-6 6 -6 15q-27 8 -39 8q-10 0 -10 26h-10v17h-37q0 -14 -4 -23q-4 2 -6 2q-4 0 -9.5 -3t-5.5 -7q0 -2 2.5 -3t2.5 -3q-6 -2 -11.5 -3t-11.5 -1q-29 0 -30 20.5t-1 36.5q0 14 1 25.5t1 23.5h9q0 25 4 30t10 7t14 5 t15 26h8v147h8q-4 2 -4 5q0 6 12 22h33q-2 2 -3 4l-1 2q0 4 8 8t8 9q0 8 -2 10h-10q-4 8 -4 24t4 25h10q0 12 -2 12q-4 0 -8 -2v74h-17l-4 4l-65 4q0 -8 -14 -8v-152q-8 -2 -9 -8h-2q-43 0 -46 -10t-9 -23h-4q-2 -2 -2 -4t4 -2l2 2v-123h-4v-34l-55 6q0 8 -2 8t-3 -4 q0 8 1.5 22.5t-3 28.5t-16.5 25.5t-41 11.5v80q-10 10 -22.5 15t-28.5 9v2q0 12 -8 14.5t-8 4.5t1 3t3 5h-31q2 -4 2 -6q0 -4 -12 -4q0 -27 -2 -33l-41 -2q0 -6 -7 -8q0 -23 -1 -40.5t-3 -27.5l-8 -4q0 -4 -5 -8t-5 -10v-2h-2q0 2 -2 2q-10 0 -17.5 -6.5t-15.5 -6.5h-4v-129 q4 4 6 4q4 0 4 -18q0 -10 -4 -10t-6 2v-80h8q8 -8 31.5 -20.5t23.5 -28.5h5l4 -8t2 -11q0 -4 -2 -7t-4 -7l-5 -20h5q16 -16 19 -22.5t24 -12.5q0 -6 6 -9.5t6 -13.5v-2q31 0 31 -6q4 0 10 4t10 4q6 0 8 -2v10q29 14 35 15q10 -10 10 -31q0 -25 -10 -35h-22q-8 -2 -10.5 -15 t-10.5 -18q8 -16 8 -69h6q2 -2 2 -10q0 -10 -2 -15h-6q0 -14 -8 -24h-4q-16 0 -47 -19v-123q2 0 31 -24q8 0 19 -5t22 -5q10 0 10 8q0 10 12 10l4 100h12q-2 2 -2 9q0 14 17.5 23t23.5 11q0 23 9 31h-5q-4 12 -4 21q0 10 4 22h5v64l6 -3q4 0 5 4.5t3 4.5q6 0 10 -6h2 q2 0 10.5 -2.5t18.5 -12.5v-33h4q4 -33 3 -55t15 -26h25q20 0 23 -9v-92q14 0 38.5 -8t24.5 -23l-2 -4q0 -4 33 -24q0 -2 1 -3l1 -1q20 0 22 16t4 23l2 -2l7 4q6 4 13 8t15 9t10 5v39q0 18 5 29h8v24q2 -2 8 -2t16.5 8.5t20.5 8.5h4zM426 502q-4 0 -12 -4t-17 -4 q-4 14 -6 14h-2q4 6 37 6v-12zM225 618q-25 -10 -24 -18l-29 -4v2q0 10 -5 13t-5 7h-6v66q0 29 -2 49h-11v10h11q2 6 2 15v20h6q4 6 4 10v9v6q8 23 31 22q10 0 14 -15t6 -33.5t1 -36t-1 -21.5h8q-2 -4 -7 -8t-5 -9q0 -4 4 -10h8v-74zM567 262q-14 0 -14 -12q0 -10 -8 -10 q-10 0 -15.5 6t-11.5 6q-2 0 -6 -4q0 31 -1 52.5t-3 37.5l-8 2q0 4 5 11t5 14h-2h-8v36h8l4 52q2 -2 4 -2q2 8 8 17t25 9q-2 -2 -2 -4q0 -4 12 -4v-37q0 -25 8 -26v-144z" />
<glyph unicode="&#x26;" d="M629 84q0 4 1 9t1 9q0 12 -7.5 32t-7.5 32q0 4 1 7t1 7q-16 0 -29.5 3t-13.5 24h-8v35q-20 0 -37 7l-16 7q0 4 7 8t16.5 7t18.5 7.5t11 8.5q0 12 1 23.5t1 21.5t-1 17t-1 16q4 0 12.5 13t18.5 15h20v10v5q0 4 3 4q6 0 8 -2v59q-10 0 -11 4v4v0q0 2 3 2q2 0 3 -1t5 -1v31 h-11v24h-30q-4 -4 -13.5 -12t-15.5 -33q-16 -6 -43 -6v-75l-2 2q-4 0 -7 -5.5t-7 -9.5h-6q-8 0 -28 4t-24 15v20q0 12 -4 12h4v25h-4v25h4v20h-4v18q-23 0 -33 3.5t-10 21.5h-12q-2 6 -2 25v10q0 8 2 12h12q0 23 2 27h27q6 0 13 9t15.5 20.5t19.5 20.5t30 9h2q0 25 3 36 t32 11q0 20 18 21q-2 0 -2 2t12 18h-8q0 23 -1 61t-1 91q-12 0 -12 4v6h-29q0 8 -3 7t-6 5t-6 26.5t-3 70.5h-43q0 8 -4 8h-5q-6 0 -10 8q0 4 2 15.5t2 15.5t-1 6t-1 4q-2 -2 -6 -2q-8 0 -8 10h-27q0 -2 2 -3l2 -1q0 -4 -18 -4q-8 0 -8 4l-99 4l-4 -16h-10v-49h-49 q0 -16 -6 -17l-6 -35q-27 -6 -43.5 -11t-16.5 -28q0 -14 6.5 -38.5t6.5 -30.5t-4 -19l-7 -12h7q4 -8 4 -16q0 -2 -4 -15h-7l7 -2q2 -6 3 -24.5t1 -52.5h2v2q14 -10 30.5 -17.5t16.5 -34.5h10q0 -25 -10 -24h10v-35q10 0 33 -29q-16 -10 -49 -17t-43 -11v-45l4 4q4 0 6 -7.5 t2 -11.5q0 2 -4 -9t-8 -20.5t-4 -11.5h-46q0 -12 -8 -12l-2 -16h4q6 -4 6 -19q0 -10 -6 -16h-4v-170q10 0 10 -10v-7q-2 -8 -2 -14v-6q0 -10 12.5 -16.5t18.5 -10.5v-20h8l1 -3t1 -9h7q16 -16 34.5 -23.5t18.5 -24.5v-4l4 2q4 0 6 -5t6 -5h4q16 -18 35 -18q18 0 33 -6v4 q0 4 10 4q4 -2 4 -8h2q10 0 22.5 5t22.5 5q4 0 7 -1t6 -1q0 16 30 16l2 60q4 0 6 2v8q2 2 7 2h4l5 -1q5 -1 12 -4t13.5 -9.5t6.5 -14.5q0 2 2 2q8 0 14 -22h33v-15q6 -4 19 -17t24 -13q-2 0 20.5 8t52.5 8q2 0 5.5 -1t7.5 -1zM455 782h-4q-4 -6 -5 -10q0 -2 -2 -7t-8 -12.5 t-22 -19.5l2 1q2 1 2 3l-8 2q-2 0 -3 -1l-1 -1v-4q0 -2 -3 -2v0q-2 0 -6 2q-2 -4 -2 -28h-2q0 2 -2 2q-6 0 -8 -7l-2 -8q-2 0 -15.5 6.5t-37.5 6.5v16q0 18 -10.5 22.5t-55.5 4.5q0 10 -6 10v45h6l6 119q37 16 48.5 21t11.5 20h8v20h29v-8q0 -20 30 -21q0 -2 -1 -4t-1 -4 q0 -8 7.5 -9t16.5 -3t16 -8t7 -25q0 -4 -1 -8t-1 -6h4q0 -18 2 -28.5t7 -14.5h2q2 0 2 -6h-4q-8 -6 -9 -21q0 -6 1 -12t8 -8h4v-15zM395 262q-20 0 -20 -20q-4 0 -7 1l-3 1q-2 0 -9.5 -4t-11.5 -4q-8 0 -8 2v-35l-74 4v24q-4 6 -4 7h-6q0 4 -39 4v45h-10v20q10 0 10 6v4 q0 14 -2 15q-2 0 -8 -6v34q10 0 10 5h-10l6 92q8 0 8 4q0 2 -3 9t-1 7t3 -1t3 -1q14 0 29.5 6t25.5 6h2q0 10 13.5 16.5t25.5 10.5v-12h4v-21q0 -2 31 -88q0 -8 11.5 -14t21.5 -14v-15h8q4 0 4 -4l-12 -4q-2 -2 -2 -4v0q0 -4 14 -4v-72z" />
<glyph unicode="'" d="M471 858v248q-20 4 -34.5 12t-14.5 23h-6q0 12 -8 12t-9 4q0 2 2 5t5 7q-8 0 -17 -2q-4 2 -8 7q-4 -4 -12 -5h-13l-4 -12q-2 -2 -14 -2q-14 0 -14 2t-7 12q-14 -14 -14 -55h-41q2 -2 2 -4v0q0 -4 -10 -4v-41q4 -2 20.5 -10t18.5 -11v-22h10q-2 -2 -2 -6q0 -8 10.5 -16.5 t21.5 -19.5t21.5 -25.5t10.5 -36.5v-9q12 0 12 -6v-2q-4 -6 -12 -6l-3 -51h-16v-6h-29v-31q10 -8 19.5 -14.5t15.5 -10.5l39 4q18 0 25.5 20.5t7.5 24.5h18q6 4 11.5 15.5t15.5 11.5h2z" />
<glyph unicode="(" d="M537 -2v22q-12 2 -22.5 4.5t-19 11.5t-12.5 26.5t-4 52.5h-2q-10 0 -20.5 10t-30.5 10q0 4 1 6t1 6q0 16 -7 37t-7 29q0 4 2 9t4 9q-4 4 -8 2t-15 9q0 6 11 6l-2 24q-45 0 -48.5 42t-3.5 114h-6v2q-10 0 -23.5 7t-25.5 7l-2 152h8l2 35q2 0 2 -2h4t15.5 7t17.5 7 q4 0 4 -2l4 -2l6 119h7q0 23 7 28t17 5h6q0 8 23 20v98h6q0 23 6 23h4q4 0 11.5 5t9.5 5q10 0 12 -2v6q0 6 6 14.5t6 16.5l-1 1t-1 5h-10v10v19h10v20h-10l-2 2v2l13 20q14 19 38 19h10v31h-14q-6 2 -6 4l-76 4l-6 -65h-45q0 -10 -14 -11v-41q8 8 12 9q2 0 2 -17 q0 -6 -14 -6v-37q-27 0 -41.5 -14t-18.5 -10v-35h12v-10q0 -4 -5 -18.5t-23 -14.5l-2 -6h-2h-8t-15 2h-4q-4 0 -8 -3t-6 -10v-61h10q2 -4 2 -21q0 -12 -2 -18h-10v-25q-16 0 -34.5 -2t-25.5 -16v-80q2 6 9 6l1 -9q1 -9 1 -13q0 -6 -11 -6v-123q10 0 11 -19v-8q-2 -8 -2 -16 v-10q0 -14 13 -24.5t23 -16.5q10 -29 18.5 -63t8.5 -56v-8q2 0 4 1t6 1q23 0 31 -27t8 -61q2 2 8 2l2 -8q2 -7 7 -7v-2q0 -6 7 -9t7 -11l29 -2q10 -10 12 -27.5t2 -46.5q39 0 39 -8v-17h6q6 -6 6 -18l2 2q4 0 15 -18q16 0 31.5 -8.5t19.5 -24.5h28v28q0 -2 -4 -2q-2 0 -6 5 v2q0 4 6 9t6 9v2q7 0 7 -4z" />
<glyph unicode=")" d="M225 1108v20q-35 0 -39 -4v-16q2 2 7 2q4 0 4 -12q4 0 11 6t11 6t4 -2h2zM537 393v277q-8 0 -9 4v2q-12 0 -19 1t-9 1v6v-2h-2q-8 0 -12 6l-3 6q-2 0 -4 -2v135q-14 0 -14 7q0 2 2 4h-53v65h-4q0 4 -1 10.5t-1 16.5l-54 8q0 14 -5 38.5t-5 37.5q0 4 1 8t3 10q-14 0 -14 4 l2 2q-16 0 -25.5 3t-13.5 8v26h-8q-4 0 -4 17h-17q-4 2 -8 6q-29 0 -35 -6l-2 -11q-4 0 -11 -4t-13 -4h-2v2v-37l1 2t3 2q6 0 12 -2l12 -4h4q8 0 9 -8v-16h8v-23h10q2 -2 2 -12q0 -8 -2 -14h-10v-23l10 -2q0 -14 7 -19.5t16.5 -8.5t16.5 -7t9 -16q0 -10 1 -30.5t1 -49.5 l8 -2q0 -8 4.5 -11t4.5 -12h4q14 0 22 -13t11.5 -29.5t4.5 -29t1 -10.5l12 -2v-28h-12v-31h12v-21l7 -2q7 -2 14.5 -3t13.5 -2l6 -1v-22h6q2 -18 4 -38t2 -40t-2 -39.5t-4 -40.5q-4 4 -8 4t-11.5 -5t-13.5 -5q-2 0 -4 4q0 -4 -7 -10t-7 -12l-10 -123q-4 -4 -5 -11h-41 l-4 -133q-33 0 -57 -18l-2 -92q-2 0 -5 1t-5 1q-18 0 -25.5 -4t-10.5 -10.5t-4 -10.5t-9 -4v-53h4q8 -2 8 -17h22q0 18 11 19q2 0 4 -2v33q0 2 6 2h4q2 -2 2 -11l47 2q0 10 10 23q0 8 9 8q10 0 12 2v4q10 4 17 7.5t12 5.5l2 51l12 4q0 4 8 17.5t25 13.5h2q0 6 2 13t4 11h6 v21q-14 0 -14 4q0 2 2 4h12q2 18 11 27.5t18.5 17.5t16.5 18.5t7 28.5v6q-2 16 -2 31v24q0 18 2 21h6q-2 2 -2 6t7.5 8t16.5 7l15 5l6 1v28h9z" />
<glyph unicode="*" d="M655 242v84h-6q-4 4 -4 10t4 14h6q0 12 -4 12q-2 0 -2 -2q-4 4 -4 21l-53 4v43q-4 6 -23.5 5t-23.5 11h-4q-8 0 -9 11v22q-25 0 -35 2t-13 4t-2 4l1 2q0 14 8.5 18.5t16.5 4.5q10 0 18.5 1t8.5 11q0 4 -1.5 7.5t-1.5 7.5v4q0 4 8.5 12t24.5 8h2q4 0 6 -4q0 23 13 23 q2 0 6 -2q0 12 4 24h18v8q16 12 22.5 19.5t8.5 12.5t1 9t3 11h6v20h-6q-4 20 -4 35q0 10 1 15t3 14h6q-4 2 -7 7t-3 23h-41v-35q-25 -4 -42 -6t-17 -14q0 -4 1 -12.5t1 -16.5t-9.5 -12t-20.5 -7t-20.5 -4t-11.5 -1v-11q-8 -16 -45 -16h-14t-16 2v14h-7q0 2 1 3l2 2 q0 10 -11 10q-10 0 -10 2q0 23 18 22v25h7v45h-7v29h7v73q-10 0 -11 2q0 12 11 13v28h-7v119q-16 0 -21 1t-7 3v2q-4 4 -10 4q-8 0 -12.5 -5t-8.5 -5v-10q-4 -2 -8 -2h-8t-9 2h-2q-10 0 -16 -8v-113h4q4 0 8 -7t6 -9q-6 0 -10 -4q2 -4 2 -13q0 -6 -10 -6v-104h6q4 -20 4 -29 q0 -14 -4 -27h-6q0 -2 -2 -2v-2q0 -4 8 -7t8 -9v-4q-4 -4 -14 -12.5t-10 -16.5v-4q-6 -2 -29 -2h-12q-6 0 -14 2v2q0 8 -8.5 11.5t-8.5 11.5l-49 4v28h-10q-6 20 -23.5 27.5t-21.5 7.5h-4q-4 12 -9.5 26.5t-5.5 10.5v4l-8 -4t-20 -12v-131q2 2 4 2h2q2 0 9 -4t15 -8.5 t14.5 -7.5t6.5 -1v-16h8q2 -6 3 -11t1 -14q4 2 10 2q14 0 29 -20v-25q41 -20 61 -20v-2q0 -8 -8 -15.5t-14 -7.5h-12q-12 0 -13 -2q0 -2 -4 -30q-4 -20 -21.5 -19.5t-21.5 -7.5q-2 0 -6 4l-4 -47q-6 2 -23 2q-23 0 -36 -8v-133l8 -2q0 -6 7 -9.5t7 -13.5v-2q6 0 9 6t20 6 q-4 2 -4 6q0 10 13 18.5t17 8.5q4 -2 7 -2q14 0 24 22.5t14 30.5q4 -2 5 -2h2q6 0 13 5t9 5q8 0 10 -2q0 10 11.5 21.5t60.5 11.5v-49h6q4 -12 4 -16q0 -8 -4 -13h-6v-88h6q8 -12 8 -32h4q4 -8 5 -25q0 -10 -5 -23h-4v-20q0 -8 15 -8q16 0 20 -8v2q0 6 13.5 10t17.5 4 q12 0 22 -8q-6 2 -6 10q0 4 7.5 6t7.5 6t-2 6h-7v35q-4 -2 -6 -2h-2q-6 0 -6 10q4 2 6 3.5t8 1.5v12q-25 0 -24 10q0 2 1 3t1 3q4 0 8 -1t8 -1q14 0 15 19v16q-2 8 -2 16q0 10 4 19h10v18h-10q-2 4 -2 15q0 8 2 10h10v35q4 0 12 12t17 12q2 -8 23.5 -21.5t27.5 -27.5l1 1 t5 1q14 0 29.5 -15.5l25.5 -25.5q33 0 41 -12t12 -23q21 15 37 15z" />
<glyph unicode="+" d="M655 487v2q0 4 -7 5.5t-7 5.5l14 2v12h-6q-4 12 -4 23q0 12 4 16h6v14q-2 0 -2 -2h-2q-10 0 -12 9.5t-23 9.5q-23 0 -41 -5.5t-24 -5.5q-12 0 -21.5 5.5t-27.5 5.5q-4 0 -12.5 -1t-16.5 -1h-16q-23 0 -32 4t-13 18t-3 43t1 80q0 -4 -2 -4t-5.5 4t-3.5 8q0 2 11 2v217h-7 v84h-73q-4 -2 -4 -4l-2 -2l-9 -4q0 -6 -10 -11t-10 -11l2 -2q2 -3 4 -7h6q4 -12 4 -14q0 -8 -4 -20h-6v-91h6q2 -12 3 -24t1 -25q0 -14 -1 -27.5t-3 -27.5h-6v-45h6v-141q-12 2 -26.5 3t-30.5 1q-61 0 -103.5 -3t-50.5 -3v-9q2 0 -3 -3t-11 -7t-10 -7t2 -3q-4 0 -6 2v-76 q2 2 4 3l2 1q2 0 2 -12h94v-10h2q2 0 10 2q8 0 8 -8q33 6 54 6h16t19.5 -6.5t15.5 -21.5t6 -46q6 0 14 -4l4 -281l11 -24l59 2l5 4t10.5 9t8.5 9t-1 4l8 -4v15h-8v37v36h8v35h-8v31v33h8v63l-8 -4q-2 0 -2 4v6q0 4 5 11.5t9 11.5q-4 4 -11 2t-7 2l2 2q0 10 6 10q2 0 2 -2h4 l4 60q57 4 96 5t64 1h20l2 10q10 0 22.5 9t24.5 9h2z" />
<glyph unicode="," d="M479 115q-10 37 -10 67v21h10v12h-10v16q-14 0 -14 7q0 2 2 4h-31q-2 0 -10 8t-8 16h12q0 4 -7 6t-7 4q0 4 2 7h-70q0 -10 -15.5 -15.5t-15.5 -17.5v-2q-33 -16 -55 -17h-6v-20h10q2 -6 2 -14v-19l2 2q4 0 4 -16h33v-12h8q0 -6 1 -15.5t1 -21.5q2 0 5 1t7 1q14 0 48 -17 v-16q14 0 14 -8q0 -4 -14 -4v-78q-12 -2 -22.5 -4t-20.5 -2h-5v-27h-12l2 -22q4 0 8.5 -4.5t12.5 -10.5h53v8h37q-6 0 -6 11q6 8 8 8t4 -2q0 20 6 24h17q-2 4 7 9.5t11 9.5l2 123h10z" />
<glyph unicode="-" d="M655 451v69q-4 0 -13 8.5t-13 10.5h-267v10h-102q-4 -12 -19.5 -11t-19.5 -10q-4 0 -4 11l-141 -4q0 -6 -8 -7v-88q35 -8 61.5 -14t46.5 -10h21q14 0 36.5 2l45 4t43 4t30.5 2l2 -4q8 0 15.5 2t11.5 2v-4q39 0 41 4q12 -10 21.5 -6t11.5 -6q35 4 59.5 6t44.5 2h14 q2 4 7 4h8v-4h30q0 8 13.5 14.5t23.5 12.5z" />
<glyph unicode="." d="M477 23v141q-10 12 -35.5 13t-35.5 7l4 54h8v20q-8 0 -31 16h-59q-23 -6 -23 -32v-19v-14q0 -16 -8 -21.5t-18.5 -8.5t-20.5 -7t-12 -18l6 -21q6 -8 6 -31q0 -10 -1 -17t-5 -15l-6 -13h6q6 -10 6 -18q0 -4 -1 -5t-1 -3q37 -25 43 -50.5t6 -48.5v-8q2 2 4 2q-4 0 7.5 -3 t26.5 -8t28.5 -9t15.5 -4q0 23 31 22v56h6v6q0 20 16.5 25t28.5 14h2t6 -2z" />
<glyph unicode="/" d="M657 999v31l-10 2q0 10 -8 11t-8 4q0 4 2 6h2q8 0 10 10t4 10q2 -2 8 -6v29h-10q0 6 -1 9t-1 7q0 8 1 12t1 9h10v34h-18q-4 2 -7 4.5t-9 2.5q-12 0 -24.5 -4.5t-25.5 -4.5q-2 0 -3 1t-3 1q-8 -10 -10 -23.5t-2 -31.5h-10v-31l10 -2q0 -10 6 -12t6 -10v-4q-2 0 -13 -2 t-25.5 -5.5t-27 -6.5t-16.5 -9v-39h11l1 -7t1 -23v-9q0 -20 -18.5 -23t-28.5 -3t-15 2q0 -14 -4 -27h-10v-45q14 -10 24.5 -20.5t18.5 -14.5q-14 -25 -25 -24h2q10 0 11 -6q0 -2 -7 -3q-6 0 -6 -6v-4q-18 -18 -39 -18q-12 0 -20 2q8 -6 8 -10t-16 -4v-89q-41 -10 -56 -10 q2 -2 2 -4t-10 -2v-88h8v-35h-8q0 -27 -4 -31h-47q2 -2 2 -6t-8 -4l-6 -84q-27 -10 -39 -10l-8 -2q0 -6 -13 -6v-39l6 3l3 1q4 0 4 -16q0 -10 -4 -11h-2q-2 0 -7 2v-75q-16 -6 -30.5 -10.5t-20.5 -8.5v-55h-8v-25h8v-53q-18 -6 -35.5 -5t-27.5 -28h-6v-26h6q4 -4 4 -11 q0 -4 -4 -16h-6v-24h6q2 -18 3 -48t1 -71q33 0 50 -5.5t26 -5.5q4 0 8 6.5t8 6.5q2 0 4 -2q0 16 12 16l2 35q-4 -4 -6 -4q-8 0 -8 12t10 12q2 0 4 -2v60h9v4q0 16 18 21t27 8q-2 4 -4.5 5t-2.5 3q0 4 7.5 10t7.5 12q0 2 -2 2v2q-2 -2 -4 -2q-8 0 -9 8q0 2 7 3q-2 2 -2 4 q0 4 8 4v30l-2 -2q-4 0 -6 7v2q0 6 5 8t5 8q0 4 -2 12t-2 11q0 14 17.5 15t27.5 11q0 16 2 17l12 110l2 2q0 4 4 9t8 12l41 8l4 63h11v15q0 18 6 23t14 6t17 1q8 0 12 9v55h-10q-2 6 -2 22q0 29 17 44.5t44 15.5v41h10l4 55q6 8 14.5 13t16.5 8.5t14.5 8.5t6.5 17t-7.5 36 t-7.5 36q0 4 1 8t3 10q-18 0 -14 4q16 14 18 28.5t7 27.5q16 0 22 -3.5t12 -7.5q2 0 3 6.5t8 6.5l1 -1t3 -1l2 41h6v34l10 5q0 6 18.5 22t34.5 16zM459 778l-4 8h4v-8z" />
<glyph unicode="0" d="M664 270v269h-11v55h11v20l-7.5 7.5t-3.5 7.5v4q0 2 11 2v127q-12 0 -13 4q0 2 8 2h5v35h-11l-2 18q-10 0 -24.5 3t-26.5 3h-10q-2 0 -2 9q0 6 16 6v20q-16 0 -16 6q0 2 2 4q-2 -2 -6 -2q-12 0 -26.5 5.5t-18.5 5.5l-2 80q-6 4 -11.5 17t-42.5 13h-4v0q2 0 2 2 q0 8 -6 9.5t-6 3.5v0q2 0 2 2h8v26h-8v17q-14 0 -14 4v4h-6t-15 2q-10 0 -12 -3t-4 -7v8q-8 -6 -23.5 -7t-42.5 -1v8q-16 0 -24 -8q-6 0 -6 8q-16 -4 -28.5 -6t-23.5 -2h-8l-2 -7q-4 0 -7 -5t-9 -5v-26h8l4 -4q0 -2 -8 -3q-8 0 -8 -4q0 -6 4 -6q-2 -2 -14.5 -4t-36.5 -12 q0 -20 -9 -27h9v-51h-9q0 -10 -1 -17.5t-3 -7.5l-47 -2q0 -6 -8 -8l-6 -35h-29l-5 -3t-13 -13l-2 -49h-11v-25h11v-139h-11q8 -20 10.5 -35.5t2.5 -27.5v2h2t4 -8.5t2 -10.5q0 -4 -8 -4v-41t-2 -29h-11q2 -2 2 -4q2 0 3 1l2 1q4 0 5 -52t1 -130q8 -4 30.5 -7t22.5 -20l2 -6 q6 -6 6 -14t-6 -10l-6 -4l2 -2q6 -2 8 -5.5t2 -27.5q0 2 2 2q4 0 4 -16q8 2 15 2q12 0 25.5 -11.5t13.5 -62.5h6q6 -6 6 -19q2 0 3 1t3 1q10 0 33 -22v-12h8q4 -2 4 -11q0 -8 2 -8h2q4 0 8 2h2q6 0 7 -10q10 8 24 8q12 0 32.5 -6t31.5 -6v-6q10 8 36.5 10t34.5 10 q6 -12 11 -12q4 0 15 7t15 7q6 0 8 -2q0 10 2.5 15.5t4.5 9.5q2 -2 4 -2q-4 0 14 11t27 15q4 23 7 38.5t7 27.5l6 4q0 8 14 21h17q0 16 22 26l4 66h11q-6 0 -6 2q0 4 13 15t28 11h2zM559 303h-6v-24q-12 4 -10 4q-4 0 -13.5 -6.5t-17.5 -6.5h-2q-10 -12 -10 -20v-6h-6 q-2 -10 -4.5 -28.5t-2.5 -47.5q-25 0 -43 -4t-18 -39q-4 4 -12 4q-4 0 -19.5 -6t-25.5 -6l-2 2q0 10 -5 10q-2 0 -8 -3t-6 -1v-8q-2 0 -3 -1t-3 -1q-10 0 -16.5 6t-8.5 6q-8 0 -10 -2v8q0 16 -9 21.5t-9 13.5h-43v35h-13v24h13q2 4 4 7.5t2 7.5q0 8 -11.5 15t-15.5 7 q-8 0 -10 -4v10h-29q0 25 -1 30t-5 5h-6h8l1 11l3 30v8q0 14 -12 27q12 0 12 2v2q0 18 -4 18q-2 0 -8 -8v144q8 0 12 6v4q0 2 -12 2v74q8 0 12 4v4q0 2 -12 2v49q4 0 5 -2t3 -2l4 8q-4 4 -12 4v33q6 0 13.5 7t7.5 20q2 0 2 -2h2q8 0 15 7t13 7q2 0 2 -2h2q0 2 1 7t1 15h13 q0 10 1 16.5t1 12.5q0 10 -1 14t-1 15h-13v14h25v6q25 0 32 4t7 21h8l2 45h12q0 -10 15.5 -13.5t11.5 -3.5q4 0 13.5 1.5t19.5 3.5q0 -4 12 -5h17q0 -14 4 -14h2t6 2v-22q4 -8 37 -9q-2 -2 -2 -4q0 -6 16 -6v-18h8q0 -33 4 -41h4v-15q0 -14 2.5 -17t8.5 -5l15 -5t24 -18h2 q0 2 0 -4t1 -16t4 -19.5t9 -11.5v-319q0 -2 2 -2t4 2v-8h-6q-6 -10 -6 -23q0 -10 6 -23h6v-16z" />
<glyph unicode="1" d="M545 27v30h-8q0 2 -2.5 6.5t-2.5 8.5t2.5 8t2.5 8h8v72h-8q0 4 -2.5 7t-2.5 7t2.5 7t2.5 7h8v31q-2 -2 -6 -2q-6 0 -7 10q0 14 13 15v37h-8q0 2 -2.5 4t-2.5 4q0 4 6.5 10t6.5 8h-8q0 6 -2.5 10t-2.5 9q0 4 2.5 7t2.5 7h8v18h-8v136h8q0 4 -4 6t-9 2v321q-2 -2 -4 -2v0 q-6 0 -6 8h2q-2 0 -2 7q0 8 10 8v78q-8 12 -8 63q-25 0 -24 8q0 2 1 4t1 4q2 0 2 -2h4t5 6.5t3 6.5q6 0 8 -2v43h-41q4 -4 7 -5l2 -2q0 -8 -19 -8q-14 0 -14 11v4h-8q-6 0 -9.5 -7.5t-9.5 -7.5h-10v-37q-8 -2 -42 -7t-48 -17h-2q-8 0 -11.5 4t-9.5 4q0 -39 -3 -42t-3 -9h-4 q-16 0 -43 -6t-43 -6h-12q0 -4 -15 -5v-59h-8v-29q2 0 3 1t3 1t2 -8q6 2 8.5 3t6.5 1q14 0 37.5 -9t29.5 -9h6q18 0 44 5t34 5q2 0 12.5 -1t20.5 -6t18.5 -13.5t8.5 -22.5v-8h10v-94q4 4 6 4q8 0 8 -12q-4 -4 -14 -5v-65h10q2 -6 2 -14q0 -10 -2 -15h-10v-149q2 2 4 2 q10 0 10 -12h-14v-33q2 4 4 4q6 0 8 -6l2 -6q-4 -4 -14 -5v-73h10q2 -4 2 -17q0 -12 -2 -18h-10v-25h10q2 -12 2 -24v-23v-24q0 -10 -2 -23h-10q0 -8 10 -8q2 -35 3 -61.5t1 -45.5q0 -6 7.5 -8t15.5 -3t15 -2t9 -5h2q6 0 12.5 5t12.5 5h2q2 4 7.5 9.5t25.5 7.5z" />
<glyph unicode="2" d="M664 35q-4 6 -7.5 21.5t-3.5 41.5q-14 0 -14 6q0 2 4 5q-57 8 -100 11t-72 5q-12 0 -38.5 -4t-37.5 -4h-180q-6 6 -14 6q-6 0 -12.5 2t-11.5 8t-5 23q0 2 -2 10t1 16t12.5 14.5t31.5 6.5v8q-2 0 -2 6q0 2 18 2q0 27 2 33h13v27l-17 6q0 2 11.5 8t13.5 6h4q6 0 6 4 q29 0 33 -6q27 6 35 6h4q0 20 12 21q2 0 6 -5v9q0 20 15.5 25t25.5 12h13q0 16 20.5 23t24.5 7h4q0 4 -1 5t-1 3t13 16.5t11 14.5q4 0 8 -2q0 10 2.5 16.5t4.5 10.5q2 -4 8 -4t15 10t20 10l2 2q0 4 6 13.5t28 9.5v10h17q0 18 8 18q4 0 6 -2v25h8q0 2 -2 3t-2 3t7.5 8 t16.5 12.5t15 11.5t4 5l2 55h-6q-4 8 -4 15q0 6 1 8l3 6h6l-2 160q-6 0 -12 9l-6 9q-10 0 -10 -4t4 -8q-4 -2 -6 -2h-3q-12 0 -19 9t-11 21.5t-5 23.5t-1 17v7q-4 10 -12.5 11t-17.5 2t-16.5 9t-7.5 35q0 14 -9 11t-19.5 -4t-19.5 11.5t-9 55.5q-14 0 -14 4v4q-8 0 -40 -4 t-50 -4h-13v8h-71q-23 0 -40.5 -2t-27.5 -6l-2 -7q-4 0 -11 -6t-14 -6h-2v2l-4 -47h-47q0 -12 -8 -12v-27q0 4 2 4q4 0 5 -4t1 -8q-6 -16 -8 -27.5t-6 -15.5h-8q0 -39 -45 -39l-2 2q-3 2 -5 2v-174q12 0 30 -8t30 -8l8 2q0 2 10.5 7t7.5 5q4 0 9.5 -4t9.5 -4q-2 10 -2 16v13 q0 10 2 30.5t3 41t3 39t2 26.5q29 35 57 49q-2 2 -2 6l1 4q1 4 9.5 7t28 6.5t56.5 3.5q6 0 6 -2q12 2 23.5 5t27.5 3q10 0 31.5 -3t21.5 -20h-14v-31h31q0 -6 8 -11t12 -5v-29q4 -6 14.5 -8t21.5 -3t21.5 -4t14.5 -9l-4 -178h-17q0 -4 -12 -8.5t-16 -8.5q-18 -27 -26.5 -35 t-27.5 -8h-6q2 -2 2 -6t-16 -4v-35q-12 4 -10 4q-35 0 -40 -21.5t-10 -27.5q8 0 -53 -16l-2 -39q-8 -4 -18 -4t-19.5 -1t-16.5 -5t-7 -17q0 -10 2 -12q-47 -4 -60 -8v-8q-2 0 -2 -3h-2q-8 0 -15 5.5t-11 5.5v-8q-10 -4 -17.5 -5.5t-11.5 -3.5v-26q0 4 2 4q4 -2 5 -9.5 t1 -11.5q0 4 -6 -11t-8 -19q-2 0 -3 1t-5 1q-6 0 -13.5 -6.5t-7.5 -12.5v-6q-2 0 -7 -1t-11 -1q-4 -2 -3 -12t-8 -10l-2 -146h11q2 -10 2 -29v-47h4q14 0 40.5 -5t37.5 -5v2q8 0 17 -8t15 -8l7 6q2 4 6 4q8 0 13 -4t11 -6v6q4 4 15 4q10 0 18 -4v-6q14 12 28.5 17t18.5 5 q10 0 12 -7t15 -7q23 0 49.5 7t36.5 7q16 0 41.5 -7t40.5 -9v-6q10 0 26.5 3t34 8t32.5 8t25 3q14 0 25 -2q1 7 21 25z" />
<glyph unicode="3" d="M664 160h-5v119q-18 0 -14 4t14 4q0 10 -7 13t-7 30q-10 0 -10 4h4q8 0 8 4v10q0 2 2 2l3 -1t7 -3v115h-10q-4 12 -4 22h-51v27h-8v10q-10 0 -24.5 7.5t-18.5 7.5q0 39 1 58t38 19h4q0 8 7 13.5t11 9.5v29h12q-2 0 -2 6q0 14 20.5 18t24.5 4v86h-10q0 4 -1 8.5t-1 8.5 q0 2 1 5t1 7h10v49h-10q0 2 -1 9t-1 16q0 6 1 12t1 10h10v17h-10q-4 4 -4 8t-1 7t-7 5t-25 2q-20 0 -26 6v39q-25 0 -43.5 1t-30.5 3v8h-43v52q-6 0 -6 2l-31 6v-8q-16 4 -51 6t-92 2h-101q0 -8 -14 -8v-35q6 4 10 4t4 -12q-12 -20 -63 -21q0 -12 -6 -12h-2q0 -29 -6 -35 h-15v-8h-30q0 -20 -5 -29l-4 -10h4q4 -12 5 -37h8q2 -4 2 -10v-8q0 -12 -2 -17h-8v-30h8v-23h90v35q8 6 9 17t3 22.5t11.5 20.5t37.5 9l2 25h2q4 0 6.5 10.5t16.5 10.5q16 0 45 8t49 8t47 -7t80 -7v-27q8 0 12 -8t11 -13q4 0 7 1t7 1q12 0 19.5 -17t7.5 -66h6q2 -8 2 -48h12 v-34h-12q0 -16 -4 -20.5t-10.5 -5.5t-10.5 -1t-4 -4q-4 0 -19.5 4t-27.5 4q-4 0 -19.5 -3t-25.5 -15l-6 -35q-6 0 -25 -19q-4 8 -4 11h-129q0 -4 -7 -14.5t-14.5 -19.5t-14.5 -15l-7 -7q0 2 2 2h6q6 -4 6 -8t-12 -5t-12 -9q0 -4 5 -5t5 -7v-2q6 -2 25.5 -6.5t27.5 -18.5 q6 2 21 2h33h32q16 0 25 2q0 -2 6 -4t6 -10h2q2 0 6.5 -4t8.5 -4q2 -2 2 -17q25 0 30 -16h25q20 0 25 2q6 4 10 6t10 2q10 0 25 -10v-27h6q2 -33 2 -84v-121q2 6 8 6q4 0 4 -14v-4q0 -4 -12 -4l-2 -35q-2 2 -11 2q-18 0 -26 -4t-11 -10t-2 -12.5t-1 -8.5h-9v-18q-4 0 -9 1 t-9 1q-23 0 -56.5 -7t-43.5 -7q-23 0 -49.5 6t-82.5 6v35q-8 0 -8 2t1 3t1 3h-4q-16 0 -29.5 4t-19.5 4v82q-2 -2 -4 -2q-6 0 -6 14h-58v-10q-4 0 -11 -1t-21 -1l2 -2q0 -4 -5 -7t-5 -7q4 0 12 -12.5t18 -16.5h-2q-10 0 -11 -6t-5 -6h-2q0 2 -2 2v-27q2 4 6 4t4 -12 q0 -8 -10 -8v-43h43v-27h8v-12l2 2q6 0 10 -10.5t6 -10.5h25q16 0 18 -14t2 -31q10 0 29 -8t41 -8q14 0 45 8t49 8h6q33 0 38 -8t16 -8q23 0 50 7t48 7q4 0 6 -1t6 -1q0 16 21 17q0 2 -1 3t-1 3q0 10 9 15t20.5 7t21.5 4t12 7v38q37 12 55 13q0 2 -2 2v2q0 10 4.5 18t4.5 15 q0 4 -2 6z" />
<glyph unicode="4" d="M653 176v94q-2 0 -13 -1t-23.5 16.5t-12.5 70.5h-10q-4 12 -4 21q0 14 4 18h10q0 10 -7 11.5t-7 21.5q0 10 4 23h10v10h-10q-2 10 -3 20.5t-1 18.5q0 14 1 23t3 22h10v20h-10q-4 12 -4 19q0 8 4 20l10 4h-2q0 2 -2 2q-4 0 -4 -2h-2q-4 8 -4 19q0 14 4 18h10q0 4 -6 6 t-8 2v383h-10v23q-74 0 -80 6q-29 -6 -86 -6h-107l4 -8q0 -4 -10 -8.5t-10 -8.5q0 -6 2 -10h12q0 -4 1 -8t1 -10q0 -4 -1 -9.5t-1 -9.5h-12v-31l1 1t5 1q8 0 8 -10q-10 0 -22.5 -4t-20.5 -4q2 -2 2 -6q0 -2 -8 -2l-10 -148q-10 0 -19.5 -3t-13.5 -3l-2 -10q-6 0 -10 -3 t-8 -3v-98h6q2 -10 2 -21v-20q0 -29 -6.5 -37t-16.5 -8h-20q-10 0 -19 -13v-47l1 1q1 1 3 1q10 0 11 -10h-15v-49h-6v-10h6q2 -6 2 -21q0 -12 -2 -20h-6v-15q0 4 4 4t4 -6q0 -10 -13 -15t-48 -5l-4 -39h-8l5 -2q5 -2 7 -13q0 -14 -12 -14v-18h8q2 -14 3 -37t1 -57v2 q8 0 22 -19q4 -4 22.5 -7t29.5 -19h90v10q2 2 6 2h8q10 0 14 -2l2 -10q16 0 38 7t34 7q10 0 19 -4v-10h104v-13h8v-10q0 -18 7.5 -45t7.5 -45l2 -10q4 0 12 -10.5t18 -10.5q12 0 22 4l11 4v9q4 4 21 4q18 0 24 8v102h6q-2 2 -2 6q0 2 10.5 11.5t19.5 15.5t11 8v0q2 0 4 -2z M485 303h-2q0 2 -2 2q2 0 -6 -4v-4q0 -6 4 -10h-24q-14 0 -17 -8h-233v24q16 8 28 8v2q0 4 5.5 11.5t9.5 7.5q2 0 2 -2h4v12q0 14 -2 32.5t-6 45.5h8q4 8 4 14q0 4 -4 17h-8v32h8q4 29 15.5 36t23.5 9v174q8 2 16 9.5t13 7.5l2 6q23 4 27.5 9t4.5 26q0 23 -4 21.5t-4 0.5 l6 2q2 8 2 19q0 14 -2 18h-6v66h6q0 2 1 9t3 15.5t7.5 14.5t15.5 6l2 -12q25 0 42 4t26 8q-2 -2 -2 -4l-5 -2q0 -6 9 -6h2q2 0 4 2t6 2q-4 0 1 -14l5 -13h8v-145h6v-60h-4q-2 0 -4 -2l-2 -2q0 -4 10 -4v-12h-2q0 2 -2 2l-3 -3t-3 -7l2 -4q2 -5 6 -5v0q0 2 2 4v-100h-6 q-6 -10 -6 -18q0 -12 10.5 -37t10.5 -35t-9 -18h-6v-45h6l-2 -15q-4 0 -4 -6v-2q0 -2 6 -2v-78z" />
<glyph unicode="5" d="M664 176v43h-11q-2 4 -2 14q0 8 2 11h11v26h-11q-2 10 -2 21v22v23q0 10 2 20h11v80h-11q-2 10 -2 27q0 20 2 29h11v22h-11q-2 4 -2 14t2 17h11v20q-14 0 -15 4v4h-4q-10 0 -17 -7t-12 -7q-8 0 -7 11.5t-5 11.5q0 2 -4 10t-8 18.5t-4 7.5v3q0 2 2 4q-23 0 -37 8h-6 q-8 0 -8 10v25q-10 12 -32 10t-28 6v25q-14 0 -14 6q0 2 2 4q-53 8 -90 12t-64 4q-10 0 -26.5 -5t-22.5 -5v-6l-18 -2q0 -6 -6.5 -11.5t-6.5 -13.5h-6q-10 0 -21 -4t-13 -4q-6 0 -11 4v31q-4 -4 -8 -4q-2 0 -3 4l-1 4q0 8 12 8v47h-10q-4 12 -4 31q0 10 1 16t3 17h10v20h-10 q-2 4 -3 8t-1 11q0 8 4 16h10q-2 2 -2 6q0 8 8 17h86q0 25 17 24q10 -8 21.5 -14t11.5 -10q23 0 59.5 4t83.5 8q-2 0 -2 6t14 6l4 -12q4 0 11.5 -2t15.5 -10q0 12 29 12q-2 0 -2 6t10 6q6 -6 6 -12h59v8q-2 0 3.5 2t11.5 5t13 6t9 3q0 27 1 47.5t3 30.5h11v4v2t-2 2t-3.5 -2 t-5.5 -4q-2 6 -3 11.5t-1 11.5q-154 0 -235 6q-18 0 -25 -6q-6 6 -16 6h-19q-14 0 -47 -5t-49 -5q-18 0 -27 4v6q-31 0 -30 -6h-109q-20 -20 -31 -23v-28l1 1t4 1q6 0 6 -6v-5l-4 -2q-4 0 -7 2v-34h11q2 -4 2 -17q0 -14 -2 -16h-11v-35q2 4 7 4l2 -3q2 -3 2 -11 q-6 -6 -11 -6v-39h11q2 -4 2 -8v-7q0 -10 -2 -16h-11v-20q10 0 11 -7v-2q-4 -2 -5 -3t-6 -1v-73h11q2 -2 2 -7v-8q0 -12 -2 -16h-11v-10h11q2 -10 2 -31q0 -16 -2 -25l-11 -4l7 -1q6 -1 6 -19v-11q0 -4 -2 -8h-11q0 -2 5.5 -8t5.5 -12h4q4 0 7 -9.5t9 -9.5l17 2q0 8 14 13.5 t33.5 8.5t39 4t29.5 5l2 6q4 0 4 8v9q6 0 11 -4q0 10 12 26v4q0 4 4 4l16 2q2 4 9 4q6 0 13 -3t9 -3v2q10 2 22.5 3t22.5 1q12 0 23.5 -1t23.5 -3v-2h4q4 0 5.5 -5t5.5 -5v0q0 2 2 2q4 -4 3 -10t3 -8q2 -4 10 -9.5t18.5 -11.5t19.5 -14t11 -16q43 -10 53.5 -18.5t10.5 -41.5 h4q2 -4 4 -13t2 -30l4 4q2 0 2 -12q0 -4 -6 -4v-25h8q0 -10 -8 -10l-6 -149h-17v-9q-2 -2 -8 -2q-8 0 -14 2h-6q-6 0 -8 -8l-7 -43h-47q-18 -33 -20 -51h-135v8q-35 0 -43 4v23h-9q-2 2 -2 16h-59v37q-4 10 -18.5 12t-24.5 2h-8v17h-8q-4 12 -4 26h-37v-145q20 -4 31.5 -10 t17.5 -11v-26q2 -4 12 -7t21.5 -6.5t20.5 -7.5t9 -8v-2q0 -10 7.5 -14t9.5 -19l3 1t13 3l8 -8h88q-4 6 11.5 10.5t23.5 4.5h8q6 0 11 -2l-2 -5h8q6 0 6 -4v-4l2 -2q4 0 5 5t3 5q4 0 7 -5t7 -5t5 5l2 5q6 0 13 -3t32 -7h10q12 0 22 6q0 2 -2 7.5t-2 15.5q0 4 9.5 12t15.5 10 h22q0 18 17 19v2q0 6 7 13t16.5 14.5t17.5 12.5t10 5q0 18 8 28.5t19.5 15.5t22 6t16.5 1z" />
<glyph unicode="6" d="M664 125v395h-11q-4 29 -5 43.5t-15 16.5q-10 2 -22.5 3t-12.5 17v25q-10 0 -10 2q0 4 2 6l-51 2v33q-27 16 -42.5 18t-33.5 2q-16 0 -38 -3t-46 -7q-10 -4 -14 -4h-7q-6 0 -6 2q0 4 2 8q-35 0 -48 -2t-17 -3t-5 -3t-10 -2l-4 4l-8 6q-12 0 -15 -8t-5 -17.5t-8.5 -17.5 t-26.5 -8q-4 0 -16.5 2t-12.5 18q0 2 4 6h-10q-2 10 -3 21.5t-1 24.5q0 10 1 19t3 19h10q0 10 -4 11q-4 0 -5 -1l-1 -1q-2 12 -3 23t-1 22q0 16 1 26.5t3 20.5h10q-2 4 -2 10t8 18q12 -4 11 -4q8 0 18 12.5t23 12.5h2q0 29 17 34t54 5q90 0 107 -12h2q4 0 4 6q0 8 2 8 q4 0 5 -1t5 -1v-12q39 0 35 -2v-3q0 -10 9.5 -29.5t9.5 -35.5q0 -4 -2 -6l-3 -2h5q6 0 12 -10l6 -11q4 2 8 2q10 0 21 -6v-26q25 0 34 -7v-2q0 -2 4.5 -4t4.5 -10h36v10q10 4 18.5 7t12.5 6v30q-45 0 -52 30t-7 69v12q-4 -4 -6 -4q2 0 -9.5 5t-22.5 10t-13 5v27l-9 2 q0 10 -8 9t-8 3t2 11.5t12 7.5v43q-12 0 -12 2v6q-29 0 -44 1t-24.5 3t-15.5 3t-12 1q-10 0 -35 -6t-41 -6t-25 4l3 6h-13q-4 0 -4 -6h-123v-60h-41v-8q-4 -4 -20 -4l-4 -100q-4 -4 -5 -6t-8 -2q-12 0 -22 2q-12 0 -21 -9v-81h7q6 -12 6 -23q0 -8 -6 -16h-7v-47h7 q6 -6 6 -25q0 -14 -6 -21h-7v-65h7q6 -10 6 -21q0 -12 -6 -18h-7v-63h7q6 -6 6 -15q0 -8 -6 -16h-7v-21h7q6 -6 6 -16q0 -12 -6 -18h-7v-15h7q6 -10 6 -18q0 -10 -6 -17h-7v-18h7q0 -14 2 -50t2 -95q2 6 4 6t2 -15q-4 -8 -6 -8v-39q18 -16 33.5 -24.5t15.5 -24.5h8v-22 q6 2 8 2q-2 0 15.5 -5.5t19.5 -5.5v-18h10v-12q20 0 33 -4v-9q-8 0 12 4q0 -4 4 -8q10 2 30 3t44 1q23 0 53.5 -1t65.5 -3q0 4 14 4l72 -4q4 4 12 4h6v9q18 12 24.5 21t9.5 14t6 7.5t14 2.5q6 0 8 -2v8l2 -2q4 0 6 8t6 8h8q-4 0 -4 2q0 8 8.5 15.5t17.5 11.5t18 6l10 2h2z M559 213h-6l-6 -37h-47q0 -4 -1 -10t-1 -16q-2 2 -6 2q-6 0 -9 -2v-5q0 -4 4 -8q-35 0 -59.5 -1t-44.5 -3v-8h-119q-12 18 -33 18v25q-6 8 -59 8v35q10 0 10 2q-4 6 -10 6v25h10v86h-10v30h10v150q33 12 48 18l16 7q-4 4 -4 6t6 2t6 2v4q20 0 20 6l80 4v2t4 4h25v-6 q10 -2 29.5 -3t54.5 -1q-2 -2 -2 -4l2 -1t6 -1q0 -10 10.5 -17.5t21.5 -12.5t20.5 -8t6.5 -3q4 0 7 2v-41h8q0 -31 1 -54.5t5 -33.5h4q2 0 2 -4l-6 -4q-6 -12 -6 -23q0 -14 6 -20h6v-117z" />
<glyph unicode="7" d="M664 856q0 6 -5 6q-2 8 -4 37t-2 76l-6 2q0 10 -9 9t-9 3l4 10v-2h2q8 0 10 6.5t4 6.5v0q2 0 4 -2v51q-53 0 -73.5 3t-24.5 3q-10 0 -23.5 -7t-17.5 -7t-4 8q-29 0 -42 2t-21.5 5t-11.5 6t-9 3q-10 0 -14 -16q-41 0 -63.5 1t-35 3t-16.5 3t-8 1q-10 0 -10 -8h-3v2 q-4 0 -11 -3l-7 -3q-4 0 -4 6v4h-23q-10 0 -20 -2t-14 -12h-2q-4 0 -8.5 -1t-8.5 -1h-4q-2 0 -2 4l-98 6q0 -23 -2 -25l-11 -2q0 -4 2.5 -5t4.5 -8t4 -22.5t2 -48.5h2q2 0 12 -9t33 -9h8q20 0 37 -10q10 8 23.5 10t29.5 2h27v8q4 4 14 4t19 -4v-8q57 0 70 -7t20 -7 q10 0 27.5 7t27.5 7q41 0 77 -8.5t36 -20.5q0 6 2 8q6 0 12 -15t6 -30q0 -16 -4 -28h-31v-11q-23 0 -28 -6v-86q-20 0 -31 -10v-6h-23v-35h-28q-2 -2 -10.5 -9t-20.5 -17.5t-14 -12.5h12q2 -10 2 -29v-12t-2 -16h-12q0 -2 7 -3t7 -18q0 -12 -7 -20t-17.5 -13.5t-20.5 -8.5 t-17 -5v-51h-12v-29h12v-110q0 2 3 2q8 0 8 -13h-11v-92h5q6 -16 6 -28q0 -16 -6 -31h-5v-109h5q10 -29 31.5 -30.5t33.5 -5.5v-9h19v9q8 4 18 4v30h-6v31h6v29h-6v33h6q0 10 -2 10l-4 33h6q-4 14 -6 25t-2 24q0 14 2 18h6v59h-2q-6 0 -6 9v0q0 2 2 2v4q0 2 6 5t6 11 q0 10 -9 31.5t-9 32.5q0 4 2 9t4 9q-16 0 -12 4t12 4l2 2q-2 -2 -1 1t-3 3t-5 -1l-1 -1q-2 6 -2 15q0 18 8 20l2 8q2 0 3 -2t3 -2q0 16 11.5 29.5t35.5 13.5h6q0 10 1 15.5t3 9.5h11v14h-11q-2 10 -2 19v20v21q0 10 2 20h2q4 0 7.5 9.5t7.5 9.5q0 14 4 14q59 0 90 -6l-2 2 q0 4 12 4l8 104q0 18 4 39h37q0 14 2 22.5t4 12.5h5z" />
<glyph unicode="8" d="M664 176q-14 23 -15 82q-6 2 -6 12q4 8 6 9v24h-6v78h6v25h-6v26h6v29q-14 0 -33.5 6t-25.5 22v25q-35 4 -48.5 5t-13.5 20v16v10q-2 -2 -4 -2q-6 0 -8 7.5t-4 7.5v-3q0 -2 -2 -2q-2 4 -4 8.5t-2 8.5q0 6 2 11t4 11h18q6 0 9.5 8.5t8.5 17.5t14 17.5t30 8.5v4q0 2 4 11 t11 18.5t15.5 16.5t16.5 7q10 0 12 -2v33h-6q-4 18 -4 32v33v25q0 10 4 20q-6 12 -26.5 15.5t-26.5 9.5v24q-8 8 -19.5 10.5t-20.5 5.5t-15.5 8t-6.5 21q-14 10 -26.5 16.5t-22.5 10.5h-6q-6 0 -6 8v23h-10v20q-8 0 -11 1l-4 1q-33 0 -34 -2h-2q0 2 -3 2q-4 0 -9 -3t-7 -3 q-4 0 -4 4l-98 2q-6 -4 -20.5 -3t-18.5 -9l-8 -37q-14 0 -31 -6t-25 -6l-4 -27q-6 0 -6 -4t-3 -10t-13.5 -10t-34.5 -4q0 -29 -8.5 -36t-20.5 -7h-20q-8 0 -11 -15v-131q0 -4 8.5 -9t17.5 -11t17.5 -15.5t8.5 -23.5q2 -6 11 -9.5t19.5 -7.5t19.5 -14t9 -29h2q4 0 6 2 q4 0 10.5 -7t10.5 -7q6 0 9 6t9 6q-2 0 5 -16t7 -18q-25 0 -49 -13v-51q-8 0 -14 1t-16 5q0 -2 -5.5 -3t-12.5 -5t-12 -14.5t-5 -28.5q-6 6 -11 6q-6 0 -18 -8t-16 -8l-4 -39h-7v-101q2 6 5 7q6 -6 6 -15q-4 -2 -6.5 -4t-4.5 -2q4 -10 5.5 -22.5t1.5 -28.5v-35h-7v-51 q2 4 7 4q4 0 10 -22q4 2 10 2q14 0 21 -9q0 -6 7 -12t17 -12t19.5 -13.5t13.5 -15.5l14 -5q15 -5 15 -26h2q8 0 18 -20q2 2 4 2q6 0 16.5 -3t10.5 -24h8v-14q27 0 31 -4v-6q4 0 14 5t20 5q8 0 14.5 -1t14.5 -3v-6h17q-2 2 -3 4v0q0 6 13 6q4 -2 8 -2t4 -4v0q0 -2 -4 -4h55v6 q4 0 13.5 8t17.5 8h2t2 -2q0 20 18.5 35.5t36.5 15.5q4 0 6.5 -1t4.5 -1v2q0 23 14 40.5t35 17.5q6 0 10 -2v2q0 12 17.5 20t27.5 11v2q0 8 6 24h15zM539 719q-27 0 -40.5 -3t-19.5 -7t-6 -11v-10q-16 0 -16 -16q-57 2 -103 2h-69h-31q-23 0 -23 14v25q-18 6 -24 6h-6 q-6 25 -29 24v95l12 6q11 6 11 12h20q-2 2 7 10t9 19v2q6 10 22.5 14t20.5 14h31v-12q47 0 133 -6q18 16 29 18q-2 -2 -2 -4t1 -6t3 -4q4 0 4 2q0 -12 2 -19t4 -12h4l2 -7q2 -7 9 -7q2 0 2 2t2 2v-6h30q0 -16 2 -18h9v-119zM559 244h-20q8 -2 8 -15v-10h-8v-43 q-35 -6 -44.5 -12t-9.5 -10v-4l1 -2q1 -1 6 -1q2 0 3 1.5t3 1.5v-25h-2q0 2 -2 2q-8 0 -9 -6q0 -2 2 -4q-113 0 -133 -4q-31 12 -49 12h-74v39q-2 4 -10 6t-6 6h-43q0 33 -4 37h-2h-4q0 2 4 6h2q2 16 3 64.5t1 126.5h10v26h6q6 8 7 25h2q4 0 11 7t17 7v4q0 8 9.5 11.5 t11.5 5.5h14q0 -6 4 -7q12 8 19 9q6 0 9 -4.5t13 -4.5t13.5 3.5t25.5 3.5v-4q94 12 98 18v-2q0 -8 6.5 -10t10.5 -2h8q0 -12 4 -13h2q0 -20 10.5 -28.5t22.5 -12.5t22.5 -8t10.5 -14q0 -14 1 -23.5t1 -19.5t-1 -17.5t-1 -13.5h8q0 -14 6 -27h6v-75zM539 104q-12 0 -13 -6 q0 -6 2 -8h-18v35h29v-21z" />
<glyph unicode="9" d="M666 270v35l-7 6v303h-10v50h10v4q0 4 -5 2t-5 2q2 2 2 4t8 2v194q-31 0 -30 9q-8 -6 -18.5 -7.5t-22.5 -1.5v48q-18 0 -34.5 8t-16.5 18v29q-6 0 -9 1l-2 1q0 2 2 6q-35 0 -43 4h-2q-10 0 -10 4t2 12.5t2 14.5t-5 7t-13 1q-6 0 -11.5 1t-5.5 7q-18 0 -28 -10v4q0 4 -6 4 q-4 0 -5 4h-49q-12 -12 -49 -12l-2 -8q-8 0 -11 -4t-7 -4h-9q-12 0 -11 11t-7 15q-8 0 -9 -5t-5 -5l-2 -37q-6 0 -9.5 1t-5.5 1q-14 0 -24 -3t-15 -3v-27h-6q0 -10 -2 -17t-6 -7h-16q0 -4 -14.5 -11.5t-14.5 -17.5q-2 -10 -2 -18v-13h-49q0 -2 -9.5 -16t-11.5 -14h11v-43 v-37h-11v-19h11v-20v-21h-11v-14h11v-170v0q0 2 4 2q-2 0 4 -4t13 -8t15.5 -9t12.5 -7v-17l10 -2q0 -6 5 -9t5 -11l37 -2v8l57 -4q0 -4 11 -4v-27q2 0 12 -6t21.5 -13.5t20.5 -12.5t9 -1q10 4 23 4h32v11h54v-11h59l-4 8q0 4 4 5h4q4 0 6 -2q0 20 2 24t11 4h4q10 0 12 3t6 3 q14 0 17.5 -13t3.5 -36h8v-88q2 2 8 2q4 0 4 -8q0 -14 -12 -14v-56h10q2 -4 2 -16q0 -6 -12 -20.5t-27.5 -27.5t-27 -23.5t-7.5 -6.5q-2 -2 -2 -4t-2 -6q-10 2 -14 2q-18 -12 -45 -12q-41 0 -72 7t-28 7q-4 0 -17.5 -6t-17.5 -6q2 4 -16.5 6t-28.5 12v78q-10 0 -23.5 4 t-23.5 4h-7q-6 20 -10 37.5t-4 30.5v10h-6v8q-10 4 -17.5 3t-7.5 7q0 2 2 3l2 1h-30v-8q-8 -2 -16.5 -4t-22.5 -2q0 -8 -6 -8l-4 -27q0 4 6 4q4 0 4 -14q-2 0 -4 -1t-6 -1v-39h6q4 -8 4 -16h2q10 0 23.5 -5t25.5 -5v-29q4 2 6 2l1 -4t1 -12h-2h-6v-33q25 -12 43 -21.5 t29 -29.5h2l14 -6q14 -7 14 -25h11v-21l2 2h2t7 -8t7 -8l59 -4v-6h56v6q12 4 20 4q10 0 19 -4v-6l7 10t52 10v2q0 6 8 11.5t18.5 9.5t20.5 7t17 3q4 0 20 -4l2 10q10 0 22.5 8.5t22.5 8.5l2 18h-8q-4 6 -4 22q0 39 29 39q8 0 12 -2q0 10 24 25v35q-4 -4 -8 -4l-2 2v6 q0 4 4 8t6 4l5 51h2zM207 346l-6 10v-10h6zM557 635h-10v-57l-32.5 -6.5t-20 -6.5t-9.5 -12t-2 -27h-24q-16 0 -40 -2t-50.5 -4t-51 -4t-41.5 -2q-23 0 -30.5 6t-14.5 6v29q-14 0 -49 14q0 20 -8 35h-6v10q14 0 14 11q0 18 -8 18l-6 -8v33h6l8 176q2 0 7.5 6t11.5 6v6 q4 0 8 -2t8 -2q14 0 19.5 9.5t10.5 21.5t15 21.5t39 9.5q4 -4 12 -17h2q4 0 6.5 6t6.5 6h2v-12h53q6 12 12 12q-4 -4 -4 -8l9 -1q8 -1 8 -9q2 6 34 6q10 0 18.5 -8t12.5 -8l-1 -1q-1 -1 -1 -3t17.5 -10.5t21.5 -8.5t6 2v2q0 4 12 4v-28h9q0 -14 2 -17h8q0 -27 2 -43t8 -18 h-10v-31h10v-30h-10v-31h10v-10q-12 0 -12 -5q0 -4 2 -6q-2 -4 -2 -6t6 -2t6 -6v-4zM528 492h-43v18h43v-18z" />
<glyph unicode=":" d="M479 743v19h-8q-2 4 -2 12t2 12h8v21h-8q-2 6 -2 20t2 17h8v14h-8v19q-29 4 -47 4q-16 0 -16 30q-4 0 -26 10.5t-44 10.5q-27 0 -41 -10v-45q-4 0 -7 1t-7 1q-14 0 -25 -3l-12 -4v-75h8q4 -12 4 -17q0 -12 -4 -12h-8v-49q0 2 6 2t6 -12q4 0 4 6q0 8 6 8v-2q0 -4 11.5 -9 t17.5 -10l2 -28q6 0 15.5 -9.5t15.5 -11.5q2 0 5 1t7 1t7 -1t13 -1h13q23 0 24.5 10.5t20.5 10.5v35h37h-2v4q0 8 10 8q2 0 3 -1t3 -1v24h8zM479 203l-8 114q-29 20 -51 21l-2 22q-6 0 -14 8l-7 9h-78v-12q0 -12 -7 -16.5t-18 -7.5t-24.5 -7t-23.5 -17v-124q23 -25 51 -33 v-27l13 -3q14 -3 30 -6t35.5 -5t32.5 -2q0 16 18 16l8 35h15q4 0 12 16.5t18 18.5z" />
<glyph unicode=";" d="M498 838v20h-11v19l-65 4v47l-47 6q-10 6 -13 6q-10 0 -19 -6t-15 -6h-4q0 -14 -5 -27h-4q0 -6 -7 -13t-15 -14.5t-14.5 -11.5t-2.5 -4l-2 -80v0q0 2 2 2q2 -2 6.5 -3t4.5 -5t-4 -4h-9v-25h11l2 -34q2 0 9 -2t19 -5v-18h4q4 -4 5 -16q4 -6 18 -5t20 -10q2 0 7.5 1t9.5 1 q2 0 8 -1t14 -1h9q18 0 28 6q-2 4 -2 11v4l2 2q2 0 4 -2q0 25 9 28h2q16 6 24 28t11.5 46.5t2 43t-3.5 18.5h11zM498 244v133q-43 20 -60 20v31h-10q-6 0 -6 8q-53 0 -68.5 -4t-19.5 -11t-10.5 -16.5t-38.5 -19.5q0 -20 -11 -20h11l2 -138q4 0 11 -8t17 -8v-18h4 q4 -12 5 -25q0 -18 -5.5 -23.5t-11.5 -7.5t-13 -3t-9 -13q0 -27 -24.5 -37t-35.5 -14v-21h4v-18q16 0 17.5 -9.5t15.5 -9.5h27q10 2 12 11q2 -2 8 -3q8 0 19 3h6q10 0 13 -2.5t7 -6.5l4 -2q4 0 5.5 6.5t5.5 6.5t6 -2q0 35 17.5 43t27.5 8h2q0 8 6 14t14 10v56h-4q-4 8 -4 14 v12q0 16 10.5 23.5t14.5 7.5h8q11 27 31 33z" />
<glyph unicode="&#x3c;" d="M657 39v45q-51 0 -63 6v39l-49 4q0 8 -6.5 14.5t-6.5 32.5l-51 4v13h-10v34l-61 7v10h-4q-4 4 -5 18h-8v17q-16 0 -22 8t-9.5 18t-7.5 18.5t-16 8.5h-10q-27 0 -28 7t-11 9v43h-31q-16 0 -20.5 8.5t-4.5 18.5q0 4 2.5 7t4.5 7q-8 8 -21 8q-10 0 -21.5 1t-18.5 6.5 t-7 23.5q0 14 8 31h6v22h31q0 23 23 23v27h6q-2 2 -2 4q0 14 21.5 20t25.5 6h8q0 29 20.5 43.5t38.5 22.5q0 33 15 35h28q0 18 21 18v2q0 2 5 11.5t13.5 19.5t19.5 18t21 8q-2 2 -2 9q0 4 7.5 11t16.5 14t18 12.5t11 5.5q6 25 14.5 32t17.5 8t18 1q8 0 12 10q14 31 18 37 t15 6h6q0 16 24 16v23q-8 -4 -6 -4q-4 0 -4 4v6q-27 0 -33 6v4q-6 0 -11 1t-11 1q-63 0 -87 -9t-24 -46h-4q-25 0 -37 -4t-16 -9.5t-5 -11.5t-7 -12q-47 -27 -51.5 -43t-8.5 -16q-23 -8 -34 -10l-11 -3h2q-10 -25 -10 -53h-47q0 -10 -8 -10l-4 -39h-21q-12 0 -19 -1t-14 -3 v-27h-6q0 -18 -8 -26.5t-19.5 -10.5t-22.5 -3t-17 -3v-20q6 4 10 4t4 -19q0 -6 -10 -6q-8 0 -18.5 -1t-20.5 -4t-12 -15v-137q10 0 10 -11q0 -4 -10 -4v-35q10 0 23 -14t24 -14v-27h4q0 2 2 2q4 0 9 -8t7 -10q43 0 44 -13.5t1 -19.5q14 -25 39 -27t25 -8q0 -4 -3 -11t-1 -7 h6q0 -14 9 -19.5t19.5 -6.5t19.5 -3t9 -10v-12q0 4 4 4l2 -7q2 -6 8 -6v-16h45v-25l31 -10q0 -8 13.5 -15t15.5 -9v-19v0q0 2 2 2q12 0 16 -18q37 0 45 -4v-21h11v-18q18 0 18 -6l41 -2q-2 2 -2 4q0 4 10 4q12 0 12 -4q0 -2 -2 -4h60v8q2 0 3 -1t3 -1q6 0 7 7t3 7z" />
<glyph unicode="=" d="M662 649h-9q-2 6 -2 15q0 8 3 12t8 8h-9q-4 12 -4 35q-63 0 -67 4q-59 -6 -88 -6q-10 0 -20.5 1t-29 2t-51.5 2t-90 1v-4h-33t-66.5 -1t-76.5 -3t-59 -6q0 -10 -1 -15l-1 -4q-2 0 -5 2q6 -43 7 -67v-11q4 -8 25.5 -9t27.5 -17h67v10q6 4 21.5 3t19.5 7q0 -6 12.5 -7 t12.5 -13h80q-2 6 -2 10q0 6 12 6q4 -2 7 -3t3 -5t-2 -8h279v10q2 0 2 -2v0q4 0 5 8t5 8l2 -2q2 0 4 -2v4q0 8 6.5 17.5t6.5 15.5v4zM662 297v80q-2 -2 -5 -2q-8 0 -8 10q-66 8 -113 11t-79 5q-4 0 -26.5 -3t-51.5 -3q-4 0 -11.5 1t-15.5 1v4q-12 -4 -94 -4v4 q-43 -6 -43 -16q-4 4 -4 10l-41 -2q0 -6 -6 -8q-6 6 -6 10q-23 -4 -38.5 -7t-27.5 -3l-12 -2q0 -6 -12 -6v-74h10q2 0 2 -16q10 -2 21.5 -4t19.5 -13h59l-2 2q0 6 10 7q0 -2 5 -3q4 0 8 -4l-2 -2q45 0 55 -8q61 4 113.5 6t87.5 2h30q0 2 -2 2v2q0 4 7.5 3t7.5 4v2 q23 -4 44 -6.5t40 -2.5h12v-4h18v4q32 19 50 23z" />
<glyph unicode="&#x3e;" d="M664 475v4h-2q0 2 -3 2l-1 -1t-5 -1v94h-6q-4 0 -4 15q-39 16 -39 20v17h-10q-4 12 -4 34h-31q0 6 -3 7.5l-7 3.5t-7 7t-3 21h-9v21q-2 -2 -6 -2q-12 0 -27.5 6t-25.5 6q-2 0 -2 -2h-2v39q-4 10 -21 10h-12q-16 0 -20 2v29q-2 -2 -4 -2t-3 4t-1 8q0 2 2 4q-16 0 -25.5 1 t-15.5 3h-2q-10 0 -11 13v20h-6v19q-4 10 -25.5 9t-25.5 3v33q-35 14 -50.5 17t-15.5 32q-12 0 -12 2q0 4 6 4l-127 6v4q-27 -6 -37 -16l2 -39q2 0 9.5 -1t16.5 -5t16.5 -13.5t7.5 -23.5q37 -16 59 -17v-45h8q10 0 28 -7l17 -7v-16h6q0 -4 1 -8.5t1 -10.5h13v-16 q10 0 22.5 -5t28.5 -14v-12q2 -8 13.5 -9t21.5 -2t19 -6t9 -22h5q0 -2 1 -9t1 -15h2q12 0 21 -8.5t16.5 -18.5t10.5 -19l3 -8l6 -2q0 -6 7 -9t7 -15q2 4 6 4t14.5 -6t10.5 -21l8 -2q0 -10 7.5 -12t7.5 -12h36q12 -29 13 -84q2 0 3 1t3 1q4 0 4 -2v0q-10 -6 -14 -9h-27 q-18 0 -27.5 -19t-13.5 -30h-2q-8 0 -16.5 -7t-18.5 -7q-2 0 -4 1t-4 1q0 -23 -9 -30t-21.5 -11t-21.5 -14.5t-9 -38.5q-8 -8 -19 -8q-8 0 -17.5 -1t-17.5 -8.5t-14 -29.5q-31 -12 -51 -13v-38q-12 0 -13 -5v-4q-29 -2 -38 -6t-10 -9t-1 -13t-12 -21q-2 -4 -8 -4h-12 t-11.5 -2t-5.5 -8q-8 -12 -13 -22.5t-9 -14.5h-31v-39q0 -12 14 -12h8q25 0 31 -2v-8q6 0 6 8h54v-8h30v8q4 0 10.5 9t16.5 9l2 4q0 4 13.5 17.5t25.5 13.5h4q2 2 2 10q0 10 4 18.5t14.5 15.5t30.5 7q2 0 6 -2v2q0 20 15.5 30.5t25.5 10.5l2 -8l4 -2q4 0 5.5 6t5.5 6l2 -2 q0 18 18.5 43t46.5 25v26q2 0 3 -1l1 -1q4 0 4 6t9 7q6 0 6 -9l-2 -2h16v4q10 0 17.5 11.5t19.5 11.5v22l29 7h2q4 0 5 8t5 8l4 -2q2 0 6 -2q0 25 3 32t26 7v4q0 12 20 20v27h-4q-6 0 -6 8q4 4 10 4v35h11z" />
<glyph unicode="?" d="M655 604v144q-6 2 -6 14q0 6 6 6v90q-6 0 -6 14v39h-4q-8 0 -10 8.5t-6 8.5q-18 4 -25.5 8t-7.5 35q-4 -4 -6 -4t-2 4v4v2q-16 0 -24.5 3t-14.5 7q-4 -2 -6 -2q-8 0 -8 6v-4v27h-7q-4 0 -4 16q-16 0 -23 1t-18 3v13h-8q0 2 -3 15t-7 25.5t-4 6.5q0 2 4 2h-59 q-10 -4 -17.5 -9.5t-11.5 -5.5q-8 0 -8 9l-23 -3q0 -6 -14 -6q-10 0 -20.5 8.5t-20.5 8.5t-18.5 -5.5t-14.5 -5.5q-2 0 -3 1.5t-5 1.5v-46q-6 -16 -25 -16q-16 0 -28.5 4t-57.5 4q0 -6 -12 -6v-53l-31 -2q-8 0 -14 -7t-12 -7l-2 -21h8q4 -16 4 -18q0 -8 -4 -21h-8v-74h8 q4 -4 4 -14q0 -16 -4 -16h-8v-88h6l5 -9q5 -8 11 -8h76q0 14 4 27h6l4 162q4 0 11.5 8t13.5 8l4 2q0 2 8 23h23v10q2 14 20 14h6q41 0 43 2v4q18 6 52 4t51 5v-13h10q2 -4 2 -12v-14q2 6 6 6q6 0 6 -13q27 0 39 -4v-30h8v-19q2 2 4 2q8 0 11.5 -10t7.5 -10h29q0 -14 14 -19 l-4 -166h-17q0 -8 -8 -8q-6 0 -6 -4v-4h-14q0 -18 -13 -18l-4 -27h-18v-10h-29v-33q-27 -4 -30 -6v-10h-29q0 -16 -9.5 -27.5t-20.5 -18t-22.5 -9.5t-15.5 -5v-209q12 0 13 -8q14 10 22 10t27.5 -9t23.5 -11q8 0 13.5 9t13.5 9l2 181h12v24q6 0 6 2v2q29 0 32 -5t9 -5 q4 0 10.5 7t10.5 7q10 0 10 -4v10h12h2q6 0 10.5 5.5t9.5 11.5t14 11t26 5q12 0 15 7.5t3 13.5q0 8 2 15t10 7v2q0 10 13 11h6q0 4 9 13t9 13zM483 84v33q-6 0 -8 1l-2 1v2q-2 2 -4 2v0q-4 0 -6 -4t-6 -4l-2 2q-23 0 -28 9t-5 42q-10 0 -10 2v2q0 2 -1 3l-1 1q-4 0 -6.5 -5 t-6.5 -5l-2 2q-4 0 -10 4t-10 4q-23 0 -44.5 -9t-21.5 -22v-2q-23 -16 -43 -34.5t-16 -18.5h10v-16q14 0 25.5 -17.5t23.5 -17.5v-16q12 -8 24.5 -15.5t18.5 -11.5h41v8h19q0 18 24 19v26h17q4 2 12 18.5t18 16.5z" />
<glyph unicode="@" d="M670 182l-4 31q-4 0 -17.5 4t-29 10t-27.5 10.5t-14 4.5q-31 0 -50.5 -9.5t-34 -21.5t-26.5 -21.5t-29 -9.5q0 -14 -10 -14h-2q0 -10 -1 -15.5t-1 -9.5h-10q-18 0 -49 -6h-15q-27 0 -39 6v11q-25 12 -41 19t-28 9v45q-45 8 -68 27l-2 319q0 -2 -8 12.5t-8 10.5l2 4 q0 4 8 4l8 115q-8 8 -8 26q0 14 6 33q2 37 3 64.5t5 48.5l19 4q0 8 14 12t16 4q10 0 13 -10q6 6 11 5t11 -1t11.5 5t11.5 24q2 12 19.5 20.5t39 13.5t42 6t26.5 1q33 0 53 -15v-14q18 -6 31.5 -17.5t22.5 -24.5t14.5 -23.5t5.5 -12.5q0 -12 -2 -18t-7.5 -9t-13.5 -5.5 t-20 -10.5q0 6 -4.5 8.5t-8.5 3.5t-7 5t-3 16v10q-10 0 -10 2v0q0 2 2 2h-29q0 -2 -11 -7t-13 -7v2q0 8 -5.5 5t-5.5 7h-20v-20h12q0 -27 -10 -27h-2q-4 -10 -27.5 -9t-31.5 -7q-4 0 -5 6q-10 0 -8 -8t-6 -8v-58h6q6 -4 6 -12q0 -16 -20.5 -19t-26.5 -3h-10q0 -12 -4 -13 l-2 -28q2 8 6 8v-15q-4 -18 -7 -30.5t-5 -22.5h-6v-12h6q2 -4 4 -7t2 -7q0 -6 -2 -10.5t-4 -8.5h-6q0 -10 6 -9t6 -22l-8 -4l-4 -51q2 4 4 4q8 0 8 -12q0 -8 -12 -8q0 -8 6 -8v-5q0 -8 -3 -18t-3 -16h6q4 -27 9 -33t9 -6q6 0 12.5 1t12.5 -14q0 2 4 2t13 -14t9 -22t-4 -19.5 t-2 -9.5l6 3l2 1q4 0 5 -18q43 -25 71 -25l49 -4v4q0 4 31 4q-2 2 -2 8v4q4 4 6 4h4q0 29 2 39h13v25q10 4 16 6t14 2q10 0 11 -4v-10l11 -3t24.5 -9.5t24.5 -16.5t11 -24q4 2 6 2q4 0 10.5 -7.5t10.5 -7.5q10 0 15 5.5t7.5 12.5t2.5 13t2 8h6v17q-14 0 -15 6q0 2 4 4h11v10 h-6q-2 25 -3.5 59.5t-1.5 79.5q-4 -2 -6 -2q-4 0 -9 8.5t-9 10.5q2 -2 4 -2q6 0 8 7t4 7l8 -4v123h-10v43h10v63h-10v39h10v90h-10v33h10l3 2q-2 2 -9 2l-4 19q-16 0 -16 4q0 2 2 4q-2 2 -4 2l-2 -5t-11 -5q0 12 -15 17t-15 15q0 6 12 19h-10q-2 2 -2 6t6 15l6 12h-10 q-2 2 -2 16h-2q-10 0 -26.5 6t-24.5 6q-6 0 -9 -2v31q-2 4 -16 8t-14 10v2q2 0 2 4q-6 2 -18.5 3.5t-12.5 5.5q-23 -4 -41 -6.5t-31 -2.5l-12 -6q-27 -6 -29 -12q0 8 -8 9t-8 3l6 6q-4 2 -8 3q-4 0 -4 -7q0 -4 -6 -4h-2q-4 2 -5 4v4q0 4 -14 5l-4 4q-23 0 -57.5 -8.5 t-59.5 -8.5h-4q0 -25 -7 -34t-16.5 -12t-19.5 -6t-16 -15q0 -23 -6 -29h-2q-12 0 -31 -5t-27 -5v-47q12 4 11 4q4 0 4 -15q0 -12 -15 -12v-31q8 8 11 9q4 0 4 -15q0 -10 -15 -10v-80h13v-49v-49h-13h4q10 0 11 -31q4 2 6 2h2v-2q2 0 2 -2q0 -6 -4 -6h-2l-4 2l6 -31 q2 -4 3 -7t1 -7q0 -10 -4 -14l-6 -39q0 2 4 2t4 -13v-4q0 -4 -8 -4l6 -243v2v-4q0 -2 2 -11v-4q0 -8 -8 -8v-66q8 -4 13 -7t13 -7v-2q0 -10 6.5 -12t6.5 -12q2 0 3 1l1 1q2 0 9 -9.5t7 -15.5h8v-16q27 0 43 -5v-20q-2 2 15.5 -9t34 -21.5t18.5 -12.5t10 -8t17.5 -15.5 t9.5 -11.5q14 10 32 10q6 0 13 -2q-4 2 -4 7q0 2 4 3t8 1h6v-11q6 0 12 2q6 -10 9.5 -11t13.5 -1q16 0 33.5 5t25.5 5q6 0 19 -4v-4q10 0 15 4t11 4v2q0 23 24.5 33t39.5 17v24h10q0 12 1 20.5t1 14.5h47q-2 2 -2 4q0 6 14 6v4q0 6 11.5 14.5t40.5 26.5zM631 641h-13v-27h-8 q-4 -12 -4 -22t8.5 -29.5t8.5 -36.5q0 -16 -8.5 -17t-8.5 -9q0 -10 8 -11h4q0 -6 -7 -15t-7 -19q0 -2 1 -3t1 -3q-4 -4 -37 -5q0 2 -6 9q-10 -2 -14 -3t-2 -1v24h-8v16q8 0 8 11q0 6 -4 8t-4 4q4 0 6 1l2 1q0 8 -1 11l-1 3q-2 0 -6 -4q0 68 -4 78q-2 0 -3.5 -1t-3.5 -1l2 4 h5q6 8 6 19q0 16 -13 20q0 2 2 4h5v62q0 31 4 52t15 33.5t34 12.5q-2 -2 -2 -4q0 -6 14 -6v-25h6v-20q-6 0 -6 -7v-6l-4 -2q0 -8 8 -8h2q0 -43 4 -58.5t8.5 -18.5t8.5 -2t4 -9zM498 524h-13q-2 -35 -1 -59.5t-25 -24.5q-16 0 -25.5 -5t-9.5 -36q-2 2 -8 2h-2l-1 -1t-1 -3 l1 -1q1 -1 1 -3h-49v17h-11v127q10 0 11 14q0 10 -7.5 13t-7.5 9h-6v25h6q0 57 5 98t36 41h4l5 -7q6 -7 10 -7h4v-18q4 -2 13 -7.5t19.5 -10.5t18.5 -9t10 -4q0 -25 4 -27h4q0 -23 2 -24q2 2 9 2q4 0 4 -11h-15l-2 -2q0 -8 17 -8v-45h-13q-2 -6 -2 -14q0 -10 2 -13h9 q4 0 4 -2v-2v-4z" />
<glyph unicode="A" d="M664 23v210q-12 0 -13 5q0 4 5.5 6t7.5 2v71q-2 0 -2 -2h-3q-8 0 -8 11q0 2 2 2v2q0 6 11 6v86h-5q-2 2 -4 5t-2 13h-49v23h-10v43h10v6q-4 4 -6 4l-4 125h-51v14h-6v13v51v18q0 18 -2.5 38t-24.5 20h-18q-18 0 -21 6v78q-2 -2 -6 -2q2 0 -6 4t-18.5 8t-19.5 9l-9 5 q-2 12 -3 33.5t-1 50.5q-12 0 -13 4q0 4 2 6h-90l-2 -94q-6 -4 -16 -4q-8 0 -16.5 -2t-15.5 -8t-11 -21h-13v-28h13q0 -4 1 -10.5t1 -14.5t-1 -13t-1 -9q-8 2 -23 2q-20 0 -37 -11v-90h9q2 -4 2 -20q0 -12 -7.5 -18.5t-17.5 -10.5l-22.5 -9t-22.5 -15l-6 -166 q-6 0 -18.5 -4.5t-20.5 -4.5l-2 -6q-4 0 -9 -6t-10 -6v-55h11q2 -6 2 -23q0 -18 -2 -22h-11v-19q6 8 11 8q2 0 2 -16q0 -8 -13 -8v-29h11q2 -10 2 -20v-21v-22t-2 -21h-11v-8h11q2 -29 2 -68v-88h8v-18q31 0 31 -6q39 0 47 4t14 27h12v65h-12q-2 10 -2 21v24v21q0 10 2 20 l12 2q0 10 -7 8t-7 6v5q0 6 14 6v16h-12q-2 4 -2 10v11v14q0 8 2 12h12v33q6 0 18.5 8t20.5 8q4 0 8 -4v8q16 4 27 5q16 0 29 -5v-8q6 0 10 6.5t25 6.5q20 0 24 6q10 -2 21.5 -3t11.5 -16h16v8h117v-8q0 4 2 4q10 0 18.5 -19.5t8.5 -68.5h10q2 -27 3 -65.5t1 -91.5h2 q14 -16 14 -70h39q0 18 2 22.5t7 4.5q16 0 16 -15q0 -2 -2 -2v0h18q-2 2 -2 8v7q2 0 4 1t4 1l1 -1q2 -1 4 -1zM494 451q-16 0 -17 -7q0 -4 2 -4h-141v6q-8 4 -16 5q-8 0 -17 -5v-6h-72l3 1q2 1 2 3q0 8 -6.5 10.5t-6.5 6.5l-10 2v31h10l2 38h6v50h13q2 23 5 34t23 11h5 q10 2 10 20h8q2 6 2 23q0 29 -10 28h8q0 2 1 5.5t1 9.5t-1 12t-1 14q0 27 13.5 36t27.5 9l59 -10q-2 -2 -2 -8q0 -2 8.5 -3t8.5 -11l8 -2v-103q2 2 4 2l3 -5q3 -5 9 -5q4 0 4 2q0 -10 14.5 -18.5t24.5 -18.5q0 -4 -1 -5t-1 -5q0 -18 8.5 -46t8.5 -46v-2q-8 0 -10.5 -2 t-4.5 -4v-2q0 -4 15 -5v-36z" />
<glyph unicode="B" d="M664 51v115h-7v45l7 4q0 2 -3.5 3t-3.5 5v2v0q0 2 2 2v-2h5v43h-7v33h7v35q-4 -6 -5 -6q-2 0 -4 4t-2 6t1 6t10 4v53h-7v25q-10 0 -25.5 6t-25.5 6l-2 15h-6q-2 4 -2 12t-4 15t-14.5 12.5t-32.5 5.5h-4q0 47 7 63.5t7 18.5h2q4 0 11 7t16 7l8 -4q10 20 14 31.5t27 11.5v6 h24v227h-10q-16 14 -26.5 20.5t-16.5 11.5t-9 14.5t-3 31.5l-62 2v49q-29 4 -47 8.5t-30 4.5q-10 0 -28.5 -6.5t-29.5 -6.5q-4 0 -9 1t-7 3v5q-23 0 -26 -4.5t-11 -4.5h-4q-2 0 -2 4v5q-4 0 -24.5 -4.5t-26.5 -4.5q-8 0 -17 4l-8 5q-16 0 -19 -4.5t-10 -4.5h-4l-1 1t-1 3v5 l-8 -9h-154v-692q8 0 9 -72h-9v-14q12 0 13 -8q0 -4 -13 -4v-12h9q2 -4 2 -17q0 -6 -2 -12h-9v-14h9q2 -6 2 -15v-12q0 -18 -2 -29h-9q-2 -4 -2 -12q0 -10 8.5 -30.5t8.5 -30.5t-2 -15q6 0 6 -10q78 0 203 -2t299 -4q4 0 13 15.5t17 15.5q0 10 12.5 9t12.5 5q4 4 10 9t13 5 h2zM555 676h-10q-4 -12 -13.5 -18.5t-18.5 -10.5t-17.5 -10t-8.5 -21h-4q0 -2 -1 -8t-1 -16h-284q-2 0 -7.5 8t-9.5 8h-2q-4 16 -6 35t-6 29h6q2 4 2 16q0 10 -2 14h-6q0 8 3 20.5t3 20.5l-6 2v56q12 0 12 4q0 8 -12 8v39q10 0 11 14l1 13h23q0 -8 8 -11q8 2 8 9v2 q35 0 46 -5.5t28 -5.5q29 0 63 19v-8h86q0 -8 2 -11q12 0 13 4q0 2 -4 7h73q8 -20 13 -27h4q0 -51 1 -89t3 -65h10v-22zM555 117q-14 0 -14 -4q-29 0 -46.5 -4.5t-29.5 -8.5v4q-10 0 -18.5 1t-18.5 1q-29 0 -37 -6q-25 4 -47 8.5t-45 4.5q-31 0 -67.5 -4.5t-53.5 -8.5 q0 12 -12 13q0 57 -10 67h10l-2 39q-4 0 -6 4t-6 4q-8 0 -11 -2q0 6 7.5 10.5t7.5 12.5l2 2q6 0 6 4q0 6 4 6h4q2 4 2 12q0 12 -2 19h-6v10h6q2 16 4 28.5t2 26.5q0 10 -2 21.5t-4 21.5q-4 -2 -6 -2v0q-2 2 -2 4q2 0 2 2h6l8 43q6 0 6 17h9q29 0 133 18v-8q16 -4 37 -4 q10 0 18 1t18 3v8h21v-8q12 0 24.5 -5t21.5 -11t14 -11.5t1 -5.5q4 -6 14.5 -10t20.5 -9t18.5 -11.5t8.5 -14.5v-26q0 -14 10 -17v-235zM422 8h-10v15h10v-15z" />
<glyph unicode="C" d="M664 102v115h-11v19h-26q2 -2 2 -5q0 -4 -13 -4q0 -16 -8 -22t-19 -8t-22 -2q-10 0 -14 -2v-35h-8q-16 0 -28.5 -9.5t-22 -20.5t-16.5 -20.5t-11 -9.5h-4q-12 2 -12 8q-20 0 -27.5 -1t-10.5 -3t-4 -3t-8 -1q-10 0 -17 7.5t-17 7.5q-6 0 -21.5 -6.5t-26.5 -6.5h-6t-8 2v4 q-4 2 -12 3q-4 0 -9 -3.5t-10 -7.5v8q-29 0 -28 7v6q0 16 -8.5 33.5t-8.5 25.5t2 15q-6 6 -14 6h-10h-17q-4 0 -6 11t-2 38v82q-10 0 -10 2v4v2q2 0 4 -1t6 -1v18q-10 0 -10 6v2v3q2 0 4 -1.5t6 -1.5v19h-10q-2 6 -3 12t-1 17q0 10 1 16t3 14h10q0 8 -8 9h-2q-4 12 -4 20 q0 12 4 20h10v19h-10v27q-14 0 -14 6l14 2v30q-8 0 -15 5.5t-7 11.5q0 10 9 15t11 5l2 43h10l4 60q16 20 31 20l3 -1t5 -1q-2 2 -2 6v4q2 6 4 7l6 59h13v35h2q10 0 10 -11q18 18 39 19v24q6 6 57 7v6q8 0 15.5 2t11.5 2q10 0 17.5 -2t13.5 -2q-2 0 -2 -2h4q6 0 6 -6v-5 q29 0 37 5.5t10 5.5t2 -11q0 -8 8 -8l2 -16q4 -2 22.5 -5t28.5 -14v-16h9q2 -6 3 -16.5t1 -26.5h10q-4 -2 -4 -4v-2l18 -21q6 0 8 3q2 -2 3 -5q0 -2 4 -6q47 0 59 8.5t12 28.5v8q-2 10 -2 15v12q0 12 2 16h11q0 2 -3.5 18.5t-9.5 35t-14 18.5l-33 4v21h-10q-4 14 -3 24 t-20 10h-32v19h-9v24q-18 0 -29.5 1t-30.5 2.5t-58 2.5t-115 1q-16 -6 -33 -7h-6q2 -2 2 -8q0 -4 -9 -7t-9 -7q2 -2 7 -5t9 -7q0 -14 -4 -19h-68l-4 -41q-41 -4 -52 -11t-11 -52q0 -23 2 -31q-25 -4 -29 -8v-6q2 2 -4 -1t-13 -7.5t-11.5 -8.5t-0.5 -4l-2 -55h11q2 -4 2 -19 q0 -14 -2 -20h-11v-29h11v-102q2 2 4 2q6 0 6 -10h-8v-119h-13v-23h11v-102q10 0 10 -8q0 -4 -10 -4v-86q2 6 4 6q6 0 6 -14q0 -10 -10 -11v-37q18 0 32 -9l15 -9q0 -10 8 -30.5t8 -37.5v-6q0 2 2 2q4 0 4 -12h31q-4 2 -4 6q0 6 6 6q8 0 16.5 -13t42.5 -13q0 -2 10.5 -7.5 t14.5 -13.5l49 -4q0 -2 15 -7l16 -5h27h55q31 0 61.5 2t48.5 6v2q0 8 8.5 14.5t18.5 11.5t18.5 7t6.5 2q0 18 16 18l1 -1t5 -1q4 8 6 17.5t7.5 16.5t16 11t30.5 4z" />
<glyph unicode="D" d="M662 223q0 4 1 9.5t1 9.5q0 25 -6.5 58.5t-6.5 59.5q0 4 1 8.5t1 8.5l11 2l-2 2q0 2 -3 2v0h-6q-2 10 -3 21.5t-1 23.5q0 14 1 25.5t3 23.5h9v33q-12 0 -13 4v6h13q-12 25 -13 80h-4q-14 0 -14 4q0 29 12 29q4 0 6 -2v45h-4q-8 8 -8 24q0 14 8 23h4v65h-4q-8 6 -8 15 q0 8 8 14h4v21q-12 0 -12 4q0 2 2 6q-23 0 -27 4v4q-4 0 -4 -2h-2q-4 0 -6 6l-2 6q-4 0 -4 -2q-6 6 -6 35q-23 4 -36 6t-24 2v35q-14 0 -14 4l2 2q-2 0 -10 1t-16.5 4t-15.5 8.5t-7 15.5v31q-2 -2 -8 -2q-2 0 -3 4t-1 6t2 2h-31v-10h-8t-17 4q-14 0 -24 -11v7h-33v10h-20 v-10q-4 -2 -15 -2h-10q-4 0 -8 2v10h-47v-10q-4 -2 -8 -2h-9q-10 0 -16 2v10h-4q-2 0 -10 2q-16 0 -17 -6l-98 -6q0 -4 -10 -10l-11 -7v-69h7v-33h-7v-62h7v-59h-7v-10h7v-29h-7v-125q2 0 3.5 2t3.5 2l2 -6t2 -14q0 -2 -11 -2v-27h7v-22h-7v-27h7v-27h-7q0 -29 7 -28v-166 h-7v-15q4 0 5 -1l2 -1v-262q6 0 19 -3t27.5 -6t26 -6t15.5 -3q8 0 21 4t22 4q10 0 16 -2v-4q8 4 37 7t39 9q0 -2 1 -4t1 -4l59 4q0 4 13 4q0 -2 1 -4t1 -4l1 1q1 1 5 1q2 0 2 -2h4h2q2 0 7 5t13 5h2q4 0 5 -6v-4q4 4 23.5 6t47.5 2v10q23 20 60 35q2 2 4 9.5t5 14.5t9 13 t18 6q10 0 13 -2l2 4q10 0 11 8.5t3 8.5h2t6 -2v24q18 2 27 8q-2 2 -2 7v4q2 6 12 6l4 59h9zM559 268h-10l-4 -65q-8 4 -29 4q-12 0 -21.5 -4t-9.5 -29q-2 0 -15 -6t-29.5 -16.5t-16.5 -22.5q0 -6 2 -8q-10 0 -22.5 -4t-22.5 -4q-6 0 -7 3t-30 3q-29 -4 -51.5 -8.5 t-38.5 -6.5q0 10 -12 11q-10 0 -11 6q-4 0 -8 -1l-4 -1q0 -2 4 -4h-39q0 18 -6 26.5t-6 10.5q12 0 12 8q0 18 -6 18t-6 -4v37h8q4 8 4 16q0 6 -4 15h-8v110h-8v13h8v491q12 0 12 27q2 -2 13 -2q14 0 33.5 4t31.5 4h12q-2 -2 -2 -4t2 -2q14 0 15 4l104 2q14 8 15 10l4 -10 q10 2 13 4t4 3t3 2t10 1q4 -2 9.5 -10t11.5 -8h2q0 2 2 2q0 -31 24.5 -38t36.5 -7l-2 -4q0 -6 13 -7q0 -18 4 -22l2 -55h-2q-2 -10 -3 -22.5t-1 -22.5t1 -22.5t3 -23.5l2 -28q-8 -8 -8 -19v-2q2 -6 4 -6q4 0 4 4v-71v0q0 2 -2 2q-6 0 -6 -11v-2q2 -6 6 -6h2v2 q0 -84 1 -143.5t3 -99.5h10v-11z" />
<glyph unicode="E" d="M653 27v30h-6q0 2 -6 10.5t-13 18.5t-7 8q0 4 2 6h-17q-16 0 -46 3t-63.5 6.5t-65.5 6.5t-50 3h-21q-4 -4 -16 -4t-14 -11q-8 0 -25.5 2.5t-37 5.5t-38 6t-28.5 3h-6v31q-4 -2 -9 -2q-6 0 -6 14q0 10 15 10v64h-11v114h11l2 56q4 0 6 8t10 8h4q20 0 52 10t50 10l19 -3 q20 -3 29 -13q6 0 21 4t32 4q8 0 20 -4v-4q27 4 59.5 10t59.5 6q14 0 21 -2q-2 4 -2 11v4q2 2 10 2l2 78q-10 0 -10 4v4q-27 4 -49.5 6t-41.5 2q-37 0 -69.5 -7t-52.5 -9v-11q-4 -2 -11 -2h-8q-16 0 -24 2v11h-31q4 -4 6 -7l2 -2q0 -4 -4 -5t-8 -1q-25 16 -48.5 23.5 t-54.5 7.5h-6l3 6t1 8q0 10 -8 29.5t-8 32.5q0 8 4 16h-8v29h8q0 31 2 33l6 30h-6q-2 2 -2 23v12t2 10h6q4 12 4 13q0 2 -10 2h-4h-2q2 2 3 8t3 6v0q2 0 6 -2l4 59q8 0 9.5 7.5t31.5 7.5v6q4 0 11.5 2t13.5 2q8 0 15 -2t11 -2v-6h17l-2 2v2q0 6 14 6q0 -4 1 -5t1 -5h17 q-4 4 -5 6q0 4 15 4q4 -8 4 -10h29v6q8 4 21 5t20 7q2 -2 2 -8l69 4q0 4 6 4q8 -4 9 -8h116q0 6 8.5 11t14.5 5q4 0 6 -2v101q-2 -2 -4 -2t-3 4t-1 6t2 2h-17v-10q-10 -2 -16 -2h-12q-18 0 -29 2v10h-139v-10q-8 -2 -14 -2q-14 0 -23 2v10q-12 -12 -35 -12h-45h-41 q-20 0 -37 2v10h-30v-10q-6 -2 -15 -2h-12q-23 0 -27 2v10q-8 -4 -34.5 -10.5t-32.5 -16.5v-20q0 2 2 2q6 -2 6 -15q-2 -4 -8 -10l4 -270q4 -2 4 -14q0 -8 -4 -15l-4 -221h4q4 -4 4 -22q0 -16 -4 -23l-4 -129h4q4 -4 4 -16t-4 -19l-4 -41h4q4 -6 4 -22q0 -14 -4 -21h-4 q0 -4 -2 -10t-2 -10q0 -10 6 -37t6 -47v-11q0 2 2 3q2 0 8 -9.5t12 -11.5h17q-2 4 -2 10q0 8 10 8l7 -5t15.5 -10t15.5 -9t7 -2h6q14 0 39 4t35 4t22 -4v-4q4 0 7.5 -1t5.5 -1q14 0 29.5 5t19.5 5q6 0 10 -1l12 -3v-4q27 10 50 10q16 0 39 -6v-4q8 8 23 10t30 2h28 q14 0 21 4v10q8 2 24 3q20 0 27 -3v-10h31v10q0 6 4 7h16z" />
<glyph unicode="F" d="M659 926v10q0 6 -8 5t-8 3t2 11.5t6 7.5q6 0 8 -2v43q-16 0 -29.5 8t-27.5 8q-16 0 -27 -10q-76 0 -118.5 2t-66 3t-36 3t-26.5 2q-35 0 -70 -10v6q-25 0 -25 -8l-90 -2q0 -2 -6 -2t-6 2q0 4 -4 4l-1 -4q-1 -5 -5 -5q-2 0 -4 3l-51 4v-344q2 4 4 4h4q4 0 4 -15 q0 -12 -6 -12q-4 0 -6 2v-35h8q0 -2 1 -3t1 -5t-1 -8t-1 -8h-8v-217q4 4 8 4t4 -17q0 -10 -4 -10q-6 0 -8 4v-100q2 6 8 6q4 0 4 -16q-4 -2 -12 -2v-109q2 6 8 6q4 0 4 -14q0 -6 -12 -6v-29h8q0 -2 1 -8t1 -10q0 -8 -1 -12.5t-1 -10.5h-8v-18h8q4 -4 4 -19v2h2t3 -6t1 -10 h82q0 2 -1 3t-1 3q0 8 10 8v53h-8v115h-8q-2 8 -2 19v28h-13q-2 2 -2 12t2 15q4 -2 7 -2q4 0 6 7t8 7q2 0 2 -2v0v16q0 -6 -8 -6q-2 0 -2 13q0 10 10 10v33h8v12h-8v16v15h8l8 43q4 0 9.5 8t9.5 8h2q6 0 6 -8h49q0 12 29 12q4 0 4 -4l110 2q0 4 7 4h4q8 0 12 -2v10 q10 -2 30.5 -9t45.5 -7q27 0 86 6q-2 4 -2 10q0 4 8 4v88q-2 -2 -4 -2l-2 4q-2 5 -2 9q0 2 2 2h-17q-14 0 -14 4q-8 0 -30.5 -1t-49.5 -1t-53.5 -1t-40.5 -1h-23q-86 4 -130 6t-54 4v63q-2 0 -2 -2t-2 -2q-4 0 -4 9q0 10 8 10q-10 4 -9 17.5t1 27.5v45h8v29h-8v22v23h8 l10 59q0 10 1 17.5t1 11.5q6 -2 15 -2q20 0 42.5 5t45.5 5q2 0 4 -1t6 -1q-6 2 -6 6t4 5t8 1q-2 0 12.5 -5t28.5 -9t16 -4h19q16 0 20 6v-6h21q16 0 39.5 2t48.5 3t46.5 3t31.5 2q12 0 24.5 -1t22.5 -3q-2 2 -2 6v4h4q6 0 8 -2q0 14 4 27h10z" />
<glyph unicode="G" d="M664 16v213h-11q-2 6 -2 21q0 16 2 22h11v47h-11v173q-2 -2 -4 -3v0q-6 0 -6 9q-6 2 -18.5 3t-12.5 7q-20 0 -29.5 -2t-13.5 -3t-6 -3t-10 -2h-4v2q0 4 4 8h-90q0 -10 -12 -10v10q-29 -10 -84 -10v-74q12 0 12 -2v-4q0 -4 -12 -4l7 -6q7 -7 7 -13h-2v-2q29 0 33 -6l26 -6 v6q8 4 19 4q10 0 22 -4l64 -8v-21q10 0 10 -8v-2q0 -4 -10 -4v-22h10q4 -16 4 -25q0 -12 -4 -29h-10v-12h10q6 -18 6 -27q0 -16 -29.5 -20t-66.5 -4v-10q-8 0 -16.5 -6.5t-18.5 -6.5l-2 -30q6 2 10 2t4 -9h-14v-26h-14v-8q-10 -2 -21.5 -3.5t-23.5 -1.5t-22.5 1.5t-20.5 3.5 v8h-17q0 -2 1 -3t1 -3q0 -6 -12 -7q-12 0 -12 9v4q-35 0 -44.5 4t-9.5 22q-6 4 -27.5 8.5t-31.5 12.5v39q-4 -4 -6 -4v0q-8 0 -8 12q0 8 14 8v23q-2 -2 -4 -2h-2q-8 0 -8 14q0 10 8 10v0q2 0 6 -2v80q-16 0 -16 6q0 4 6 6t10 2v37h-6q-4 8 -4 15q0 10 4 14h6v25h-6 q-2 10 -3 20t-1 20q0 8 1 18.5t3 20.5h6v121h-6q-4 16 -4 21q0 8 4 20h6v55q-4 -4 -6 -4v0q-8 0 -8 13l4 6t9 14t8 16l3 7h29q0 16 20 16v23q-6 2 -6 10q2 10 6 10v27h-6q-6 6 -6 8q0 6 2 8t4 6h154v-6h2v2q10 0 23.5 -6t23.5 -6q8 0 10 2q0 14 14.5 17t14.5 5q2 -2 10 -2 h23q27 0 30 -12v-16h9q2 -14 3 -35t1 -51q2 2 4 2q6 0 6 -11q0 -6 -10 -6v-14h10v-14l1 1t3 1q10 0 10 -11h27v-8h18v8q4 0 11.5 5.5t13.5 5.5q2 0 2 -2h4l4 43h6v49q-14 0 -14 8q0 2 4 2h10v31q-14 0 -14 4l4 4l-53 6q0 6 -6 7l-6 1q0 6 4 6v5q0 4 8 4v22q-10 0 -17.5 1 t-13.5 3v8h-29l-5 10q-5 9 -9 19t-8 19.5t-4 11.5q0 -2 6 4q-74 0 -119 -1t-55 -3v4q-4 2 -12 2q-4 0 -17 -8q-2 0 -2 6h-41q-4 0 -7 -6t-11 -6v-33q12 0 12 -8q-18 -6 -28.5 -8.5t-14.5 -2.5q2 -2 2 -4v0q0 -4 -10 -8q-14 0 -14 8v0q0 2 2 4h-60q0 -10 -1 -17t-5 -9h-8 q0 -20 -8 -27h-31v-6q-4 -4 -21 -4v-279q4 0 5.5 -1t5.5 -1q0 -4 -11 -4v-43q4 4 7 4l2 -3t2 -11v-4q0 -2 -11 -2v-39q2 2 5 2q6 0 6 -16q-4 -6 -11 -6v-29h11v-25h-11v-20q2 2 5 2q2 0 5 -6t3 -13q0 -6 -13 -6v-20l2 2q4 0 6.5 -6t6.5 -6h2q4 -4 4 -15q0 -6 -4 -14h-6v-41 h-11v-39q4 4 7 4l2 -3q2 -3 2 -11q0 -2 -11 -2v-82q4 -4 7.5 -17.5t3.5 -42.5h32v-2q0 -4 7.5 -7t9.5 -7v-27h6q8 0 8 -8h12q14 0 35 -6t31 -6h2q16 0 43 -41q49 0 66 -6h8q14 0 34.5 3t30.5 3v10q6 4 29 17.5t41 22.5t20 11q-2 0 -2 7q0 6 15 14h2q6 0 7 8t3 8t8 -5t10 -5 v-18h9q4 -16 4 -43h10q-4 -2 -4 -7q0 -2 9 -5t9 -15h15q-6 6 -7 8q0 6 15 6q4 -4 4 -14h59q-2 4 -2 10v4q2 6 8 6l1 -1q2 -1 4 -1zM195 899h-9v6h9v-6zM158 915l-2 3q-2 0 -5.5 -7.5t-7.5 -7.5l-2 2q0 14 -6 15q23 -1 23 -5z" />
<glyph unicode="H" d="M664 35v164h-7v135h7v37h-7q-6 6 -6 16q0 6 6 12h7v31q-2 -2 -5 -2v0q-8 0 -8 12q0 14 13 15v28h-7v135h7q0 14 -2 15q2 0 -5 -6q-6 20 -6 43q0 20 6 43h7v12h-7q-6 37 -6 115h-2q-10 10 -10 16q0 14 10 18l2 52h-2q-10 10 -10 20q0 12 10 23l2 39q-12 0 -12 4q0 2 4 4 q-20 0 -29.5 -1t-12.5 -3t-5 -3t-8 -1q-8 0 -14.5 4t-10.5 6q-4 0 -1 -7t-7 -7v-35q2 2 4 2l1 -3t1 -14q-4 0 -5 -10t-11 -14l2 -15q6 -6 6 -12q0 -4 -2 -8l-4 -8l-2 -21h2q2 -10 4 -19t2 -20q0 -10 -2 -20t-4 -16h-2q-4 -4 -4 -7l6 -17q6 -17 6 -34q0 -12 -2 -24.5 t-4 -22.5l-2 -22h2q2 -4 4 -7.5t2 -7.5q0 -6 -6 -12l-2 -31q4 0 6 -1t4 -1v-35q-2 -20 -18 -20q-76 4 -116 7l-40 3q-57 0 -106.5 -2t-92.5 -2v12h-10v27q-4 -4 -6 -4q-4 0 -4 14q0 6 4 6t6 -2v140q-6 0 -10 1t0 3q4 4 10 4v131h-6q-2 6 -2 24q0 16 2 23h6q0 4 -7 6t-7 6 q0 16 10 17q4 0 4 -2v47q-14 0 -14 4q0 2 4 4h-27q-35 0 -55 -6v6q-4 0 -6 2l-2 -5q-2 -5 -6 -5l-3 -39q2 2 5 2q4 0 7 -9.5t7 -11.5h-8v-6q0 -4 -6.5 -9t-6.5 -9q0 -6 2 -11h11v-28h-11v-31q2 2 3 2h2h4q2 -2 2 -4v0v-4q-2 -2 -6 -2h-2l-3 2v-78h11v-47h-11v-170 q10 0 11 -6v-4h-11v-25h11v-31h-11v-174h11v-39h-11v-61h11v-207q0 2 2 2h4q6 -4 17.5 -5t15.5 -5v-8q18 14 59 14v6v6q0 2 2 2q4 0 8 -2v17h-10v45h10q0 4 -10 4v94h10v47h-10v33h10v18h-10v31h10v29h-10v10q0 10 -2 29v10q0 45 47 45h59v10q0 4 7 4q8 0 15 -7l7 -7 q-4 8 -4 10q0 4 14 4l13 -4q14 -4 14 -14q25 0 32 4t19 4t13.5 -5t7.5 -5q4 0 14 3t12 3l1 -1q1 -1 1 -3q31 0 30 3t11 3q27 0 40.5 -10t18.5 -23.5t4 -28t-1 -20.5h2q4 -18 6 -71.5t2 -139.5h6v-55h-6v-59h6v-17q-2 0 1 1t13 3q8 -4 9.5 -6t9.5 -2t21.5 2t17.5 2v10 q10 6 18.5 11.5t12.5 5.5z" />
<glyph unicode="I" d="M539 43v16q-12 0 -13 7v2h13q2 2 2 6v2t-2 2t-9 -6q-4 14 -10 19t-11 7t-8 4t-3 11h-90l1 2t1 4q0 6 -11 6q-8 0 -8 4q0 2 1 4t1 6h4q4 0 6.5 1t4.5 1q-2 2 -2 13q0 2 4 2h4v69q-6 8 -6 51h-11q-4 8 -4 17q0 6 4 14h11v60h6v14h-6q-2 10 -2 18v21v18q0 10 2 17h6v28h-6 q-2 10 -2 19v18v19q0 10 2 20h6v25h-6q-2 4 -2 20q0 10 2 14h6q-4 14 -6 26.5t-2 23.5q0 12 2 18q-2 -2 -7 -2q-8 0 -8 12t15 13v73h6v15q-8 0 -8 2q16 35 14 58.5t0 27.5q10 16 39.5 19t56.5 5q0 20 6 25h4v20q-12 0 -12 7q0 4 6 6l6 2v39q-41 8 -86 8h-20q0 -8 -12 -8v8 h-213q0 -8 -13 -8v-93q12 0 13 -6h53q20 0 37 -10v-14h4v-17q0 -10 10 -32.5t10 -36.5q0 -10 -6 -23h-6v-14h6q4 -8 4 -21q0 -10 -4 -18l-12 -6q0 -4 6 -2t6 -2v-95h12q2 -6 2 -20q0 -16 -2 -23h-12v-30q4 4 10 4q4 0 4 -17h-14v-4q0 -4 7 -7t7 -13q0 -8 -4 -8h-10v-381 q-12 -4 -32.5 -5t-45.5 -1v-11q-23 -6 -30 -6l-7 -47h-6q2 2 7.5 -8t5.5 -33h90q0 -4 9 -5t9 -11h139v8q31 6 84 6q0 20 4 37h9zM319 455h-2h2z" />
<glyph unicode="J" d="M623 217q0 10 -8.5 31.5t-8.5 32.5q0 10 2 16l-4 -4q-8 0 -8 8q0 4 4 6l4 2l4 41h-8v27h8v145h15v13h-9q-6 37 -6 73q0 39 6 76h9q-14 6 -15 27q0 12 6 22h9v17h-9q-6 2 -6 10q0 4 6 14h9v19h-9q-6 2 -6 12q0 8 6 12h9v35h-9q-6 49 -6 158q-2 -2 -8 -2t-11 6t-11 6 q-4 0 -7 -2v-6h-2q0 2 -4 2q-2 0 -8 -2l-6 -2q-2 0 -2 4v4q-4 0 -13.5 -4t-17.5 -4v-15h10q2 -6 2 -20q0 -16 -2 -23h-16v-118h6q2 -4 4 -9.5t2 -11.5t-2 -11t-4 -9h-6v-105h-12v-16h6q4 -10 4 -21v-16v-21q0 -8 -4 -18h-6v-14h6q0 -2 -1 -19.5t0 -39t4 -41t9 -27.5 q0 -6 -2 -6h-2q0 2 -2 2v-134q16 0 20 -4q0 -10 -1 -17t-3 -17h-10v-70q-2 0 -3 1t-3 1q-10 0 -24.5 -5t-18.5 -5v-13q-8 0 -12 -6t-13 -6v-55q-16 -4 -44.5 -6t-63.5 -2q2 0 2 -2q0 -8 -12 -11q-10 0 -11 6q0 6 2 7h-104l-2 73q-8 0 -12 8.5t-9 8.5h-59q-16 -16 -31 -17 v-73l4 2q2 0 6.5 -8.5t14.5 -10.5h29l2 -14q6 0 8 -4t5 -10.5t9 -12.5t23 -10q6 -2 13 -17.5t17 -17.5q33 0 60 -8v-10h12q16 0 39 8t33 8t20 -6v-10q25 29 49 28q-2 2 -2 7q0 18 21.5 22t30.5 4h6q0 10 6 22.5t6 20.5h2q4 0 7 8.5t7 8.5h21v28h10v23q0 10 2 16h2q6 0 9 8.5 t6 12.5q18 6 29.5 11t15.5 5z" />
<glyph unicode="K" d="M655 6v31q-6 0 -6 10q-16 4 -26 4t-19 4v80q-10 0 -10 6q0 2 2 4l-51 5q-4 10 -7 28.5t-3 44.5q0 10 -10.5 14.5t-21.5 9.5t-20.5 11t-9.5 18v11q0 6 2 16h8q0 4 -6 5t-6 3q0 4 8 7.5t8 11.5q0 6 -4 6h-10h-4q0 2 4 6l-51 4q-2 8 -10 12q0 4 10 4v15h-10v29h10v30 q-2 -2 -8 -2q-2 0 -2 2q0 4 -2 4v2h2v9q0 6 10 6v20h-10v19q-31 0 -43 20v4q0 4 2 4h10q-4 -4 7 7.5t22 11.5l2 24h10v23q-2 -2 -8 -2q-2 0 -2 2q0 4 -2 4v2h2v6q0 4 10 4v25h-10v26h10q0 16 11 26.5t40 10.5q0 25 2 31h8q0 8 -5 9t-5 5t10 4v35q8 -4 13 -4q4 0 15 10.5 t24 10.5v59h10l4 33q18 10 31 10h8v94h8q-4 16 -13.5 15.5t-17.5 -0.5q-10 0 -33.5 -5.5t-42.5 -5.5h-6v-39q4 4 11 5q6 0 6 -19q0 -4 -17 -4v-45l-47 -2q0 -4 -12 -4l-2 -84q-10 0 -10 -6q-2 -4 -23 -4q-20 0 -27 -9v-84q-2 0 -4 1t-4 1q-6 0 -13 -7t-15 -7q-2 0 -3 1l-1 1 l-3 -6q-4 0 -8 -5t-8 -5v-25h6q6 -6 6 -12t-6 -12h-6q0 -20 -4 -29h-6h-8t-17.5 -3t-16.5 -10.5t-7 -19.5q-8 -4 -10.5 -6t-6.5 -2l-6 -8h-35l-6 6t-6 10t2 8h-6q-2 10 -3 20.5t-1 22.5q0 10 1 21.5t3 21.5h6v17h-6q-4 12 -4 16q0 10 4 19h6v26h-6q-4 4 -4 10q0 2 4 15h6v18 h-6q0 6 2 41t0 76t-10 76t-27 41h-6q-14 0 -28.5 -4t-24.5 -4v-39q2 4 6 4t6 -4t2 -9q-12 -18 -22 -18v-16l22 -19q-18 -25 -22 -29v-12h8v-24h-8v-244h8v-31h-8q0 -4 4 -7t4 -7v-2q0 -2 -2 -2h-2t-4 2v-76h8v-35h-8v-133q2 2 6 2q-2 0 4 -20l-4 -4h-4q0 2 -2 2v-23q2 4 4 5 l2 1l2 -6t2 -14q0 -6 -10 -6v-21h8v-31h-8v-98l1 1q1 1 5 1l2 -2q2 -2 2 -4t-2 -5l-2 -3l-2 2q-2 2 -4 2q8 -41 8 -62v-8h8q0 -8 8 -14t14 -6q12 0 25.5 4t22.5 4q8 0 12 -4q0 18 6 18v0q2 0 4 -2v385q10 4 21.5 9.5t21.5 5.5t25.5 -13.5t31 -29t27.5 -28.5t16 -13h17 q29 0 29 -29q0 -12 -2.5 -26.5t-0.5 -12.5h7q8 -4 6 -8t20 -27q27 0 35 -19.5t8 -37.5q0 -4 -1 -8t-1 -10q2 -2 22.5 -13.5t24.5 -21.5v-43h13q4 -4 4 -25h49l6 -16q4 -4 4 -19q4 0 9 -8t10 -8q14 0 32 2t45 8zM514 938h-8v14h8v-14z" />
<glyph unicode="L" d="M664 18v78h-11q-4 4 -4 19h-155q-100 0 -177 -1t-135 -1v12h-10q-2 2 -3 9t-1 13q0 8 1 13.5t3 11.5h10v74h-10q-4 6 -6 11t-8 7l8 8q2 0 2 -2v-2v74q-14 0 -16 2v37h16v151h14l-2 117q-8 0 -13 8.5t-9 8.5q10 6 11 17t3 15h10v70q-16 0 -16 4q0 2 2 4h14v80q-14 0 -14 4 l14 2q-8 45 -11 68.5t-3 25.5h-2q-10 4 -10 13q0 10 10 12l2 51h-47q2 -2 2 -6q0 -2 -10 -6q-4 4 -4 12q-10 0 -21.5 -6t-15.5 -6v-94l2 2q4 0 4 -15h-6l-4 -51h-7v-35h7v-12v-12h-7v-31h7q0 -12 2 -48t2 -97l2 2q4 0 4 -11l-1 -1t-5 -1v-305q6 6 4 6l2 -9q2 -9 2 -13t-8 -4 v-166h6v-76h-6v-26h6v-15q16 0 26.5 -1t16.5 -1v-10q31 0 31 -4q33 0 45 5t20 5q10 0 12 -5t11 -5q4 0 12 2l8 2q4 0 4 -4q8 2 40 3t91 1v10q4 0 9.5 1t9.5 1q8 0 14 -1t10 -1v-10h35v8q0 4 14 4v-12q4 2 11 2q6 0 18 -6q0 4 31 4v10q8 0 15 1t11 1q10 0 16.5 -1t14.5 -1 v-10h14v10q8 0 18.5 7t16.5 7q7 0 11 -2z" />
<glyph unicode="M" d="M670 12v39q-14 0 -15 4q0 8 15 8v23h-6q-2 6 -2 20v11q0 6 2 10h6q0 12 -2 12q-4 0 -4 -4q-2 6 -2 17q0 10 2 14h6q0 4 -6 4q0 -2 -2 -2h-3v2l-6 627q-4 8 -4 14q0 8 4 12l6 39h-6q-4 20 -4 33q0 10 4 31l6 32h-6q-4 4 -4 13q0 4 1 7l3 9l6 17h-6q2 -2 0 3t-6 12t-7 12 t-3 1q0 2 2 4q-49 0 -83 -2t-56 -8q0 -2 1 -3t1 -3q0 -4 -17 -4v-29h13q2 -8 2 -16q0 -10 -2 -13h-13v-26h13q2 -2 2 -14q0 -6 -2 -11h-13v-76q-12 -8 -22 -12t-19.5 -10t-14.5 -16.5t-5 -28.5v-12q0 -27 -10 -31h-2q-14 0 -40 -6t-36 -6h-4q-12 0 -21.5 9t-9.5 62h-8 q-2 2 -2 17h-6v16h-35q-18 0 -20.5 16.5t-2.5 32.5q0 51 2 76t2 23h-2q-12 0 -12 16h14v39h-6q-8 6 -8 20h-49q-35 0 -53 -10v10q-8 -6 -13.5 -7t-10.5 -2t-11 -6t-14 -17h-11v-17h11q2 -8 2 -20q0 -10 -2 -17h-11v-30h11q2 -4 2 -17q0 -8 -2 -12h-11v-74h11q2 -4 2 -12 t-13 -10h11q2 -8 2 -27q0 -16 -2 -23h-11v-10h11q2 -10 2 -22v-21v-22q0 -10 -2 -21h-11v-35q10 0 15 -4v-295h8q4 -20 4 -39q0 -25 -4 -36h-8v-19h8q4 -8 4 -10q0 -6 -1 -9t-3 -7h-8v-29q4 2 6 2l1 -4t1 -10q-2 -8 -8 -9v-26h8v-107h18q2 -2 2 -6l70 -4v2q0 8 12 8v47 q-4 -2 -8 -2t-4 11q0 14 12 14v20q-4 -2 -8 -2t-4 13q0 6 12 6v26h-8q-2 4 -3 8.5t-1 14.5t4 22h8q4 8 4 11q0 2 -9 1t-9 5q0 4 3 10l3 6q4 0 8 -2v84h-8q-4 0 -4 10t4 11q4 0 8 -4v28h-8v127h8q0 8 -8 8v23q0 18 1 41.5t3 46t3 42t1 26.5h8q-2 2 -2 4q0 8 7.5 15t15.5 7 q10 0 22 -10v-16h11q2 -6 3 -16.5t1 -26.5l2 2q4 0 4 -5q0 -4 8 -4l2 -18q10 0 20.5 -7t10.5 -14q0 -2 -1 -3t-1 -5q0 -12 2 -12h8q4 -20 4 -94q0 2 2 2t7 -10.5t10 -12.5h71q-2 2 -2 6t5 7.5t5 7.5h21v100h14q-4 0 -4 6q0 2 10 19q16 0 23.5 16t17.5 19l2 53q10 0 13.5 8 t19.5 8q12 0 19 -10v-76h8q2 -37 3 -96t1 -143q4 2 4 4t2 2l2 -4v-9v-6q0 -2 -8 -2l6 -129q2 -4 2 -10q0 -10 -2 -16l-6 -25q4 2 6 2t2 -4v-6q0 -8 -8 -8l6 -35q2 -8 2 -35v-72q14 0 31 -10v-10h59v8q2 0 3 -1l1 -1q6 0 7.5 8t3.5 8q4 0 6 -2z" />
<glyph unicode="N" d="M664 16v179h-7q-6 68 -6 200h-6q-2 4 -4 7.5t-2 7.5q0 6 2 9t4 7h6l6 43h7v16h-7q-6 51 -6 164h-4q-2 0 -4 2v6q0 6 2 7q-2 2 -2 8v2l1 1t3 1t2 -2h2v71q-2 -4 -4 -4t-4 7v4q0 8 8 8v147l-4 -4q-2 0 -3 1l-1 1v6q0 14 8 15v24h-6v11q-10 2 -18 2q-6 0 -6 8q0 2 1 3t1 3 q4 0 4 -2h2q4 0 4 6t2 6h10l-6 29q2 0 -15.5 9t-19.5 11v-10v2t-2 2q-4 0 -9 -3t-7 -3h-2q-6 0 -6 8v4h-19q-14 0 -18 -10v-35h8q6 -4 6 -14q0 -12 -6 -19h-8v-32l2 4h2q6 0 8 -5t2 -10q0 -10 -8 -10q-2 0 -6 2q4 -12 8 -27.5t4 -33.5v-15q0 -8 -4 -18h-8v-68h8q6 -12 6 -36 q0 -23 -6 -41h-8v-97h8q6 -6 6 -16t-6 -12h-8v-15h8q6 -6 6 -20q0 -10 -6 -23h-8q0 -8 6 -8q8 0 8 -14q0 -8 -6 -14h-8q10 -10 12 -13.5t2 -25.5q2 0 3 1l1 1q4 0 4 -11q-4 -6 -8 -6q0 -4 -7 -10t-7 -10h8q6 -6 6 -17q0 -14 -6 -22h-8v-31q-16 0 -17 -4v-2q-25 0 -40 8 t-15 15q2 12 8 12v16q-8 0 -8 2q0 8 4 8v-2h4l-4 23q-4 0 -4 14l-59 6v97q-2 -2 -7 -2q-8 0 -8 16h-45q-2 4 -2 20q0 23 2 29h8q0 10 -6 10q-2 0 -2 -4q-2 14 -3 32.5t-1 45.5q-12 0 -12 2l2 2q-33 0 -39 7.5t-6 35.5h-2q-2 0 -3 4t-1 6q0 6 6 7v36h-4q-2 4 -3 7.5t-1 9.5 q0 4 4 8h4v16h-4v19q-2 4 -16.5 7t-26 4t-13.5 1v14h-4q-4 0 -4 19h-6q-2 4 -2 12q0 10 2 10h6v27q-23 0 -39 16h-4q-8 0 -8 5v22q0 6 -2 8l-4 6q0 6 -8 5.5t-8 3.5q2 10 12 14v12h-4l2 1t4 1t2 -2h4l-4 19q0 2 -1 6t-1 10h-17l-8 10h-45q0 -10 -8 -10t-8 -2q0 -4 2 -6 q-2 0 -5 -1t-9 -1l2 -39q6 -4 6 -19q0 -12 -6 -16l-2 -22v2h2l3 -6q3 -5 3 -9q-2 -2 -6 -2h-2v2v-37v2h2l3 -6t3 -10h-6h-2v-33l2 4q4 -2 5 -7t1 -7v-2q0 -6 -8 -6v-88q8 0 8 -8q0 -4 -8 -4v-160q0 2 2 2q4 0 5 -7.5t1 -11.5t-8 -4l2 -106q6 -6 6 -17q0 -8 -6 -14h-5l5 -1 q6 -1 6 -9v-2q-2 -2 -6 -2h-2v2l2 -119q4 -8 5 -14t1 -17q0 -8 -1 -16t-5 -14l-2 -15h2q4 -10 5 -19t1 -20q0 -10 -1 -19t-5 -20h-2q-6 -10 -7 -20q0 -10 7.5 -27.5t7.5 -27.5v-15l9 -3t18.5 -6t11.5 -3v-8q18 0 30.5 5t18.5 11t8 11.5t2 3.5v14h12q0 6 -12 6l-2 379h-4 q0 2 -1 6t-1 10q-2 0 -2 -2h-4q-4 0 -6 8l-2 7q-2 0 -7 -2q0 10 -7 15l-7 5q0 27 12 27q8 0 13 -2v26h10v17q-2 -4 -8 -5q-4 0 -5 6l-1 7q-2 0 -7 -2q-2 2 -2 12v8t2 8h4q6 0 12.5 3.5t10.5 3.5l2 43h12v24h-12v14v15h12v16q23 0 43 -4v-12h4l7 -113q6 0 19 -3t34 -13v-6 q0 -18 9 -40t9 -32q0 -6 -4 -14q12 0 41 -9.5t29 -27.5q0 -4 -1 -5l-1 -1h4q4 -8 4 -29h6v-23h8q2 -8 2 -22q0 -20 -2 -29h-8l9 -2q10 -2 14 -6v-18h8q4 -8 4 -25h2q4 -6 6 -14.5t2 -24.5h8v-22l2 2q12 0 25.5 -5.5t13.5 -19.5v-27h11v-26l8 -2q0 -6 6 -9.5t6 -13.5v-2 q8 4 14 4q8 0 15 -6v-47h8q4 -4 9 -23l5 -18h68q0 14 33 14z" />
<glyph unicode="O" d="M664 113v108q-2 -4 -5 -4v0q-4 0 -6 4t-2 6t2 2q-2 2 -2 7q0 8 13 8v30q-4 0 -8 1l-5 1l2 5h11v231q-12 0 -13 2q2 0 3 3t10 3v31h-11v27h11v90h-11v67h11v19h-11v41h11v18h-11v102l-49 5v30h-10q-4 0 -4 11q-4 2 -13.5 3t-9.5 9v2q2 0 2 2h-39q-2 0 -2 4q0 6 9 6h2v29 q-20 6 -29.5 10t-15 6t-10.5 3t-17 1q-14 0 -16 -10v10l-154 -2q0 -8 -8 -8q-4 0 -4 10h-52q-12 0 -23 -2t-15 -8v-49q-8 0 -9 -4v-6q-10 -4 -24 -4t-27 -13l-6 -43l-6 -2t-10 -2t-4 10l-27 2q0 -4 -9.5 -12t-11.5 -12v-19h11v-155q10 0 10 -8q0 -4 -10 -4q0 -10 5 -12.5 t5 -14.5t-4 -16h-6v-252q2 8 6 8t4 -17q-4 -6 -10 -6v-20h6q4 -4 4 -17v0q0 2 2 2q8 0 8 -8v-2q0 -4 -2 -4q-8 0 -8 4v-51q8 0 15 3t12 3q2 0 3 -9t1 -22h8q4 -4 4 -14q0 -2 -4 -14h-29q-8 0 -9 -12.5t-11 -12.5v-41h6l3 -9t1 -7q0 -10 -4 -10h-6v-27h6q4 0 4 -14 q35 0 44 -4.5t9 -28.5v-17q10 0 20.5 -5t10.5 -15h2q8 0 27 -6v-21q2 2 4 2q4 0 9 -8t7 -8q59 0 82 6h4q4 0 15.5 -2t31.5 -6v-8q6 0 6 8h140v-8h22v8q12 4 21.5 7t15.5 5q0 2 -2 2t-2 2q0 8 8 15.5t18.5 14.5t21.5 11t15 6v5q0 4 12.5 24.5t37.5 20.5h2zM569 440l-2 -8 q0 -10 -3 -28.5t-7 -38t-7 -36t-3 -24.5q0 -18 6 -31h6v-28h-6v-66q-18 0 -30.5 -9t-20.5 -19.5t-11.5 -20.5t-3.5 -12q-53 0 -61 -6v6q-8 4 -20 4q-14 0 -38 -5t-38 -5q-6 0 -26.5 -1t-49.5 15h-6h-2v27q-4 0 -9.5 7t-9.5 7l-5 -1t-5 -5q0 -6 8 -8h-18q-14 18 -21 18v-2 q0 41 -1 69.5t-3 49.5h-10v16h10q2 6 2 17q0 14 -2 16h-10v24h10q2 29 2 58v63v62t-2 59h-10v14q14 0 14 9q0 18 -6 18q-4 0 -8 -4v172h10q8 10 3 24.5t12 14.5h2q10 -2 14 -2h6h6q8 8 8 22h13v27q4 0 18.5 3t31.5 6t34.5 6.5t27.5 3.5q14 0 21 -3v-8q2 6 16.5 7t18.5 18 q0 -8 15 -12.5t22 -4.5v-16l2 2q2 0 3 -6t7 -6l1 1q1 1 3 1q-2 -2 -2 -6q0 -2 8 -2q10 0 10 -6q-2 -2 -2 -5l-2 -2q12 0 25.5 -7t25.5 -7v-2l13 -41h10q-6 -6 -6 -18q0 -10 4 -21.5t8 -28.5h-6v-127q2 0 3 1.5t3 1.5v-7h-6q-6 -29 -6 -49q0 -27 6 -51h6v-4q0 -12 6 -28.5 t6 -30.5q0 -4 -1 -6.5t-1 -4.5zM129 274h-8v7h8v-7z" />
<glyph unicode="P" d="M653 604v242l-4 -4q-4 0 -4 4v2q0 4 2 4q-25 0 -38 9t-22 19.5t-21.5 19.5t-35.5 9v37q-20 0 -20 19h-39v51q-14 0 -14 6v2q-94 0 -155.5 -6t-92.5 -6h-6q-2 2 -2 8l-119 4v-92h-6q-6 -6 -6 -8t12 -2q0 -10 1 -20.5t1 -20.5q0 -12 -1 -21.5t-1 -19.5l-6 -4q0 -2 4 -6.5 t4 -18.5q0 -10 -1 -15t-1 -10h-6v-77q0 -12 10 -41t10 -45q0 -14 -4 -23h-10v-305h10q4 -4 4 -19q0 4 4 5q4 0 4 -11h-4q-4 0 -8 -4t-10 -4v-192q6 6 8 6q6 0 6 -21q0 -8 -10 -8q-4 0 -4 2v-43q0 2 4 2q6 0 10 -8t8 -8h62h-2q0 10 22 10q-2 2 -2 6v2q2 10 11 10v291h-9 q-4 12 -4 17q0 8 4 20h9l4 49h2v4q0 10 14 23h39q12 10 23.5 13t15.5 3q8 0 8 -10l6 6q2 0 9.5 -7t17.5 -7h2q0 2 2 2v2l6 3t8 3h2q6 0 6 -6v-2q4 0 30 4t48 4q14 0 19 -2q0 8 7 15.5t11 7.5v-2h4q0 27 4 38h37q-4 6 -4 9q0 2 4 3t8 1v-2h2q0 33 13.5 44t29.5 11q14 0 21 -4 q-2 4 -2 6v2q0 14 16.5 24.5t29.5 15.5t15 5zM551 670h-8v-60q-2 0 -3 1l-1 1q-10 0 -11 -6q0 -2 2 -2h-36v-45q-4 2 -9 2h-2q-12 0 -12 -16q-8 0 -22.5 3t-24.5 3l-4 6q-10 -2 -61.5 -4t-143.5 -2v4q0 4 -16 4q0 10 -1 15.5t-3 11.5h-9v20q12 0 13 4q0 8 -13 8v64h9 q4 16 4 27q0 12 -4 20h-9v47h9q4 12 4 23q0 10 -4 22h-9v19h9q0 23 10 47h12q23 0 49.5 7t48.5 7q4 0 4 -2t5 -2v-4q0 -6 2 -6q4 0 10 1t12 1q2 0 2 -2v0v2q0 8 17 8q27 -10 104 -10v-15h8v-14q12 0 25.5 -6t25.5 -6q-2 -2 -2 -4t15 -2v-97h8v-73z" />
<glyph unicode="Q" d="M670 8v31q-4 4 -14.5 8t-21.5 9t-19.5 11.5t-8.5 14.5h-4q-16 16 -31.5 26.5t-15.5 14.5t14 18q4 0 13.5 7.5t17.5 7.5q4 0 6 -2q0 23 23.5 32t29.5 11v327q-10 0 -10 4v4l1 2q1 1 3 1t2 -3h4l-6 52q-4 4 -4 18q0 12 4 16l6 23q-12 0 -12 2t4 6t8 4l-6 123 q-12 12 -13 13.5t-22 9.5v12q-10 0 -14 1l-4 1v74h-10v16q-18 4 -31.5 6t-19.5 4v25h-9q-4 12 -4 25l-51 6v37q-10 0 -10 4t2 6q-16 4 -31 4q-12 0 -22 2q-4 0 -19.5 -3t-32.5 -3q-8 0 -11 1t-7 3v2h-4q0 2 -2 2q-4 0 -6 -4t-8 -4q-4 4 -5 6h-16t-33.5 -2t-23.5 -4v-31 q0 2 2 2t6 -8t6 -10q-10 0 -33.5 -7.5t-31.5 -7.5q0 -8 -15 -8v-33h-22q-2 -10 -12.5 -14t-14.5 -20v-37q0 -27 -22.5 -35t-38.5 -12l-4 -103h-11v-14h11q2 -2 2 -14q0 -10 -2 -17h-11v-12h15v-365h8v-53l-8 -2q0 -4 4 -6t4 -8q0 -8 -8 -8v-39h8v-37h-8q-2 -2 -2 -6h8l1 -1 t1 -4v-4q27 0 31 -4v-12h6q16 -43 56 -48t75 -5v-15q8 0 14 -18q12 0 45 -4t51 -4l9 4q0 4 6 4q8 -2 8 -8h24q0 4 21 26l2 41q10 0 17.5 14.5t15.5 14.5t9 -7l1 -7l2 1q2 1 4 3q0 -2 2 -14.5t5 -26.5t7.5 -26.5t8.5 -12.5q4 2 8 2q0 -2 2 -2t2 -2l121 -4q0 8 28 8q-4 2 -4 4 q0 6 11 6q2 0 2 -2h2zM557 379l-10 -166q-20 0 -31 -8q0 8 -31 8v78q-2 0 -2 -2h-2t-2 4v10q-4 2 -8 2h-4q-14 0 -14 -2q0 -6 2 -8h-17v8q-41 8 -52 13l-11 6q0 2 4 2t-4 0q-4 0 -6 -2.5t-4 -2.5v27h-11v16q0 20 -3 27.5t-6 8.5t-7 1t-4 7q-68 0 -80 -9l-6 -51h-2v2 q-10 0 -10 -8q0 4 7 -6t11 -15q20 -12 24.5 -17t14.5 -17h8v-21q2 -4 14 -4q27 0 31 -4t4 -10v-8q0 -8 4 -13h11v-104q-37 0 -46 -4v-6q-23 0 -40 -2.5t-25 -6.5q0 25 -16.5 33t-16.5 12l4 3q-4 2 -22.5 7t-22.5 5v157h-8v52h8v47h-8v12h8q-6 18 -7 76.5t-1 157.5h8v53 q6 0 11.5 7t9.5 7v6h4q6 0 11 3t11 3q2 0 4 -4v29h11l1 4t1 10t-1 12.5t-1 16.5v8q0 16 4 22.5t20 6.5h10q18 0 21.5 6t5.5 13t9 13.5t32 6.5l4 -8q6 6 6 8h49q0 -12 5 -17h6v-16h10v-14q4 -4 43 -4v-17h8q0 -27 4 -35h6v-20q8 -10 17.5 -12t17.5 -4.5t14.5 -8.5t6.5 -24 q0 -4 -1 -7t-1 -8h8q0 -35 4 -38l6 -44h-6q-4 -16 -4 -30q0 -12 4 -29l6 -16h-6q-2 -14 -3 -26.5t-1 -24.5q0 -14 1 -27.5t3 -26.5q0 2 2 2h2q2 0 2 -10h-6q-4 -4 -4 -16q0 -8 4 -17h6v-18z" />
<glyph unicode="R" d="M664 10v82q-10 0 -11 2q0 2 4 6q-31 0 -37 4.5t-6 22.5v14q-10 4 -10 15v4q0 4 10 4v20q-29 12 -44 17.5t-21 14.5t-7 26.5t-1 54.5q-2 -2 -3 -4l-1 -2q-4 0 -6.5 5t-2.5 7t2 2l-49 2q0 16 1 24.5t1 10.5l4 57q-14 4 -26 14.5t-12 18.5h6q8 0 8 4l-2 1t-2 3 q27 10 35 21.5t8 34.5q2 -2 6 -2q6 0 13 4t9 4q6 0 11 -2q0 23 4 26h10q-2 2 -2 9q0 4 2 8t6 10h2q8 0 17.5 6t13.5 6t10 -6q0 6 -1 10t-1 6q0 23 8 27t19 4q4 0 10 -1t10 -1q8 0 15 8q-4 4 -7.5 11.5t-5.5 17.5q0 10 3 30.5t3 24.5h7v101q-6 0 -7 49q-18 4 -30.5 6t-22.5 4 v16h-6q-4 6 -10 20.5t-6 8.5q0 2 2 4q-31 0 -37 5t-6 22v16q-2 -2 -4 -2v0q-4 0 -6.5 4t-2.5 6h2q-2 0 -10 2.5t-17 5.5t-7 3q-10 0 -25 -11v17q0 2 10 2v26q-25 12 -41 18.5t-29.5 8.5t-27.5 2h-31q-25 0 -48 -3t-48 -7v4q-23 0 -26 -3t-13 -3q-2 0 -2 2l2 4h-16 q-16 0 -48 -2t-77 -4q2 -2 2 -8q0 -2 -8.5 -5.5t-8.5 -11.5q0 -4 2 -6h9q2 -12 2 -26v-29v-27q0 -12 -2 -24h-9v-50h9q2 -8 2 -18v-18v-21q0 -10 -2 -22h-9v-29h9q2 -10 2 -18v-17v-20q0 -8 -2 -19h-9q0 -2 3 -2h2h4q2 -6 2 -22q0 -14 -2 -21h-9v-18h9q2 -4 2 -25v-10 t-2 -10h-9v-45q4 0 7.5 -1t5.5 -1l4 -424v-2q2 0 2 -2q0 -4 -4 -10.5t-4 -12.5t2 -8h4q2 -2 2 -25q2 6 8 6q4 0 4 -14q23 0 28 -5t7 -5q6 0 13.5 6t15.5 6q4 0 5 -1t3 -1q0 2 -2 2v2q0 6 5 14.5t5 14.5t-4 8t-4 8q0 10 6 10v64q-31 0 -31 16v4q0 8 13.5 10.5t17.5 8.5 l10 172q-2 0 -6 5t-4 13q0 6 6 17l4 28h-4q-6 2 -6 7q0 2 5 3t5 3v4q20 16 43 16q4 0 3 -4t3 -4q10 0 20.5 6t18.5 6q2 -4 19.5 -7t19.5 -26q4 -10 17.5 -11t23.5 -1h12q6 -41 7 -57v-15h12h-2v-2q0 -4 6 -8t6 -10v-2q8 4 15 4q20 0 24 -29.5t4 -54.5h6v0q2 0 2 -2 q-2 -2 -2 -4q0 -4 8.5 -9t19.5 -12.5t19.5 -15.5t8.5 -20q-2 -14 -2 -23v-8h2q4 0 19 -11.5t30 -11.5v-20h10q4 -12 8 -31.5t4 -46.5h90q-8 2 -8 6q2 0 6 2l4 2q2 0 3 -2h2zM555 618q-6 -6 -18 -6t-22.5 -1t-19 -9t-8.5 -33h-2q0 2 -2 2q-4 0 -4 -6q0 -4 2 -6h-284 q0 14 -2 14q-4 0 -9 -4q0 20 -4 27l-4 41h4q6 6 6 12q0 8 -6 15l-4 174l8 43q35 6 68 12t47 6q4 0 4 -2v-2q12 -6 23 -6q10 0 16 5l6 5q6 0 5 -3t7 -7l8 4l3 2v0q0 2 -4 2q8 0 23.5 3t32.5 6t30.5 6t15.5 3l-2 -4q0 -6 12 -6q0 -16 1 -26.5t1 -14.5l4 -12q33 0 37 4 q20 -10 31 -10v-228z" />
<glyph unicode="S" d="M664 283v14h-5q-2 10 -4 40t-2 81h-49v67h-10v35q-6 -4 -28.5 -7t-28.5 -9q0 10 -9 10q-6 0 -6 4v2q-29 0 -40 6t-11 37q-43 0 -45 8q-18 0 -23 -8q-6 0 -6 8h-30q0 6 -11 7q-8 0 -8 10v2l2 2v-2h4q4 2 4 6h-4q-4 0 -12 14.5t-39 14.5q-4 0 -6 -2v26q-10 0 -10 2v0 q0 2 2 2q-45 6 -64 13v8q-29 0 -40 3t-14 10t-1 18.5t2 27.5v41q0 25 2 53h12v25h39q-2 2 -4 3l-2 1q0 4 4 6t6 2q8 0 9 -8q0 -2 -2 -3l-3 -1h21v4q6 6 20 6q6 0 11.5 7.5t10.5 14.5t11 14t17 7l139 2v-2h8q-2 -6 -2 -18q0 -8 2 -21.5t6 -26t10.5 -20.5t12.5 -8h14 q20 0 29 -8v-27q2 6 4 6q10 0 10 -14q-4 -4 -14 -4v-39q2 2 4 2q6 0 10 -8t10 -10h80q-2 4 -2 10v2l4 4h4q6 8 6 20t-8 31t-8 33q0 2 4 18h6l-2 21q-2 0 -25.5 12t-31.5 14v93q-16 0 -16 6q0 2 4 4l-52 4v47q-12 0 -12 4q0 2 4 4q-47 0 -51 -4q-6 0 -33.5 2t-56.5 2h-21v-2 q0 -4 -10 -6q-4 6 -5 7t-11 1q-16 0 -35.5 -4t-24.5 -4q-12 0 -20 4l-2 4q-6 0 -6 -4v-12l-1 -1t-3 -1t-3 1t-6 1v-43h-16q-29 0 -45 -3t-24.5 -7t-11.5 -9.5t-9 -11.5h2q4 0 9 -11t5 -20q0 -10 -2 -14h-6v-27q-23 -6 -42 -10t-32 -8v-88q4 4 5 4h2q6 0 6 -20h-13v-70h11 q2 -4 2 -16t-2 -17h-11v-22q4 -10 18.5 -11.5t24.5 -1.5h9v-43q10 0 22 -16h2q14 0 22.5 -10t26.5 -15v-18q23 -4 42.5 -6t35.5 -2h15l5 -6t5 -15l8 -2q2 -4 3 -8t1 -12l4 4q2 0 2 -8l53 -6v-9h19v9q4 4 18 4q8 0 12.5 -1t10.5 -3v-33q33 -16 48 -24.5t15 -26.5 q23 -10 38.5 -11.5t15.5 -23.5h6q-2 -6 -2 -15q0 -12 8 -33.5t8 -31.5t-4 -23h-10q-2 -2 -2 -4h2h10q4 -16 4 -28t-6 -16.5t-15.5 -6.5t-20.5 -6t-21 -14q0 -18 -12.5 -27.5t-30 -11.5t-38 -1t-36.5 1q-31 0 -63.5 2t-67.5 6v22h-13v17q-20 4 -35.5 7t-25.5 5v133 q-37 0 -37 -4q-6 0 -22.5 3t-24.5 3q-16 0 -15 -6t-12 -6v-98h11q2 -12 2 -31v-45h2q4 0 19.5 -10.5t31.5 -10.5v-12q14 -10 23.5 -15t14.5 -8.5t7 -7.5t2 -14h12v-14h9q2 -6 1 -8.5t1 -4.5t8 -7t22 -15q4 -4 11 -4h10t15 2t24.5 5t28 6t22.5 3h12l8 -1q9 -1 9 -11 q55 12 100 12h25q14 0 30 -4q0 18 10 19h11q0 4 2 10t8 12v4q0 2 4 6h25q0 16 20 17h2q-2 2 -2 4q0 20 17.5 29.5t33.5 9.5v39q-4 0 -8 2l-2 2l3 4q3 4 7 4v39q-6 2 -6 12v4q0 4 6 4l6 58h5z" />
<glyph unicode="T" d="M664 983v23q-25 0 -25 8q0 6 4 8h-100v-8h-101v8q-43 -12 -88 -12q0 4 -5 5t-5 5v2q-2 0 -4 1l-2 1q-2 0 -3 -5t-7 -5h-4q-2 0 -2 2q0 4 2 6q4 -2 -7.5 1t-17.5 3q-14 0 -14 -12q-31 -6 -56 -6q-10 0 -47 4t-69 4q-20 0 -28.5 -4t-12.5 -10.5t-5 -11.5t-6 -7h11 q0 -12 1 -22.5t1 -20.5t-1 -18.5t-1 -14.5q2 -8 22 -8h10q12 0 17 -8q16 2 32.5 3t28.5 1q25 -4 45.5 -6t36.5 -2v-2q23 0 28 -7.5t5 -35.5h8v-131q2 2 8 2t6 -8h-14v-119h8q2 -6 3 -10.5t1 -14.5q0 -14 -4 -18h-8v-33h8q2 -6 3 -10t1 -11q0 -4 -4 -16h-8v-27q2 8 10 9 q4 0 4 -15q0 -12 -14 -12q0 -4 6 -19.5t6 -27.5t-1 -23.5t-3 -21.5h-8v-27h14v-301q4 0 11.5 -3t17.5 -13q4 0 21.5 5t33.5 5q8 0 11 -2l6 113h6v12h-6q-6 6 -6 16q0 8 2 11.5t4 7.5h6v24h-6q-8 4 -8 15q0 4 10 12t10 16l-6 6h-6q-2 4 -4 7.5t-2 7.5q0 12 6 12h6v16h-6 l-4 36t-2 38q0 18 2 35.5t4 36.5h6v18h-6q-2 23 -4 61t-2 91q-2 -2 -4 -2l-2 3t-2 7v0q0 2 2 2v2q0 4 6 4v25q-6 0 -6 12q8 29 11 59.5t3 57.5q0 29 -1 51.5t-1 34.5h6v26q59 27 113 27q4 -4 4 -10h26q8 14 31 18q4 0 5 -7t7 -7q4 0 14.5 10t20.5 10h2q0 23 1 40.5t3 27.5 h11z" />
<glyph unicode="U" d="M657 121v20h-8q-2 8 -3 13.5t-1 13.5t1 14t3 15l10 2q0 4 -6 4q-4 0 -4 2l-4 383q-12 0 -12 14q0 10 6 10t10 -2v234h-12q-2 25 -9 38t-14.5 21t-13.5 13.5t-6 11.5q0 4 10 4v22l-1 1t-3 1t-4 -1t-6 -1q-2 2 -2 4t-2 5q6 0 8 3t5 8t8 8t16 3h10v37q-20 0 -28.5 -1 t-10.5 -2t-2 -3h-4q-4 0 -16 3l-13 3q0 -4 -13.5 -10t-8.5 -6l5 -6q5 -5 5 -11q0 -2 -2 -2v-2h10q4 -4 4 -14q0 -6 -1 -9.5t-3 -7.5h-10v-10h10q4 -12 4 -16q0 -6 -4 -15h-10v-41q6 8 10 9q4 0 4 -15q0 -12 -14 -12v-74q4 4 10 4q4 0 4 -16q0 -4 -14 -4v-346q2 6 10 6 q4 0 4 -18q0 -10 -6 -11q-6 0 -8 2v-231q-18 -4 -26.5 -6t-12.5 -4t-9 -7.5t-16 -15.5h-4q0 -8 -2 -11t-2 -5h-121v-6q-2 -2 -6 -2q-10 0 -18.5 4t-5.5 4v-6q-2 -4 -7.5 -5.5t-9.5 -1.5q-10 0 -16 7v6h-29v-4q0 -4 -8 -7l-2 4q-2 5 -6 10t-7.5 8t-3.5 -1q0 2 4.5 6t8.5 4v13 q-2 8 -24.5 9t-24.5 3v4q-4 4 -17 4l-8 6q4 4 14 4v13q0 -2 -4 -3q-10 0 -10 15q0 8 14 8v31h-8v135h8q0 12 -4 12q-2 0 -4 -2q-4 4 -4 17v8q0 6 4 10h8v14h-8q-4 6 -4 17q0 14 4 18h8q-6 14 -10 24.5t-4 22.5q0 10 6 23h8v16h-8q-4 10 -4 21v20v23q0 12 4 22h8v17h-8 q-6 63 -6 192q-8 0 -8 2t4 6l4 4l-2 88q-2 4 -3 7.5t-1 9.5q0 10 4 14l2 21q-4 0 -12 7t-17 9q-14 -4 -28.5 -5t-24.5 -1h-14v-146l-2 -149q0 -4 1 -13.5t1 -29.5h8q4 -2 4 -14q0 -10 -4 -17l-8 -2q0 -4 -4 -8t-4 -10h6q0 -6 1 -10.5t1 -12.5q0 -4 -1 -10t-1 -10l-6 -17 q0 2 4 2q2 2 3 -2t1 -8v-4q0 -4 -8 -4l6 -27l-6 -135q0 -2 -1 -3t-1 -3q0 4 5 -37t5 -129h8q4 -4 4 -16q0 -14 -4 -19h-8v-55h8v-16q4 -6 11 -7.5t14.5 -2.5t12.5 -6t5 -17v-10h8v-17q4 -4 22.5 -6t28.5 -12v-15h11q23 -23 51 -22q29 0 35 -4l1 1q1 1 3 1h2q0 -2 2 -2 q8 0 8 4q12 0 34.5 -1t47.5 -1t48.5 -1t35.5 -1q0 8 31 8v8q14 0 49 10v7q0 8 13 16t25.5 13t14.5 5q0 23 9 34t22 11q4 0 4 -2q0 6 8 12.5t12 6.5h4z" />
<glyph unicode="V" d="M664 719h-9v43h9v6q0 4 -5 4l-4 127q-8 0 -12 1t-2 1q6 6 14 6v99q-16 0 -16 4q0 2 2 4h-16q0 -2 -21 -15q-20 0 -20 11v4q-6 2 -11 2q-12 0 -18 -10v-21h6l7 -14t5 -13q-6 0 -10 -4t-8 -4v-78h-10v-26h10v-25h-10v-16q0 2 4 2h2q4 -2 4 -6l-10 -4q-2 -8 -2 -21 q0 -12 7 -27.5t7 -29.5q0 -10 -2 -17h-53q2 -2 2 -6t-8 -4v-84h6q2 -2 2 -12q0 -8 -2 -12h-6v-31q2 4 4 4l1 -4t1 -14q-12 -31 -15.5 -56.5t-3.5 -29.5q-6 -4 -24.5 -3t-24.5 -10v-178h6q2 -4 2 -8v-8q0 -14 -2 -23h-6q0 -6 -2 -12t-4 -10h-22q-14 0 -21 6h-4q-12 0 -19 -6 q-8 0 -8 6l-49 6q-4 6 -7 23.5t-3 39.5h-4q-4 0 -4 13q0 10 4 10v0q2 0 4 -2v143q-2 4 -14.5 7.5t-22.5 4.5t-12 1v10h-10q-2 29 -3.5 67.5t-1.5 94.5h-2q-2 4 -2 16q0 10 2 14l2 37l-59 2q0 10 -4 9t-4 4q0 2 2 4v4q0 4 6 4v4q0 4 -4 5l-4 1q0 4 2 8v4q0 4 6 4v17h-6v35h6 v80h-6v38h6v91q0 2 -6 2l-12 6h-78v-2q2 0 2 -2q0 -8 -8.5 -10.5t-8.5 -6.5q0 -6 2 -8h11v-18v-17h-11v-35q4 4 7 5q6 0 6 -19l-2 -1t-11 -1v-35h11q0 -2 1 -4t1 -4q0 -12 -13 -14h11v-15v-14h-11q0 -8 11 -8q0 -16 1 -44t1 -69q2 2 4 3l2 1q8 0 18 -10h9q4 0 4 -2v-12 q0 -4 6 -4h4q2 -27 3 -68t1 -100q8 0 8 -17v-8v-20q0 -10 6 -14.5t15.5 -6.5t16.5 -5t11 -11q2 -8 2 -96h11v-39h-11v-29h11v-31h-11h2q2 0 4.5 -1t4.5 -1v-28q0 4 2 6l2 2q2 0 5 -5.5t3 -9.5q4 2 8 2q16 0 29 -18v-37h10q2 -6 2 -39q37 0 37 -10v-16h10q2 -4 2 -19v-22 q2 -4 24.5 -15.5t30.5 -19.5h37v6q6 6 23 6v35h6q0 10 5 32.5t22 22.5h6q16 0 19 11.5t3 21.5l13 51q8 16 28 17q4 0 4 -2h4q-4 4 -4 12q2 10 7 10h2t4 -2l-6 47q0 4 -1.5 11.5t-1.5 13.5q0 8 1.5 15t1.5 17l10 82h10v35q4 -4 6 -4q6 0 18.5 11.5t22.5 11.5l2 77h-8 q-4 12 -4 27q0 10 4 23h8v28q-2 -2 -8 -2q-4 0 -4 12q0 10 12 11v30h10q0 29 16.5 31t24.5 2v2q1 5 9 25z" />
<glyph unicode="W" d="M664 711v16h-11v35h11v14h-11v45h11v21h-11v108h-6q-4 8 -4 17q0 6 4 18h6v21q-29 20 -37 20q2 -2 2 -6q0 -6 -14 -6t-14 10l-17 2v-8q-4 -4 -20 -4v-82h-10v-17h10v-213h-31v-10h-28v-123h6q2 -4 3 -8t1 -12q0 -10 -4 -19h-6v-159h-15v-15h8v-135q-23 -10 -39 -15 t-28 -5q-2 6 -4 14t-2 16q0 10 2 16.5t4 14.5h6v21h-6l-4 8t-2 8t2 8t4 10h6v19h-6l-4 8t-2 6q0 8 6 15h6v14h-6q-2 12 -4 24.5t-2 28.5q0 12 2 25.5t4 21.5h6q0 6 -1 9l-1 4q-2 0 -4 -3q-2 4 -4 7.5t-2 7.5q0 6 2 8t4 6h6q2 4 4 7l2 3q0 2 -10 1t-10 3t2 7h-17q4 -2 4 -4 q0 -4 -12 -5q-6 0 -6 9h-64q0 -8 -1 -15.5t-5 -9.5l-6 -242h6q6 -6 6 -14q0 -10 -6 -12h-6q0 -35 -10 -38t-21 -3q-14 0 -30 8v63h-13q-2 6 -2 23q0 18 2 23h13q0 10 -4 10q-2 0 -3 -2t-6 -4q-2 8 -2 16v12v15q0 8 2 12h13v108h-13q-2 29 -2 70v100h-6v33h-53v185 q-10 8 -10 28q0 23 -4 45h-29q0 29 14.5 32t22.5 3h6v21q-16 0 -16 4q0 2 2 4q-16 0 -21.5 -1t-7.5 -2t-2 -3h-6q-23 0 -23 18q-4 -6 -18 -7t-19 -13v-21h11q2 -6 2 -18t-2 -17h-11v-231h11v-27q23 0 36 -16.5t13 -71.5q4 2 5 3l1 1q8 0 8 -16q0 -10 -8 -10h-2l-4 2v-144 q14 0 14 -6q0 -4 -14 -4v-31q14 0 14 -6t-14 -6v-39q14 0 14 -8q0 -4 -14 -4v-98h8q6 -16 4 -29.5t8 -13.5q2 0 10.5 3t14.5 3q12 0 16 -15.5t4 -31.5q0 2 7 2h2v-2q2 0 2 -4q0 -8 -4 -9q-6 0 -7 2q8 -41 9 -65v-10h6q2 -4 2 -17q0 -10 -2 -12h-6v-25q4 -4 23.5 -7t19.5 -13 q0 -2 -5 -2h41v6q2 6 23 6q-4 2 -5 3l-1 1v4q2 6 8 6q4 0 6 -4l2 156q-4 0 15.5 8t29.5 8h13v7q8 2 13 4t15 2q8 0 13.5 -2t13.5 -4q0 -2 -2 -3v-2q0 -12 5 -28.5t5 -30.5q0 -6 -2 -12h12q2 -4 2 -13v-10q0 -23 -2 -26h-12v-29h12q4 -18 18.5 -26.5t14.5 -20.5h39v6 q2 6 20 6l-2 2v2v4q2 6 4 6q4 0 7 -4v43h-9v27h9q-2 12 -9 12h7l4 4v13q0 4 4 4h8v61q6 0 6 2t1 5t10.5 5.5t33.5 2.5v475q6 0 6 2q0 4 2 7t10.5 6t30.5 3v25h11z" />
<glyph unicode="X" d="M664 4v35q-4 -2 -7 -2q-8 0 -8 14q0 8 8 8q2 0 7 -2v136q-23 14 -37 14q-4 -2 -6 -2h-3q-6 0 -10 10q0 -4 2 -6l2 -2v24h-8q-6 39 -6 113q-12 0 -19.5 2t-9.5 2v4q-18 0 -30 4v90q-39 0 -41 7v2q0 4 -9.5 7t-9.5 7v2q0 4 8 4l7 43q6 14 16 14q4 0 6 -2v9q2 6 23 6 q0 55 4 65.5t4 14.5q16 6 23.5 7t15.5 1h4q-2 6 -2 14t10 8l-4 31q0 16 10 68h8v18l-6 -3l-2 -1q-6 0 -6 10q35 27 51 27l4 188h11v13q-10 0 -28 6t-24 6v8h-30v-8q-8 -4 -23 -4v-60h-6l-6 -53h-37l-8 -4t-8 -10v-41l2 2l6 -4q6 -4 13 -9.5t12 -9.5t5 -2v-8q0 -14 -15 -16 t-23 -13q0 -16 -7 -24h-8q12 -12 13 -35q0 -14 -5 -25h-16v-10q-29 0 -31 -6v-43l2 4q8 0 9 -14q-2 2 -9 2q-4 0 -10 -5t-6 -12q-33 -10 -55.5 -12t-36.5 -2q-23 0 -33 10.5t-10 20.5t6 20h8v13h-8q-2 2 -3 8t-6 13t-15.5 13.5t-30.5 6.5v10h-9q0 2 2.5 15.5t0 28.5 t-13.5 28.5t-36 13.5l-4 37h-10v90l10 4h-2q0 2 -2 2q-4 0 -5 -1l-1 -1v90q-6 2 -16 2q-12 0 -40 -11t-42 -11l-2 -56h-11v-26h11v-25q2 2 4 2q6 0 6 -10q-2 -4 -10 -4v-60h-11h2q2 0 3.5 -2t5.5 -4l2 -16q-2 0 7 -2t21.5 -5t22.5 -8.5t10 -11.5q0 -8 -8 -8h-2l-4 2v-18h8 q6 -35 6 -111q0 4 4 4q10 0 19 -14q4 2 8 2t10 -19.5t10 -62.5q0 4 2 4q8 0 13 -27q6 2 9 3.5t7 1.5q16 0 22.5 -19.5t6.5 -32.5q0 -23 -8.5 -30t-42.5 -7q0 -29 -7 -34l-6 -60h-30v-4q-2 0 -7.5 -2t-9.5 -2l-6 -137q-2 2 -10 2q-10 0 -26.5 -8t-20.5 -8v-185h2q0 2 2 2 q10 0 16 -18h29v6q8 12 26 12q6 0 18.5 -1t16.5 -1v31q-12 0 -12 2q16 31 15 56.5t1 29.5l2 16q-8 0 -8 2q2 2 4 7l2 4q2 0 2 -2v0q0 6 2.5 13t4.5 11h2q4 0 10 5t10 5q2 0 4 -1t4 -1v7q2 0 2 -3v0q4 0 4 9v8q6 0 11 -4l4 51q10 16 19 24.5t20 18.5h20v59q25 20 78 21v2 q4 2 10 2q23 0 28 -21.5t5 -62.5q2 2 8 2q4 0 15.5 -11.5t29.5 -11.5q-2 -4 -2 -14q2 -6 5 -18.5t6.5 -23.5t6.5 -19t5 -6q4 0 10 3t14 3q6 0 12.5 -7.5t6.5 -23.5h4q2 -4 4 -13.5t2 -29.5h6v-43h-6l-6 -4q0 -6 12 -6v-70q23 0 23 -12h51v6q0 4 9.5 5t21.5 1z" />
<glyph unicode="Y" d="M655 844v45q-10 0 -10 4q0 2 3 6t7 4v111h-37v-4q0 -6 -10 -9q-12 0 -12 11l-18 2v-8q-8 -4 -19 -5v-38q0 6 4 6q2 0 4 -7.5t2 -11.5q0 -12 -24 -12v-35h10q4 -8 4 -14q0 -18 -23.5 -36.5t-39.5 -18.5v-3q0 -4 -6.5 -12t-6.5 -18q0 -6 2 -8h11v-78h-11q-2 -4 -3 -14.5 t-11 -10.5q-2 0 -4 2q-14 0 -22.5 -12t-11.5 -32.5t-3 -45.5v-49h-2q-4 0 -4 -10t-16 -11q-10 0 -20.5 2.5t-25.5 6.5v4q-6 0 -20 -2t-43 -2v139h-33v10q-23 0 -26 4v133h-11q-2 0 -2 13l-55 4l-2 20q-4 8 -4 17q0 4 1 7t3 7l2 43q2 2 -3 -1t-9 -3t-4 6v6q8 2 7 11.5t3 9.5 q2 0 6 -4v24q-4 6 -18.5 11.5t-18.5 15.5h-39q0 -10 -14 -9t-14 -10v-2q0 -12 4 -38.5t4 -43.5h8q2 -4 2 -14q0 -8 -2 -10h-8v-53q25 0 34 -23t9 -45h6q2 -6 2 -72h8v-20h8q6 0 16.5 -2t10.5 -17l2 2v2q2 0 6 -6t8 -6v-80h11q14 -25 25 -38t18.5 -22t10.5 -19.5t3 -24.5 q0 -8 -4 -17h10v-18q33 -16 49 -33v-90h10l1 -3q2 -3 2 -11q0 -6 -13 -6v-43l1 2q1 2 5 2q6 0 7 -13h-13v-86h10l1 -3q2 -3 2 -7t-1.5 -8t-1.5 -8h-10v-17h10q0 -16 1.5 -42.5t1.5 -67.5q4 4 8 4t4 -6h65q0 6 11 6q2 0 4 -1t8 -3q0 12 1 19t1 10h6h4v2q-4 2 -10 2v309h6v14 q-10 0 -10 4t4 7.5t6 3.5l6 47q4 4 19.5 19t25.5 15l4 60l11 4q0 10 7 16t29 6q4 33 5.5 61t5.5 47t15 29.5t38 10.5v27h8v77q-8 0 -8 2v2q0 6 4 7q2 0 3 -1l1 -1q0 18 22.5 33.5t28.5 17.5z" />
<glyph unicode="Z" d="M655 18v62h-8q-6 6 -6 29q-39 0 -46 -5.5t-15 -5.5q-4 0 -23.5 7.5t-36.5 7.5h-10v8h-14v-8q-6 -2 -13 -2q-8 0 -13 7t-5 3v-8q-8 -2 -23 -2q-6 0 -14 2v8q-18 0 -26.5 1t-14.5 2l-12 2t-21 3q-8 0 -14 -8q-4 0 -4 6q-27 0 -27 -6q-47 0 -70.5 1t-31.5 4t-7 7t1 8t8 14.5 t18 10.5v0q2 0 4 -2q14 41 15 67v9q12 4 21 6t14 2l6 10h18q0 18 1 27.5t3 13.5l10 51q29 0 35 8v23h-4v29l4 2q0 18 22.5 31.5t33.5 19.5l2 53h4q-2 2 -2 6t4 8.5t10 12.5h23l2 6q4 0 4 10t4 10t8 -6v19q0 8 2 12h10v45h6q-2 4 -2 8q0 2 7.5 10.5t39.5 8.5v57h9q-2 0 -2 2 v2q0 10 16 23h16q0 16 21 16l4 49h8q0 31 10 37h19q0 4 6 11t16 11v87h-8q-2 6 -2 20q0 16 2 25h8v12h-8q-6 12 -34.5 17t-63.5 6t-63.5 0t-34.5 -1v-2q0 -2 -9 -2q-2 0 -2 4q-29 -4 -51 -4h-39h-35v4q-4 0 -17 -2t-24 -2h-16v-8q-10 0 -18.5 -4t-14.5 -4q-10 0 -17 3t-7 13 q-4 0 -5 -6t-10 -6q-4 4 -4 12h-88v-8q-10 0 -13 -5t-11 -5v-31q6 6 10 6q2 0 2 -16q0 -12 -12 -12v-37q29 -10 49 -12.5t37 -6.5v-8q18 0 24 -6t10 -6q8 0 24.5 7t27.5 7q2 0 3 -1l1 -1v8h30v-8h134l-4 4q0 2 3 5l3 3q2 0 7 -3l5 -3q0 -2 -1 -3t-1 -3h29v8h30v-8l51 -4v-10 q2 -2 3 -8q0 -6 -7 -7h-4q-14 2 -20 2h-4l2 -6q-23 -10 -28 -16t-5 -27h-18v-10h-17q-8 0 -12 -12t-5 -27.5t-1 -30.5v-16q-16 -4 -26.5 -8t-20.5 -8q2 -2 2 -4v0q0 -4 -9 -4l-10 -93q-4 0 -17 -4t-16 -4l-4 -88q-25 -6 -41 -6h-8q4 0 -1 -8t-7 -13v-43t-2 -32l-29 -4 q-31 -6 -30 -13v-10v0q0 2 2 2q4 0 9 -7t9 -17q-2 -4 -8 -11v-20v2h2q6 0 6 -17l-4 -4h-10q2 -2 2 -4t4 -4h-37q8 -4 8 -6q0 -8 -14 -8q-6 6 -6 14h-19q0 -18 -4 -18l-2 -49q4 4 6 4v-13q-16 -10 -32.5 -14t-26.5 -6l-2 -55h-10q-2 -8 -2 -23q0 -14 8 -46t8 -56q0 -4 -1 -6 t-1 -7h31q0 -4 11 -5t11 -11h6q10 0 32 -3t54 -7q0 8 10.5 15t18.5 7q10 0 10 -8l39 -4q0 2 -1 4l-1 2q0 6 12 6q4 -4 4 -12h31l-6 6q0 6 10 6q8 -2 8 -12h48q-2 2 -2 6q0 6 8 6q6 -4 6 -12h88q25 10 47.5 14t38.5 4q12 0 22 -2v-4l15 4q4 0 7 1t7 1q2 0 3 -1t5 -1zM541 995 l-9 4h9v-4zM246 977h-10v10h10v-10z" />
<glyph unicode="[" d="M545 -162v72l-1 -1t-5 -1q-18 0 -40 9t-32 9t-14 -4v10q-6 0 -7 -6v-4q-14 -2 -26 -2h-23h-24t-23 2v10q-33 0 -41 2v23h-6q-2 35 -3 86t-1 123h-8q-2 4 -2 14t2 17h8v71q-2 -2 -8 -2l-1 3q-1 3 -1 5v2v7q0 6 10 6v22h-8q-2 31 -2 62v61v64t2 59h8q2 2 2 6h-10 q-2 6 -2 21v8q0 6 2 10h8v25h-8q-2 4 -2 14t10 21h-8q-2 16 -2 32v39v37q0 18 2 35h8l-8 6q-2 10 -2 23v24v27q0 12 2 24h8q0 10 1 17.5t3 15.5h139q10 0 35 9.5t47 9.5q8 0 13 -3v56q-14 0 -15 6l2 2h13v35l-35 18q-10 2 -36 3t-54 1q-29 0 -54.5 1t-38.5 1q-4 0 -22 -3 t-35 -3l-2 6h-4q-18 0 -37.5 -3t-25.5 -3l-7 -137l-8 -4q0 4 7.5 -3t7.5 -24q0 -8 -2.5 -15t-4.5 -13h-8v-15q8 0 15 -6l4 -360q4 -6 4 -25q0 -18 -4 -24l-4 -109h4q4 -4 4 -14t-4 -15l-4 -184h4q4 -8 4 -31v-16t-4 -17l-4 -12h4q4 -12 4 -24v-21v-22t-4 -23h-4h2 q6 0 6 -133q0 4 6 4q2 0 2 -12h51v-8h39q-2 2 -2 4q0 4 12 4t13 -6v-2q10 0 25 -1t30.5 -3.5t28 -3.5t18.5 -1q12 0 35.5 4.5t40.5 4.5l2 8h22q1 18 21 18z" />
<glyph unicode="\" d="M664 -162v182q-12 4 -26.5 8.5t-33.5 8.5q-6 49 -6 137q-29 6 -45 6q-14 0 -14 29h-9q-2 4 -2 24q0 16 2 23h9v63l-2 -2q-8 0 -9 11q0 2 2 2h-30q-18 0 -21 6v94q-27 6 -40 10t-19 13.5t-6 25.5v45q-6 0 -6 4l-54 4v142q-2 -2 -4 -2v0q-6 0 -6 14q-29 0 -41 1t-16 10.5 t-3 28.5t1 56q-16 0 -21.5 2t-9.5 4v7q-2 0 -2 -2h-4t-7 6t-1 6l-7 -6q-2 8 -2 37q-4 -4 -4 -5q-2 0 -3 4.5t-1 6.5q0 6 4 6t4 10q0 20 -6 40t-6 30q0 4 2 9t4 9h-8q-6 0 -6 8h-4q-6 0 -6 -8h-43q4 2 4 6t-6 4q-4 0 -4 5v2q0 6 6 6v53l-2 -2q-4 0 -5 4t-1 6t2 2q-2 4 -2 6 q0 6 8 6v21h-2v2q-2 0 -3 -5t-10 -5h-2q2 0 -3 3t-12 6t-13.5 4t-3.5 -1q-6 6 -37 6v-6q0 -4 -11 -4v-45h5q8 0 8 -19q0 -4 -3 -6l-3 -2q-4 0 -7 4v-88h11v-20q2 -6 9 -7t14 -3t12.5 -7.5t5.5 -19.5v-12h8v-111q16 0 31 -8h4q0 2 2 2q6 0 6 -4v-12q2 -2 4 -2h4 q14 -43 14 -72q0 6 7 6q2 0 2 -12h30v-9h2q14 0 16.5 -25.5t2.5 -111.5q23 -16 35 -23t17 -16.5t6 -22.5t1 -40q35 0 48.5 -20.5t13.5 -69.5h12v-21q27 0 34 -2t7 -12v-14h6l2 -103q10 0 13 -9t10 -9q10 -2 17 -3t11 -1q0 -2 -1 -3t-1 -3q0 -14 8.5 -34t8.5 -30l4 -2 q2 -6 2 -45l10 -2q0 -4 6 -8t6 -15l2 2q4 0 6 -6t7 -6v2h2q4 -8 4 -26h4q2 -6 4 -32t2 -69q2 2 4 2q4 0 8 -9t8 -11h70q1 18 21 18z" />
<glyph unicode="]" d="M541 -129h-4q-4 4 -5 18q0 12 5 15l4 84q-6 10 -7.5 20t-1.5 19v10h-6v35h-12q-2 4 -2 8v10q0 14 2 21h2q4 0 5 8t11 8v74q-2 0 -2 -2h-2q-4 0 -7 6l-3 6q-2 0 -4 -2v125h18l-4 20q-12 0 -26 25h2q8 0 8 2v8q0 6 2 6q8 0 12 -2v37h6v94q-4 -4 -6 -4t-3 4l-1 4q0 4 4 4 q-2 2 -2 7q0 4 8 4v90q-2 0 -3 -1t-3 -1l-2 2v6q0 4 2 4q-2 2 -2 4t8 2v15q-6 4 -6 14q0 8 6 8v27q-2 -4 -6 -4h-2v6q0 4 2 6l-2 2q0 6 8 6v70h-6v57h6v82h-6v127q-16 0 -16 4t2 6q-59 0 -95 1t-44 5h-4q-6 0 -9.5 -3t-11.5 -3v6q-23 0 -31 -6v6q-29 -6 -131 -6v-2 q0 -6 -6 -8l4 -16v-17v-18l-4 -23q10 0 19.5 -3t9.5 -15q2 0 4 1t4 1q8 0 15.5 -4t7.5 -10l-8 -3q-7 -2 -7 -6q0 -2 12.5 -5t29 -5t30.5 -3t20 -1q37 0 64 4t31 4v-37l24 -20q-2 0 -6 -1t-8 -1v-142q2 6 6 7q8 0 8 -15q0 -14 -14 -14v-29q2 6 6 6q8 0 8 -14q0 -12 -14 -12 v-123q0 2 4 2q10 0 10 -10q0 -14 -10 -15q-4 0 -4 4v-75h10q2 -4 2 -15q0 -10 -2 -12h-10v-37h10q2 -10 2 -20v-21v-20t-2 -21h-10v-22h10q2 -4 2 -15q0 -10 -2 -14h-10v-18h10q2 -16 3 -40t1 -57h2q4 -20 4 -34q0 -10 -1 -19.5t-3 -19.5l-2 -64l2 4q2 -2 3 -10l1 -8 q0 2 -4 -14.5t-6 -18.5h-10q4 0 8 -3t4 -11v-6q0 -6 -15.5 -10.5t-34.5 -7.5t-34.5 -7t-15.5 -12q-29 0 -29 14h-110q4 -4 4 -6t-13 -2v-2q0 -10 5.5 -28.5t5.5 -35.5q0 -12 -2 -16q33 0 34 -8q12 0 38 4t42 4v-2q0 -4 4 -6t4 -8h56q-8 2 -8 6q0 2 5 3t7 1q4 0 4 -10h78 l-4 4q0 2 5 4t7 2l1 -1t3 -1v-8h31v8q8 0 17 4t13 4v2q0 8 5.5 16.5t5.5 18.5q0 6 -2 6z" />
<glyph unicode="^" d="M596 745v91q-2 0 -3 1t-5 1q-2 0 -6 -1t-9 -1q-16 0 -16 8t-14 43q-8 12 -11.5 24.5t-3.5 20.5q0 6 4 14q-2 0 -3 -1l-1 -1q-4 0 -6 4l-2 4q0 2 4 2q-4 2 -26 2q-23 0 -25 7v43q-16 0 -16 6q0 2 2 2q-6 8 -16.5 6t-20.5 -2q-8 0 -15.5 7t-7.5 32h-6v18h-84l-4 -43 q0 -2 -1 -4t-1 -6h-4q-14 0 -28.5 -4t-20.5 -4l-4 -60l-45 -2q0 -6 -15 -6v-37h11q0 -6 1 -9t1 -7t-1 -7t-1 -7h-11v-37l-20 -2q-10 0 -19.5 -6.5t-15.5 -6.5h-4v-30h4q4 0 4 -9v-6h-8v-45q29 0 29 -16h2q6 0 11 5t13 5q4 0 4 -2v8h41q0 20 4 21q4 0 9 -4q0 10 -6.5 11 t-6.5 17q0 14 2 23h11q-8 6 -9 8q0 8 11.5 13t25 11.5t24.5 14.5t13 18q16 23 45 23t52.5 -15.5t33.5 -37.5q20 0 37 -4v-2q0 -10 6 -31t6 -37q0 -4 -1 -6t-1 -6h13v-17h28v-8h49v8h2q6 0 7.5 6.5t5.5 6.5q4 -1 8 -5z" />
<glyph unicode="_" d="M651 -145q-14 12 -14 63q-2 -2 -4 -2t-3 4t-1 8q0 2 2 4q-33 0 -54.5 3.5t-31.5 3.5q-2 -2 -9.5 -6.5t-17.5 -4.5q-2 0 -2 2t2 4h2h-6q-4 0 -14 3h-2q-8 0 -9 -5h-4q-4 0 -10 -2l-6 -2v6q-131 0 -201.5 -1t-83.5 -1q2 -2 2 -4q0 -8 -14 -10q-12 0 -12 6q0 4 4 8h-74v-10 q-8 -4 -16 -4v-80q16 0 26 -18q20 4 35 9t31 5q6 0 6 -14q27 12 59 12q6 0 21.5 -2t34 -4t36 -4t27.5 -2h15q0 2 -1.5 3t-1.5 3v2q2 0 3 2h6q10 0 10 -10q0 2 7 3t7 5q66 -4 114 -6t79 -2q25 14 44 24.5t17 10.5h2z" />
<glyph unicode="`" d="M567 754v41q-29 2 -47 3t-18 29h-2q-2 2 -2 4q0 4 -1 6.5t-7.5 4.5t-22.5 2q-14 0 -17.5 8t-6.5 19.5t-12 19.5t-36 8h-2q-2 10 -12 14q0 2 12 2v23q-27 0 -26 10q0 4 2 6l-50 7q0 2 -6 2q-4 0 -4 8v2l2 1t4 1t2 -2h2v33q-10 0 -20 9t-16 9q-14 0 -28.5 -3t-27.5 -3 q-8 0 -10 2v2q-2 0 -3 1t-3 1q-10 0 -22.5 -5t-22.5 -5h-10v-41q16 -10 29.5 -16.5t23.5 -10.5v-37q14 0 14 -10l8 8q-2 0 2.5 -2t10.5 -4t11 -4l5 -2v-25v-6h8q4 -4 4 -14h2q6 0 15.5 -11.5t29.5 -11.5h3v-14h10v-25q63 0 63 -22v-14q0 -14 11 -15h49v-8h28v8h4 q8 0 15.5 -4t11.5 -4v8h41q0 20 6 21q6 0 6 -4z" />
<glyph unicode="a" d="M664 10v88q-41 12 -60 15v141h-10q-2 4 -3 8t-1 14t4 19h10v162h-10v47q0 25 -1 45t-5 33.5t-15 17.5h-20q-12 6 -10 10t1 9.5t-15.5 12.5t-57.5 17q-4 4 -4 17h-4q2 0 -1 5t-6 11t-6.5 9t-3.5 1h5h-91l-4 -1t-8 -1l2 2l-31 4q-10 0 -12 -6q-27 0 -49 2t-33 4v4 q-6 -4 -22.5 -3t-16.5 -7l-4 -41h-61q-10 -6 -29.5 -5t-30.5 -9v-76l7 6v-2q0 -4 7 -8t7 -20h90v8q0 6 7 17l7 11q4 -2 7 -2h4q4 0 4 2v4q10 0 26.5 7.5t24.5 7.5q14 0 29.5 -7.5t31.5 -7.5q6 12 11 13v-13h65v-4q2 2 6 2q2 0 17.5 -10t15.5 -16q0 -2 -2 -2v0 q12 -12 34.5 -21.5t22.5 -36.5v-12t-4 -18q-59 -6 -272 -6q0 -10 -21 -11l-4 -32q-23 -8 -37 -11.5t-24 -5.5v-37q-25 -2 -35 -6t-13 -8t-4 -9t-8 -9h11q2 -4 2 -11v-10q0 -14 -2 -22h-11v-33h11v-111h-11v-22q41 -20 60 -21v-22q23 -16 48.5 -30.5t25.5 -47.5h141 q0 18 29 18q0 4 -1.5 5t-1.5 3q0 4 8.5 11.5t26.5 7.5v2q20 12 29 12v4q0 10 12 21q2 0 2 -2v0q4 0 6.5 8t6.5 8q6 0 11 -7t13 -16.5t20.5 -18.5t32.5 -11q14 -8 37 -35h76v8h21zM479 205q-18 0 -22 -4v-6h-31v-25q-18 0 -18 -14h-7q-10 0 -23 -10.5t-13 -32.5 q-33 -2 -56 -2q-20 0 -35 -5v5q-10 0 -21 1t-22 1q-27 0 -45 -7q0 6 -14 7v61q14 0 14 8q0 6 -14 6v31q2 -2 8 -2t6 12q0 16 -6 17q-4 0 -8 -4v12h10q4 16 4 35q2 0 5.5 -1t5.5 -1q20 0 49 18q-2 0 -2 4q0 6 7 7t7 6h4q10 0 31.5 2t54.5 6q0 -8 8 -8q10 0 11 -11q8 14 24 15 q18 0 23 4q10 -8 53 -8q0 -16 4 -17h8v-100z" />
<glyph unicode="b" d="M664 127v14q0 -2 -5 -2q-8 0 -8 15q0 10 13 10v8h-7q-4 10 -4 16v13q0 23 4 30h7q0 2 -5 2h-2q-6 37 -6 103q-12 0 -12 2q0 10 10 10v-2h2v186q-18 0 -18 13v4h-41v37q-2 -2 -4 -2v0q-4 0 -9.5 7t-7.5 7q-10 0 -10 -4v-2l-2 -2q-12 0 -18 7t-9.5 16.5t-5.5 17.5t-8 8 q-14 10 -31.5 15t-17.5 24v10q-4 -4 -10 -4h-10q-18 0 -53.5 10.5t-49.5 10.5q-31 0 -37 -11.5t-7 -25t-10 -24.5t-46 -11q0 -16 -3 -23.5t-7.5 -9.5t-9.5 -1t-9 1q-12 0 -23.5 4t-21.5 4v80h-6q0 2 -1 3t-1 5q0 6 1 9.5t1 5.5h6v24h-6q0 2 -1 6t-1 13q0 6 1 10t1 8h6v55h-6 q-2 16 -8 30.5t-6 10.5l1 2t3 2h8v134h-2q0 2 -4 2t-4 -7q0 -4 -7 -4h-4q-10 0 -10 9q-16 0 -21.5 -11.5t-13.5 -11.5q-4 0 -4 10t-4 11q-2 0 -3 -6.5t-13 -6.5v-26h-11v-109q10 0 11 -2v-6q0 -4 -11 -4v-242h11q0 -8 1 -14t1 -17q0 -10 -1 -18t-1 -14h-11q-4 -20 -4 -29 q0 -16 7.5 -49t7.5 -51v-21h-11v-106h11q0 -14 1 -24.5t1 -25.5q0 -12 -1 -22t-1 -18h-11v-125q10 -20 11 -48v-12q4 -4 18 -4q16 0 21 -12h6q10 0 23.5 4t21.5 4v8h20q0 33 1 52.5t1 23.5l2 -2q4 0 5.5 7t5.5 7q8 0 8 -6q0 -2 -2 -4l-2 -2q16 0 28.5 -7t20.5 -16.5 t12 -17.5l4 -8q4 2 7.5 3t11.5 7q12 -6 11 -13t0 -13.5t14.5 -10.5t52.5 -4h30q61 -2 97 -12q0 6 4 9t4 7h41q18 27 41 27l4 2h2q4 0 4 8t2 8q4 0 4 -2h4q0 10 1 16.5t1 10.5h2q18 0 31.5 17.5t19.5 31.5h7zM561 193h-6q-2 -6 -4 -16.5t-2 -22.5h-8t-19 2q-12 0 -20 -7.5 t-13.5 -15.5t-9.5 -15t-10 -7h-141l2 2q0 4 -4 6t-7 2q-4 0 -4 -6t-6 -6l-1 1t-3 1v2q0 6 -7 9t-7 11v2q2 0 2 2q-35 29 -53 31q0 20 -8.5 26.5t-19.5 7.5t-24 1q-10 0 -16 10v63h12q2 8 2 21q0 12 -2 20h-12v123h12v9q0 8 3 15t11.5 12t28.5 5q10 25 15.5 40.5t21.5 15.5 q8 -4 19 -5q16 0 16 31q20 0 20 6l3 4q23 0 58.5 7.5t51.5 7.5v-2q16 0 29.5 -6.5t30.5 -16.5v-20l49 -4q0 -29 4 -29l4 -29h-4q-6 -4 -6 -12q0 -12 6 -14h4q0 -51 2 -89t4 -63h6v-35h-12q-2 -4 -2 -6t14 -2v-16h-6q-2 -4 -4 -9.5t-2 -11.5t2 -12t4 -10h4l1 -1t1 -7z" />
<glyph unicode="c" d="M664 156v14h-11q-2 2 -2 12q0 8 2 13h11v41q-14 0 -15 6v4h-90q0 -16 -4 -17l-2 -34q6 0 6 -7v-4q-2 0 -3 1t-3 1q0 -18 -21.5 -33.5t-49 -27.5t-52 -18.5t-33.5 -6.5q-16 0 -54 6.5t-112 6.5v53h11v20h-11v15q-16 4 -28.5 6t-20.5 4v25h-10q-4 12 -4 14q0 10 4 14h10v15 h-10q-2 10 -3 21t-1 24q0 10 1 21t3 22l10 4q-2 4 -8 4h-2q-4 12 -4 20q0 10 1 15.5t3 9.5h10v55q4 0 18.5 9.5t26.5 9.5h4v22h11l4 55l7 3q7 4 15 7t16 5l7 2q33 0 50 -2t26.5 -5t13.5 -5.5t10 -2.5q16 0 47 8.5t45 8.5q23 0 36 -10.5t21.5 -23.5t10.5 -28.5t2 -27.5v-6 q2 2 4 2t2 -13q6 4 22.5 7.5t47.5 3.5v6h20l4 51h11v14h-11q-4 14 -8 20.5t-8 7.5t-10 2t-15 5h-8q-6 0 -6 4v21h-8v16l-51 6l-2 29q-6 0 -17.5 11t-21.5 11t-11 -8h-8q-10 0 -29.5 2t-35.5 2q-12 0 -13.5 -2t-17.5 -2v2q-23 0 -36 1t-23.5 3t-21.5 3t-28 1q-4 -6 -16 -6 t-12 -4l-4 -41h-47q0 -8 -13 -8l-4 -41q-14 0 -57 -25v-16h8q6 -6 6 -20q0 -18 -6 -25h-2q-4 0 -10 -7t-11 -7h-8v-6q-25 -10 -26 -11l-4 -86h-7v-16h7q0 -12 2 -56t2 -120l2 4q4 0 4 -14q8 4 14 4q12 0 20.5 -14.5t8.5 -30.5v-41h8v-17q18 -4 30.5 -9t22.5 -7v-2q0 -6 6 -6 t7 -11q2 0 3 1t3 1q12 0 24.5 -5t28.5 -11v-37l2 4h2q8 0 11 -11t14 -11q8 0 20 6t16 6q8 0 17 -8l6 4t8 4q4 0 4 -8l88 -4v2q0 8 15 8v-10h53q-6 0 -6 4q0 14 16.5 15t26.5 7q0 16 6 29q2 0 2 -2h2q8 0 18.5 5t14.5 5q8 0 8 -4l6 55h8v13q0 18 6.5 24.5t16.5 6.5h10 q15 0 19 6z" />
<glyph unicode="d" d="M655 -8l-4 297q-2 6 -2 30q0 18 2 29l4 27h-4q-2 4 -2 14q0 6 2 8l4 43h-4q-2 20 -2 39v41v43t2 41l4 21h-4q-2 20 -2 82v165q-20 0 -20 21q4 0 5 10t11 10l4 19h-12v43h-6q-2 2 -2 16h-80v-270h-14v-31h10q2 -12 2 -24v-27v-25q0 -12 -2 -24l-49 4q0 8 -8.5 10t-12.5 6 v6q0 10 -7 9.5t-7 5.5q0 2 4 4q-31 0 -46.5 2t-15.5 18q0 10 3 15h6q0 6 -6.5 8t-6.5 8l-96 4q2 -4 2 -8t-14 -6q0 2 -1 4t-1 10h-39q0 -23 -5 -23.5t-5 -4.5v-13q0 -6 -10.5 -7t-21.5 -5t-21.5 -14.5t-10.5 -34.5h-49v-60h-59v-131q2 4 4 7l2 2q2 0 2 -15q-4 -10 -8 -10 v-135h8q4 -4 4 -15l-4 -12h-8v-113h8v-20q14 0 26.5 -17.5t24.5 -17.5v-14q2 -6 12.5 -10t21.5 -7.5t20 -6.5t14 -9q2 -8 20 -10t29 -17h88v9h45v-9q4 0 4 9h31q0 16 24 16l4 27q43 0 73 -7.5t47.5 -16.5t24.5 -16t9 -7q10 0 26.5 6t28.5 6q2 0 3 -1t3 -1zM637 922h-6v10h6 v-10zM555 291l-10 -96q-2 2 -10 2q-12 0 -22.5 -6.5t-18 -12.5t-10.5 -11t-3 -3q0 -4 1 -6l1 -2q-10 -4 -18 -8.5t-12 -6.5v-2h-17l-6 -26q-6 0 -6 -4q0 -2 -1 -5.5t-6 -6.5t-20 -3q-12 0 -29.5 1t-34 2t-29.5 2t-15 1q-14 0 -24.5 -1t-20.5 -3q0 25 -4 37t-10.5 15.5 t-12.5 2.5t-8 -1q-10 0 -16.5 -5.5t-16.5 -5.5v27h-6v8h6q6 45 6 90q0 43 -6 90h-6q0 63 -14 86h2q6 0 8 6.5t6 6.5q2 0 4 -2v61q8 0 23.5 2t27.5 2h2q14 16 15 35q61 20 96 24v-4q10 -2 29.5 -4t42.5 -2v-24h10q0 -12 9 -18.5t20 -6.5h2q16 0 20 -16.5t10 -18.5v-12 q0 -8 11 -8h6q-2 0 14 -1t21 -9v-35h10q0 -45 1 -69.5t3 -35.5h6v-20z" />
<glyph unicode="e" d="M664 106v68h-11v21q-18 0 -26 -9v9q-10 -6 -26.5 -7.5t-33.5 -1.5q0 -12 -8 -20t-19.5 -13.5t-22.5 -8.5t-17 -3v-30q-37 -14 -60 -15h-2q-4 0 -10 -2t-8 -2t-2 4l2 2q-18 0 -28 -1l-11 -1h-6h-23t-51.5 3t-52 11.5t-23.5 24.5q-2 -4 -6 -4h-2q-6 0 -11 7t-9 7 q-6 0 -11 -4v123q8 0 12.5 6t14.5 6q2 -2 2 -6v-6q170 0 205 6v-6q55 0 67 6h-2l19 6q10 0 10 -12q0 6 59 6v-6q0 -2 2 -2q4 0 6.5 6t4.5 6l4 -4q14 41 14 66v12h8q-4 2 -4 6q0 2 11.5 15.5t27.5 13.5q2 0 6 -2q-2 4 -2 10v4q2 0 4 1t4 1l5 37q-2 -4 -4 -5l-1 -1q-6 0 -7 4 t-1 6q0 4 4 8.5t9 4.5v24q-2 -2 -5 -2v0q-2 0 -5 4l-3 4v0q0 2 2 2v2q0 8 11 9v34q-10 0 -11 2l-49 5v40q-29 14 -47 17.5t-18 32.5l-2 -2q-4 0 -6.5 4t-2.5 6l2 2h-43q0 14 -16 14v41h-133q4 -4 4 -8q0 -2 -12 -6l-4 4t-2 10l-66 -6v-6h-10q-2 0 -2 -4v-4l-16 -3 q-17 -3 -17 -5q0 -6 2 -9h-2q-12 0 -31.5 -9t-31.5 -9h-9q2 -2 4 -2h2q0 -8 -12 -8q0 -18 -6 -25h-2q0 2 -2 2q-10 0 -23.5 -7t-19.5 -7v-17v0q0 2 2 2q10 0 15 -12t5 -16q0 -14 -6 -17h-6q0 -10 -8 -22t-10 -19l-2 -53h-11v-37h11q2 -2 2 -8q0 -10 -2 -14h-11v-27h11 q2 -10 2 -20v-21v-18t-2 -19h-11v-10h11q2 -2 2 -10v-4q-4 -14 -13 -15h11q2 -47 2 -84v-61q0 2 9 -2t21.5 -12.5t23.5 -17.5t13 -17q31 0 38 -5t7 -14v-16q33 -25 45 -25v9h107v-9h119v9h73q10 4 20.5 21.5t31.5 17.5h6q12 0 14 8t4 19t7 19.5t22 8.5h8q1 6 21 26zM553 420 q-23 0 -23 -23q-6 6 -8 6q-6 0 -12 -6t-10 -6l-8 4q-9 4 -19 4q-12 0 -26.5 -2t-57.5 -2v2q0 6 -2 6h-4q-14 0 -31.5 -4t-62.5 -4q-2 0 -10.5 1t-24.5 1q0 -2 -21 -2q-2 2 -9 0t-16 0t-16.5 11.5t-7.5 33.5q0 25 -10 35h8q4 4 7.5 21.5t7.5 17.5h4q0 29 14 46.5t27 17.5 q6 0 12 -3v-4l160 -6q4 10 24 10v-4q4 -2 12.5 -4t20.5 -2l-2 -4q0 -2 10 -2q0 -12 7.5 -22.5t17.5 -16.5t20.5 -11t14.5 -9v-2q0 -18 7 -43t7 -35z" />
<glyph unicode="f" d="M655 614v23l-4 -4q-2 0 -3 5t-1 7q0 4 2 8t6 4v35l-4 -4q-2 0 -3 2l-1 2q0 2 2 4q-4 -2 -12 -2q-4 0 -11.5 7.5t-9.5 7.5q-10 0 -10 -7q0 -6 -10 -6v13h-16q-12 0 -32 -5.5t-24 -5.5q-33 0 -62.5 7.5t-49.5 11.5l-2 31q-10 0 -11 8q8 8 11.5 20t11.5 17h-10v51h10v39 q-2 -4 -8 -4q-2 0 -2 6v2q0 16 18 16h43v17q0 8 2 10h6q0 2 -6 5t-6 7q0 6 14.5 12.5t18.5 6.5q16 0 25.5 -12.5t13.5 -28t5 -29.5t1 -19q0 -8 -1 -12t-1 -8h10q8 0 28.5 -2t49.5 -6q0 16 22 16v23h-6q-4 8 -4 20q0 8 4 17h6v26h-6v2q-23 0 -39 9.5t-16 19.5q2 12 2 18v9 q-12 0 -12 2t2 4l-54 10h-8q-16 0 -37.5 -6t-37.5 -6q-8 0 -13 2v-37q0 2 2 4q6 0 6 -10q0 -4 -10 -7.5t-22.5 -6.5t-22.5 -4t-12 -1l-1 -8t-11 -8v0q0 2 -3 2q-2 -2 -2 -6t9 -4q8 0 8 -13q-45 -10 -60.5 -19t-11.5 -9l-6 -174h-193q-8 -8 -16 -10.5t-14 -2.5h-8v-88 q4 -10 22 -10h29q53 -8 96 -12t74 -8v-11h10q2 -16 3 -41.5t1 -60.5h6q0 -25 -6 -25h6v-172h10v-16v-21h-10v-49q2 2 6 2t4 -6t5 -6h2q10 -2 10 -14q0 -6 -10 -17l-4 -28q2 6 4 6q4 -2 6 -9.5t2 -11.5q0 2 -2 -3t-5 -14t-5.5 -17.5t-2.5 -10.5h-10v-33q37 -20 56 -20 q12 0 33.5 6t23.5 6v94q-2 -2 -8 -2q-4 0 -4 9h2v6q0 4 10 4q-8 14 -10 26.5t-2 22.5q0 16 2 25h-6q-2 2 -3 2v2q0 10 9 18h-2q-10 0 -11 12q8 16 11.5 22.5t9.5 6.5l2 90h-10v129h10l2 88q-4 0 5 8.5t20.5 16.5t21.5 13t10 -1q23 0 54 -6v-10h12q18 0 39.5 7t38.5 7h8 q-1 12 22 12z" />
<glyph unicode="g" d="M664 -23v41q-10 4 -11 13q6 8 11 8v16l-5 -4q-4 0 -6 5t-2 7t2 3v2q0 8 11 8v123h-5q-2 6 -2 32q0 23 2 29h5v39h-5q-2 10 -2 18v23v20t2 21h5v12h-5q-2 8 -4 28.5t-2 59.5h-6v70h6v98q-2 0 -3 -1l-1 -1q-2 0 -3 1l-1 1v4q0 6 2 6v5l1 1t5 1v16q-6 0 -17 4t-22.5 10 t-19.5 10.5t-6 4.5q-4 0 -13.5 -7.5t-15.5 -7.5v0q0 2 -2 2l-4 -32q-18 -6 -35 -7q-10 0 -24.5 3.5t-14.5 19.5h-8v16q-16 0 -16 9q0 2 2 2h-11q-2 0 -4 -2t-5 -4.5t-13 -4.5q0 10 -4 11q-16 -2 -28.5 -3t-22.5 -1h-15q-35 -4 -61 -5q-25 0 -45 -2l-4 -32q-10 0 -16.5 -9.5 t-18.5 -9.5t-14 12q-6 0 -20.5 -5t-18.5 -5v-10h-21v-35h-53q0 -2 -8 -4t-13 -10v-21q4 4 5 4h2q6 0 6 -16q0 -12 -6 -12h-7v-70h11q2 -6 2 -16q0 -8 -2 -15h-11v-20h11q2 -4 2 -14q0 -12 -2 -17h-11v-123h11q2 -4 2 -16q0 -6 16 -10t23 -11v-16h8q6 0 6 -16q0 -4 15.5 -8.5 t23.5 -8.5v0q0 2 2 2q6 0 6 -16q63 -29 90 -29h4q6 0 15.5 5.5t13.5 5.5q2 -4 3 -8l1 -3q14 0 45 2t55 2q27 0 46.5 -7t29.5 -7q12 0 25.5 6t21.5 6q4 0 6 -1t7 -1v-16h6v-27h10q2 -10 3 -19t1 -20q0 -10 -1 -20t-3 -21h-39l-9 -5t-11 -7v-26q-18 0 -28 -2l-11 -1 q-66 0 -107 -2t-63.5 0t-30.5 8.5t-8 22.5h-2q-10 0 -14 6l-5 6l-53 5v32q-29 4 -51.5 5t-38.5 6v-5q0 -6 -8 -6v-32h8q10 0 26.5 -10.5t16.5 -22.5q-2 -8 -2 -15q0 -10 16.5 -15t26.5 -5q0 8 6 8l1 -3q1 -3 1 -11h12v-45h9q4 -6 9 -21.5t42 -21.5v8q10 2 20 3t23 1 q10 0 20 -1t21 -3v-8q59 0 73 -8h5q39 0 53 8t22.5 17t20.5 17.5t49 8.5q0 6 11 13t18 7q6 0 6 -12q8 16 18 16l6 4q0 10 15 23h20q1 22 17 22zM553 330h-6l-6 -6v-2q0 -4 2 -11h-8q-4 0 -13 4h-20q-6 -6 -8 -10q-8 -23 -12 -34l-3 -11q-57 0 -107 -3t-93 -11q-10 8 -24.5 7 t-21.5 7v33q-2 8 -8 10h-28q-12 0 -17.5 16.5t-7.5 37t-1 40t1 25.5v29q-2 0 -3 -1t-3 -1v2l6 2v34v2v21q0 25 10.5 28t14.5 7h34q0 4 7.5 17t9.5 18h4q12 0 33.5 12t33.5 12q10 0 19 -4v-10q33 0 46 -3t18.5 -8.5t7.5 -10.5t14 -11q31 -12 41 -22.5t15 -18.5t9.5 -13 t20.5 -5q6 -18 33 -29q0 -61 10 -74h-10q-2 -2 -2 -12v-8t2 -8h10v-37z" />
<glyph unicode="h" d="M664 102v86l-5 -4q-8 0 -8 9q0 2 2 4v2q0 6 11 6v12q-4 4 -7.5 6t-3.5 6q6 10 11 11v63h-11v78q-2 -2 -4 -2v0q-6 0 -6 12t6 12v0q2 0 4 -2v140l-49 4v28q-27 0 -26 15v0q0 2 4 6q-33 0 -52.5 6t-19.5 33q0 10 4 16l16 4v0q0 2 -2 2l-2 -1t-4 -1v25l8 10q-20 -12 -45 -12 q-29 0 -50 6t-38 6v4h-30v-4h-37q-2 -4 -10.5 -9t-17.5 -11t-16 -13.5t-7 -15.5l-21 -6q-12 -16 -19.5 -27.5t-29.5 -11.5q-20 0 -37.5 10t-17.5 19q0 8 2 10q6 0 8 8t6 8l2 330q-10 0 -17.5 2t-13.5 4q0 2 1 3l1 1q0 4 -8 4t-6 6q-6 -6 -55 -6v-2q2 0 2 -2q0 -10 -15 -10 v-27q4 2 5 3l2 1q6 0 6 -14q0 -10 -13 -10v-25h11q2 -6 2 -20v-8t-2 -9h-11v-57h11q2 -2 2 -16t-2 -15h-11v-18h11q2 -10 2 -23v-24v-25q0 -10 -2 -22h-11v-107h11q2 -6 2 -24q0 -16 -2 -25h-11v-14h11q2 -12 2 -31v-47h4q4 -14 10 -30.5t6 -33.5q0 -10 -2 -16q12 0 12 -10 q-12 -4 -30 -4v-328q2 -4 18.5 -8t20.5 -17q10 0 24.5 5.5t20.5 5.5t8 -1l6 -3q-2 4 -2 10v4q2 6 4 6q4 0 5 -1t3 -1v135q-2 0 -3 -1t-5 -1t-4 8q0 2 2 4v5q0 4 10 4v12h-8q-2 6 -2 24q0 16 2 23h8v27h-8q-2 8 -2 79q-2 0 -6 1.5t-4 5.5t2 4q4 0 8 4q-2 8 -2 10v4v-2 q0 4 4 4h8l4 96q8 0 9 9q45 23 59 22q4 0 10 -1t10 -1v6q2 0 2 -2v0q10 0 12 9l1 10q4 0 8 -2v24h8q0 20 10.5 30.5t23.5 15.5t25.5 6t18.5 1q8 4 20 5q8 0 33 -5.5t41 -5.5h6l-1 -2t-1 -6q0 -12 7.5 -27.5t7.5 -27.5q0 -4 -1 -5t-1 -3h6v-21h10q12 0 18.5 -7t9.5 -17.5 t4 -19.5t1 -15v-6q10 0 10 -4v-363h6q8 0 8 -8h-14v-27l4 2h2q8 0 8 -10v0q0 2 2 2q4 0 13.5 -4t19.5 -4q4 0 16.5 9t26.5 9q4 0 8 -4v94h11z" />
<glyph unicode="i" d="M477 836q-8 0 -8 6v2q0 4 4 4v-2h4l-4 12v12t-1 24.5t-8 29t-24 26.5q-12 -4 -24 -4h-21h-18v4q-8 -4 -58 -4v-2q0 -8 -14 -8v-90q2 4 8 4t6 -14q0 -10 -14 -11v-30h2q0 2 2 2q8 0 19 -19q4 2 14 2t33.5 -6t36.5 -6q16 0 14 7t8 7q6 0 12 -4v8q2 0 3.5 -1t3.5 -1 q4 0 5 6.5t5 6.5t6 -2v2q0 6 5 15t5 17q0 2 -1 3.5t-1 3.5zM541 6v33h-9q-4 4 -4 16l-4 6q0 6 -8 7.5t-8 5.5t10 10q-2 10 -2 12v2v-2q0 4 6 4q2 0 3 -1t3 -1q0 14 4 27h9l-4 123q-8 0 -9 12q0 12 9 12v0q2 0 4 -2v211h-9q-4 4 -4 13q0 6 4 10h9v96q-12 0 -13 4h13 q0 10 -6.5 37t-6.5 37v14l-1 -1t-3 -1q-4 0 -6 2l-2 2q0 2 2 4h-26q2 -2 2 -4l-4 -1q-5 -1 -9 -1q-12 0 -12 2v4h-37v-6q-8 0 -15 -1t-14 -1q-8 0 -15 1t-11 1v6q-16 -4 -23.5 -6t-21.5 -2q-10 0 -20.5 1t-20.5 1v6h-74l-33 -32v-62l4 4q12 0 15 -18l88 -15q0 8 17.5 13.5 t21.5 5.5q18 0 28 -19l52 -2q12 -43 12 -69h2q4 -16 6 -63.5t2 -129.5q8 0 8 -4v-2q0 -6 -8 -6v-129h8v-29h-8q-6 -6 -6 -22q0 -10 7 -37t7 -47v-12h6q6 -4 7 -17v0q0 2 2 2q8 0 18 -20h19v8q29 10 49 10z" />
<glyph unicode="j" d="M614 795v106q-12 0 -12 2q0 10 12 10v13q-6 6 -8 6t-4 -6t-6 -6v26h-141l4 -143q6 -6 6 -17h31v-8h36v8h33v-8q8 0 8 8h2q8 0 15.5 5.5t13.5 5.5t10 -2zM629 14v181q-23 0 -15 4q2 2 15 2v45h-11q-2 0 -2 10q0 8 2 14h11v54h-11q-2 8 -2 22q0 10 2 19h11v20h-11 q-2 10 -2 21v22v23q0 12 2 24l11 4q-4 2 -8 2h-3q-2 10 -2 21v24v25q0 12 2 24h11q-25 23 -25 35q0 6 10 6v76q-4 0 -5 -1t-3 -1h-2v2v2v4q-2 2 -12 5.5t-22.5 4.5t-19.5 2t-3 1q-10 0 -29.5 -5.5t-23.5 -5.5q-14 0 -21 5v4q-2 0 -3 1l-1 1q-4 0 -6 -7.5t-6 -7.5l-2 2v-45 l7 -3t19 -11q0 -4 14.5 -10t16.5 -13q2 -10 2 -36v-76h10q4 -4 4 -10q0 -8 -4 -13h-10v-67h10q2 -10 3 -19.5t1 -19.5t-1 -20.5t-3 -20.5h-10v-29h4q6 0 6 -12l-3 -1q-3 -1 -7 -1v-62h10q2 -6 3 -12t1 -16q0 -8 -4 -21h-10v-55h10q4 -12 4 -21q0 -14 -4 -22h-10l-2 -51 q-8 0 -8 -6q0 -2 2 -2q-4 -4 -17.5 -5.5t-23.5 -11.5q0 -27 -6 -26q-29 -4 -51.5 -6.5t-40.5 -2.5l-15 -2q0 -6 -12 -6q-14 0 -14 6v2q-10 2 -22.5 0t-23 2t-17.5 21.5t-7 60.5q-25 0 -35 6.5t-13 14.5t-4 15t-7 7q0 10 6 11l-2 26q-4 0 -4 8q-16 0 -23 -1l-8 -1 q-16 0 -23.5 1t-9.5 1l-1 1q-1 1 -5 1q-6 0 -17.5 -2t-13.5 -2v-32l4 4q6 -4 6 -15q-2 -4 -3 -5t-7 -1v-37q8 -8 19.5 -7t20.5 -2t15.5 -16.5t6.5 -52.5q0 -16 -2 -22q0 -4 4 -4h8h4q10 0 23.5 -4t13.5 -23h8v-49h10q0 -2 1 -5t1 -9h2q8 0 9 -8q39 4 71.5 8t42.5 4q8 0 8 -8 l119 -4q2 16 31 20q0 10 14.5 24.5t34.5 14.5v2q0 8 7 18.5t7 16.5q0 4 -7 6t-7 6l12 2v2q0 10 9.5 23.5t31.5 13.5q0 14 4 14q5 0 11 -2z" />
<glyph unicode="k" d="M664 14v52q-16 0 -33 2t-33 8v67q-4 10 -13.5 12.5t-17.5 4.5t-14 10t-6 33h-4q-2 10 -3 19t-1 14v10q-2 8 -21 10l-18 2q-2 0 -11.5 9t-9.5 57h-8q-16 29 -25.5 27.5t-19.5 8.5v25q-2 -2 -4 -2q-8 0 -8 12q8 6 12 15.5t9 18.5t14.5 16.5t29.5 7.5q0 25 4 30.5t19 5.5h14 q0 14 31 15q-2 2 -2 6t14 18h31q-2 4 -2 11q0 27 24.5 39t30.5 12v2q0 8 4 16t4 17q0 10 -16.5 11t-16.5 13h-118q2 0 2 -4q0 2 -2 -4t-5 -15.5t-5.5 -16.5t-2.5 -9l-47 -4q0 -6 -14 -6v-15h12l2 -2q0 -6 -8 -5t-8 -5q0 -4 2 -6q-14 -10 -25.5 -12t-21.5 -4v-29 q-14 -8 -60 -8q0 -18 -12 -19l-2 -24h-31v-8l-1 1t-3 1q-8 0 -14 -8.5t-10 -8.5v-14q-12 -14 -29 -14q-10 0 -22.5 4t-12.5 24h-10v37l10 4q-2 2 -8 2l-2 109h-6q-4 8 -4 16t1 13.5t3 11.5h6v4q0 4 -8 4t-8 2q0 4 2 12.5t8 8.5v0q2 0 6 -3v177q-2 -2 -6 -2q-8 0 -8 12 q0 8 14 8q-10 16 -10 41q0 10 4 27h6v28h-6q-4 4 -4 11q0 6 10 16q-16 0 -16 4q0 2 2 4h-86v-53h2h4q4 0 4 -10h-10v-48h-11v-12h11v-229h-11q10 -20 11 -76h6q2 -6 3 -11t1 -11q0 -14 -4 -23h-6q0 -8 4 -8q6 0 6 -19q0 -4 -4 -16h-6v-299q8 -8 10 -31v-41h6q4 -4 4 -22 q2 2 4 2l1 -3t1 -9q-4 -2 -5 -13.5t-11 -13.5v-25l2 4q10 0 13 -9t22 -9q14 0 39 6q0 16 24 17v43h-10v108h10l4 43h15q0 6 10 18.5t22.5 23.5t23.5 20.5t15 9.5l2 -13q23 6 32 27t13 27q16 0 25.5 -9.5t15 -21.5t6.5 -25.5t1 -19.5q10 -6 32.5 -15.5t22.5 -21.5q0 -2 -1 -3 t-1 -3h6v-41h12q6 -23 14.5 -27t15.5 -8t14 -14t12 -45q18 -12 38.5 -20.5t20.5 -24.5h6v-25q4 2 6 2h2q6 0 6 -6h60q0 12 31 12z" />
<glyph unicode="l" d="M483 51h-4q-4 12 -5 23.5t-1 21.5q0 12 1 23.5t5 21.5h4q-10 10 -10 64h-6q6 88 12 135h4q0 10 -5 13t-5 12q0 10 6 12h4v4v2h-10v264h-6v29h6q-6 57 -6 76v4h-10q-2 8 -2 26q-2 0 -2 -2h-2q-6 0 -9 8l-2 7v-2l-2 -5q-2 6 -3 8.5t-1 6.5q0 8 4 16h2q4 0 11.5 -8t15.5 -12 v35h6v67h-6v17q-14 0 -14 6q0 4 2 4h12q0 2 -1 3l-1 1q0 10 5 16t5 13h-2v2h-6v49h6q0 6 -4 7t-4 5v2q2 0 2 2h-25q8 -6 9 -8l-5 -1q-4 -1 -8 -1l-10 10t-11 5t-18.5 2t-33.5 1h-105q0 -4 -8 -9t-10 -9v-29h4q8 0 8 -12h31v-8l2 4q2 0 4 2v6q4 0 9 -2t5 -10q35 -14 42 -20.5 t7 -18.5v-8q2 2 6 2t5 -15q0 -2 -3 -2q-6 0 -8 2q10 -16 11 -75q0 4 4 4q6 0 8 -5.5t2 -7.5q0 -10 -14 -10v-123h10q2 -10 2 -18v-15v-16t-2 -14h-10v-107q0 2 4 2h2q8 -2 8 -10h-14v-18v0q0 2 2 2q4 0 8 -3t4 -8h-14v-67v0q0 2 2 2q4 0 8 -4t4 -8h-14v-50h10q2 -8 2 -24 v-14q0 -6 -2 -13h-10v-45v2t2 2q4 0 8 -4t4 -6h-14v-12h10q2 -37 3 -93.5t1 -134.5l2 2q2 0 14.5 -3t12.5 -13q2 0 3 1t5 1q6 0 11 -1t13 -1q23 0 33 10v2q0 4 5 11.5t5 17.5v6z" />
<glyph unicode="m" d="M666 174v2q2 0 2 2t-4 5l-5 3v306h-10q0 4 -1 8t-1 8t1 7t1 7h10v29q0 -2 -6 -2q-4 0 -4 10v2v6q0 6 10 6v5q0 10 -6 27.5t-6 25.5q0 4 1 7t1 7q-2 0 -10 6t-17.5 13.5t-17.5 12.5t-8 3v18q-6 0 -12 8.5t-9 8.5q-29 0 -28 -4h4l-15 -1q-14 -1 -42 -5h-11q-12 0 -23 6 t-20 6q-4 0 -8 -6t-8 -6v-41l-16 -5q-4 -4 -33 -4q-14 -45 -15 -145q-33 0 -44 8t-25 12l-2 168q-8 0 -12.5 8.5t-6.5 8.5h-88q-8 -6 -20 -6t-22.5 -1t-18.5 -6.5t-8 -19.5q0 -8 2 -10q-18 0 -29 -8v-5q2 2 -3 -1t-11 -7t-11.5 -8t-1.5 -4l-4 -14h13v-15v-14h-13 q0 -2 6.5 -3t6.5 -3v-76q0 2 6 2q4 0 4 -10h-10v-74h-13h4q8 0 9 -20v-21h-13q0 -2 4 -4q2 0 3 1t4 1q2 0 2 -2v0v-213h6q4 -12 4 -16q0 -10 -4 -11h-6v-34q2 2 4 3l2 1q4 0 4 -8q0 -4 -10 -5v-47q0 4 6 4q4 0 4 -16q0 -8 -4 -8h-6q-2 0 -2 -8q0 -14 25.5 -18.5t37.5 -14.5 q12 10 24.5 12t20.5 2v291q-2 -2 -2 -4v0q-6 0 -6 8q0 12 8 12v35q-2 -2 -2 -4v0q-6 0 -6 8q0 12 8 13v34q-2 -2 -4 -2t-2 2v3q0 4 3 5t3 5l8 166q6 0 12.5 4t16.5 4q23 0 27 -16.5t4 -51.5l2 4h2q8 0 8 -16q0 -4 -12 -4v-25h6q2 -4 2 -14v-12q4 -4 24.5 -15.5t26.5 -17.5 q4 -20 4 -146h2q10 -8 10 -18t-10 -18h-2q6 -43 6 -64v-12q8 0 8 -4t-8 -4v-146q4 0 6 1l2 1q14 0 32 -3t30 -3q4 0 23.5 11.5t19.5 13.5q0 16 -7 36.5t-7 28.5q0 10 2 17q-8 0 -9 4v4q2 0 3.5 1t3.5 1v-2h2l2 65h10v13h-10q-2 2 -2 10q0 10 2 14h10v27h-10q-2 2 -2 10 q0 10 2 16h10v52h-10q-2 18 -2 39v36v39q0 20 2 39h10q-2 2 -2 6q0 8 12 19h39v76q2 -2 8 -2q2 0 11.5 10t21.5 10t18.5 -9t9.5 -20.5t4 -22.5t1 -16v-10h10q2 -27 2 -55v-57v-58q0 -27 -2 -51h-10v-25h10q2 -10 2 -22v-21v-24q0 -10 -2 -21h-10v-24q4 8 10 8q2 0 2 -16 q0 -10 -4 -11q-6 0 -8 2v-26h10q2 -16 2 -41v-55q4 4 6 4l2 -5q2 -4 2 -14q35 0 38 -2t14 -2q6 0 20 2t18 2l5 164h2z" />
<glyph unicode="n" d="M664 35h-11v16q-20 0 -20 2q0 27 2 29h18v18q-14 0 -14 4t4 7h10v139h-6q-2 6 -3 11t-1 15h-4q-4 0 -7 8.5t-5 12.5h6l-1 3t-1 5q0 25 18 25l4 20h-6q-2 6 -3 12.5t-1 16.5q0 8 1 14t3 17h6v14h-6q-4 12 -4 31h-8q-2 6 -2 24v13q0 6 2 10h8q0 27 4 43h6q0 4 -8 4 q-6 0 -6 4l2 2q2 2 2 4l-53 2v90q-2 -2 -4 -2q-8 0 -8 8q0 2 4 2q-6 6 -15.5 5.5t-17.5 -0.5t-13.5 6t-5.5 30q-35 0 -43 9v2q-6 0 -13 1t-15 1q-88 0 -115 -9.5t-30 -20.5t-1 -21.5t-28 -12.5q-18 2 -29 2h-10q0 -16 -8 -16l-5 -47q12 0 13 -6v-17q-8 4 -15 4 q-10 0 -27.5 -5t-23.5 -5q-12 0 -14 6v56h6q-4 10 -5 26.5t-1 46.5q-35 4 -57.5 5t-34.5 1h-13v-20l11 -2q0 -10 5 -12t5 -11q0 -14 -8 -14v-29q0 2 2 2q6 0 6 -10q-6 0 -9 -6t-12 -6v-31l7 6q6 0 6 -14q0 -6 -13 -6v-19h7q4 0 8 -7t6 -9q-2 2 -4 2q-4 0 -8 -6t-9 -6v-25h11 q2 -6 2 -16q0 -6 -2 -8h-11v-88h11q2 -10 2 -21v-22v-25q0 -10 -2 -21h-11v-40h11q2 0 2 -23h4q14 -12 14 -70h-10q0 -29 -4 -32l-4 -103q2 0 3 1t3 1t2 -6h84q0 4 6 4v135h-6v29h6v238h10q0 4 11.5 19t23.5 15h2q4 0 6 -2v2q0 12 21 25v23h28v10q12 0 18.5 6t9.5 13t4 14.5 t1 9.5l41 2q0 -2 5 12t7 19h7v26q2 2 10 2q10 0 20 -10v-8q4 0 6.5 -2t4.5 -2q10 0 22 6t19 6q4 0 7 -1t7 -3v-2q0 -12 13 -17.5t28.5 -12.5t29 -20.5t13.5 -39.5q0 -6 -1 -18.5t-1 -26.5q0 -12 -1 -23.5t-1 -13.5h10q2 -29 3 -58.5t1 -60.5q0 -29 -1 -57.5t-3 -55.5h-10 v-14h10v-90h6q2 -6 3 -11t1 -16q0 -12 -4 -20h-6v-27h100q-2 0 -2 4q0 6 4.5 10.5t8.5 12.5zM92 502l-10 4h10v-4z" />
<glyph unicode="o" d="M664 221v25q-2 0 -4 -1l-1 -1q-8 0 -8 10q0 2 1 4t12 2v57h-11v242q-14 0 -14 4q0 2 4 6q-10 0 -27.5 5.5t-25.5 5.5v28q-6 12 -31 13q-23 0 -29 8v35h-14q-6 0 -16 4v10h-21v-10q-10 6 -10 20q0 16 -2 35h-18t-23 4h-2q-10 0 -27 -16q-14 0 -14 10l-98 4v2h-2v2 q-4 0 -6.5 -4t-6.5 -4h-2q0 2 -4 2v-12h-18q0 -12 -7.5 -17.5t-16.5 -8.5t-17 -7t-10 -14q0 -4 1 -6.5t1 -4.5q0 -10 -8.5 -16t-19.5 -9t-24.5 -7.5t-23.5 -12.5v-16t-5 -8t-17.5 -8.5t-37.5 -16.5v-31h11v-342q16 -10 28.5 -15t20.5 -13v-21h8q6 0 6 -12v-2q4 0 4 6t4 6 q6 0 9 -4q0 -6 10 -12t10 -8v-13h10q4 -8 4 -24q6 0 10.5 -10.5t10.5 -10.5h20q14 0 19 -4v-29q23 0 22 -12h-2t-2 -2q49 0 79 1t44 1q16 0 21 1l6 1q8 0 19 -2t18 -2q-4 0 -5 2l5 2q20 6 31.5 17.5t15.5 22.5t6 18.5t6 7.5t6 -2q-2 2 -2 6t19.5 18.5t35.5 14.5q6 0 13 -2 v10l2 -2q4 0 5 9t5 9t10 -6l2 27q6 0 10.5 4t10.5 4q2 0 3 -1t3 -1q0 20 20 20v37h11zM553 184q-20 0 -37 -4v-8h-22q-2 -4 -4.5 -13t-2.5 -22q-4 4 -10 4h-8q-14 0 -38.5 -8t-39.5 -8h-2q-10 0 -43 3t-49 3v6q-4 -2 -13.5 -4t-25.5 -2q0 6 -4 8h-6q-2 0 -2 -2v21 q-10 14 -21 14h-10q0 12 -9 14t-11 2t-5 -1l-4 -1v15q0 18 -8 45.5t-8 34.5q0 12 2 18h14q0 8 -6 8t-8 -2v174q14 0 14 4q0 16 -6 17q-6 0 -8 -4v32q25 31 31 31h4q2 0 8 5t14 5h2v11v8q0 10 16.5 13t26.5 7h50q0 -2 -2 -2v-2q0 -6 14 -8t18 -2q10 0 32 5t38 5q-2 0 16.5 -2 t26.5 -10v-2q0 -10 16.5 -15.5t16.5 -15.5q14 0 14 10q6 -8 15.5 -15t13.5 -11h10v-303h-14q-2 -4 -2 -7q0 -2 16 -2v-47z" />
<glyph unicode="p" d="M657 184v385q-20 2 -36.5 4t-26.5 7v28q0 2 -13.5 10.5t-13.5 14.5v2q-18 0 -30 10v23q-10 8 -22.5 10t-18.5 2h-11q-14 4 -14 31v-2h-2q-6 0 -6 12q0 2 2 2l-53 4h-95q-33 0 -45 -4v-12h-20v-6q2 -6 2 -11q0 2 -10 -8l-21 -4q-8 -4 -22 -4q-6 0 -9.5 6t-7.5 6 q-2 0 -4 -4v37h-84v-12h-28q-2 -2 -2 -6l5 -5q5 -4 5 -14q0 -8 -4 -8l-4 -139h8q4 -12 4 -15q0 -10 -4 -14h-8v-25h8v-16q14 0 14 -10q-4 -4 -22 -4v-19l4 2q6 0 6 -8q0 -6 -4 -6q-2 0 -6 2v-43h8q4 -4 4 -14t-4 -15h-8v-190q2 0 8 -6q0 -4 -4 -4l-4 -23q8 0 8 -4v-2 q0 -4 -8 -4v-86h8v-150l2 2h2q6 0 10 -9t6 -9l60 2q0 4 24 4q-2 4 -4 6t-2 4t7 5.5t7 11.5q0 2 -2 2v0h-6v41h6q-4 10 -8 23.5t-4 25.5q0 10 2 18t4 19h6q0 57 7 67l2 -2q4 0 8 8.5t14 8.5q6 0 16.5 -3.5t10.5 -25.5l2 -2q0 -4 6 -6t6 -13v-2q8 0 14.5 1t14.5 1 q23 0 65.5 -6t67.5 -6q10 0 16 1t17 1v2q0 -2 4 2t10 10.5t13 11.5t14 5h2q0 12 1 20l1 7h16v10q2 2 12 2q0 -2 2 -2q8 0 15.5 11t23.5 22q2 0 2 -2v0q2 0 3 8t6 8q4 -2 6 -2t4 -2l39 -6q2 0 12 13t18 13zM555 246q-18 -18 -18 -21v-4q-6 6 -11 6q-10 -10 -20 -12t-10 -25 v-4q-8 4 -15 4q-10 0 -10 -6q-29 0 -48.5 2t-32.5 3t-25.5 3.5t-26.5 2.5q-8 0 -19.5 -3.5t-15.5 -7.5v2q0 8 -6 9q-8 0 -10 -2.5t-4 -3.5t-7.5 -3t-17.5 -2q0 6 -2 6l-4 -4q0 10 -2 14.5t-4 8.5l-2 12h-35q-10 23 -12 23t-4 -4q0 6 -2.5 11l-4.5 9h-6v150h-10v20h10v29h-10 v24h10v31h6q10 33 28.5 51.5t37 26.5t37 10t28.5 2h25v-8q6 0 27.5 4t38.5 4h14v-8l15 -3t12 -1q18 0 22 12q10 -27 22.5 -40t22.5 -19t18.5 -7t10.5 -6q-2 -4 -2 -14t7 -28.5t7 -30.5q0 -8 -2 -15h-6q-6 -6 -6 -20q0 -6 7 -21.5t7 -25.5q0 -12 -2 -21h-6q-2 -12 -3 -24.5 t-1 -26.5q0 -10 1 -22.5t3 -24.5h4q2 0 2 -12z" />
<glyph unicode="q" d="M666 -100l-2 53q-4 10 -5 33v63h-10v21q-10 0 -13 1t-1 1q6 6 14 6v53h10v180h-10q0 4 -1 9.5t-1 9.5q0 6 1 11t1 9h10v152h-10q0 10 -1 22.5t-1 22.5q0 12 1 23.5t1 21.5h10v18q-2 -2 -6 -2t-4 10v3v2q0 4 10 4v84q-2 -2 -6 -2t-4 8v6h-90q2 -6 2 -8q0 -4 -14 -4v-37 q-18 6 -34.5 7t-27.5 3q-2 -2 -4 -2q-8 0 -8 6v-6v29q-33 0 -39 2v10l-90 4q-6 0 -11 1t-14 1q-4 0 -26.5 -5t-34.5 -5t-16 4v-39q-4 -2 -19 -2h-16q-18 0 -20.5 -21.5t-12.5 -37.5h-86l-4 -1t-12 -1l-4 -316h-11v-14h11v-113q4 4 5 6l1 2l5 -4q5 -4 11 -9t12.5 -10t6.5 -7 l59 -6l7 -6q7 -5 7 -13h6v-18q14 0 40 -5.5t26 -23.5v-6q4 0 9 -4t22 -15h59v11q4 2 14 2q8 0 17 -2v-11h20q-6 6 -6 9q0 2 14 2q10 0 11 -7l49 -4v11q6 0 14 8t21 8v27h16q6 0 9 -2t7.5 -5.5t16.5 -9.5q-2 -2 -2 -10q0 -4 7 -6t7 -10q0 -10 -7 -11.5t-7 -7.5q0 -2 7 -3 t7 -11q0 -14 -12 -14v-46h10q2 -20 2 -45v-59q29 0 31 -10q27 0 41 5t20 11t8.5 12.5t4.5 8.5h2zM567 324q-14 0 -16 -7.5t-4 -11.5l-2 -80q-10 0 -29.5 -10t-30.5 -10l-2 -33h-118l-123 14v19q-12 10 -60 10v2q0 4 -7 11l-7 8h6v118h-6v27h6q6 2 6 18q0 8 -6 15h-6v18h6 v100h14v29q8 0 25.5 6t28.5 6v23q12 0 12 14h53v-6q18 -6 41 -6q18 0 35 6v6h59q10 -8 24.5 -21.5t29 -26.5t25.5 -25.5t18 -18.5h8v-35h10v-18h-10q-2 -10 -2 -19v-18v-20t2 -21h10q0 -6 1 -10t1 -6h8v-47z" />
<glyph unicode="r" d="M659 424q0 14 -2 14t-8 -6q0 6 -1 10t-1 9q0 4 1 9t1 9h10v25q-2 -2 -8 -2q-4 0 -4 10q0 12 12 12v39h-30q-16 10 -25.5 14t-9.5 15h-4q-2 2 -2 22h-15q-27 0 -31.5 3t-4.5 20v28q-4 0 -5.5 -1t-3.5 -1q-10 0 -23 6.5t-24 6.5q-4 0 -8 -2v30q0 -2 -4 -2q-6 0 -6 17h-4 q-4 0 -5 -7.5t-12 -7.5q-10 0 -10 8v0q0 2 2 7l-45 2q2 0 -1 -1t-7 -1q-4 -4 -8 -4q-8 0 -8 4v-29q0 6 4 6q6 0 6 -14q-10 -4 -11.5 -6t-4.5 -5.5t-12 -4.5t-34 -1l6 -6q0 -8 -18 -8v-37h-53q-12 -16 -19.5 -30.5t-15.5 -14.5t-21.5 9.5t-21.5 9.5l-2 108q-25 0 -25 14 q0 2 4 9h-51q2 -4 4 -5.5t2 -3.5q0 -6 -14 -6q-6 2 -6 15q-4 0 -10 -11.5t-6 -7.5h2q0 2 4 2t5 -6t1 -12q0 -2 -4 -15h-6v-20h6q4 -4 4 -18h4q0 -2 1 -7.5t1 -9.5q0 -6 -1 -12t-1 -10q-2 2 -6 2q-2 0 -2 -6q0 -4 -6 -5v-36h6q4 -12 4 -19q0 -8 -4 -16h-6v-84h6q4 -16 4 -31 q0 -14 -4 -31h-6v-47h6q4 -8 4 -14q0 -4 -4 -16h-6v-252h6q4 -4 4 -15q31 0 39 -4v-14h18v10h21q0 18 18 19v137h-6q-2 10 -2 18v17q0 23 2 30h6v187h12q-2 2 -2 8q0 8 13 12q12 6 22 18.5t14 12.5v2q0 8 13.5 22.5t32 28.5t37 25.5t26.5 11.5h8q0 37 10 43q2 0 2 -2h3 q4 0 5 7t7 7t6 -12q10 0 17.5 4t11.5 4l1 -1t1 -7h53l2 -8q4 0 11 -7.5t7 -19.5q8 4 9 4q2 0 2 -12q29 0 35 -4t6 -10l4 -11q4 -12 4 -41h10v-18l9 -7q9 -7 28 -20q4 0 4 -18q23 0 31 -25q10 8 17 14.5t13 10.5z" />
<glyph unicode="s" d="M664 156q-4 2 -7 2l-4 4v94q-14 0 -14 4q0 8 14 8v37h-49v-2q0 -4 -10 -4q-4 0 -3 4t-32 4q-23 0 -29 8v43q-2 -2 -6 -2q-8 0 -8 9q-23 2 -43 2q-18 0 -31.5 3t-20.5 11t-7 29l-4 -4q-4 0 -4 6q0 2 2 6h-64q-18 8 -39 8h-8v33h-21l-2 4v2v4q-4 0 -7 -1t-7 -1 q-6 0 -16.5 2t-21.5 5t-19 5t-10 2q-8 0 -21 -4v35q-6 0 -14 -2l-8 2q0 12 8 18.5t10 6.5l4 45h10q-2 2 -2 4v2q0 6 8.5 12t18.5 10t17 6l7 2q4 0 15.5 -7t11.5 -13h90l-4 4q0 2 10 2q14 0 15 -2q0 -2 -2 -2v-2h71v6h72q2 10 6 11t10 1q-4 0 6.5 -17t10.5 -40v-37l2 2 q8 0 8 -12q2 2 8 2t20.5 -6t24.5 -6h6q4 12 20.5 14t20.5 6v92h-63v50q-55 0 -60 4l-2 49h-4t-10 -4l-4 8l-90 -2q0 -2 -8 -2q-4 0 -5 3t-12 3q-10 0 -16 -6v4q-10 0 -45 -4t-70 -4h-14t-17 4q8 -8 9 -8q0 -4 -17 -4v12h-18q0 -4 1 -5l1 -1q0 -6 -14 -6v-25h30q-6 6 -6 8 l8 4q4 0 5 -5t1 -9t-1 -8t-1 -6q-33 0 -36 4q-10 -2 -26.5 -3t-33.5 -1q2 -2 2 -7q0 -8 -16 -8q0 -12 -7.5 -19t-16.5 -10.5t-17 -4.5l-8 -1v-4q0 -2 2 -6q0 -14 -8 -14l-5 -68h11q2 -10 2 -20v-21v-20t-2 -21h-11v-18q4 2 9.5 -9.5t11.5 -11.5q41 0 47 9q6 -4 14 -4 q10 0 19.5 -2.5t16.5 -8.5t7 -20q10 0 29 -25h49q20 0 41 -28v-3q0 -4 7 -8t7 -10v-2l1 1q2 1 2 3v4q2 2 10 2h4q4 -6 15 -10t22.5 -6t18.5 -1t5 1q18 8 45 8q8 0 20.5 -3t16.5 -13v-17l2 2h2q12 0 17 -24h8q14 0 22 -2h7q6 0 6 -11v-16h10q2 -10 3 -20.5t1 -18.5 q0 -12 -1 -21.5t-3 -19.5h-10q0 -12 -4 -16h-179v-8q-6 -2 -10 -3t-14 -1t-23 4v8h-141v16q-16 0 -20 4q0 20 4 25v-2q4 0 4 4q0 6 6 6q4 0 6 -2v6q0 2 -4 2h-2l-4 4v2q0 10 10 17q-2 -2 -6 -2q-8 0 -8 16l4 1t10 1v27q-10 6 -17.5 10t-13.5 6h-69l2 -2q0 -4 -13 -4v-106h11 v-25q41 0 41 -35h8v-14q6 -10 17.5 -11.5t22.5 -2.5t18 -9t7 -30l6 -5q5 -4 15 -14h90q-4 2 -5 3l-1 1q0 4 14 4t14 -6l29 -2l-4 2v2q0 4 3 5l3 1q2 0 6 -2t4 -8h140v8q35 16 53 19l-4 2q0 20 41 20q-2 4 -2 8t10 5l1 -2q1 -1 5 -1v33q8 0 13.5 6.5t11.5 6.5v0q2 0 4 -3 q0 18 12 19h8v31h11z" />
<glyph unicode="t" d="M653 123q0 4 2 4h2q0 4 -6 3t-6 3v8q0 6 8 6l-4 23q-4 4 -4 23h-6q-6 0 -6 8q0 2 2 2q-4 0 -18.5 1t-14.5 7h-8q-4 0 -19 -8q-4 4 -4 8h-14l-4 -41q-33 -10 -44 -15t-14 -10.5t-3 -11.5q0 -4 -11 -12h-114q0 6 -5 6l-2 33h-12v30v33h12v90q-14 0 -14 4q0 8 14 9v227h7 q0 31 12 35h31v-10q10 0 10 10h4q12 0 29.5 8t27.5 8v-10q31 10 35 10h6q-6 2 -6 4t5 4l5 2q2 0 3 -1t3 -1v90h-34q0 -6 -17 -6v6h-18q0 -2 -10.5 -6t-10.5 -10q-2 2 -2 10q-4 -2 -18 -2q-10 0 -23.5 10.5t-31.5 10.5h-7v37h-12v88q-2 -2 -6 -2q-8 0 -8 8q0 4 5 8t9 6v98 h-72v7h-28l-4 -25h-4v-80h4q4 -12 6 -23.5t2 -21.5t-2 -20.5t-6 -20.5h-4l-7 -51h-16v-8q-2 0 -3 1t-5 1q-16 0 -35.5 -7.5t-23.5 -7.5q-6 0 -9.5 1.5t-7.5 3.5v4q-6 2 -22 2q-20 0 -45 -11v-90q0 6 6 6q-2 0 2 -4t10 -8t12 -7t6 1q0 -4 7.5 -3t7.5 -9h22q10 12 25 12 q16 0 20 4q4 -8 4 -10q4 2 5 2h2q10 0 20 -8h4q6 0 6 -2v-13l4 -4h4q6 -18 7 -75l1 1t3 1q4 0 4 -9v-4q-2 -2 -4 -2h-2l-2 2l-2 -2q6 -2 10 -6v-405h8v-17q2 2 4 2q10 0 10 -12h29v-23h8v-18q18 6 29 6h10t22.5 -3t23.5 -8t11 -13h17v10h112q0 2 -1 3t-1 3l2 2l2 2q3 2 5 2 t2 -2t2 -2v6q0 4 4 14.5t16 20.5q6 0 15.5 6t15.5 6q4 0 5 -1t3 -1q0 6 1 17.5t5 22.5t13.5 19.5t25.5 8.5z" />
<glyph unicode="u" d="M664 37v20h-11q-2 10 -2 19v20v21q0 12 2 22h11v29h-11q-2 10 -2 14t-2 7.5t-7 7.5t-13 14q4 4 14 4q0 2 -2 2t-2 4q0 8 7 24.5t7 26.5l11 2v15h-11q-2 2 -2 8v16v13q0 6 2 10h11v20q-12 0 -15 2v334h-4q-2 0 -6 2v2q0 6 4 9q-37 0 -54.5 1t-24.5 2t-8 2t-3 1 q-4 0 -3 -9.5t-11 -9.5v-192q2 2 6 2q8 0 8 -10h-14v-68l8 8q6 0 6 -16q0 -8 -14 -8v-43h6q8 0 8 -7q0 -2 -14 -2v-73h8q2 -6 2 -23q0 -16 -7 -25.5t-17.5 -14.5t-20.5 -7t-17 -2q0 -18 -8 -31h-2q-6 0 -15 -7t-20 -7h-2q0 2 -2 2q4 -14 -15.5 -23.5t-41.5 -9.5h-14v-8 q-6 -6 -20.5 -8t-18.5 -2q-8 0 -13.5 5t-7.5 5t-3 -5t-5 -5h-2q-6 2 -6 8l-49 2q0 8 -9 8l-2 33q-2 4 -14 7t-22.5 4t-12.5 1v15h-10q-2 16 -3 46.5t-1 71.5q-6 -6 -4 -6q-4 0 -6 5t-2 7t6 3l6 2v92q-2 -4 -4 -4q-8 0 -8 10q0 2 2 2q-2 0 -2 4q0 8 7 6t7 17q0 23 -4 47 t-4 34t4 27l2 45h-2l-3 9t-1 8q0 10 4 14l2 18h-2q-2 4 -3 8.5t-1 10.5q0 4 4 16h2q-4 14 -16.5 17.5t-22.5 7.5v6q-12 0 -34.5 -5t-33.5 -5v-373h7q4 -4 5 -9t1 -10q0 -12 -6 -24h-7v-113l2 2q4 0 6.5 -6t6.5 -6v0q0 2 2 2v-16q23 0 51 -29v-16q14 0 28.5 -6.5t14.5 -26.5 h10v-17q43 0 49 -10v-14h11q4 -6 5 -17.5t11 -13.5q23 -4 28 -6t15 -2q14 0 47 11t49 11q12 0 17 -2l-2 2v3q0 14 15 15t30 7v6q2 0 2 -2v0q6 0 7 7t3 7h2t2 -2q0 18 4 25.5t9.5 10.5t11.5 3t12 4v5l4 4q27 0 33 -30t6 -56h2q4 0 15 -13l12 -12h36q10 16 25 25l2 -4q4 0 4 6 q0 8 4 8h11z" />
<glyph unicode="v" d="M78 696q-2 0 -2 2t-2 2q-4 0 -5 -7t-6 -7l-2 2v-24h7q6 -6 6 -15q0 -6 -6 -12h-7v-64h7v-77q6 2 10 2q8 0 21.5 -10.5t13.5 -32.5h8v-127h6q6 -16 7 -26.5t7 -10.5l9 3q8 3 14 3q20 0 20 -39h4q4 -10 6.5 -21.5t2.5 -21.5q0 -25 -9 -47h-4v-12h2q2 0 6.5 -7.5t8.5 -9.5 v-2q6 0 9 6.5t7 6.5q10 0 16.5 -20.5t30.5 -31.5q10 -2 18.5 -3t13.5 -8t7 -21.5t2 -42.5q6 4 10 -8.5t9 -12.5q29 0 41 -3t16 -3q6 0 12 4t15 4q4 0 4 -2q0 25 8 27h6v39q12 16 22.5 26t24.5 10h6q-6 6 -6 9q0 4 14.5 19t26.5 15h2q-2 2 -2 7q0 2 8 10t17 8l4 104 q8 10 23.5 14.5t31.5 10.5l4 154h10q0 31 10.5 31.5t26.5 9.5v2q0 10 7.5 16t7.5 14v0q0 2 -2 4h-9q-2 6 -3 10.5t-1 8.5t4 12h9v15l-9 4q0 8 -7 12t-7 8v2q0 8 10 8v68h-4q-6 0 -6 16h-16q4 -2 4 -4q0 -4 -15 -4q-14 0 -14 6l-25 2v-8h-24v-125q4 4 6 4q6 0 6 -20 q0 -4 -4 -4t-8 2q0 -45 -8 -45h-2q-6 0 -16.5 -4t-18.5 -4h-2q0 2 -2 2q0 -25 -2 -27h-6v-12h6q-4 -49 -8.5 -84t-4.5 -54v-12h-28q0 -6 -13 -6q-12 0 -12 -8l-6 -127q-4 0 -7 1t-7 1q-8 0 -21.5 -2t-27 -5t-24.5 -5t-15 -2h-2q-10 0 -20.5 9t-10.5 56q-18 0 -19 14v2 q0 4 2 9h9v30h-9v19h-6q-4 0 -21.5 11t-15.5 9v183q-25 0 -36 6h-9q-6 0 -6 10q0 4 1 6t1 6q0 2 -1 3l-1 1h-8v162q-4 -2 -6 -2v0q-8 0 -8 10h-60q4 -2 4 -4q0 -4 -12 -4t-12 6v2z" />
<glyph unicode="w" d="M162 700h-82q-2 -8 -6 -8l-11 -164q-2 -2 -3 -7t-1 -9q0 -10 7.5 -30.5t7.5 -41.5v-8q0 4 2 4t4 -7t2 -13t-8 -6v-115q0 6 2 6q4 0 4 -14q2 0 3 1t5 1q12 0 18.5 -1t10.5 -11.5t5 -33t1 -67.5h10v-24q53 0 53 -56v-14q-2 -25 -3 -36t-1 -13h11q4 -4 4 -21q0 4 2 4 q4 0 9 -7t9 -7q10 0 37 5t37 5l8 56q4 0 6 7t8 7h2q4 6 15.5 7l23 2t20.5 2t13 5v-6h35l2 -20q2 -2 3 -9.5t1 -25.5q4 2 8 2h2l2 -2l-12 -4q0 -6 10.5 -14.5t12.5 -12.5q2 0 3 1l1 1q10 0 18 -4t19 -4q2 0 4 1t4 1q0 8 16 7t25 3v70h8l6 59h23q0 2 6 9.5t16 17.5l4 84h10 q0 18 1 24.5t6 10.5v2q0 8 16 8q10 -2 12 -2h2q0 20 8 20h5v129h-7q-6 82 -6 248h-30v8h-48v-8h-18v-272h-14q12 -10 14 -22.5t2 -28.5q0 -41 -20.5 -52.5t-40.5 -15.5l-9 -133q-4 0 -4 -2h-4q-16 0 -31.5 5t-27.5 5h-2q0 10 1 17.5t3 7.5l2 45q0 -4 -4 -4q-6 0 -6 4v2 q0 2 4 4q-4 4 -4 6t10 2l-2 21q-2 10 -3 38.5t-1 75.5q-4 -2 -5 -3l-1 -1q-4 0 -4 8q0 2 2 2q-2 4 -2 5v2q0 6 10 6v24q-4 0 -8 1l-4 1l4 4h-91q0 -6 -14 -6v-47h10q4 -20 4 -31q0 -10 -1 -18t-3 -18h-10v-148q0 -8 -49 -8q0 14 -25 14v119q-43 6 -61 14v291q-2 -2 -4 -2v0 q-8 0 -8 8v2t4 2q-4 2 -4 5q0 6 12 6v65q-2 -2 -3 -4l-1 -2q-4 0 -6 4t-2 6t4 4z" />
<glyph unicode="x" d="M152 739q-37 0 -53.5 -1t-21.5 -3t-6 -3t-10 -1v-69l11 -3q0 -8 5 -10t5 -6v-8q2 4 12 4q12 0 18.5 -12.5t9.5 -28.5t4 -31.5t1 -21.5q2 0 20.5 -8.5t18.5 -6.5v-6q0 4 4 4t5 -3t7 -3h4q-2 -8 -2 -14q0 -10 6.5 -28.5t6.5 -28.5v-5q0 -10 16 -11t20 -9v-16h13 q2 -4 8 -16.5t47 -12.5q0 -14 -4 -27h-18q0 -4 -8.5 -5t-8.5 -3q0 -4 2 -6q-14 0 -16 -16.5t-2 -20.5h-8q-16 0 -41 -8l-2 -55h-9v-39h-39q0 -8 -12 -8v-56h-8q0 -20 -6 -26h-17q-16 -16 -30 -21v-29h8q0 -4 1 -9t1 -9q0 -6 -1 -9t-1 -7h-8q0 -4 9 -12.5t13 -14.5h76 q10 41 14 68h9q0 8 -6.5 10t-6.5 6t10 12l9 8h22q6 0 10 7v26h13v13q0 18 7 26t17.5 11t19.5 4.5t15 5.5l2 59h12v25q72 -6 93.5 -13.5t21.5 -36.5v-34q45 0 52.5 -17.5t7.5 -68.5h2q0 2 2 2q29 -8 41 -21.5t16 -28t3 -29t-1 -22.5q27 -8 48.5 -11t41.5 -5q0 12 17 12v94 q-10 0 -30 7.5t-28 7.5q-2 4 -2 26v58l-51 4q-8 16 -11 29.5t-3 23.5t4 18h-6q-14 14 -25.5 20.5t-19 10.5t-10.5 12.5t-3 26.5q-8 0 -16 8t-12 11q25 27 39 53t47 26h6v41h10q0 45 20.5 60.5t30.5 15.5l2 60q2 -2 6 -3l4 8q5 9 11 9v6q0 4 6 8h20q-2 0 -2 6v4q2 4 8 5v0 q2 0 5 -2v49h-5l-4 8t-2 12h-26q0 6 -18.5 10t-22.5 4q-16 0 -23.5 -11t-8.5 -26.5t-1 -29.5v-16q-35 -10 -47 -17.5t-12 -32.5v-8q0 -10 1 -16t1 -15q0 -14 -9.5 -18t-19.5 -6t-20.5 -5t-12.5 -14v-18h6v-41h-6v-18h-129q0 10 -6 31.5t-6 37.5q0 6 4 8q-4 0 -8 4l-4 5l4 4 q-18 0 -26.5 2t-11.5 5t-6 5t-12 4v86q-6 -4 -6 -10q-20 10 -35.5 12t-25.5 4v54h6v32q-2 0 -3 1t-3 1l-3 -1t-7 -1q0 2 -4 2z" />
<glyph unicode="y" d="M84 713v8h-2v2q-4 0 -6 -6t-6 -6v0q0 2 -2 2v-92q10 -8 20 -13.5t18 -11.5q2 4 7 4q4 0 5 -16.5t1 -10.5h6q2 -10 2 -38v-74q2 4 4 4q4 0 4 -12q29 0 35 -2t6 -11v-14h10v-119h11q0 -4 1 -12t1 -21h10v-18q25 0 31 -6v-19h4q4 0 8 -6t8 -6l2 -14q12 0 27 -8v-17h10 q2 -8 2 -24v-11q0 -4 -2 -8l-18 -6q0 -4 -5 -4h-16q-10 0 -10 -6l-4 -129h-21q-14 0 -16 -8v8q-33 -4 -57 -4q-23 0 -39.5 -2t-27.5 -7.5t-17 -19.5h6q4 -4 4 -12q0 -6 -4 -15l-6 -28h6q0 -2 1 -8.5t1 -14.5h8v-12h72v4l2 1t8 1q4 -4 4 -6h90q0 10 16.5 8t22.5 4v33 q-10 0 -10 4v6h2q8 0 8 4v13q2 0 3 1t3 1l1 -1q1 -1 3 -1v24h41q-2 4 -2 8t14 4v101l7 4q29 18 41 41.5t13 37t1 15.5q0 6 41 43h16q10 18 24.5 31.5t26.5 13.5v2q0 8 7.5 15.5t7.5 17.5q0 2 -1 3t-1 3q0 -2 -4 -2q-8 0 -9 12q0 10 9 11q4 0 4 -2v22q-2 -2 -6 -2q-6 0 -7 8 q0 14 13 15v14h-10q0 4 -1.5 9t-1.5 9q0 18 15.5 32.5t25.5 25.5h2q8 0 10.5 7t4.5 7t3 -1t3 -1v47q-4 -2 -8 -2t-4 14q0 4 12 4v54h8q0 27 9.5 31t35.5 4v34h6q-6 8 -6 58h-90q0 -4 2 -4q0 -6 -9 -10.5t-9 -8.5t1 -6l1 -2h10q4 -8 4 -18t-4 -19h-10v-4q2 0 2 -2 q0 -6 -7.5 -13.5t-25.5 -7.5v-8h-18v-30l6 -2q0 -10 6 -13.5t6 -13.5q0 -6 -8 -6t-10 -2l-7 -76q-25 0 -35 -4t-14 -9t-5 -11.5t-5 -12.5h-6v-106q-10 2 -25 2h-37h-2h-32t-18.5 3t-8.5 12t-2 30h-10v28v27h10v23h-10v24l-49 6v10h-11q-2 12 -2 31v45q-2 -2 -8 -2q-2 0 -3 5 t-1 7t2 5v4q0 2 10 2v32l-55 3q-6 25 -6 57v29h-2q-16 0 -35.5 4t-28.5 4q-4 0 -8 -1t-8 -1z" />
<glyph unicode="z" d="M381 715v8q-16 -6 -16 -14q-49 0 -71 5t-34 5q-10 0 -31.5 -6t-31.5 -6q-14 0 -23 2v6q-8 -2 -22.5 -3t-30.5 -1h-31q-14 0 -22 -2v-45q0 4 6 4q4 0 4 -13h-10v-51q-2 0 1 2t13 4q0 -6 6 -8q16 0 25.5 1t13.5 1q2 0 3 -3t9 -3q6 0 19.5 6t15.5 6q14 0 30.5 -11t28.5 -11 q20 0 57.5 10t59.5 10q14 0 25 -4l-2 -2q0 -4 5 -5t5 -7q10 0 14 4t15 4q23 0 46 -5t29 -5l-4 -4h9q6 0 6 -4v-7q0 -4 -2 -4t-3 1t-6 1q0 -10 -1 -15t-3 -11h-10q0 -4 7 -6t7 -11q-31 -14 -49 -16q2 -2 2 -4q0 -8 -16 -8q0 -6 -3 -18.5t-26 -12.5v-2q0 -4 -6 -9t-6 -9v-3 q-10 0 -14 -6t-6.5 -13t-4.5 -13t-8 -6h-6q-4 2 -6 2h-2q-8 0 -12.5 -9.5t-6.5 -22.5t-4 -28.5t-6 -25.5q-2 -4 -19.5 0t-35.5 -19q-16 -16 -22.5 -29.5t-18.5 -3.5l-9 -5t-14 -13v-39h-30q4 -2 4 -4t-10 -6q-4 4 -5 10h-18q0 -41 -10 -41h-6q-10 0 -25.5 -4t-19.5 -4v-137 q-4 0 30 -27q6 -2 15 -2q8 0 20 8t23 8q2 -4 23.5 -6t39.5 -12q76 8 115 11t41 3q0 -2 -1 -3l-1 -1q0 -4 5 -5t5 -5h10q55 0 67.5 9t18.5 9q8 0 8 -14h101q0 2 -1 3t-1 3q0 6 6 6q2 0 4 -1l2 -1v-10l31 2q0 6 3 9t3 7q2 0 3 -1t5 -1t5 6.5t3 6.5q6 0 8 -2v90q-29 0 -49 1 t-35 3v8q-6 0 -6 -4v-4q-10 -2 -20 -2h-21h-24t-21 2v8h-26q0 -2 1 -3t1 -3q0 -6 -17 -6v12q-27 -20 -34 -20q-8 0 -17.5 5t-9.5 15h-96v-8q-8 -2 -25 -2h-10q-4 0 -8 2v8q-35 0 -40 7t-5 9q0 -2 13 12.5t30 14.5h2q-2 2 -2 6t5 12.5t34 8.5v4q0 10 10 20.5t22.5 19.5 t23.5 15t15 8q6 4 10.5 18.5t14.5 18.5q4 4 21.5 6t25.5 27q6 31 17.5 41t20.5 14t16 7t7 18q23 23 41.5 36t14.5 13q4 0 8 -4v29q37 23 51 22v27l8 4q0 6 10.5 17t32.5 11v9v2q0 6 10 6v41q-6 0 -8 1l-2 1v6h10v25h-10v20v16q-20 10 -34.5 14.5t-26.5 4.5q-14 0 -42 -6 t-42 -6q-8 0 -15.5 1t-19.5 3t-33.5 3t-54.5 1z" />
<glyph unicode="{" d="M535 -156l-5 39q-10 0 -10 15h15v20q-2 -2 -7 -2l-13 12q-13 11 -42 11l-2 43q-10 0 -10 4l-49 6q0 4 -7.5 6t-7.5 8l15 2v25h-9q-6 27 -6 90q-2 -2 -4 -2q-4 0 -6 4t-2 8q0 12 13.5 20.5t11.5 8.5l2 80h-6q-8 0 -9 8q2 4 6.5 5t8.5 1v20h-9v121h9v33q-2 -2 -6 -2 q-8 0 -9 10h-2q-8 0 -19 6.5t-22 6.5q-2 0 -3 -1l-1 -1q-2 10 -2 20v20q0 27 9.5 38.5t39.5 23.5v37q-8 0 -8 14q10 16 21 16h2q0 8 -8.5 7.5t-8.5 3.5q0 14 17 14q0 18 -15 21l6 167l9 5h-2v2q-2 0 -3 -1t-4 -1q-6 6 -6 16q0 2 6 12h9q-2 2 -2 6q0 10 20.5 22.5t40.5 29.5 v16h-10l-2 2q0 2 -2 4q0 4 9 11.5t20.5 13.5t21.5 11t12 5v37q-2 -2 -4 -2t-3 4t-1 6q0 6 8 6v13h-6v16h-14q-2 2 -3 5t-3 5h-39q-27 0 -31 -10l-4 -43q-14 0 -17 -8q-6 4 -7 7t-5 3q-8 0 -20.5 -8t-20.5 -10l-2 -43h-41q4 -4 4 -5q0 -4 -10 -4q0 -23 -6 -24h-4v-15h4 q0 -39 4 -76.5t8 -74.5h-6v-207l2 2h2t2 -8q-74 -18 -119 -19l7 -34q2 -2 6 -20.5t26 -28.5v-19h52v-12l10 -2q0 -14 7 -36t7 -38q0 -4 -1 -6l-1 -2h6v-58h-6v-139h6v-65h-6v-15h6v-49l-6 -4q0 -6 6 -6v-29h-6v-12h6v-18q39 0 43 -5v-20h10v-16h7q8 -4 8 -19h37v-24h8 q4 -4 4 -17q0 2 2 2q8 0 8 -12q6 8 23 8q16 0 14 0q18 0 43 -8q0 18 12 18q5 0 9 -2zM389 932h-8v26q-10 0 -10 3l4 2h14v-31z" />
<glyph unicode="|" d="M412 551v135q-6 0 -10.5 1t-0.5 3q4 4 11 4v43h-6q-4 16 -5 39q-4 -2 -6 -2v0q-2 0 -4 4v4v2t2 4q-2 2 -2 7v2h4h6q0 29 1 47t4 28h6v15h-6q-2 10 -3 22v25v27q0 14 3 24l6 4v0q0 2 -2 2l-1 -1t-3 -1q-2 10 -3.5 29.5t-1.5 46.5h-18q-2 2 -2 10q-10 -10 -21 -10h-8v-8 q-27 0 -30 -8q-2 0 -3 8h-16v-13q16 0 24.5 -7t8.5 -13q0 -2 -8 -18h-25v-15h6v-18h25q2 -4 2 -12q0 -10 -12.5 -13.5t-20.5 -9.5v-16h6q0 -27 -6 -27v-39h6v-16q12 0 13 -9q0 -4 -13 -4v-30h10q-10 -6 -10 -29q0 -6 2 -11t2 -9q0 -6 -2 -8l-2 -3h-6v-16l2 2q8 0 8 -6 q0 -2 -3 -5l-3 -3q-2 0 -4 4v-27h6v-37q8 8 10 8l1 -5q2 -5 2 -11q-4 0 -8.5 -7t-8.5 -7l-2 -25l2 2l4 -4q4 -4 4 -14v-2q-4 -2 -6 -2t-4 2v-27q6 0 31 -14h28q-4 2 -4 6q0 2 2 2h5q12 0 12 -8q4 0 4 8h31zM422 -156v27h-10v127h10v14h-10q0 8 -1 14.5t-1 14.5t1 13t1 14h10 v20h-10v43q-2 -2 -4 -2q-6 0 -7 12q4 4 11 4v13h-6q-2 4 -3 14q0 10 3 14h6v144l-62 6q-6 0 -19.5 -3t-21.5 -3v-45h-6v-21h6q6 -10 6 -20t-6 -19h-6v-39q6 0 6 -4v-327h10q0 -2 1.5 -6.5t1.5 -10.5h14q0 -4 6 -10q23 4 39 7t27 3h4q-2 2 -2 6v2h2h2q6 0 8 -2z" />
<glyph unicode="}" d="M539 498q0 12 -15.5 17t-15.5 13v0q2 0 2 4h-84q0 8 -6 9q-6 0 -6 2l-2 276q-6 6 -6 15q0 4 6 16l2 8h-2q-4 0 -5 7t-6 7l-4 -2v2q0 10 -8 12l-8 3q0 10 4 13t23 9v21q-10 0 -28 6t-26 6v21h-6v34q-2 -4 -6 -4q2 0 -3 2t-14.5 5.5t-17.5 6.5t-10 5v20q-6 0 -18.5 7.5 t-18.5 9.5h-45q2 -2 2 -7q0 -10 -22 -10v-53h-9v-21q18 -25 60 -36v-13l2 2q6 0 7 -6t5 -6q4 -4 4 -27h6q4 0 10.5 -1t16.5 -7v-24h8q0 -23 1 -59t1 -87l1 2t5 2q6 0 6 -8v-4q-2 -2 -4 -2q-6 0 -8 2v-59q2 4 6 4q2 -2 4 -7l2 -6q-6 -6 -12 -6l6 -80q6 -6 6 -18q0 6 11 6 q6 0 18 -10t12 -29h5q4 -12 4 -22q0 -8 -4 -21h-17v-8q-2 -2 -10 -2q-6 0 -14 2h-5q-10 0 -12 -8l6 -57q6 -4 6 -19q0 -12 -6 -16l-6 -35h6q6 -6 6 -23q0 -14 -6 -22l-6 -10h6q4 -10 5 -20.5t1 -20.5t-1 -20.5t-5 -20.5l-6 -31h6q4 -16 5 -34.5t1 -39.5q0 -20 -1 -37.5 t-5 -33.5h-39v-9q-16 -16 -16 -22t-4 -19h-29v-10q-16 -4 -22 -7t-8 -5v-21q4 4 6 5q6 0 6 -15q0 -8 -12 -8v-27h6q6 0 6 -16l2 2q4 0 16 -18h72q2 10 8 26.5t16.5 30.5t30 24.5t49.5 10.5h7q0 29 18 35v18h-6q-2 10 -4 22.5t-2 24.5t2 23.5t4 23.5h6q0 6 -6 6q-2 20 -4 39 t-2 39q0 18 2 38t4 38h6v25h-6q-2 4 -4 11t-2 17q0 8 2 15.5t4 15.5h6v16h-6q-2 4 -4 7.5t-2 7.5t2 7t4 7h6q2 4 4 5t2 3q0 6 -10 5t-10 3t4 10.5t6 6.5t4 -2v26h6q6 0 6 4v2q29 0 33 -6q2 0 8 4.5t15 4.5q4 0 6 -3q6 29 30 39v31q-2 -4 -6 -4q-8 0 -8 12q8 2 8 11 q0 10 4 10q7 0 11 -4z" />
<glyph unicode="~" d="M655 942v100q-4 0 -29.5 4.5t-39.5 4.5l-10 -3q-9 -4 -21 -10t-24.5 -16t-16.5 -25q0 2 -2 2q-14 0 -21.5 -24.5t-7.5 -36.5q-33 6 -52 5t-19 26v16q-8 14 -19.5 15t-21 2.5t-15.5 6.5t-6 29v11q-4 0 -9 1t-9 1q-18 0 -41 -4.5t-31 -4.5q-4 0 -10 1t-10 1v5q-4 0 -5.5 1 t-3.5 1q-8 0 -15 -6.5t-17 -6.5q-4 0 -9 4q0 -43 -10 -43h-6q-6 0 -47 -20v-33h-6h-17q-16 0 -18 -17.5t-2 -25.5h-8q0 -4 5 -5t9 -9q0 -18 -22 -19v-14q2 2 22 -16q16 0 22.5 -6.5t6.5 -10.5h57q0 33 10 33v2q0 6 9 6h14v6q12 2 31 13v30q4 8 51 9q0 -4 8 -6.5t10 -6.5v-20 q10 0 31 -9l22 -8v-32q18 0 29 -9v-4q0 -2 6 -2q8 0 9 -8v-4q2 4 6 4t10 -7t14 -7q4 0 6 2v2q0 6 23 6l2 6q4 0 4 6q0 8 4 9q8 0 8 -3q0 4 -6 5q-6 0 -6 4l8 8q8 8 14.5 15t8.5 9q4 0 4 -6l29 -2q-2 2 -3 6q0 6 9 7q8 0 8 -13q6 0 6 4t23 4q8 0 14 9.5t11 20.5t12.5 20.5 t21.5 9.5q16 0 18 10z" />
<glyph unicode="&#xa0;" />
<glyph unicode="&#xad;" d="M655 451v69q-4 0 -13 8.5t-13 10.5h-267v10h-102q-4 -12 -19.5 -11t-19.5 -10q-4 0 -4 11l-141 -4q0 -6 -8 -7v-88q35 -8 61.5 -14t46.5 -10h21q14 0 36.5 2l45 4t43 4t30.5 2l2 -4q8 0 15.5 2t11.5 2v-4q39 0 41 4q12 -10 21.5 -6t11.5 -6q35 4 59.5 6t44.5 2h14 q2 4 7 4h8v-4h30q0 8 13.5 14.5t23.5 12.5z" />
<glyph unicode="&#xc9;" d="M653 27v30h-6q0 2 -6 10.5t-13 18.5t-7 8q0 4 2 6h-17q-16 0 -46 3t-63.5 6.5t-65.5 6.5t-50 3h-21q-4 -4 -16 -4t-14 -11q-8 0 -25.5 2.5t-37 5.5t-38 6t-28.5 3h-6v31q-4 -2 -9 -2q-6 0 -6 14q0 10 15 10v64h-11v114h11l2 56q4 0 6 8t10 8h4q20 0 52 10t50 10l19 -3 q20 -3 29 -13q6 0 21 4t32 4q8 0 20 -4v-4q27 4 59.5 10t59.5 6q14 0 21 -2q-2 4 -2 11v4q2 2 10 2l2 78q-10 0 -10 4v4q-27 4 -49.5 6t-41.5 2q-37 0 -69.5 -7t-52.5 -9v-11q-4 -2 -11 -2h-8q-16 0 -24 2v11h-31q4 -4 6 -7l2 -2q0 -4 -4 -5t-8 -1q-25 16 -48.5 23.5 t-54.5 7.5h-6l3 6t1 8q0 10 -8 29.5t-8 32.5q0 8 4 16h-8v29h8q0 31 2 33l6 30h-6q-2 2 -2 23v12t2 10h6q4 12 4 13q0 2 -10 2h-4h-2q2 2 3 8t3 6v0q2 0 6 -2l4 59q8 0 9.5 7.5t31.5 7.5v6q4 0 11.5 2t13.5 2q8 0 15 -2t11 -2v-6h17l-2 2v2q0 6 14 6q0 -4 1 -5t1 -5h17 q-4 4 -5 6q0 4 15 4q4 -8 4 -10h29v6q8 4 21 5t20 7q2 -2 2 -8l69 4q0 4 6 4q8 -4 9 -8h116q0 6 8.5 11t14.5 5q4 0 6 -2v101q-2 -2 -4 -2t-3 4t-1 6t2 2h-17v-10q-10 -2 -16 -2h-12q-18 0 -29 2v10h-139v-10q-8 -2 -14 -2q-14 0 -23 2v10q-12 -12 -35 -12h-45h-41 q-20 0 -37 2v10h-30v-10q-6 -2 -15 -2h-12q-23 0 -27 2v10q-8 -4 -34.5 -10.5t-32.5 -16.5v-20q0 2 2 2q6 -2 6 -15q-2 -4 -8 -10l4 -270q4 -2 4 -14q0 -8 -4 -15l-4 -221h4q4 -4 4 -22q0 -16 -4 -23l-4 -129h4q4 -4 4 -16t-4 -19l-4 -41h4q4 -6 4 -22q0 -14 -4 -21h-4 q0 -4 -2 -10t-2 -10q0 -10 6 -37t6 -47v-11q0 2 2 3q2 0 8 -9.5t12 -11.5h17q-2 4 -2 10q0 8 10 8l7 -5t15.5 -10t15.5 -9t7 -2h6q14 0 39 4t35 4t22 -4v-4q4 0 7.5 -1t5.5 -1q14 0 29.5 5t19.5 5q6 0 10 -1l12 -3v-4q27 10 50 10q16 0 39 -6v-4q8 8 23 10t30 2h28 q14 0 21 4v10q8 2 24 3q20 0 27 -3v-10h31v10q0 6 4 7h16z" />
<glyph unicode="&#xe9;" d="M664 106v68h-11v21q-18 0 -26 -9v9q-10 -6 -26.5 -7.5t-33.5 -1.5q0 -12 -8 -20t-19.5 -13.5t-22.5 -8.5t-17 -3v-30q-37 -14 -60 -15h-2q-4 0 -10 -2t-8 -2t-2 4l2 2q-18 0 -28 -1l-11 -1h-6h-23t-51.5 3t-52 11.5t-23.5 24.5q-2 -4 -6 -4h-2q-6 0 -11 7t-9 7 q-6 0 -11 -4v123q8 0 12.5 6t14.5 6q2 -2 2 -6v-6q170 0 205 6v-6q55 0 67 6h-2l19 6q10 0 10 -12q0 6 59 6v-6q0 -2 2 -2q4 0 6.5 6t4.5 6l4 -4q14 41 14 66v12h8q-4 2 -4 6q0 2 11.5 15.5t27.5 13.5q2 0 6 -2q-2 4 -2 10v4q2 0 4 1t4 1l5 37q-2 -4 -4 -5l-1 -1q-6 0 -7 4 t-1 6q0 4 4 8.5t9 4.5v24q-2 -2 -5 -2v0q-2 0 -5 4l-3 4v0q0 2 2 2v2q0 8 11 9v34q-10 0 -11 2l-49 5v40q-29 14 -47 17.5t-18 32.5l-2 -2q-4 0 -6.5 4t-2.5 6l2 2h-43q0 14 -16 14v41h-133q4 -4 4 -8q0 -2 -12 -6l-4 4t-2 10l-66 -6v-6h-10q-2 0 -2 -4v-4l-16 -3 q-17 -3 -17 -5q0 -6 2 -9h-2q-12 0 -31.5 -9t-31.5 -9h-9q2 -2 4 -2h2q0 -8 -12 -8q0 -18 -6 -25h-2q0 2 -2 2q-10 0 -23.5 -7t-19.5 -7v-17v0q0 2 2 2q10 0 15 -12t5 -16q0 -14 -6 -17h-6q0 -10 -8 -22t-10 -19l-2 -53h-11v-37h11q2 -2 2 -8q0 -10 -2 -14h-11v-27h11 q2 -10 2 -20v-21v-18t-2 -19h-11v-10h11q2 -2 2 -10v-4q-4 -14 -13 -15h11q2 -47 2 -84v-61q0 2 9 -2t21.5 -12.5t23.5 -17.5t13 -17q31 0 38 -5t7 -14v-16q33 -25 45 -25v9h107v-9h119v9h73q10 4 20.5 21.5t31.5 17.5h6q12 0 14 8t4 19t7 19.5t22 8.5h8q1 6 21 26zM553 420 q-23 0 -23 -23q-6 6 -8 6q-6 0 -12 -6t-10 -6l-8 4q-9 4 -19 4q-12 0 -26.5 -2t-57.5 -2v2q0 6 -2 6h-4q-14 0 -31.5 -4t-62.5 -4q-2 0 -10.5 1t-24.5 1q0 -2 -21 -2q-2 2 -9 0t-16 0t-16.5 11.5t-7.5 33.5q0 25 -10 35h8q4 4 7.5 21.5t7.5 17.5h4q0 29 14 46.5t27 17.5 q6 0 12 -3v-4l160 -6q4 10 24 10v-4q4 -2 12.5 -4t20.5 -2l-2 -4q0 -2 10 -2q0 -12 7.5 -22.5t17.5 -16.5t20.5 -11t14.5 -9v-2q0 -18 7 -43t7 -35z" />
<glyph unicode="&#x2dc;" d="M655 942v100q-4 0 -29.5 4.5t-39.5 4.5l-10 -3q-9 -4 -21 -10t-24.5 -16t-16.5 -25q0 2 -2 2q-14 0 -21.5 -24.5t-7.5 -36.5q-33 6 -52 5t-19 26v16q-8 14 -19.5 15t-21 2.5t-15.5 6.5t-6 29v11q-4 0 -9 1t-9 1q-18 0 -41 -4.5t-31 -4.5q-4 0 -10 1t-10 1v5q-4 0 -5.5 1 t-3.5 1q-8 0 -15 -6.5t-17 -6.5q-4 0 -9 4q0 -43 -10 -43h-6q-6 0 -47 -20v-33h-6h-17q-16 0 -18 -17.5t-2 -25.5h-8q0 -4 5 -5t9 -9q0 -18 -22 -19v-14q2 2 22 -16q16 0 22.5 -6.5t6.5 -10.5h57q0 33 10 33v2q0 6 9 6h14v6q12 2 31 13v30q4 8 51 9q0 -4 8 -6.5t10 -6.5v-20 q10 0 31 -9l22 -8v-32q18 0 29 -9v-4q0 -2 6 -2q8 0 9 -8v-4q2 4 6 4t10 -7t14 -7q4 0 6 2v2q0 6 23 6l2 6q4 0 4 6q0 8 4 9q8 0 8 -3q0 4 -6 5q-6 0 -6 4l8 8q8 8 14.5 15t8.5 9q4 0 4 -6l29 -2q-2 2 -3 6q0 6 9 7q8 0 8 -13q6 0 6 4t23 4q8 0 14 9.5t11 20.5t12.5 20.5 t21.5 9.5q16 0 18 10z" />
<glyph unicode="&#x2000;" horiz-adv-x="682" />
<glyph unicode="&#x2001;" horiz-adv-x="1365" />
<glyph unicode="&#x2002;" horiz-adv-x="682" />
<glyph unicode="&#x2003;" horiz-adv-x="1365" />
<glyph unicode="&#x2004;" horiz-adv-x="455" />
<glyph unicode="&#x2005;" horiz-adv-x="341" />
<glyph unicode="&#x2006;" horiz-adv-x="227" />
<glyph unicode="&#x2007;" horiz-adv-x="227" />
<glyph unicode="&#x2008;" horiz-adv-x="170" />
<glyph unicode="&#x2009;" horiz-adv-x="273" />
<glyph unicode="&#x200a;" horiz-adv-x="75" />
<glyph unicode="&#x2010;" d="M655 451v69q-4 0 -13 8.5t-13 10.5h-267v10h-102q-4 -12 -19.5 -11t-19.5 -10q-4 0 -4 11l-141 -4q0 -6 -8 -7v-88q35 -8 61.5 -14t46.5 -10h21q14 0 36.5 2l45 4t43 4t30.5 2l2 -4q8 0 15.5 2t11.5 2v-4q39 0 41 4q12 -10 21.5 -6t11.5 -6q35 4 59.5 6t44.5 2h14 q2 4 7 4h8v-4h30q0 8 13.5 14.5t23.5 12.5z" />
<glyph unicode="&#x2011;" d="M655 451v69q-4 0 -13 8.5t-13 10.5h-267v10h-102q-4 -12 -19.5 -11t-19.5 -10q-4 0 -4 11l-141 -4q0 -6 -8 -7v-88q35 -8 61.5 -14t46.5 -10h21q14 0 36.5 2l45 4t43 4t30.5 2l2 -4q8 0 15.5 2t11.5 2v-4q39 0 41 4q12 -10 21.5 -6t11.5 -6q35 4 59.5 6t44.5 2h14 q2 4 7 4h8v-4h30q0 8 13.5 14.5t23.5 12.5z" />
<glyph unicode="&#x2012;" d="M655 451v69q-4 0 -13 8.5t-13 10.5h-267v10h-102q-4 -12 -19.5 -11t-19.5 -10q-4 0 -4 11l-141 -4q0 -6 -8 -7v-88q35 -8 61.5 -14t46.5 -10h21q14 0 36.5 2l45 4t43 4t30.5 2l2 -4q8 0 15.5 2t11.5 2v-4q39 0 41 4q12 -10 21.5 -6t11.5 -6q35 4 59.5 6t44.5 2h14 q2 4 7 4h8v-4h30q0 8 13.5 14.5t23.5 12.5z" />
<glyph unicode="&#x2013;" d="M655 451v69q-4 0 -13 8.5t-13 10.5h-267v10h-102q-4 -12 -19.5 -11t-19.5 -10q-4 0 -4 11l-141 -4q0 -6 -8 -7v-88q35 -8 61.5 -14t46.5 -10h21q14 0 36.5 2l45 4t43 4t30.5 2l2 -4q8 0 15.5 2t11.5 2v-4q39 0 41 4q12 -10 21.5 -6t11.5 -6q35 4 59.5 6t44.5 2h14 q2 4 7 4h8v-4h30q0 8 13.5 14.5t23.5 12.5z" />
<glyph unicode="&#x2014;" d="M655 451v69q-4 0 -13 8.5t-13 10.5h-267v10h-102q-4 -12 -19.5 -11t-19.5 -10q-4 0 -4 11l-141 -4q0 -6 -8 -7v-88q35 -8 61.5 -14t46.5 -10h21q14 0 36.5 2l45 4t43 4t30.5 2l2 -4q8 0 15.5 2t11.5 2v-4q39 0 41 4q12 -10 21.5 -6t11.5 -6q35 4 59.5 6t44.5 2h14 q2 4 7 4h8v-4h30q0 8 13.5 14.5t23.5 12.5z" />
<glyph unicode="&#x2018;" d="M254 1096v-248q20 -4 34.5 -12.5t14.5 -22.5h6q0 -12 8 -12t9 -4q0 -2 -2 -5.5t-5 -7.5q8 0 17 2q4 -2 8 -6q4 4 10 4h15l4 13q2 2 14 2q14 0 14 -2t7 -13q10 10 12 22.5t2 33.5h41l-2 2v2q0 4 10 4v41q-4 2 -20.5 10t-18.5 10v23h-10q2 2 2 6q0 8 -10.5 16.5t-21.5 18.5 t-21.5 25.5t-10.5 37.5v8q-12 0 -12 7v2q2 6 12 6l2 51h17v6h29v31q-10 8 -19.5 14t-15.5 10l-39 -4q-18 0 -25.5 -20.5t-7.5 -24.5h-18q-6 -4 -11.5 -15t-15.5 -11h-2z" />
<glyph unicode="&#x2019;" d="M471 858v248q-20 4 -34.5 12t-14.5 23h-6q0 12 -8 12t-9 4q0 2 2 5t5 7q-8 0 -17 -2q-4 2 -8 7q-4 -4 -12 -5h-13l-4 -12q-2 -2 -14 -2q-14 0 -14 2t-7 12q-14 -14 -14 -55h-41q2 -2 2 -4v0q0 -4 -10 -4v-41q4 -2 20.5 -10t18.5 -11v-22h10q-2 -2 -2 -6q0 -8 10.5 -16.5 t21.5 -19.5t21.5 -25.5t10.5 -36.5v-9q12 0 12 -6v-2q-4 -6 -12 -6l-3 -51h-16v-6h-29v-31q10 -8 19.5 -14.5t15.5 -10.5l39 4q18 0 25.5 20.5t7.5 24.5h18q6 4 11.5 15.5t15.5 11.5h2z" />
<glyph unicode="&#x201c;" d="M98 1083v-243q10 0 18.5 -1t12.5 -1v-7q29 0 29 -10v-30q27 -18 35 -19q25 0 52 7t27 42h2q14 0 15 15v2q6 0 13 1t15 1v43h-6v24h-30v17h-9q-4 4 -4 24q-23 0 -42 28t-19 48q0 4 1 10t1 10q-2 0 -3 -1t-3 -1q-8 0 -8 17h14v28q-14 0 -14 9q18 12 63 12v41l-47 25 q-10 0 -23.5 -5.5t-23.5 -5.5h-6q-8 -35 -15.5 -45t-13.5 -10t-12 3t-11 -3v-25h-8zM397 1075l4 8q2 -10 2 -16v-8q0 -8 -2 -15l-4 -53h4q2 -6 2 -18t-2 -17l-4 -59l4 4q2 0 2 -4v-2q0 -12 -6 -12v-43q6 -2 6 -9h54v-36h6v-19h80q0 2 -1 3t-1 3q0 6 6 7.5t10 1.5h8v40h29v7 q10 4 18.5 5t12.5 5v33q-8 0 -19.5 11t-19.5 15v17h-8q-6 6 -7 24h-6v13q-20 4 -53 22v119h23v6q16 0 30 10v37q-4 -4 -6 -5l-2 -1q-6 0 -6 14h-8q-12 0 -31.5 5.5t-34.5 5.5h-8t-6 -3q2 -2 2 -4q0 -12 -8 -22t-18.5 -17.5t-20.5 -12.5t-15 -7q0 -4 3 -6q0 -8 -7.5 -12.5 t-7.5 -8.5t6 -6z" />
<glyph unicode="&#x201d;" d="M625 862v244q-10 0 -18.5 1t-12.5 1v6q-29 0 -29 10v31q-27 18 -35 19q-25 0 -52 -7.5t-27 -42.5h-2q-14 0 -15 -14v-2q-6 0 -13 -1t-15 -1v-43h6v-25h30v-16h9q4 -4 4 -25q23 0 42 -27.5t19 -47.5q0 -4 -1 -10.5t-1 -10.5q2 0 3 1t3 1q8 0 8 -16h-14v-29q14 0 14 -8 q-18 -12 -63 -12v-41l47 -25q10 0 23.5 5t23.5 5h6q8 33 15.5 44.5t13.5 11.5t12 -3.5t10 3.5v24h9zM326 870l-4 -8l-3 15v10q0 8 3 14l4 53h-4q-2 6 -3 19q0 12 3 16l4 60q-4 -4 -4 -5q-2 0 -3 3v4q0 12 7 12v43q-6 2 -7 8h-53v37h-6v18h-80q0 -2 1 -3t1 -3q0 -6 -6 -7 t-10 -1h-8v-41h-29v-6q-10 -4 -18.5 -5t-12.5 -5v-33q8 0 19.5 -11.5t19.5 -15.5v-16h8q6 -6 7 -25h6v-12q20 -4 53 -22v-119h-23v-6q-16 0 -30 -11v-36q4 4 6 5l2 1q6 0 6 -15h8q12 0 31.5 -5t34.5 -5h8t6 2q-2 2 -2 4q0 12 8 22.5t18.5 17.5t20.5 12.5t14 7.5q0 4 -2 6 q0 8 7.5 12t7.5 8q0 2 -6 6z" />
<glyph unicode="&#x202f;" horiz-adv-x="273" />
<glyph unicode="&#x205f;" horiz-adv-x="341" />
<glyph unicode="&#x25fc;" horiz-adv-x="747" d="M0 748h748v-748h-748v748z" />
</font>
</defs>
</svg>
