<?xml version="1.0" standalone="no"?>
<!DOCTYPE svg PUBLIC "-//W3C//DTD SVG 1.1//EN" "http://www.w3.org/Graphics/SVG/1.1/DTD/svg11.dtd" >
<svg xmlns="http://www.w3.org/2000/svg">
<metadata></metadata>
<defs>
<font id="merchant_copy_wideregular" horiz-adv-x="1449" >
<font-face units-per-em="2048" ascent="1638" descent="-410" />
<missing-glyph horiz-adv-x="500" />
<glyph horiz-adv-x="798" />
<glyph horiz-adv-x="798" />
<glyph unicode="&#xd;" />
<glyph unicode=" " />
<glyph unicode="!" d="M965 610v25h-9q-4 2 -4 10q0 10 4 14h9q0 4 1 9.5t1 11.5q0 23 -8.5 55.5t-8.5 40.5q0 14 6 31h9v24h-9q-6 39 -6 123q-12 0 -21 1t-18 3v9h-37q2 -2 3 -6q0 -6 -17 -7v13h-33q-2 2 -2 8v4q2 6 9 6q4 0 6 -2q-6 45 -10 67l-3 23l-61 8q-2 0 -3 1t-3 1q-14 0 -26.5 -6 t-26.5 -6h-7h2q0 -2 -6 -4t-10 -2q-2 0 -2 4q0 2 2 2h-68q2 0 3 -2q0 -4 -15 -4v-86q-2 2 -8 2l-2 -2q0 -6 2 -8q-6 -6 -66 -6v-9h-10q-29 0 -39 -12v-395q41 -14 60 -27q-2 2 -2 8t16 7v-15h16q25 0 25 -20v-29h10v-125q6 6 8 6q4 0 5 -14q12 0 25 -6t13 -17l80 -2 q-6 2 -6 7q0 2 17 2q12 -6 12 -7l16 -2v4q12 6 23 7q4 0 6 -1t6 -1l8 14t17 12l4 123h10l2 39q12 12 59 12v8q16 10 27 11q10 0 10 24q2 37 6 43h9zM967 96l-4 21q-8 0 -9 12q-94 0 -110 8v29q-18 0 -31 22h-39q0 -2 1 -3t1 -3q0 -6 -14 -6v12h-131q-2 -2 -8.5 -14 t-12.5 -12h-2q0 -6 1 -10.5t1 -8.5t-1 -6l-1 -2q-82 0 -102 -6q2 -2 2 -6t-8 -8v-31q0 2 1 0t8 -5t25.5 -8t53.5 -12q0 -14 16.5 -17t16.5 -22l90 -4v-6h18l-2 2v2q0 4 14 9q12 -10 13 -11l2 -2q12 0 35.5 7.5t42.5 7.5q4 0 5 -1t5 -1q4 4 8 4q-2 2 -2 8t18.5 21.5 t36.5 15.5q6 0 10 -2v8h29q0 18 23 18z" />
<glyph unicode="&#x22;" d="M1257 815l-4 14q-4 6 -4 21q0 12 4 16l4 99q-2 -2 -4 -2q-4 0 -5 4t-1 8q0 6 6 6q2 0 2 -2h2q4 8 5 16q0 12 -8.5 38t-8.5 36q0 6 4 14q-4 4 -11 5.5t-11 5.5l-88 4v53q-23 0 -23 -4q-47 10 -123 10v2q-10 0 -30.5 -3t-51.5 -13v-51l-59 -7q-18 0 -31 7q0 -4 -6 -5.5 t-6 -3.5q0 -4 2 -6q-4 -4 -18 -4l4 -31q0 -6 7 -9t7 -13l20 -2q-6 2 -6 6t4.5 5t6.5 1q8 0 9 -15.5t3 -4.5q4 0 5 5t5 5q2 0 2 -2h2h2q10 0 10 -17h31v-18q20 0 21 -25q27 0 56.5 -10t33.5 -14v-16h8q2 -27 3 -45.5t1 -32.5h8q0 -16 -8 -25h-22v-8q-16 -2 -39 -3t-54 -1v-39 h9q4 -4 4 -16q2 0 3 1t3 1q4 0 4 -11q57 0 61 -6q14 6 119 6q0 6 11.5 11.5t17.5 5.5h2q0 2 -1 3t-1 3q0 10 15.5 19.5t60.5 9.5q0 8 13 16t23 8zM657 813v164l-8 -4q-4 0 -4 10t12 10v21q-4 -2 -8 -2t-4 14q0 12 6 12q4 0 6 -2v37h-16q-2 2 -2 4t-2 4h-90q2 0 2 -2v0 q0 -6 -12 -8q-10 0 -11 8v2q0 14 6 15v10h-6v35q-10 2 -14 10q-2 -2 -8 -2q-8 0 -15 2q-12 0 -16 -10v8l-51 -2q0 -4 -8 -6q-4 4 -5 6t-14 4q-4 -8 -6 -10h-76q0 -10 -14 -11v-40l-59 -3q0 -4 -7 -4q-4 0 -4 -2q0 -4 2 -6q-4 -4 -32 -4q0 -16 -9 -16l-2 -21q6 -10 23.5 -15 t36 -9t34 -6.5t17.5 -4.5v-24h10q4 -4 4 -19h13q8 0 8 -6q25 6 41 6q6 0 27.5 -8t21.5 -37v-39h8q4 -20 4 -34q0 -8 -1 -17.5t-3 -19.5q-37 -2 -63.5 -3t-44.5 -1v-6q-4 -4 -11 -5v-34q4 4 9 4q4 0 9 -6.5t15 -6.5q2 0 3 1t3 1v3l1 1t5 1q16 0 39 -9.5t39 -9.5t40 3t59 3v2 q0 16 13 27.5t60 11.5v10q4 0 7 5.5t12 5.5q6 0 10 -2q0 18 12 18q6 0 8 -2z" />
<glyph unicode="#" d="M1317 362v72q-6 2 -29 25l-53 8h-31q2 0 2 -2v0q0 -4 -8 -6q-4 4 -4 8h-27q2 -2 2 -4q0 -4 -14 -4q-2 0 -2 4q0 2 2 4q-2 0 -12 1t-22.5 2t-23 4t-14.5 7q0 10 -2 32t-3 44.5t-3 43t-2 30.5h10l-2 41h9v24q-8 0 -9 11v2q0 10 10.5 19t10.5 11h2q12 0 35.5 15.5t36.5 15.5 q4 0 16 -4q-2 2 -2 4q0 4 14 4h10q4 -4 5 -4q0 -2 -2 -2v-2h75v6q0 14 25 21l-2 71h-133v13q-2 2 -6 2q-2 0 -3.5 -7.5t-5.5 -7.5q-6 2 -6 10l-80 3v88h-8q-6 86 -6 129q-10 0 -10 2q0 4 2 4h-111v-6h-80q0 -6 -9 -13.5t-11 -13.5v-233q-16 0 -49 -9.5t-49 -9.5l-5 8h-81 q2 -2 2 -6t-11 -8q-14 0 -14 8q0 4 2 6h-43v13h-8q-4 8 -4 24q0 14 4 23h8q-4 33 -7 53t-3 31v6q-2 -2 -4 -2q-4 0 -5 4t-1 8q4 2 6 2h2l2 29q-4 12 -24.5 11t-24.5 3v8h-142v-10q-33 -10 -34 -12l2 -31q2 4 4 4q8 0 8 -10q-4 -4 -8 -4l-4 -86h-11q0 -2 5.5 -4t5.5 -11 q0 -10 -11 -10v-22h11q4 -8 4 -17q0 -8 -4 -16h-11v-12q0 -18 -19.5 -20.5t-60.5 -2.5v-10h-26h-41t-45.5 -4t-30.5 -13v-55h8q16 -25 21.5 -25.5t21.5 -5.5v-8h21q43 0 51 -8q12 4 22.5 6t14.5 4q6 0 6 -10h51v-16l4 4q10 -8 13.5 -21.5t3.5 -29.5t-4 -37h-9v-90h11 q2 -10 2 -21v-20v-21q0 -10 -2 -20q-84 -6 -121 -6v-7q-20 -4 -92 -4v-2q0 -4 -9 -8v-37q0 4 3 4q2 -4 4 -6t2 -6l-9 -4v-39q4 0 8.5 -8t8.5 -8h112q41 0 62.5 -7.5t21.5 -50.5v-10h9q0 -16 1 -30.5t1 -28.5q0 -12 -1 -23.5t-1 -19.5q2 -8 11 -11.5t21.5 -7.5t23.5 -9 t15 -15h70q31 10 53.5 16t38.5 10l4 189h6v8q0 8 4 16q4 0 11.5 6.5t11.5 6.5q2 -2 2 -3q2 0 4 -2v9q53 2 95 3t71 1q-2 0 3 -2t5 -9h2v3q4 0 6 -6.5t7 -6.5h2q6 -4 6 -16h8v-137l8 -2q0 -6 7 -8.5t7 -8.5q0 -2 -1 -3t-1 -3h15q4 0 8 -8q25 10 47 10q12 0 44 -5t48 -5 q4 16 14.5 19t12.5 10q4 0 8 -5q16 10 16 46v75h9v33q-8 0 -9 4v2q0 4 1 5l1 1q2 0 3.5 -1t3.5 -1l4 49q2 0 8 5.5t15 12.5t21.5 13t24.5 6q16 0 47 -4t45 -6q15 18 60 18zM864 582l-8 -90h-6q0 -6 6 -9v-47q-29 -10 -50.5 -14t-39.5 -4q-10 0 -31.5 4t-32.5 4 q-14 0 -31.5 -2t-25.5 -4q-6 6 -22 6t-17 10q-2 39 -3 69t-1 50h-10v39h8q4 12 4 14q0 6 -8 10.5t-8 6.5l12 4l6 49q10 16 15 18q20 -4 24 -4q12 0 33.5 6.5t40.5 6.5h6v-9h88q18 -10 35 -16q-2 -6 -2 -16t8 -32t8 -38q0 -4 -1 -5t-1 -3q2 0 3 1t3 1l2 -2z" />
<glyph unicode="$" d="M1331 287l-4 12q-6 43 -6 213l-5 1t-5 3l4 4q-23 0 -49.5 2t-61.5 6q-4 12 -4 25h-10v18q-4 0 -22.5 1t-20.5 8q-18 -6 -31 -7h-6q0 4 -8 5.5t-8 3.5q0 4 2 6q-2 0 -3 -1l-1 -1q-4 0 -5.5 7t-3.5 7l-4 -4q-4 12 -4 27q-10 0 -10 4q0 2 2 4q-35 0 -45 -4t-21 -4h-4 q-12 2 -12 8q-16 -12 -31 -13q-12 0 -23 5.5t-36 5.5h-23q-23 0 -30 2v24h-11v127h11v25h-6q-6 0 -7 8q0 2 2 2v4q0 4 11 4l4 35q10 10 33 10q20 0 41.5 -4t35.5 -24v-17l1 1t4 1q8 0 8 -10q35 -2 63.5 -4t46.5 -6v-25q2 2 4 2q8 0 11.5 -12t27.5 -12q10 0 22.5 2t22.5 2 q16 0 26.5 -6t10.5 -29q20 0 21 -18v-4q6 0 29.5 5t37.5 5v6q4 0 10.5 9t16.5 9h2q0 10 -4 11q-2 0 -4 -2q0 2 -2 9t-2 11q0 6 10 6h2q0 2 1 3t1 5q0 16 -6 37t-6 31q0 12 2 16q-18 0 -15 4q-10 -4 -19 -5t-17 -1q-20 0 -40 5.5t-32 5.5v45q-4 0 -18.5 1t-33 2t-36 4 t-27.5 7v35q-10 0 -10 2v2q-63 6 -113.5 8t-85.5 2h-26q0 8 -5.5 15.5t-5.5 15.5q0 12 2 18h-10q-2 4 -2 13q0 10 2 16h10v22q-14 0 -14 5q0 2 2 4l-53 6q-2 0 -10 -5t-17 -5q-12 0 -22 8v2q-4 4 -12 4q-2 -2 -5 -2q-2 0 -2 2q0 4 2 6q-2 0 -3 1t-5 1q-12 0 -28.5 -6 t-28.5 -6h-8v-2q-8 0 -10.5 -7.5t-6.5 -7.5l-4 -59h-8v-31h-23v-8q-4 -4 -20 -6t-37.5 -4t-46.5 -2h-43q-14 2 -25.5 4t-21.5 6h-2q-4 0 -8 -5t-9 -5v-12q0 -31 -30 -31h-70v-2q0 -4 -8 -6l-4 -82q-41 -6 -72 -11.5t-49 -9.5q0 -12 -8 -12l-4 -57h8q4 -12 4 -21q0 -8 -4 -16 l-8 -2q0 -8 6 -9q8 0 8 -24h6q31 0 63.5 -4t32.5 -23l9 -2q0 -4 1 -8t1 -8q0 -2 -1 -4t-1 -4q12 0 12 -11q29 0 48.5 -1t31.5 -3v-8q2 2 4 2q4 0 6 -3t6 -3h2q4 -16 8.5 -30.5t4.5 -24.5v-4h10v-19q2 2 6 2q8 0 14 -22l119 2q-2 2 -2 6q0 6 18 6q8 0 9 -18q14 0 15 4t9 4 q4 0 21.5 -6t27.5 -27q0 -12 -14 -12l2 -31q2 6 8 6q4 0 4 -14q-4 -4 -12 -4v-29h8q2 -16 3 -28.5t1 -24.5q0 -14 -1 -27.5t-3 -27.5h-4q-6 0 -13 -5.5t-11 -5.5v4q-37 -6 -60 -6l-14 4q-8 -8 -29 -8q-29 0 -63.5 6t-53.5 8l-4 15q-2 10 -3 40.5t-1 84.5h-14q-2 2 -3 4t-3 4 h-142q-4 -10 -24 -10q-10 0 -15.5 1t-9.5 1q-10 0 -11 -11.5t-3 -15.5h-8q10 -10 11 -21.5t1 -17.5h10q2 -6 3 -11t1 -11q0 -10 -4 -23h-10v-31h10v-18q8 0 13 -6q16 0 29.5 1t23.5 1h12q20 0 25 -12v-21q-2 -8 -2 -14v-8h10q2 -4 3 -11.5t1 -21.5l2 2q4 0 14 -19h90v9 q14 2 27.5 3t26.5 1q14 0 26.5 -1t26.5 -3v-9h68q-2 2 -2 7q0 6 12 9t14 3q31 0 31 -27l8 -2q0 -12 7 -36.5t7 -43.5v-4l4 4q2 0 3 -8h84q0 14 14 14t24.5 -9t10.5 -5h4q6 0 13 3t13 3v-6h37q0 14 23 14l4 52l2 -2q2 0 3 6t5 6t6 -2q0 18 4 27q31 0 35 -6.5t23 -6.5 q12 0 27.5 2t30.5 5t28.5 6.5t17.5 3.5q12 0 29 -4q4 -2 12 15t19 19q41 8 70.5 14.5t51.5 10.5v4q0 12 19 31h8q18 0 41 8t35 8v2q0 9 16 25zM1087 338q-20 0 -20 -19h-20v-10q-2 2 -7 2q-6 0 -12 -5t-14 -5q-2 0 -3 1t-3 1v6q-4 -6 -11.5 -7t-13.5 -3t-11 -6t-5 -14 l-119 -3q0 57 -6 86h-8v21h8l6 94q4 0 11 8.5t7 16.5q4 -2 13 -2q4 0 8 7t8 7q8 0 12 -2v-10h35q4 -16 19.5 -26.5t25.5 -20.5l49 -6q6 -6 31 -7q-2 -2 -2 -4q0 -4 10 -4q4 -14 6 -16h6v-80zM606 625q-31 6 -69 6h-25q-12 0 -25 -2q0 10 -6 10q-4 0 -6 -2v25q-8 2 -8 8h-4 q-16 0 -42 6t-44 6q-4 0 -6 -1t-6 -1q0 16 -5 20h-6v39q4 -4 6 -4q4 0 5 13q0 10 -6.5 11t-6.5 3q0 4 2 6h6q4 4 5 27q2 6 11 11t9 9h8h19q16 0 35.5 3t35 11.5t15.5 24.5l-2 4q0 4 51 12v-2q0 -2 5 -3t5 -5v-2q4 -2 16 -2q8 0 13 2q0 -14 6 -14q4 0 6 2v-27l8 4v-2v-6h-8 v-35h8v-155z" />
<glyph unicode="%" d="M1382 211v43q-8 0 -8 2v2q2 6 6 6q2 0 2 -2v0v150q-10 0 -10 4q0 8 8 8l-2 31q-4 8 -4 12v4q-14 0 -41.5 6t-48.5 6h-12v2q0 12 -6 29.5t-6 26.5q0 4 1 7t1 7q-4 0 -18.5 3t-14.5 13q-4 0 -4 -6l-56 -2v8q-29 0 -29.5 14.5t-0.5 26.5v11q-18 8 -29 8q-18 -4 -34.5 -6 t-28.5 -2h-11q2 -2 2 -5q0 2 -3 -5t-6 -15t-4 -14t1 -4q-2 0 -4 1t-6 1q-14 0 -27.5 -5.5t-17.5 -5.5q-16 0 -40 7.5t-34 9.5q4 16 6 28.5t2 22.5v8h8l5 43q18 8 30 8h8v11q31 4 44.5 16t17.5 26.5t3 27t-1 14.5h4q4 8 4 12q0 2 -6 2h-6h-4v2q0 2 3 10t9 8q0 25 1 41.5 t3 26.5q57 18 82 18q4 0 5 -1l1 -1q0 18 19 19l4 76h-11q-4 6 -4 16q0 12 4 18h11v47q2 0 -14.5 1.5t-16.5 7.5q-25 0 -29 -4.5t-14 -4.5q-8 0 -8 9q-23 -2 -42.5 -3t-33.5 -1h-16q-10 2 -18.5 3t-18.5 1h-13q0 -10 -12 -11l2 -28q2 4 4 4q4 0 5 -5t1 -9q-4 -4 -10 -5v-20h6 q2 -8 3 -13t1 -14q0 -8 -1 -14t-3 -14h-6v-35h-10q-33 0 -102 -25v-45t-2 -31h-11q10 -10 11.5 -13t1.5 -15v-19q0 -8 -2 -18h-9v-33q-2 2 -8 2q-2 0 -3 -6t-5 -6h-2q-16 0 -16 6l4 4h-47q-25 0 -37.5 8.5t-16.5 19.5t-3 22.5t1 15.5l-4 6q-8 0 -8 12q-37 8 -67.5 9 t-34.5 18v22q0 10 -7 11h-2q2 8 6 8v20q-8 4 -8 6t2 4l-53 5v6q-45 0 -53 3t-8 15v10q-23 0 -27 7.5t-14 7.5h-2q0 2 4 10q-10 0 -11 -6v-4l-1 -1t-3 -1q-4 0 -13 6t-11 6v-10q-23 -8 -28 -10.5t-5 -4.5v-6q0 -16 -2 -18h-16l-9 -4q-10 -4 -12 -13q-4 12 -4 13h-18v-8 q-8 -4 -15 -5q-8 0 -20 5v8q-4 0 -5 -6.5t-12 -6.5v-59h-8q0 -14 -2 -20.5t-10 -8.5t-25 -2h-43q-16 -16 -34 -20v-119q4 4 8 4q6 0 6 -18q0 -10 -6 -11q-4 0 -8 3l2 -80h14q6 0 6 -7v-24v-4q16 0 25.5 -1t17.5 -3v-8q25 0 36 -3.5t14 -8.5t2 -10t-1 -7h8q0 -8 1.5 -14.5 t1.5 -10.5q0 -6 -1.5 -10t-1.5 -8h11q4 -8 4 -17l59 -4q0 -4 6 -4h15q8 0 14 -5t6 -21q18 0 19 -6l36 -3v5q20 6 33 9t22 8t19 10t29 16q6 0 19.5 -2.5t25.5 -7.5t21.5 -14t9.5 -26q0 -10 -4 -26q-2 0 -4.5 1t-4.5 1q-18 0 -40.5 -6t-39.5 -6q-4 0 -5 1t-3 1q0 -14 -4 -27 h-8v-55q2 2 6 2q6 0 6 -11h-12v-63h-111v-154q0 -12 18.5 -13t24.5 -11q6 0 42 3t89 3q10 0 19.5 -1t19.5 -1v4q0 4 8.5 9t8.5 7l4 107q49 18 65 18l2 6q4 0 7.5 1.5t7.5 1.5t5 -1.5t3 -1.5q10 16 20 19q0 63 5 76h4q0 35 15 42t28 11q4 -4 4 -10q14 4 22 6t17 4q0 -8 9 -9 t11 -10q20 -84 21 -106v-4q16 -4 22 -16h31v-9q39 -8 59 -8v-45h6q6 0 7 -14h4q10 0 14 -11.5t10 -15.5h31v-8q29 0 46 -4t28 -31q53 -2 88 -6q2 6 8 8v4q0 4 10 17.5t47 13.5q10 0 17 -2v10q4 0 8 1t8 1t6 -1t6 -1q0 16 21 17l4 51l6 2q0 4 7 14t22 10l4 7l2 1q2 1 6 1 t11 -1t18 -1q0 6 9 13t17 7l1 -1q1 -1 3 -1zM1006 987h-21v6h21v-6zM1161 227q-2 0 -3 1t-3 1q-10 0 -10 -6q0 -4 4 -4h-76v8q-8 0 -13 1t-11 1t-11.5 -1t-9.5 -1q0 70 -2 78l-4 25v96h14v27h74v4q0 6 4 6q14 0 19 -8h14q0 -63 6 -95h8v-49h-8q-4 -8 -4 -12q0 -8 4 -16h8 v-56zM424 586q-8 0 -12 -4h-107q0 -2 0 4q0 8 -1 17t-3 18.5t-8 11.5v106h6q6 12 6 39q10 0 10 6q0 4 -2 7l15 -5q6 0 17 8.5t28 8.5q16 0 24.5 -8.5t11.5 -18.5t4 -18t1 -10h10v-162z" />
<glyph unicode="&#x26;" d="M1255 74v2q0 16 -6 36.5t-6 26.5q0 10 2 15h-6q-14 0 -14 10v2q-6 -2 -17 -2q-16 0 -31.5 5t-29.5 5l-2 16h-10q-4 4 -5 23q-2 -2 -6 -2q-2 0 -4 4v4q0 4 2 6l-51 -2v10q16 10 27 11q8 0 12 -2v8h4q4 0 5 6t5 6q2 0 6 -4q0 47 7.5 61.5t7.5 16.5q49 16 74 16l6 6h2 q4 0 4 7q0 8 4 8q2 0 10 -4v26h8q-12 31 -12 51q0 16 4 23l-10 -2q-2 23 -3 27t-9 18h-68q0 -6 -7 -7t-7 -5t2 -6q-6 -12 -19.5 -14.5t-29.5 -2.5q-14 0 -29.5 -3t-24.5 -15v-60q-8 -2 -8 -8q-10 -12 -38.5 -15t-41.5 -9q-18 10 -27.5 14t-13.5 10t-5 18.5t-1 41.5 q-10 0 -10 14q0 6 10 6l-4 21v2q0 12 -9 13t-9 3t4 6q-4 0 -5 -1t-5 -1q-20 0 -42 8t-38 8h-4q0 4 -5.5 5.5t-5.5 3.5l4 4q-2 2 -2 6q0 -2 2 4t5.5 13t5.5 14.5t0 5.5q4 -2 14 -2t25.5 9t25.5 9q8 0 12 -2q0 10 31 10v4q0 10 13.5 23.5t35.5 13.5q10 0 24.5 -3t18.5 -3v10 q25 6 31 7q-2 2 -2 8q0 4 6 12t17 8h8v2q0 10 8 14.5t19.5 7.5t21.5 4t14 5l-2 182h-6q-4 12 -14.5 18.5t-20.5 9.5t-18 3q-6 0 -2 0q-4 0 -15.5 -6t-15.5 -6q-6 0 -8 2v53q-4 -4 -8 -4q-2 0 -6 10q0 10 14 10v21q-33 14 -44 21t-36 7q-8 -2 -10 -10q-23 23 -39.5 32 t-29.5 12t-24.5 2t-21.5 -1q0 2 1 3l1 1q0 4 -7 3t-7 4v2q-16 0 -17 -7l-125 -2q4 -4 5 -4l-2 -2q-8 -4 -11 -4q-4 8 -4 10h-37q0 -6 -10 -10q-12 0 -12 6v4h-31q6 -4 6 -6q0 -4 -14 -4q-4 -18 -21.5 -28.5t-37 -14.5t-35.5 -4h-15l-6 -49q-10 0 -10 -8q0 -6 -6 -6 q-6 2 -6 14q-6 0 -6 -10q-23 0 -29 10v-10q-20 0 -31 10v-10q-12 -4 -31 -4v-13h9q4 -12 4 -18q0 -4 -4 -21h-7v-55h7q2 -8 3 -14t1 -13q0 -12 -4 -28h-7v-82q4 4 7 4v-10q4 0 7 1t7 1q20 0 40.5 -6.5t35.5 -6.5h4q4 -6 8 -9t4 -13q0 -4 -1 -6t-1 -4q2 4 6 4t5 -5t1 -10 q0 -6 -12 -6v-43q35 -18 41 -26q-35 -4 -60.5 -6.5t-46.5 -2.5h-14q0 -4 -4 -5t-9 -3t-10.5 -6t-7.5 -16v-33q0 -18 -17 -28.5t-38.5 -16.5t-42 -9t-24.5 -3v-285h10v-10q6 -4 25.5 -6t40 -7.5t36 -15.5t15.5 -29v-2l-3 -4q2 2 5 2l1 -3t1 -9h73l4 -8q12 0 21.5 -7.5 t18 -15.5t17.5 -15t21 -7q18 0 34.5 4t21.5 4q12 0 21 -6t11 -6q8 0 20.5 7t20.5 7h2l6 3q5 3 9 3q6 0 6 -8l121 -4q0 12 10 12q2 0 10 -4q0 12 21 27l6 41q4 0 6 7t10 7q14 4 25 4h22q45 0 45 -22v-5q23 -10 43.5 -11t30.5 -5v-8l49 -4v-13h10v-18h52q-6 6 -7 10q0 6 11 6 q2 0 2 -2h2q4 -6 17.5 -7t17.5 -13q23 0 75 6v10q20 4 22.5 11.5t20.5 7.5zM915 774h-6q-4 -4 -4 -16t-10 -23q-25 0 -42 -1t-32 -3v-10q-16 0 -18 -4t-4 -10.5t-8.5 -13.5t-26.5 -13v-10h-88q0 12 -7 15t-7 7l-11 2v19q-27 8 -80 8q0 12 -14 12h-6q0 18 -4 27l-6 67 q12 0 12 9q0 4 -4 10t-4 8q-2 0 -4 -6v18h6q4 0 4 33h-4h4q6 0 16 -2h6q6 0 7 6v10h30v-10q16 12 34 16.5t18 26.5q0 4 -3 6q10 2 17 2h14h8q0 -6 4 -6q2 0 7.5 2t11.5 2h4q-2 2 16 2v-2q0 -4 2 -4t7.5 3t9.5 3q2 0 2 -2h2v2h6q2 0 6 -1t8 -1v-26q16 -20 24.5 -24.5 t12.5 -4.5h6q8 0 20.5 5t22.5 5q16 0 18.5 -7t12.5 -7h2q2 -16 2 -33q0 -16 10 -20v-66zM795 233h-2v3q-2 0 -6.5 -2.5t-4.5 -4.5t4 -6h-84q-4 -2 -7 -9t-9 -7h-2q-2 -6 -2 -17q0 -6 2 -8q-6 -8 -22 -8h-23q-23 0 -27 -10q0 -2 -19.5 7t-39.5 9q0 29 -13.5 32t-60.5 3v8h-8 q-6 0 -20 -2q-20 0 -23 15v178q6 0 10 6t11 6q-2 2 -3 6q0 2 7 2q6 0 6 4l28 2q0 -4 7 -10q20 16 34 25v2q35 23 45 22v4q68 12 76 17q-2 -2 -2 -4q0 -4 1 0t4 -4.5t11.5 -37t20.5 -98.5h8v-14q2 0 3 1t5 1q14 0 37 -6t33 -6l2 -2q0 -4 14 -4v-25h7l2 -18q-8 0 -9 -4l2 -1 q3 -2 7 -2v-43z" />
<glyph unicode="'" d="M958 836v73h-8q-4 4 -4 15q0 8 4 14h8v45h-8q-4 0 -4 8q0 10 4 17h8v12l-8 -2q-4 4 -4 16q0 8 4 15h8v14h-8v24l-39 -4q-8 -4 -13 -7t-7 -5q-12 6 -22.5 8t-12.5 4v4q-4 2 -22.5 11.5t-39.5 21.5l-22 13l1 1t1 3q-4 2 -20 2t-21 8q-18 -6 -28 -6q-6 0 -11 2v4q-6 2 -16 2 q-8 0 -25.5 -7t-31.5 -7h-5q0 2 -2 2v-25h-8q0 -18 -6 -27l-25 -4q-4 -8 -11 -10t-11 -2q-31 0 -38 6l-7 6l4 4q-2 2 -6 2t-6 -5t-6 -5l-2 -47q2 6 6 6t4 -14q45 -6 63.5 -9t27.5 -7.5t16 -14.5t26 -28q2 -2 14 -2h13q8 0 18 2q29 0 45 -9v-123q-25 -6 -43 -6q-10 0 -16 2 l-21 4q-18 0 -31 -4l2 -43q6 0 14.5 -9t14.5 -11l51 -4l2 -10q4 0 6.5 7t10.5 7h2q14 -4 14 -12l88 -2v10q2 0 2 -2v0q2 0 3 7t5 7q2 0 7 -4q2 2 5 10t7 17.5t9 16.5t13 7h80q-2 4 -2 12v5q2 2 4 2q4 0 6 -2z" />
<glyph unicode="(" d="M1081 -80l-2 80q-8 0 -11 8t-5 8h-94v27q0 -4 -4 -4t-4 4v4q0 8 8 8v39h-6v17q-10 0 -11 -7v-2q-8 -4 -20 -4q-16 0 -23 4q0 8 -6 9.5t-6 5.5l-49 2v16h-10q-4 6 -4 23q0 12 4 20h10l-2 31l-4 -4q-4 0 -5 4t-1 8l1 2t3 2t2 -2h4v14h-8v25q-29 0 -48.5 1t-31.5 3v10h-35 v140q-12 0 -12 4q0 2 2 4l-95 4v4q-2 0 -2 -2v0q-4 0 -6 7t-4 7l-4 -4q-2 6 -2 17q0 6 2 10l-8 -2q-4 20 -4 35h-8l2 34q4 0 5 7.5t9 7.5q2 0 2 -2h2v22q-4 2 -7 4t-5 2q4 0 11 6.5t15 6.5v-2h2v8q31 8 54.5 11t40.5 5v2q0 10 5 18.5t5 16.5q0 4 -2 6h-4q-8 6 -8 15 q0 8 8 16l8 51q6 0 19.5 7t19.5 7t8 -2v9q18 2 29 2q12 0 20 5t11.5 15t3.5 33v63h8q0 37 8 37q2 0 5 -1t7 -1q8 0 13.5 3t11.5 7h4q4 0 5 -6t5 -6q6 0 18.5 7.5t16.5 7.5t8 -3q-4 2 -4 5q0 4 10 4h6v75q12 10 41 11.5t39 5.5v10q14 0 31 8v90h-14l-6 6q-23 0 -45.5 -2 t-32.5 -14q-6 -2 -6 -14q0 -10 -23 -10h-4q2 -4 -5 -5.5t-7 -5.5v-2q2 0 2 -2q-8 -2 -14.5 -3t-12.5 -1q-14 0 -27 4v4q-16 0 -21 -12t-9 -29h-39q-10 -14 -29.5 -18t-42.5 -8v-33h-8l-4 -53l-47 -2h-8q-4 0 -4 2q-10 -2 -33 -2h-15q2 -4 2 -9q0 -6 -14 -6l12 -80 q-4 -10 -14 -14q-12 0 -18.5 1t-12.5 3t-14 3t-27 1q0 -4 -12 -5t-16 -7v-59l-8 -2q0 -27 -1.5 -42.5t-7.5 -22.5t-21.5 -9t-43.5 -2v-8q-16 -2 -28.5 -4.5t-20.5 -4.5v-28q10 0 10 -4q0 -10 -10 -11v-174h10q2 -6 2 -14q0 -12 -2 -16h-10v-39q4 0 23 -5l20 -6v-2q0 -6 9 -9 t21.5 -6t23.5 -5t13 -8v-33h10q2 -8 3.5 -18.5t1.5 -26.5h6v-41q2 2 6 2t9 -9t9 -11q35 -2 60 -7v-8q20 0 21 -12t1 -23q0 -6 -1 -9t-1 -7h8q4 -8 4 -18h5q4 -4 4 -17h8q18 0 45 -4t41 -4q-4 -4 -4 -6q0 -4 6 -4q8 0 8 -41h6v-25h10q4 -4 5 -18h12h16q16 0 31.5 -3t29 -9.5 t13.5 -20.5v2q8 0 20 -18q59 0 81 -4.5t22 -16.5q18 -4 23.5 -12t21.5 -8q10 0 29.5 3t23.5 3l-4 8q0 6 12 6z" />
<glyph unicode=")" d="M1081 362v89h-8v30h8v13h-8v32h8v27h-10v47h10v55q-86 6 -114 7h-11v34h-8q0 2 1 3t1 3q0 10 -8 11q-8 0 -8 4q0 2 2 6t12 4v51h8v29h-8q-2 0 -2 4q0 2 2 4q-4 -2 -10 -2t-13 5t-10 5q-4 0 -6 -4t-12 -4v4q-4 4 -10 4q-4 0 -16.5 -6t-18.5 -6q-4 0 -5 6t-7 10t-11.5 5.5 t-5.5 13.5h-12q-10 0 -10 6t7 15.5t13 9.5v-3h2v35q-10 0 -10 2t4 7q-6 -2 -20 -3q-12 0 -39 7.5t-41 7.5l-4 4q0 16 -7.5 36.5t-7.5 33.5q0 10 2 16q-23 -2 -41 -2h-30q-6 6 -13.5 8t-13.5 3t-10 5t-4 15q-16 12 -34.5 20t-51.5 8h-2q-20 0 -26.5 6.5t-6.5 42.5l-70 -2 q0 -4 -9 -5t-11 -3v-29q2 2 4 3q4 0 4 -17q-4 -2 -5 -9t-11 -7v-21q16 0 23 -7t7 -11h50v-6h2q4 0 7 -5.5t7 -5.5h2q2 -2 2 -18h6q4 -12 4 -18v-7h8l1 -2t1 -6q0 -6 -1 -14t-1 -18h35q4 -16 8 -19h17q-4 4 -4 6t4 4t8 2q2 0 2 -2h2v-10q2 2 8 2q4 0 14.5 -4t10.5 -14 q0 -4 -1 -5t-1 -4h8q6 -59 6 -94q0 -6 21.5 -10t27.5 -14h49q0 23 11 22q0 -8 2 -10t5 -3t5 -3t2 -10h4q2 -8 2 -29v-14q0 -6 -2 -13l-4 -71q2 2 4 2q6 0 12 -25h52q2 -4 18 -3t21 -9q16 -59 16 -80q0 -4 -1 -7t-1 -7l6 2q4 -12 4 -19q0 -10 -4 -22h-6q0 -23 -10.5 -32 t-23.5 -11t-27.5 0t-20.5 2v-8q-27 0 -27 8l-10 -123q0 -25 -4 -31t-20 -6h-35q-20 0 -29.5 -4t-12.5 -10t-5 -11.5t-9 -7.5l2 2q10 0 11 -10l-1 1t-3 1t-4.5 -1t-4.5 -1v-43h7q6 -10 6 -18q0 -4 -4 -17h-9q0 -16 -8 -24h-2q-8 0 -12 -4.5t-6 -6.5q-2 0 -6 11h-25 q0 -6 -8 -7q-8 0 -8 -4t2 -6q-23 -8 -39 -8l2 -65q4 2 10 -7.5t12 -13.5q-43 0 -49 8q-16 0 -16 -8h-2q0 2 -2 2q-4 0 -9.5 -2t-7.5 -2v6v4q-2 2 -10 2q-14 0 -29.5 -5t-19.5 -5v-90q20 0 20 -12h76q-2 2 -2 6q0 6 17 6v35q10 0 21 8t17 8q4 0 13 -4v8q20 10 37 10l6 -2 q0 -4 3 -7t3 -9h2q6 0 8 8t8 8h2q0 -2 2 -2q-6 2 -6 9q0 4 7.5 8t15.5 7t14 4l6 1q6 0 6 -4q18 6 31 6q12 0 17 -2q0 2 5 12.5t10 19.5t8 15t1 4h4v15q0 12 4 20q2 0 4 -1t7 -1q16 0 34.5 7t34.5 7q4 0 5 -1t3 -1l-4 4l4 2t6 2t3 -2h2q0 23 4 35h8q0 39 23.5 50.5t66.5 11.5 q8 0 12 -2q8 12 7 39.5t6 37.5h8l-2 41h10q0 18 4 27h55q27 18 43 18z" />
<glyph unicode="*" d="M1321 221v133q-12 0 -38 6.5t-38 6.5h-12q-16 10 -28.5 21t-28 20.5t-36 17.5t-50.5 12q-4 4 -5 17l-9 4t-19 9t-17.5 7t-5.5 0v6q-10 0 -17 1t-11 1v11q0 4 10 5t12 3v4q31 8 41 15t11 11.5t1 6.5t13 2q37 10 56 15t24 5q8 0 24 -4q8 25 28.5 40t47.5 15q12 0 24 -4v8 q12 4 23 5v141q-4 2 -6 4l-4 4h-60q-2 -6 -8 -7t-14 -1q-6 0 -12.5 -2t-8.5 -8v-25h-16v-8h-74q-8 -6 -19.5 -12.5t-11.5 -16.5q0 -2 1.5 -3t1.5 -3q-82 -16 -115 -25v-30q-8 -14 -25 -15q-8 0 -26 7v4h-2q0 2 -2 2q-4 0 -6.5 -6.5t-6.5 -6.5h-2q0 2 -2 2v9l-63 4v139h-6 q-2 16 -3.5 32.5t-1.5 28.5v15q-20 0 -20 10q6 8 10 8l2 27h8q-2 6 -30 6v27q2 0 18.5 16t16.5 18q0 4 -5 5h-10l-2 2q0 2 4 10q-2 0 -2 4q0 6 6 6l4 14q-8 2 -8 7h-14q-10 0 -20.5 3t-10.5 11q0 4 2 6l-98 -2q-6 -4 -15.5 -6t-18.5 -3t-17 -3t-13 -9v-49h-8v-219h8l5 -10 q0 -2 -5 -14h-8l2 -80q-6 -16 -26 -17h-4q-16 0 -27.5 8.5t-50.5 8.5l-5 2l-20 8q-4 4 -4 18q-49 6 -84 7h-18v10q-10 0 -19.5 8t-9.5 35q-18 -4 -35 -4h-31h-26q-10 0 -19 4v31q-35 18 -64.5 16t-39.5 2l2 -150q27 0 44 -1t28 -3v-8h30v-12h7q6 -18 6 -25q0 2 2 2 q6 -2 6 -16q4 0 9 1t9 1q16 0 40 -4t52 -8v-19q16 0 35 -24l52 -4v-11q-55 -16 -68 -16h-4q0 -27 -15 -35v-4q0 -4 -6 -4l-10 -2q-41 -6 -70 -6h-14q2 -2 2 -4q0 -4 -12 -4q0 -18 -4 -27h-4q0 -12 -4 -25q-4 2 -15 2q-31 0 -47 -4t-25.5 -10t-13.5 -13t-10 -14q6 6 8 7 q4 0 6 -17q-6 -2 -14 -2v-39h10q4 -12 4 -14q0 -6 -4 -10h-10q0 -6 2 -7l5 -2.5t5 -6.5t2 -19q2 4 4 4q0 -2 2.5 -6t2.5 -6h67v8h21q0 33 8 35l94 4q0 2 6 6h4q6 0 10 -2q6 29 19.5 44t56.5 15h6v8q10 10 52 11q0 4 8 11t16 7t8 -10h19v8q8 2 13 3t13 1t25 -4v-16h8 q2 -39 3 -69t1 -50h8v-43h9q4 -12 4 -14q0 -8 -4 -13h-9q-2 -6 -2 -14q2 -8 5.5 -20.5t5.5 -24.5t5 -21.5t7 -9.5h2q0 -2 6 -2q8 0 15 2q16 0 22 -2v-8h88v8q6 4 20.5 3t18.5 5q4 0 5 -3t5 -3t11.5 3t9.5 3l2 240h8l2 41q4 0 5 5t7 5q20 0 21 -8v-2q49 0 65.5 -2t16.5 -23 q49 -16 100 -16v-8q2 2 4 2t5 -6t7 -6q0 2 10.5 -13.5t12.5 -17.5h86q0 -4 5 -10.5t5 -12.5q0 -4 -2 -6q10 -4 21.5 -16.5t17.5 -12.5q2 0 18.5 8.5t32.5 8.5q2 0 4 -1t4 -1v8q2 0 3 -2h2q4 0 6 6t4 6q4 0 6 -2z" />
<glyph unicode="+" d="M1321 514v23q-10 0 -10 14q0 6 10 6v29q-23 0 -23 16h-16v-6q-6 2 -18 2q-10 0 -25.5 -5t-24.5 -5q-4 0 -16 3t-12 9v2h2h-29q0 -16 -8 -16h-2q-16 10 -33 10h-8v6h-18q0 -8 -13 -8q-2 0 -2 4q0 2 2 4q-10 -2 -14 -6t-16 -4q-14 0 -19 2v8h-74v-8q-10 -2 -20 -3t-21 -1 q-10 0 -19 1t-20 3v8h-30q2 0 2 -4t-10 -4q-2 6 -8.5 9t-6.5 7t8 4v269h-8v26h8v15h-8v125q-2 -2 -6 -2q-6 0 -6 14h-121q-10 -10 -41 -10q-29 0 -39 -11v-2q0 -4 -1 -10t-9 -6l-2 -45h8q4 -12 4 -21q0 -6 -4 -18h-8v-20h8q4 -12 4 -19q0 -8 -4 -16h-8v-25h8q4 -12 4 -16 q0 -6 -4 -11h-8v-14h8q4 -12 4 -14q0 -6 -4 -15h-8v-69h8v-117h-262v-10q-72 -4 -125 -6t-88 -4v-70q14 0 31 -10v-8v0q0 2 2 2t3 -1t5 -1t13.5 4t15.5 4q8 0 10 -8q8 8 29 8q8 0 30.5 -3t22.5 -14l82 4h4q12 0 30.5 7.5t28.5 7.5q4 0 22.5 -2t28.5 -13v-4q43 0 71 -1 t38 -15v-2q0 -10 6 -13t8 -14q0 -12 -6 -12q-4 0 -6 2q12 -16 12 -70q4 4 4 5q2 0 4 -15q-4 -12 -8 -12l2 -217h6q0 -4 1.5 -6t1.5 -4q0 -4 -1.5 -5.5t-1.5 -3.5q2 2 7 2q4 0 9 -6t7 -6l59 -6v-8h31q-2 4 -2 8q0 6 8 6q6 -4 6 -14q4 0 28 9t60 9v86l-8 -2v27h8v166l-10 -2 v30h10v31h-10v29h10q-2 2 -2 4q0 18 33 20t113 2v5q35 4 60.5 7t43.5 3h4q8 0 45 -10l39 -5v5q10 4 52.5 1.5t101.5 20.5zM678 307h-2q-6 0 -8 -2q0 -2 4 -14q-2 0 -3 1t-3 1t-4.5 -1t-6.5 -1q-8 0 -8 4h10l5 16q16 0 16 -4z" />
<glyph unicode="," d="M956 29q2 2 2 6l-4 4q-2 0 -3 -1t-3 -1v26h8v33q-12 0 -12 4q0 6 6 6q2 0 2 -2h4v39q-8 2 -8 13q0 2 2 2t6 -2q-8 14 -8 75q-12 2 -12 9v2q-18 2 -30.5 4t-22.5 4v8h-37q6 -6 6 -8q0 -4 -14 -4q-4 8 -4 12h-31v39h-8q-10 0 -17 -6q-6 2 -6 6q-57 -2 -88 -2t-46 -2 t-21.5 -8t-14.5 -19q-4 -10 -43 -10l-2 -6q-23 0 -40 -9.5t-28 -21.5v-2q0 -14 17.5 -20.5t39 -10.5t40 -8t18.5 -16h8v-17l2 2h2h2q6 -4 7 -10h80q2 4 12 -11t10 -46q0 -12 -1 -27.5t-3 -34.5q-23 -8 -35 -10t-22.5 -4t-21.5 -6t-32 -12v-15l2 2h2q12 0 19 -22 q10 0 30.5 -8.5t43.5 -8.5q16 0 47.5 8.5t48.5 8.5q12 0 20 -4q0 16 23 16q-2 6 -2 12v9q0 6 13 10t29.5 5t31 2t16.5 1h12v27h8z" />
<glyph unicode="-" d="M1317 420v94q-10 0 -41 1t-78 1h-82q-2 -2 -51 -2q0 -2 1 -3t1 -3q0 -8 -14 -8q0 4 -15 16h-45q0 -2 -14 -2v2q-61 0 -100 -1t-61.5 -3t-34 -3t-19.5 -1v6h-610l-7 -6q-8 2 -12 2h-4l2 -94q2 2 8 2t23 -10v-9q12 4 21.5 5.5t17.5 3.5q2 0 2 -9h213v-6h125v6q16 4 24 4 t25 -4v-6h82v6q10 4 22 4h25h18q10 0 21 -2v-8h16v8q16 4 24.5 7.5t16.5 3.5q16 0 40 -5.5t38 -5.5l4 -8h2q6 0 7 7l1 6q2 0 6.5 -1.5t4.5 -11.5q10 0 10 8q6 4 24.5 3t24.5 6v-9h51v-6h53v6q4 4 15 5q6 0 18 -5v-6h17q-4 0 -5 2q0 4 15 4h10q2 -2 2 -4v-2q2 -2 8 -2 q16 0 39 9.5t33 9.5q4 0 18.5 -5.5t30.5 -5.5q12 0 12 9q0 10 15 10h6z" />
<glyph unicode="." d="M958 14v131q-14 0 -23 9.5t-26 9.5q-4 0 -11 -1t-17 -1h-7q-25 0 -34 18.5t-9 40.5q0 14 3 23q-27 20 -64 20v10h-16v-10q-12 -2 -22.5 -3t-20.5 -1t-20.5 1t-20.5 3v10q-6 2 -15 2q-6 0 -14 -7t-16 -7t-11 2q0 -16 -10 -16l-4 -23h10q4 -12 4 -22q0 -6 2 -9.5t-1 -7.5 t-15 -10t-39 -14v-8q-53 0 -69 -9v-131q8 0 8 -10h12q16 0 16 -4v-4q23 -4 37 -4t22.5 -6t11.5 -20.5t3 -45.5h8l3 -4t7.5 -9t7.5 -8t3 -1l31 -2q-4 4 -5 4l5 4h2q12 0 12 -6v-2q10 0 32.5 -5.5t41.5 -5.5q10 0 14 2v2q0 6 20 7v2q6 4 24.5 5t27.5 9v51l2 -2q4 0 6 6t8 6v0 q2 0 4 -2q-6 2 -6 9q0 4 9 10t20 6q4 0 14 -3t14 -7q2 0 10.5 7t16.5 7h2q0 -2 2 -2l2 4q4 0 5 7t5 7q6 0 8 -2z" />
<glyph unicode="/" d="M1313 995v0q2 0 2 2q-2 2 -2 4q0 4 -4 5h-4q-4 10 -5 18v18q0 20 3 29l10 2q0 16 -8.5 36.5t-8.5 33.5q0 2 1 3t1 3q-10 10 -65 10v-2q0 -8 -10 -8q-4 0 -4 10q-10 0 -44 -5t-55 -5h-4q0 8 -18 8h-8q-4 -10 -7.5 -24.5t-3.5 -36.5v-66q-4 0 -5 1t-5 1q-16 0 -42 -7 t-42 -7q-4 0 -5 1t-5 1q0 -4 -8.5 -7t-12.5 -9l2 -84q-23 -2 -30 -11v-8q-12 -2 -23 -2h-20h-17q-8 0 -14 2v-4q0 2 -6 -14.5t-4 -16.5h-6q4 -4 9 -8t5 -10q0 -10 -8 -14h-6v-23h6q10 -16 10 -27q0 -14 -16.5 -21t-38 -11t-43 -6.5t-31.5 -6.5v-77q-4 0 -7 -2l-3 -1 q-18 -10 -51 -9t-50 -5q0 -8 -14 -8v-31h10q4 -8 4 -14t-4 -10h-10q2 -35 2 -54v-18h-6q-16 0 -19.5 -12.5t-17.5 -12.5q-6 0 -14 5.5t-15 5.5q-6 0 -18 -8.5t-21 -8.5v-2q0 -8 -6 -16t-6 -12q0 -8 2 -13q0 2 2 2q8 0 8 -12v-2q0 -4 -10 -4v-10q0 -23 -15 -26t-77 -3 q-2 -4 -14.5 -5t-16.5 -9v-25h11v-27h-11v-14h11v-78q-8 -4 -11 -4q-6 0 -12 8.5t-8 8.5q-4 0 -8 -5v-2q0 -6 -13 -6v8h-73q0 -16 -6 -16v-78q0 4 4 4t4 -12v-4q0 -4 -8 -4l-5 -43h-98v-201q2 2 4 2t7.5 -8t9.5 -10q18 8 41 8q4 0 20 -2t21 -14q33 4 53 7t30 3h5q0 18 14 18 q2 0 4 -1t4 -1q0 25 8 29h-8v31h8v20q-8 4 -8 12q6 0 6 15q2 16 13 16q10 0 10 8v6q0 2 2 2t7 -3t5 -7l-2 -2h19v6q2 2 6 2q10 0 16 -4t8 -4v6q10 4 20.5 16.5t20.5 12.5l4 92q2 -2 4 -2q2 16 23.5 18.5t28.5 2.5h2q14 0 24 8t17.5 18t11.5 19.5t8 9.5h-8q-4 6 -4 20t4 23h8 v16h-10q-2 4 -2 15q0 8 2 10l10 2v24h90q0 12 8 13q6 0 13 -4l4 43h8v32q4 2 11 7.5t14 5.5q4 0 6 -2v10q2 0 3 -1t3 -1q10 0 25.5 9t31.5 9q2 0 3 -1t3 -1v45h11v37q-2 -2 -7 -2q-6 0 -6 10q0 2 2 4h11q0 20 11 30.5t26.5 15t29.5 5.5t19 1h8q2 0 10 16t18 18l2 43 q-2 0 4.5 4.5t17.5 9.5t23.5 9t24.5 4l8 4h2q6 0 8.5 7.5t6.5 7.5t4 -3v33h10v13q0 10 4 18h8v51h8q-2 2 -2 8t11 17l14 -4h6h10q8 0 19 -2h12q12 0 23 6q-4 8 -4 12q0 10 14 10l8 51q0 12 4 25h2q8 0 15.5 3t13.5 3v-4q4 4 14 6t21 2h8q18 0 22 4l7 43z" />
<glyph unicode="0" d="M1327 254v244q-4 -2 -6 -2v0q-6 0 -6 10q0 12 12 12v39q-4 -2 -5 -3l-1 -1q-6 0 -6 12q6 8 12 8v86h-8q-4 6 -4 15v16v12q0 8 4 17h6v72h-6q-2 6 -3 14t-5 8q-2 0 -4 -1t-7 -1l-96 8v31q-6 2 -15 9t-15 7h-25h-29q-10 0 -20 -4q-18 12 -29 12v11q0 4 8 4q-16 20 -22 29 q0 12 14 12v31q-2 0 -2 -3h-2l-33 16q-33 15 -84 15h-4q-4 4 -4 6l4 4h4q4 0 6 -2l-2 39q-2 2 -15 3t-13 5q-23 0 -25 -8q-6 2 -6 8l-139 -2q-14 -10 -29 -14v2q0 10 -9 11t-9 3l4 9h-17v-11h-98v11h-27q2 -2 2 -4q0 -6 -14 -7q-2 0 -2 2t2 7q-39 -8 -67 -9q0 -16 -11 -16 l-2 -20q2 4 6 4q6 0 7 -19q0 -16 -23 -16q0 4 -1 6l-1 2q-4 0 -22.5 -1t-51.5 -1l-2 2q-6 0 -22 -16l-4 -95q-6 2 -15 2q-10 0 -33.5 -5t-37.5 -5l-5 -2q0 -4 -6 -4q-4 0 -4 -2t2 -4q-25 -12 -22.5 -23.5t-1.5 -15.5l-99 -4q0 -2 -8 -2q0 -72 -1 -125t-3 -86h-8v-31q2 6 8 6 q4 0 4 -18q-6 -10 -12 -10v-29h8q4 -12 4 -20t-4 -17h-8q-2 -4 -2 -8t8 -6t8 -12q-8 -8 -14 -9v-24h8q4 -10 4 -19v-14q0 -18 -2 -27h-10v-30h10q2 -6 2 -17q0 -10 -2 -14h-10v-12h10q2 -10 3 -19.5t1 -15.5h4q16 -16 25 -17q10 0 22 -4l37.5 -18t17.5 -11t5 -14v-28h8 q0 -4 1 -6t1 -5q0 -4 -1 -5t-1 -3l8 2q4 -8 4 -16l90 -6q12 -12 13 -64h10v-16q0 2 6 2q8 0 25 -10v-11q23 6 40 10.5t21 4.5q8 0 15.5 -6t7.5 -33h2q4 0 13 -10.5t15 -14.5h250q0 2 -1 3t-1 3q0 6 8 7q2 0 3 -1t3 -1v-11l62 2q2 8 6 9q4 0 4 -9h39q2 8 10 9l1 -2q1 -3 1 -7 h29q0 6 9 11.5t20 5.5h2q16 31 41.5 39t48.5 8q6 0 22 -4v6q0 12 7 12q2 0 4 -2v43h10q-2 2 -2 6q0 10 12 19.5t31 9.5h39v8q2 0 2 -2h2q4 0 6 7t4 7q6 0 6 -4q10 45 13 70h10q-2 2 -2 4q0 4 8 16l20 7q6 0 7 -7q0 -6 8 -6q10 0 21 5.5t18 5.5l2 4q6 0 7 8t5 8q2 0 6 -4z M1102 287h-8v-25q-35 -12 -35 -16h-76q2 2 -6 -12l-8 -15q0 -4 10 -4v-47q-20 -20 -21 -25l-98 -2q-4 -4 -4 -14h-4q-4 -8 -4 -27q-20 -2 -34.5 -4t-25.5 -4q-10 0 -33.5 1t-50 3t-51 3t-37.5 1v2q0 8 -8 15.5t-8 11.5t6 8q-14 0 -46 7.5t-54 7.5q-4 0 -5 -1t-5 -1 q0 12 -4 16h-11v78q-10 4 -26.5 6t-34 3t-31.5 2t-18 5q0 14 -4 14q-2 0 -9 -6l-2 150h15q0 16 -6 16l-9 -4v158q14 0 15 4q0 8 -4 8q-2 0 -11 -4v115q8 2 14.5 9t15.5 13t24.5 11.5t44.5 5.5h4q0 14 12 14q4 0 8 -2v51q20 14 21 25q10 6 28.5 8t37 6t32.5 12t14 27 q23 10 38.5 16t25.5 11l57 -5q55 -14 90 -14q-2 -2 -2 -4l4 -1t13 -1l2 -19q6 0 10 -6t14 -6l2 -8q47 -6 70 -10l22 -4h-2q0 -8 5 -17h8q0 -57 8 -59v-4q0 -10 12 -12.5t12 -8.5q2 10 15 11h4q8 -4 19.5 -3t21.5 -1.5t17 -11.5t7 -34h7l2 -284q0 -4 8 -4v-31h-8 q-4 -8 -4 -21q0 -14 4 -18h8v-55z" />
<glyph unicode="1" d="M1087 16v52q-8 0 -8 4v2q0 4 4 4q2 0 2 -2h2l-2 18h-6v33h6v123h-6v47h6l-2 98q-4 0 -4 4l-2 555q-2 -2 -6 -2q-8 0 -8 13q0 10 14 10v2q0 4 -8 4t-8 4q4 6 5 10t11 4v39h-10l-2 10q-2 9 -6 9t-5 -6.5t-5 -6.5l-2 11q-10 0 -11 -2v-2q-12 -4 -16 -4q-12 0 -30.5 5 t-28.5 5q-12 0 -17 -2l-2 8q-4 -2 -38 -5t-50 -14v-36v0q0 2 2 2t6 -6q0 -14 -4 -19h-242l2 -2q0 -6 -10 -6l-4 -43q-63 -4 -113.5 -7t-87.5 -3h-28q6 0 6 -2q0 -4 -21 -4v-91h2q0 2 3 2q12 0 18 -20h51v10h21q14 0 16 8q4 -4 4 -8h31v-10h2q4 0 10 2q10 0 10 -8q18 6 43 6 q12 0 44 -3t55 -3l6 2q0 6 14 6v-8q4 0 7 -1t8 -1q20 0 43.5 5t33.5 5t31 -4l2 -6q4 0 6 6t6 6l2 -2q4 -4 5 -16h10v-35q10 0 10 -8q0 -4 -10 -4v-13h8q0 -4 1 -5t1 -5t-1 -7t-1 -7h-8q12 -68 12 -78h4q4 -4 4 -10q0 -4 -4 -17h-4q0 -23 -4 -35h-8v-45h8q2 -10 2 -18v-19 v-18q0 -8 -2 -16l-8 -2q0 -4 4 -3t8 -4l6 -378q4 -12 4 -17q0 -8 -4 -8l-4 -29h4q4 -4 4 -12v-4q16 0 31 -14q23 2 39 6q61 -6 100 -6q0 6 8 8h5q6 0 8 -2q4 16 10 18q2 0 2 -2h2q4 0 6 6t4 6q4 0 6 -2z" />
<glyph unicode="2" d="M1327 27v30q-2 -2 -6 -2q-6 0 -6 15q0 10 6 10q4 0 6 -2v28q-2 2 -19.5 1t-21.5 10q-55 0 -69.5 -4t-20.5 -4q-10 0 -22 6v-2q0 -4 -7 -7q-6 2 -6 9q-131 0 -205.5 -1t-95.5 -3q-47 2 -81 3t-56 5v8h-2q0 2 -2 2q-4 0 -6 -7t-6 -7q-12 0 -13 8l-18 4v-8q-6 -4 -19 -4 q-12 0 -14 4v8h-39v-8h-135q-23 4 -45.5 5t-39.5 3t-27.5 7t-10.5 16q0 12 4 18h6q-2 4 -2 10q0 2 11.5 18.5t13.5 16.5t6 -1t4 -5q0 -2 -1 -3l-1 -1q29 0 35 -10q2 0 14.5 5t22.5 5h2q0 2 -2 2v2q0 8 8 13t8 7l6 45h8l5 25q10 0 24 4t23 4v4h135h26h3q4 0 6 8.5t6 8.5t6 -2 q0 18 13.5 25t30.5 8t36 1q18 0 31 4q6 20 23 30.5t36.5 15t37 5.5t25.5 1q-2 2 -2 4q0 4 7.5 8t7.5 8q16 18 49 22.5t63 8.5q0 2 -2 2v2q0 10 9.5 20.5t15.5 10.5q12 0 18 -2l2 10q10 0 26.5 5t23.5 5q8 0 16 -4q4 14 13 24.5t38 10.5v10q8 6 20.5 7t24.5 2t20.5 8.5 t8.5 25.5v27q0 16 4 24h6v17h-6q-6 131 -6 198h-8q-2 4 -2 11q0 6 2 8q-66 0 -90.5 7t-24.5 24v4q-18 0 -19 8q0 4 3 6q-2 0 -4.5 -1t-6.5 -1q-18 0 -39.5 9t-31.5 9q-8 0 -13 -2v21h-10q-2 4 -2 10q0 4 2 6q-6 2 -12 8h-4q-10 0 -29.5 2t-40 5.5t-35.5 6.5l-16 3q0 6 10 6 q2 0 2 -2h2v43h-115v12h-67v-8h-94l-4 8q-4 0 -4 -8h-35v8h-70q2 -2 2 -4q0 -4 -8 -4q-4 0 -4 8l-170 -2q0 -6 -9.5 -11t-13.5 -5v-41q-6 0 -20.5 -4t-30.5 -10.5t-32.5 -10.5t-26.5 -4l-4 -59h-7v-25q-43 -4 -69.5 -9t-42.5 -11v-197q2 2 4 2q6 0 11 -9t7 -9h62l-2 -9h51v9 h80q2 8 10 8v4q0 6 10 22h-6q-4 6 -4 19q0 10 4 16l6 2q0 6 -6 6q-4 0 -4 5l10 2l4 94q4 0 4 4v10q0 4 7 4h4q25 8 51 8h12v9q4 0 5 1t5 1t5.5 -1t5.5 -1t9 7t12 15t17.5 15.5t24.5 7.5h6q0 4 10.5 10t20.5 6h2v-2q2 0 2 -2t-1 -3t-1 -3q43 -2 70.5 -5t46.5 -3q12 0 26.5 6 t24.5 6h4q4 -2 5 -8t5 -6q6 0 15.5 7t15.5 7q4 0 8 -4q-2 2 -2 6q0 6 13 6q4 0 4 -6q0 -2 -1 -3l-1 -1q20 0 28 -8h4q10 0 11 -13v-22q12 0 30 -19l49 2v9q20 0 31 -9v-16h8l10 -11q11 -11 25 -24l60 -4q6 -6 11 -8t11 -4v-19h8q2 -20 3 -49.5t1 -68.5h4q2 0 3 -4 q0 -6 -7 -21h-22v-10q-14 -2 -32.5 -1t-34 -2t-27 -11.5t-11.5 -26.5q-33 -4 -52 -7t-30 -3h-8v-9q-4 -2 -12 -2q-6 0 -8 2q-14 -29 -25.5 -35t-27.5 -6h-7v-10q-25 0 -51 -8q-6 0 -9 -10t-13 -17q-35 -6 -60 -6v-10h-28l-5 -6q-4 -6 -9 -15.5t-9 -15.5l-4 -6q-6 2 -14 2 q-12 0 -38 -5t-42 -5l-4 -8q-2 -2 -11 -2q-8 0 -10 2q0 -16 -9 -24.5t-20.5 -11.5t-23.5 -3h-16q-16 -4 -23 -4q-10 0 -11 5t-11 5q-16 0 -39 -6t-39 -6h-11v-7q-23 0 -27.5 -6t-4.5 -16v-10q0 -16 -2 -21h-6v-33q-10 -4 -35 -4h-27q-12 0 -29 4q0 -4 -10 -9t-12 -9v-233h10 v-17h14q2 -2 3.5 -4t3.5 -4q156 0 182 -8q119 0 166 8v-8q39 4 65.5 8t42.5 4q10 0 35 -6t43 -6l6 2q0 4 17.5 11t21.5 7q2 0 2 -6l90 -4q2 8 9 8q0 -8 12 -7t14 -11q12 4 21.5 6t17.5 4q53 0 75.5 -6t31.5 -6q10 0 30.5 8t30.5 8t18 -4l5 -8q16 0 43.5 6t40.5 6q10 0 22 -4 v-8q41 10 67.5 15t41.5 5q4 0 7 -1t5 -1q0 16 8 17h2z" />
<glyph unicode="3" d="M1325 137v168h-8q-4 12 -4 27q0 8 4 28h8v80h-8q-2 4 -2 9v10q0 10 2 16q-6 0 -36 4t-48 4h-10v9q-2 -2 -4 -3q-4 0 -7 7l-4 8l-4 -4q0 6 -1 10t-1 6h-4q-6 2 -6 19h-43v8h-55q-4 20 -4 32q0 14 4 35h4q0 12 6 19l88 2q0 2 6 6h4q6 0 10 -2v6q0 6 6.5 17.5t10.5 11.5h14 v8q10 0 35 5t39 5q-2 4 -2 8v11q0 6 2 6h6v26l-4 -4q-2 0 -3 1l-1 1v4q0 4 2 7q-2 0 -2 6v2l1 1t3 1t2 -2h2v32l-4 -4q-4 0 -5 4.5t-1 6.5t2 4v4q0 4 8 4v88h-8v43q-8 2 -12 10l-111 4v29q-16 6 -23.5 12t-10.5 9.5t-8 5.5t-17 2t-41 -4.5t-45 -4.5t-32 7.5t-28 7.5h-6 q-12 -4 -12 -6h-4q-16 0 -17.5 8t-1.5 18t-5 20.5t-28 16.5l-139 -2q0 -4 -10 -6q0 2 -1 4l-1 2q-86 -6 -129 -6q0 -10 -12 -10v2q0 10 -7 10q-6 0 -6 4h-39q0 -4 -8 -6q-2 2 -3 4l-1 2h-47q-4 -2 -6 -4t-6 -4v8h-133l2 -59q-10 0 -11 -2v-2q-8 -4 -14 -4q-8 0 -24.5 6 t-22.5 6q-2 0 -10 -4q-4 -4 -20.5 -3t-22.5 -16v-32q-84 -16 -119 -19v-147q12 -4 35.5 -6.5t50.5 -5.5t50.5 -6t33.5 -7h2q8 0 16 4t13 4h8q0 2 8 14.5t12 12.5l4 49h11v35q20 0 20 -6l39 -2v8q37 16 43 16v25q10 10 33 10q8 0 28 -4v-6q41 4 56.5 9t38.5 5q25 0 49 -12 q45 0 84 4t69 4q45 0 83 -2t38 -18l10 -5l3 -16q8 0 18 -16l102 -4v-66h9q4 -12 4 -14q0 -6 -4 -11h-9v-40h4q8 0 9 -11h-13v-47h-202q0 -4 -14.5 -5t-16.5 -7q-4 -8 -4 -14t-5 -11.5t-17.5 -7.5t-37.5 -2v8h-18v-8l-14 -1q-13 -1 -29 -1q-14 0 -28.5 -2t-20.5 -6h-2 q0 2 -2 2q-4 0 -9.5 -2t-7.5 -2t-2 2l-264 4q0 -2 -9 -6t-11 -6v-78h10q4 -4 4 -17q0 4 4 5q2 0 2 -13q10 2 27 2q18 0 54 -5t52 -5q18 0 36.5 3t34 7t25 7.5t7.5 0.5q0 -6 10 -5t14 -9l172 -4q0 -6 8.5 -13t19.5 -12.5t20.5 -10.5t11.5 -9h12q31 0 81 -7t83 -7h18v-11h10 v-47h7q2 -27 3 -54.5t1 -55.5v-49q0 -25 -2 -48h-2q-8 0 -9 -8q0 -6 -6 -6q-14 0 -14 10v4q-29 -8 -50.5 -14t-37.5 -10q0 -16 -4 -29h-60v-4q0 -4 -4 -5t-4 -5v-2q-31 4 -54.5 6t-39.5 2v6h-70v-6q-29 -4 -55 -4h-55h-54t-51 4v6h-43v15h-10v12v12l-49 4v8h-51 q-14 49 -15 82q-2 0 -2 -2v0q-6 0 -9 3t-6 6.5t-7 6.5t-17 3q-16 0 -40.5 -4.5t-28.5 -4.5q-6 0 -11.5 1.5t-9.5 1.5v4q-49 -6 -59 -17v10h-6q-12 0 -23 -10v-149h10q18 0 19 -8q29 4 44 8t19 4q6 0 19 -12v-25q2 2 4 2q6 0 9 -8t7 -10q8 6 21 6q35 0 54 -18.5t19 -22.5 q2 2 9 2q4 0 12 -5t8 -16q6 0 14 2q8 0 9 -8q193 0 233 -8q6 14 29 18h8q16 0 39.5 -8t34.5 -10h2q6 0 18 7t17 7h45q76 0 122 -8t41 -4h23q25 0 34 4t12 10.5t5 10.5t8 4l9 -4q-2 2 -2 8q0 12 13 19t29.5 12.5t32 6.5t19.5 1q14 0 20 -2q0 16 23.5 24t34.5 8q8 0 12 -2v11 h31q0 4 20 24z" />
<glyph unicode="4" d="M1321 182v90q-29 0 -29 4l-53 7q-12 10 -23.5 11t-11.5 19h-2q-8 8 -8 21q0 10 8 18l2 13h-2q-6 76 -6 122v29q-2 -2 -4 -2q-6 0 -6 8q0 12 10 13v94q-8 0 -8 8q2 8 8 8v94q-10 0 -10 9q4 8 10 8v47l-16 4l4 4t12 4q0 8 -8 8h-2q-2 10 -2 21v22q0 25 2 33q-12 0 -12 4v2 q10 0 11 8.5t3 8.5l8 -4v4h-2q0 2 -2 2t-3 -1t-3 -1v127q-35 4 -58.5 7t-35.5 3l-7 -2q0 -4 -10 -8q-4 4 -4 10l-59 -2v10l-31 -2q0 -4 -16.5 -8t-36 -8.5t-37 -6.5t-19.5 -2q-20 0 -26 2v7q-2 0 -3 1l-1 1q-4 0 -5 -5.5t-8 -5.5l-2 9q-14 0 -28 8v-2l-8 -8l-5 10h-81 q-16 -10 -52 -10q-35 0 -51 -7l2 -59h-10l-4 -35h-45q-37 -12 -62 -18l-4 -127q-8 -4 -67 -4v-11q-6 -4 -22.5 -5t-29.5 -11v-43h11q4 -20 4 -31q0 -8 -4 -28h-11l-4 -60q-20 -4 -24 -8v-8q-6 -2 -13 -2q-6 0 -8 2q0 -4 -11 -11.5t-19 -7.5q-4 0 -5 5v4q-20 0 -28 -9 q2 -2 2 -6t-7 -9t-7 -9q0 -6 2 -8h10q2 -4 2 -15q0 -10 -2 -12h-10v-63h10q6 -18 6 -29q0 -14 -10.5 -21.5t-24.5 -10.5t-31 -3h-30v-10h-29v-191l4 -2q0 -6 7 -9t7 -13q23 0 33 -19h68q4 10 10 11q4 -4 4 -11q4 0 14.5 1t26.5 1t35.5 -1t42.5 -1h37q33 0 58.5 5.5t41.5 5.5 q6 0 14 -9q27 10 40.5 13.5t11.5 3.5q2 0 16 -2t18 -15q37 6 115 7q29 0 62.5 -1t74.5 -4q0 2 -2 3v2q0 6 9 6q2 0 3 -1l1 -1v-9h65q0 -10 9.5 -21t9.5 -48h6q4 -8 4 -15q0 -6 -4 -14l-6 -2q0 -4 7 -9t34 -36h20q41 0 53 -8q4 4 14.5 5t12.5 1q10 0 39 -6v2q0 10 9 14t15 4 q4 0 5 -2h2q6 0 15 16.5t15 16.5l4 86q2 2 14.5 10.5t31 17.5t30.5 9q4 0 12 -4v10q2 0 2 -2h3q6 0 8 7t4 7t6 -4zM971 291q-2 -4 -10.5 -5t-19.5 -2t-21.5 -3t-16.5 -7v2l-12 7q-12 0 -12 -4v-3l2 -2l-50 5q-4 4 -14 3t-20 9q-8 0 -9 -6l-292 -4q0 10 -9 10q-4 0 -6 -6 t-6 -6l-2 2q0 8 -20 8h-11v14q20 16 29 16l2 111q-4 2 -13 7t-9 12h10q6 23 10 38t25 27q2 2 12 -3t20 -5q-4 0 2 0t16.5 2t23 6t18.5 10v4q0 4 4 4l8 115q6 6 6 10t-6 6.5t-6 6.5v2q2 0 2 2q14 4 16 16t27 12v11q31 0 43 4t14 8t2 8t7 4v25q14 2 14 10q0 12 -6 12 q-2 0 -8 -6v74h10l4 59q20 0 20 17l47 -4q4 -2 15 -2q12 0 20 2l25 4v-4q6 0 27.5 -1t58.5 -1v-9q16 -10 29 -10l2 -317q0 -2 2 -2t4 2v-17q-6 0 -6 -6v-4q-2 0 -2 -2t1 -6t5 -4q2 0 2 4v-35h-6v-33h8v-63h-8v-39q2 0 4 1l2 1q2 0 2 -4l-8 -2v-47h8v-13q-10 -10 -10 -14v-4 q0 -2 4 -2q6 0 6 -4v-2z" />
<glyph unicode="5" d="M1319 172v258h-10v125h8v29h-64q0 6 -10 9t-21.5 6t-20.5 4l-9 1v19q-18 6 -40 10t-40 8t-30.5 10t-12.5 17v6h-10q-12 0 -21 4v8q-14 0 -18 1t-7 2t-7.5 2t-18.5 3q-12 0 -16 -8q-2 10 -3 17.5t-1 13.5v6q-10 4 -21.5 11t-21.5 11q-25 0 -25 -8h-10q-20 0 -25 8 q-8 0 -21.5 -5t-17.5 -5q2 -2 2 -6q0 -2 -8 -6q-29 14 -35 22l-184 -2q0 -6 -12.5 -11t-16.5 -11q-4 12 -4 14h-67q0 -18 -8.5 -28.5t-20.5 -13.5t-27 -3h-20t-10 1t-6.5 2t-12.5 2t-28 1v123h8q2 2 2 6v0q0 2 -2 2l-8 -4q-4 12 -5 19q0 4 5 20h8l2 51q4 0 10 8.5t16 8.5h3 q4 -4 4 -8h55v4q2 4 4 4q4 0 16.5 -3t14.5 -3v2q4 4 23.5 5t25.5 9v-10l51 -6l90 2q12 8 17 8q4 0 16 -8l131 -2v2q4 4 15.5 5t15.5 5q37 -4 64.5 -6t49.5 -2v-4h142v4q8 8 14 8t19 -8v-4q18 0 35.5 4t27.5 4h14q12 6 20.5 9t14.5 6t10 9.5t11 20.5h8v10h-8q-4 16 -4 23 q0 8 -2.5 13t-8.5 12t-20 22h-119q-10 -12 -20 -17v2q0 4 -7.5 6.5t-7.5 6.5v2l-59 -2v10h-31v-10q-6 2 -29 2q-20 0 -52 -4t-50 -4q-23 0 -45.5 3t-69.5 3v8q-8 -2 -8 -8h-86v8q-8 -2 -8 -8h-31v8h-20l-4 -8q-20 0 -53 -6.5t-54 -6.5h-4q-8 0 -34.5 7.5t-39.5 7.5 q-6 0 -14 -4v10h-16v-10h-78v10q-20 0 -21 -10h-16q-10 0 -27.5 -2t-37 -3t-37 -3.5t-29.5 -2.5h-23q0 -4 -10 -6v-73h10q2 -8 2 -19q0 -14 -2 -20h-10l2 -21q4 4 6 4l2 -7t2 -11q0 -6 -10 -6v-64q2 0 3 1t3 1t2 -2v0l2 -289l1 1t3 1l3 -3q4 -3 4 -5h2q6 0 13 6.5t11 8.5 l20 -5q21 -6 31 -6q6 0 10.5 6.5t10.5 13.5t15 13t24 6q10 0 32.5 -6t34.5 -6h4q4 10 15 10v-10h59q0 8 6 12h4q6 0 11 -2v6q27 10 30 11q-2 2 -2 8q0 10 15 16v-2q4 0 5 7t5 7h2q8 0 8 -12h2q8 0 22.5 7.5t22.5 7.5q4 0 13 -5q-4 4 -5 7q0 6 13 6q4 -4 4 -13q76 0 90 -10h2 q10 0 14 11.5t27 11.5q6 0 10 -1t10 -3v-9h64q10 -4 20.5 -6t20.5 -2h6v-26q6 -4 29.5 -9.5t34.5 -15.5q14 4 23 6t15 4q0 -6 4.5 -7t6.5 -1q4 0 7 -4t3 -16v-11q2 2 4 2q6 0 6 -16q23 -2 40.5 -4t31.5 -2h12v-25l6 -2q2 -37 3 -65.5t1 -50.5v-31h9q4 -12 4 -17q0 -6 -4 -14 h-9v-22h9q4 -8 4 -15q0 -8 -4 -16h-9q0 -20 -4 -25q-12 0 -12 4q0 2 4 7q-29 -4 -48 -7.5t-32 -3.5v-41q-10 0 -10 -2v-2q-10 -4 -18.5 -6t-18.5 -2q-12 0 -23.5 7t-17.5 7q-4 0 -7 -6t-7 -6l-2 10q-2 2 -4 2l-2 2q-8 0 -10.5 -19t-4.5 -24l-16 -2v-8q-49 -23 -51 -31 q0 20 -13.5 19.5t-21.5 7.5q-49 -2 -72.5 -3t-38 -2t-24.5 -1h-27q-39 0 -71.5 2t-32.5 12q2 6 2 19h-8q-8 20 -38 22t-42 2h-11q-37 4 -47 41h-51q-18 0 -26.5 1t-14.5 6.5t-14 15.5t-25 28h-80v-149h2q0 2 2 2q10 0 17 -21h45q16 -2 27.5 -4t21.5 -6v-14h6q0 -2 1 -7 t1 -18h2q4 0 11.5 -2t17.5 -6l-2 8h45v-8q4 2 5 4t3 4l31 -8v-16h6q4 -16 4 -19q4 4 6 4q4 0 4 -10h80v-10q8 0 11.5 7t19.5 7q8 0 20 -4v-10q2 2 10.5 5t16.5 6t15 6l6 3q6 0 26 -10v-8h29v8h115v-8h47q-2 2 -2 4t2 4h12q14 0 14 -6l17 -2v8q12 4 20 4q6 0 11 -1t12 -3v-8 h59v10q2 0 4 1t6 1t5 -1t6 -1q0 14 16 15v2q0 12 13.5 18t23.5 6h6l4 8q10 0 23.5 10.5t21.5 10.5q6 0 10 -4v10q4 2 24.5 15.5t35.5 13.5q4 0 6 -1l6 -3q-2 2 -2 4q0 6 16 6q12 0 13 -6q0 -2 -2 -2v-2h18q0 2 -1 3t-1 3q0 18 21.5 26.5t31.5 12.5v-11q27 10 35 11h4 q0 16 35 16z" />
<glyph unicode="6" d="M1331 160v164h-8q-2 45 -3 106.5t-1 140.5q-2 -2 -6 -2q-8 0 -8 2q0 4 -3.5 8.5t-13.5 7.5t-37 3q-31 0 -45 6v27h-6q-6 8 -6 16h-4q-16 0 -45 6t-39 6q-12 0 -21 -4v25h-10v18q-47 0 -51 6q-61 0 -95 -6t-55 -6q-6 0 -6 6v0q0 2 2 6q-78 0 -133 -2t-92 -6q-41 2 -69.5 3 t-49.5 5q-10 -8 -18 -13t-14 -9v-25q-20 -4 -105 -4q-16 8 -24 8l-5 2q0 6 -6 7.5t-6 5.5l12 2v24h-8q-4 4 -4 8t6 11.5t6 11.5h-8q-2 6 -2 23q0 12 2 16h8l-2 94q2 0 2 -2h2q6 0 9.5 8t5.5 10h43q10 18 20 25l2 -2q4 0 5.5 7t5.5 7q6 0 10 -2v25q6 8 26 8q10 0 32 -6t36 -6 l59 -4v4q-2 -2 4.5 1t15.5 8t17.5 9t12.5 4v-8q4 -2 10 -2t16 10q6 -8 29.5 -13t49.5 -7t46 -2h23l61 -4v6q4 0 16.5 7t20.5 7t13 -8t8.5 -19.5t4.5 -21.5t1 -12h6v-43q2 2 6 2q6 0 11 -10.5t13 -10.5q10 0 23.5 5.5t17.5 5.5q12 0 34 -21.5t28 -30.5l65 -4q4 -4 21.5 -3 t28.5 -9q18 12 41 12q12 0 20 -2q0 6 14 25q2 0 3 -1t3 -1q6 0 7.5 6t3.5 6q4 0 6 -2v29q-4 2 -8 10h-68q-27 0 -48.5 3t-21.5 15q0 2 5 19l2 -2q4 0 7 6t7 6h2v12q-23 16 -36 25.5t-24.5 15.5t-23.5 10.5t-35 8.5q-2 8 -2 18v6q-20 0 -20 17l2 2q4 0 5 7t5 7t8 -4v14h-8 q-6 23 -27 23q-18 0 -28 2q-8 0 -32 -1t-50 -1q-25 0 -47.5 -1t-30.5 -1q-18 0 -49 1t-66 1q-33 0 -63.5 1t-48.5 1l-2 8q-4 0 -17.5 -9t-28.5 -9h-14q-6 0 -10 4v6q-31 -2 -52.5 -6t-35.5 -9q-33 4 -55.5 7.5t-34.5 5.5q0 -16 -11 -17l-4 -32l-51 -2q-8 -8 -29.5 -7.5 t-29.5 -9.5q-10 -20 -12 -22h8q4 -12 4 -19q0 -8 -4 -20h-8v-25h-17q-18 0 -35 -4v-8q-57 -12 -59 -14l-8 -101l4 -22q8 -16 8 -27q0 -8 -8 -29l-4 -12v-119v-12h6q2 -27 3 -46.5t1 -35.5v-20q2 2 6 2q10 0 14 -25q-2 0 -4 1t-4 1t-2 -2v0v-8q0 -8 -10 -8v-285h2q0 2 2 2 t30.5 -15.5t69.5 -15.5q29 -33 29 -30q2 2 6 2q8 0 25 -11v-8l63 -6q6 0 10.5 -5t7.5 -12t8 -12.5t15 -5.5q6 0 11.5 1t9.5 1t6 -1t4 -1v-10h16v10h123v-10q8 0 14.5 6t22.5 6q18 0 29 -2v-8h39q-6 2 -6 6q2 0 5 2t5 2q8 0 8 -10q4 6 14.5 8t21.5 3t20.5 2t11.5 3 q2 -4 15 -5t19 -11h37v8q2 0 4 -1t4 -1q16 0 35 7.5t23 7.5t18.5 -4.5t32.5 -8.5v-8h16v8q16 0 35 6.5t31 6.5q10 0 22.5 -5.5t34.5 -5.5q4 0 9.5 8.5t12.5 17.5t18 17.5t30 10.5q31 4 48 16t22 12h2q10 0 28.5 10.5t34.5 10.5q4 0 5 -1t3 -1v10q23 0 26 9t7 26h8zM1106 260 h-8q-2 -12 -3 -29.5t-1 -40.5h-7q-23 0 -53 -8t-59 -16v-27h-17q-23 0 -65.5 -5t-67.5 -5q-6 0 -12 1t-12 1v4q-10 2 -18.5 3t-16.5 1q-20 0 -33 -8q0 10 -8 10h-4q-8 -2 -12 -4l-4 -2h2q-23 -4 -43 -4h-35h-19q0 8 -6 8h-4q-23 -6 -19.5 -7t-2.5 -1h-9h-4q-6 6 -26 6 q-8 0 -15.5 -1t-15.5 -1q-10 0 -16.5 8.5t-12.5 18.5t-13 18t-15 10q-8 0 -9 -4l-39 -4q-20 0 -28 8v5q0 8 -4 12h-9v258h9q4 29 13 38t20.5 11t23.5 2q14 0 27 10q16 33 28 43q16 -4 21 -4q12 0 30.5 7.5t28.5 7.5q6 0 19 -5v-2q0 -4 12 -4q8 0 12 1l4 1q0 2 -2 4l60 3v-9 q8 0 24.5 -1t34.5 -3t35.5 -3t28.5 -1q6 0 19 2t27.5 3t29 3t22.5 2v-10q6 -2 18 -2q23 0 45 12q20 -37 39 -53h94q4 -18 6.5 -29.5t4.5 -19.5h10v-39h-8q-4 -6 -4 -18q0 -14 4 -19q2 2 4 2q4 0 4 -12q-14 0 -14 -4q0 -14 8 -14q4 0 6 2v-29h-8q-4 -10 -4 -21v-16v-18t4 -19 q2 0 3 1t3 1t2 -2v-4z" />
<glyph unicode="7" d="M1321 862v72l-8 -4q-4 0 -5 6t-1 10q0 10 8 10q4 0 6 -2v9q0 16 -8 35.5t-8 29.5t2 14q-12 0 -13 5q0 2 4 6q-25 0 -36 -1t-17 -2t-9 -2t-11 -1q-23 0 -37 6q-4 -8 -20.5 -6t-18.5 -11q0 10 -6 11q-6 0 -6 4v2l-256 -4q0 -4 -9 -7q-4 4 -4 9q-57 0 -74 -3l-18 -4q2 2 2 3 q0 2 2 4q-70 0 -95.5 -5.5t-35.5 -5.5t-14 11q-35 0 -48.5 -4.5t-23.5 -4.5h-6q-14 0 -16 9h-43q-66 0 -97 -7l-16 5q-10 0 -11 -1t-2 -2.5t-3 -2.5t-15 -1q2 0 -4 7h-69q-43 0 -64 -7v-2q0 -6 -8 -8q-4 4 -4 10l-68 -4q0 -4 -10 -6l2 -31q4 4 4 5l2 -2q2 -4 2 -11 q-4 -6 -6 -6h-2v2v-47q14 -8 18.5 -13t26.5 -5q10 0 27.5 2t31.5 2t35 -4v-6h31v6q4 0 22.5 1t49.5 1q-2 2 -2 4q0 4 12 4q0 -2 1 -4t1 -4l53 -6q8 -4 15 -5q12 0 32.5 7.5t32.5 7.5q8 0 16 -4q4 10 9 10q6 -12 10 -12q8 0 19.5 6t15.5 6t10 -6v-2q0 -4 4 -4q6 0 6 -4 q10 4 20.5 6t22.5 2q10 0 20.5 -1t20.5 -3l17 -4v4q12 6 26 6q10 0 27 -6l37 -4q4 8 12 8q12 -4 12 -8h47l-4 4q0 2 4 4t6 2q8 0 9 -6q0 -2 -1 -3l-1 -1h69l-4 2v2q0 6 12 6q4 0 6 -3l1 -3q0 -2 -1 -3l-1 -1h20v4q10 4 18.5 6t18.5 2q8 0 17.5 -2t19.5 -6v-2 q16 0 24.5 -15.5t8.5 -25.5q0 -18 -16.5 -23.5t-38 -8.5t-40 -7t-20.5 -21v-35q0 -16 -15.5 -26t-36 -16.5t-39 -9.5t-24.5 -3q2 -2 2 -4q0 -6 -10 -15.5t-8 -13.5h-4q-18 0 -49 -8t-48 -8h-2q0 -14 -8 -14l-6 -115q-20 0 -53 -8t-47 -8q-4 0 -7.5 -12.5t-13.5 -12.5v-66 q4 4 8 5q4 0 4 -19q-2 -6 -12 -6v-31q12 0 12 -8q0 -4 -12 -4l2 -80h8q0 -8 1 -14t1 -10q0 -6 -1 -12.5t-1 -12.5h-8v-10h8v-51v-50h-8q10 0 11.5 -25.5t1.5 -78.5l4 4v-2q0 -12 10 -19.5t24.5 -11.5t28.5 -5t23 -1h12v-8q10 0 27.5 5t27.5 5t18.5 -1t16.5 -1q0 16 21 27 q2 0 2 -2v0q4 0 5 7t3 7q4 0 8 -4v76q-10 0 -10 2v2q2 6 8 6h2v16q0 14 -6 38t-6 38q0 10 6 27l4 63h-4q-8 33 -8 74q0 39 8 72h4q0 4 -1 6t-1 6q0 20 10 27.5t24.5 10.5t28.5 3t23 6v8l2 -2h2t2 6q0 8 4 8q2 0 6 -4v2q0 10 8.5 19.5t8.5 17.5q0 2 -2 2v2q-4 -2 -9 -2 q-6 0 -6 11q8 8 15 8v24q-4 -2 -9 -2q-6 0 -6 13h6q6 0 7 4q0 6 -2 10q4 4 6 4t2 -2h2q0 16 4 25q4 -2 12 -2h19h22t29 2h24q33 0 58 -7q4 4 12 11.5t18 7.5q4 0 7 -2v8h22q-2 4 -2 10v4q2 4 4 4q4 0 4 -2l-2 19q-4 2 -4 10q0 10 4 16l6 60q10 0 37 16.5t53 16.5v2 q0 12 23 24z" />
<glyph unicode="8" d="M1321 180v285h-4q-4 4 -4 18l-103 2v15h-8v14q-16 0 -16 6q0 2 2 4q-12 0 -31.5 2t-48.5 6v11q-2 0 -2 -2h-2q-4 0 -7 6l-3 6l-4 -4q-10 29 -24.5 37t-31.5 16l-37 -2q0 -6 -8 -8q-4 4 -4 8q18 23 29 23q4 0 4 -15h4q4 0 4 4v9q0 2 1 3l1 1q6 0 8 -7.5t2 -9.5h19v10 q20 6 26.5 11.5t7.5 9.5t1 6q0 4 8 6q20 18 55 19q16 0 25 -2v10q16 2 22 7t7 10t1 10q0 6 2 8q2 0 2 -2h3q8 0 19 6t15 6q6 0 11 -4q-4 4 -5 6q0 6 7 6q10 0 10 -12h37q-2 4 -2 10v4q2 6 6 6q2 0 3 -1t3 -1v125q-47 20 -61 21v8h-9q-2 0 -11 1t-18.5 3t-16.5 6t-7 10t2 11 q-8 0 -11 1l-3 1q0 2 2 4q-12 0 -39 8t-37 8t-14 -2v4q-2 0 -2 -2h-2q-6 0 -10 6l-3 6q-2 0 -2 -2h-2q-2 4 -2 15q0 6 2 10q-123 12 -125 12l-4 29q-6 0 -8 6v12h-170v9q-12 -4 -12 -7v-2l-162 6q-16 4 -21 5q-12 0 -30.5 -7.5t-28.5 -7.5q-6 0 -18 4q0 -10 -13 -10v-24 q-4 2 -10 2q-8 0 -7 -3.5t-5 -7.5t-24.5 -7t-63.5 -3q0 -2 -4 -9t-9.5 -15.5t-8.5 -15.5t-1 -7q-35 -4 -59.5 -10t-40.5 -10q0 -23 -4 -31h-70q2 -2 2 -6q0 -2 -8 -7q-6 8 -6 13h-39v-51q6 6 8 6q6 0 6 -15q-12 -4 -14 -4v-30h10q4 -12 4 -15q0 -6 -4 -14h-8v-21l1 1t3 1 q8 0 8 -12q16 -4 29.5 -6t28.5 -2h10v-8q4 2 12 2q6 0 14.5 -6t8.5 -29l2 2q2 0 16 -20h17q4 -4 4 -7v-2q16 2 28.5 5.5t16.5 3.5q14 0 34 -17v-18q4 2 9 2q6 0 6 -8l45 4q0 2 2 4h2q6 0 10 -2v-6h2q0 2 2 2q8 0 25 -6q-2 -4 -2 -9q0 -4 7 -3t7 -7v-2q-18 -10 -51 -14 t-49 -15q0 -29 -5 -37t-22 -8q-8 0 -19.5 1t-23.5 1q-39 0 -55 -8v-6q0 -23 -6 -27t-10 -8q-2 0 -4.5 1t-4.5 1t-3 -1l-1 -1v-8q-2 -2 -10 -2q-6 0 -10 -4q-20 2 -35 2q-14 0 -25 2l-4 -59h-10v-72h10q2 -6 2 -19q0 -12 -2 -18h-10v-14h10q2 -20 3 -48t1 -63q2 0 11.5 -2 t19.5 -5t18.5 -6t10.5 -3v-8q29 0 48 -20.5t44 -31.5h24q14 0 24.5 -1t21.5 -3v-12l2 2q2 0 4 2q4 0 10 -10t6 -12q0 -4 -1 -5.5t-1 -3.5q88 0 104 -8v-24q6 -2 24.5 -4.5t39 -3.5t39 -4t26.5 -5q4 2 16.5 4t18.5 2q12 0 35 -7t35 -7q8 0 38 2t66.5 3t74.5 4t63 7q-2 2 -2 7 q0 6 10 6q2 0 2 -2h2v24q8 6 25.5 9t35 4.5t31.5 2.5t18 3q0 25 11.5 29.5t29.5 4.5h11q16 -2 26 -2h17h8q14 10 23.5 19.5l17.5 17.5t16 12.5t23 4.5v6h35q0 18 16 18zM1085 737h-110v-18h-8q-4 -8 -4 -33h-23q-12 0 -30.5 1t-41.5 1q-20 0 -40.5 1t-34.5 1h-21h-18 q-8 0 -25.5 -1t-48.5 -3q-25 -2 -44.5 -4t-35.5 -6v8q-12 4 -16 4q-10 0 -28.5 -6t-35.5 -6h-4q-4 12 -21.5 14t-17.5 10v35h-125v56h10v59q2 -2 7 -2q6 0 6 14v4q16 6 50 5t52 8q0 8 11.5 20t11.5 19l299 2q4 8 20 8q14 0 25 -2v-2q2 -2 18 -2h19q10 0 24 2q41 0 58 -13v-6 q0 -29 27.5 -33t72.5 -4v-2l3 -1t11 -1v-22h8v-105zM1110 256h-25l15 -59q-2 2 -8 2q-4 0 -5.5 -6.5t-5.5 -6.5v0q0 2 -2 2v-8h-28q-12 0 -25 2q-35 -4 -49 -20v-33q-61 0 -68 -10q0 14 -8 14q-4 0 -20.5 -8t-36.5 -8q-25 0 -47.5 6t-38.5 6q-20 0 -35 -6h-31q-18 0 -30 -14 q-100 16 -152 18v2q0 4 -23 4v29h-8q0 8 -4 16q-8 0 -8 -6l-51 -4q-4 12 -19.5 14t-17.5 4q-4 14 -6 17h-8v209h8q2 4 3 11t1 21q0 8 10 11.5t10 7.5h25q0 -8 6 -8q8 0 8 6v2q10 -8 23 -8q14 0 22 28q8 23 21.5 27t11.5 4q8 0 11 -4l3 -4q10 0 11 4q0 2 -2 4h81q-2 -2 -2 -4 q0 -4 15 -4q12 0 12 4q0 2 -2 4h88q0 -8 4 -8q10 0 10 4t-2 4h80v-8q4 -2 27 -2h18q12 0 29 2q47 0 70 -12q-2 -2 -2 -7q0 -16 35.5 -24t80.5 -8q-4 0 -4 -6q0 -2 7.5 -4.5t7.5 -12.5l10 -2v-92h8v-23h-8q-2 -6 -3 -10t-1 -8q0 -10 4 -18h8z" />
<glyph unicode="9" d="M1325 184v250q-2 -2 -4 -2q-4 0 -5 4t-1 8q0 8 8 9l-2 16q-4 6 -4 16q0 12 4 19h2l2 2q0 2 2 4q-4 4 -7 3t-3 9t4 17l2 -2l-2 182q-6 82 -6 133v31h-17q-4 2 -4 8l-73 4q-23 33 -34 41t-20 8q-10 0 -22 -6t-21 -6q-18 0 -37.5 8t-19.5 35h-37v-4v-4q-39 16 -56.5 20 t-17.5 29h-2q-6 0 -10 9t-8 9q-37 2 -62.5 4t-44 4t-34.5 2h-33q-41 0 -74 -6t-55 -6q-4 4 -4 6l-127 4q-8 -31 -23.5 -43t-31 -16t-25.5 -2l-10 2q-10 0 -14.5 4t-12.5 4q-10 0 -13 -8t-4 -17.5t-3.5 -16.5t-8.5 -7h-12q-8 0 -8 -8q-12 4 -70 4v-2q0 -4 -11 -11t-11 -18 q0 -20 -47 -20q-16 2 -33 2q-16 0 -33 2q2 -41 2 -60v-18h-10v-16q2 2 6 2h2q2 -2 2 -6l-10 -5v-100l10 -2q4 -20 4 -29q0 -14 -4 -30h-8v-52h8v-26h8q6 -4 6 -17l3 5q12 -20 47 -21v-8h10q29 0 29 -8v-15h8q4 -4 4 -16q49 0 71.5 -6t36.5 -6q12 0 37 7t37 7q2 0 24.5 -5 t26.5 -9l2 -21q4 0 10.5 -8t10.5 -8h37q55 0 121 6q88 0 104 -14q43 12 92 12h25q12 0 26 -2q0 4 11.5 10t17.5 6v4v11q0 4 7 6t26.5 3t58.5 1v4q0 6 10 6q4 -8 4 -10h13q27 0 26 -10v-15h7q6 -31 6 -94h8v-115h-8q0 -29 -7.5 -40t-13.5 -10t-8 1q-8 0 -12 4v6h-25v-6 q-10 0 -26.5 -9t-22.5 -9v-37q-29 -6 -49 -6h-14v6q-6 2 -25 2q-12 0 -42 -6t-42 -6q-10 0 -23 4v4q-20 4 -28 4q-16 0 -49 -6t-50 -6q-10 0 -26 4v4q-6 0 -30.5 -6t-43.5 -6q-4 0 -6 1t-6 1q-6 6 -26.5 8t-28.5 12v39h-9q0 4 -6 24l-6 19q-14 10 -33.5 8t-38 1t-31 19.5 t-12.5 59.5q0 4 1 7t1 8q-4 -4 -8 -5q-6 0 -13 8.5t-11 8.5l-4 -4v-4q-4 -2 -13 -2q-10 0 -22 6q0 -4 -12.5 -7.5t-16.5 -11.5q-2 2 -2 6q0 2 2 5q-35 8 -54.5 10t-31.5 2q-18 0 -39 -15l2 -88q12 0 12 -10q23 -2 41.5 -4t34.5 -2h15q12 -35 12 -68l8 -2v-24l1 1t3 1 q8 0 8 -10h82v-11v2h2q4 0 11.5 -5t7.5 -21h6q2 -2 3 -10.5t5 -8.5q10 0 23.5 5.5t17.5 5.5h8q4 0 15.5 -4.5t42.5 -20.5v-16q4 0 24 -17q133 0 158 -8h2q16 0 46 10.5t46 10.5q18 0 42 -9.5t38 -11.5h4q10 0 28.5 3t49.5 7q0 14 29 15q-2 2 -3 8q0 12 14.5 24.5t39.5 12.5 q4 -4 4 -11q4 0 7 1.5t7 1.5q23 0 54.5 -7.5t45.5 -7.5q41 0 56.5 9.5t20.5 21.5t4 25.5t10 23.5l4 4q-2 2 -2 6q0 8 10 9h2q31 10 45 10h8v6h21q0 18 16 18zM1104 631h-10q0 -6 -6.5 -16.5t-6.5 -20.5q0 -2 1 -3t1 -3q-12 4 -20 4q-10 0 -34.5 -10.5t-35.5 -10.5 q-10 0 -14 2v-36q-18 -12 -43 -13q-18 0 -35.5 8.5t-38.5 8.5q-20 0 -50 -6.5t-46 -8.5q0 10 -2 11q-4 0 -12.5 -5.5t-14.5 -5.5q0 12 -8 13q-6 0 -6 -7q0 -4 2 -6q-51 2 -89 4t-65 5q-23 -4 -39 -5.5t-30 -3.5q0 10 -4 11h-2q-8 -2 -15 -2q-2 2 -2 22v4q0 4 -13 8 t-30.5 8.5t-36 6.5t-28.5 2q0 12 -4 24h-9v119h-8v25l8 2l-2 98q12 18 32 19t40.5 2.5t36.5 10.5t24 44q23 0 34.5 -1t19.5 -2t15 -2t24 -1q70 0 126 3t66 3q51 0 162 -6q0 8 20 8q0 -27 11.5 -32t19.5 -5q-2 -2 -2 -6t11 -11l12 -6q4 0 14 6.5t18 6.5q10 0 20.5 -6.5 t20.5 -6.5v-30h9q0 -53 1 -91t3 -61h8v-26h-12q4 -8 14 -9v-24z" />
<glyph unicode=":" d="M954 719l-2 133q-20 0 -20 6l-25 2v-2q0 -6 -14 -6q-12 0 -12 4v4l-52 4v37q-37 0 -36 10q-76 -4 -82 -10h-2q0 2 -2 2t-8.5 -2t-8.5 -2t-2 2q0 4 2 8h-74v-43h-6q-16 0 -52 -8t-52 -8h-6q0 -10 -1 -15.5t-3 -9.5h-11v-65h11q2 -2 2 -6q0 -6 -13 -19h11q4 -12 4 -24v2 q6 0 16 -21h39q-2 2 -2 6q0 2 4 4h2q10 0 10 -6q0 -2 -2 -4q10 0 21.5 -7t11.5 -26l16 -18q2 -2 11 -2q4 2 6 2h4q2 0 2 -4v-4q4 0 5 -1t5 -1q20 0 49 7t50 7q4 0 6 -1t6 -1v4q6 4 28.5 5t32.5 7q0 18 13 19q6 0 10 -2v26q27 0 30 -4v-6l37 6q0 -2 5.5 1t12.5 7.5t14 8.5 t11 4zM965 260v78q-25 8 -52.5 6t-38.5 0v10h-28l-2 33h-33q-23 6 -45.5 8t-46.5 2q-16 0 -33.5 1t-33 -3t-29 -15t-21.5 -36q-8 -4 -18 -4q-12 0 -17 4v8h-16v-8q-2 -2 -21.5 -1t-29.5 -7v-141q8 0 8 -9q8 -6 26.5 -7t35 -5t29.5 -12t13 -27q2 2 4 2l1 -4t1 -10q31 0 35 -4 q16 0 27.5 1t19.5 3v8q4 2 15 2q12 0 18 -2v-8q2 2 10 2q18 0 50 -14q2 6 10 11t18 5q6 0 10 -2v6q12 12 30 28.5t36 16.5q12 0 14 -2v10q16 2 26.5 3t18.5 1v48q-8 -4 -8 -5q-4 0 -4 9q0 10 8.5 15t10.5 5h2z" />
<glyph unicode=";" d="M1012 729q0 8 -2 8t-6 -4q-2 2 -3 119q-25 6 -46 8t-37 2h-17q-2 4 -9 9.5t-7 11.5v2q2 0 2 2h-6q-2 2 -2 8v2t2 6h-4q-14 0 -37 5t-39 5q-4 0 -20.5 -9t-18.5 -9q-10 0 -18.5 6t-16.5 10h-31q-4 -6 -11 -8t-14 -6t-12.5 -11t-5.5 -26h-4q-18 0 -49 -9t-53 -9h-4 q0 -16 -6 -17l-2 -106q6 0 38 -33l66 -4l3 -6t3 -14l10 -3q6 -10 11.5 -15t10.5 -7t8 -3t3 -7q31 4 45.5 8t22.5 4q6 0 14 -12q39 0 68.5 2t50.5 6q0 29 21.5 36t33.5 7l8 4q12 6 23 6h8q0 12 21 17v24h8zM1014 246l-10 65q-4 0 -5 4q0 2 5 7h10v53h-10v22q-25 -4 -43.5 -6 t-30.5 -2h-10q0 6 -5.5 8t-10.5 4t-10 7.5t-5 15.5q-8 0 -8 2q-29 0 -29 4v10q-6 0 -16 -2q-4 8 -7 11q-4 0 -23.5 -1.5t-45.5 -1.5q-25 0 -48.5 -2t-35.5 -6v-8q-12 0 -13 -7t-6.5 -14.5t-18.5 -14.5t-50 -7h-4v8h-6h-17h-4q-10 0 -12 -8v-154q4 4 8 5q8 0 14 -21q2 2 8 2 q2 0 8.5 -6t16.5 -6q2 0 3 1t3 1v8q4 -2 12 -2q10 0 19.5 -2t17 -8t7.5 -21q0 -16 -7 -34h-4q-14 0 -39.5 -7.5t-64.5 -19.5q0 -16 -13.5 -24.5t-29.5 -8.5h-8v-10q-2 2 -11 2q-12 0 -28.5 -8t-20.5 -11v-38q18 0 31 -17q20 6 37 6q29 -4 52.5 -7t41.5 -3l29 -4v4 q20 8 30.5 9t22.5 5h2q8 0 8 -8q51 2 76 6q0 18 20 35l15 4q8 14 26 15h33v8q16 12 23.5 18t9.5 12.5t1 11.5t1 13h8v64l8 2l5 10q4 10 18 10h6v8q25 8 31 9q4 0 4 -5q27 15 39 15z" />
<glyph unicode="&#x3c;" d="M1305 907v39q-16 4 -29.5 8t-22.5 9q-47 -6 -73 -7l-15 5q-16 0 -18 -7q-4 0 -4 7l-111 -3q0 -4 -8 -4q-4 0 -4 7q-18 -6 -23 -7h-2q0 -16 -4 -28h-10q0 -20 -11.5 -24.5t-15.5 -4.5q-8 0 -11 7t-13 7q-12 0 -27.5 -6t-25.5 -6q-2 0 -3.5 1t-3.5 1v-12q0 -29 -12 -29h-4 q-59 0 -86 -20.5t-23 -20.5q-10 0 -11 -6t-5 -6h-2q-2 0 -2 2t2 6h-31v-8q-29 0 -59 -8q0 -25 -23.5 -34t-60.5 -9v-6q-10 -2 -18 -2h-13h-8q0 -14 -4 -27h-10v-16l-88 -5q-2 -4 -11.5 -13t-18.5 -18.5t-18.5 -17.5t-11.5 -8h-2q-2 2 -2 6l-51 4v-4q-6 0 -16.5 -9t-14.5 -11 q0 -8 1 -12.5t1 -8.5q0 -10 -13 -11t-26 -1h-18q-10 2 -20.5 3t-16.5 1q-8 0 -12 -11t-6 -25.5t-3 -26t-1 -13.5h-7v-12h9q2 -8 2 -23q0 -14 -2 -20h-9v-59h9q4 -4 4 -17q2 2 4 2q0 -10 17.5 -17t38 -11.5t36.5 -5.5t14 -1v-14q0 -6 7.5 -8t15.5 -2h18t10 -2q6 -12 13 -19 q18 2 28 2h11v-12q2 2 6 2q2 0 4 -8t6 -8v-2q0 -6 7 -9.5t7 -11.5l84 -2q0 -6 15.5 -8t15.5 -27h8v-16l37 2v6q12 4 21 4q6 0 14 -4l2 -6q6 0 14.5 -6t14.5 -8v-21h8q4 0 4 -14l102 -4l4 -12q4 -4 5 -21q2 0 3 1t3 1q4 0 4 -6q43 -10 61 -12v-11h39q10 -8 18.5 -15t16.5 -13 l51 -2q8 -8 18.5 -11.5t10.5 -11.5l2 2q4 0 7 -5t7 -5h2q-2 0 9.5 -19.5t39.5 -19.5q8 0 20.5 5t22.5 5h15l6 -4q27 0 66.5 5t60.5 5q16 0 37 -4v2q0 16 28 17v39q-6 0 -8 2l-2 2l4 4h-35v8q-29 4 -45 4q-14 0 -14 31h-8q-20 0 -21.5 4t-7.5 4q-14 0 -12 -2q-4 4 -4 6l-60 8 v29q-29 14 -36 16v-6q-29 0 -35 -2v8h-4q-4 0 -8 6l-5 7v-4q-16 4 -15 21.5t-11 23.5l-51 -2v8l-60 4v22q-14 0 -14 5q0 2 2 4q-10 -2 -23 -2q2 0 -14 5t-16 13l-50 4v23h-6q-4 4 -4 16q-2 -2 -12 -2q-18 0 -45 6t-43 6q-4 0 -6 -1t-4 -1v17q-25 0 -33 26h-68q0 4 -12 9.5 t-12 21.5q0 6 2 10q-25 14 -37 15h-4q-8 4 -23 4q-10 0 -18 -7.5t-19 -7.5q-16 0 -19 11.5t-3 23.5q0 4 1 9t1 12h6l12 24q2 0 2 -2v0q4 0 5.5 7t5.5 7q6 0 8 -2v-10h61q0 18 21 19l-2 2v2q0 14 14 21t33.5 9t38 3.5t26.5 5.5q0 6 6.5 12t12.5 6l2 2q0 2 9 18.5t34 16.5 q29 0 29 -6h2q8 0 16 5t12 5v4q0 12 12.5 22.5t23.5 15.5t13 5q4 0 7.5 -2t7.5 -6l18 -4v4q18 6 26.5 7t11.5 3t4 8.5t7 20.5q6 8 21.5 12t31 7t27.5 5t15 2v3q0 6 12 12t26.5 10t27.5 6t17 2h7q-2 4 5 6t7 7h2q4 0 5 8t5 8q6 0 10 -2q-6 2 -6 6q0 10 18.5 17.5t49.5 7.5h27 v6q6 0 12 9t16 9h2q0 18 6.5 26.5t18.5 10.5t29.5 1t37.5 -1q-2 2 -2 6q1 4 11 4z" />
<glyph unicode="=" d="M1313 604l-4 74q4 -2 -6.5 7t-10.5 13l2 4q-4 2 -14 3q-10 0 -29.5 -6.5t-31.5 -6.5h-5q-2 0 -2 -10l-6 -6q-27 14 -37 18t-26 8q-2 -2 -8 -2q-10 0 -17 2q-10 0 -14 -10q-10 10 -21.5 11.5t-13.5 3.5v4q-4 0 -6 1t-6 1q-12 0 -31.5 -7.5t-26.5 -7.5q-14 0 -24 9l-60 4 q4 -4 5 -4l-2 -2l-9 -5q-4 8 -4 11q0 2 -10 2q-14 0 -34.5 -7.5t-37.5 -7.5q-2 0 -4 1t-4 1q2 -2 2 -4q0 -4 -10 -4q0 8 -8 8q-6 0 -6 2v7q0 2 -5 2q-4 0 -4 -6q-23 -8 -43 -9q-10 0 -20 2t-21 7v4q-4 0 -12 -6.5t-12 -6.5q-8 0 -14 9l-52 4l4 -4l-2 -3q-4 -2 -10 -2 q-4 4 -4 9h-16q2 0 2 -2v0q0 -4 -13 -7q-4 4 -4 9h-67q2 0 2 -2v0q0 -6 -10 -9q-16 4 -17 7q0 2 2 4h-20q0 -8 -8 -11q-12 0 -13 9v2l-172 -2q0 -4 -10 -9q-2 0 -2 4q0 2 2 5h-90q0 -8 -8 -9h-23v-96h51v-10q10 0 20.5 -3t10.5 -14q12 4 21.5 6.5t19.5 2.5q6 0 10 -1t8 -3 v-5q2 2 14.5 4.5t23 3.5t12.5 1q8 0 11 -5.5t13 -5.5q16 0 34.5 7.5t29.5 7.5q8 0 20 -4h31q16 0 28.5 -7.5t22.5 -7.5t25.5 7.5t25.5 7.5q4 0 17 -4v-5q4 6 30.5 7.5t36.5 1.5q25 0 40.5 -5.5t37.5 -5.5q16 0 42 6.5t54 6.5q10 0 13 -8q4 4 20 6t21 2q8 0 10 -8 q14 2 22.5 3t16.5 1h-2l4 2t12 4h4q6 0 6 -10q12 0 18.5 4t18.5 6q2 0 2 -6l131 -4v4q0 2 15.5 9t25.5 7h4q18 -4 21 -20q8 0 24.5 3t34 6t31.5 6t18 3v8q4 0 5 1t6 1q2 0 4 -1t4 -1zM1315 299v35q-4 -4 -6 -4q-4 0 -5 4l-1 4q0 2 2 2q-2 2 -2 8q0 2 2 2q4 0 8 -2q2 2 2 6 q-2 0 -2 -2h-2q-6 0 -8.5 7.5t-6.5 7.5q0 12 -8 12t-8 4q0 -2 4 10h-18q-27 0 -42.5 4t-31.5 4t-27 -10h-2q0 2 -2 2q-4 0 -10 -2l-6 -2q-2 0 -2 4q0 2 2 6q-35 0 -52.5 -2t-21.5 -6h-2q0 2 -2 2q-4 0 -7 -2t-7 -2q-2 2 -2 6l-99 2q0 -6 -12 -6v8l-53 -2q-8 -12 -21 -20v14 q-16 0 -39.5 4t-29.5 4q-2 0 -3 -4t-6 -4l-2 6q-23 0 -22 -6q-6 0 -24.5 2t-40 5t-43 5.5t-33.5 2.5q-35 0 -69 -7.5t-54 -9.5v-8q-18 -4 -21 -10v6h-8q-8 0 -20 -6q0 10 -9 10q-6 0 -6 4l1 1t1 3q-2 0 -3 1t-3 1t-4 -1t-6 -1q-2 2 -3 4t-3 4l-90 -2v6q-104 -12 -111 -12 v-10q-6 -2 -10 -3t-8 -1q-8 0 -17 4v10q-6 0 -6 -10q-23 0 -29 10q2 -2 2 -4q0 -8 -12 -10l4 -13q8 -6 8 -10q0 -8 -8 -14l-4 -43q23 -4 31 -27q16 6 26.5 9.5t30.5 3.5q12 0 24.5 -1t26.5 -1v-9h91q-4 4 -5 9v0q2 0 5 2h14q4 0 8 -2.5t4 -6.5l37 -2q-4 4 -4 6q0 4 14 7 q12 -8 13 -11l38 -2q-4 4 -4 9l13 4q2 -2 8 -2t6 -5q0 -2 -1 -3t-1 -3h162l2 9q8 0 21.5 6t19.5 6q6 -2 20.5 -11.5t24.5 -9.5q20 0 48 7.5t44 7.5q12 0 29 -6v-7q4 0 4 7q0 6 6 6t12 -4.5t6 -6.5l68 -2q-2 2 -3 4l-1 3q0 6 10 6l11 -2q10 -2 10 -7q0 -2 -3 -4h56v7 q0 4 14 6v-13h174v9q2 0 2 -2v0q4 0 5 7t5 7q8 0 9 -8h30q1 14 19 14zM180 608l-6 4h6v-4z" />
<glyph unicode="&#x3e;" d="M1321 410v135h-4q-4 12 -4 39q-6 2 -14.5 1t-8.5 7q0 2 1 3t1 3h-39q-18 16 -51 25v12q-29 10 -35 16l-90 6v37l-63 8q-31 4 -45.5 5.5t-14.5 29.5v8q-10 0 -10 9l-59 -2l6 -4l-4 -2q-4 -1 -13 -1h-2v3q0 2 2 4q-27 0 -30 4v30h-8q-6 2 -7 19h-100v6q-2 0 -2 -2h-2 q-4 0 -7 7l-3 7q-2 0 -4 -2q-4 4 -4 17h-5q-14 0 -34.5 6t-32.5 6h-8q-2 6 -9 6h-14q-6 0 -11 5t-5 22v12q-10 6 -29.5 7l-39 2t-34 6t-14.5 22v6q-2 -2 -2 -4v0q-4 0 -5 4t-1 6t2 4h-19q-10 0 -27.5 1t-35.5 3t-34.5 3t-29.5 1q-8 0 -27.5 -3t-19.5 -15q-10 16 -12 16h-51 q2 0 2 -2q0 -6 -10 -6l-4 8q-2 0 -9.5 -4t-17.5 -4q-4 4 -4 6v2q-29 -6 -39 -16v-35q20 0 31 -24h30q0 12 9 12q14 -6 28.5 -17.5t24.5 -21.5t16 -18l6 -7h52q20 -14 42.5 -28.5t45.5 -14.5l2 -6h43q0 -4 12 -5t16 -9q20 -29 49 -34t48 -5h6l7 -5t7 -13l4 -2 q29 -31 58.5 -32t46.5 -5v-13q4 2 8 2q10 0 16 -13l6 -13h52l-1 1q-1 1 -1 3t10 2q31 -12 43 -25v-24q47 -12 51 -17q10 0 19.5 2t15.5 2q16 0 23.5 -7t10.5 -16t4 -16.5t7 -7.5q31 -4 54.5 -7t39.5 -3v-4q0 -2 10 -2v-27h6q4 -4 5 -6q0 -2 -7 -2q-6 0 -6 -4q4 -4 4 -12 q0 -2 -20 -2v-6l-86 -19l2 -39q-20 -2 -48 -3t-63 -1v-4q0 -4 -10 -4v-2q0 -6 -6 -12.5t-6 -16.5q0 -6 2 -8h-74q-4 -6 -8 -6t-11.5 2t-9.5 2q-10 0 -11 -20.5t-1 -24.5h-113q0 -23 -13 -32t-23 -19v-8h-11q-14 0 -39 -7l-45 -12q0 -16 -28.5 -25.5t-57.5 -9.5q-10 0 -16 2 q-6 -2 -14.5 -22.5t-12.5 -20.5h-10q-41 -10 -63 -10h-11v-6h-20q0 -18 -12.5 -27.5t-28.5 -13.5t-33 -4h-20q4 -4 4 -6t-12 -2q-4 4 -5 6v2l-2 -45l2 2q4 0 15 -21q37 0 43 -6q74 0 95.5 3t31.5 3t16 -6q6 2 17 2q8 0 33.5 -1t70.5 -1q0 16 16 17h4q-2 2 -2 6 q0 8 14.5 22.5t30.5 14.5h58l-2 2q0 6 13 13t25.5 11t14.5 4l2 7q6 2 28.5 11t35.5 9q10 0 16 -2v8l2 -2q4 0 5 9.5t5 9.5t8 -2q-2 4 -2 12v0q0 2 2 2l80 2q14 8 29 12v6q0 12 12.5 21.5t30.5 9.5q12 0 18 -2l-2 8q39 18 45 19v8q14 18 64 18h16q10 0 21 -2v10q6 0 12 8.5 t16 8.5v-2h2v6q0 16 12.5 24.5t28.5 8.5q6 0 11.5 -1t11.5 -3v-9h39v9q2 0 2 -2h2q4 0 6 8t4 8l2 -1t4 -3q-2 2 -2 6q0 14 10.5 19.5t24.5 7.5t28.5 3t20.5 5q0 2 9.5 18.5t19.5 16.5z" />
<glyph unicode="?" d="M1327 659v15h-8v39h8v20h-8v162q-51 4 -83 5t-32 24v4q0 14 -5 16t-18.5 1t-35 0t-53.5 16h-5q-6 0 -5 11t-3 15q-23 12 -39 19.5t-30 7.5q-10 0 -19 -10v8h-30v35q-8 2 -15 8h-24q-2 -6 -16.5 -9.5t-18.5 -7.5v6h-13q-10 0 -27.5 2.5t-35.5 5.5t-33.5 5t-21.5 2 q-10 0 -17.5 -1t-17.5 -3q-6 8 -45 8q-4 0 -8 -9.5t-13 -9.5l-2 11l-125 -2q-6 -4 -14 -6.5t-14 -2.5l-8 -2q0 -18 -15.5 -25t-36 -10t-41 -5.5t-30.5 -8.5v-8q-16 -10 -39 -10q-16 0 -32.5 4t-51.5 4v-25q-23 -12 -94 -12v4q-14 0 -17 -8l-4 -51h-10v-29h10q2 -53 3 -94 t1 -70q4 4 6 4q-4 0 16.5 -10t59.5 -10h19q18 0 30.5 -2t22.5 -6q2 2 11 4t20.5 4t20.5 6t11 10l13 125l4 45q20 6 41 6h6v9q12 4 20 8t15 4v-8q8 0 17 13t21 13v9q0 8 5 12h124q-2 2 -2 6q0 8 17 8v-14h20v10q8 4 17 4q4 0 7 -1t7 -3v-10h49v10q4 2 17 2q12 0 18 -2v-10 q4 2 12 2q12 0 26.5 -5t27.5 -5h4q-2 -2 -2 -4t7 -6.5t7 -14.5h2q0 2 4 2q6 0 15.5 -3t9.5 -11q29 0 55.5 -1t26.5 -20q0 -2 -2 -4h8q2 -10 17 -15t32.5 -7t34 -3t22.5 -3l4 -15q6 -23 6 -35v-8h7q2 0 2 -6q0 -8 -9 -20l7 2v-90q-6 -2 -7 -9q-37 -14 -57 -14q-12 0 -16 2v4 q-31 0 -37 -14.5t-6 -26.5v-4q-29 -4 -53.5 -7t-43.5 -3h-14q-12 -47 -33.5 -50t-42.5 -3h-14q-6 0 -10 2v-11q-8 -2 -13.5 -3t-9.5 -1v-34q-8 4 -16 4q-12 0 -39 -9.5t-39 -9.5q-10 0 -16 2v-10q0 -8 -4 -8q-2 0 -5 2v-35q2 4 5 4q4 -2 4 -12q-4 -4 -9 -4l5 -119 q6 -12 6 -18v-3q18 -2 48 -3t70 -1q4 8 25 9.5t25 1.5h2q4 0 4 -7q18 8 30 9h9v67h8v0q2 0 2 2q-2 0 -1 4t-3 4q-2 0 -3 -1t-3 -1q-4 12 -4 23q0 8 4 20h8q0 16 1 25.5t3 17.5h8q-6 2 -6 9q0 6 7 10t29.5 6t63.5 2h109v8q23 4 31 8v25q12 14 32 14q6 0 19.5 -2t21.5 -2 q18 0 29 8v11q2 0 2 -2v0q4 0 5 6t5 6l9 -4q-2 2 -3 6q0 12 35 27.5t70 19.5v57h8zM965 84v47q-43 0 -68 2t-35 8t-12 14.5t-2 20.5v6q-10 0 -10 4t2 4q-4 0 -6.5 1.5t-6.5 1.5q-16 0 -36.5 -5.5t-26.5 -5.5q-10 0 -13 4t-18 7q-18 0 -33.5 -11.5t-17.5 -11.5q-8 0 -8 8 l-39 4v-10q-8 0 -12.5 -6t-11.5 -14.5t-19 -14.5t-37 -6v-8q-2 -2 -12 -2h-11q-6 0 -16 2l2 -31q4 0 7 -6t7 -12l54 -6q2 -2 20.5 -13.5t40 -27t23.5 -19.5q4 0 19.5 3t29.5 3t18 -2v-4q12 0 17.5 2t8.5 3t5 3t10 2q2 -2 2 -6v-4q2 0 4 -1t4 -1q10 0 25.5 6t28.5 6q2 0 4 -1 t4 -1q0 27 11 39.5t59 12.5v6q6 4 22 4q17 0 23 6z" />
<glyph unicode="@" d="M1333 221h-8v19h-86v8h-25v-10h-204q0 -8 -21 -9q0 -20 -3 -28t-8 -10.5t-10 -1.5t-7 -3v-8h-35v8h-60q0 -18 -7 -28.5t-17.5 -16.5t-20.5 -7t-14 -1l2 -2q0 -4 -16 -4v2v4q-66 0 -111 1t-72 3v31q-23 0 -22 12v6q-33 4 -58.5 6.5t-42.5 4.5v22q-4 0 -9 2l-5 2l4 4 q-16 2 -28.5 4t-20.5 5v10h-31q-20 0 -27.5 18.5t-7.5 65.5h-8v119h8v79h-10v39h10v4v0q0 2 -2 2t-4 -1t-4 -1v39h10v21h-10v28h10v74h-10v39h8v21q0 -2 -4 -2t-4 10v2v4q0 6 8 6l5 53q6 0 9 7.5t19 7.5q18 -2 27 -2h10l-4 8q98 6 147 6q6 0 15.5 12.5t19.5 12.5q-4 4 -4 6 l4 4l8 10q6 14 29 14q6 0 27 -4v-10h55v10q10 2 20.5 3t20.5 1t21.5 -1t23.5 -3v-10q-2 0 3 3t9 3q8 0 9 -10v-4q4 0 20 6t27 6q2 0 5 -1t7 -1q-6 6 -6 8q0 4 14 4q6 -10 6 -12h37q0 -10 12 -10t13 -19q0 -4 -1 -6t-1 -4q10 0 10 -8l61 -4v-8h43q-2 -4 6.5 -7.5t10.5 -7.5 l2 -37q6 0 10 -8q0 -10 -12 -10v-10q10 0 14 -10q25 -6 47.5 -10.5t38.5 -4.5h2q12 -41 12 -61h9q4 -35 4 -68v-67v-56t-2 -55h-6q-4 0 -5.5 -4t-4.5 -9t-10 -9.5t-26 -4.5q-18 0 -38.5 3.5t-32.5 3.5q-6 0 -10.5 -1.5t-8.5 -1.5q-8 10 -8 25q0 12 8 23h4q2 6 2 18t-6 36.5 t-6 35.5q0 12 2 16h-8v16t-2 31h4q4 0 4 4v11l1 1t3 1t2 -2h4v24l-4 -4q-4 0 -5 4t-1 6q0 8 10 15v88q-12 0 -12 4q0 2 4 6h-51v6l-59 4v21q-8 4 -15 10q-10 -2 -26 -2q-27 0 -54 10q-18 0 -24 -2t-8 -3t-3 -3t-10 -2q-6 0 -6 6v4q-2 0 -4 1t-6 1q-16 0 -35.5 -7t-36.5 -7 q-4 0 -5 1l-1 1l-6 -49h-22q-14 0 -17 8q-43 -14 -67 -15l-5 -63q-12 -16 -59 -25v-6q-33 -10 -44 -13t-13 -15v-13q18 6 28 6q4 0 13.5 -4t9.5 -6q-10 -14 -22.5 -18t-22.5 -6v-15q16 0 26.5 -1t16.5 -3l2 -47q6 0 6 -4v-4q0 -4 -6 -4h-6q-8 0 -8 8l-5 16q-16 0 -26 -16 q0 -10 1 -15t1 -10q0 -4 -1 -7l-1 -3h-6l-8 -55q8 -39 8 -66v-10q12 0 28 -18l52 -4l12 -5q12 -4 18 -10v-41h8q4 -4 3.5 -10t1.5 -12q2 -8 23.5 -7t29.5 -6q20 0 32.5 1.5t20.5 1.5h102q45 0 74 -3q0 6 6 7q8 0 15 -4q0 14 20 28v-6q2 0 3 -1l1 -1q4 0 5 5t6 5q2 -2 8 -2 v60q4 0 10 8t16 8l2 -10q84 0 103 -6v-27q12 -4 26 -4q6 0 12.5 1t12.5 1h18q18 0 31.5 -4t13.5 -31h9v-22q2 0 8 2t10 2q2 0 2 -4v-2h45q20 0 35 2q-2 4 -2 12q0 10 12 10v37q-2 -2 -6 -2q-6 0 -6 6q0 10 12 10v13h-10v75h-6q-4 6 -4 17q0 12 4 18h6v107h-6q-4 6 -4 16 q0 8 2 12h8v15q-2 0 -2 -2v0q-4 0 -8 6t-6 6l-4 -4v31h8v133h-11v34h11l4 37h6q4 4 4 9q0 4 -10 4q-8 0 -8 2q0 4 4 8h-4q-16 0 -35 2t-35 6t-27.5 9t-11.5 14q0 6 2 10h-8q-4 8 -4 14t4 10h8v19q-2 2 -17.5 9t-13.5 15l-51 5q-8 10 -26.5 21t-18.5 22v2q2 0 2 2q-4 0 -8 1 t-4 3l4 4h-47q-31 0 -56.5 -1t-41.5 -3q-20 10 -29 12q-14 -8 -31 -8h-8q-76 0 -86 8q-41 -14 -66 -14q-29 6 -71 6l-45 2q-47 0 -72 6q-45 -4 -47 -10h-2q0 2 -2 2q-4 0 -10.5 -2t-8.5 -2q-4 4 -4 6v4l-16 -4t-49 -12v-43q-2 0 -3 1t-3 1t-4.5 -1t-6.5 -1q-2 2 -3 4t-3 4 q-16 -4 -50 -6t-52 -11q4 -4 4 -6q0 -4 -12 -4q0 -20 -9.5 -29.5t-21.5 -11.5t-24.5 -1t-20.5 1h-19v-10q-14 -4 -16 -8v-25q6 0 10 -6q0 -2 -10 -2l-4 -119h-8q-2 -2 -2 -6h6q4 0 8 -4l6 -317q4 -12 4 -17q0 -6 -4 -14h-4l-2 -2q6 0 8 -7.5t2 -11.5t-4 -8l-4 -39q2 2 4 2 q4 0 5 -5t1 -9q-2 -8 -10 -8v-82q2 2 4 2q4 0 5 -5t1 -9q-4 -10 -10 -11v-37q4 4 6 5q4 0 4 -17q16 0 41 -3t60 -7v-16h10v-25q2 2 6 2q27 0 51.5 -4t36.5 -6q2 -8 23.5 -19.5t25.5 -27.5l19 -4q18 -3 53 -9q0 -2 9 -8t19.5 -14t18.5 -13.5t6 -3.5q12 0 36 -1t50.5 -2t50 -2 t33.5 -1t38 1t63.5 3t71.5 3t63 1l28 5h2q6 0 8 8l3 8q6 0 8 -2l-2 2v2q0 4 10 17.5t66 13.5l6 2q16 4 18 4h4q29 27 44.5 39t43.5 12q4 0 6.5 -1t6.5 -1v6q2 0 9 4t15 7.5t12.5 6.5t0.5 3q4 0 6 -2v20h82q2 2 10 16.5t18 14.5v16zM975 442q-4 0 -29.5 2t-36.5 2 q-23 0 -40 -5t-17 -33h-21q-16 -10 -16 -27q-29 2 -49.5 4t-32.5 6q0 12 -4 17l-4 84q2 -2 6 -3q2 0 2 3q-2 8 -8 8v16q8 0 8 4v2q0 4 -1 9.5t-5 5.5q-2 0 -2 -2v65q8 0 8 4v10q0 8 -4 11q-2 0 -4 -4l-2 55h6q0 -2 1 18.5t11 24.5l2 2l-4 4q10 0 26.5 5t29.5 5l4 -4 q20 -6 30 -6q-2 -2 -2 -4l-2 -2q0 -4 9.5 -3t9.5 -9v-7q10 -6 33 -6t30 -4q-2 0 2 1t15 1q2 -10 10 -13t33 -3v-17h8v-217z" />
<glyph unicode="A" d="M1325 -8v24h-8v43h8v17h-8v26h6q2 2 2 4h-2q0 2 -2 3l-1 -1q-1 -2 -3 -2v107h6v72h-6q-2 23 -2 43v39v28q0 14 2 27q-16 0 -17 4q0 2 3 4q-39 0 -59.5 2t-30 5t-11.5 9.5t-2 16.5l-4 10q-4 4 -4 12q0 10 4 17h4q4 8 4 10t-6 2h-10q0 4 4 8q-2 4 -2 8q0 6 10 7 q-10 20 -10 51q0 18 2 28q-14 0 -14 7l4 4q-23 0 -26 -6.5t-9 -6.5q-10 0 -24.5 6.5t-26.5 6.5q-6 0 -9 -2v8q-2 0 -2 -2v0q-4 0 -6 7t-4 7v-2l-2 -2q-6 14 -6 29q0 8 4 20h10q0 10 -8 31.5t-8 32.5q0 10 2 16q-23 10 -38 9t-21 3q-16 0 -17 -4q-4 0 -6 -1t-6 -1 q-12 0 -19.5 8.5t-11.5 18.5t-5 21.5t-1 15.5l-2 6q-4 0 -4 12q-8 2 -16 2q-6 0 -7 8l-79 2v13l-11 2q-2 16 -2 28v29v21q0 10 2 20q-23 -2 -37 -2h-24q-23 0 -23 2l2 2h-4t-10 2q-2 -2 -2 -4l-2 -2h-82v-8q-20 0 -24.5 -15.5t-16.5 -15.5l-2 -59q-2 0 -4 1t-6 1 q-16 0 -40 -8.5t-36 -8.5l-2 -6q-23 -4 -22 -11t-7 -7h-2q0 -47 -4 -68l-59 -4q0 -4 -6 -4t-7 8h-18q-20 -12 -31 -39q0 -4 5.5 -5t5.5 -7q-4 -8 -5 -8q-4 2 -6 2h-2q2 -2 2 -4l2 -2h9q4 -12 4 -25v-22v-17q0 -8 -2 -18h-5q0 2 -2 2q-6 0 -6 -4t2 -6h-80q-18 -18 -34 -25 v-23h10q4 -8 4 -14q0 -8 -4 -16h-10v-21q4 4 8 4q6 0 6 -16q-6 -6 -14 -8v-60q-6 -2 -6 -10q-10 -6 -37 -6t-37 -10v8q-23 0 -39 -16v-66q4 -2 6 -4t4 -2q0 -4 -10 -4l2 -125q8 -4 8 -16v-33h10v-31h-10v-39h10v-24h-10v-19h10v-33h-10v-30q18 0 31 -4q-2 -2 -2 -7h8 q6 0 6 -12h47q4 10 10 10q2 0 3 -10q49 14 63 14t18 -12q33 23 37 23l4 266h9v53q51 8 89 12.5t64 4.5l-2 2q0 4 5 7l5 3h2q6 0 8.5 8t4.5 8q4 0 8 -4v-8q29 0 33 -4q-2 -2 -2 -4h6q10 -10 37.5 -14.5t58.5 -4.5t57.5 1t34.5 1q-4 4 -4 6t12 3q4 -4 4 -9q0 8 6.5 7t14.5 4h4 q6 0 6 -11q18 4 31.5 7.5t17.5 3.5q10 0 17 -11q0 2 30 19v-2q0 -8 7 -8q8 0 8 -5l-1 -1t-1 -3l90 2q0 4 12 9l2 -11q41 0 47 -23.5t6 -45.5q0 -12 -1 -22.5t-1 -18.5h7q6 -127 6 -191q16 -14 27.5 -25.5l21.5 -21.5h121q4 10 8 10q4 -4 4 -10h16q4 16 11 19h2q0 -2 2 -2 q4 0 6 6t4 6q4 0 6 -2zM967 459h-4q-2 0 -7 -4v-4q0 -6 2 -9q-29 -2 -29.5 -6t-8.5 -4v4q-6 2 -10.5 3t-10.5 1q-12 0 -20 -4v-4q-25 -2 -43.5 -3t-30.5 -5q-41 4 -79 6t-75 2v0q2 0 2 2q-2 4 -8 5l-6 1l-12 -2q0 -2 4 -6h-15q-12 0 -27.5 -1t-31.5 -2t-25 -5q-4 6 -18 4 t-31 14q-2 0 -2 -2v158q10 0 11 4l-3 2h9q12 0 41.5 10.5t42.5 10.5h6l2 84h10v34q0 -2 2 -2q10 4 14.5 9.5t22.5 5.5q20 0 33 -6q16 4 41 4h24q20 0 30.5 2t15.5 5t5 5q0 4 3 4v-2h2v-8q20 -2 29 -5t11.5 -6.5t1.5 -8.5t3 -11h4q0 -66 6 -98h6v-15q31 -10 45 -10h8l2 -6 q4 0 5 4t8 4q2 0 3 -1t3 -1q-2 -2 -2 -4v0q0 -2 9 -11t13 -20l10 2v-32h9v-82z" />
<glyph unicode="B" d="M1327 51v51h-6q-4 6 -4 17q0 6 4 10h6v12h-6q-4 6 -4 21q0 10 4 18h6v244q-37 10 -63.5 15t-42.5 5h-9q0 2 -5 7.5t-5 9.5v2q2 0 2 2h-8q-2 2 -2 8t2 10q-115 0 -115 37q0 16 9.5 32.5t25.5 16.5q2 0 3 -1t3 -1q4 4 13 4q10 0 16 -8q4 10 39 10h14q0 2 -2 8.5t-2 16.5 t8.5 15t18.5 8.5t21.5 4.5t15.5 1l1 -1t1 -3q12 6 20 8t14.5 4t10.5 7t8 17h6q0 6 -1 9l-1 4q-2 0 -4 -2q-6 68 -6 186h-4q-4 16 -4 21v6q-10 0 -11 4v4h-100v37q-2 -2 -6 -2q-8 0 -8 16q-16 2 -37 2h-35q-16 0 -28.5 3t-12.5 9q0 4 2 7v28q-10 -6 -17.5 -11t-11.5 -9 q0 20 -23.5 24t-39.5 4q-10 0 -48 -5t-77 -5h-21q-10 0 -16 2v-8q-27 2 -41 8t-31 6q-12 0 -35.5 -5t-33.5 -5q-14 0 -21 2v-6q-25 -8 -30 -14q-4 4 -5 10h-20q-12 0 -12 10q-76 0 -122 5t-67 5q-8 0 -8 -10h-4q-4 0 -10 -2t-8 -2q-4 0 -5 4v4q-8 2 -24 2q-12 0 -29.5 -1 t-34.5 -5v4q-29 -6 -49 -6q-16 0 -22 2v-8q-6 -4 -17 -4q-10 0 -14 4v6h-39v-14q-4 -6 -8 -6l-2 -478h8q4 -20 4 -32q0 -10 -4 -31h-8v-182l8 2q4 -6 4 -19q0 -8 -2 -12h-10v-115q6 6 10 6t4 -16q-6 -8 -14 -8q0 -35 8 -59.5t37 -34.5v-6h10q12 0 29.5 -3.5t36 -6.5t34 -6 t21.5 -3q37 0 73 10.5t46 10.5q12 0 22 -11v9q31 0 33 -9q16 4 29.5 8.5t23.5 4.5q6 0 6 -9v-4h15q14 0 32.5 1t37 3.5t28.5 6.5q4 2 21 2q16 0 44.5 -8.5t39.5 -8.5q4 0 11 7.5t13 7.5q59 -6 103.5 -9.5t76.5 -5.5h4q18 0 48 9.5t45 9.5q29 -4 73 -17q25 6 43 6q6 0 9.5 -1 t7.5 -1v2q0 6 6 8.5t6 6.5h2v-2q4 0 4 8q0 6 4 6q2 0 6 -4q0 29 9.5 34t13.5 5h2q6 0 21.5 -6t25.5 -6l2 8q16 6 26.5 10t14.5 6zM1092 633h-121q-2 -6 -2 -19q0 -12 2 -14q-6 -8 -29 -12h-37q-80 -6 -131 -6h-31v-9h-16v9l-279 9l-92 3v31l-6 1t-6 3l12 2q2 10 2 18v17v20 q0 12 -4 23h-6v41h6v86q12 0 15.5 13t7.5 13h6q10 0 25.5 3t29.5 3q12 0 21 -2v-4q37 4 67 4h56h30q-2 -2 -2 -4t2 -2q4 0 14.5 4t12.5 4h4q10 -2 14 -2h7l-2 -2q0 -4 2 -4t8 2t8 2h2q16 4 25 4q4 0 7 -1t7 -1l4 23h16v-19h21q10 0 10 -6q47 4 83 5t63 3v2q0 6 8 7v-11 q8 -2 24 -2q20 0 31 4l4 9q12 0 33.5 5t30.5 5q4 0 8 -11.5t10 -11.5l2 -12h10v-10q0 -6 2 -17.5t4 -24.5t4.5 -25.5t2.5 -18.5v-6h-9q-2 -8 -2 -17v-18v-23q0 -10 4 -20l7 2v-45zM1094 102h-35v-8h-37q2 2 2 4q0 4 -16 4q-8 0 -9 -4v-4q-8 12 -26.5 15.5t-26.5 3.5 t-40 -5.5t-54 -5.5h-12v-8h-31q0 10 -12 10l-1 -5q-1 -5 -5 -5l-3 8h-53q0 -8 -6 -8v8h-94v-10q-4 2 -10 2q-8 0 -29 -10q-2 8 -35 8v10q6 -2 -190 -2q0 18 -4 27h-11v37q14 0 15 12q0 16 -4 17q-4 0 -11 -7v84h-6v17q4 2 6 4q0 8 -1 12l-1 4q-2 0 -4 -2v12q4 2 4 5q0 2 2 4 v12l-2 2q-4 0 -4 -2v12h6v35q10 0 15 4q-4 12 -9 12q-2 0 -6 -4v29h9q4 8 4 18v11q12 6 20 6h6q0 -6 4 -6q12 0 13 2q0 2 -2 4q16 0 45.5 -2t46.5 -2q92 0 119 14v-4q188 0 231 6q20 0 21 -8t12 -8q12 0 27.5 4t27.5 4q2 0 4 -1t4 -1q-4 -4 -4 -6t12 -2q0 -12 5 -17l4 4 q2 0 3 -7t5 -7q2 0 4 2v-12q8 -2 27.5 -3t54.5 -1q2 0 7 -9.5t13 -9.5l2 -28q0 -16 11 -23z" />
<glyph unicode="C" d="M1323 121v125q-55 16 -84 16q-12 0 -18 -2v-33q-4 2 -9 2q-6 0 -16 -9t-33 -9h-18t-19 4v6h-16q0 -23 -18.5 -35t-41 -17t-42 -6t-21.5 -1q-25 -29 -29 -51q-29 0 -70.5 6t-60.5 6q-16 0 -44.5 -8.5t-43.5 -8.5q-8 0 -20 5v8h-2q0 2 -2 2q-4 0 -8.5 -6t-4.5 -13 q-6 -2 -10 -3t-8 -1q-6 0 -14 4l-2 9q-37 0 -60 8q-35 -2 -60.5 -4t-41.5 -6q0 2 -11.5 8t-11.5 14v2q2 0 2 2q-10 4 -11 25.5t-3 38.5q-16 0 -31 20q-8 2 -22 2q-12 0 -25.5 1t-23 3t-9.5 6v19h-8v6q0 6 4 13t4 12l-8 2v127v36q-2 -2 -6 -2q-6 0 -6 11q2 0 5 1t7 1v248 q6 0 18.5 7t22.5 7h10v8q6 0 17.5 10.5t19.5 10.5t13 -3q0 16 10 17q4 0 6 -2l4 51h10v18h80v9q4 0 11.5 5t13.5 5v0q2 0 4 -2q0 47 29 47q4 0 16 -4v-8h70q-2 2 -2 6q0 6 8 6q4 0 6 -5t2 -7h24q4 10 7 10q33 0 32 -10h43q63 0 95 -2t32 -23q2 2 4 2l22 -12q21 -12 44 -23 q0 8 31 8q-4 2 -4 3v2q0 8 6 8t12 -6l6 -7v-2q0 -12 6 -33.5t6 -37.5q0 -8 -2 -10h5q6 0 6 -11q66 0 73 -4q35 0 43.5 5t24.5 5q2 -2 2 -6v-4q25 0 38 3t19.5 7.5t10.5 7.5t14 3v45h-8q-2 16 -3 39.5t-1 56.5h-62q-29 0 -46 3t-17 30q-16 0 -17 20l-102 2v27h-8q-4 4 -4 24 q-8 -4 -11 -4q-4 0 -10 6.5t-10 6.5q-2 0 -5 -1t-13.5 -3t-32 -3.5t-60.5 -1.5q-2 8 -32 9h-111q-53 0 -97 -2t-73 -7.5t-31 -15.5q-12 14 -23.5 15t-11.5 4h-16q-12 0 -20.5 -1.5t-14.5 -3.5v-24h-8q0 -29 -27 -29q-10 0 -14 2v-8q-16 0 -26.5 -5t-16.5 -11t-10 -12.5 t-6 -6.5q-29 -6 -49.5 -8t-36.5 -2h-19q0 -4 -6 -4q-4 0 -9 -3t-10 -11.5t-5 -26.5t-2.5 -30.5t-8.5 -16.5h-10q-10 0 -24.5 -3t-26.5 -6t-20.5 -6.5t-6.5 -3.5l-4 -49h-10v-76h10q4 -8 4 -12t-4 -16h-10v-37q6 6 8 6q6 0 6 -18q-4 -2 -10 -2l-4 -11q10 0 14 -4l2 -295h6 v-47h-6q6 -29 6 -47v-8h31v-16q4 2 8 2q6 0 7 -11h2q8 0 22 -5t25 -5l2 -76q6 0 15 -10t13 -14q2 2 10.5 3t8.5 7q33 0 33 -10q0 2 9 3t9 7q29 0 33 -10q29 8 49 11t31 3q12 0 30 -12v-27q4 4 7 4q8 0 14 -22h110v10q4 2 17 2q12 0 18 -2v-8q35 0 54.5 -2t27.5 -6 q4 0 11.5 5t11.5 5q6 0 8 -2v8l29 -8q-6 2 -7 8q0 4 15 4q4 -4 4 -12q-2 -2 4 1t10 3q6 0 6 -12h4q20 0 50 6t41 6q12 0 24 -4v-6q16 4 24.5 7t22.5 3h2q4 -4 4 -8v-2q23 0 36.5 1t23.5 5v10q18 2 25.5 9t12.5 14.5t11 12.5t22 5q4 -2 5 -6q0 -2 4 -2q6 0 17 6t15 6t9 -4 q0 18 30 18q-2 2 -2 9q0 14 22.5 21t45.5 7q18 0 29 -2z" />
<glyph unicode="D" d="M1331 190v23l-8 -2q-2 6 -2 18q0 14 2 21h8v22q-4 -2 -8 -2t-4 13q0 12 6 12q4 0 6 -2v20h-8q-2 10 -2 17v16q0 20 2 31h8v20h-8q-2 4 -2 17q0 10 2 14h8v107h-10q0 6 -1 13t-1 15q0 6 1 12.5t1 14.5h10v12h-10q0 4 -2 10t-2 11q0 6 8 6h6q-8 23 -10 38t-2 27v11 q-4 -4 -6 -5q-4 0 -5 4.5t-1 6.5q0 8 12 8v20h-10v35h10l-2 62q2 0 -10.5 4t-26.5 9t-26.5 9t-8.5 4h-12q-14 0 -14 -4h-7q-10 0 -18 11.5t-8 29.5q-4 2 -23 2q-16 0 -36.5 4t-40 14.5t-25.5 28.5h-8q-14 0 -23 4v6h-49q-8 6 -14 9.5t-10.5 5.5t-6.5 6t-2 14q0 12 2 19 q-23 0 -28 2h2h-6t-17 2h-4q-6 0 -6 -4q-14 0 -73.5 2t-145.5 2q-29 0 -51.5 -3t-42.5 -3v-2q0 -4 -7.5 -5.5t-7.5 -9.5v-2q-2 -2 -8 -2q-4 0 -15.5 3t-11.5 18q-6 0 -12 -2l-4 4q-72 4 -122 6t-81 2q-18 0 -47 -2t-39 -2v4q-12 -2 -29.5 -4t-33 -4t-26.5 -4t-11 -4 q0 -6 2 -11q0 -10 -8 -10h4q4 -20 4 -94h10v-29h-10l2 -248q8 -2 8 -6v-4l-2 -1t-6 -1v-14l8 -2q0 -10 6 -13.5t6 -13.5t-12 -10v-25h-8v-106h8l2 -47h-10v-21q2 2 4 2q6 0 6 -14q-4 -4 -10 -4l2 -197h8v-31h-8v-10h8v-45h-8v-24q2 2 4 2q12 -18 45 -19q-2 -2 -2 -6h8 q2 -4 2 -6t2 -6q4 4 19.5 9t17.5 5q6 0 6 -10v-4q41 6 70 7t45 7q8 0 8 -12q16 4 28.5 7t29.5 3h10q8 0 14 -2v-8q4 0 23.5 5t42.5 5q14 0 22 -2q-2 4 -2 8q0 6 10 6q2 -2 9.5 -3t7.5 -5q0 -2 -1 -3t-1 -3h20v10q16 4 25 4q8 0 24 -4v-6q0 -2 7.5 -5t7.5 -7h98q4 10 8 10 t4 -10q10 2 41 2h23q47 0 69 8q-6 6 -6 8q0 4 13 4q4 -4 4 -12h55v8q10 2 26.5 11.5t34 19.5t35 17.5t31.5 7.5q10 0 18 -5l5 7q6 8 13 17t14 16.5t13 7.5q12 0 13 -13q33 8 49 12l16 5q-2 2 -2 6q0 16 24.5 31.5t47.5 15.5q8 0 12 -2v8q6 2 15 2h6q0 16 20 16zM1106 594 q-4 0 -5 1t-3 1q-4 0 -4 -4v-10q-4 -6 -7 -7h-2q-2 0 -2 -2q0 -8 4 -8l5 4l-5 -30v-115v-12q-2 -8 -2 -19q0 -14 2 -20h7v-13q-2 0 -6.5 -2t-4.5 -6t11 -6v-104q-20 -10 -31 -11v-8q-2 2 -4 2h-2q-6 0 -17.5 -6t-15.5 -6q-6 0 -14.5 4t-12.5 4t-7 -1t-7 -1h-2q-2 0 -6 -4 v-25q-20 0 -21 -18q-16 4 -20 4q-25 -8 -54.5 -14t-29.5 -19v-2q2 -6 2 -20q-41 8 -59 8q-63 0 -109.5 -2t-79.5 -6v-10h-24l-5 10q-14 0 -34.5 5t-36.5 5q-10 0 -20.5 -6t-18.5 -6q-37 12 -78 12q-16 0 -25 -2v41h-6q-4 0 -4 4v4h10v111h-10v43q10 0 10 2q-4 8 -3 12t-3 4 q-2 0 -4 -2v66h8q4 8 5 12q0 4 -5 16h-8v31q8 0 8 4q-2 4 -5 18.5t-7 18.5h-8v18h8l12 41q0 16 -4 17q-2 0 -4 -2v28h8l5 15q0 2 -5 10l-8 2v68h8q4 8 5 14q0 4 -5 16h-8v56h8l-2 84q6 0 11.5 5t9.5 5q2 0 2 -2v8h88v-6q12 -4 20 -4t29 6t37 6q2 0 3 -1t5 -1v-10q16 0 17 6 q0 2 -2 2v2q2 0 2 -2h2q6 0 12 7t16 7q2 0 3 -1t3 -1v-10h29v-6q6 -4 25 -4h10q8 0 16 4v6q6 0 9 -2q4 0 12 6t16 6q16 -8 103 -8v-8h114v-17q16 -18 23.5 -23t23.5 -5q10 0 15 2v-8l63 -4v-25h8q0 -45 9 -55h-5q-2 -10 -2 -23v-20v-23q0 -10 2 -20l5 -41h-2q0 2 -3 2 q-2 0 -2 -2v0l5 -9q6 -10 14 -10h2v-16z" />
<glyph unicode="E" d="M1327 31v24q-4 -4 -6 -4t-3 4t-1 6t2 2v5q0 6 8 6v16h-8v14q-41 8 -87 12.5t-104 4.5q-47 0 -95 -4t-60 -13h-2q0 2 -2 2t-6.5 -2t-8.5 -2h-2q-4 0 -4 7v4q-25 0 -24 -9q-160 12 -254 13h-35q-18 0 -31 -4v4q-20 0 -16 -4h-4q-6 0 -12.5 -2t-8.5 -2t-2 4v4 q-25 -4 -44 -9.5t-32 -5.5q-12 0 -21 6.5t-11 6.5q-6 0 -17.5 -7.5t-19.5 -7.5l-2 -2q-4 0 -14.5 8.5t-22.5 12.5q-4 0 -3 -4t-14 -4q-4 8 -4 24v12q0 8 4 15h11v39h-11q-4 6 -4 10v10q0 12 4 19h11v24h-11q-4 16 -4 33v39v43t12.5 27.5t44 19.5t97.5 18q4 -4 4 -8q8 2 8 4 q18 0 33.5 -1t26.5 -3v4q0 4 8 4v-2q0 -6 6 -6q8 0 8 -8v-2q8 2 16.5 3t18.5 1h14q68 6 119 6q66 0 98 -8q43 12 68 12h8q10 2 20.5 3t22.5 1q47 0 76 -4t37 -4q-2 2 -2 4q0 6 14 6l2 -10q12 0 26.5 5t22.5 5v5q8 4 21 4h8v98q-2 2 -6 2q-2 0 -4 -6t-6 -6h-2q-2 2 -2 10 l-60 -2v10h-31v-10q-12 -4 -16 -4t-16 4v10h-56v-10q-10 -4 -26 -4q-14 0 -23 4v10q-2 0 -4 1l-2 1q-16 0 -34.5 -8t-26.5 -8t-21 4v8q-18 -6 -24.5 -9t-20.5 -3h-18t-19 4v8h-49q-39 -12 -57.5 -15t-30.5 -3q-10 0 -32.5 5t-41.5 5h-6v8h-67l2 -10q-16 -4 -22.5 -5 t-14.5 -1q-10 0 -28.5 5t-27.5 5q-8 0 -16 -4v10q-4 0 -17.5 3t-13.5 22h-6q-4 10 -4 20v21v18t4 16h6v54l-4 -4q-2 0 -3 1l-1 1v6q0 6 8 6l4 143h11v17l88 4q0 6 6 6q2 0 3 -1t3 -1v-8q31 4 53.5 6t36.5 2q16 0 42 -2t61 -6v2q0 6 6 6q8 0 8 4q29 0 58.5 -2t58.5 -10 q4 10 12 10v-10q41 4 71.5 6t53.5 4q27 0 28 -8q8 -2 18.5 4t16.5 6t22.5 -5t28.5 -5h5q2 8 12 8v-8q27 0 62.5 2t80.5 6l4 -8q12 0 27.5 5t24.5 5h14q4 0 14 16.5t29 24.5q-14 35 -14 55v8q-10 0 -11 5q0 4 2 6l-82 -2l2 -9q-8 -8 -28 -8q-10 0 -18.5 3t-21.5 6.5 t-33.5 6.5t-57.5 3h-13q-4 4 -4 6l-45 4v-8q-2 0 -13 -2t-9 -6h-2q-6 0 -12.5 -2.5t-8.5 -2.5q-4 0 -4 9q-133 0 -147 -7h-4q-6 0 -17.5 3.5t-11.5 13.5h-19q-2 -2 -2 -6v-2t2 -6q-2 -2 -4 -3.5t-4 -3.5q-14 0 -14 4t2 7q-8 2 -23 2h-4q-10 0 -12 -13q0 10 -8 11.5t-8 3.5 l4 6h-23v-6q-12 -4 -21 -6t-16 -5q-20 4 -33.5 7.5t-23.5 3.5v6h-76v-8q-8 -4 -22 -4q-16 0 -23 4v8h-69q2 -2 2 -6q0 -2 -11 -6q-12 0 -12 6v6h-18v-8q-10 -2 -18.5 -3t-18.5 -1t-19.5 1t-19.5 3v6q-53 -4 -119 -21l-8 -100l4 -14q8 -6 8 -11q0 -6 -8 -14h-4q-4 -4 -4 -8 l6 -1t6 -7v-2q0 -2 -2 -2q-4 0 -6 2l-2 -4q6 -4 10 -12.5t4 -14.5q0 -8 -8 -21l-4 -38v-115q2 2 10 -17q0 -4 -6 -8t-8 -4l8 -2l6 -6q0 -6 -4 -6q-2 0 -3 1t-3 1v-21h6q6 -12 6 -20q0 -10 -6 -19h-6v-20h6v-2q2 0 2 -2q0 -4 -4 -10t-4 -15v-2t2 -4h4q8 -12 8 -16 q0 -6 -8 -15l-4 -28q4 -2 8 -10q0 -4 -8 -5l4 -10q8 -16 8 -20q0 -6 -8 -19l-4 -22h4q8 -16 8 -21q0 -6 -8 -18l-4 -12h4q4 -10 6 -19.5t2 -19.5t-2 -20.5t-6 -20.5l-4 -31h4q8 -8 8 -16q0 -10 -8 -19l-4 -65l1 1t3 1q6 0 6 -9v-4q-2 -2 -4 -2q-4 0 -6 2v-24h6q2 -2 2 -8 t3 -14.5t12.5 -15.5t31.5 -13q-2 2 -2 4q0 8 17 8q0 -4 1 -5t1 -3t-2 -2v-2q16 0 50 -4.5t50 -4.5q63 4 108.5 6.5t75.5 4.5v6q12 4 21 4q6 0 11 -1t11 -3v-6h60q-2 2 -2 6q0 6 10 6q4 -2 9 -3t5 -5t-2 -4h103q-4 4 -5 6q0 6 13 6q14 -10 14 -12h66v8q16 4 26 4q6 0 23 -4 v-8q4 0 4 6t10 6h2l12 -10l91 -2v8h2v-2q4 0 5 7t5 7t8 -2v-6l51 -4v-8h19q-2 2 -2 6t12 8q14 -10 14 -12l45 -2v8q12 4 23 4q6 0 22 -4l2 -8q4 0 5.5 8t9.5 8q4 0 5 -4t1 -6t-1 -4l-1 -2h67v10q4 0 18.5 5t31.5 5q10 0 16 -2q0 27 -2 25z" />
<glyph unicode="F" d="M1321 887v28h-8v25l8 2v33q-4 -4 -6 -4q-4 0 -4 4v4q0 4 2 4q-16 4 -29.5 5t-21.5 3q-59 -4 -102.5 -6t-69.5 -2v-8q-6 -4 -23 -4q-14 0 -23 4v8q-4 0 -17 1t-13 7h-17q-18 0 -55 -5t-57 -5q-4 0 -10.5 1t-10.5 1v-8q-16 -4 -29.5 -12.5t-17.5 -8.5q-8 0 -8 19h-80v10 q-6 0 -16 -2q-2 2 -3 4t-3 4q-61 -4 -109.5 -6t-81.5 -2v-8q-6 -4 -16 -4h-11q-4 0 -8 4v8q-2 2 -15 3t-13 5q-59 -2 -86 -6t-43 -4l-2 2v2v4q-90 -6 -144 -6h-20v-10q-20 0 -29 -8v-27h21q0 -10 -1.5 -15.5t-1.5 -9.5h-10v-39q4 4 8 5q4 0 5 -17q-2 0 -4.5 1t-4.5 1t-2 -2 v0v-10q0 -6 -6 -5t-6 -7q0 -2 10 -2l2 -238h-10v-367h12v-30h-10v-35l10 -2q0 -2 -10 -33h10v-113l6 -2q4 -8 5 -14q0 -6 -5 -14h-6v-13l6 -2q0 -10 7.5 -13t7.5 -7v-2q27 0 27.5 -6t11.5 -6q14 0 35.5 7t35.5 7q4 0 5.5 -1t3.5 -1q-2 2 -2 4l14 4q14 -6 14 -8l25 4 q20 4 26 4h9v115h-9q-6 0 -6 8q0 14 15 14q-2 35 -2 54v18h10v18h-10v60h10q0 10 -4 10q-2 0 -6 -4v35h10v18h-10q0 2 -2.5 10.5t-2.5 12.5q2 2 9 2h6l4 51h16v8h135v-8h19v8q2 0 15.5 2t30.5 3t36.5 3t34.5 2q16 0 22 -2q4 2 8 2t9 2q8 0 8 -10q18 4 39.5 6t44.5 2 q8 0 27.5 -2t44 -3t51 -3t49.5 -2q18 0 31.5 5t15.5 5q4 0 4 -8h76q25 6 43 10.5t30 6.5v10q33 16 39 16l2 47h-6q-6 14 -6 27h-57q-35 0 -54 6q-14 -2 -25 -3t-22 -1h-12v4q-111 0 -186.5 -1t-121.5 -3t-67.5 -3t-23.5 -1q-10 0 -11 8q-43 0 -72.5 -1t-47.5 -3q-14 0 -39 3 t-35 3v8q-45 0 -59 6l-3 293h11q-2 2 -2 6q0 8 27.5 17.5t93.5 9.5q6 0 16 -1t34.5 -2t68.5 -2t118 -1q14 10 31 14q0 -6 11 -4t13 -10l107 2q0 4 12 8v-10q29 0 48.5 1t33.5 3h8q10 0 34 -1t63 -3q70 2 122 4t86 6z" />
<glyph unicode="G" d="M1327 -18v45q-2 -2 -6 -2q-2 0 -3 4t-1 8q0 2 2 4v2h6v172h-6v31h6v20h-6v17h-6q-18 0 -19 16q10 14 11 20q0 6 4 15h4q4 0 4 4v8q0 4 4 4l4 64q-10 10 -10 18q0 6 6 6v-2h4v25q-2 -2 -4 -2v0q-4 0 -9 8t-7 8l-70 -2q0 -4 -21 -12q-20 0 -20 8l-133 4q-4 -6 -23.5 -5 t-27.5 -9q0 10 -9.5 9t-11.5 5h-170q0 -10 -12 -10v10h-51q2 -2 2 -6q0 2 -3 -5t-6.5 -15.5t-6.5 -15.5t-1 -5l-4 -35q4 4 6 4q4 0 5 -12h28q0 -10 18.5 -17.5t42 -11.5t45 -5t27.5 -1q33 0 37 10q6 -4 27 -4q12 0 30.5 2t30.5 2q23 0 28 -5t21 -13v-21h9q2 -20 3 -50.5 t1 -71.5h4q6 -6 6 -13q0 -2 -4 -14h-2q0 2 -2 2t-4 -1t-4 -1q-6 0 -7 4q0 4 2 6h-90q0 -10 -14 -10v10h-10q-18 0 -37 -6l-41 -12q-20 -14 -35 -17v-14h8q4 -8 4 -14q0 -10 -4 -15h-8v-26q-2 -2 -4 -2h-2q-4 0 -11 6t-16 6q-47 0 -85 -5t-68 -5h-35v-8h-33v8h-16v-8h-49 q0 8 -8.5 12t-18.5 6t-18 2q-6 0 -5 0v14q-12 0 -12 2t2 5q-23 4 -36 7t-23 3v8q-6 6 -16.5 4t-20.5 -2q-8 0 -14.5 7t-6.5 32q0 41 4.5 63.5t2.5 22.5h-9q-4 2 -4 10q0 10 4 15h9v34q-8 2 -15 9q2 0 4 1t4 1t3.5 -1t3.5 -1v26l-11 -2q-4 6 -4 16q0 6 4 11h11v35 q-14 4 -15 4q8 4 13 4h2q0 8 -11 8v111h11v26h-11q-4 10 -4 37v18q0 10 4 21h9v22h-9q-4 2 -4 13q0 10 4 16h9v68q29 16 53 16q4 0 8 -1t8 -1q0 16 21 25q4 0 4 -15h16q0 31 4 39h4q0 20 10.5 28.5t23.5 10.5t28 2q14 0 24 6v-8q43 2 50 6q18 -4 39.5 -6t44.5 -2q18 0 54 2 t75.5 5t75.5 6t55 3q63 0 116 -12v-39h9q2 -8 3 -14t1 -14q0 -10 -4 -31l-9 -2q0 4 6.5 -6.5t6.5 -30.5l4 4l2 -2l4 -8q2 2 6 2t10 -7t13 -7q4 0 8 6t8 6q4 -4 4 -8q23 0 31 2t11 3t4 3t9 2h2q4 0 4 -6v-4q2 -2 9 -2q10 0 22 6t23 6q2 0 3 -1t3 -1v2q4 2 25.5 5t23.5 9v15 h-6v49l6 2q0 8 -6 8q-4 0 -4 2t4 10h-2v2t8 2q0 8 -2 8l-4 35q-16 0 -17 2q0 2 3 4h-101v2q2 0 2 3q0 6 -7 7t-7 7v2q2 0 2 2q0 4 10 4l-6 16q-4 8 -4 11l-111 6v35h-8q-4 12 -4 24h-4q-4 0 -7 -5t-14 -5q-10 0 -14 2v8q-2 0 -11 1t-22 1q-12 0 -23 1t-16 5q-53 -4 -87.5 -6 t-53.5 -2q2 -2 2 -4q0 -4 -14 -4q-10 4 -18.5 8t-12.5 8l-49 -2q0 -2 -10 -6q-4 4 -4 8h-60q-20 -16 -30 -16v6h-80v-6q-10 -2 -25 -2q-14 0 -16 2q0 -18 -8 -18l-7 -35q-2 0 -3 1l-1 1q-4 0 -6 -4t-6 -4v6l-72 -4q0 -2 -10 -2h-2q-2 0 -2 6q-6 0 -20.5 -1t-32 -3t-34.5 -3 t-28 -1h-12q0 -8 -14 -9q2 -14 2 -20v-6h-2q0 2 -2 2q-4 0 -5.5 -9.5t-5.5 -9.5h-2q-6 0 -6 4l-4 5q-25 0 -29 -7.5t-12 -7.5q-2 0 -22 4q0 -6 -21 -6l-8 -94v-39q4 -2 8 -12q-2 -6 -8 -8v-31q2 6 6 6q2 0 2 -18q-2 -4 -8 -9l4 -28v-2q2 0 2 -2q0 -6 -4 -13.5t-4 -11.5 q0 -2 1 -3t1 -3l1 1t3 1q6 0 6 -6q0 -2 -2 -5l-2 -3q-2 0 -6 4q-2 -8 -3 -13.5t-1 -11.5q0 -16 7 -42.5t7 -39.5q0 -18 -6 -30l-4 -19l4 2q8 -8 8 -16q0 -10 -8 -19l-4 -32h4q8 -8 8 -19q0 -6 -6 -12h-6l-2 -2q10 0 11 -68.5t1 -175.5h10v-20q37 -10 60 -11h10 q23 -14 39 -20v-2q0 -10 6 -13.5t6 -7.5v-2q2 2 8 2q4 0 11.5 -7t11.5 -7q6 0 8 2v6q12 4 19 4q8 0 13 -6t7 -6l2 7t6 7q6 0 8 -6t19 -6q23 0 44 6t32 6q14 0 30 -6v-22q2 0 12.5 -5.5t21.5 -11.5t19 -11l7 -5q12 4 31.5 6t48.5 2q-4 2 -4 6q0 2 12 2q31 -12 47 -11t25 -5 q14 0 21 2t10 3t6 3t12 2q4 -4 4 -6v-4q10 4 27.5 6t43.5 2v4q10 4 17.5 8t11.5 7v24q27 6 47.5 8t36.5 2h19q0 10 22 25v2q0 2 14 2v8q10 2 21.5 3t21.5 1t21.5 -1t23.5 -3q12 -49 13 -63h4q16 -16 28 -17q12 0 17 -4l49 -4q-4 4 -4 6l2 2q2 0 3 1t3 1q8 0 8 -8q0 -2 -2 -2 v0h8q8 0 25.5 3l35 6t32 6.5t20.5 3.5z" />
<glyph unicode="H" d="M1321 29q-20 0 -29 4q0 8 29 8v31q-12 0 -12 2l2 3t6 3q2 0 2 -2h2l-4 180q-10 10 -10 18q0 4 8 17h6v53q-10 6 -10 14l1 1t3 1t3 -1t3 -1q2 4 2 11q0 4 -6 4q-4 -2 -6 -2q-4 0 -4 2v2q0 2 2 6t6 4q2 0 3 -1t3 -1v39h-6q-8 8 -8 20q0 8 8 17l4 14q-4 0 -8 4l-2 455h-9v47 h9q4 4 4 8t-6 4l-11 2l4 9l-36 -3q0 -8 -15 -8q-20 12 -20 17v2q-41 -4 -67.5 -7.5t-43.5 -3.5v-8h-31v-127h-12q0 -8 6 -9t6 -17q0 -10 -2 -17h-10v-20q12 0 12 -4v-70l1 4q2 4 2 15q-2 -14 -4.5 -22.5t-10.5 -12.5l2 -168h-30v-10q-188 -4 -277 -7h-47q-35 0 -86 1 t-103.5 3.5t-97.5 3.5t-65 1v6h-27v112l4 13v-2h-2q-4 0 -6 6v258h-10q-4 6 -4 16q0 8 4 10h10l-2 35l-8 -2v19q-33 0 -72 -9q0 -10 -8 -10q-4 0 -4 10l-90 9q-14 -8 -27 -9l-2 -159q2 6 8 6q4 0 4 -17q-4 -6 -12 -10v-131h8q2 -10 3 -19.5t1 -17.5q0 -14 -4 -35h-8v-106h10 q4 -12 4 -16q0 -6 -4 -15l-10 2v-49q2 4 6 4q8 0 8 -10q-6 -10 -14 -10v-35h10q2 -10 2 -21v-18v-18t-2 -19h-10v-106h10q2 -4 3 -7.5t1 -7.5q0 -8 -4 -16h-8v-70l8 -2q2 -10 2 -24t1 -29.5t8.5 -32t23.5 -33.5h8q6 0 12.5 1.5t6.5 5.5q18 0 53 -11l47 -4v4q4 4 23 4 q20 0 30 27l-2 31q-10 0 -10 4q0 6 10 6l-4 125q-4 4 -4 14q0 8 4 15h4q0 68 1 118t3 82q6 0 23.5 11.5t44.5 11.5h63l7 2q6 2 10 2h2q2 0 2 -4v-4q4 0 6 -1t6 -1q16 0 33.5 5t23.5 5q8 0 27 -3t29 -13h4q16 0 46 6t44 6q8 0 13 -1t12 -3q2 8 8 8l4 -8q39 2 75.5 3t73.5 3 h25q25 0 50.5 -1t47 -5t34.5 -11.5t13 -21.5q-2 -10 -2 -23q0 -10 -2 -20h8q2 -4 2 -14t-2 -13h-8v-24h10q0 -4 1.5 -8t1.5 -9q0 -4 -1.5 -9t-1.5 -9h-10v-25h10q0 -76 1.5 -131t1.5 -94q27 -25 53 -33l37 4q10 2 40.5 3.5t82.5 1.5q-2 2 -3 4q0 4 13 4v2q0 6 5 13t5 15 q0 7 -2 9z" />
<glyph unicode="I" d="M1081 14v74q-29 10 -51 14t-39 4h-4q-4 0 -4 -4v-2q-12 0 -30.5 1t-38 3t-38 3.5t-28.5 1.5v81q-4 0 -10 7l1 1t3 1t2 -2h4v69h-10v51h10q0 4 -6 6.5t-6 6.5q4 4 5 8t7 4q-12 27 -12 55q0 20 2 29h-9q-4 2 -4 12t4 17h9v131q-16 0 -17 4q0 8 17 8l-2 217h10q0 8 -6 8 l-4 43q10 0 17 14.5t32 14.5q2 0 2 -4v-4q27 0 31 6q16 -2 28 -3t23 -1h10q12 0 24.5 -6t16.5 -6t10 7t14 7q2 0 3 -2h2q0 12 20 16v99q-6 -2 -14 -3q-10 10 -35 14.5t-51 4.5q-25 0 -47.5 -1t-26.5 -1q-6 0 -19.5 -3t-19.5 -3q2 -2 2 -6t-8 -5q-14 0 -14 9l-39 2q2 -2 2 -4 q0 -6 -15 -7q-14 0 -14 7q0 2 2 4h-16q2 -2 2 -4q0 -6 -13 -7q-4 0 -4 11h-36v-6q0 -4 -9 -5q-27 14 -26 17h-150q-16 0 -42.5 -11.5t-39.5 -11.5q-12 0 -24 6v9h-37q2 -2 2 -4q0 -4 -10 -5v-90h2q0 2 2 2q6 0 7 -4t4 -8t11 -8t31 -4h25q39 0 61 -12q27 10 53 10q12 0 29 -4 q-4 -12 -4 -15q0 -10 8 -25.5t8 -27.5q0 -4 -1 -7t-3 -7h10q2 -10 2 -19v-18v-19q0 -8 -2 -16h-10v-55h10v-115h-8q2 0 3 1t3 1t4 -20.5t2 -28.5q0 -12 -1 -22.5t-3 -20.5l-8 -2q0 -4 6 -5t6 -7v-2q-2 -2 -6 -2t-6 2v-27h8q2 -20 3 -38.5t1 -37.5q0 -18 -1 -37.5t-3 -38.5 h-8v-24h10q2 -10 3 -22.5t8 -30.5q-2 -6 -9 -7l-2 -61h-10v-27q-172 0 -203 -8v-8q-20 0 -30 -10v-37h10v-21v-12q80 -23 88 -26v4q6 2 20 2h13v-6h59v6h17h18v-4q37 0 51 -11q31 10 78 11q-2 2 -2 4v0q0 2 4 4h4q6 0 6 -4t-2 -4q43 0 53 -11q66 4 116 7.5t89 3.5l29 4 q16 4 25 4h6q10 8 17 14t11 10zM721 967q-2 0 -8 -3t-8 -3q-6 0 -9 2v14q25 0 25 -10zM449 950h-9v6h9v-6z" />
<glyph unicode="J" d="M1262 209v369h-11q-4 8 -4 22q0 10 4 16h9v269h-11q-2 37 -3 64.5t-1 45.5h-4q-14 0 -35.5 6.5t-31.5 6.5q-6 0 -19 -4v8q-47 -8 -77.5 -12.5t-49.5 -4.5l-12 -129l4 -16q6 -117 6 -195v-47h8q2 -6 2 -18q0 -14 -2 -19h-8v-149h8v-27q2 2 6 2q8 0 9 -10h-11v-137h-10 l5 -4t5 -15q0 -10 -4 -14h-2q-4 0 -9 -10t-11 -10q-4 0 -6 2q-23 -4 -39.5 -6.5t-30.5 -2.5h-12q0 -6 -9 -8l-4 -59q-4 2 -10 -8.5t-16 -10.5l-4 -6q-10 0 -21 2h-4q-10 0 -12 -12q-4 4 -4 10q-18 0 -19 -4v-2q-23 0 -22 -2q0 6 2 8q-2 -2 -6 -2q-8 0 -15 2q-16 0 -16 -10 q-4 4 -4 10l-82 -2q-10 -8 -35 -8q-23 0 -33 -10q-4 8 -4 10q-8 -4 -10 -4q-6 0 -13.5 8t-9.5 8q-4 0 -18 -10t-18 -12q-25 14 -25 18h-55q0 -8 -13 -10q0 6 -4 9t-10 7t-11 10.5t-7 20.5v29q-20 0 -21 10q0 4 2 8q-49 8 -83 12.5t-50 4.5h-8q0 -4 -6 -5.5t-6 -7.5 q-25 0 -37 4l-4 -51h-11v-31q2 2 7 3q0 -10 18 -21.5t18 -17.5h48q-4 4 -5 6q0 8 11 8q2 0 8 -10.5t13 -21.5t12.5 -18t5.5 -3q0 -6 -2 -8l100 -5l2 -20h8q4 -4 4 -16h15q6 0 6 -11q35 10 45 11q10 0 24 -9v4l6 3q7 4 11 4h2q2 0 2 -7v-4q78 0 124 -1t60 -3v-4q6 0 6 4h15 q10 0 28.5 2t39 5.5t37.5 5.5t26 2q12 12 20 22t17 19q6 -4 6 -9v-2q12 12 40.5 11.5t39.5 9.5v2q0 14 12 21.5t30.5 10.5t37 4t30.5 1v6q2 0 3 -1l1 -1q4 0 6 9t7 9q4 0 6 -2v25h6q0 37 26.5 47t40.5 10q10 0 15 -2q6 10 15.5 21.5t19.5 13.5z" />
<glyph unicode="K" d="M1319 47q-2 -2 -6 -2q-6 0 -6 10q0 2 2 2h-9q-12 0 -31.5 6.5t-33.5 6.5h-6q-2 6 -7 7t-11.5 4t-10.5 10t-4 24q0 12 2 16q-2 2 -4 2q-4 0 -8 -4t-8 -4h-2q0 4 -11.5 8t-11.5 12v2q2 0 2 3q-29 4 -48.5 6t-31.5 4v90q-25 6 -44 8t-34 2h-16v33h-10q-2 2 -2 6t5 9t5 9 l-8 2v25q-31 8 -31 18q-14 -4 -24.5 -6t-20.5 -2q-16 0 -32.5 12.5t-16.5 28.5q0 6 6 17l4 26q-8 0 -8 4v4q2 0 3 2l1 1q2 0 2 -3h2v43q-23 10 -41 15.5t-18 13.5v4q10 14 22 28.5t29 14.5q0 59 4 68h4l4 53q16 4 28.5 6t24.5 2h2q6 0 7.5 -6t5.5 -6q6 0 17 10t24 10v68 q6 0 18 7t25 7q4 0 8 -1t8 -1v9q6 4 22.5 6t22.5 8v55h8q0 23 22.5 31t57.5 8q10 0 13 -2v4q0 -2 5 12.5t7 18.5l10 4v0q0 2 -2 2t-4 -1t-4 -1q-2 4 -2 10v15q0 18 2 22h10q0 4 -7 5t-7 7h-31l2 11q-2 0 -3 1t-3 1q-4 0 -4 -7q0 -6 -4 -6h-2q-6 10 -28 13.5t-28 13.5 q-25 -6 -47 -11t-28 -5q-4 0 -8.5 3t-6.5 3v-25h-8v-26h8q4 -8 4 -9q0 -4 -4 -16h-8q0 -10 -1 -15.5t-3 -9.5h-76q-23 -16 -35 -16v-61h-10q0 -4 1 -6.5t1 -4.5q0 -16 -15.5 -19t-15.5 -18v-4q-8 -2 -24 -2q-12 0 -17 2q-4 -6 -20 -5t-18 -11l-5 -51q-2 2 -6 2 q-12 0 -12 -12q0 -2 2 -5q-10 -8 -20 -8q-8 0 -15 8v5q-31 -8 -48 -7.5t-21 -21.5v-33q-4 -20 -11 -27q2 -2 2 -8q0 -2 -11 -4t-25.5 -3t-29.5 -2t-22 -1h-14q-6 0 -12 2l-2 -39q-70 0 -78 -6l-31.5 7t-23.5 3v33h-9q-6 6 -6 18q0 6 4 15h11v252h-11q-4 6 -4 14t4 12h9v49 q-8 0 -9 7v4v0q0 2 2 2t2 -2h5q0 8 -5 8l-4 27q-18 8 -20 14q-16 0 -17 -6h-4q-4 0 -9 -1t-9 -1h-2q-2 0 -2 4l-12 4q-6 0 -7 -2q0 -2 1 -3l1 -1h-110q0 -10 -21 -11q0 -20 -4 -24h-6q-4 -4 -4 -6t8 -6t8 -15q0 -12 -6 -16h-6l6 -27q6 -4 6 -10q0 -8 -6 -14l-4 -25q2 4 4 4 q4 -2 4 -6v-8v-4q0 -4 -8 -4l4 -115q6 -18 6 -35q0 -16 -6 -31l-4 -45q2 6 6 7q4 0 2 -5.5t2 -15.5q0 -2 -10 -2l4 -18q6 -6 6 -17q0 -12 -6 -18l-4 -41h4q6 -47 6 -78v-16h7v-17q4 2 8 2q6 0 6 -10h-14v-51h-7v-127q0 4 5 4q4 0 4 -14v-4q0 -2 -9 -3q0 -8 9 -10v-24h-9 v-150q0 2 3 2q2 0 8 -9t12 -11l119 4q0 6 6 6q6 -4 6 -10l47 4q0 4 4 6t8 2h2q2 0 4.5 9t6.5 9t8 -4v228q-4 -4 -8 -4t-4 12q4 0 7 1t5 1v160q33 16 68 16q14 0 30.5 -3t16.5 -24q35 -23 47 -24q-4 2 -4 6q0 6 8 6t8 -10l37 -2q-2 2 -2 4q0 4 6 6t12 2q2 0 6 -4v-12 q0 -4 4 -4h5q2 -10 3 -18.5t1 -14.5q2 2 6 2q2 0 2 -6l102 -4v-49h8q6 -10 7 -37h49q-2 -2 -2 -4t6 -2t6 -5v-2q20 0 30.5 -8t14.5 -19.5t5 -22.5t1 -17v-4q20 0 29 -27h51q6 -4 25.5 -5t19.5 -17q0 -4 -2 -7h10q0 -8 1 -14t1 -12q0 -4 -1 -8.5t-1 -8.5q2 6 6 7 q39 0 54.5 -11.5t26 -25t24.5 -25.5t49 -14q37 0 53.5 -4t24.5 -4t30.5 10t39.5 10h6q-2 2 -2 6v4q2 6 12 6v29z" />
<glyph unicode="L" d="M1329 -18v79l-94 5v8h-139v-8q-10 -4 -21 -5h-18q-23 0 -33 2v11h-90q2 -2 2 -6t-10 -9q-16 0 -17 7q0 2 1 3t1 5h-20v-11q-6 -2 -10 -3t-11 -1q-12 0 -20 4v11h-19q2 -2 3 -6q0 -4 -11 -9q-14 0 -14 9q0 4 2 6l-74 -2q-6 -10 -28 -11q-20 0 -31 -12q0 4 -1 6t-1 4l-53 4 v9h-45v-9q-14 -4 -29 -4h-25h-28q-12 0 -25 4v9h-61t-29.5 2t-10.5 8t-1 18h-4q-8 2 -9 15q0 8 9 16l4 62h-7q-2 20 -3 73t-1 140q-2 -2 -4 -3v0q-6 0 -6 11q0 6 10 6l9 139v16q-4 2 -9 11l1 1t3 1t3 -2h2v12q-4 0 -9 4l-2 320h-6q-2 2 -2 14q0 10 2 16h6v29q-2 -2 -8 -2 t-12 6t-10 6h-2t-5 -2v-2q0 -4 -10 -6q-4 4 -4 8l-119 -2q0 -6 -12 -6v6q-18 0 -26.5 -4t-11.5 -9t-4 -9t-9 -7h8q4 -4 4 -16h10q-14 -63 -14 -70h-8v-59h8v-115h-8q-2 -2 4 -2t6 -2q2 -12 3 -26.5t1 -34.5q0 -18 -1 -39t-3 -45h-10v-14h10q4 -8 4 -11q0 -8 -14 -16h14v-268 h10q2 -8 3 -23q0 -16 -3 -24h-8v-115q2 2 4 2q6 0 7 -17q0 -6 -11 -6v-82q20 0 31 -24l59 -4q4 -4 22.5 -5t29.5 -8q4 -4 10 -4q10 0 32.5 10.5t32.5 10.5q8 0 17 -4v-4q4 4 21.5 6t37.5 2h39h31q70 0 96 -8h2q10 0 22.5 6t18.5 6t16 -6q2 0 8.5 3t10.5 3h2v-6v-4q29 2 48 4 t36 4v8h41v-8q12 0 41.5 -1t63.5 -3t63.5 -3t44.5 -1q111 4 178.5 6t93.5 4v8q14 19 41 19z" />
<glyph unicode="M" d="M1327 12h-8v70h6v39h-6v65h6v29q-6 0 -6 4l-2 260q-2 -2 -6 -2q-6 0 -6 8q0 12 6 13q4 0 6 -2v18q-2 -2 -6 -2q-6 0 -6 8q0 10 12 10v293h-10q-4 4 -4 15q0 10 4 16h10q0 8 -10 8q-2 10 -3 27.5t-1 44.5h-11v29h11v30q-2 2 -11 2l-10 6q-45 0 -49 -4q-55 4 -95 7.5 t-69 5.5q-49 -2 -70.5 -4t-31.5 -31h-9v-12h9q2 -8 2 -29q0 -18 -2 -27h-9v-12h9q2 -6 2 -16t-2 -13h-9v-78q-8 4 -24 5q-61 0 -74.5 -10.5t-13.5 -28.5v-29q0 -25 -2 -27h-2q-4 0 -8.5 -8t-8.5 -8q-35 -2 -65.5 -3t-57.5 -1q-76 0 -110 8q-2 27 -3 47.5t-1 36.5q0 -2 -4 -2 t-5 4t-1 6t2 4q-6 -2 -19 -2q-20 0 -42.5 5.5t-37.5 5.5h-4q-12 20 -12 73q-20 0 -21 13l6 17q7 17 11 17l1 -1q1 -1 3 -1v15q-20 0 -21 8q0 4 2 8h3q4 0 5 7t5 7t6 -2q-2 4 -5 5t-3 18h-11l-2 2q0 2 -2 4q0 4 7.5 6t7.5 4q-23 4 -35 8.5t-19 4.5q-6 0 -17 -8.5t-19 -8.5 t-19.5 5t-34.5 5h-32q-35 0 -52.5 7.5t-29.5 7.5q-8 0 -17 -4q-4 -4 -28.5 -6.5t-34.5 -12.5v-31h10l3 -4t8 -10t9.5 -10t4.5 0q-6 0 -15.5 -6t-17.5 -6l-2 -29h10q4 -12 4 -19q0 -4 -4 -16h-10v-129q2 6 6 6q8 0 8 -14q0 -12 -12 -12l2 -467q8 0 13 -11.5t9 -11.5 q-6 0 -9 -11t-15 -15l2 -191h8q2 -14 5 -19.5t6 -7.5t9.5 -5t14.5 -11h8q20 0 82 -6q0 16 16 16l4 -10l74 2q-6 2 -6 6q0 2 4 3l4 1h2q0 -2 2 -2l-2 353q-2 0 -6 2t-4 4l4 4q0 4 6 4v31h-6v24h6l-20 35l3 1t11 1v27h6v12h-6q4 51 6 88t4 66h4q0 27 17.5 32.5t34.5 5.5 q29 0 47 -15t18 -50q0 -4 -1 -8t-1 -8q2 2 6 2t8.5 -7.5t8.5 -7.5l63 -4v-8q2 2 8 2t12.5 -7t10.5 -16.5t7 -17.5t3 -10q0 -4 -1 -8t-1 -9l8 2q4 -6 4 -16t-2 -14h-10v-17h10q4 -20 4 -24q0 2 9 2q14 0 47 -17q0 14 22 15q10 0 32 -7.5t30 -7.5h4q23 0 43 9.5t28 17.5l5 115 q8 27 38 26q4 0 8.5 -4t10.5 -4q10 0 28.5 8.5t34.5 8.5l5 24h8q0 25 9 36t21.5 16.5t26.5 4t25 -1.5q14 0 22 -2v-26h6q2 -10 3 -42t1 -85l2 2q6 0 7 -6l-9 -4v-52h9q4 -8 4 -12t-4 -12h-9v-168h9q4 -12 4 -23q0 -6 -1 -11t-3 -11l-7 -2v-12h7q4 -16 4 -25q0 -6 -4 -23h-7 v-12h7q4 -8 4 -18q0 -6 -4 -19h-7q6 0 8.5 -9t2.5 -13q0 -8 -4 -17h-7q6 -37 7 -63v-12q25 -8 34 -19h56v8h49v-8h45l2 10q8 0 16.5 6.5t12.5 6.5t12 -4l-4 8q0 4 7 8t7 6q0 6 -2 8zM1231 938l-19 4h19v-4z" />
<glyph unicode="N" d="M1321 -2v543l-8 -4q-6 0 -6 10q0 12 8 12q4 0 6 -2v43h-10q-4 8 -4 16t10 9l4 174q-16 4 -16 6q0 6 16 6v23h-10q-2 55 -3 98t-1 72q-12 0 -13 4q0 2 2 4h-14q-10 0 -23.5 1t-25.5 2t-16 5q-6 -6 -66 -6v4q-2 2 -8 2q-10 0 -23.5 -5t-27.5 -5q-4 0 -6 1l-1 1v-572h9 q2 -8 3 -13t1 -13t-1 -14.5t-3 -14.5h-9v-84q-12 0 -26.5 -6t-30.5 -6q-12 0 -39.5 6t-27.5 14l4 8q-10 4 -12.5 16.5t-2.5 28.5v15q-10 0 -10 8q-55 12 -90 12h-10v29q-6 0 -8.5 6t-2.5 10q0 6 11 7v12h-9q-2 2 -2 8t2 10q-23 0 -22 15v2l-39 -2v-9h-33q-4 4 -14 13.5 t-10 15.5v2t2 4h-8v33l8 2v16h-8v33h8q2 2 2 6q-4 4 -6 4h-4q-2 2 -2 9q0 6 2 8q-2 0 -31 2t-88 10q-2 12 -3 46t-1 89q-10 2 -19.5 6t-9.5 13q-41 0 -68.5 2t-27.5 12q0 4 2 10t6 6q2 0 4 -2q-4 6 -6 12.5t-4 16.5v27q-8 2 -17 2q-6 0 -6 10v2q-8 -4 -14 -4q-10 0 -31.5 7 t-30.5 7q-8 0 -12 -4v31h-10q-4 12 -4 20q0 2 4 19h10v12h-10q-4 8 -4 27q-8 0 -21.5 -1t-29 -2t-28.5 -2t-19 -1q-16 0 -50 2t-53 2q0 -25 -4 -25l-4 -14q2 0 8 -2t14.5 -5.5t13.5 -4.5t3 -1v-2q0 -2 -6 -2t-6 -2t4 -6q-6 -2 -9.5 -3t-7.5 -1l-4 -39q2 2 4 2q6 0 6 -8 q0 -14 -9 -21l-9 -8l-2 -16q0 2 2 2q6 0 8 -8l2 -8q0 -6 -12 -7v-30l4 4l2 -2q6 -12 6 -17q0 -6 -12 -6l6 -141q8 -8 8 -14q0 -8 -12 -11h4q8 -8 8 -16q0 -10 -8 -18l-4 -140q2 6 4 6q4 0 4 -18q-2 -2 -4 -2q-4 0 -4 2v-64q10 -4 10 -22q-2 -8 -2 -21q0 -10 2 -10h8v-24 q12 0 13 -9q0 -4 -13 -4v-24h-8v-90h8v-31h-8v-127q27 -20 60 -20v-11h20v11q16 -6 28.5 -10.5t22.5 -8.5q20 10 35 10q12 0 19 -2v11q10 2 17 4t11 2v153q-4 2 -8 2q-2 0 -6 2q6 6 12 7h2l-2 284q-2 -2 -6 -2q-6 0 -6 14q0 2 12 7v184q2 0 29 15.5t86 15.5q2 -29 3 -48.5 t5 -31.5q6 8 8 8q4 0 4 -18q0 -6 -12 -7v-18h8q4 -12 4 -16q4 4 9 4q2 0 12 -5.5t10 -11.5q47 0 72 -6l4 -14q4 -20 4 -25v-6h10v-24h2q0 2 2 2q10 0 17 -25h4h20t29.5 -6t28 -22.5t12.5 -47.5h8v-24h-8v-23q12 -14 44 -18t46 -11v-4h2q0 2 2 2q4 0 7 -6t7 -6l2 -24h9 q6 -16 6 -43l16 -17l64 -4q4 -8 17 -7t13 -22v-10h9q0 -6 1 -12t1 -12q0 -4 -1 -8.5t-1 -8.5h8q4 -8 4 -18q2 2 6 2q6 0 15.5 -7.5t9.5 -5.5q0 -2 -1 -3t-1 -3q10 0 10 9q4 2 18 2q16 0 21 6q4 -6 8 -8.5t8 -5.5t6 -8t2 -19h8v-43q20 -8 35 -15.5t25 -11.5v6q12 2 21.5 3 t19.5 1q16 0 28.5 -6t18.5 -6q8 0 16.5 7t14.5 7h2q0 -2 2 -2v11h30q1 14 21 14z" />
<glyph unicode="O" d="M1327 94l-2 45q-2 -2 -4 -2t-3 4t-1 9q0 8 8 12l-4 293q-2 10 -3 19t-1 15v9l-4 -4q-6 0 -6 8q0 10 10 10v37q-2 -4 -6 -4t-4 8q0 2 2 4q2 0 2 -2v0q4 0 5 7t3 7q4 0 6 -2v25h-16v24h16v91h-4q-2 10 -3 17t-1 17q0 8 4 29l2 21h-2q-2 10 -3 32.5t-1 57.5q-2 -2 -6 -2 q-6 0 -11 8l-6 8h-18t-12 2v8h-41q-4 12 -17.5 14.5t-13.5 18.5v6q-12 0 -12 2t4 6l-94 4q0 6 -5 7l-1 -1t-3 -1q-2 8 -2 20q0 8 2 12h-8q-4 16 -4 19h-10q-12 0 -29.5 2t-36 5t-36 6t-27.5 3h-10q0 -4 -17.5 -10t-21.5 -6q-10 0 -17 8h-6q-10 0 -18 -8q-6 0 -6 6h-46 q0 -6 -14 -6v6q-8 -4 -63 -4q0 8 -14.5 12t-22.5 4q-12 0 -19 -12q-4 4 -4 10q-37 -6 -59 -6l-12 4h-19q-23 0 -26 -4t-13 -4t-13 5t-11 5q-16 0 -36 -6t-24 -6q-14 0 -32.5 5t-24.5 5q0 -8 -14 -8v-47q10 0 14 -4q-31 -10 -45 -11h-8q2 0 2 -2v0l-6 -2q-5 -2 -9 -2 q-2 0 -2 4l2 2l-51 -2q-16 -18 -16 -26t-4 -21q-47 -6 -72 -6h-18v-6q-23 -8 -29 -14h2q2 0 6 -4v-39h-8v-13h8v-24h-8v-19h8v-110h-8q-4 -12 -4 -17q0 -12 8 -35.5t8 -37.5q0 -12 -2 -21l8 2q4 -8 4 -12q0 -2 -4 -14h-8v-25h8q4 -8 4 -12t-4 -17h-8l2 -10q8 0 11.5 -10 t7.5 -10q-6 -2 -8.5 -10.5t-12.5 -8.5v-12h8q4 -16 4 -23q0 -8 -4 -16h-8v-25l1 1q1 1 3 1t5 -3l3 -3q0 -6 -8 -6l-4 -127h-8l-2 -2q6 0 9 -9t3 -22v-24v-17q0 -14 -1 -26t-1 -23q31 0 31 -18q4 2 10 2q14 0 27.5 -5t27.5 -5q2 0 3.5 1t3.5 1q0 -8 19 -19.5t24 -23.5 q27 0 40 1t21 -1t15.5 -9.5t23.5 -25.5q6 2 18 2q10 0 26.5 -5t33.5 -5h6v-6h88v6q14 18 43 18q2 -8 19.5 -10t23.5 -14h229q4 8 64 8v-8h125v8q4 0 10 1t10 1t8.5 -1t8.5 -1q-2 2 -2 6q0 8 15 22.5t38 14.5v10q12 10 37.5 9t34.5 7q0 12 4 17h30v-8q8 0 9 8q2 -2 6 -2 q16 0 33.5 10t27.5 10zM1106 168q-2 2 -6 2q-8 0 -8 -16h-21v-11h-76q2 2 -12 -14t-14 -27q-88 0 -88 -2v-8h-29v8h-137v-8h-27q0 8 -5 9t-7 1l-2 -4q-2 -4 -6 -6v8q-8 2 -23 2q-14 0 -20 -2v-8h-37v8h-82q-4 0 -9 8.5t-10 8.5l-2 35h-116v24h-9q0 66 -1 103.5t-3 54.5h-4 v24h4v420h11v35q23 23 34 25l76 6q0 8 7.5 15t7.5 15v5q12 10 20 12h39q0 -4 4 -8q2 10 14 10t17 10h24v-8q12 -4 35 -4v-8q4 0 6 6t4 6q4 -4 16.5 -6t26 -3t23.5 -1h18q18 0 26.5 4t31.5 4q-2 -4 -2 -6t2 -2q0 -2 7 1t11 3q2 0 2 -2h2q2 6 37 6q0 -2 4 -10q8 2 8 8l70 2 q2 0 6 -8t8 -8t6 2q0 -23 15.5 -34t34 -14.5t37 -2.5t24.5 1q0 -16 8 -16q4 0 6 2v-37h7l2 -319q2 -4 12 -4v-19h-8v-135h10v-12q-12 0 -14 -6q0 -8 6 -9q4 0 8 2v-47q-14 -2 -14 -10q0 -12 10 -12h4v-39z" />
<glyph unicode="P" d="M1329 602l-2 225q-10 4 -15 8.5t-5 16.5l-103 4v21q-45 29 -98 28h-12q0 10 -10.5 14.5t-10.5 24.5q-43 0 -62.5 4t-27.5 8.5t-11 8.5t-16 4h-4q-2 6 -3 21.5t-7 15.5q-2 0 -3 -1t-5 -1q-2 2 -3 4t-3 4q-23 0 -38.5 -1t-25.5 -2t-19 -2t-22 -1q-31 0 -80 6q-29 0 -50 -1 t-38 -3v4h-18q-20 0 -48 -4t-32 -4q-10 0 -27 4v4h-8q-23 0 -71 -19v8q-29 6 -47.5 8.5t-24.5 2.5q-14 0 -19 -11q-4 4 -3 7.5t-9 3.5q-16 0 -32.5 -5.5t-22.5 -5.5q-4 0 -17 5l-7 -2q-7 -3 -11 -3q-2 2 -2 7v4h-8q-10 0 -23.5 -5.5t-17.5 -5.5q-6 0 -10 5v4q-4 2 -13 2 q-18 0 -27.5 -4t-14.5 -10.5t-8 -10.5t-9 -4l-2 -29h10q2 -8 2 -20t-2 -19h-10q14 -14 14 -28q0 -10 -2 -22.5t-2 -16.5h-10q-4 -12 -4 -19q0 -12 10 -36.5t10 -38.5q0 -12 -6 -21h-8v-24h8q6 -74 6 -205l4 4q4 0 4 -14v-5q0 -4 -8 -4v-71q12 0 29 -21q-20 0 -29 -8v-18l4 4 q4 0 4 -13v-4q0 -4 -8 -4v-250q2 2 4 2q4 0 4 -16v-2q0 -2 -8 -2v-27h8q4 -12 5 -12q0 -8 -5 -12h-8v-25h8v-18q20 0 33 -4t21 -21h49v8h102q0 16 17 17v159q-4 -4 -7 -4q-4 0 -4 4v5q0 10 7 10q2 0 2 -2h2l-4 71q-8 18 -9 41q0 23 9 39h4q0 27 1 45.5t3 32.5h8v27l37 16 q16 0 16 -6q0 -4 -2 -6h72v6q8 4 24 4h9q6 0 10 -2v-8h69v8q2 2 15 2q10 0 16 -2v-8h19v8q10 2 22 2h25h22q12 0 25 -2v-8l90 2v6q8 4 18 4q6 0 15 -4v-6h28v6q2 4 15 9l14 5q8 0 25 -10q4 6 3 14.5t0 15.5t8 13t28 8q16 4 20 11q14 -18 29 -21v8q4 4 20 4t23 9q-2 2 -2 6 q0 10 15 16t33.5 10t35 5t20.5 1v9q12 4 21 4q-6 2 -7 8q0 8 18.5 15t51.5 7q16 0 27 -2q0 15 20 29zM1094 608q-29 0 -29 -12h-37l-4 4q-10 -2 -18.5 -3t-12.5 -1h-8l-6 -39q-23 -8 -29 -14q-66 2 -161 3t-222 1q-4 0 -4 -4q-10 0 -32.5 4t-32.5 4q-14 0 -31 -8 q-80 12 -94 12v10q0 20 -7.5 63.5t-7.5 65.5v15q-2 2 -10 2l2 2h8q-2 8 -2 30q0 53 15 123q27 8 46 13.5t34 7.5v-8h2q0 2 2 2q10 0 23.5 -7.5t21.5 -7.5q10 0 16 4h2q8 0 27.5 11.5t32.5 11.5q6 0 14 -4v-10q2 -2 10 -4.5t16.5 -4.5t15.5 -3t9 -1q10 0 32.5 6.5t39.5 6.5 l4 4q0 6 6 6v-10h115v10h20l-4 -8q0 -6 16 -7q18 14 37 19l4 -4q4 0 6.5 1t4.5 1t2 -2h2v-8q8 -4 20 -4h15v-13h6q0 -18 4 -22t26 -4v-9q14 -2 32 -3t42 -1q-4 -4 -4 -6t12 -2q0 -14 4 -26h9v-183z" />
<glyph unicode="Q" d="M1327 414v12q-8 0 -12 4v260h-6q-4 4 -4 15q0 10 4 14h6l-2 74h-103v10q-2 -2 -4 -2q-4 0 -6 6l-2 6l-4 -4v78q-20 4 -20 12q-43 -4 -49.5 -6t-14.5 -2q-12 0 -27 6h-4q-10 0 -10 8q0 14 2 19h-10q-4 16 -15.5 27.5t-35.5 11.5q2 -2 2 -7q0 -2 -11 -6q-16 0 -16 4l4 9 h-35l-4 36q-12 12 -30.5 17.5t-37 7.5t-36.5 2h-25q-4 2 -18 2q-29 0 -55 -16q-6 0 -7 8l-28 4q-16 -2 -48 -5t-65 -5t-58.5 -4t-27.5 -2q-6 0 -6 8v4q-16 0 -29 -8v-33h8q4 -16 5 -21q0 -12 -11 -12q-2 0 -4 4v4q0 4 2 7h-71v-9h-27q-18 -4 -27 -8v-2q0 -6 7.5 -7t7.5 -11 t-7.5 -13.5t-7.5 -11.5h-55q-33 0 -53 -6l-10 -59q0 -29 -3 -35h-47q-10 -12 -33.5 -11.5t-31.5 -7.5v-41q6 6 8 6q6 0 6 -16q0 -8 -14 -8v-16q2 4 6 4t6 -5.5t2 -9.5q0 -6 -14 -6v-35h10q4 -8 4 -10q0 -6 -4 -14h-10q14 -16 14 -66h6q6 -12 6 -20q0 -10 -6 -19q-2 2 -4 2 q-4 0 -6 -5t-6 -5l-2 -20q12 0 12 -11q0 -2 -12 -2v-22h8q4 -12 4 -15q0 -6 -4 -14l-8 -2v-164h10q4 -12 4 -16q0 -6 -4 -19h-10v-129h10q4 -8 4 -14h2q10 0 29.5 -12.5t36.5 -14.5l2 11q12 8 23.5 -11.5t25.5 -31.5q16 0 49 -2t45 -2q4 0 26.5 3t45.5 3q4 0 18.5 -3 t29.5 -9.5t27.5 -16.5t14.5 -25h16q14 0 19 -4q16 0 16 4h17q14 0 15 -3t11 -3q14 0 32.5 6.5t29.5 6.5q6 0 10 -1t8 -3v-5q10 4 23.5 6.5t31.5 2.5q12 0 25.5 -1t30.5 -3v6q27 8 34 11t17 7l4 47q4 0 4 4q51 23 84 27h2q6 0 8 -3t8 -3v-2q0 -10 7.5 -29.5t7.5 -36.5 q0 -4 -1 -5t-1 -3q55 -12 86 -12v-8h16v8q12 2 26.5 3t26.5 1q14 0 25.5 -1t24.5 -3v-6h110v6q10 0 14.5 9t14.5 9l2 25q-6 0 -13.5 4t-7.5 8q0 2 2 4l-94 4q2 4 -3 5t-5 5v2q2 0 2 3h6v16h-8v18q-8 0 -11 1l-3 1q0 2 2 4q-2 2 -4 3q-4 0 -6.5 -5.5t-6.5 -3.5q-4 4 -4 6h-24 q-8 0 -15 -6q-6 2 -14 5.5t-8 9.5v2q63 20 102 24q0 18 1 24.5t4 8.5t8.5 1t13.5 3h2q4 0 5 -7t5 -7q8 0 18.5 8t14.5 8q6 0 10 -4v8q4 0 11.5 5.5t13.5 5.5q2 0 2 -2h2l4 221h8zM385 874h-8v9h8v-9zM1094 295h-9l-6 -94q-10 0 -37 -11q-16 6 -31.5 8.5t-27.5 2.5h-14v14 q-4 0 -6 -6v47q0 16 -13.5 27.5t-17.5 11.5q-45 -2 -72 -10q-84 18 -131 18q0 18 -6 35l-8 -2q0 55 -10 59v4v7q-14 -4 -19.5 -6.5t-21.5 -4.5q-12 6 -43 6q-16 0 -35 -1t-37 -5v-8q-31 -4 -47.5 -11t-16.5 -38q0 -8 2 -19.5t7 -21.5q16 0 16 -14h51q10 -14 31 -15 q0 -14 3 -18t8 -5t8 -2t3 -10q2 0 3 1.5t4 1.5q10 0 19 -5.5t26 -13.5h49v-35h10v-78q-4 0 -6 -1t-4 -1h-234v29q-4 8 -39 8v8q-12 2 -29.5 3.5t-41.5 1.5q0 8 -4 8q-2 0 -11 -4v186h-6v39h6q0 59 -6 70h6q2 10 3 19t1 19t-1 20.5t-3 20.5h-8v13q8 0 8 4q0 12 -4 12l-4 -4 v90h8v60q37 27 67 28.5t36 5.5q2 8 8 9l4 51q0 2 11.5 6t11.5 10h36v10q37 12 54.5 21.5t17.5 38.5v8h16q2 -2 3.5 -4t3.5 -4q4 0 6 1t4 1t3 -1t3 -1l4 -8q16 0 45 9t43 9t39 -6t35 -17q8 0 10 8l2 7q4 0 5 -11.5t3 -15.5h9v-18q14 -6 21 -9.5t15.5 -4.5t23.5 -2t44 -1 q-4 -4 -4 -8q0 -2 8 -3t8 -11l4 -2q-2 -8 4.5 -27.5t12.5 -34.5q12 0 18 2v-14q12 -4 80 -4v-16h8v-39q0 -20 13 -29v-156h-7q-4 -6 -4 -16q0 -12 4 -14q2 2 5 2q2 0 2 -2l-7 -4q-4 -12 -4 -23q0 -14 4 -27h9v-28h-9q-4 -4 -4 -15q0 -10 4 -12l9 2v-27q-4 2 -9 3 q-2 0 -4 -5.5t-2 -9.5q0 -2 7.5 -4t7.5 -8z" />
<glyph unicode="R" d="M1327 14v27q-8 0 -8 4v4h2q0 2 2 2t2 -2h2l-4 25q-4 16 -4 22v6h-39q0 -10 -10 -14t-10 -6q-4 12 -14.5 18t-22 10.5t-19.5 9.5t-8 15t4 17h6v30q-6 4 -11 8.5t-9 12.5q-35 4 -59.5 5t-41.5 3v84q-14 0 -14 8v2q-4 0 -15.5 1t-25.5 2t-27.5 2t-21.5 1h-12l-2 23 q-8 6 -9 16q0 8 7 15h4v20h-4q-4 4 -4 25l-103 4q0 23 4 35h4q14 0 52 -19q35 20 34 21q6 0 9 -2v2q0 12 11 21t28.5 16.5t36 10.5t32.5 3q4 0 7 -1t7 -1q-2 2 -2 6q0 8 9.5 14t20.5 9t18.5 4.5t5.5 1.5q-4 4 -5 4q0 4 15 4l10 -6l19 -2v4q6 0 14 10t18 10v27q2 -2 4 -2 q4 0 4 6t5 6q4 0 8 -3t4 -5t-2 -2v0l28 4q4 4 13.5 3t46.5 17q0 53 4 70l4 10h-4q-2 16 -3 56t-1 108h-103v8q-2 0 -2 -2h-2q-4 0 -6 6l-2 6q-2 0 -4 -2q-2 16 -3 22.5t-11 16.5l-94 2v11l-5 -4q-4 0 -5 7t-3 7l-4 -4q-2 18 -11 25.5t-20.5 9.5t-22.5 1t-20 -1v10l-49 -2 q-2 4 -2 12v2q2 4 4 4q4 0 6 -2v23q-31 27 -43 26h-153q-47 -2 -87 -5t-69 -9h-10q-16 0 -25 8v-10q-55 12 -96 12h-14q-6 0 -15 -2v4q-37 0 -40 -4l-119 -6q0 -4 -8 -4q-6 0 -7 8q-37 0 -36 -8q-29 0 -35 8h-43q-16 0 -25 -8q2 -2 2 -4t2 -4q0 -4 -8 -8.5t-8 -10.5 q0 -4 4 -8q2 2 4 2t8 -8t10 -10q-4 0 -6 1t-4 1t-3 -1l-1 -1v-11q-4 -4 -6 -4l-2 -36q2 6 6 6q2 0 2 -15q-4 -10 -8 -10v-33h8q4 -4 4 -10q0 -4 -4 -16h-8q-2 0 -2 -2v0q0 -2 10 -2v-25q4 4 8 4q6 0 6 -16q-4 0 -6 1t-4 1t-2 -2v0v-11q0 -8 -10 -8v-104q2 2 4 2q8 0 8 -19 q0 -6 -6 -6q-4 0 -6 2v-24h10q2 -4 2 -19q0 -12 -2 -18l-10 2l2 -133q2 2 4 2q4 0 4 -10q-4 -12 -8 -15v-190l8 -2q0 -6 -4 -14.5t-4 -14.5l8 -2q4 -4 4 -12q0 -6 -4 -15h-8v-43h8v-14q0 -12 -2 -41t-2 -51q0 -23 4 -39t33 -16h39q37 -6 29 -6q10 0 31.5 5t31.5 5q8 0 20 -4 v8q14 18 37 18l-4 127q-2 10 -2 19v20v19q0 10 2 20l4 152h13v59q6 6 8 6l2 -2h-2l3 2t11 6h4q8 0 8 -12q6 10 27 10q23 0 29 8q4 -4 4 -8l6 6v-2q20 4 31 4q16 0 49 -8t45 -8v-16q4 0 22 -19q23 -4 40.5 -8t31.5 -4h8q0 -4 16.5 -13.5t16.5 -19.5t-10 -10v-12l8 2v-19h6 q6 -10 6 -16h29v-10h6q10 0 26.5 -2t41.5 -4v-27h10v-33q4 0 13 -12t16 -14q10 -2 20 -3h21q23 0 30 3v-17h11q2 -10 3 -18t1 -17h2q2 -10 3 -17t1 -13v-9q2 -6 10 -7t17.5 -2t16.5 -2t9 -5q16 0 17 4t14 4q14 0 28 -8v-6q0 -12 6.5 -29.5t6.5 -34.5l2 -6q6 0 6 -8l51 -4 v-10q12 0 33.5 7t36.5 7q8 0 24 -4v-8h25v8q2 0 9 3t15.5 6t16.5 5t10 2zM1092 653h-9v-39h-14q-10 0 -14 -1t-11 -3l-4 4q-33 -8 -56 -12t-23 -41v-2q-14 2 -27 2h-25q-49 0 -88 -12q-2 8 -16 8q-12 0 -29.5 -5t-34.5 -5q-125 0 -219 5t-153 5q0 12 -2 12t-7 -4 q-4 20 -6 27l-2 20h2q2 16 3 35t1 39q0 18 -1 36.5t-3 39.5l-2 -2l2 47l4 59q16 16 35 17q18 0 25 2q-2 2 -2 6t8 5t8 5q2 -2 8 -2l17 6q0 -8 20.5 -10t24.5 -2q31 0 55 8q2 -6 6 -6q8 0 8 2v4q29 -4 57.5 -7t57.5 -3q23 0 32 6t27 6v-8q49 0 60 8v-8h6q16 0 36.5 4t31.5 4 l4 -8h10h6v-12q14 0 14 6q0 2 -1 3t-1 3h39v-27q4 -4 25.5 -12t25.5 -20q12 0 13 8h47q-4 -4 -4 -6t12 -2q0 -25 4 -33h10v-137h9v-13z" />
<glyph unicode="S" d="M1327 147v15h-6q-6 57 -6 176h-8l-2 53h10v25q-4 0 -6 -1t-6 -1q-18 0 -46 6t-45 6h-8q-16 33 -16 57q0 4 1 6.5t1 6.5q-6 0 -15.5 8t-13.5 10l-104 2v6l-17 -2q2 0 2 -2v0q0 -4 -10 -4q-4 0 -4 4v4l-1 1t-3 1q-6 0 -6 -6q0 -4 -4 -4h-2q-33 6 -50.5 11t-17.5 20 q0 6 2 10q-16 4 -27.5 6t-21.5 4q-78 -2 -111.5 -5t-37.5 -3q-12 0 -29 8t-17 19q0 10 11 10q-6 6 -12.5 19.5t-16.5 13.5q-4 0 -9 -6.5t-18 -6.5q-10 0 -26.5 6.5t-26.5 6.5q-6 0 -14 -4q0 10 -4 10q-2 0 -4 -2q-4 4 -4 26q-76 6 -131.5 9.5t-92.5 5.5q0 6 -1 9l-1 3 q-2 0 -4 -2q-4 18 -4 37v37q0 47 7 64.5t19.5 21.5t27 2t26.5 8q4 0 4 -4q8 0 8 4q33 0 33 -4h10q10 0 31.5 3t34.5 3q14 0 22 -2q2 4 8.5 14.5t22.5 36.5q2 0 2 -2h2q4 0 6 7t4 7q10 0 11 -12h4q14 0 35.5 6t31.5 6q6 0 19 -4l2 -8q4 0 6 6t4 6q8 0 8 -12h2q4 0 6 6t4 6 t6.5 -2t4.5 -10h4q18 0 49 7.5t47 7.5q20 0 34.5 -7.5t55.5 -7.5v-2q0 -12 7.5 -34.5t7.5 -39.5v-4q2 2 4 2q4 0 4 -14q18 -4 33.5 -6t27.5 -2h10l6 -7q5 -8 11 -15t11 -14t5 -9q0 -4 -1 -5t-1 -5v-23h8q8 -18 24.5 -25.5t32 -8.5t25.5 0t8 1q12 0 21.5 5t19.5 5q6 0 23 -6 q45 20 80 25v39l-4 -4q-4 0 -5 4t-1 6q0 10 7 13t7 14q0 10 -8.5 27.5t-8.5 27.5q0 4 5 16q-8 -4 -9 -4q-4 0 -4 10q-25 2 -45 2q-18 0 -30.5 3.5t-19.5 12.5t-7 30q-10 6 -10 12q4 10 10 10l-2 14q-8 2 -8 7v4q-27 4 -48.5 6t-39.5 2h-13q0 6 -10 10v25h-8q-4 4 -4 34 q-33 0 -51.5 1t-29.5 2.5t-17.5 2.5t-14.5 1q-14 0 -23.5 -7.5t-17.5 -7.5t-22 10q-41 0 -45 -4q-33 2 -56.5 3t-44.5 1h-18t-12 -2h-5q-16 0 -38.5 -7t-34.5 -7q-10 0 -17.5 2t-17.5 5t-29.5 5t-54.5 2q-4 -4 -16 -4t-13 -8v-2q0 -8 -6 -13t-6 -9q0 -2 1 -4.5t1 -6.5 q4 4 6 4t2 -12q-29 -4 -41 -6v-10q-8 -4 -22 -4t-21 4v8q-2 2 -6 2l-2 -7t-8 -7q-4 4 -4 12h-78v-8q-4 -2 -28.5 -1t-33.5 -9v-76q-31 -18 -69 -19v-6q-8 -2 -17 -2q-10 0 -14 2l-4 -129h-8q10 -16 10 -59q2 2 6 2q6 0 6 -6q0 -4 -12 -4v-48q8 -6 39 -8q29 -2 42 -18.5 t21 -22.5q10 0 22.5 -4t22 -9t15.5 -8t4 -1v-4h10q16 0 20.5 -6.5t8.5 -10.5q49 -18 65.5 -21t18.5 -14l39 5l114 -5q35 0 39 -4v-2l-6 -4q-6 -4 -6 -8l6 -1q6 -1 6 -11v-2q23 -2 42.5 -4t21.5 -13q0 2 11 1t15 3h84q29 0 38.5 -2t7 -6t-2.5 -12q2 2 7 2q2 0 2 -10 q37 -10 65.5 -14.5t44.5 -20.5v-16q20 0 21 -7v-2q4 0 5 1t5 1q18 0 35.5 -8t34.5 -8h2q0 -10 5 -8t12 -1t12 -20.5t5 -66.5h2q4 -6 6.5 -11.5t2.5 -11.5q0 -8 -9 -20h-2q0 -23 -4 -35h-112q-2 -31 -11 -41h-18q0 -6 -2 -10q-10 0 -25.5 1t-40.5 1t-58.5 -1t-74.5 -1 q-59 0 -107 2t-83 6h-8q-10 0 -24.5 -4t-24.5 -4q-16 0 -23 4v29q-39 18 -54.5 22t-37.5 4q-10 0 -18.5 -1t-12.5 -1l-2 86h-8q0 2 -2 2v2q0 6 5 12.5t5 10.5v2q-33 25 -94 24h-98q-4 2 -6.5 -10t-14.5 -14v-115h10q4 -12 4 -16q0 -6 -4 -19h-8l7 -5t7 -11q0 -2 -2 -2v-2 q25 0 31 -21h60v-18q4 -6 29.5 -14.5t31.5 -18.5q53 0 61 -4v-27q23 0 42.5 -3t21.5 -17h106v10q6 0 20.5 6t20.5 6l17 -4q16 -4 18 -18l39 2v8q2 4 6 4q8 0 13.5 -5t11.5 -7q-4 4 -4 8t10 4q6 -2 10 -2q6 0 6 -4t-2 -6h80v8q8 4 17 4q2 0 18 -4v-8q63 0 72 -4q16 8 32 8h11 q25 -2 36 -3l11 -1h-2q0 4 -1 5t-1 3q0 6 12 6q14 -10 14 -12v-2q8 0 20.5 3t26 7t24.5 7t17 3q-2 2 -2 9q0 4 7.5 9t7.5 11v2q4 4 12 4h6q10 -4 12 -8h2q10 0 25.5 8t26.5 8q10 0 14 -2v9q2 0 2 -2h2q4 0 5 6t5 6t6 -2q-2 2 -2 8q0 16 25 17t37 1h35q2 29 14 45h6z" />
<glyph unicode="T" d="M1321 950l-4 29q-10 0 -10 12h14l-4 51h-164q-6 6 -37 7q-31 0 -43 6q-57 -2 -90 -6v6q-6 0 -27.5 -3t-37.5 -3l-7 6q-25 -6 -73 -6h-70q-57 0 -82 -9v9q-29 0 -49.5 -2.5t-30.5 -6.5q-14 2 -23.5 3t-15.5 6q-2 -4 -3 -13.5t-7 -9.5q-4 0 -4 10q0 2 2 4q-2 2 -6 2t-5 -7 t-7 -7q-4 10 -14.5 16.5t-22 8.5t-19.5 1l-8 -1q-10 -6 -86 -6l2 6h-4t-12 2h-2q-8 0 -9 -8q-29 0 -32.5 4t-12.5 4q-16 0 -35.5 -5.5t-35.5 -5.5q-4 0 -6 1.5t-4 1.5v4l-27 6q-6 0 -12 -10v4q-4 0 -14.5 -3.5t-16.5 -3.5t-8 3q0 -23 -4 -35h-7q4 -6 7.5 -10.5t3.5 -14.5 q0 -16 -10.5 -18t-18.5 -19v-14h39q4 -12 25.5 -14t25.5 -11q16 2 29 11v-11q25 12 55 13q37 0 62.5 -4.5t35.5 -8.5q2 12 11 13q-4 0 6 0t25.5 -1t32 -3t26.5 -7h2q6 0 12 7.5t12 7.5l4 -2q0 -2 3 -2h8q4 -4 4 -6l28 -5v-10q2 2 7 2q4 0 5 -5t5 -5q0 -6 7 -10t7 -17 q-4 -8 -8 -10t-4 -12t8 -29.5t8 -32.5q0 -4 -4 -16q4 2 8 2t4 -10h-12v-129h10l2 -15q0 -10 -12 -10l2 -209q2 4 6 4t4 -4v-8q0 -12 -10 -12v-47q4 2 8 2t5 -10h-13v-43h8q4 -8 5 -19q0 -6 -5 -14h-8q12 -41 13 -64q2 2 4 2q4 0 4 -16q0 -2 -2 -2q-4 0 -6 2v-135q4 4 6 4 t2 -8q63 -14 104 -15v-6q37 0 41 -6l19 6q2 0 4 1t6 1t5 -1t5 -1v6q10 4 18.5 8.5t12.5 6.5l-2 133h-13q0 2 5 6h8v133h-8v150h8v24q-12 0 -13 2q2 6 13 6v166h-11v99h9v63l-4 -4q-4 0 -5 4v8q-2 4 -2 8q0 6 11 7q0 55 4 71l6 2q0 2 6 13.5t23 11.5h2v-6v-2q14 0 50 -1 t78 -3t85 -3.5t73 -1.5h37q20 0 53 8.5t50 8.5q0 18 10 18h4z" />
<glyph unicode="U" d="M1327 162q-8 2 -12 10q2 0 4 1l2 1q2 0 3 -1t3 -1v33h-8q-2 6 -2 16q0 14 2 19h8q0 10 -8 10q-2 10 -3 21.5t-1 23.5q0 10 1 22.5t3 22.5l8 2l-6 123q-6 0 -6 14q0 8 6 8v0q2 0 4 -2v58h-6v114h6v13q-4 -2 -8 -2t-4 2l-4 280q-6 0 -6 13h-3q-10 0 -14 12t-4 14q0 8 4 12 h17q0 2 -11.5 7.5t-11.5 13.5v2q2 0 2 2q-2 2 -4 2t-3 -7t-11 -9q-29 18 -33 24l-141 -2l4 -110q8 0 10 -9q-8 -4 -14.5 -10t-6.5 -24l2 2q2 0 8.5 -7.5t10.5 -7.5q-4 -4 -8 -4l-4 -110h-9q2 -6 9 -9v-137h-9v-30l9 2q0 -23 1 -40.5t1 -33.5t-1 -29.5t-1 -23.5h10 q2 -8 2 -21q0 -12 -2 -18h-10v-70h-7v-10h7v-113h-7l-4 -41h-49q-6 -10 -24 -10t-25 -8v-2q0 -8 -7 -15.5t-7 -13.5v-2q-55 0 -66 -10h-2q0 2 -2 2q-4 0 -11 -2l-7 -2q-4 4 -4 8v4q-41 -4 -70 -9t-70 -5q-72 0 -134 6t-79 6l-18 -9q-17 -9 -21 -9l-14 4q-14 4 -14 8 q0 14 10 22.5t12 8.5l2 16q-10 0 -21 5t-22 5q-6 0 -8 -2v10h-20v-10h-54v131h-8v133h8v31q-4 -2 -6 -2q-6 0 -6 14q4 4 12 9l-2 122q-12 0 -12 7q0 8 12 8v266h-8q-4 6 -4 18q0 10 4 17h8v24h-8q-4 6 -4 19q0 10 4 16h8q0 4 -2 5t-4 4t-4 10.5t-2 23.5l-49 -4q0 -4 -6 -6 q-4 0 -4 10h-164l2 -403q4 2 8 2q6 0 6 -17q0 -12 -8 -12q-4 0 -6 2l2 -223q2 4 4 4q8 0 8 -14q0 -10 -12 -11v-108h8q4 -12 4 -23q0 -6 -1 -11t-3 -11l-8 -2v-68h8q6 -10 6 -20l29 -2q0 -4 5 -6.5t5 -8.5h62l4 -14q4 -4 4 -25q6 0 14 2q8 0 8 -10l88 -4v-12h2q0 2 2 2 q4 0 8.5 -5t8.5 -5h2q2 -6 2 -15v-2q18 -18 37 -22v8q63 6 182 6q0 10 21 10q6 0 10 -6t14 -6q16 0 39 6t39 6q10 0 12 -2q-2 2 -2 6v5q2 6 12 6q14 0 15 -6q0 -4 -2 -7q18 -2 57 -6h27q33 0 57 -6q-2 2 -2 6t10 4q2 -4 2 -10q31 0 58.5 5t48.5 5q41 0 57 -8q0 10 4 19.5 t16.5 15.5t37 10t65.5 4q-2 2 -2 6t10 5q-2 2 -2 4q0 8 7.5 12t16.5 7t16 4t9 1l4 2q0 6 19.5 19.5t40.5 13.5q-2 2 -2 8q0 4 8 10.5t8 12.5q0 2 -2 2v0z" />
<glyph unicode="V" d="M1325 733v12h-8q-4 2 -4 15q0 10 4 16h6q0 4 -2 4l-1 -1t-3 -1v172h-10q-4 4 -4 13q0 10 4 16h10v22h-10q-4 4 -4 15q-37 0 -39 -6h-2v2q-4 0 -8.5 -2t-6.5 -2h-2l-2 2v2l-90 4q0 -4 -7 -8t-13 -9v11h-39v-84h6q2 -6 2 -19q0 -12 -2 -18l-6 2q0 -25 -1 -42.5t-3 -27.5h-7 v-20q8 0 13 -10q0 -4 -13 -5v-28h7q4 -12 4 -15q0 -8 -4 -16q-2 0 -4 1l-1 1q-2 0 -2 -6q-35 -12 -60.5 -18.5t-41.5 -8.5q2 -2 2 -4q0 -4 -12 -6q0 -53 3 -95t0 -72t-19.5 -46t-53.5 -16q-4 0 -5 1t-5 1v-8q-10 -4 -19.5 -5.5t-13.5 -3.5v-26q6 8 8 8q4 0 4 -16 q0 -8 -12 -9v-32l8 4q4 0 4 -15v-2q0 -6 -12 -6v-51h-8v-23q0 -41 -5 -51t-16 -10h-10l-27 3l-10 1l4 2q-35 -6 -47 -6v-10h-75v8q-31 6 -44.5 7t-17.5 18.5t-2 62.5t2 141q-23 0 -22 13v2q2 0 2 2q-4 0 -8.5 1t-10.5 1t-15 -1t-20 -1h-10q-12 0 -21.5 2t-17.5 6l-2 209h-8 v20q-10 2 -12 6l-60 5q-23 10 -39 12q-2 25 -3 63.5t-1 87.5h-8v78q-2 -2 -6 -2q-6 0 -6 10v4q0 8 12 9v47q-4 -2 -8 -2q-6 0 -6 10h-17v-8h-43v8h-16v-8h-33v8h-61q0 -10 -15 -10q-4 0 -13 1t-11 1v-47q2 6 6 6t4 -19q-2 -2 -4 -2q-4 0 -4 2v-51q4 0 8 -6q0 -4 -2 -4t-3 1 t-3 1v-182q2 2 4 2q4 0 9 -11l5 -10q27 -8 47.5 -13t36.5 -7v-21h6q2 -10 3 -20v-15v-8h8q2 -4 2 -161q23 -4 43 -6.5t37 -2.5h14l-2 -2q0 -4 8 -6t8 -6q0 -16 9.5 -42t9.5 -40q0 -6 -4 -18h10q2 -6 2 -21q0 -14 -2 -18h-10v-64h10q4 -12 14 -19t22.5 -11.5t26 -5.5t21.5 -1 v-10q2 4 6 4l2 -4t6 -4h2q6 -25 6 -41h4q4 -12 5 -14v-4q29 -14 51 -20.5t43 -8.5v-2q0 -10 8 -10q10 0 10 -23q0 -4 -1 -6t-1 -6h10q2 -6 2 -25q2 2 5 2q2 0 8 -9t10 -11h59v-8h45q0 2 -2 4q0 2 9 2q8 0 8 6q6 -2 28 -2h15q27 0 37 -2q8 20 10 32.5t4 18.5h6v43h74 q0 10 7 13t17 3h7q-4 4 -5 9v4q2 6 9 6l6 51q10 0 10 4q16 16 45 19.5t57 7.5v153h7v33q-4 -4 -7 -4q-2 0 -3 4l-1 4q0 8 11 8q0 35 19 41.5t34 8.5q0 -4 1 -6.5t1 -4.5q4 -2 7 7.5t11 9.5q29 4 29 16q0 14 4 19h6l-6 55q-8 18 -8 45t8 45l8 33q8 16 35 20q12 -2 23 -2h24v8 q4 0 29 9v26h8z" />
<glyph unicode="W" d="M1325 791v20h-6q-6 12 -6 25q0 2 4 14h8q2 4 2 10q0 4 -6 4h-6q-4 0 -4 2q0 18 14 19q0 10 -6 34.5t-6 41.5l-4 4q-4 6 -4 18q0 10 4 16l4 33q-4 -4 -6 -4q-4 0 -4 4v4q0 4 2 6l-150 -2q0 -8 -12 -8v10q-37 -10 -53 -10v-39h2q0 2 2 2q12 0 20 -22v-4q0 -4 -11 -5l-11 -1 v-60h-9v-10h9q2 -8 3 -14.5t1 -12.5t-4 -22h-9v-10q4 -4 5.5 -6.5t3.5 -4.5q-4 -4 -9 -4v-20h9q4 -16 4 -21q0 -6 -4 -18h-9q0 -31 -15 -36t-28 -5h-2q0 2 2 6q-10 2 -24 2q-25 0 -35 -10v-2q0 -4 -2 -10.5t-10 -6.5v-39q2 6 6 7q4 0 5 -4.5t1 -8.5q0 -14 -12 -14v-64 q2 4 6 5q6 0 6 -11q-4 -6 -12 -6v-272q14 0 14 -8q0 -4 -14 -4v-43q-47 -8 -80 -9q2 -2 2 -6q0 -2 -10 -2q-4 0 -4 8h-5q-4 0 -4 -6q0 -4 -10 -4q-6 0 -6 2l2 -39q6 -80 6 -131v-31q16 0 31 -16h119v10h32q0 2 -2 2v0q0 2 10.5 8.5t12.5 6.5q8 0 18 -11l4 54h9v96h8 q0 18 9 31.5t22 13.5q6 0 16 -3t12 -3q0 25 43 24v142q-8 0 -8 8q2 12 8 14v45q-6 0 -8 6.5t-2 10.5q0 2 2 2h2t6 -2l-8 4v133h8l6 86v2q0 8 12.5 15.5t22.5 7.5v10q39 6 68 16l6 60h6zM848 231v15h-10q-4 4 -4 16q0 14 4 21h10v82q-6 0 -10 1l-4 1l14 4l-2 86h-8 q-4 8 -4 18q0 6 4 14h8v50h-8q-2 4 -2 14q0 6 2 10q-23 0 -35 4v8h-98q2 -2 2 -4v0q0 -6 -9 -8q-6 2 -6 12l-28 -2v-6q-4 0 -25 -1t-27 -7v-166h9q4 -16 4 -22q0 -8 -4 -17h-9v-24h9q4 -12 4 -17q0 -6 -4 -10h-9l2 -84h-84v6h-2v2q-4 0 -6 -4t-10 -4h-2h-2q0 2 2 6 q-10 2 -17.5 4t-11.5 4v138h-10q-2 2 -2 16h-10q-4 6 -4 16q0 12 4 19h10q0 23 2 24h8v27q-2 -2 -6 -2t-4 10q0 8 10 8v209q-2 0 -2 -2h-2q-8 0 -11 11.5t-26 11.5q-18 0 -27.5 -6t-9.5 -4q-14 0 -30.5 12t-16.5 27v43h-6q-4 4 -4 16q0 8 4 14h6v21h-6q-4 6 -4 20q0 10 4 19 h6v14h-6q-4 4 -4 14q0 6 4 11h6v41h-6q-4 6 -4 18q0 10 4 16h6q-2 6 -7 12.5t-5 10.5v2q-20 0 -29 18h-98q0 -10 -8 -10h-10q-2 0 -2 -4v-4q-16 8 -54 8h-20v-39q2 2 6 2q10 0 16 -22h-2q-6 0 -10 -4t-10 -4v-132q4 4 8 5q6 0 6 -19q0 -8 -6 -8h-8v-21h10q2 -27 3 -45t1 -30 q8 0 14.5 4t10.5 4q2 -2 3 -4t3 -4h29q0 -2 -2 -2v-2q0 -4 6 -5.5t6 -5.5l-1 -1t-1 -3q8 4 12 4q10 0 15.5 -7t5.5 -30h6q2 -18 3 -32.5t1 -26.5v-18h8q4 -12 4 -15q0 -6 -4 -10l-12 -4q0 -2 8 -6t8 -21q0 -8 -4 -20h-8v-103h10q2 -4 2 -14q0 -8 -2 -10h-10v-100h10 q0 -20 -10 -25h10v-25q4 4 8 4t4 -16q82 -14 88 -18v-11h11q2 -20 3 -44.5t1 -59.5h10v-37l-10 -2l2 2l8 -4v-18h6q6 -10 6 -17q14 2 21 2h8v-10q49 0 59 -8q10 0 37 11t43 11q8 0 25 -4q2 0 10 14.5t18 18.5v147q6 4 7.5 8.5t5.5 6.5t14 3t35 1q0 -4 13 -5t18 -3v-8h16v8 q25 2 43 3t29 1q8 0 24.5 13t28.5 13zM180 770l-6 4h6v-4zM621 213l-7 6h7v-6z" />
<glyph unicode="X" d="M1323 41v82h-6t-4 4q2 6 10 6v84h-4q-16 0 -16 14h-48q2 -2 2 -4q0 -4 -14 -4q-18 8 -29.5 26.5t-15.5 39t-5 39t-1 28.5v11q-12 8 -14 10h-4q-14 0 -39 5t-45 5q-4 0 -6.5 -1t-6.5 -1l-2 25l-4 -4q-4 0 -5 4t-1 6q0 8 10 8l-4 29q-4 0 -4 12l-10 1t-10 9v4q-35 0 -80 6 v19q-10 0 -11 8q6 0 10.5 10t10.5 20.5t17.5 19.5t29.5 9l2 9q2 0 4 1t6 1t5 -1t6 -1q2 2 11 14t17 12l4 33l8 10q10 4 21.5 6t21.5 2h9v9l22 2q0 8 13.5 15t25.5 7l4 94q8 10 36 18.5t48.5 12.5t24.5 4v99q-4 -2 -8 -3q-6 0 -7 11q0 12 15 12v39q-4 -2 -8 -2q-6 0 -7 10 q0 12 15 12v31q-14 0 -15 6l-49 2v8q-8 -2 -9 -6t-5 -4t-13.5 5t-13.5 5l2 -8h-34v8h-27q-4 -8 -10 -8v8h-39q0 -4 -9.5 -13t-11.5 -13l-4 -84q-6 -4 -6 -10q-4 0 -5 1t-5 1q-16 0 -35.5 -5.5t-34.5 -5.5q-8 0 -12 3q-12 -16 -23 -19v-12h11q8 -10 20 -17.5t12 -17.5l60 -8 q-29 -10 -47.5 -15.5t-28.5 -5.5h-4q0 -4 -9.5 -11t-11.5 -15v-68h-79q0 -10 -23 -10l-23 -17v-20q14 0 15 -8q0 -2 -6 -11.5t-11.5 -20.5t-3.5 -11h-2q-35 -2 -63.5 -3t-46.5 -1q0 -8 -7.5 -9.5t-13.5 -1.5q-29 0 -52 8l-24 7v8q-6 0 -14 -2q-16 16 -16 45v10h-8 q-2 4 -3 15q0 6 3 10q-2 -2 -5 -2l-2 -2q-10 0 -15 9t-21 9q-10 0 -26.5 -6t-27.5 -6q-8 0 -19 5t-11 9t4 9.5t8 5.5l-4 38q-6 12 -6 21v4q-8 0 -9 10q-35 0 -55 1t-30.5 7.5t-13.5 21.5t-3 46q-20 0 -20 21v2q4 0 4 8t10 8h6v29h-8q-4 6 -4 18q0 10 4 16h8v17 q-12 6 -20.5 12t-14.5 10l-119 11q-8 -4 -14 -5.5t-10 -1.5l-4 -10q-18 -2 -21 -8v-25q16 0 29 -16q0 -12 -13.5 -11t-15.5 -7q2 -2 2 -7q0 -4 -8 -7t-8 -7q0 -2 4 -10h10q4 -16 4 -21q0 -10 -4 -18h-10v-10q2 2 6 2q-4 -4 4 -11.5t8 -9.5q0 -10 -4 -19t-4 -13h2 q4 0 11.5 -8.5t17.5 -10.5v-16q29 0 41 -4v-2q0 -2 8 -2q12 -53 17.5 -82t5.5 -37l1 1t3 1q8 0 8 -12h31v-7q51 0 59 -8v-35h8q0 2 1 -7t9.5 -20.5t28 -21.5t55.5 -10h13l5 -8q5 -8 5 -15l6 -2q2 -6 3 -11t1 -11q0 -18 -17.5 -23.5t-38 -7.5t-37.5 -4t-17 -14v-39 q-2 -18 -20.5 -25.5t-40 -9.5t-39 -4t-17.5 -12v-9q0 -4 -4 -4t-6 2v-49h-6v-14q2 -2 6 -10q0 -4 -6 -4v-11h6v-39l-72 -2l2 -8h-31v-24h-8q-2 -2 -2 -5q0 -4 5 -6t5 -6q0 -10 -4 -10l-4 -29q2 2 4 2q4 0 4 -14v-4q0 -4 -6 -7t-6 -14q0 -6 8 -24.5t8 -26.5q0 -4 -1 -7t-3 -7 q16 0 31 -8v-9q59 0 72 -6v-10h28q-4 2 -4 6t2 4h6q10 0 11 -10h16l2 8q8 0 16.5 5.5t14.5 5.5t10 -3q-2 2 -2 9v4q2 6 6 6l6 151q6 0 22.5 11.5t33.5 13.5q33 2 43 6t12 9.5t1 9.5t9 4l-2 49q14 4 26.5 9t22.5 5h11l2 6q4 4 19 10.5t44 10.5v49q4 16 25.5 20.5t23.5 6.5 v-11q57 12 113 13q20 0 39.5 -3t32.5 -24v-39h8q6 -8 5 -12t2 -6t15.5 -4t42.5 -9q-2 -2 -2 -6h6q4 -2 25.5 -12t21.5 -23v-30q10 0 11 -8q35 -10 60.5 -17.5t43.5 -11.5q4 -23 6 -40t2 -28v-6h9v-110q41 -4 70.5 -6.5t51.5 -2.5v-8h52v8q4 0 8 1t8 1t7 -1t7 -1 q2 2 10.5 14.5t18.5 12.5z" />
<glyph unicode="Y" d="M1321 874v80h-8v29l8 2v29q-23 0 -23 18h-127q2 -2 3 -4q0 -6 -15 -6v10h-51q2 -2 2 -4q0 -6 -12 -6q0 -31 -4 -35h-4l8 -7t10 -17q-4 0 -5 1t-3 1t-2 -2v0v-11q0 -6 -8 -6v-22q2 6 6 6t4 -19q-10 -23 -11.5 -36t-9.5 -13h-6q-23 0 -67 -18v8q-4 2 -9 2q-12 0 -22 -10v-6 q0 -10 -6 -17h6v-28h-6v-31h6q2 -10 2 -17v-12q-8 0 -8 -4q-41 -10 -69 -16t-48 -11v-14v-4q0 -2 -2 -2h-4q4 -29 5 -48.5t1 -31.5h-6q0 -31 -4 -35h-49v-10q-10 -2 -20.5 -3t-20.5 -1t-21.5 1t-21.5 3v10q-35 0 -37 6q-10 0 -33 -4t-37 -4l-4 125h-2q-6 0 -11 8.5t-7 8.5 l-52 4q-29 10 -42 19t-13 44v10q0 8 2 15h-6q-2 4 -3 7t-1 7q0 8 4 16h6v13q-4 0 -8 2l-2 2l4 4q-47 10 -72 10q-16 0 -22 -2v8q-20 0 -21 4l-2 82h-8q-4 2 -4 15q0 10 4 16h8q2 0 2 2h-2q0 2 -2 2t-3 -1t-3 -1v35h-31v8h-28v-8h-43v8h-68q0 -12 -16 -12q-6 0 -17.5 3 t-9.5 1l4 -162q16 0 33.5 -5t21.5 -17h5q4 0 10 2t16 6h4q4 0 8 -4v-11q0 -2 2 -2t7 2v-104h10q33 -31 58.5 -32t45.5 -3q0 -6 3 -21.5t8.5 -33t8.5 -34.5t3 -26v-10q2 4 4 4q8 -10 17.5 -13t17.5 -3t13 -1t9 -5q12 4 21.5 6t15.5 4q12 -37 12 -59v-11h11v-24q2 4 4 4 q8 0 8 -12h4q16 0 45 -4.5t39 -4.5v-12h10q4 -12 4 -26h6q4 -23 5 -43v-39v-33q0 -16 -2 -33l-9 -2v-29h9q2 -8 2 -18q0 -14 -2 -21h-9q10 -23 11 -51v-47t-1 -36.5t-1 -30.5h10q12 -12 31.5 -18.5t40 -7.5t38 0t25.5 1v-8q8 0 8 8h6q12 0 28.5 8t29.5 8h6v39q-12 0 -13 6 q0 8 13 9l-6 233q-4 4 -4 14t4 17l8 80h8q-2 4 -2 12t11 13t25.5 8.5t28 5.5t19.5 2v10q6 0 12 9t15 9l6 31q6 0 4 10.5t6 10.5q2 0 2 -3h4q0 12 4 17h68q0 20 12 20q6 0 10 -2v60h6v26q-8 0 -8 2q10 10 12.5 17.5t4.5 12.5t7 8t21 3h19q8 0 18 -2v11h23q14 0 16 8l-4 37 q4 23 6 40t2 29v12q6 0 32 9.5t42 9.5q10 0 16 -2q23 18 29 26z" />
<glyph unicode="Z" d="M1325 45v74q-10 0 -31 16q-23 -6 -39 -10t-26 -8q-6 10 -19.5 11t-15.5 3l-98 2l2 -2q0 -4 -15 -4h-12q-2 0 -2 4l2 2h-121q2 0 2 -2v0l-3 -2t-7 -4q-14 0 -14 6l2 2l-39 -2q-16 -8 -39 -8t-37 6v4h-59v-4q-6 0 -10.5 -6t-8.5 -6q0 8 -8 8q-6 0 -6 2t4 6l-82 -2 q0 -4 -8 -6q-6 2 -6 6h2h-70h2q0 -2 -4 -4t-8 -2h-10q-6 2 -6 4v2h2q-2 0 -14.5 1t-26.5 1t-28.5 2t-20.5 6l-7 6q0 4 8 7l9 4h2q6 0 7 8t3 8q4 0 8 -4q0 31 4 39h4q0 18 5 27q2 0 2 -3v0q6 0 8 9.5t18 9.5q6 0 16.5 -1t22.5 -3q0 27 43 26v33h8q0 29 9.5 35t29.5 6 q16 0 27 -2v8q29 10 29 11q-2 2 -3 4q0 10 11 20h12v51h8q0 12 4 21q23 0 39 -6v-6h39v8q6 0 12.5 9t14.5 9l6 60h4v0q2 0 2 2v10q10 10 34.5 11t35.5 1h14v10q2 0 2 -2v0q4 0 6 6.5t6 6.5q2 0 6 -5q0 2 2.5 12.5t4.5 23t5 24.5t9 18h4q12 0 36.5 5.5t35.5 5.5q8 0 14 -2v2 q0 6 12 6v59q18 18 80 19q10 0 19.5 15t16.5 32.5t11 31t4 9.5q23 23 74 22v6q4 2 12 2l5 13q2 6 8 6l4 131q-2 0 -2 -2h-2q-6 0 -10.5 9t-8.5 9q-66 4 -114 6t-80 4h-13q-25 0 -47 -10t-41 -10q0 2 -2 2v4v4q-43 0 -63.5 -1t-29.5 -3t-11 -3t-10 -1q-6 0 -23.5 5t-32.5 5 q-10 0 -9 -6t-13 -6v10q-61 0 -68 -6q-12 4 -51 4h-35q4 -4 4 -6t-10 -2q-4 4 -4 8q-2 -2 -8 -2t-12.5 7t-10.5 7q-6 0 -8 -2v-6q-94 0 -102 4q-23 -4 -41.5 -6t-30.5 -2l-10 -2q0 -4 -6 -6q-29 16 -61 15t-48 1q-4 0 -7 1t-7 1q-16 0 -43 -5t-31 -5q-10 0 -23 4v4 q-47 -12 -49 -18v8q-4 2 -8 2t-5 -5t-5 -5l4 -21q8 -16 8 -20q0 -10 -8 -18l-4 -37q14 -4 18 -19q59 -6 102.5 -8t69.5 -2q18 0 43 6t31 6q16 0 29 -6v-4q178 4 205 6v-6q4 0 7 -1t7 -1q23 0 50.5 7t37.5 7q14 0 31 -6v-4q12 -4 18 -4q10 0 36 7t42 7q47 0 83 -7t58 -7v-8 q-2 0 -3 1t-3 1q-6 0 -17 -11l-10 -10v-24q-2 2 -8 2q-10 0 -10 -10v-5h-2q-16 0 -40 -7t-40 -7q-6 0 -10 2l-4 -86q-10 -2 -21.5 -3t-27.5 -1q2 -2 2 -6q0 -2 -9 -6q-4 4 -4 12h-39q2 -2 3 -6q0 -4 -13 -6l-2 -53h-8v-33q-98 0 -111 -4l-4 -60h-10q2 -14 2 -20v-4h-16v-11 h-51q-33 0 -43 -8l-5 -94h-2v2q-4 0 -5 -5t-9 -5l-2 8h-72v-8h-16q0 -18 -10 -19l-2 -20q2 4 6 4q6 0 6 -18h-12v-25q-12 -6 -39 -6q-25 0 -35 -10v8q-6 0 -19.5 -4t-17.5 -4l-4 -95q-39 -4 -67.5 -6t-51.5 -4q0 -59 -4 -76h-6v-12h6q2 -25 3 -45t1 -37v-20h2q0 2 2 2l9 -5 q8 -5 17 -11.5t16 -12.5t7 -8q4 0 6.5 6t6.5 6q6 -4 6 -10q6 6 25.5 7t29.5 1q16 0 26.5 -6t26.5 -6q10 0 27.5 6t28.5 6q6 0 18 -4v-4q76 4 120 8t79 4q23 0 39 -7t35 -7q10 0 30.5 6t32.5 6q6 0 11 -1t12 -3l16 -4q23 0 65.5 6t65.5 6h14v-4q29 4 45.5 8.5t24.5 4.5 q2 -2 2 -9v-2q16 2 44 3t67 1q20 0 43 -14h2q6 0 18 6t19 6q31 0 32 -2h6q20 0 51 4t42 4v3l5 11q5 11 15 11zM1038 887h-30v8h30v-8z" />
<glyph unicode="[" d="M1081 -106q-6 4 -9 5t-3 11t4 16h8q2 2 2 4t2 4q0 4 -10 2t-10 5q0 2 4 6q-29 4 -43 8t-27 4q-4 0 -19 -7t-30 -7q-2 0 -4 1t-4 1v-2q0 -6 -12 -6q-2 0 -2 2t2 6h-49v-4q0 -4 -9 -4q-4 0 -4 8h-16q0 4 -4 8q-23 -6 -39 -6t-33.5 3t-48.5 3h-51q-51 0 -76 6v127h8v16 q-4 2 -7 4.5t-7 4.5h14v6q0 4 -4 4q-2 0 -3 -1t-3 -1q-2 20 -2 39v39v37q0 18 2 36h10v17q-4 -2 -8 -2q-6 0 -6 10q0 8 14 8v21h-10q-4 8 -4 22q0 16 4 23h8q0 8 -6 8t-6 2l2 541h10q-2 2 -2 6q0 16 15.5 24.5t15.5 10.5q8 0 25.5 -4.5t27.5 -4.5v-8h45q0 8 10 8q14 0 15 -4 q0 -2 -2 -4h49q-4 2 -4 6t10 4q8 0 8 -10h17v8q2 2 11 3t9 6q27 0 33 -9q20 4 33.5 8.5t29.5 4.5h2q2 -2 2 -9v-4q10 4 18.5 9.5t18.5 5.5q4 0 4 -11v-4q4 6 12.5 8.5t16.5 2.5q10 0 18.5 1t12.5 7v33h8v84q-8 0 -8 2l2 2h-6t-21 2h-4q-8 0 -8 -6q-16 4 -28.5 7t-24.5 3 q-16 0 -25 -2v2q-16 0 -45 -6.5t-45 -6.5q-33 0 -60.5 4.5t-46.5 4.5q-10 0 -31.5 -3t-25.5 -18q-2 6 -7 11l-5 6q-8 -4 -60 -5q0 -20 -10 -20h-2q-2 -2 -6 -2t-4 6t-2 6t-4 -2q-4 4 -4 12t-17 9q-10 0 -23.5 -6.5t-23.5 -6.5q-4 0 -16 4v5q-8 -4 -66 -5v-8q-8 0 -13 -6 t-9 -6q-4 4 -4 6q0 -2 -6 -2t-12.5 9.5t-12.5 9.5h-2t-4 -3v-34q2 4 4 5l2 1q2 0 6 -17q0 -4 -12 -4v-53q16 0 31 -24q-6 -4 -7.5 -12.5t-11.5 -8.5l-12 14v-18q4 4 6 4l9 -10t9 -12q0 -8 -8 -15h-16q2 -39 2 -57v-19h-10v-67q2 6 6 6t4 -14v-4q0 -4 -10 -5v-53h10v-47h-10 v-39q4 4 6 4q6 0 6 -16q0 -6 -12 -8l2 -19h8v-30h-8v-54h8v-59h-8v-27h8v-123h-8v-18q2 2 4 2l3 -4q3 -4 3 -10l-7 -6q-7 -5 -7 -21t8 -44t8 -50q0 -4 -1 -7t-1 -8q2 6 6 7q4 0 4 -17h-10v-35h6q4 -20 4 -24q0 -12 -4 -25h-6v-106q2 6 6 6q2 0 6 -16q0 -10 -12 -11v-37 q12 0 12 -10q72 0 78 -2l39 -4q-6 2 -6 6q0 2 4 3t6 1q4 0 6 -4t2 -6q16 0 25.5 -6t11.5 -6q4 0 15.5 8t15.5 8t8 -4v6q10 2 21.5 4t21.5 2t20.5 -2t20.5 -4l139 -4v4l8 4t9 2q4 0 8 -2l8 -4l16 -4h127q12 4 23.5 6t21.5 2h9q0 16 20 17l4 35h8z" />
<glyph unicode="\" d="M1317 -123v29q-2 -2 -4 -2q-6 0 -6 10q0 2 2 4v2q0 4 8 4v25q-4 -4 -6 -4q-4 0 -4 4q2 2 2 8q-2 2 -2 6q0 6 10 6v88q-12 0 -12 2t4 7q-29 2 -50.5 1t-36 2t-21.5 12t-7 34h-4q0 2 -3 11t-7 18l-4 10q0 4 10 4v16h-8q0 25 8 33h-80q-12 12 -29 16v13h-8q-4 8 -4 22 q0 16 4 23h8v77q-10 0 -32.5 -3t-38.5 -3h-9q-20 4 -33.5 13.5t-13.5 40.5q0 10 1 18t3 20q-2 -2 -6 -2q-6 0 -6 15q-16 8 -52 7t-52 5v8q0 10 -1 23.5t-4.5 27t-9.5 19.5q-2 0 -2 2l2 4q-31 0 -30 4l-5 4q-16 0 -36.5 6t-26.5 6v23h-10q-4 20 -4 37q0 10 1 20.5t3 20.5h10 v14h-10l-2 3t-5 8.5t-5.5 7.5t-2.5 0q0 2 5 6h-72l-2 6q-18 0 -24.5 6t-6.5 23q0 8 2 14h-8q-2 12 -3 23.5t-3 19.5q-4 0 -8.5 -1t-8.5 -1q-23 0 -53.5 8t-32.5 8v2q0 12 -8 30.5t-8 29.5q0 10 2 14q-2 0 -3 -1t-3 -1q-4 0 -4 10q6 8 10 8v35q-23 0 -22 10v2q2 0 2 3 q-12 6 -35 6h-29q-23 0 -35 8v45q-47 0 -55 2t-8 16v11q0 6 4 14h57q0 2 -6 7t-6 11v2q-2 0 -2 -2h-2q-6 0 -8 9.5t-4 9.5q-8 -2 -9 -4q-16 6 -63 6h-21v6q-6 2 -16 2t-32.5 -8t-39.5 -8q-2 0 -4 1t-4 1l4 -43q8 -12 8 -15q0 -6 -8 -14l-4 -104l2 2q8 0 15 -21q8 0 9 6t19 6 q14 0 23 -2v-10q27 0 35 -4l2 -14q4 -8 4 -27q2 2 4 2q4 0 4 -14q-2 -8 -8 -8q6 -33 14 -60l8 -28h45q20 0 35 -3v-10q2 4 4 4q4 -8 8 -8h2q6 -23 7 -33h8q0 -6 1 -12t1 -10t-1 -8t-1 -9q2 2 6 3q4 0 7 -6.5t7 -8.5l60 -4v-8q4 4 6 4q4 0 5 -4t5 -4h4q0 -2 3 -15.5t8 -31 t8.5 -35t3.5 -27.5v-8q2 2 4 2l5 -8t11 -10h6q14 0 35 -10.5t35 -10.5l2 -12h10v-41l8 -2q0 -6 6.5 -9t6.5 -14v-2q-6 0 4 -1t26.5 -4t34 -9t23.5 -18q14 0 14 -15v-4q-2 -16 -2 -24v-9q23 0 31 -24h2q4 0 5 6t3 6t10 -4v-8q59 0 68 -8q0 -2 -2 -2v-3q0 -8 6 -9t6 -11 q0 -8 -6 -8v-68h6q0 -2 1 -3t1 -3t-1 -3t-1 -3h16q6 -4 7 -6v-6h63q-2 -4 6 -6.5t10 -6.5v-45h9q4 -14 4 -37v-51q2 2 4 2q4 0 4 -16q10 0 17 1t14 1q18 0 32.5 -9t12.5 -7q2 0 3 7t3 7q8 0 13 -10.5t9 -22.5t6.5 -23.5t2.5 -15.5v-14q10 0 10 -4q0 -8 -10 -8v-29 q10 0 10 -8q41 -14 71 -15v-4q0 -2 3 -2l2 2v8l1 2q1 1 3 1q4 0 8 -3.5t4 -7.5l25 4q37 6 63 7h14q0 1 23 24z" />
<glyph unicode="]" d="M1083 -115l-2 330l-8 4q0 4 4 4l4 84h-8v27h8v33q-6 0 -8 2q0 6 2 6t3 -1t3 -1v22h-8v19q-2 10 -2 18h10v82l-10 -2v31h10q0 4 -4 4q-2 0 -3 -1t-3 -1v114h8v54h-8v30h8v21l-4 -4q-4 0 -5 4t-1 6t2 2v4q0 2 8 2v78q-10 4 -10 18q0 20 2 31h-10q-4 4 -4 19h-2q-4 2 -4 12 q0 8 4 12l2 10q-14 12 -18.5 20.5t-10.5 8.5h-2q0 27 45 27l-2 80q-35 8 -45 14t-27 6q-10 0 -25.5 -6t-25.5 -6q-20 0 -43.5 8t-34.5 8h-16q-18 0 -42 -2t-44.5 -5t-33.5 -5l-13 -2l-92 10v4q-33 0 -60 -14v4q-76 0 -120 -1t-60 -3q2 -2 2 -4v0q0 2 -5 -13.5t-7 -19.5h-10 q0 -4 6 -5t8 -9q0 -10 -14 -11l2 -47q8 0 16 -11t16 -13q12 -2 23 -2h22q23 0 33 2v-8h47v8q18 2 37 3t37 1q16 0 33.5 -1t36.5 -3v-8h49v8q8 4 14 4q4 0 21 -4l-2 -8h26v8q12 4 19 4q23 0 33 -17.5t10 -64.5h10q2 -10 2 -21v-20v-21q0 -8 -2 -18l-8 -2v-18h8q2 -8 2 -19 q0 -14 -2 -20h-8v-13h8v-139h-8h2q6 0 7 -10t1 -17q0 -14 -2 -22h-8v-12h8q2 -6 2 -21v-16h-10v-15h10v-137h-10q0 -4 5 -5t7 -7q0 -8 -12 -8q0 -8 10 -8q0 -23 1 -53.5t1 -69.5h4q4 -12 4 -15q0 -6 -4 -14l-4 -68h6q2 -8 2 -28v-15q0 -6 -2 -14l-8 -59q-8 -4 -27.5 -5 t-27.5 -12q-53 4 -90 6.5t-58 2.5h-18q-63 -4 -98 -8.5t-39 -6.5q-20 0 -35 1t-25 3q0 -8 -14 -8v8q-16 -4 -24.5 -8t-12.5 -6v-82q2 -12 20 -12q6 2 15 2h16q51 -4 93 -6t77 -2h39v-7h16v7l113 -5q2 0 3 -1l1 -1q4 0 5 6.5t7 6.5t7 -6q0 -2 -1 -3l-1 -2l202 5q4 4 23.5 5 t25.5 9v-8h17q-1 1 22 24z" />
<glyph unicode="^" d="M1196 805v43h-10q-4 8 -4 18h-4q-4 8 -4 13v4q-27 4 -48.5 6t-40.5 2h-12v16h-8v13h-8q-2 12 -3 22t-1 14h-9v35q-35 -6 -61 -6q-10 0 -16 1t-15 3v53h-10v11q-6 2 -14 2q-6 0 -6 10v2l-93 -2v37q-2 -2 -4 -2q-4 0 -4 4v8v4q-41 0 -49 4t-12 4q-2 0 -18.5 -5t-28.5 -5 q-8 0 -13 2v4q-2 0 -27.5 -3t-47.5 -3h-11v-49q-47 -10 -70.5 -16.5t-32.5 -10.5t-11 -6t-4 -2l-4 -41q-16 0 -13 4q-25 0 -24 -4q-31 0 -35 3t-8 3q-8 0 -20.5 -7t-16.5 -7l-4 -92q-4 0 -5 1t-6 1q-16 0 -37.5 -7t-37.5 -7q-4 0 -6.5 1t-4.5 1q0 -8 -12 -9v-49h-8v-20h10 v-23q0 -4 15.5 -3t23.5 -9q23 2 31 4t11 4t4 3t11 1q2 -2 2 -6v-4q37 0 44.5 4t13.5 4q12 0 22 -8q2 8 16.5 7t20.5 3q0 23 4 27h11v45q6 0 6 2t5 5t17.5 5t40.5 2v6q4 4 19 4q14 0 18 7q0 2 -1 3t-1 3q0 12 16.5 18t38 9.5t41 4.5t23.5 1h41q16 0 30.5 -1t26.5 -4 q-4 4 -4 5q0 4 8 4h2h4q8 0 9 -12l2 -11h8v-20q4 4 6 4q6 0 14 -19h72q0 -6 16.5 -17t16.5 -30q-2 -10 -2 -28q2 0 2 2q4 0 9 -7.5t9 -7.5t18.5 -1t34 -3t39 -3t35.5 -1h19q0 6 17 7t15 1q2 0 11.5 12.5t19.5 14.5z" />
<glyph unicode="_" d="M1313 -53q-8 8 -15.5 18t-7.5 6q0 2 2 4h-71v11h-166v-11q-8 -4 -21 -4q-10 0 -14 4v9h-111v-9h-112v9h-66v-11q-6 -2 -11 -3t-11 -1q-8 0 -21 4v11h-29v-11q-10 -2 -22 -3t-23 -1q-12 0 -23 1t-24 3v11l-96 -4q0 -6 -12 -7q-2 0 -2 2t2 7h-109q2 -2 2 -5q0 -4 -14 -4 t-14 7l-123 2q-4 -10 -64 -11v-86q4 -6 20.5 -11t20.5 -15l168 2q0 16 6 16q2 0 3 -1t3 -1q2 -4 14.5 -3t14.5 -11l311 2q0 6 11 6v-8h82q2 8 6 8q6 0 6 -8q14 0 16 5t19 5q2 -2 2 -4v-4q6 -2 16 -2q23 0 50.5 5t49.5 5q4 0 7.5 -1t5.5 -1q0 2 -1 3t-1 3q0 6 6 6q4 0 7 -5 l3 -5l12 -2h2q2 0 7.5 -5t17.5 -5q10 0 25.5 5t25.5 5q12 0 17 -2v-4q14 0 42.5 2t38.5 2t38 -2t40 -2v2q0 6 13 6v-8l18 2q0 2 5 12t15 10l5 60h8z" />
<glyph unicode="`" d="M1126 778v35q-37 14 -59 18q-14 0 -16 -8q-4 4 -4 8h-31v35q-4 -4 -8 -4t-4 10q-4 0 -5.5 -1t-5.5 -1q-14 0 -36.5 7.5t-26.5 7.5q-8 0 -17 -4v16h-6q-6 6 -6 18h-4q-12 0 -33.5 4.5t-38.5 4.5h-12l-2 8q-14 0 -29 14v25q-27 0 -43 4v8h-71v33h-11v18q-27 0 -27.5 4 t-13.5 4q-16 0 -35.5 -6t-27.5 -6q-6 0 -18 4l-5 8q-14 0 -26 -6t-21 -6q-8 0 -16 4v-10q-8 -4 -23 -4q-14 0 -20 4v10l-72 -2l-2 -8q-4 0 -11 -5t-13 -5q-2 0 -2 2v-33h4q4 0 8 -8t8 -10h51q41 -41 78 -52.5t84 -15.5v-20q4 0 13.5 -13.5t19.5 -13.5q16 -2 29.5 -3t25.5 -1 h14l7 -6q8 -6 8 -11q0 -2 -2 -2v-2q25 0 30 -20h31q2 -14 10 -19h19q-6 6 -6 9q0 6 12 6q2 -10 22.5 -20.5t22.5 -26.5q4 2 6 2q4 0 8 2q4 -4 5.5 -7t11.5 -3q14 0 30.5 5t22.5 5q8 0 16 -4v-4q6 -2 23 -2q16 0 39.5 5t28.5 5q12 0 24 -4l2 -4q8 0 13.5 9t11.5 9q4 -4 4 -14 h18v10q16 4 41 4q-2 2 -2 8v2q0 2 4 2q2 0 6 -2z" />
<glyph unicode="a" d="M1317 35l-2 90q-6 0 -15 -2q-2 8 -20 8q-8 0 -20.5 -5t-20.5 -5q-4 0 -16 4v4q-14 -2 -22.5 -3t-16.5 -1v76h-8q-2 6 -2 12v12q0 16 2 25h2q4 0 6 6t6 6l1 -1t3 -1l-2 55h-8v29h8v39q-10 0 -10 4q0 6 6 7t6 5h-2q0 2 -2 2t-3 -1t-3 -1v31h8v29h-8v30h8v13h-8v30h8 q-10 27 -10 50q0 16 2 22q-8 6 -23.5 7t-19.5 12l-60 4v28q-2 -2 -10 -2q-6 0 -12 6.5t-10 6.5q-8 0 -9 -7q0 -4 -10 -4v9q-4 0 -23.5 -3.5t-33.5 -3.5q-10 0 -15 2q0 4 -6 5q-4 0 -4 6l10 2v35q-8 0 -16 7t-14 9q-16 0 -44 -1t-69 -3h-39h-39t-30 2q0 2 -5.5 -2t-11.5 -9 t-11 -10.5t-3 -5.5q-10 0 -12 5.5t-3.5 10.5t-4.5 10t-17 5q-16 0 -44 -8t-40 -8h-2q-31 2 -74 3t-100 1v-15q0 -16 -11.5 -23t-26.5 -9t-29.5 0t-22.5 2h-31q-12 0 -22 2q-6 0 -8.5 -13.5t-14.5 -13.5v10h-27q-12 0 -14 6h-27q-10 0 -12 -6v-30q2 4 6 4q6 0 6 -19 q-6 -6 -12 -6v-43q2 2 6 2t7.5 -8t7.5 -8q20 2 28 10v-10q35 0 39 10q10 -10 19 -10q8 0 16 -2v-8h37v8q18 4 42.5 6t51.5 31q14 6 29 6h10v8q10 4 18.5 6t12.5 6q18 -18 32 -20q-4 4 -4 6q0 6 15 6q10 -6 10 -10l47 -2v8q18 8 35 8q20 0 51 -8v-8h16v8h129v-8h17l-4 8 q0 6 12 6q20 -10 29.5 -16t15.5 -12.5t12.5 -14.5t18.5 -20l74 -2q0 -6 9 -8.5t9 -22.5q0 -16 -5 -18.5t-5 -4.5q-86 -4 -144.5 -6t-95.5 -8q-10 10 -26 10q-18 0 -46 -5t-32 -5q-8 0 -13.5 1t-13.5 3v4q-4 2 -12 2q-14 0 -28.5 -5t-20.5 -5t-19 4v4l-18 -4q-6 0 -34 3 t-56 3q-6 0 -12.5 -1t-12.5 -1v-2q-8 -33 -18.5 -38t-40.5 -5v-4q-4 0 -10.5 -6t-10.5 -6q-4 8 -4 10h-39q2 -2 2 -4q0 -6 -10 -6v-8q0 -18 -16.5 -17.5t-26.5 -7.5v-6q-6 0 -9 -5t-7 -5q-4 4 -4 6h-29q0 -4 -13.5 -6.5t-17.5 -10.5v-47h10q4 -20 4 -26q0 2 5 2h2v-2 q2 0 2 -2l-1 -3q-1 -4 -3 -4q-4 0 -5 2q0 -27 -1 -45t-3 -28h-10l2 -72h8q4 -4 4 -18h37v-9h39l2 11q4 0 18.5 -2t14.5 -41h8v-13q41 0 51.5 4.5t16.5 4.5q4 0 14 -4.5t10 -18.5q4 4 7 4q4 -4 10 -13t6 -16q23 0 31 -24h116v6q0 6 15 8l2 -14q6 0 7 7t5 7h2q2 -2 9 -3t7 -5 q0 -2 -1 -3t-1 -3h21q-6 6 -6 8q0 6 14 6q14 -10 14 -12l17 -2v10q12 2 31.5 3t48.5 1q0 8 20 12v5q0 4 7.5 13t23.5 9q2 0 5 -1t7 -1v8q33 12 62 13q14 0 18 -3q0 2 -1 3.5t-1 3.5q0 10 16.5 22t38.5 12q0 -2 1 -3t1 -3q4 4 20.5 8.5t18.5 4.5q20 0 21 -31 q16 -10 29.5 -18.5t23.5 -16.5h37q-2 4 -2 8q0 6 10 6q14 0 16 -8q0 -2 -2 -11t-2 -13q0 -10 20.5 -19.5t24.5 -11.5h39l-2 8q2 2 6 2t25 -10v8q8 4 23 4q14 0 18 -2v-10h31v10q12 4 25.5 16.5t25.5 12.5zM981 258q-2 2 -6 2t-5 -6t-1 -10q-6 2 -19 2q-6 0 -21.5 -1 t-31.5 -7.5t-28.5 -17.5t-12.5 -30h-2q0 2 -2 3l-4 -1q-4 -2 -4 -4q0 -4 6 -6h-23v8l-7 3.5t-7 1.5q-8 0 -16 -5v-8q-8 4 -9 4q-6 0 -16 -7t-20 -7q-2 0 -3 1t-4 1q0 -10 -6 -21.5t-6 -21.5h-2q-20 0 -56 -9t-57 -9h-2q-80 10 -138 15t-97 5v10q0 14 -4 19h-8v61h8q0 2 1 6 t1 9q0 4 -1 9t-1 11v12q0 27 24.5 37t90.5 10q0 10 10 21l10 12l111 6q70 0 82 -4h253q-2 -2 -2 -4q0 -10 7 -10q4 0 6 2v-23q0 -10 2 -14h8z" />
<glyph unicode="b" d="M1327 111v114q-6 2 -12 8q6 6 12 7l-4 215q-8 0 -8 14q0 8 12 8l-2 64h-6q-4 8 -11.5 17t-19.5 9v-2q2 0 2 -2q0 -6 -14 -6q-2 0 -2 4q0 2 2 6q-27 0 -44.5 1t-27.5 3v29q-16 0 -16 4q0 2 2 4h-49v8l-62 5v38q-12 0 -12 3q0 2 4 6q-18 -10 -45 -11q-12 0 -18 2v7h-9 q-4 0 -14 2q-12 0 -16 -9q0 8 -6 9q-4 -2 -13 -2q-4 0 -4 10q4 4 10 4v20q-23 0 -30 5v2q0 4 -4 5t-4 5v2q-37 -10 -58 -10h-8v10h-14q-10 0 -11 -10q-16 4 -26 7t-21 3h-8v6h-16v-6h-15q-16 0 -53 -6t-55 -6q-6 0 -11.5 1t-9.5 1q0 -27 -5 -35t-10 -9t-10 1t-5 -7v-2 q-8 4 -25.5 6.5t-46.5 2.5q0 -6 -23 -17q0 -27 2 -26q-10 0 -10 -2v-3q-57 0 -82.5 3.5t-33 7.5t-3 11t4.5 17v7h-9q-2 8 -2 231h-6q-4 0 -4 10q0 4 4 17h6v75h-8q-4 0 -4 13q-33 -2 -55.5 -3t-38.5 -6q-18 10 -39 11h-6v10h-39q-6 -10 -23 -10q-16 0 -20 -11v-22q4 4 6 4 l2 -8t2 -12q0 -6 -10 -7v-28h8v-131h-8v-70q2 2 4 2q6 0 6 -12q-4 -10 -10 -10v-80h10q0 -10 1 -16.5t1 -10.5q0 -6 -1 -11t-1 -9h8q4 -8 4 -11q0 -4 -4 -16h-8q-2 -2 -2 -6q0 -2 8 -5t8 -14q-4 0 -6 1t-4 1t-3 -1l-1 -1v-12q0 -4 -8 -4v-14h8q2 -8 2 -19q0 -14 -2 -20h-8 v-10h8v-19h10q-4 -31 -7 -61.5t-3 -59.5v-26t2 -27h-10v-20h8q4 -8 4 -21q0 -12 -2 -18h-10q10 -35 10 -56v-10h8q4 -4 4 -8t-4 -17h-8v-75h8q6 -4 6 -17h3q2 0 8 -7t10 -7q29 0 47 2t30.5 4t24 4t25.5 2q29 0 63 -10q-2 8 -2 16q0 6 2 9h9q0 31 4 39h4q0 25 13 34t24 9 q43 0 56 -12.5t13 -22.5h8q0 -6 5.5 -10.5t7.5 -10.5l59 -4v-8q10 0 10 4q0 6 17 6q8 0 16 -2l2 -22h8v-21l8 3q7 3 11 3q2 -2 2 -6v-4q27 0 31 4q23 -4 40 -5t29 -3v-8h39v8q12 2 24.5 3t22.5 1q12 0 23.5 -1t23.5 -3v-8h17v8q12 4 20 4q2 0 15 -4v-8h18v8q23 4 61.5 7 t85.5 3h5q0 27 16 37t36.5 13t41 2t28.5 -1q-2 2 -2 9q0 6 8.5 12t19.5 11t22.5 8t17.5 3v-8h14q21 15 35 17zM1102 213h-8q-2 -12 -3 -20.5t-1 -14.5h-5q-10 0 -25.5 -2t-37.5 -6v8q-29 0 -39 -16l-4 -43q-4 0 -7 3t-5 3q-12 0 -46 -1t-74 -3t-77 -5t-55 -7q-4 6 -13.5 8 t-17.5 3t-14 1h-6l-60 6v20q0 6 -17.5 12.5t-39 9.5t-39.5 5l-19 2v17h-8v14q-12 4 -30 4v8q-55 0 -80 17q0 37 -1 64.5t-3 45.5h-11v39h9l6 94q72 10 108 25v2q0 4 6.5 9t6.5 11q0 2 -3 2v2q16 16 33 25q14 -2 26.5 -9t26.5 -7q12 0 17.5 6t6.5 14t3 14.5t10 6.5h31v10 q23 4 40 7t34 3q18 0 26 -2l140 -8q0 -8 4 -8h10q2 0 2 4q0 2 -2 4q10 4 18.5 6t16.5 4q8 -8 18 -8h6q0 -14 5 -19h8v-2t-2 -8v-2q0 -4 18.5 -9t40 -9t38.5 -7l17 -4v-8q0 -6 4 -10h2q0 -35 1.5 -60.5t3.5 -41.5h10v-88h-8q-4 -6 -4 -17q0 -10 6 -10t6 -8q-10 0 -11 -4 t-6 -9q0 -4 9 -4q8 0 8 -6v-2q-14 0 -15 -10q0 -10 7 -10l8 4v-35z" />
<glyph unicode="c" d="M1321 188v93h-18q2 -2 2 -5q0 -2 -11 -6q-2 4 -2 6v3v2q-2 0 -3 1t-3 1t-4 -1t-6 -1q-4 4 -14.5 6t-20.5 2q-16 0 -48 -5t-48 -5q-20 0 -29 2v4q-2 4 -6 4t-4 -4t-4 -4h-2q0 -14 -10 -25h4q4 -16 4 -25q0 -18 -14.5 -27t-34 -13.5t-40 -8.5t-34.5 -12q0 -18 -4 -26.5 t-10.5 -11.5t-12.5 -3h-8q-6 0 -9 3t-26 3q-12 0 -18 -6q-39 0 -65.5 1t-41.5 1h-4q-6 0 -16 -2t-27 -10h-4q-23 0 -55.5 6t-46.5 6q-16 0 -17 -4q-12 0 -49 4t-63 4q-8 0 -14.5 -1t-10.5 -1v19h-6v26h6v55q-4 2 -18 3q-10 0 -32 -6.5t-34 -6.5q-27 0 -32 22.5t-7 33.5h-8 v26h8q0 12 3 42t7.5 60.5t7.5 54.5l3 25q2 2 16 8.5t30.5 13.5t33 12t22.5 5v17q0 14 4 22l8 37q8 0 9 2v2q8 4 10 4q6 0 16 -4t12 -4v2q0 4 7 4q6 0 6 8q25 -4 42 -8t29 -6q16 0 23.5 1t11.5 3l6 3t9 1q8 0 14 -8q12 0 32.5 1t44 2t44 2t33.5 1v-6q43 4 58 9t30 5 q2 -2 2 -8v-4q25 6 45 6q12 0 18 -2v-4q61 0 70 4h6q10 0 14 -4q0 -2 -2 -2v-4q0 -16 7.5 -36.5t7.5 -31.5v-2q14 -10 22 -18t12 -8q6 0 12.5 5t8.5 5q4 -4 4 -8q41 10 84 10h22q12 0 27 -2q4 4 10 4h6v8q2 0 4 -1l1 -1q4 0 6 9.5t6 9.5t6 -2v36h-10v29h10v10h-125v50 q-4 12 -16 12h-19q-16 0 -16 2v8h-27v-8h-33q0 10 -4 10q-2 0 -4 -2v25q-10 4 -15 7t-13.5 5t-21.5 3t-36 1v10h-24v-10q-10 -2 -19.5 -3t-19.5 -1t-19.5 1t-19.5 3v8q-8 -10 -14.5 -11t-18.5 -1h-14q-6 0 -13 4v8q-35 -8 -47 -16q4 0 -22.5 6t-97.5 6q-27 0 -52.5 -4 t-44.5 -8h-4q-10 0 -26.5 5t-26.5 5q-4 0 -7 -1t-7 -3q2 -2 2 -4t-11 -2q0 -27 -11 -29t-19 -6v-8q-16 -2 -31 -2h-25h-16q-4 -6 -14.5 -10.5t-10.5 -8.5v-2h2q0 -2 7.5 -3t7.5 -9q0 -14 -23 -14h-4q-16 0 -16 -13q-12 0 -13 9l-28 2q2 -2 2 -4q0 -6 -12 -7q-4 0 -5 11 q0 -8 -15 -9.5t-23 -9.5v-16h10q2 -2 2 -12q0 -8 -2 -15h-10v-33q-35 -10 -80 -10v-6q-18 -2 -29 -10v-268q6 -2 8 -9h35v-8l51 -4q0 -6 14.5 -13t14.5 -18q0 -4 -4 -16h-8v-27h8q6 -4 6 -14q2 2 4 2q4 0 4 -12h31v-8q6 0 7 5t5 5t12.5 -1t8.5 -5q0 -2 -2 -2v-2q27 0 30 -5 h2q4 0 12.5 -10t8.5 -20q2 2 4 2q4 0 19.5 -9.5t27.5 -9.5v-8h51l-4 -8q0 -2 6 -3t6 -11v-2q20 0 31 -13q33 0 40 5.5t17 5.5q12 0 13 -11q10 0 14 1l4 1q23 0 39.5 -1t26.5 -5v-8h59q6 8 29.5 10t30.5 6q25 -4 44 -5t31 -3v-8h25v8q8 2 14 3t15 1q10 0 26 -4v-8h39l4 10 q16 0 41 5t35 5q12 0 20 -4v7q0 16 20.5 22t29.5 6l4 8q23 12 39 19.5t32 7.5v76h23q-6 2 -6 6l8 2t12 2q6 0 6 -6l29 -4v10q4 0 5 1t5 1l2 -1q2 -1 4 -1q0 16 23 16z" />
<glyph unicode="d" d="M1323 12v682h-10q-4 6 -4 19q0 10 4 16h8v27q-2 -2 -6 -2q-6 0 -6 10q0 14 12 14v29h-8q-6 37 -6 102l-4 -4q-4 0 -5.5 4t-1.5 6l2 5q2 6 5.5 13l6.5 13l3 6l8 2q0 2 -2 2t-3 -1t-3 -1q-6 14 -6 39q-2 0 -2 -2h-2q-8 0 -22.5 6.5t-25.5 6.5q-6 0 -8 -3v7 q-82 -2 -117.5 -8.5t-44.5 -6.5v-35h9q4 -12 4 -38q0 -25 10 -54v-4q0 -6 -8 -6l-6 -37l-9 -2v-6q0 -2 7.5 -3t7.5 -11t-6 -11q-4 0 -9 2v-8q0 -14 7.5 -34.5t7.5 -30.5v-2q2 4 4 4q4 -2 5 -11l1 -8q0 -4 -10 -4l4 -35q4 0 4 -6q0 -16 -6 -21t-17 -5v-17q-47 4 -84.5 5 t-37.5 18q0 6 2 10h-11q-2 10 -3 15.5t-1 9.5q0 -6 -17.5 -8.5t-21.5 -6.5v6h-71q0 12 -2 13q-2 0 -7 -4v30q-47 6 -78.5 10.5t-50.5 4.5q-20 0 -34.5 -8.5t-34.5 -8.5q-8 0 -23.5 2t-34 5.5t-36 5.5t-29.5 2l-23 -19q0 -12 -4 -24h-16v-9q-14 0 -20.5 -2t-9.5 -4t-7 -4 t-12 -2q-6 0 -6 8v4h-4q-6 0 -14.5 -5t-14.5 -5q-4 0 -6 2v-26h8q2 -4 4 -6.5t2 -6.5t-4 -10t-6 -6q-4 0 -6 6q0 4 2 4h-39q-10 -10 -29.5 -9t-21.5 -1q-4 -4 -11 -4q-8 0 -22 8v-29q-27 -6 -39 -16v-8q-8 -4 -27 -4h-14q-6 0 -14 4v8h-17q2 -2 2 -4l-8 -6t-8 -23 q0 -16 8 -40.5t8 -41.5q0 -14 -6 -28h-4q-4 -16 -4 -23q0 -10 7 -36.5t7 -49.5q0 -4 -1 -8t-1 -8q2 6 6 6q2 0 2 -14l-2 -1q-2 -2 -6 -2q0 -27 -4 -34l-4 -15q2 6 6 6l4 -18v-2q0 -2 -7 -3t-7 -17q0 -8 8 -29t8 -37q0 -4 -1 -5t-1 -5q2 2 6 2q2 0 15 -17q6 -6 19.5 -8 t26.5 -3t23.5 -4t10.5 -15q4 0 14 -12.5t16 -14.5q25 0 29 4t8 4q12 0 22.5 -7t19.5 -15t15.5 -15.5t8.5 -7.5h24q14 0 17 -14q35 0 39 6v-4q25 6 55 6q8 0 43 -4t74 -4q23 0 32 2q2 10 17.5 9t21.5 5q4 -8 4 -10h3q6 0 14 7t14 7l2 -1t4 -3v6q8 4 17 4q4 0 8 -1t10 -3v-6 q43 0 60 -10q0 23 18 23v2q0 10 7 14t16.5 5t16.5 2t9 5q6 0 6 -4q2 0 9.5 1t17.5 1t21.5 -1t27.5 -1h25q16 0 28.5 1t22.5 3q0 -6 12 -8t16 -6q0 -6 -2 -8q0 -10 20.5 -16.5t27.5 -14.5h59q6 6 25 6q18 0 24 8q37 -10 70 -10q4 10 12 10zM1096 307h-9q-2 -12 -2 -22v-21 q0 -25 2 -33q-8 0 -22 -5t-25 -5h-4q-2 8 -10 8q-6 0 -17.5 -2t-13.5 -6q-4 0 -7 1t-5 1q-4 0 -5 -1l-1 -1l-4 -51q-4 4 -8 4q-8 0 -23.5 -6t-26.5 -6h-2q-4 4 -30 4q-4 0 -14.5 -6t-14.5 -6l-2 -33q-2 -2 -10 -2q-12 0 -21 2q-16 0 -22 -10q-23 2 -45 2h-45q-47 0 -89 -3.5 t-79 -7.5q-29 12 -38 13.5t-18 27.5h-10v19h-29l-1 2q-1 2 -5 6q-16 -8 -37 -8q-4 16 -19 14t-19 2q0 39 -1.5 66.5t-3.5 44.5h-8v55q12 0 13 12q0 4 -2.5 8.5t-6.5 4.5t-4 -2v147h8q4 25 8.5 27t4.5 4l102 2q2 2 5 11t6 18.5t7.5 16.5t10.5 7h39q10 -4 17 -10t18 -6 q6 0 10 4v4h6q0 -2 4 -10q12 0 12 4q0 2 -4 6q39 4 66.5 6t44.5 2h20q51 0 105 -12q0 -4 -1 -6t-1 -4q0 -12 7 -18.5t15 -10.5t16 -5l9 -1q16 0 47 6q25 -25 31 -25v-16q14 -8 30 -8v-6h39q23 -4 30 -9.5t23 -11.5v-143h9v-23z" />
<glyph unicode="e" d="M1327 139v19h-8q-4 4 -4 12t4 12h8v25q-12 0 -12 8v2q-35 2 -51.5 5t-34.5 3q-10 0 -49 -5t-62 -5h-12q0 -8 -14 -8v-4q0 -12 -11.5 -19.5t-25 -10.5t-26.5 -4t-17 -1q-10 -4 -32 -18.5t-22 -36.5h-90q-57 0 -101 1t-73 3h-8q-10 0 -22 -6v6q-8 0 -9 -4v-2q-31 0 -34 4 q-16 -2 -28.5 -3t-25.5 -1h-14q-25 4 -42 7t-26 3l-4 41h-2h-12l-6 4h2l-7 1t-18 3h-4q-10 0 -14 -8q-4 0 -4 2q0 4 -6 4q-10 0 -19 -6q0 8 -4 9t-8 4t-8 10.5t-4 27.5h-7q-8 2 -8 10q0 6 8 15h7l4 51q16 12 34.5 16t34.5 4h13q8 0 16 -2v8h45v-8q16 0 33.5 -5t36.5 -5 q10 0 32.5 5t34.5 5q16 0 25 -4l2 -4q6 0 13 4t11 4q2 -2 3 -8q14 4 20 6t10 2q10 0 19 -8v4q6 2 14 6h2q8 0 8 -10q29 4 50.5 6t31.5 2h8v8q20 0 29 -8v8q70 -14 127 -14h18q41 2 75 4t57 2v10q16 0 24 10.5t12 24t5.5 25.5t1.5 18q35 10 58 15.5t40 9.5l-2 141h-25 q2 -2 2 -4q0 -6 -14 -6t-14 8v2q-29 4 -43.5 5t-14.5 30v6h-30v8q-100 12 -103 15v28q-4 -2 -10 -2q-4 0 -12.5 6.5t-10.5 6.5l-13 -4q-13 -5 -24 -15q-6 8 -25.5 13.5t-19.5 17.5q0 6 1 10t1 8q0 8 -4 11.5t-8 7.5q-14 -8 -72 -8v8q-8 0 -31.5 -2t-52 -3t-57 -3.5 t-49.5 -2.5h-22q0 -4 -8.5 -7t-8.5 -9q-4 0 -4 8h-10q-39 0 -61.5 2t-45 5.5t-50.5 6.5t-77 3q0 -8 -28 -9q0 -33 -19.5 -33.5t-30.5 -0.5h-10l-4 -9q-10 0 -27.5 -4t-27.5 -4l-4 -35l-39 -16q-4 0 -4 4l-39 4v-8h-29q0 -18 -12 -18l-2 -72q14 0 14 -8q0 -4 -14 -4v-21l8 4 q6 0 6 -14q0 -12 -14 -12l2 -117h8q4 -8 4 -16t-4 -21h-8v-63h8q2 -10 3 -16.5t1 -14.5t-1 -14.5t-3 -14.5h-8q8 -18 11 -33.5t3 -25.5q2 2 6 2q-2 0 4.5 -3t14.5 -7.5t16 -9.5t8 -7l52 -6v-12h8q2 0 2 -17q2 2 4 2q6 0 9 -8t7 -8l51 -2v-8h17v8q4 0 9 1t9 1t8.5 -1t8.5 -1 v-23q18 0 30 -4v-6h41q0 -4 11 -4q10 0 12 -10q41 0 55.5 5t30.5 5q4 -4 4 -6v-4q25 8 68 8h26q47 -4 71 -6l25 -2q2 6 9 6q4 0 7 -3t13 -3q18 0 42 5t30 5t22 -4v-4q6 -2 11.5 -3t11.5 -1q12 0 30.5 6t28.5 6t19 -4v-4q2 -2 4 -2q4 0 6 5t6 5l8 -4v-4q2 0 3 -1t3 -1 q12 0 28.5 4t31.5 4q10 0 14 -2q0 20 21 21q-2 0 -2 4q0 12 15 19t35.5 11t38 5t23.5 1h8q0 33 12.5 43.5t28.5 10.5q6 0 11 -4q0 20 14 20q2 0 7 -2t5 -18h25q0 14 4 26h8zM1092 420q-2 0 -3.5 1t-3.5 1q-10 0 -23 -6t-24 -6q-4 0 -6 2v4q-10 2 -18 3t-17 1q-23 0 -36 -10 v4q0 6 -3 8q-16 0 -20 -6t-25 -6h-12q-23 2 -108.5 3t-239.5 1q0 -4 -12 -4h-11q-2 10 -17 14l-15 4q-4 0 -8.5 -1t-4.5 -3t4 -6l-26 4q-6 2 -10 3t-9 1q-6 0 -14 -4l-18 -4v4q-10 2 -18.5 3t-14.5 1h-10q0 12 -4 16l-5 72q8 2 10.5 13.5t8.5 13.5q23 0 37 -1t24 -3 q2 12 9 12h22q8 16 8 35q45 14 74 18v-4q8 -4 18 -4q12 0 32 4t32 4q10 0 28.5 -7t30.5 -7h2q55 14 86 14q8 0 10.5 -2t4.5 -5t7 -5t19 -2q12 0 30.5 2t37 5t34 5t21.5 2q2 -2 8 -14l7 -13h8q0 -2 -2 -2v-2q0 -14 10 -19t20 -5q14 0 23 4v8h31q4 -10 13 -17t21 -26h7v-29 q-12 0 -13 -12q0 -10 6 -10v0q2 0 7 2v-47z" />
<glyph unicode="f" d="M1321 612v90q-2 -2 -6 -2q-6 0 -6 11q0 2 4 2l-105 -2q2 0 2 -2v0q0 -2 -8 -7q-8 2 -14 9l-182 -4q-6 -4 -21.5 -3t-15.5 -12q0 8 -9 9l-10 1q0 4 4 9l-94 4q0 4 -9 5t-11 1l4 164q8 2 8 4q25 0 28 -3t9 -3q10 0 22.5 4t22.5 4q4 0 5 -1l1 -1v6q0 6 14 6q-2 6 -2 10v11 q0 4 2 4h9q0 8 8 12t18 6t20.5 1t16.5 -1q35 0 48 -9t13 -36v-12q-2 -12 -2 -19v-8h2q0 2 3 2q12 0 18 -24q37 0 53.5 -1t23.5 -2t9 -2.5t10 -1.5q12 0 34 5.5t32 5.5q8 0 20 -4v10q16 4 21 4q-2 2 -2 8v4q2 2 6 2h6v31h-10q-4 4 -4 16q0 10 4 15h10v14h-10v14h-25 q-18 0 -38.5 3.5t-36 10.5t-15.5 21h-8v25h-103v10q-59 -8 -103 -14t-73 -13v9h-57v-43q-16 -4 -26.5 -6.5t-20.5 -2.5q-8 0 -17 5l-4 4q-12 0 -26.5 -5.5t-24.5 -5.5l-4 -49q-23 -4 -31 -6h-6q-10 0 -22 6v-2q0 -4 -11 -8q-4 4 -4 10l-39 -2q0 -6 -6 -8l-4 -186 q-41 -6 -63 -7q-14 0 -19 3v4q-25 4 -62.5 6t-90.5 2q0 -4 -8.5 -7t-8.5 -12q-4 4 -4 9v2q-12 4 -20 4q-14 0 -40 -9.5t-36 -9.5h-2q-25 4 -46.5 6t-37.5 2v7h-18v-7q-4 -4 -21 -4v-90q14 0 17.5 -5t3.5 -19q18 4 24 9t10 5q10 0 21 -14q0 10 35 10q-4 2 -4 6q0 2 12 2 q8 -2 14 -8l51 -4q2 0 13.5 -7.5t21.5 -7.5l2 5q39 2 73 3t62 1q78 0 111 -9v-24h10q2 -2 2 -8v-4q-4 -10 -12 -13h14v-327h6q2 -18 3.5 -64.5t1.5 -122.5q2 -2 19 -4t24 -14h2q8 0 14 5t8 5q4 -8 4 -10h129q0 6 5 13t12 7q2 0 2 -2h2q0 16 1 25.5t3 17.5h8v39l-8 -2 q-2 8 -3 14.5t-1 14.5t1 13t3 13h8q-12 8 -12 19q0 10 4 16h8q-10 6 -11 12.5t-1 16.5q0 16 4 27h6v41h-6q-4 12 -4 34q-2 -2 -6 -2q-6 0 -7 11q0 2 2 2q-2 2 -2 6q0 6 11 6v41h-9l3 141q6 0 7 6t3 6q4 0 8 -4q0 6 -7 8.5t-7 6.5q0 14 11 21t9 7h2q0 12 4 17h70v10 q49 -18 151 -18q12 0 38 2t54.5 3t54 3t38.5 2q0 2 -2 2v0q0 4 24 8v6q13 0 29 8z" />
<glyph unicode="g" d="M1325 -6v108h-6v125h6v86h-8q-4 4 -4 19q0 12 4 20h8q2 4 2 6t2 4q0 2 -4 3h-12v2l1 1t3 5q-2 2 -2 6q0 6 6 6v-2h4v33h-8q-4 2 -4 10q0 10 4 16l8 4q-2 2 -4 3h-2l-2 -3q-4 8 -4 21q0 12 4 16h6v35l-4 -4l-2 2q-2 2 -2 6q0 2 2 4v4q0 4 6 5q-10 31 -10 45q0 8 4 20h-10 q-4 4 -4 12q0 4 4 17h10v30h-8q-16 0 -17 5q0 27 15 26q6 0 10 -2q-10 4 -18.5 6t-16.5 2v23q-29 0 -31 2l-77 4v-4q-4 -4 -13.5 -3t-7.5 -3q-23 2 -39 2q-14 0 -24 2l-5 -29q-16 0 -39.5 -6t-44.5 -6q-10 0 -21 5t-22 5v12h-10q-4 4 -4 17q-33 0 -37 -4q-8 4 -28.5 5 t-22.5 1v6q-2 2 -8 2h-6q-10 10 -23 10q-8 0 -22.5 -6t-26.5 -6h-4q2 -2 2 -4q0 -4 -14 -4v8h-138v8q-2 0 -4 1t-6 1q-18 0 -40.5 -7t-41.5 -7q-4 0 -6 1t-6 1q-2 -2 -19.5 -9t-17.5 -20v-2v-2h2q0 -4 -5 -6t-9 -2h-2q-29 -4 -50.5 -7t-37.5 -3l-15 -4q-49 -6 -82 -6 q-10 0 -17 1t-15 1v-33q-6 0 -11.5 1t-11.5 1q-14 0 -40.5 -6t-43.5 -6h-4q0 -4 -14 -5v-24h10q2 -12 3 -23.5t1 -21.5t-1 -20.5t-3 -20.5h-8v-78h8q4 -20 4 -33q0 -16 -4 -33h-8v-65h8q6 -10 6 -21v0q0 2 2 3l7 -5q8 -6 17 -12t16 -10t7 -2q16 4 27.5 5t19.5 9q4 0 5 -8 q0 -8 4 -8l4 -23h6q8 0 24 -6v-6q23 0 35 -4v-10q41 0 50.5 -1t9.5 -12v-12q4 -8 11 -9t13 -1q8 0 13.5 -2t5.5 -12l1 1q1 1 1 3v4q29 4 55 4h57h45q23 0 45 -2v-10h97v10h114v-8h31q-6 6 -6 8t14 2q14 -4 15 -8l28 -2v8q10 4 18.5 7t12.5 5v-10h10q18 0 21 -2l2 -8q4 2 6 2 t6 2q6 -6 7 -8.5t9 -2.5q16 0 35 5.5t27 5.5t20 -4v-25h9q2 -10 2 -18v-19q0 -37 -18.5 -47t-40 -13t-39 -7.5t-17.5 -26.5v-4q0 -14 -7 -16.5t-11 -2.5v9q-18 4 -33 4q-12 0 -19 2q-10 0 -16 -1l-6 -1q-57 0 -70.5 2t-19.5 2t-19 -8q-6 2 -6 6q-10 -2 -19.5 -3t-19.5 -1 q-12 0 -20 2v2q-23 0 -25 -3t-12 -3t-12 6q-76 0 -116 -1t-48 -3q-16 0 -21 4v16l-8 2q-4 16 -4 25q-2 -2 -4 -2l-2 -2q-6 0 -13.5 8t-11.5 8q-2 0 -22.5 -6t-24.5 -17q0 6 -8 14.5t-17.5 14.5t-16.5 10t-3 4q0 2 4 11q-35 6 -184 6q-14 -8 -29 -8v-47q2 2 4 2t6.5 -8.5 t10.5 -10.5l47 4q0 4 8 4q12 0 29.5 -18t17.5 -33h12q2 -2 2 -4t2 -4l95 -2v-31h10v-43h20q-4 2 -4 6t2 4h6l25 -7t66 -19q20 4 24 8q0 -4 6 -5t6 -9l31 -2v8h43v-8h29v8q86 4 127 5t78 1q29 0 51 -1t39 -3q2 6 12 6v-8q4 0 8 5t8 5q2 0 5 -2l2 27q4 0 10 9t16 9h2v-2 q2 0 2 -2t-1 -3t-1 -3h2q4 0 5 7t3 7q2 -2 7.5 -3t5.5 -5q0 -2 -1 -3t-1 -3h30q-6 2 -6 8q0 4 11 4q2 0 10 -3t15 -7t14 -7l6 -3q33 4 52 7t30 3h8l35 33q20 10 40.5 18t30.5 8q6 0 17 -10q4 10 14 10v25h6zM1090 350q-20 0 -21 -20q-4 0 -15.5 5t-21.5 5q-2 0 -12 -4 t-10 -8l-21 -2v4q-4 0 -5 1t-3 1t-6 -4v-4q0 -2 2 -7l-6 -6t-2 -24q-4 2 -11 2h-4q-8 -2 -8 -10q-14 0 -43 2t-60.5 5t-60 5t-43.5 2q-59 0 -110 -7t-86 -7h-21q-4 6 -43 6l-2 24q-2 8 -18.5 14.5t-36 9.5t-36.5 4t-24 1q0 -2 2 -3l1 -1q0 -4 -5 -4q-2 0 -2 -2q0 29 -1 47 t-3 28h-8v27h8l4 113q8 12 9 20v4q4 0 9 -1t9 -1q39 0 92 19q-2 2 -2 4t9.5 5t20.5 7t20.5 8t11.5 10v-10q92 -6 145 -6h23q2 -2 20 -2q10 0 27.5 1t40.5 3q10 -2 18 -4t16 -2h9v-27q2 2 4 2t5 -4t7 -4v0q2 0 4 2v-12q14 0 14 6q0 4 -2 6l17 2v-10h6q10 0 24.5 -6t24.5 -6h6 q0 -16 8.5 -23.5t17.5 -11.5t17 -4h10q12 0 19 2v-10l51 -4q0 -12 4 -13h6v-28q2 -18 11 -23v-82z" />
<glyph unicode="h" d="M1327 39q0 4 -6 5t-6 5q0 2 4 7t8 7v31h-6q-4 6 -4 19q0 12 4 18h6v39q-2 -2 -4 -2h-2q-6 0 -6 16q0 4 12 4v17h-6q-4 8 -4 14t4 14h6v15h-6q-6 2 -6 10q0 2 4 14h8v27h-8q-2 4 -2 16q0 16 2 23h8q-2 4 -4 16.5t-3 25.5t-4 26.5t-9 19.5h2h6q0 14 4 27l8 2q-2 2 -4 2 t-4 -2q-2 20 -3 44.5t-1 57.5q-8 2 -25.5 3t-37 2t-37 3t-25.5 6v31l-8 4l-27 6q-10 0 -10 -10q-6 0 -6 4l-52 6q0 4 -7 8.5t-9 8.5v33h8v14h-8q-2 6 -2 14q0 6 2 10q-4 2 -14 2q-8 0 -8 5l1 1t1 3h-39v-6q-16 -4 -21 -5q-10 0 -22 5v6l-82 -6l-7 -3.5t-8 -1.5q-8 0 -20 5 l-66 4v-4q-12 -4 -22 -5h-21h-20t-21 5v4q-2 0 -3 1l-1 1q-4 0 -5 -6.5t-5 -6.5q-10 4 -10 11q-39 -6 -55.5 -11.5t-20.5 -11.5t-3 -12t-1 -17q-6 2 -23 2q-10 0 -31.5 -4t-41.5 -4q-10 0 -15 2q2 -14 2 -20v-6h-10q0 -2 -1 -3l-1 -1q0 -4 6 -5.5t6 -5.5v-2q-6 0 -21 -1 t-42 -3h-14q-37 0 -48.5 10.5t-11.5 26.5q0 12 3 26.5t1 12.5h-8v115h6q-10 4 -10 14q0 4 5 12t5 13h-6q-6 45 -6 151q-29 0 -29 8q-66 0 -98.5 -6t-48.5 -6q-6 0 -6 8l-39 4v-59h8q2 -10 3 -22.5t1 -22.5q0 -12 -1 -24.5t-3 -24.5h-8v-21q2 2 4 2q6 0 6 -8q0 -2 -1 -4 t-1 -4h-8v-37h10q4 -12 4 -16t-4 -13h-10v-82h10q4 -20 4 -28q0 -12 -4 -29h-10v-18h10q4 -12 4 -25q0 -10 -4 -22h-8l-2 -13h10q0 -25 -8 -26h8q0 -29 1 -51.5t1 -43.5q0 -20 -1 -37.5t-1 -31.5l8 4q6 0 6 -19h-14v-51q4 2 8 2q6 0 6 -10h-14v-16h10l2 -8q2 -9 2 -13 q-2 -4 -12 -4v-74h8q2 -8 3 -13t1 -11q0 -10 -4 -23h-8v-63h8q4 -25 21 -25q18 0 22 -4v-6h131v6q6 4 22.5 5t20.5 5l-2 134l-10 10h6v295l13 4q0 10 11 17t17 7l2 6q12 0 24.5 1.5t22.5 1.5t18.5 -1.5t14.5 -1.5q0 6 15.5 12.5t21.5 8.5h4q6 0 6 -10h41q18 0 27 8 q-2 4 -2 8v4q2 6 4 6t3 -1t3 -1l6 51q6 2 17.5 11.5t19.5 9.5q4 0 8 -2v8h21h14v-8h39v8h55v-8q12 10 41 10h10q8 0 17 -2l2 -8q4 0 5 6t5 6l10 -4q0 -2 -1 -4t-1 -4h15q10 0 32 2q27 0 37.5 -7t10.5 -30v-8h8q0 -6 1 -12.5t1 -12.5t-1 -9t-1 -7l1 1q1 1 3 1q8 0 8 -10 q4 0 7 1t7 1q23 0 46.5 -6t39.5 -6h4q-2 -4 -3 -7.5t-1 -7.5q0 -6 6.5 -24.5t6.5 -34.5q0 -4 -1 -5t-1 -5h10l4 -41q6 0 10 -11q0 -18 -22 -18v-25q4 0 8 -4q0 -2 -8 -2v-35q2 6 6 7q2 0 2 -17v-4q0 -4 -8 -4v-166h8q4 -16 4 -18q0 -8 -4 -21h-8v-10h10l2 -19q6 0 18 -16 l154 4q20 6 31 6h8q0 12 4 25h6z" />
<glyph unicode="i" d="M946 815v137q-25 14 -35 15l-2 -4q-10 -8 -20 -9q-8 0 -15 13l-18 -4q-94 0 -115 4q-23 0 -24 -9q-6 2 -6 9q-4 -4 -10.5 -5t-6.5 -6l2 -2q-16 4 -73 4q0 -4 -9.5 -7t-11.5 -9v-65h8q4 -12 4 -15q0 -6 -4 -14h-8v-35q2 2 6 2q6 0 13.5 -8t48.5 -8q33 0 91 3t99 3h35 q16 0 31 -2q4 4 10 7zM1081 41v31h-8q-4 2 -4 12t4 16h8q0 55 -10 62v176h10l-2 63h-8q-4 6 -4 19q0 10 4 16h8q0 8 -8 8q-2 41 -2 76v66v55q0 25 2 47q-12 0 -31 6v11q-4 -2 -10 -3q-4 0 -10 8.5t-10 8.5t-7.5 -6t-13.5 -8q-14 0 -14 4q0 2 2 4h-141q2 0 2 -2v0 q0 -2 -11 -6q-4 4 -4 8l-147 -4q-6 -4 -19 -4q-12 0 -16 2v6q-2 2 -4 2t-4 -6.5t-8 -6.5h-2q-4 8 -5 11h-36v-6q-8 -4 -17 -5h-10q-18 0 -27 5v6h-26q-2 -2 -2 -6l-131 -5v-38l1 1t3 1q6 0 6 -7l-1 -1q-1 -1 -1 -3h-8v-43q51 -2 88 -3t65 -5v-6h37q14 12 23 12h22 q31 0 49 -6v-6l154 -4q0 -4 11 -5t20 -9v-25h8q6 -152 6 -229q0 4 2 4q4 -2 4 -6v-9v-4q0 -4 -6 -4l2 -57q8 -8 8 -19q0 -10 -8 -16l-2 -25h2q8 -8 8 -18q0 -8 -8 -16l-2 -23v2q6 0 6 -14q-2 -8 -6 -8l2 -31q8 -6 8 -14t-8 -15l-2 -30q8 0 8 -9l1 1q1 1 3 1t2 -2h4q8 8 17 9 q4 0 14 -4.5t10 -10.5q0 -2 -2 -2v0h133v6q6 0 11.5 6.5t11.5 6.5t8 -2q-2 4 -2 10v4q2 6 4 6t3 -1t3 -1z" />
<glyph unicode="j" d="M1255 844v22q-6 0 -14 8q12 4 14 5v20h-10q-4 10 -5 15.5t-7 9.5q2 2 4 3t4 3v37h-2q0 2 -2 2t-3 -1t-3 -1q-8 0 -8 4t2 6h-21q-14 0 -35.5 -2t-44 -4l-45 -4t-37.5 -2q-10 0 -17 1t-13 1v-9h-35v9l-6 -6q0 -10 -8 -11q-2 6 -11 7l-8 1q0 4 4 9h-14q-4 4 -5 7t-5 3 t-6.5 -6t-6.5 -6l-2 2v-142q6 -2 21 -2q10 0 34.5 5.5t34.5 5.5q20 0 62.5 -8.5t71.5 -8.5q-2 2 -3 6q0 4 11 4q4 -4 4 -10l67 2q0 8 21 8q-1 17 22 17zM1266 66v47h-9v80h9v14h-9v39h9l-2 20h-7v25h7v24q-2 -2 -2 -4v0q-4 0 -5.5 4t-1.5 7q0 12 9 12v76h-7v34h7v17h-7v6 q0 10 -9 9t-9 3q4 4 4 10q0 8 8 9q4 0 6 -2v18h-10q-4 4 -4 16q0 10 4 15h10v45h7v12h-7q-2 23 -2 43v37v23q-29 23 -51 24h-67q2 -2 2 -4q0 -6 -17 -6q-12 0 -12 6q0 2 2 4h-18v-6q-6 -2 -10.5 -3t-10.5 -1q-12 0 -20 4v6h-39q-6 -6 -18.5 -9t-25 -5t-20.5 -2t-6 0 q-8 0 -13 5t-7 5t-6.5 -5t-8.5 -7v-29q6 8 23 8q37 0 61.5 -13t28.5 -50v-39h8q2 -47 3 -83t1 -61h4q6 -4 6 -18h9q4 -12 4 -20t-4 -21h-9l-4 -51h-6v-43q2 4 4 4q6 -4 6 -14v-2q0 -4 -10 -5l6 -18q8 -10 9 -27q0 -14 -9 -24l-4 -49h4q8 -8 9 -19q0 -8 -9 -16h-4 q0 -29 -1 -48.5t-3 -29.5h-8q0 -4 -5 -8t-5 -8v-2q2 0 2 -2q-37 -6 -60 -7h-14q0 -4 -9 -8t-11 -8v-20q-4 0 -9.5 1t-13.5 1q-10 0 -19.5 -1t-21.5 -1h-18q-14 0 -22.5 3t-16.5 3q-2 0 -3 -5.5t-5 -5.5h-2q-4 4 -5 9l-49 -2q0 -4 -4 -5q-2 0 -2 -4v-2q-25 4 -50.5 9.5 t-49.5 5.5q-14 0 -20.5 -5.5t-12.5 -5.5l-4 9q-2 2 -6 2t-5 -6.5t-5 -6.5q-6 10 -20 11l-15 2q-6 20 -10.5 36.5t-4.5 28.5v8q0 6 -7 8.5t-16 3.5t-18 1h-8v2h2q0 4 -6 4t-6 4v2q-20 4 -33.5 5t-23.5 3v27q-10 2 -15 8h15v41q-8 4 -15 10h-28v8h-39v-8q-10 -4 -23 -4h-20 h-23q-10 0 -20 4v8h-25l-2 -8q-10 0 -22.5 -16.5t-12.5 -26.5q0 -6 2 -8h11q2 -10 3 -18.5t1 -12.5h6v-8q0 -4 7 -7t7 -9l51 -4q2 2 4 2q4 0 20.5 -10.5t16.5 -34.5q0 -4 -1 -7.5t-1 -5.5h8q6 -4 7 -16q0 -10 15 -9t21 -10q20 6 29 7h4l19 -4q18 -3 22 -15q0 4 -1 5l-1 1 v-24q2 -4 6 -9.5t4 -9.5t-10 -4v-24q2 0 2 2h2q10 0 19 -17q16 0 37.5 -3t29.5 -13q31 4 56.5 8t46.5 4h12q10 -10 24.5 -13t24.5 -3q8 0 22.5 5t24.5 5q8 0 15 -2v-4q53 16 88 16q45 0 86 -7t69 -9q0 6 33 18v4q0 20 21.5 29.5t44.5 9.5q16 0 24 -2q0 18 29 19q0 23 4 35h8 v32q16 4 20.5 10.5t22.5 6.5q4 0 21 -4v-4q18 18 38 18v25h9zM987 928l-4 4h4v-4zM463 -31v-16h-8v16h8z" />
<glyph unicode="k" d="M1321 20v39q-8 0 -25 9v-5q-12 -4 -20 -4q-10 0 -30.5 7.5t-39.5 7.5l-2 24h6q-8 6 -8 27v12q0 8 2 17q-23 0 -22 -7q-37 10 -66 15.5t-29 27.5v29q-10 0 -10 6l5 7q5 8 10 12q0 2 -7 2l-10 2q0 -2 4 6q-23 6 -27.5 8t-7.5 2q-2 0 -5 -5t-9 -5h-2v8h-63v94 q-66 0 -89.5 10.5t-23.5 12.5v10q-2 2 -6 2v25h6v24q4 10 57 11q0 -4 19 -7l18 -4q0 27 38 49.5t85 22.5q12 0 16 -2q0 16 21 33h10l4 10q12 0 35 5t41 5q10 0 14 -2q-4 8 -4 10q0 10 8.5 12.5t40.5 16.5q10 4 19.5 6t17.5 2q4 0 21 -4q-2 2 -2 8v4q2 6 4 7q4 0 6 -2v34 q-6 0 -13.5 -1t-15.5 -1q-23 0 -58.5 3t-57.5 3q-49 0 -92.5 -11t-65.5 -15q-4 4 -4 8h-6q-16 0 -17.5 -12.5t-5.5 -22.5q-4 2 -8 2q-2 0 -6 2q-2 -2 -2 -8q-31 0 -35 4h2l-9 1q-9 1 -30 3h-8q-18 0 -24.5 -9t-10.5 -28q-2 -6 -16 -6q-12 0 -17 -12l-2 10q-33 0 -50 -6 t-26.5 -15t-11.5 -19.5t-2 -20.5h-59q-4 -4 -17 -4h-8q-4 0 -5 1t-3 1l-8 -10q-8 -11 -19.5 -21t-19.5 -18.5t-8 -3.5q-4 0 -4 6l-70 -2q0 -12 -6 -13h-2q0 -20 -8.5 -26t-19.5 -7t-23.5 -2.5t-20.5 -9.5q-4 4 -4 6l-59 5l-3 43h-8q-2 29 -2 51v39h-6q-4 4 -4 12q0 10 4 16 h6l2 60h8v26q-16 0 -12 4q2 2 12 2v39h-8q-2 35 -3 83t-1 114h-4q-6 18 -6 33v8q-20 0 -21 22q8 6 19 7q4 0 6 -1t6 -1v18q-6 2 -33.5 9t-58.5 7q-16 0 -16 -6q0 -4 -11 -4v8l-73 -4q0 -4 -11 -4l-1 2q-1 2 -1 6l-4 -84q2 4 4 4q4 -4 5 -14v-4q0 4 -5.5 -10.5t-7.5 -18.5h-8 v-157q2 2 6 2t7 -9.5t8 -11.5q-2 0 -4.5 1t-4.5 1t-2 -2v0q0 -8 2 -12q-2 -6 -8 -7t-6 -7q0 -2 8 -5.5t8 -9.5q0 -12 -14 -12v-31l1 1t3 1q10 0 10 -8h-14v-29h8q4 -16 4 -24t-4 -25h-8v-16q2 2 6 2t8 -9t7 -12l-3 -2q-4 0 -4 2l-4 -51h-10l4 -55q8 0 12.5 -9t6.5 -12 q-4 0 -5.5 1.5t-3.5 1.5t-2 -3v0v-10q0 -8 -12 -8v-35l10 2q4 -20 4 -32q0 -14 -4 -35h-8q12 -49 12 -74h4q8 -12 9 -14q0 -6 -9 -15h-4l4 -12q4 -4 5 -27h8v-32q27 0 25.5 -7.5t-1.5 -11.5q0 -8 -2 -12h-8v-23q10 -2 22.5 -4t14.5 -12h31q-4 4 -4 6q0 6 8 6q4 0 7 -4t3 -6 t-2 -2v0h4q4 0 4 2v8l2 2q10 0 16 -6l5 -6l59 4q0 8 6 12t15 11v90h-9q-4 8 -4 22t2 21h11v45h8q0 18 4 31h2q8 0 23.5 5t23.5 5t12 -2l2 8q4 0 16.5 6t18.5 6q4 0 12 -4q0 12 14.5 29.5t43.5 17.5q10 0 14 -2v-10h19v10q25 8 29.5 14.5t4.5 12.5t2 10t21 8h8 q61 0 75.5 -16.5t14.5 -63.5h10v-12q20 0 21 -10v-2q10 2 20 2q12 0 23 2h8q16 0 24.5 -9.5t12.5 -22.5t5 -26.5t1 -19.5q2 2 4 2t6 -8t9 -10l92 -4q0 -10 5 -35t5 -31q0 -10 -2 -14h2q0 2 2 2t18.5 -12.5t28.5 -16.5q23 0 23 4q-2 -2 16 -1t35 -9q0 -4 1 -6t1 -4 q0 -4 -1 -5t-1 -4q25 -14 39 -16q-2 2 -2 4q0 4 12 4q2 0 8 -1t6 -5l25 -2q-2 2 -2 4q0 4 16 4l6 -1q7 -1 7 -5l67 -2v4q6 4 21.5 5t15.5 7zM199 514h-2q0 2 -2 2t-6.5 -1t-4.5 -3l4 -4h-16q-10 16 -20 16l-2 25l30 -2q0 -10 8.5 -17.5t10.5 -15.5z" />
<glyph unicode="l" d="M954 10v88q-14 6 -14 13q0 12 8 12q4 0 6 -2v39h-10q-4 16 -4 24h-6q-4 6 -4 19q0 12 4 18h6v6q0 4 8 9.5t8 11.5q0 4 -8 7t-8 9q0 10 14 10v11h-10q-4 12 -4 20q0 2 4 19h10v14h-10q-2 27 -3 66.5t-1 93.5h-8q-4 4 -4 16q0 8 4 14h8l4 52h8l-11 11t-1 11t4 16h8v41h-8 q-4 10 -4 31v12q0 8 4 17h8v26h-10q-2 4 -2 17q0 12 2 16h10v19h-10q-2 20 -2 49v65q-2 -2 -6 -2t-5 6.5t-1 8.5l2 5t6 5q2 0 2 -2h2v63h-10q-2 4 -2 11q0 6 2 6h-4q-14 0 -37 5t-43 5q-6 0 -21.5 -3t-27.5 -13q-14 6 -19.5 10t-7.5 5t-4 1h-10q-16 0 -41 -5t-29 -5 q-8 0 -13 1t-11 3v4q-39 -2 -69 -3t-50 -1v4q-16 -6 -33.5 -12.5t-17.5 -32.5q0 -6 2 -10h2q0 2 2 2q6 0 16 -19h80q-6 2 -6 6q0 2 4 3t6 1q10 0 10 -18q20 4 25 8q4 -4 4 -8h39t21.5 -3t9.5 -12.5t2 -27.5h4q6 -117 6 -192v-46q4 4 6 5l2 -8q2 -9 2 -13v-2q-2 -2 -4 -2 q-4 0 -6 2v-25l1 1q1 1 3 1q6 0 6 -6q0 -2 -2 -2v-2h-8v-157l10 2q2 -4 2 -13q0 -12 -12 -14h4q8 0 8 -18q0 -6 -6 -7q-4 0 -6 2l2 -352q2 2 4 2l3 -5t3 -9t-10 -4q6 -2 6 -8t3 -12.5t9 -11.5t25 -5q16 0 16 -14q51 4 89 5t65 3q0 18 16 18h4z" />
<glyph unicode="m" d="M1327 29v276h-8q-4 2 -4 4q0 8 4 12.5t6 10.5h-6q-2 4 -3 11t-1 22q-2 -2 -6 -3q-6 0 -6 9q0 2 5 4t7 2q0 10 1 15t3 9h6v31h-6q-4 14 -4 27v26v27q0 12 4 27h6v12h-6q-4 41 -9 72.5t-5 46.5h-95q0 14 -16 14v25l-51 4v8h-82q2 -2 2 -4q0 -4 -8 -8q-6 2 -6 12h-17l2 -2 q0 -10 -14 -10v12l-31 -2v-6q-10 -4 -24 -4h-15q-6 0 -10 4v6h-53v-6q-2 -2 -8 -2h-23q-6 0 -8 -14.5t-2 -18.5q-47 -10 -70 -10h-12v-9q-6 0 -13.5 -1t-13.5 -1l-4 -108h-6q0 -20 -4 -25l-90 -4q0 -6 -10 -6q-4 0 -5 10q-6 -2 -14 -2q-6 0 -6 2l-4 92q-6 14 -6 86 q-8 0 -8 3v0q0 2 2 2l-54 4v8h-20q6 -4 6 -6q0 -6 -14 -6q-4 4 -4 12h-99q2 -2 2 -6q0 -2 -10 -6q-4 4 -4 12h-37v-8q-6 -2 -26 -2q-18 0 -27 -9q-2 4 -2 19q-25 0 -34 -13.5t-13 -13.5h-2q0 -20 -4 -24q-6 0 -7 4v4q-2 0 -4 1t-6 1q-16 0 -35.5 -7t-35.5 -7q-4 0 -5.5 1 t-3.5 1q0 -6 -10 -14.5t-12 -10.5v-16l1 1t3 1q10 0 10 -11h-14v-133h10q4 -8 4 -14q0 -10 -4 -14h-10l2 -236q12 0 12 -6t-12 -6v-64h8q6 -47 6 -135q14 -8 56 -8h12q23 0 36 -6t23 -6q12 0 29.5 7t28.5 7q8 0 14 -2q4 10 12 22.5t8 28.5l11 4h-2q0 2 -3 2q-2 0 -3 -1 t-3 -1q-2 2 -2 8q0 4 6.5 11.5t6.5 11.5l-11 2q-4 8 -4 21q0 12 4 18h11v12h-11q-2 18 -2 37v33v27q0 12 2 22h-6q-4 6 -4 18q0 8 2 13h8v73q-4 -2 -6 -2q-6 0 -6 9q0 14 12 14v39q-4 2 -7 3t-5 3q4 4 8 4l2 109h11l4 47q6 2 32.5 3t77.5 1q0 -4 -1 -7t-1 -7q0 -25 8.5 -57 t8.5 -54v-4q37 0 36 -10l52 -7v-8q4 4 6 4q4 0 4 -4t4 -4l2 -2q0 -10 7 -13t7 -16q0 -8 -8 -8q2 -2 3 -4t5 -4v-242h9q4 -12 4 -18q0 -8 -4 -21h-9l2 -90q2 4 4 4q6 0 7 -10q100 -12 110 -18q6 -2 19.5 12t27.5 14q2 0 3 -1t3 -1v-6h29q4 6 6 16.5t2 22.5v23q0 10 4 14h9 l-4 225q-10 0 -11 13q0 10 15 10v55h8v25q-6 0 -8 5t-2 9q0 6 10 6l4 51q14 6 31 7q12 0 16 -3v11q29 4 37 9t22 7l5 47h8v31q12 4 21 5t16 3q6 0 6 -8l8 8h14t21.5 -3t20.5 -11t9 -25q0 -4 -1 -6t-1 -6q2 0 3 1t4 1q2 0 2 -2v0v-387q12 -4 14 -8q0 -14 -12 -15v-98h8 q-2 2 1 -4t7 -13.5t8 -12.5t4 1v-2l14 -3q13 -3 29.5 -6t36 -6t31.5 -3h14q55 18 60 18v6q2 0 2 -2h2q4 0 5 7.5t5 7.5t6 -2z" />
<glyph unicode="n" d="M1325 35v395h-4q-2 10 -3 18.5t-1 14.5v10q-2 0 -3 1t-3 1t-4 -1t-7 -1q-2 2 -6 10q2 -2 4 -2q4 0 7.5 6.5t5.5 6.5t6 -5v54q-29 0 -31 24h-4q-14 0 -32.5 5.5t-26.5 5.5q-6 0 -19 -5v19h-10q-2 18 -2 29v10v-8q0 16 12 16q-6 10 -16 10q-2 0 -10.5 -5t-22.5 -5 q-10 0 -24.5 11.5t-36.5 17.5q-10 0 -12.5 7t-5.5 14t-10 14.5t-28 7.5v8h-59v-8q-6 -4 -14 -4q-10 0 -15 4v8h-102v8q-47 -8 -82 -8q2 -2 2 -6t-8 -8q-18 0 -19 6l4 8h-122q-20 -8 -31 -53h-21v-7q-8 -4 -20 -4q-16 0 -23 4v7q-10 0 -11 -6.5t-25 -6.5v-71q-12 4 -19 4 q-6 0 -17.5 -4t-22.5 -8.5t-21 -8.5l-9 -4h-6q-8 0 -20 5t-21 5l-2 78l-4 -4q-6 0 -6 8q0 12 10 13v24h-30q4 8 4 12t-4 5q-4 -2 -9 -2q-4 0 -4 4q0 2 6 8h-30v-8q-31 -10 -43 -11q0 4 -5.5 7.5t-5.5 7.5v2q2 0 3 2h-82l-2 -8q-4 0 -8.5 -5.5t-10.5 -5.5v-24h-8v-51h8 q4 -12 4 -19q0 -4 -4 -16h-8v-29h8q2 -14 3 -27.5t1 -25.5q0 -14 -1 -27.5t-3 -25.5h-8v-23h10q2 -4 2 -18t-2 -19h-10v-14h10q2 -10 2 -27q0 -18 -2 -26h-10q-2 -4 -2 -11v-8q0 -10 7 -30.5t7 -38.5q0 -4 -1 -6.5t-1 -6.5h8q-2 0 1 -7t3 -9q0 -8 -8 -8l-4 -76h8 q4 -10 4 -21v-18v-18q0 -6 -2 -17h-10q2 -2 7 -1t5 -9q-2 -2 -6 -2q-6 0 -6 2v-27h23h8q-2 -2 -2 -6q0 -2 6 -2t6 -10l150 2q0 16 30 16v88q-10 0 -10 7q0 8 8 8v84q-6 2 -6 4v2q2 4 3 5l1 1q2 0 2 -2v0q0 31 6 41h9q0 8 -2 8t-7 -4q-4 12 -4 23v22v16q0 10 2 21h11v12h-11 q-2 8 -3 14.5t-1 14.5t1 13t3 14h11q0 23 8 34t16 15t14.5 3t2.5 -1q8 0 18 -8q16 16 31 16q6 0 10 -4v10l2 -2q4 0 5 8t7 8q2 0 4 -1t5 -1v17l100 2q0 25 30.5 35t51.5 10h8v10q4 4 23 4l20 21q18 18 94 18v-10q27 6 50.5 9t33.5 3q14 0 17 -10q14 4 23 5t15 3 q4 -12 28 -23.5t28 -27.5q8 0 22.5 -1t27.5 -5t22.5 -13.5t9.5 -23.5v-43q2 6 6 6l1 -1t1 -3v-12q0 -4 -8 -7v-114h8v-29h-8v-108h10v-37h-10v-74l10 2q0 -12 1 -22.5t1 -20.5t-1 -19.5t-1 -13.5l1 1q1 1 3 1q4 0 6 -4t2 -8q20 4 32.5 8t23.5 4q4 -4 4 -8l98 -4v10q0 6 43 6 q-2 4 -2 13v4q2 4 4 4v0q2 0 4 -2z" />
<glyph unicode="o" d="M1321 184v131q-6 0 -10 2l-2 2l3 5q3 4 9 4v30h-8q-4 10 -4 19v20q0 27 4 37h8v25h-8q-4 10 -4 18v21v16q0 8 2 18h10q-2 2 -4 3q-2 0 -6 2v16q-6 2 -49 2h-13q-31 0 -46 13.5t-15 27.5h-66v8h-24q-16 0 -20.5 6t-4.5 21h-4q-6 6 -6 16v4q-41 14 -111 25v20h-8 q-4 16 -4 19h-59v-10q-6 -4 -15 -5h-12q-16 0 -25 5v10q-8 0 -8 -4v-6q-10 -4 -22 -5h-21h-22q-10 0 -21 5v10h-37v-10q-16 -4 -28 -5h-25h-24t-25 5v8h-21v-8q-4 -4 -8 -5q-4 0 -13 6l-9 7q2 -2 2 -6q0 -2 -10 -7q-6 8 -7 13h-36q-6 -18 -24.5 -29.5t-40 -18t-41 -8.5 t-26.5 -4v-22q2 2 5 2q4 0 4 -15q0 -10 -15 -10q-16 0 -24 2q0 -6 -8 -6q-6 0 -7 -4q0 -4 2 -6q-23 0 -28 -10q0 8 -8.5 9t-8.5 3q0 4 2 6h-24l-4 -43q-33 -4 -59.5 -7t-45.5 -3h-14v-166q10 -4 10 -21v-18t-2 -14h-8v-150h10v-26q27 -4 49.5 -6.5t38.5 -2.5h13q0 -8 11 -11 t11 -32q8 4 17 4q47 0 66.5 -16t19.5 -20h8q0 -4 1 -6.5t1 -4.5q0 -4 -1 -5t-1 -3q29 0 50 -1t36 -3q8 0 17 -16.5t22 -20.5q14 2 20 2h8v-10h226v10h51v-8h80v8h35v-8h16v8h31q4 23 15 31t28 14h4q8 0 8 -8q0 -6 4 -6q8 0 21.5 7t23.5 7q2 0 3 -1t3 -1q20 39 31.5 45 t36.5 6q10 0 31 -4v-4q4 0 11 7.5t14 15.5t12.5 15t2.5 5q6 0 13 -2h12v11q6 0 27.5 8t38.5 8h8q-2 4 -2 10v4q4 4 6 4h4zM1094 285h-9l-2 -111q-8 -2 -8 -10h-16q-10 0 -33 2q-23 0 -39 -4t-16 -25v-6q-2 0 -3 1t-5 1q-14 0 -29.5 -5t-22.5 -5v-8h-139v8h-72v-10h-61 q-16 0 -33 -9q-10 10 -18 11q-8 0 -21 -13q0 6 -4 11q-12 -2 -24 -11q0 10 -9 11q-6 0 -6 2q0 4 2 6h-28q-23 0 -25 12v23q-35 8 -63 8h-15q-6 0 -10 -2q0 10 -23 10v10q0 10 -4 15h-4q0 2 -1 3t-1 3q0 8 4 14t4 10q0 2 -2 2v2l-4 48q8 0 8 2q-4 10 -8 10l-2 217h6 q4 12 4 20v7q20 8 25 8l4 8h39q0 -8 6 -8q16 12 25.5 23.5t15.5 20.5t11.5 14t15.5 5q8 0 20 -4v-8q14 0 15 6q0 2 -2 2h77q0 -4 1 -6l1 -2q12 0 13 6q0 2 -2 2h88v-8q10 -2 20 -3t23 -1q10 0 21.5 1t21.5 3v8h80q0 -6 12 -6h2q4 0 5 4t5 4t4 -2v-6q6 -2 19 -2q10 0 12 2 q8 -10 19.5 -19.5t23.5 -19.5l51 -4v-10h29q10 -10 14 -25h8q0 -4 -1 -7t-1 -7q0 -8 5.5 -25.5t5.5 -27.5v-5q-4 -4 -8 -9l-3 -5q0 -8 4 -8t7 2v-23h-9v-36h9v-23q-8 -6 -9 -14v-6t5 -5l4 5v-39z" />
<glyph unicode="p" d="M1331 350h-10v213q-14 0 -14 6q0 2 2 2h-17q-23 0 -44 4.5t-38 4.5l-4 24q-2 -2 -4 -2q-4 0 -4 2v4q0 4 2 6h-31q-51 0 -67.5 6.5t-16.5 26.5h-6q-4 4 -4 25h-94q-20 16 -33.5 24.5t-24 12.5t-20.5 5t-22 1h-11v8h-28v-8h-125v6q-4 0 -5 1t-5 1q-16 0 -36 -6t-28 -6 t-20 4v6h-33v-6q-27 0 -33 6v-6q-27 -10 -51 -10h-8q2 -6 2 -15q0 -8 -16.5 -15t-30 -10t-15.5 -3h-2q-2 0 -2 4v4q-4 0 -6 1t-6 1q-16 0 -34.5 -6.5t-25.5 -6.5q-14 0 -22 7q4 4 12 4v26h-8q-2 6 -1 7.5t0 2.5t-7 3t-23 12v-8q-8 -2 -14 -3t-12 -1q-12 0 -29 4v8h-18v-8 h-109l-4 -54h-10q0 -4 7 -7t7 -15q0 -4 -4 -8h-10q8 -31 10 -56.5t12 -33.5q0 -6 -2 -7q-2 0 -3 1.5t-3 1.5l4 -99q8 -12 8 -14q0 -8 -8 -16l-4 -72q6 -2 10 -12q-4 -10 -10 -11l6 -368q8 -8 8 -17q0 -10 -8 -18l-4 -21q12 -8 17 -20q43 0 61 5t27 5q10 0 14 -10 q31 2 52.5 3t37.5 5q0 18 20 25q0 10 -4 10q-2 0 -4 -2q-2 12 -2 24v21h10v76q-10 0 -10 2v2q2 6 4 6t3 -1t3 -1l5 41h8v26q8 6 26 11q4 0 5 -6v-5q25 4 37 8.5t20 4.5t14 -7.5t12.5 -16.5t17.5 -18t30 -12v9h114v-9q23 0 37 -5t19 -5q4 0 11 5t11 5q4 -4 4 -8q16 4 32.5 6 t29.5 2q20 0 31.5 -6t21.5 -6q4 0 21.5 7.5t35.5 7.5q4 0 5 -1.5t5 -1.5v11q4 4 26 3t26 3q0 6 -2 16v4q0 14 19.5 20.5t31.5 6.5t31 -6v-6q2 2 19 1t19 9l5 35q37 16 38 16l5 -10q10 2 18 3t18 1q27 0 54 -10h4q8 0 36.5 1t59.5 32l-2 145h10v12zM1106 311h-8v-18t-3 -35.5 t-10 -21.5q-18 0 -18 -3v-8q-10 0 -30.5 2t-30.5 2q-12 -4 -21.5 -7t-9.5 -32q-33 -8 -37 -16v4q0 8 -10 8q-8 0 -8 -6q0 -2 4 -6q-4 0 -17.5 -2t-30 -3t-35 -3t-32.5 -2q-55 0 -102.5 5t-85.5 5q-12 -8 -23.5 -11t-17.5 -5q-25 14 -52 14h-51l-2 47l-100 4q0 14 -2 15 q-4 0 -6 -7q0 29 -7 45h-8v70q12 0 13 6q0 8 -13 8v37q12 0 13 9q0 10 -6.5 11t-6.5 5l8 2q2 4 2 18q0 12 -2 19h-8v18h-8l-4 8q0 4 7 8.5t7 8.5t-2 6h8q0 27 15 49l14 -2q0 -6 14 -6t15 4v0q0 2 -2 4l59 2v25l11 6q12 6 12 10h80v8l38 2q0 -10 2 -10q12 0 13 6q0 2 -2 4h8 q20 0 51 9q-2 -2 21 -19q14 0 14 8l104 2v-10q6 0 12.5 -1t12.5 -1q10 0 33.5 9t36.5 9q25 0 36 -6t15 -12t3 -10t-1 0q0 -4 -1 -6t-1 -6q0 -8 6 -9q4 0 8 2q6 -6 29 -6t59 6q-2 -2 -2 -4q0 -4 12 -4q0 -25 2 -35h9v-14q-10 0 -11 -10q0 -12 5 -12q4 0 6 2q2 -55 2 -99v-71 h8v-13z" />
<glyph unicode="q" d="M1321 -150l-2 39q-6 2 -12 9q4 4 12 4v63h-8q-4 4 -4 19h-11v24h11v96h12v31h-12q-2 2 -2 4l14 4v146h-12q-2 2 -2 4l14 4v12h-10q-2 14 -3 27.5t-1 28.5q0 12 1 24t3 27h10q-14 35 -14 57v8q-6 2 -11 6q10 10 11.5 19.5t3.5 19.5h8q0 8 -2 9q-2 0 -6 -5q-4 4 -4 15 q0 10 4 16h8v12h-8q-2 10 -3 30t-1 48h-11v33q-20 0 -20 6l-70 2v-8h-6t-16 2h-6q-8 0 -13 -10v8q-18 0 -24 -1t-8.5 -3t-3.5 -3t-7 -1q-12 0 -20 4t-10 4q0 -4 -9.5 -8t-9.5 -14v-5q0 -4 -1 -6t-11 -4t-33 -2h-65l-3 29l-30 12l-10 4l2 -6q-29 -4 -41 -6q-14 0 -36 1t-44 1 q-23 0 -43.5 1t-34.5 1v8h-25v-8q-16 -4 -20 -4q-8 0 -25 4v8q-29 -12 -70.5 -14t-80.5 -2v-27q-16 -8 -51 -8v-8h-41v8h-19q2 -2 2 -4q0 -4 -14 -4v-43q-8 0 -8 -2v-2q-16 -4 -19 -4q-10 0 -16 6t-21 6q-12 0 -35.5 -6t-35.5 -6t-19 2v6q-14 0 -35.5 -5t-31.5 -5v-5 q-16 0 -21.5 -14t-5.5 -18q0 -14 9 -37t9 -35q0 -6 -1 -11t-3 -12h-8v-51l4 4q4 0 4 -12q-4 -12 -8 -14v-29h8q4 -10 4 -20v-21v-18t-2 -17h-10v-24q4 4 6 4l3 -5t3 -16q0 -6 -12 -8v-80h10v-10q20 -4 21 -12l80 -2q0 -6 12 -6t18 -7q45 12 72 13q0 -4 15.5 -10.5 t15.5 -20.5l4 -2q4 0 16.5 -2t12.5 -14h18v8q31 0 49 -19q2 2 4 2q4 0 6.5 -6t4.5 -10q2 -6 18 -8t18 -17l175 2v2q0 4 5 5.5t5 5.5q61 0 123 -13v5q0 4 10 4q4 -4 4 -9h66q8 14 51 15v8q0 8 5 17.5t15 9.5l2 16l35 -2q0 -4 3 -7t3 -7h31q0 -4 9 -7.5t9 -7.5q2 -23 3 -75 t1 -138v2h2q12 0 19 -18h27q4 10 12 10l12 -10h60q-4 4 -5 6q0 4 15 4q10 -10 10 -8l39 -2v6q-2 -2 4 1t13 7t15.5 8t12.5 4zM1079 219h-4q-4 0 -6 -2v-4q0 -6 2 -10q-16 -6 -33.5 -11.5t-33 -11.5t-25.5 -14t-10 -23q-16 2 -31 2h-29q-37 0 -64.5 -4t-45.5 -10 q-33 8 -51.5 12t-32.5 4q-10 0 -29.5 -7t-36.5 -7h-4q0 12 -6 12h-2q-16 -6 -34.5 -9t-29.5 -3v4q0 6 -2 8q-4 0 -11 -2l-7 -2v9l-59 4q0 14 -11.5 19t-21.5 5q-18 0 -27 -12q-4 27 -30.5 28t-41.5 1h-14h2q4 0 5 8t7 8q4 0 7 -2q0 10 -4 10h-5l5 17q2 10 3 21t1 22 q0 10 -1 20t-3 20l-5 52l13 133q16 16 25.5 14t13.5 6l16 4q0 -18 8 -18q6 0 20 7l13 7v2q0 8 10 15.5t21 7.5q-2 14 -8 14h40q27 2 35 8v-4q10 -2 18.5 -3t18.5 -1q23 0 64 5t63 5q84 0 156 -14q0 6 28 6q0 -8 7 -10q8 2 8 8l39 2v-6q0 -25 19.5 -28t35.5 -17q4 -2 6 4t6 6 q12 0 20.5 -9t13.5 -19.5t6 -18.5t-1 -6l4 -14v0q0 2 -2 2t-8 -6q0 -2 10 -2v-232z" />
<glyph unicode="r" d="M1323 500q0 10 -14.5 16t-14.5 12l-51 7q-14 6 -20 10t-10.5 9t-12.5 12t-29 22q-14 -4 -26 -6t-27 -2q-14 0 -35 4v20h-10q-2 4 -9 15.5t-7 7.5q0 2 2 4q-49 0 -64.5 -4t-19.5 -4t-9 4t-8 4v16h-8q-8 31 -15 34t-7 5l1 1t1 3h-31v-8q-4 0 -5 1t-5 1q-20 0 -49 -8t-45 -8 l-2 2q0 4 -4.5 5t-4.5 5l-47 2q0 -23 -12 -35v-4q0 -4 -10 -5l-10 -1v-6q-31 0 -31 -6q-6 0 -23.5 3t-32.5 3h-4q0 -16 -1 -26.5t-3 -18.5q-2 2 -10 2q-12 0 -28.5 -5t-20.5 -5v-5q-12 -6 -23 -6q-12 0 -20 6l-16 5l-5 -35h-6v-2q-61 0 -87.5 2t-36 10t-6.5 25.5t3 50.5h-8 l-4 4q0 4 6 11t6 11h-2q-6 0 -6 7q-55 10 -145 18v8q-8 0 -29.5 -5t-34.5 -5h-4q0 -18 -4 -19l-1 1q-1 2 -3 2l4 -64q4 -12 4 -16q0 -8 -4 -13h-4q8 -8 8 -26q0 -12 -4 -33l-4 -25q6 -2 8 -10q-2 -8 -8 -10v-80q0 2 2 2q6 -2 5 -8t3 -10q0 -2 -10 -2l4 -17q4 -29 4 -55v-55 v-47q0 -23 -2 -46h-6v-16h6q4 -4 4 -31q2 2 4 2q6 0 6 -22v-2q-2 -2 -4 -2q-4 0 -6 2v-41l1 1q1 1 3 1q6 0 6 -8l-10 -4v-29h8q2 0 2 -21q8 -4 25 -4q18 0 37.5 -1t38 -2t30.5 -7q14 18 31 19q4 0 12 -5v9q12 4 22.5 3t18.5 25h9v15h-9q-4 6 -4 14q0 6 4 10h9v19h-9 q-4 10 -4 18v21v20t4 21h9v65h-9v135h9v49q6 0 6 5v10q4 4 6 4h2q6 0 6 -4l19 -4v8q2 2 22 2q23 0 27 6q6 -4 6 -8l2 -2q4 0 4 6t4 6l1 -1q1 -1 3 -1q0 29 17.5 36t33.5 7q6 0 23 -4v-4q10 2 18.5 3t12.5 5v6q6 0 13 10.5t15 10.5q-2 2 -2 6q0 8 10.5 11t24.5 5t27 2h18 l17 4q0 6 20 6q-2 2 -2 7q0 14 24.5 24t47.5 12q-4 0 -7 -1l-4 -1h80q-4 4 -4 7q0 2 4 4t6 2q10 0 11 -8q0 -2 -1 -4l-1 -1h51q-6 2 -6 7q0 4 4 5t6 1q14 0 22.5 -6.5t11.5 -14.5t3 -16v-8v-9q8 0 8 -8q47 -10 59 -15l11 -5q4 0 12 5l8 5q0 -4 19.5 -13t19.5 -26 q0 -8 -8 -16h-6l6 -10q4 -4 4 -19h6q16 0 41 -3t33 -3v-10q4 2 12 2q14 0 24.5 -18.5t14.5 -18.5q10 0 24.5 6t28.5 6q2 0 3 -1t3 -1q-2 2 -2 6l3 2q3 2 5 2t3 -2h2q0 16 1 25.5t3 17.5h8v60h6z" />
<glyph unicode="s" d="M1327 111v184q-10 8 -18.5 12t-12.5 8h-6q-14 0 -36.5 -2t-57.5 -6h-14h-33q-16 0 -31.5 4t-27 14.5t-11.5 28.5q-14 0 -22 1t-17 3l2 9q-4 0 -9 1t-9 1q-10 0 -29.5 -8.5t-33.5 -8.5q-2 0 -4.5 1t-4.5 1q0 -4 -6 -6t-6 -8q-16 4 -28.5 7t-24.5 3q-14 0 -21 -2q0 6 -3 8 t-7 5.5t-7 8.5t-3 21h-8v27h-39v-10q-20 -2 -40 -3.5t-40 -1.5t-40 1.5t-38 3.5v8q-31 0 -37 4t-6 26v9q-2 -2 -6 -2q-2 0 -4 2v4q0 6 2 8q-6 0 -8 -6t-17 -6q-10 0 -16 2v10q-6 0 -6 -6v-4q-8 -2 -23 -2q-16 0 -22 2v10q-61 0 -88 6t-29 6q-4 0 -3 -7t-9 -7t-13 6l-2 115 h11q0 16 4 16q27 0 28 -4q0 -2 -2 -4h8q2 -2 3 -4q0 -2 2 -4q51 0 76.5 2t39 3t21.5 3t26 2q6 0 23.5 -2t39 -4l43 -4t38.5 -2q8 0 14 1t12 1v4q0 6 11 6q4 -4 4 -10q27 0 40 2t19 3t8 3t6 2t17.5 -5t27.5 -5q8 0 13 2q-2 2 -2 4q0 4 12 4q4 -4 4 -8h6q18 0 47 5t43 5 q18 0 34 -7t52 -18v-10h9v-26q2 2 4 2q4 0 6 -5.5t6 -5.5h2q4 -4 4 -34q23 0 32 -5.5t13 -5.5l2 7q2 6 8 6q2 0 2 -2h3v-9q8 0 17 4.5t13 4.5q0 -2 1 -4.5t1 -4.5q23 0 33 5.5t21 5.5q8 0 17 -4.5t17 -6.5q0 2 -2 2v2q0 4 6.5 6.5t6.5 4.5h2q6 0 8 7t6 7v0q2 0 4 -2v82 q-4 -2 -6 -2q2 0 -3 2t-11.5 5t-12.5 6t-8 3q-27 0 -27 -4q-41 10 -55 10v21q-4 0 -8 1t-4 3l4 4q-2 0 -4 -1t-6 -1q-12 0 -26.5 6t-27.5 6q-6 0 -10 -2v8q-29 0 -35 7.5t-6 25.5q-12 0 -12 6q0 2 2 4q-6 -4 -18 -4q-10 0 -24.5 3.5t-25.5 3.5q-4 0 -6 -1.5t-6 -1.5v9 q-20 -4 -34.5 -8.5t-24.5 -6.5q-31 6 -45 6h-11l-4 9q-4 0 -6 -6.5t-12 -6.5q-12 0 -16 4v9h-39v-11q-4 2 -15 2q-16 0 -35.5 -4t-35.5 -4q-6 0 -7.5 1t-5.5 3t-17 3t-42 1q-6 0 -11 -1t-10 -1v11h-26v-11q-16 -4 -27 -4q-10 0 -26 4v9h-31v-9q-10 -4 -19 -4h-18h-18 q-8 0 -17 4v9q-12 -6 -22 -7q-10 0 -19.5 -2t-16.5 -10t-13 -33h-111v-32h-10q0 -14 -4 -19l-76 -2q-2 -2 -12.5 -8t-14.5 -6l-6 -121h-10v-20h10q4 -16 4 -43q2 2 4 2q4 0 9 -10l4 -9h102v-8h39v8h55v-16q10 0 21.5 -16.5t21.5 -18.5h47h33v-6h18v6h11q16 0 37.5 5t31.5 5 q16 0 25.5 -8t9.5 -16l4 -2q12 0 18.5 -10.5t37.5 -32.5q4 0 8 -1.5t8 -1.5q8 0 21.5 7.5t21.5 7.5t10 -2l2 -10q70 14 111 14q31 0 35 -4v-2q4 0 5 7t7 7q4 0 6 -5t2 -7h68v-35q57 -25 116 -25v-16h7l2 -84q-37 -10 -54 -10h-8v-8q-6 -4 -16 -5q-12 0 -17 5v8 q-35 -12 -59 -13q-6 0 -11 1.5t-11 3.5v8q-14 -10 -35 -10h-19q-8 0 -16 2v8h-49v-8q-6 -4 -23 -5q-14 0 -22 5v8h-39v-10h-115v10h-39q2 -2 2 -4q0 -6 -10 -6q-8 2 -12 10h-31v-10q-47 8 -83 11t-60 3l-2 67h-9v37h9q4 8 4 13q0 4 -7 4q-4 -2 -6 -2q-4 0 -4 2v2q0 2 4 6h-6 q-14 0 -47 7t-49 7h-12q2 0 -14.5 -3t-30.5 -3q-10 0 -15 2v4q-8 4 -10 4q-6 0 -18.5 -9t-18.5 -9l2 -146q0 -4 17.5 -5t21.5 -5v-14h14v10q10 2 29 2q16 0 27 -2v-18q2 2 4 2q4 0 5 -2t5 -2h4q4 -12 4 -23q4 2 13 2q8 0 21 -7t24 -7l2 2l10 6t14 6q10 0 12.5 -5t3.5 -12 t3 -12.5t10 -5.5h2q14 0 27 -4v-14q49 0 60 -3t22 -3q16 0 45.5 7t46.5 7q29 0 62.5 -11t49.5 -11q6 0 23.5 4t30.5 4q12 0 16 -2h6q16 0 34.5 3t24.5 3q14 0 29 -10q53 8 81 11l28 3q16 -2 41.5 -3t62.5 -1q0 16 16.5 25.5t38 14.5t43 8t33.5 7q6 10 16.5 23.5t22.5 13.5 q14 0 19 -2v10q12 10 36 10q25 1 29 5z" />
<glyph unicode="t" d="M1321 131v35h-4q-4 20 -4 27v8h-8v-17q-8 -4 -19 -4q-12 0 -16 4q0 2 1 3t1 3q0 4 -6 5q-4 0 -4 4l-82 2q4 -4 4 -6q0 -4 -10 -5q-6 2 -7 11q-4 -4 -8 -4t-11 8t-11 8q-10 -10 -24.5 -16.5t-14.5 -12.5l-11 -2q0 -2 3.5 -7t3.5 -7t-7 -2h-2q-4 0 -6 1t-4 1t-4 -1l-2 -1 v-8q-6 -2 -10 -3t-10 -1q-12 0 -21 4v8h-2q0 2 -2 2q-6 0 -6 -6v-2l2 -2h-2q-6 0 -16.5 -5.5t-18.5 -5.5q-4 0 -6 3v-27q-96 -23 -141 -25q-4 0 -21.5 4t-28.5 4q-10 0 -14 -2v11q-39 4 -51 8v268h-10q-4 8 -4 12t4 17l10 2v113q-2 -2 -6 -3q-8 0 -8 11q8 4 10 4l4 35 q6 8 59 8q-2 2 -2 4q0 6 15 6q0 -2 6 -2t6 -4v-2q41 0 56.5 -6t19.5 -6t11 7t15 7q2 0 2 -2v0v4q20 6 39 6q16 0 39 -6l47 -4v4q6 4 22.5 5t20.5 7l-4 74q-8 0 -12 8l-4 8l-49.5 -3t-25.5 -2t-12 -2t-9 -1q-8 0 -24.5 5t-27.5 5q-4 0 -16 -4v11h-29v-11q-10 -4 -18 -4h-19 h-18q-8 0 -16 4v9q-53 0 -74 6v10h-8q-4 72 -6 213q-20 0 -29 18h-148q-8 -12 -23.5 -11t-19.5 -7v-86h-10v-14h10v-113q-8 0 -8 -8t-6 -8h-20l-5 -11q-12 -4 -18 -4q-8 0 -16 4v11h-29v-11h-72q0 -4 -8 -5t-10 -5h-10q-20 0 -55 5t-56 5h-14q-16 -14 -31 -16l2 -74h2 q0 2 2 2q10 0 12 -10t33 -10q23 0 59.5 5t59.5 5q8 0 15 -1t12 -1l-2 -6q10 -4 10 -6v-2q10 0 10 2v2q55 -4 85 -5t58 -14q-2 -4 -2 -10q0 -4 8.5 -7t8.5 -9h-6q-6 0 -7 -4v-13q-4 -6 -10 -6v-12l8 2q2 -45 2 -82v-64v-43h9q4 -12 4 -16q0 -6 -4 -18h-9v-179l1 1t4 1 q8 0 8 -10h-13v-24q4 0 41 -31h39q4 4 11 4q18 0 26 -9t8 -18q16 -6 26.5 -13t14.5 -11h99q-2 4 -2 8q0 6 12 6q2 -2 2 -14h2q2 0 6 4q-2 2 -2 10l1 1q1 1 3 1q12 0 12 -16h76v10q16 4 23 4q8 0 24 -4v-8h68q-6 6 -6 8q0 4 14 4q12 -6 12 -10v-2q29 0 46.5 -3t21.5 -3 q10 0 15 7t8.5 17.5t7.5 19.5t14 13h80v8q2 0 3 -1l1 -1q4 0 5 9.5t5 9.5t6 -2q-2 2 -2 4q0 12 12.5 17t29 8t30.5 3q16 0 25 4v3q0 6 16 22z" />
<glyph unicode="u" d="M1325 92v101h-4q-2 18 -3 35.5t-1 35.5q0 16 1 34.5t3 39.5h4q2 0 2 6q-10 0 -10 18v31q0 10 1 22.5t3 24.5l2 35h-2q-6 104 -6 174v41q-27 20 -53 21h-5q-10 0 -16 -8.5t-12 -8.5q-10 0 -17 15q-16 0 -16 -4v-3q-16 6 -80 7q-6 -2 -9 -14.5t-13 -12.5l2 -387v0q0 2 2 2 q6 0 6 -8v-4q0 -2 -2 -2q-4 0 -6 2v-15q2 4 6 4q2 0 3 -5l1 -5q0 -18 -13.5 -27.5t-31 -13.5t-33.5 -4h-16h-11q0 -10 -18 -26.5t-33 -16.5v-2q2 0 2 -2q0 -4 -5 -5t-5 -5v-2q-16 6 -82 6q0 -16 -8 -16l-2 -35q-27 0 -40 -5.5t-22 -5.5q-10 0 -20 11v-9q-35 4 -65.5 7.5 t-59.5 3.5h-27q-10 0 -22 -2v8h-37v-8h-45v8q-29 0 -33 4l-2 31q-10 6 -65 6v10q-2 0 -3 1t-3 1q-6 0 -7 -6q0 -4 2 -6q-8 -2 -18 -2q-6 0 -16.5 5t-10.5 15q0 4 2 8h-6q-4 8 -4 17q0 8 4 16h6v23h-6q-4 6 -4 20q0 12 4 17h6v0q2 0 2 2q-2 2 -2 4q0 4 -4 4h-2q-4 2 -4 10 t4 14h6v39q-2 -2 -6 -2q-6 0 -6 15q2 0 4 1t4 1l1 -1t3 -1v88q-2 -2 -4 -2v0q-8 0 -8 16q0 10 6 10q2 0 6 -2v23h-8q-2 4 -2 12q0 12 2 16l8 5h-2q0 2 -2 2l-1 -1t-3 -1q0 25 -1 51t-1 49q0 25 -2 40t-6 15q-2 0 -4 -1t-6 -1q-4 4 -4 8h-90q0 -4 -13.5 -5t-17.5 -3 q2 -2 2 -4q0 -4 -10 -4q-2 6 -8.5 8t-6.5 6l-49 6q-4 2 -6 2t-4 3v-39q2 2 4 2q8 0 8 -19q0 -6 -6 -6q-4 0 -6 2v-74h10q2 -6 2 -18t-2 -18h-10q2 -2 2 -5q2 0 3 1t3 1q4 0 5 -19t1 -30q0 -12 -1 -27.5t-3 -31.5h-8h2q2 0 6 -4q0 -25 -8 -25h8q4 -12 4 -16q0 -8 -4 -12h-8 v-203q2 0 4 2q4 0 9 -7t9 -7l91 -5v-16h6q6 -12 6 -18q2 2 4 2t7 -7.5t9 -7.5q35 0 42 4.5t20 4.5q14 0 26 -7v-28q8 0 24.5 -4t20.5 -7v-10h33q39 0 43 -4t4 -20q2 2 4 2q4 0 8.5 -7.5t8.5 -9.5l59 -2v-8h31v8q14 2 27 2h26h41v-10h88v10q37 12 64 13h10q-2 0 -2 4 q0 10 21.5 20t37.5 10q10 0 29.5 -3t24.5 -3q-4 8 -5 8q0 29 29 34t47 5h21q10 0 22 -2v-10l4 4l4 -6t9 -6v-2q0 -4 6 -7t6 -14v-2q0 -4 -2 -4t-3 1t-3 1v-28q0 -6 7 -8.5t15 -2.5h19q8 0 10 -2v-8h18l-4 8q0 4 13 4q2 -2 2 -12q2 0 3 1t5 1q10 0 22 -6q4 4 13 4h6v8 q10 4 18 5t14 4h15q16 0 33 -5q8 2 11 13.5t5 25t2 23.5v12h2z" />
<glyph unicode="v" d="M1317 528v105h-8q-2 6 -2 16q0 6 2 10q-2 -2 -6 -2q-8 0 -9 15q8 8 15 10v29q-6 0 -31 12v-8q-8 -4 -21 -4q-16 0 -22 4v8l-131 -2q2 -2 2 -4t-10 -6q0 -27 -6 -39h-7v-27h7q4 -14 9 -19t9 -6.5t6 -2.5t2 -5q0 -14 -8 -14q-2 0 -4 2l-8 6q-2 0 -2 -6v-4q2 0 2 -2 q0 -8 -11 -8l-2 -49h-28v-11q-47 0 -74 -16v-172q-8 0 -8 -2v-4q-12 -4 -17 -4q-16 0 -16 10h-2q-14 0 -33.5 -7t-23.5 -9v-52h-9l-6 -92q-23 -12 -41 -12q-35 0 -65.5 5t-46.5 5v10h-15q2 -2 2 -4q0 -6 -12 -6q-12 4 -12 10l-64 4v29q-12 0 -12 2q0 8 8 8q2 0 2 -2h2v84 q-2 -2 -6 -2t-8 11l-4 10l-51 -2q0 -2 -8 -9q-12 6 -25.5 10.5t-15.5 16.5l-2 170q-12 4 -13 4l-61 4v8q-27 0 -38 5.5t-15.5 13.5t-3.5 19.5t1 25.5v22q6 82 7 80q-16 0 -17 4q0 2 2 5l-59 4v8h-131q2 0 2 -6q0 -4 -10 -4q-8 0 -9 -2l-4 -91h-10q0 -2 -1 -4t-1 -6 q0 -18 8 -44.5t8 -43.5v-4q0 2 5 2q4 0 4 -8h28v-10q10 0 11 10h34q0 -4 10.5 -13.5t10.5 -19.5l4 -2q0 -70 12 -145h8q6 -10 7 -17h4q45 0 66.5 -12t27.5 -29.5t4 -35t-2 -27.5v-19h8q2 0 2 -18q47 -20 64 -20v-5q59 0 59 -32q4 2 10 2q4 0 18.5 -9.5t24.5 -9.5h6 q-4 4 -4 6v0q2 0 6 2h5l6 1t15 -4t16.5 -19t7.5 -45h10q0 -2 -2 -2v-2q0 -4 6 -8.5t6 -12.5l2 -2q6 0 7 6.5t3 6.5t7.5 -1.5t5.5 -7.5v-2l-2 -2q8 2 8 8q33 0 51 -16v4q0 6 8 6q4 -8 4 -10h78q16 10 20.5 17.5t20.5 17.5l4 59q8 6 21.5 7t29 2t28.5 2.5t22 5.5 q10 10 22 27.5t47 17.5q14 20 39 20l4 51h10v72q2 8 23 8h8q23 -2 33 -2h10h-4q0 10 10.5 18.5t22.5 8.5q4 0 6 -2l4 151l8 11q8 10 25.5 16t35 10t32 5t18.5 3z" />
<glyph unicode="w" d="M1327 330l-2 256q-12 0 -12 6l12 2v80h-6q-8 18 -23.5 26.5t-32 10.5t-32.5 2h-21v8l-90 -2q0 -10 -7 -14.5t-9 -6.5l-2 -303h-10v-14h10v-43q-33 -6 -53.5 -11t-24.5 -5q-6 0 -27 8q-6 -16 -14 -19l-4 -110q-4 2 -10 -7.5t-17 -9.5l-4 -8q-6 -4 -14 -4h-12q-16 0 -25 4 v8q-27 0 -43 4v13h-6q-2 10 -2 213q-12 0 -12 8q0 10 6 10q4 0 6 -2v19h-8q-4 4 -4 16q-10 -2 -15 -2h-8q2 0 -13.5 5t-15.5 13q-41 -8 -69 -18q-10 2 -24.5 3t-33.5 1h-30q0 -4 -13 -4v-35h9q2 -2 2 -8q0 -12 -2 -17h-9v-24h9q2 -10 3 -29.5t1 -46.5h4q4 -12 4 -39q2 2 4 2 q6 0 6 -16q-4 0 -5 1t-3 1t-2 -2v0v-8q0 -8 -8 -9l-4 -43q-23 0 -31 -8v-8q-8 -4 -25 -4q-16 0 -24 4v8q-31 6 -47 6t-17 31q0 14 4 31h8v18h-10q-2 10 -3 18.5t-1 14.5h-4q-2 6 -2 12v4q-6 -2 -18 -2q-16 0 -42 10.5t-36 10.5h-2q-6 12 -6 86q-4 0 -8.5 1t-4.5 3l13 2v27 h-9q-4 4 -4 14q0 8 4 12h9v11h-9q-2 2 -2 110h-6q-2 10 -3 16.5t-1 10.5h-10q-4 2 -4 14q0 10 4 16h2q6 0 7 5.5t5 5.5q2 0 6 -4v30q-12 0 -12 4q0 2 2 5l-51 4v10h-141q0 -23 -23 -23q2 -94 2 -141v-49h-10v-19h10v-161q2 2 10 2q4 0 11.5 -11.5t13.5 -15.5h59 q0 -8 10.5 -9t10.5 -13v-7h10v-39h-10q0 -2 -2 -2v-2q0 -4 6 -6t6 -6q0 -10 -10 -10q2 -6 10 -8v-31q12 0 10 0t-2 -2l12 -5q11 -5 52 -14l24 -4q14 0 15 -6v-6q0 -16 7 -44t7 -50v-12h2q2 0 15.5 -2.5t13.5 -8.5q0 -2 -1 -3t-1 -3h16q-2 2 -2 6l4 2q4 2 8 2q2 0 2 -2h2 q-4 -4 -4 -6q0 2 5 -2l10 -8h18q0 16 31 16q10 -4 14 -7t14 -3t28.5 6t29.5 6q8 0 14 -2q0 23 4 35h10v51q25 0 29 -4l37 -4v4q23 10 34 11.5t21 1.5q12 0 37 -6.5t37 -6.5v-4q6 0 8 4t6 4q10 0 25 -8v-24h6q6 -10 6 -27h8v-27h41v-6q2 -2 15 -2h12t16 2h11q14 0 30 -8 q23 8 80 8q-4 2 -5 3l-1 1q0 4 4 5t6 1t2 -2h2q-4 8 -4 13q0 6 7.5 13t7.5 13t-2 9h-5q-4 6 -4 18t4 18h5l4 60q16 10 49 9t49 5v10q2 -2 4 -2q4 0 5 8.5t5 8.5q2 0 6 -4l5 82q8 0 8 4t2 9t13 9t44 4q4 20 22.5 22.5t20.5 2.5z" />
<glyph unicode="x" d="M1321 14v82q-23 0 -23 17q-2 0 -4 -1l-2 -1q-16 0 -38.5 9t-28.5 9t-15 -4v80q-14 0 -14 6q0 2 2 4q-18 0 -21 -4t-16 -4q-10 0 -28.5 5t-28.5 5q-12 0 -19 -2v16h-2t-6 2l-2 3l4 4h6v16h-6q-2 8 -2 23q0 14 2 20q-23 6 -44 9t-37.5 7t-26.5 12.5t-10 24.5q0 4 1 7t1 8 h-39q0 4 -7.5 7t-7.5 5q0 -4 13.5 9t29.5 13q8 0 11 -2l6 39q12 20 45 31q8 -2 18 -10l10 -8q6 0 12.5 6t16.5 6q2 0 3 -1t3 -1q-2 2 -2 8v4q2 6 6 6q2 0 3 -1l1 -1q0 59 5 68h77q0 8 10.5 12t18.5 6l4 41h8v35q2 0 3 -1t3 -1q10 0 23.5 7t24.5 7q2 0 3 -1t3 -1l-4 4 q0 2 4 4t6 2l5 -1t5 -3t-1 -3t-1 -3h16l-2 8q2 0 3 -1t4 -1q6 0 7 6.5t3 6.5q4 0 8 -2v28h-10q-2 10 -2 25q0 12 2 18h-2q-12 0 -15.5 9.5t-13.5 9.5q-12 0 -20 -8v6h-89q-2 -4 -15 -6.5t-15 -10.5q-4 4 -4 11l-31 -3v-22q23 0 22 -8v-2q0 -4 -30 -6q-16 -41 -26.5 -46.5 t-39.5 -5.5h-22t-23 2q0 -23 -4 -26h-8v-60q-8 0 -8 -4v-4q-18 -4 -49 -7t-66 -3v-53v-19q-4 2 -12 2q-16 0 -40 -8t-36 -8v-8q-10 -4 -31 -4h-14q-6 0 -12 4v8q-84 0 -111 10v17q-12 0 -12 4q0 2 2 4h10v24h-8l-13 23v4q-14 -2 -22 -2h-8q0 8 -10.5 9t-10.5 7l-43 2 q-12 14 -12 52v16t2 18q-2 0 -6 -1t-8 -1q-41 0 -74 7.5t-33 29.5h-6q-6 0 -6 10q0 6 6 7q2 0 2 -2h4v47q-6 0 -12 1t-14 1q-33 0 -72 -5.5t-47 -5.5q-18 0 -39 5v2q-4 -2 -19.5 -3.5t-19.5 -13.5v-39q2 2 4 2q6 0 6 -12v-2q0 -2 -10 -4l2 -16q2 0 31.5 -15.5t70.5 -15.5 v-21h7q0 -4 1 -7t1 -7t-1 -6t-1 -4h10q4 -12 4 -35h6q14 0 39 -4t35 -4v-8q16 0 22 -10.5t8 -24.5v-33h9q16 -16 29.5 -18.5t29.5 -6.5q6 8 12 9v-9h35l4 -16q4 -4 4 -29q4 4 7 4q-2 -4 7 -8t9 -14l-31 -57h-6q-16 0 -38.5 -5.5t-33.5 -5.5q-10 0 -16 2v-2q0 -4 -6 -6 l-4 -86h-19q2 0 2 -2q0 -6 -14 -6q-2 0 -2 4q0 2 2 4q-10 0 -30.5 -4t-32.5 -4h-5q0 6 -20 -18q0 -23 -1 -39.5t-3 -26.5h-27q-29 -16 -43 -18v-5q-4 -4 -20.5 -3t-20.5 -9v-51h-10v-14q4 -6 18.5 -13.5t30 -12.5t28.5 -9t17 -6q18 4 31.5 6t24.5 2v8q4 0 9 1t9 1t8 -1t8 -1 q0 16 17 16v-2q0 -4 6 -4q8 0 8 -6l2 -2q4 0 5 8t7 8q2 0 3 -1t4 -1v54h8q-2 2 -2 4q0 16 14 18t18 2q8 0 9.5 -5t7.5 -5q10 0 24.5 7t24.5 7l1 -1t3 -1q0 20 6 25l8 59q8 4 15.5 6t17.5 2q6 0 12.5 -1t14.5 -3v9q31 4 38 9t21 9l4 49q6 0 7 11.5t10 11.5q27 6 49 6 q6 0 12 -1t12 -1v-4q20 6 43 6q14 0 21 -2v-4q20 6 39 6q8 0 25.5 -5t25.5 -32v-18q-2 -10 -2 -17v-6q2 2 6 2t8 -7t8 -7l64 -4v-9q2 2 4 2q20 0 26.5 -15t6.5 -50h2q6 0 11 -8t9 -11q20 -4 36 -8t28 -4h8q-2 -4 7 -8l9 -4q14 -29 15 -76h74v-10h24v10h35v-8h59v8 q4 0 11.5 5t15.5 5q2 0 2 -2v0zM158 793l-11 4v-4h11zM1085 545l-12 6l-4 2q2 0 3 -1l1 -1q4 0 5 5t5 5q2 0 2 -2v0v-14z" />
<glyph unicode="y" d="M1317 643v31h-8q-4 6 -4 16q0 8 2 12h10q-2 2 -8 9.5t-6 11.5l-101 6v8h-18q2 -2 2 -6q0 -6 -12 -8q0 4 -1.5 7t-1.5 7h-2q-6 0 -14 -2l-6 6q-8 -4 -55 -4l-4 -98l-109 -4q0 -2 -10 -2v-84l4 4q2 0 6 -12q-10 -10 -11 -22.5t-1 -20.5q-37 -4 -61.5 -6.5t-37.5 -2.5l-2 -8 q-8 0 -12 -4t-6 -4v-18l2 2v2l3 -3t3 -14q0 -4 -8 -4v-35h6q4 -12 4 -14q0 -6 -4 -10h-6q0 -23 -4 -27h-119q-6 -10 -21.5 -7t-17.5 -9q-6 2 -6 8q-29 0 -29 -6l-12 3q-12 3 -39 11v25h-8q-6 31 -6 104q0 -4 -4 -4l-2 2l-2 2v2t2 4q-35 4 -60.5 5.5t-42.5 3.5q0 4 1 5t1 5 q0 18 -7 38.5t-7 26.5q0 4 1 7.5t1 7.5h-2q-10 0 -10 14q6 6 12 6v25h-8q-23 0 -54.5 9t-50.5 9l-2 35h-8q-2 6 -2 21q0 12 2 16h-8q-14 0 -14 10l-29 2v-8q-4 -4 -14 -4q-12 0 -17 4v8h-20v-8q-12 -4 -27 -4q-12 0 -24 4v8h-29v-8q-29 -10 -31 -12v-74q2 2 4 2 q8 0 11.5 -10t13.5 -10q14 0 29.5 8t19.5 8q8 0 13 -7t8.5 -17.5t3.5 -20.5v-17v-12q23 0 22 -22q0 -6 -4 -11l-10 -2q0 -4 5 -5t5 -3q2 -12 3 -23.5t1 -17.5q4 4 6 4v-12h39q0 6 11.5 13.5t19.5 7.5q8 -18 15 -15.5t7 -13.5v-14q0 -18 13 -21q-4 -8 -11 -8v-19h11 q4 -12 4 -16q0 -6 -4 -18h-11q4 -25 7.5 -44.5t3.5 -35.5q12 0 40.5 -5.5t39.5 -5.5v-10q2 2 10 2q6 0 15 -3t9 -23q4 4 6 4q4 0 5 -8q100 0 100 -52h8q4 -12 4 -16t-4 -12h-6q-10 0 -32 -10l-21 -9q2 -2 2 -4q0 -4 -10 -4q-16 0 -17 4l4 4h-22v-8l-11 -123q-6 0 -6 -6v-4 q-41 -2 -97 -3t-126 -1q0 -8 -14 -8v8q-8 0 -29.5 -4t-50.5 -4q-20 0 -31 8v-47q4 -2 6 -4l4 -4q-4 -6 -10 -7l2 -28q2 0 2 2h2q6 0 17 -19h18q-4 4 -4 7l10 4q16 0 17 -7q0 -2 -2 -4h10q16 0 46 -2t75 -6q2 8 8 8q4 -4 4 -8q10 2 27.5 3t44.5 1q23 0 55.5 -1t73.5 -3 q0 8 6 12h4q6 0 10 -2l2 9q8 0 17.5 6t13.5 6q2 0 10 -4v18l-10 -2q-4 4 -4 17q0 12 4 18h10v27q16 4 25.5 5t13.5 1q6 0 10 -6q20 8 35 8h19q10 0 20 -2v49q-2 -2 -6 -2q-8 0 -8 12t8 12q4 0 6 -2v43h6q0 14 9.5 20.5t21.5 9.5t24 3h19h10q4 0 11.5 16.5t17.5 18.5l4 59h68 q8 8 27.5 6t23.5 9v22q0 12 28.5 14.5t51.5 10.5q8 0 12 -2q0 18 22 18v12h-8q-4 10 -4 21v22v21q0 10 4 20h8v46h9q-2 2 -2 6q0 10 10 16t22.5 9t20.5 3q10 0 8 0l2 6q4 0 11 -2t20 -4q-4 2 -4 6t2 5h12v98h8q0 18 15.5 27.5t35 14.5t39 7t25.5 2z" />
<glyph unicode="z" d="M1327 29q0 6 -5 12t-5 18q0 14 2 19h8v31q-27 0 -31 4v4q-8 0 -13 -6.5t-15 -6.5q-12 0 -21 9l-51 4v-4q-16 -12 -37 -13q-29 0 -37 4.5t-10 12.5q-72 4 -120 6t-77 2h-18q-16 -2 -33.5 -4t-34.5 -6q2 0 2 -2v0q0 -2 -5 -4.5t-9 -2.5q-14 0 -14 5q0 2 2 4h-303q2 -2 2 -4 t-10 -7q-23 10 -35 19q-10 0 -18.5 -1t-18.5 -1q-29 0 -43 6v27q2 -2 12 -2q16 0 40 5t40 5h10q-2 0 -2 6q0 12 11.5 20.5t28 14.5t33.5 9t28 3q12 0 20 -2q0 18 6 28.5t13.5 15.5t13.5 5h8q12 0 14 -8l3 1q4 1 8 1t9 -1t13 -1q31 0 39 18.5t16 30.5h5q10 0 23 9.5t22 9.5 q8 0 10 -3l-4 19l-1 5q-1 5 -4 11l-6 12l-2 5q12 27 25 26q4 0 10 -1t17 -3h-2v2q10 4 10 8h8q23 0 27 -8q14 0 42.5 3t43.5 32q4 18 27.5 19.5t35.5 1.5t21.5 -1t19.5 -1q6 16 13.5 33.5t15.5 17.5v2q0 8 12 8h8q6 0 10 -2q0 18 15 18q4 0 6 -2h12q2 -2 2 -4l39 -4 q8 25 19.5 36t24 15t23.5 3t21 -1h13q-2 2 -2 9v4q4 4 6 4l4 114l-127 -2q0 -6 -4 -6h-11q-6 0 -14 -3t-14 -15h-2q-10 0 -11 16q-20 0 -30 23h-39q2 -2 2 -6t-8 -9q-6 2 -6 15h-68l2 -2q0 -4 -7 -6.5t-7 -8.5v-2q-2 -2 -8 -2q-8 0 -21 6v15h-84v-11q-31 -10 -32 -23t-1 -20 h-30v11q0 10 4 10t6 -2v12q-6 0 -12.5 4t-6.5 11q0 4 2 6h-90v-9q-10 -4 -24 -4q-16 0 -23 4l-2 9q-4 0 -5 -6.5t-9 -8.5v15q-18 0 -31 4v-2q0 -2 -8 -2q-4 0 -8 3t-13 3q-23 0 -47 -9.5t-47 -17.5q-12 0 -12 21h-2q-4 0 -5 -7.5t-11 -7.5q-2 2 -3 9q0 4 3 6q-8 0 -9 -4v-7 q-6 0 -16 -1t-21.5 -3t-19.5 -6t-8 -12q0 -2 6 -2q8 0 8 -10q-2 2 -6 2t-10 -4.5t-6 -8.5v-2q2 0 2 -2q-6 -6 -13 -6q-6 0 -8 6v25h6v20h-4q-16 0 -16 13l-76 2v-11q-14 -4 -18 -7t-6.5 -5t-3.5 -4t-7 -2h-6q-12 0 -33.5 9t-31.5 9q-18 0 -17.5 -9t-7.5 -9q-4 0 -6 2 q8 -18 11 -33.5t3 -25.5h8l1 -1t1 -3q0 -4 -1 -7.5t-1 -7.5q45 0 52 -6q4 0 17 3t28.5 7t31 7.5t25.5 3.5q31 0 63.5 -9.5t51.5 -11.5q23 2 40 3t27 5v-8q141 4 240.5 7t161.5 3q35 0 53 -6l18 -6h-2q10 0 26.5 8t27.5 8q12 0 25 -6t42 -6v-27h-59v-8q-12 -4 -31 -4l-4 -51 l-37 -2q0 -2 -10 -2q-4 0 -4 4h-60q0 -14 -6 -14l-6 -43h-10q-12 0 -36 -1t-42 -1q-8 0 -16.5 1t-16.5 1q-12 0 -8 -6.5t2 -14.5t-21.5 -14t-80.5 -6q-4 -10 -13 -11v-84q-33 0 -46 -4t-23 -4q-12 0 -43 6q-8 -18 -13.5 -26t-10.5 -13.5t-13 -9.5t-23 -14q0 -4 -10 -4 q-4 0 -18.5 5t-26.5 5q-4 0 -15.5 -18.5t-41.5 -18.5h-9l-4 -6q-25 0 -39 -8t-26 -18.5t-25.5 -18.5t-36.5 -8l-2 -2q-14 0 -49 -15v-14l2 2q4 0 9.5 -8t9.5 -10q-4 0 -6 1t-5 1l-2 -2q0 -10 2 -15q-4 -6 -10 -6v-73q8 0 7 -4.5t6 -4.5q10 0 24 5.5t21 5.5q16 0 22 -17h74 v-10q2 6 16 10q14 0 15 -4q0 -2 -3 -2v-2h142q-4 4 -4 6t12 2h12q2 -2 2 -4t-2 -4h74v8q8 4 20 4q6 0 10.5 -1t10.5 -3v-8h47q-4 4 -4 6q0 6 8 6q2 0 6 -3l4 -3q0 -2 -1 -3t-1 -3q6 0 20.5 6t29.5 6q20 0 30 -2v-10q10 0 10 10q14 2 27 2h25h26t29 -2v-10l147 2q-2 2 -2 4 q0 4 11 4h14q2 -2 2 -4t-2 -4h20v8q10 2 18.5 3t18.5 1q8 0 17.5 -1t19.5 -3v-8h37q-4 4 -4 6l4 4h4q4 0 8 -1t4 -5q0 -2 -2 -4h37q0 2 -1 3t-1 3t1 3l1 1h4q10 0 11 -6q0 -2 -2 -4h16v8q18 2 33 2h26h15q0 13 20 17zM786 422v-19h-22v19h22z" />
<glyph unicode="{" d="M1085 -127v82h-28v6q-27 6 -47.5 10t-36.5 4h-8v21h-11v18q-37 4 -64.5 8.5t-45.5 8.5q-2 35 -2 63q0 29 -11 37v0q0 2 3 2q2 0 2 -2h4v178q-6 2 -11 10l1 1q1 2 4 2q2 0 2 -3h4v39h-11v29h11v59h-11v27q-16 8 -50 6t-50 4v19h-10q-2 2 -2 6q0 10 11 18.5t26.5 13.5t30 7 t18.5 2h6q14 31 29 33v22l-9 -2v180h9v35h-9v12q0 10 -2 21v35h11q-2 2 -2 8q0 8 16 18h88q0 2 -2 2v2q0 6 6 7q2 0 3 -1t5 -1q2 23 14.5 45t34.5 22q14 0 15 -6l39 -2q-4 2 -5 3l-1 1q0 4 4 5l4 1q2 0 2 -2h2v35q-16 0 -29 4v14q4 0 9.5 4.5t13.5 4.5q4 0 6 -2v24h-2 q0 2 -2 2q-4 0 -6 -6t-7 -6q-6 16 -26.5 22.5t-36.5 6.5q-4 -2 -8 -15q-4 4 -18.5 8t-14.5 17q-37 -6 -58.5 -10.5t-29.5 -4.5l-2 -2q0 -27 -17.5 -37t-35.5 -10q-12 0 -17.5 5.5t-17.5 5.5q0 -4 -8.5 -5.5t-8.5 -5.5t3 -6q-4 -6 -21 -6v-25h-10v-6q0 -8 -4 -8h-105 q0 -27 -1 -46t-3 -30h-10q0 -4 6 -7t8 -9q-8 -8 -12 -9t-4 -12q0 -12 7 -35.5t7 -29.5q0 -10 -2 -16h-10v-48h10q2 -20 2 -41v-38v-39q0 -18 -2 -39q-2 2 -6 2q-8 0 -19.5 -5t-13.5 -5v-7q-6 0 -10 -1t-10 -1t-11.5 1t-9.5 1v7q-12 4 -22 4t-30.5 -6.5t-31.5 -6.5q-4 0 -9 1 t-9 1v7l-31 -7q-6 0 -10 -5t-10 -7v-24h-9v-29h9l4 -35q4 0 9 -8t7 -8h8q10 0 23.5 2t23.5 2q2 0 19.5 -1t19.5 -12h103v-18h8v-76h8q6 -10 6 -24l2 2q4 0 11.5 -11.5t7.5 -15.5q0 -6 -4 -10h-11l-6 -51v-265h6l1 -3t1 -9h3l21 -11q22 -11 30 -13q31 0 37 8h2l15 -11 q15 -10 15 -32q2 2 4 2t7.5 -8.5t11.5 -10.5l67 5q0 4 9 4q6 -10 6 -17h6l2 -16q6 0 12 -8.5t8 -12.5h3q2 0 5 1t7 1q8 0 8 -8l88 2q0 10 11.5 14.5t19.5 4.5q10 0 20 -6v-7h21v7q6 0 14 10t14 10z" />
<glyph unicode="|" d="M848 592v47q-16 0 -17 4q0 4 7 7l8 3l2 11h-10q-4 6 -4 16q0 6 4 10h8v68h-8q-4 14 -4 26v27v27q0 12 4 28h8v21h-8q-6 68 -7 194q-8 0 -8 2v2q-23 4 -43 7.5t-39 7.5v6q-8 -2 -22 -4t-30.5 -5t-32 -6.5t-23.5 -9.5v-10q-4 0 -9.5 -1t-11.5 -1v-278q6 8 9 8q4 0 4 -17 q0 -6 -13 -6v-53h-8q-4 -8 -4 -12q0 -10 8 -25.5t8 -26.5q0 -4 -4 -16q8 4 6 4q6 0 7 -14q0 -10 -13 -10v-31q0 -8 17.5 -11t25.5 -14h7q10 0 27.5 3t31.5 3q16 0 22 -2v-4q14 6 80 6q0 20 15 21q6 0 10 -2zM850 -119v473h-10q-6 0 -6 13l-89 4l-4 8q-16 0 -36.5 -6 t-30.5 -6q-16 0 -23 2v10q-4 2 -8 2q-6 0 -11 -8t-11 -8q-4 0 -7 2v-29h7q4 -12 4 -16q0 -10 -4 -15h-7v-14h7q2 -10 3 -20.5t1 -20.5t-1 -21.5t-3 -21.5h-7q0 -4 2 -5t3.5 -3t3.5 -6.5t2 -16.5q0 -16 -2 -20h-9v-107h9q2 -59 3 -104t1 -76q37 -10 57.5 -18.5t48.5 -8.5 q10 0 31.5 6.5t38.5 6.5l4 4q12 4 14 4h6q0 16 23 16z" />
<glyph unicode="}" d="M1085 467l-2 39h-8q-4 4 -4 12q0 10 4 17h8v20q-43 6 -76.5 10t-60.5 4l-16 2h-49q0 -6 -11 -8l-8 13q-8 14 -18 14h-2q-6 37 -6 61v15h-9v28h9v260h-11v13q-27 2 -41 6v8q-49 0 -61 2t-12 31q-4 -2 -13 -2q-12 0 -33.5 7t-27.5 7t-14 -4q-4 4 -14.5 12t-10.5 13 q0 6 2 10h-8q-10 23 -19 22h-20h-55q-23 0 -29 2v9h-82q-6 -16 -14 -18.5t-8 -10.5q0 -14 8 -31.5t8 -32.5l2 -2v-2q0 -6 7 -9t7 -11l4 -2q8 0 21.5 -3t28 -8.5t24.5 -13.5t10 -18q0 -2 -2 -2v-2h2q4 0 9 -10l6 -11q16 6 28.5 10.5t24.5 4.5q16 0 27.5 -6.5t11.5 -34.5h10 v-41h21q2 -6 3 -10.5t1 -8.5q0 -6 -4 -14l-7 -2v-162h-14q14 -31 14 -55h7v-17q8 -4 24.5 -5t31.5 -2t26.5 -7t11.5 -18h10v-19h6q4 -12 4 -18q0 -10 -12 -16.5t-29.5 -9.5t-37 -5t-33.5 -2v-14q-4 -6 -7 -7l-2 -38h9q2 -6 2 -15q0 -10 -2 -16h-9v-191h9q4 -12 4 -16t-4 -8 h-9v-27h9q2 -12 3 -23.5t1 -23.5q0 -10 -1 -22.5t-3 -22.5h-9q0 -12 -12 -19.5t-28.5 -11.5t-32 -5t-21.5 -1t-11 1t-9 1q0 -18 -8.5 -25.5t-19.5 -9.5t-22.5 -4t-15.5 -12q-8 4 -8 6t-10 2t-21.5 -4t-13.5 -4v-82q41 -18 60.5 -21.5t21.5 -13.5h59q6 10 27 10h6 q31 0 37 7.5t13 16.5t31 17.5t91 8.5q-4 4 -4 6q0 4 2 3t4 -1t5 5t5 19q2 12 17 17h30v8q10 0 26.5 9t31.5 9l2 25v123v141q-10 0 -10 2v2q2 6 6 6q2 0 2 -2h2l-6 35q-8 10 -8 29q0 14 8 31l8 84q16 4 25.5 7t23.5 3q2 -2 2 -6v-4q4 0 24.5 4t51.5 4q18 0 24 -2v-4 q45 6 64 6h6q-4 4 -4 6t4 4t6 2t3 -1t5 -1z" />
<glyph unicode="~" d="M1319 1016v0q2 0 2 2q-2 2 -2 4q0 4 -4 4h-4q-4 2 -4 10t4 15h8v24q-6 0 -15.5 7.5t-15.5 7.5q-12 2 -23.5 3t-21.5 1q-23 0 -41 -6.5t-35 -6.5q-12 0 -30.5 5.5t-28.5 5.5q-12 0 -12 -7q0 -6 -11 -6v-51h-59q0 -4 -14 -4v4q-4 0 -15.5 3t-15.5 3q-8 -2 -8 -10t-1 -18.5 t-10.5 -18.5t-35.5 -8h-19q-8 0 -18 4v6h-60v39q-55 -6 -92 -6q-23 0 -32 2v25h8v18h-8v10h-9q-10 0 -26.5 2t-35 5t-34.5 5.5t-27 2.5h-14v8q-6 -4 -26.5 -8.5t-26.5 -14.5q-6 2 -6 10l-109 -2q0 -8 -22 -8q0 -12 -7 -12h-2q0 -20 -4 -25h-26v-10q-27 -2 -44.5 -3t-29.5 -5 t-18.5 -13.5t-8.5 -27.5q-37 -6 -102 -6v-90q4 -4 22.5 -9.5t28.5 -15.5h113q0 23 28 23q12 0 13 -11l18 -4q8 31 21 39l41 13q8 4 28 4q12 0 19 -2v6q2 0 3 -1t3 -1q4 0 5 7t3 7q4 0 6 -2q-2 2 -2 8q0 20 58 21q14 0 28.5 -1t30.5 -3v-25h10v-16q4 2 8 2t4 -6t11 -7 q16 0 32.5 6.5t20.5 6.5l22 -3q21 -3 25 -8q0 -18 -8 -26q4 4 6 4t2 -8l51 -4q-2 -2 -2 -7h8q8 -2 9 -10h104q0 8 35 8v9q12 6 16 6q-2 2 -2 6q0 10 22.5 17t52.5 11.5t57.5 5.5t37.5 1h31q14 0 27 -2v6q23 12 30.5 20t12.5 25h8q6 0 6 -10q0 2 7 3t7 7q31 0 35 -10q2 0 8 6 t10 6t7 -2l6 41h8z" />
<glyph unicode="&#xa0;" />
<glyph unicode="&#xad;" d="M1317 420v94q-10 0 -41 1t-78 1h-82q-2 -2 -51 -2q0 -2 1 -3t1 -3q0 -8 -14 -8q0 4 -15 16h-45q0 -2 -14 -2v2q-61 0 -100 -1t-61.5 -3t-34 -3t-19.5 -1v6h-610l-7 -6q-8 2 -12 2h-4l2 -94q2 2 8 2t23 -10v-9q12 4 21.5 5.5t17.5 3.5q2 0 2 -9h213v-6h125v6q16 4 24 4 t25 -4v-6h82v6q10 4 22 4h25h18q10 0 21 -2v-8h16v8q16 4 24.5 7.5t16.5 3.5q16 0 40 -5.5t38 -5.5l4 -8h2q6 0 7 7l1 6q2 0 6.5 -1.5t4.5 -11.5q10 0 10 8q6 4 24.5 3t24.5 6v-9h51v-6h53v6q4 4 15 5q6 0 18 -5v-6h17q-4 0 -5 2q0 4 15 4h10q2 -2 2 -4v-2q2 -2 8 -2 q16 0 39 9.5t33 9.5q4 0 18.5 -5.5t30.5 -5.5q12 0 12 9q0 10 15 10h6z" />
<glyph unicode="&#xc9;" d="M1327 31v24q-4 -4 -6 -4t-3 4t-1 6t2 2v5q0 6 8 6v16h-8v14q-41 8 -87 12.5t-104 4.5q-47 0 -95 -4t-60 -13h-2q0 2 -2 2t-6.5 -2t-8.5 -2h-2q-4 0 -4 7v4q-25 0 -24 -9q-160 12 -254 13h-35q-18 0 -31 -4v4q-20 0 -16 -4h-4q-6 0 -12.5 -2t-8.5 -2t-2 4v4 q-25 -4 -44 -9.5t-32 -5.5q-12 0 -21 6.5t-11 6.5q-6 0 -17.5 -7.5t-19.5 -7.5l-2 -2q-4 0 -14.5 8.5t-22.5 12.5q-4 0 -3 -4t-14 -4q-4 8 -4 24v12q0 8 4 15h11v39h-11q-4 6 -4 10v10q0 12 4 19h11v24h-11q-4 16 -4 33v39v43t12.5 27.5t44 19.5t97.5 18q4 -4 4 -8q8 2 8 4 q18 0 33.5 -1t26.5 -3v4q0 4 8 4v-2q0 -6 6 -6q8 0 8 -8v-2q8 2 16.5 3t18.5 1h14q68 6 119 6q66 0 98 -8q43 12 68 12h8q10 2 20.5 3t22.5 1q47 0 76 -4t37 -4q-2 2 -2 4q0 6 14 6l2 -10q12 0 26.5 5t22.5 5v5q8 4 21 4h8v98q-2 2 -6 2q-2 0 -4 -6t-6 -6h-2q-2 2 -2 10 l-60 -2v10h-31v-10q-12 -4 -16 -4t-16 4v10h-56v-10q-10 -4 -26 -4q-14 0 -23 4v10q-2 0 -4 1l-2 1q-16 0 -34.5 -8t-26.5 -8t-21 4v8q-18 -6 -24.5 -9t-20.5 -3h-18t-19 4v8h-49q-39 -12 -57.5 -15t-30.5 -3q-10 0 -32.5 5t-41.5 5h-6v8h-67l2 -10q-16 -4 -22.5 -5 t-14.5 -1q-10 0 -28.5 5t-27.5 5q-8 0 -16 -4v10q-4 0 -17.5 3t-13.5 22h-6q-4 10 -4 20v21v18t4 16h6v54l-4 -4q-2 0 -3 1l-1 1v6q0 6 8 6l4 143h11v17l88 4q0 6 6 6q2 0 3 -1t3 -1v-8q31 4 53.5 6t36.5 2q16 0 42 -2t61 -6v2q0 6 6 6q8 0 8 4q29 0 58.5 -2t58.5 -10 q4 10 12 10v-10q41 4 71.5 6t53.5 4q27 0 28 -8q8 -2 18.5 4t16.5 6t22.5 -5t28.5 -5h5q2 8 12 8v-8q27 0 62.5 2t80.5 6l4 -8q12 0 27.5 5t24.5 5h14q4 0 14 16.5t29 24.5q-14 35 -14 55v8q-10 0 -11 5q0 4 2 6l-82 -2l2 -9q-8 -8 -28 -8q-10 0 -18.5 3t-21.5 6.5 t-33.5 6.5t-57.5 3h-13q-4 4 -4 6l-45 4v-8q-2 0 -13 -2t-9 -6h-2q-6 0 -12.5 -2.5t-8.5 -2.5q-4 0 -4 9q-133 0 -147 -7h-4q-6 0 -17.5 3.5t-11.5 13.5h-19q-2 -2 -2 -6v-2t2 -6q-2 -2 -4 -3.5t-4 -3.5q-14 0 -14 4t2 7q-8 2 -23 2h-4q-10 0 -12 -13q0 10 -8 11.5t-8 3.5 l4 6h-23v-6q-12 -4 -21 -6t-16 -5q-20 4 -33.5 7.5t-23.5 3.5v6h-76v-8q-8 -4 -22 -4q-16 0 -23 4v8h-69q2 -2 2 -6q0 -2 -11 -6q-12 0 -12 6v6h-18v-8q-10 -2 -18.5 -3t-18.5 -1t-19.5 1t-19.5 3v6q-53 -4 -119 -21l-8 -100l4 -14q8 -6 8 -11q0 -6 -8 -14h-4q-4 -4 -4 -8 l6 -1t6 -7v-2q0 -2 -2 -2q-4 0 -6 2l-2 -4q6 -4 10 -12.5t4 -14.5q0 -8 -8 -21l-4 -38v-115q2 2 10 -17q0 -4 -6 -8t-8 -4l8 -2l6 -6q0 -6 -4 -6q-2 0 -3 1t-3 1v-21h6q6 -12 6 -20q0 -10 -6 -19h-6v-20h6v-2q2 0 2 -2q0 -4 -4 -10t-4 -15v-2t2 -4h4q8 -12 8 -16 q0 -6 -8 -15l-4 -28q4 -2 8 -10q0 -4 -8 -5l4 -10q8 -16 8 -20q0 -6 -8 -19l-4 -22h4q8 -16 8 -21q0 -6 -8 -18l-4 -12h4q4 -10 6 -19.5t2 -19.5t-2 -20.5t-6 -20.5l-4 -31h4q8 -8 8 -16q0 -10 -8 -19l-4 -65l1 1t3 1q6 0 6 -9v-4q-2 -2 -4 -2q-4 0 -6 2v-24h6q2 -2 2 -8 t3 -14.5t12.5 -15.5t31.5 -13q-2 2 -2 4q0 8 17 8q0 -4 1 -5t1 -3t-2 -2v-2q16 0 50 -4.5t50 -4.5q63 4 108.5 6.5t75.5 4.5v6q12 4 21 4q6 0 11 -1t11 -3v-6h60q-2 2 -2 6q0 6 10 6q4 -2 9 -3t5 -5t-2 -4h103q-4 4 -5 6q0 6 13 6q14 -10 14 -12h66v8q16 4 26 4q6 0 23 -4 v-8q4 0 4 6t10 6h2l12 -10l91 -2v8h2v-2q4 0 5 7t5 7t8 -2v-6l51 -4v-8h19q-2 2 -2 6t12 8q14 -10 14 -12l45 -2v8q12 4 23 4q6 0 22 -4l2 -8q4 0 5.5 8t9.5 8q4 0 5 -4t1 -6t-1 -4l-1 -2h67v10q4 0 18.5 5t31.5 5q10 0 16 -2q0 27 -2 25z" />
<glyph unicode="&#xe9;" d="M1327 139v19h-8q-4 4 -4 12t4 12h8v25q-12 0 -12 8v2q-35 2 -51.5 5t-34.5 3q-10 0 -49 -5t-62 -5h-12q0 -8 -14 -8v-4q0 -12 -11.5 -19.5t-25 -10.5t-26.5 -4t-17 -1q-10 -4 -32 -18.5t-22 -36.5h-90q-57 0 -101 1t-73 3h-8q-10 0 -22 -6v6q-8 0 -9 -4v-2q-31 0 -34 4 q-16 -2 -28.5 -3t-25.5 -1h-14q-25 4 -42 7t-26 3l-4 41h-2h-12l-6 4h2l-7 1t-18 3h-4q-10 0 -14 -8q-4 0 -4 2q0 4 -6 4q-10 0 -19 -6q0 8 -4 9t-8 4t-8 10.5t-4 27.5h-7q-8 2 -8 10q0 6 8 15h7l4 51q16 12 34.5 16t34.5 4h13q8 0 16 -2v8h45v-8q16 0 33.5 -5t36.5 -5 q10 0 32.5 5t34.5 5q16 0 25 -4l2 -4q6 0 13 4t11 4q2 -2 3 -8q14 4 20 6t10 2q10 0 19 -8v4q6 2 14 6h2q8 0 8 -10q29 4 50.5 6t31.5 2h8v8q20 0 29 -8v8q70 -14 127 -14h18q41 2 75 4t57 2v10q16 0 24 10.5t12 24t5.5 25.5t1.5 18q35 10 58 15.5t40 9.5l-2 141h-25 q2 -2 2 -4q0 -6 -14 -6t-14 8v2q-29 4 -43.5 5t-14.5 30v6h-30v8q-100 12 -103 15v28q-4 -2 -10 -2q-4 0 -12.5 6.5t-10.5 6.5l-13 -4q-13 -5 -24 -15q-6 8 -25.5 13.5t-19.5 17.5q0 6 1 10t1 8q0 8 -4 11.5t-8 7.5q-14 -8 -72 -8v8q-8 0 -31.5 -2t-52 -3t-57 -3.5 t-49.5 -2.5h-22q0 -4 -8.5 -7t-8.5 -9q-4 0 -4 8h-10q-39 0 -61.5 2t-45 5.5t-50.5 6.5t-77 3q0 -8 -28 -9q0 -33 -19.5 -33.5t-30.5 -0.5h-10l-4 -9q-10 0 -27.5 -4t-27.5 -4l-4 -35l-39 -16q-4 0 -4 4l-39 4v-8h-29q0 -18 -12 -18l-2 -72q14 0 14 -8q0 -4 -14 -4v-21l8 4 q6 0 6 -14q0 -12 -14 -12l2 -117h8q4 -8 4 -16t-4 -21h-8v-63h8q2 -10 3 -16.5t1 -14.5t-1 -14.5t-3 -14.5h-8q8 -18 11 -33.5t3 -25.5q2 2 6 2q-2 0 4.5 -3t14.5 -7.5t16 -9.5t8 -7l52 -6v-12h8q2 0 2 -17q2 2 4 2q6 0 9 -8t7 -8l51 -2v-8h17v8q4 0 9 1t9 1t8.5 -1t8.5 -1 v-23q18 0 30 -4v-6h41q0 -4 11 -4q10 0 12 -10q41 0 55.5 5t30.5 5q4 -4 4 -6v-4q25 8 68 8h26q47 -4 71 -6l25 -2q2 6 9 6q4 0 7 -3t13 -3q18 0 42 5t30 5t22 -4v-4q6 -2 11.5 -3t11.5 -1q12 0 30.5 6t28.5 6t19 -4v-4q2 -2 4 -2q4 0 6 5t6 5l8 -4v-4q2 0 3 -1t3 -1 q12 0 28.5 4t31.5 4q10 0 14 -2q0 20 21 21q-2 0 -2 4q0 12 15 19t35.5 11t38 5t23.5 1h8q0 33 12.5 43.5t28.5 10.5q6 0 11 -4q0 20 14 20q2 0 7 -2t5 -18h25q0 14 4 26h8zM1092 420q-2 0 -3.5 1t-3.5 1q-10 0 -23 -6t-24 -6q-4 0 -6 2v4q-10 2 -18 3t-17 1q-23 0 -36 -10 v4q0 6 -3 8q-16 0 -20 -6t-25 -6h-12q-23 2 -108.5 3t-239.5 1q0 -4 -12 -4h-11q-2 10 -17 14l-15 4q-4 0 -8.5 -1t-4.5 -3t4 -6l-26 4q-6 2 -10 3t-9 1q-6 0 -14 -4l-18 -4v4q-10 2 -18.5 3t-14.5 1h-10q0 12 -4 16l-5 72q8 2 10.5 13.5t8.5 13.5q23 0 37 -1t24 -3 q2 12 9 12h22q8 16 8 35q45 14 74 18v-4q8 -4 18 -4q12 0 32 4t32 4q10 0 28.5 -7t30.5 -7h2q55 14 86 14q8 0 10.5 -2t4.5 -5t7 -5t19 -2q12 0 30.5 2t37 5t34 5t21.5 2q2 -2 8 -14l7 -13h8q0 -2 -2 -2v-2q0 -14 10 -19t20 -5q14 0 23 4v8h31q4 -10 13 -17t21 -26h7v-29 q-12 0 -13 -12q0 -10 6 -10v0q2 0 7 2v-47z" />
<glyph unicode="&#x2dc;" />
<glyph unicode="&#x2000;" horiz-adv-x="682" />
<glyph unicode="&#x2001;" horiz-adv-x="1365" />
<glyph unicode="&#x2002;" horiz-adv-x="682" />
<glyph unicode="&#x2003;" horiz-adv-x="1365" />
<glyph unicode="&#x2004;" horiz-adv-x="455" />
<glyph unicode="&#x2005;" horiz-adv-x="341" />
<glyph unicode="&#x2006;" horiz-adv-x="227" />
<glyph unicode="&#x2007;" horiz-adv-x="227" />
<glyph unicode="&#x2008;" horiz-adv-x="170" />
<glyph unicode="&#x2009;" horiz-adv-x="273" />
<glyph unicode="&#x200a;" horiz-adv-x="75" />
<glyph unicode="&#x2010;" d="M1317 420v94q-10 0 -41 1t-78 1h-82q-2 -2 -51 -2q0 -2 1 -3t1 -3q0 -8 -14 -8q0 4 -15 16h-45q0 -2 -14 -2v2q-61 0 -100 -1t-61.5 -3t-34 -3t-19.5 -1v6h-610l-7 -6q-8 2 -12 2h-4l2 -94q2 2 8 2t23 -10v-9q12 4 21.5 5.5t17.5 3.5q2 0 2 -9h213v-6h125v6q16 4 24 4 t25 -4v-6h82v6q10 4 22 4h25h18q10 0 21 -2v-8h16v8q16 4 24.5 7.5t16.5 3.5q16 0 40 -5.5t38 -5.5l4 -8h2q6 0 7 7l1 6q2 0 6.5 -1.5t4.5 -11.5q10 0 10 8q6 4 24.5 3t24.5 6v-9h51v-6h53v6q4 4 15 5q6 0 18 -5v-6h17q-4 0 -5 2q0 4 15 4h10q2 -2 2 -4v-2q2 -2 8 -2 q16 0 39 9.5t33 9.5q4 0 18.5 -5.5t30.5 -5.5q12 0 12 9q0 10 15 10h6z" />
<glyph unicode="&#x2011;" d="M1317 420v94q-10 0 -41 1t-78 1h-82q-2 -2 -51 -2q0 -2 1 -3t1 -3q0 -8 -14 -8q0 4 -15 16h-45q0 -2 -14 -2v2q-61 0 -100 -1t-61.5 -3t-34 -3t-19.5 -1v6h-610l-7 -6q-8 2 -12 2h-4l2 -94q2 2 8 2t23 -10v-9q12 4 21.5 5.5t17.5 3.5q2 0 2 -9h213v-6h125v6q16 4 24 4 t25 -4v-6h82v6q10 4 22 4h25h18q10 0 21 -2v-8h16v8q16 4 24.5 7.5t16.5 3.5q16 0 40 -5.5t38 -5.5l4 -8h2q6 0 7 7l1 6q2 0 6.5 -1.5t4.5 -11.5q10 0 10 8q6 4 24.5 3t24.5 6v-9h51v-6h53v6q4 4 15 5q6 0 18 -5v-6h17q-4 0 -5 2q0 4 15 4h10q2 -2 2 -4v-2q2 -2 8 -2 q16 0 39 9.5t33 9.5q4 0 18.5 -5.5t30.5 -5.5q12 0 12 9q0 10 15 10h6z" />
<glyph unicode="&#x2012;" d="M1317 420v94q-10 0 -41 1t-78 1h-82q-2 -2 -51 -2q0 -2 1 -3t1 -3q0 -8 -14 -8q0 4 -15 16h-45q0 -2 -14 -2v2q-61 0 -100 -1t-61.5 -3t-34 -3t-19.5 -1v6h-610l-7 -6q-8 2 -12 2h-4l2 -94q2 2 8 2t23 -10v-9q12 4 21.5 5.5t17.5 3.5q2 0 2 -9h213v-6h125v6q16 4 24 4 t25 -4v-6h82v6q10 4 22 4h25h18q10 0 21 -2v-8h16v8q16 4 24.5 7.5t16.5 3.5q16 0 40 -5.5t38 -5.5l4 -8h2q6 0 7 7l1 6q2 0 6.5 -1.5t4.5 -11.5q10 0 10 8q6 4 24.5 3t24.5 6v-9h51v-6h53v6q4 4 15 5q6 0 18 -5v-6h17q-4 0 -5 2q0 4 15 4h10q2 -2 2 -4v-2q2 -2 8 -2 q16 0 39 9.5t33 9.5q4 0 18.5 -5.5t30.5 -5.5q12 0 12 9q0 10 15 10h6z" />
<glyph unicode="&#x2013;" d="M1317 420v94q-10 0 -41 1t-78 1h-82q-2 -2 -51 -2q0 -2 1 -3t1 -3q0 -8 -14 -8q0 4 -15 16h-45q0 -2 -14 -2v2q-61 0 -100 -1t-61.5 -3t-34 -3t-19.5 -1v6h-610l-7 -6q-8 2 -12 2h-4l2 -94q2 2 8 2t23 -10v-9q12 4 21.5 5.5t17.5 3.5q2 0 2 -9h213v-6h125v6q16 4 24 4 t25 -4v-6h82v6q10 4 22 4h25h18q10 0 21 -2v-8h16v8q16 4 24.5 7.5t16.5 3.5q16 0 40 -5.5t38 -5.5l4 -8h2q6 0 7 7l1 6q2 0 6.5 -1.5t4.5 -11.5q10 0 10 8q6 4 24.5 3t24.5 6v-9h51v-6h53v6q4 4 15 5q6 0 18 -5v-6h17q-4 0 -5 2q0 4 15 4h10q2 -2 2 -4v-2q2 -2 8 -2 q16 0 39 9.5t33 9.5q4 0 18.5 -5.5t30.5 -5.5q12 0 12 9q0 10 15 10h6z" />
<glyph unicode="&#x2014;" d="M1317 420v94q-10 0 -41 1t-78 1h-82q-2 -2 -51 -2q0 -2 1 -3t1 -3q0 -8 -14 -8q0 4 -15 16h-45q0 -2 -14 -2v2q-61 0 -100 -1t-61.5 -3t-34 -3t-19.5 -1v6h-610l-7 -6q-8 2 -12 2h-4l2 -94q2 2 8 2t23 -10v-9q12 4 21.5 5.5t17.5 3.5q2 0 2 -9h213v-6h125v6q16 4 24 4 t25 -4v-6h82v6q10 4 22 4h25h18q10 0 21 -2v-8h16v8q16 4 24.5 7.5t16.5 3.5q16 0 40 -5.5t38 -5.5l4 -8h2q6 0 7 7l1 6q2 0 6.5 -1.5t4.5 -11.5q10 0 10 8q6 4 24.5 3t24.5 6v-9h51v-6h53v6q4 4 15 5q6 0 18 -5v-6h17q-4 0 -5 2q0 4 15 4h10q2 -2 2 -4v-2q2 -2 8 -2 q16 0 39 9.5t33 9.5q4 0 18.5 -5.5t30.5 -5.5q12 0 12 9q0 10 15 10h6z" />
<glyph unicode="&#x2018;" d="M492 836v73h8q0 4 1 7.5t1 7.5q0 2 -1 6t-1 8h-8v45h8l1 2t1 6t-1 8.5t-1 8.5h-8v12l8 -2q0 4 1 8t1 8t-1 7t-1 8h-8v14h8v24l37 -4q20 -10 20 -12q14 6 23.5 8t11.5 4v4q4 2 22.5 11.5t39.5 21.5l22 13v4q0 2 17.5 1t23.5 9q18 -6 26 -6t13 2v4q6 2 14 2q4 0 24.5 -7 t30.5 -7q4 0 6.5 1t4.5 1v-25h8q0 -18 6 -27l24 -4q4 -12 23 -12q29 0 36 5t7 7t-2 4q2 2 4 2q4 0 7 -5t7 -5l2 -47q-4 6 -6 6q-6 0 -6 -14q-45 -6 -63.5 -9t-27.5 -7.5t-15 -14.5t-25 -28q-4 -2 -16 -2h-13q-8 0 -18 2q-29 0 -43 -9v-123q20 -6 41 -6q12 0 18 2l19 4 q12 0 19 -1t14 -3l-5 -43q-6 0 -13 -9t-13 -11l-51 -4l-2 -10q-6 0 -7.5 7t-11.5 7q-14 -4 -14 -12l-88 -2v10q-2 0 -2 -2v0q-4 0 -5 7t-6 7l-4 -4q-2 2 -5 10t-7 17.5t-9 16.5t-13 7h-80v12v5q0 2 -2 2q-4 0 -6 -2z" />
<glyph unicode="&#x2019;" d="M958 836v73h-8q-4 4 -4 15q0 8 4 14h8v45h-8q-4 0 -4 8q0 10 4 17h8v12l-8 -2q-4 4 -4 16q0 8 4 15h8v14h-8v24l-39 -4q-8 -4 -13 -7t-7 -5q-12 6 -22.5 8t-12.5 4v4q-4 2 -22.5 11.5t-39.5 21.5l-22 13l1 1t1 3q-4 2 -20 2t-21 8q-18 -6 -28 -6q-6 0 -11 2v4q-6 2 -16 2 q-8 0 -25.5 -7t-31.5 -7h-5q0 2 -2 2v-25h-8q0 -18 -6 -27l-25 -4q-4 -8 -11 -10t-11 -2q-31 0 -38 6l-7 6l4 4q-2 2 -6 2t-6 -5t-6 -5l-2 -47q2 6 6 6t4 -14q45 -6 63.5 -9t27.5 -7.5t16 -14.5t26 -28q2 -2 14 -2h13q8 0 18 2q29 0 45 -9v-123q-25 -6 -43 -6q-10 0 -16 2 l-21 4q-18 0 -31 -4l2 -43q6 0 14.5 -9t14.5 -11l51 -4l2 -10q4 0 6.5 7t10.5 7h2q14 -4 14 -12l88 -2v10q2 0 2 -2v0q2 0 3 7t5 7q2 0 7 -4q2 2 5 10t7 17.5t9 16.5t13 7h80q-2 4 -2 12v5q2 2 4 2q4 0 6 -2z" />
<glyph unicode="&#x201c;" d="M193 815l4 14q4 12 4 21q0 8 -4 16l-4 99q2 -2 4 -2q6 0 6 12q0 6 -6 6q-2 0 -3 -1l-1 -1q-4 8 -5 16q0 12 8.5 38t8.5 36q0 6 -4 14q4 4 11 5.5t11 5.5l88 4v53q20 0 21 -4q47 10 125 10v2q10 0 30.5 -3t49.5 -13v-51l59 -7q18 0 31 7q0 -4 7 -5.5t7 -3.5q0 -4 -2 -6 q4 -4 16 -4l-4 -31q0 -6 -6 -9t-6 -13l-23 -2q6 2 7 6q0 6 -9 6q-4 0 -6 -5t-3 -10t-2 -8t-1 3q-4 0 -5 5t-7 5q-2 0 -2 -2v0h-2q-10 0 -11 -17h-30v-18q-20 0 -21 -25q-27 0 -56.5 -10t-33.5 -14v-16h-8q-2 -27 -3 -45.5t-1 -32.5h-10q0 -18 10 -25h20v-8q16 -2 40 -3 t53 -1v-39h-7q-4 -4 -4 -16q-2 0 -3 1t-3 1q-4 0 -4 -11q-57 0 -63 -6q-16 6 -119 6q0 6 -10.5 11.5t-18.5 5.5h-2q0 2 1 3t1 3q0 10 -14.5 19.5t-59.5 9.5q0 8 -13 16t-23 8zM793 813v164q4 -4 6 -4q6 0 6 10t-12 10v21q0 -2 6 -2t6 14q0 12 -8 12q-4 0 -4 -2v37h16 q2 2 2 4t2 4h90q-2 0 -2 -2v0q0 -4 10 -8q12 0 13 8v2q0 14 -9 15v10h9v35q10 2 14 10q0 -2 6 -2q8 0 17 2q10 0 14 -10v8l53 -2q0 -4 6 -6q4 4 5 6t16 4q2 -4 2 -6t2 -4h78q0 -10 12 -11v-40l59 -3q0 -4 6 -4t7 -2q0 -4 -2 -6q4 -4 32 -4q0 -16 9 -16l2 -21 q-8 -10 -25.5 -15t-36 -9t-34 -6.5t-17.5 -4.5v-24h-8q-4 -4 -4 -19h-15q-6 0 -6 -6q-25 6 -41 6q-8 0 -28.5 -8t-20.5 -37v-39h-8q-4 -8 -4 -16v-18v-19q0 -8 4 -18q35 -2 62.5 -3t45.5 -1v-6q4 -4 11 -5v-34q-4 4 -9 4q-4 0 -9 -6.5t-15 -6.5q-2 0 -3 1t-3 1v3q-2 0 -3 1 t-5 1q-16 0 -38 -9.5t-38 -9.5t-41 3t-60 3v2q0 16 -12 27.5t-59 11.5v10q-2 0 -9.5 5.5t-11.5 5.5q-6 0 -8 -2q0 18 -14 18q-6 0 -6 -2z" />
<glyph unicode="&#x201d;" d="M1257 815l-4 14q-4 6 -4 21q0 12 4 16l4 99q-2 -2 -4 -2q-4 0 -5 4t-1 8q0 6 6 6q2 0 2 -2h2q4 8 5 16q0 12 -8.5 38t-8.5 36q0 6 4 14q-4 4 -11 5.5t-11 5.5l-88 4v53q-23 0 -23 -4q-47 10 -123 10v2q-10 0 -30.5 -3t-51.5 -13v-51l-59 -7q-18 0 -31 7q0 -4 -6 -5.5 t-6 -3.5q0 -4 2 -6q-4 -4 -18 -4l4 -31q0 -6 7 -9t7 -13l20 -2q-6 2 -6 6t4.5 5t6.5 1q8 0 9 -15.5t3 -4.5q4 0 5 5t5 5q2 0 2 -2h2h2q10 0 10 -17h31v-18q20 0 21 -25q27 0 56.5 -10t33.5 -14v-16h8q2 -27 3 -45.5t1 -32.5h8q0 -16 -8 -25h-22v-8q-16 -2 -39 -3t-54 -1v-39 h9q4 -4 4 -16q2 0 3 1t3 1q4 0 4 -11q57 0 61 -6q14 6 119 6q0 6 11.5 11.5t17.5 5.5h2q0 2 -1 3t-1 3q0 10 15.5 19.5t60.5 9.5q0 8 13 16t23 8zM657 813v164l-8 -4q-4 0 -4 10t12 10v21q-4 -2 -8 -2t-4 14q0 12 6 12q4 0 6 -2v37h-16q-2 2 -2 4t-2 4h-90q2 0 2 -2v0 q0 -6 -12 -8q-10 0 -11 8v2q0 14 6 15v10h-6v35q-10 2 -14 10q-2 -2 -8 -2q-8 0 -15 2q-12 0 -16 -10v8l-51 -2q0 -4 -8 -6q-4 4 -5 6t-14 4q-4 -8 -6 -10h-76q0 -10 -14 -11v-40l-59 -3q0 -4 -7 -4q-4 0 -4 -2q0 -4 2 -6q-4 -4 -32 -4q0 -16 -9 -16l-2 -21q6 -10 23.5 -15 t36 -9t34 -6.5t17.5 -4.5v-24h10q4 -4 4 -19h13q8 0 8 -6q25 6 41 6q6 0 27.5 -8t21.5 -37v-39h8q4 -20 4 -34q0 -8 -1 -17.5t-3 -19.5q-37 -2 -63.5 -3t-44.5 -1v-6q-4 -4 -11 -5v-34q4 4 9 4q4 0 9 -6.5t15 -6.5q2 0 3 1t3 1v3l1 1t5 1q16 0 39 -9.5t39 -9.5t40 3t59 3v2 q0 16 13 27.5t60 11.5v10q4 0 7 5.5t12 5.5q6 0 10 -2q0 18 12 18q6 0 8 -2z" />
<glyph unicode="&#x202f;" horiz-adv-x="273" />
<glyph unicode="&#x205f;" horiz-adv-x="341" />
</font>
</defs>
</svg>
